<svg width="1920" height="1080" viewBox="0 0 1920 1080" fill="none" xmlns="http://www.w3.org/2000/svg">
<g clip-path="url(#clip0_418_2744)">
<path d="M1975.19 -18.5078H-23.0586V643.055H1975.19V-18.5078Z" fill="#39B54A"/>
<path d="M1945.14 135.177H1114.46C1113.03 135.175 1111.64 134.702 1110.52 133.831C1109.39 132.96 1108.58 131.74 1108.21 130.361C1107.85 128.982 1107.95 127.521 1108.51 126.207C1109.06 124.892 1110.03 123.798 1111.27 123.093C1137.9 107.908 1197.65 83.6581 1309.02 82.5653C1309.02 82.5653 1375.34 7.0982 1588.5 -10.9698C1801.66 -29.0378 1945.16 -10.9698 1945.16 -10.9698L1945.14 135.177Z" fill="#F1F2F2"/>
<path d="M1011.2 77.2221H503.73C502.219 77.212 500.748 76.7317 499.521 75.8481C498.294 74.9644 497.373 73.721 496.885 72.2903C496.396 70.8595 496.365 69.3123 496.795 67.8631C497.226 66.4138 498.096 65.1343 499.286 64.202C508.986 56.6355 526.492 48.9545 556.913 51.0048C556.913 51.0048 638.227 1.57809 719.531 15.9305C800.835 30.2829 847.044 54.1896 847.044 54.1896C847.044 54.1896 875.738 29.9706 910.812 45.2701C945.885 60.5696 952.265 63.7544 952.265 63.7544C952.265 63.7544 980.677 57.4577 1012.48 70.6756C1013.21 70.9766 1013.81 71.519 1014.18 72.2109C1014.55 72.9028 1014.67 73.7016 1014.52 74.472C1014.37 75.2425 1013.96 75.9371 1013.35 76.4383C1012.75 76.9395 1011.99 77.2164 1011.2 77.2221V77.2221Z" fill="#F1F2F2"/>
<path d="M166.525 133.143C173.924 139.575 181.47 145.799 189.817 150.899C228.075 174.275 276.199 170.497 320.952 168.291C371.273 165.803 419.355 169.727 455.636 207.57C492.312 245.818 538.636 269.902 591.299 277.396C633.262 283.359 676.11 279.061 716.97 268.403C752.179 259.213 778.708 235.817 816.414 233.714C834.867 232.673 853.403 236.306 871.814 234.588C894.408 232.507 915.38 222.453 936.965 215.459C1027.82 186.015 1126.47 210.453 1218.3 236.701C1333.91 269.736 1448.67 305.532 1562.57 344.089C1574.15 348.002 1586.42 352.415 1593.8 362.147C1606.04 378.175 1599.45 402.737 1584.73 416.538C1570.01 430.339 1549.6 435.844 1529.96 440.424C1445.83 460.053 1359.91 470.773 1274.11 480.796C831.786 532.429 383.564 566.14 -58.0601 508.834C-84.2247 505.41 -112.783 500.456 -130.226 480.546C-140.883 468.358 -145.765 452.133 -148.085 436.105C-152.727 404.173 -149.584 361.106 -131.267 333.275C-113.865 306.819 -97.1925 287.72 -98.7744 253.062C-99.9297 227.584 -110.4 202.168 -105.019 177.22C-102.022 162.931 -94.0078 150.254 -85.9523 138.014C-76.8041 124.172 -66.8961 110.007 -52.4296 101.889C-41.9075 95.9874 -29.7619 93.7601 -17.8452 91.8243C34.9315 83.269 93.2138 79.824 137.644 109.518C147.968 116.512 157.137 124.994 166.525 133.143Z" fill="#006838"/>
<path d="M1975.19 643.055H-23.0586V1105.54H1975.19V643.055Z" fill="#BCBEC0"/>
<path d="M669.188 625.859L510.432 1134.32" stroke="#58595B" stroke-width="3" stroke-miterlimit="10"/>
<path d="M347.407 628.637L37.002 1135.19" stroke="#58595B" stroke-width="3" stroke-miterlimit="10"/>
<path d="M2.15807 629.262L-85.0156 738.492" stroke="#58595B" stroke-width="3" stroke-miterlimit="10"/>
<path d="M948.289 632.043L951.911 1133.51" stroke="#58595B" stroke-width="3" stroke-miterlimit="10"/>
<path d="M1205.61 626.504L1367.07 1132.75" stroke="#58595B" stroke-width="3" stroke-miterlimit="10"/>
<path d="M1431.03 632.25L1758.03 1132.04" stroke="#58595B" stroke-width="3" stroke-miterlimit="10"/>
<path d="M1696.14 625.766L2157.84 1131.47" stroke="#58595B" stroke-width="3" stroke-miterlimit="10"/>
<path opacity="0.13" d="M1980.53 915.164H-17.7207V957.68L1980.53 1000.2V915.164Z" fill="#E6E7E8"/>
<path opacity="0.25" d="M1975.19 1006.57L-29.0117 978.934V1021.45H1991.82L1975.19 1006.57Z" fill="#E6E7E8"/>
<path opacity="0.25" d="M-26.9512 1060.5L2004.58 1105.54L1995.82 1042.71H-26.9512V1060.5Z" fill="#E6E7E8"/>
<path opacity="0.13" d="M-33.2695 700.004V784.099L2002.84 783.683L2003.7 741.167L-33.2695 700.004Z" fill="#E6E7E8"/>
<path opacity="0.25" d="M-33.2695 790.887V806.322L2013.32 847.682L2014.18 805.177L-33.2695 790.887Z" fill="#E6E7E8"/>
<path opacity="0.25" d="M-33.2695 888.842L2047 886.636L2027.2 869.224L-33.2695 827.582V888.842Z" fill="#E6E7E8"/>
<path opacity="0.25" d="M-33.2695 702.553L2047 700.347L2027.2 682.935L-33.2695 641.293V702.553Z" fill="#E6E7E8"/>
<path d="M1991.82 359.555H-34.0605V643.053H1991.82V359.555Z" fill="#D1D3D4"/>
<path opacity="0.59" d="M1983.85 517.617H-65.9492V531.491H1983.85V517.617Z" fill="#E6E7E8"/>
<path opacity="0.59" d="M1983.85 425.988H-65.9492V432.93H1983.85V425.988Z" fill="#E6E7E8"/>
</g>
<defs>
<clipPath id="clip0_418_2744">
<rect width="1920" height="1080" fill="white"/>
</clipPath>
</defs>
</svg>
