<svg width="1920" height="1080" viewBox="0 0 1920 1080" fill="none" xmlns="http://www.w3.org/2000/svg">
<g clip-path="url(#clip0_418_2052)">
<g clip-path="url(#clip1_418_2052)">
<path opacity="0.29" d="M1314.04 -37.6807L712.504 600.152H1965.74V-38.6289L1314.04 -37.6807Z" fill="#E9F4E7"/>
<path opacity="0.23" d="M785.443 -40.2656H678.844L67.8281 608.327H174.427L785.443 -40.2656Z" fill="#FFF6D8"/>
<path opacity="0.23" d="M856.145 -40.2656H817.32L206.305 608.327H245.129L856.145 -40.2656Z" fill="white"/>
<path opacity="0.23" d="M1745.64 -40.2656H1668.92L1057.89 608.327H1134.63L1745.64 -40.2656Z" fill="#FFFBD0"/>
<path opacity="0.23" d="M1976.37 56.1797L1456.21 608.325H1762.87L1976.37 381.687V56.1797Z" fill="#FFFEF9"/>
<path d="M1984.9 178.956V162.599H1605.34V-55H1589V162.599H946.441V-55H930.094V162.599H287.531V-55H271.185V162.599H-44.9746V178.956H271.185V598.097H-44.9746V614.432H1984.9V598.097H1605.34V178.956H1984.9ZM287.531 598.097V178.956H930.094V598.097H287.531ZM1589 598.097H946.441V178.956H1589V598.097Z" fill="#6D6E71"/>
<path d="M1982.69 181.018V164.662H1603.13V-52.9375H1586.79V164.662H944.224V-52.9375H927.888V164.662H285.314V-52.9375H268.978V164.662H-47.1914V181.018H268.978V600.159H-47.1914V616.495H1982.69V600.159H1603.13V181.018H1982.69ZM285.314 600.159V181.018H927.888V600.159H285.314ZM1586.79 600.159H944.224V181.018H1586.79V600.159Z" fill="#414042"/>
<path opacity="0.59" d="M1481.81 750.957L1429.03 757.306C1416.08 758.862 1406.1 767.375 1404.8 777.919C1403.41 789.183 1412.2 799.562 1425.61 802.654L1513.21 822.308C1550.74 830.699 1589.09 834.923 1627.55 834.903H1646.45L1986.28 832.841L1979.07 777.908L1481.81 750.957Z" fill="#808285"/>
<path opacity="0.27" d="M1634.82 563.26V666.943L1638.97 665.613V561.652L1634.82 563.26Z" fill="#39B54A"/>
<path opacity="0.27" d="M1739.98 531.354V635.026L1744.11 633.707V529.746L1739.98 531.354Z" fill="#39B54A"/>
<path opacity="0.27" d="M1832.76 499.405V603.077L1836.89 601.758V497.797L1832.76 499.405Z" fill="#39B54A"/>
<path opacity="0.27" d="M1522.65 597.86V701.532L1526.78 700.213V596.242L1522.65 597.86Z" fill="#39B54A"/>
<path d="M2028.73 534.523L1498.67 705.61C1466.11 716.133 1442.87 742.795 1438.71 776.724L1438.47 778.517H1453.33L2028.73 723.43V534.523Z" fill="#006838"/>
<path d="M2050.99 538.648L1522.39 705.674C1505.63 710.927 1490.48 720.378 1478.39 733.132C1466.31 745.885 1457.68 761.516 1453.34 778.541H1457.25L2051 723.453L2050.99 538.648Z" fill="#006838"/>
<path d="M1525.65 708.045L2050.99 542.019V538.648L1522.39 705.674C1505.63 710.927 1490.48 720.378 1478.39 733.132C1466.31 745.885 1457.68 761.516 1453.34 778.541H1457.25C1461.88 762.026 1470.56 746.929 1482.51 734.619C1494.45 722.309 1509.28 713.175 1525.65 708.045Z" fill="#39B54A"/>
<path d="M1461.02 775.375L1580.27 800.554L1621.1 741.312L1461.02 775.375Z" fill="#6D6E71"/>
<path d="M1461.02 775.375V778.539L1576.13 803.223V799.678L1461.02 775.375Z" fill="#58595B"/>
<path opacity="0.23" d="M1491.76 593.004L1489.77 593.829L1415.65 688.163L1422.24 703.901L1441.51 723.69L1444.37 724.329L1563.18 571.742L1491.76 593.004Z" fill="#FFFEF9"/>
<path opacity="0.23" d="M1458.37 727.444L1460.4 727.763L1585 567.715L1569.43 569.663L1447.37 725.001L1458.37 727.444Z" fill="#FFFEF9"/>
<path d="M1588.74 788.281L1589.45 787.251L1499.39 767.215L1496.66 767.792L1588.74 788.281Z" fill="#414042"/>
<path d="M1537.07 759.195L1534.34 759.772L1598.54 774.057L1599.24 773.027L1537.07 759.195Z" fill="#414042"/>
<path d="M1575.64 750.992L1572.91 751.569L1608.57 759.505L1609.28 758.475L1575.64 750.992Z" fill="#414042"/>
<path d="M1993.23 615.641L1634.32 731.67C1618.38 736.824 1604.24 746.428 1593.57 759.351C1582.91 772.274 1576.16 787.977 1574.12 804.609H1993.23V615.641Z" fill="#006838"/>
<path opacity="0.27" d="M1475.55 730.11L1475.89 729.822C1491.31 716.913 1509.12 707.17 1528.31 701.149L1978.31 556.231L1982.54 451.105L1522.94 579.936L1407.99 628.077L1410.49 675.816L1422.24 703.891L1441.51 723.679L1458.37 727.441L1475.55 730.11Z" fill="#90D2C4"/>
<path d="M2015.5 619.781L1658.05 731.74C1641.28 736.992 1626.13 746.444 1614.05 759.197C1601.96 771.951 1593.34 787.582 1588.99 804.606H2015.51L2015.5 619.781Z" fill="#006838"/>
<path opacity="0.27" d="M1609.72 756.33L1610.06 756.042C1625.47 743.126 1643.29 733.382 1662.48 727.369L1972.87 630.015L1977.61 512.594L1657.11 606.155L1542.16 654.297L1544.65 702.036L1556.4 730.111L1575.68 749.899L1592.54 753.661L1609.72 756.33Z" fill="#90D2C4"/>
<path d="M1661.3 734.109L2015.5 623.16V619.77L1658.05 731.738C1641.28 736.991 1626.13 746.443 1614.05 759.196C1601.96 771.949 1593.34 787.58 1588.99 804.605H1592.9C1597.53 788.09 1606.22 772.994 1618.16 760.683C1630.11 748.373 1644.93 739.239 1661.3 734.109V734.109Z" fill="#39B54A"/>
<path d="M1613.67 756.331H1601.51C1572.04 754.877 1544.92 724.793 1541.16 696.213L1540.31 689.71C1536.75 662.738 1553.09 637.044 1579.4 628.212L1995.47 509.348L2009.9 518.026L1590.62 642.867C1564.6 651.937 1549.56 678.538 1555.58 704.902L1556.8 710.251C1562.72 736.326 1586.38 754.877 1613.7 754.877H1618.29V756.331H1613.67Z" fill="#484C59"/>
<path d="M1477.34 730.698H1465.18C1435.71 729.245 1408.6 699.16 1404.84 670.581L1403.97 664.077C1400.43 637.105 1416.76 611.412 1443.08 602.579L1976.01 452.332L1987.78 459.052L1454.3 617.235C1428.27 626.304 1413.23 652.905 1419.26 679.269L1420.47 684.618C1426.4 710.693 1450.05 729.245 1477.38 729.245H1481.96V730.698H1477.34Z" fill="#484C59"/>
<path d="M1609.72 756.331H1597.56C1568.09 754.847 1540.98 724.072 1537.21 694.843L1536.36 688.196C1534.64 674.818 1537.6 661.258 1544.72 649.805C1551.84 638.352 1562.69 629.706 1575.45 625.327L1991.52 503.711L2005.95 512.605L1586.67 640.281C1574.1 644.765 1563.6 653.689 1557.15 665.374C1550.69 677.058 1548.73 690.698 1551.63 703.728L1552.85 709.2C1555.72 722.148 1562.93 733.727 1573.28 742.027C1583.62 750.326 1596.49 754.849 1609.75 754.847H1614.35V756.331H1609.72Z" fill="#23262F"/>
<path d="M1473.62 730.111H1461.46C1431.99 728.627 1404.88 697.862 1401.12 668.633L1400.25 661.986C1398.54 648.607 1401.49 635.047 1408.62 623.594C1415.74 612.141 1426.6 603.495 1439.35 599.116L1977.59 445.809L1992.02 454.703L1450.62 614.102C1438.05 618.588 1427.55 627.514 1421.09 639.2C1414.64 650.886 1412.68 664.528 1415.58 677.559L1416.79 683.031C1419.67 695.977 1426.88 707.554 1437.22 715.851C1447.57 724.149 1460.43 728.67 1473.7 728.668H1478.28V730.152L1473.62 730.111Z" fill="#23262F"/>
<path opacity="0.27" d="M1802.21 579.852V683.525L1806.35 682.205V578.234L1802.21 579.852Z" fill="#39B54A"/>
<path opacity="0.27" d="M1907.37 547.946V651.618L1911.5 650.299V546.328L1907.37 547.946Z" fill="#39B54A"/>
<path opacity="0.27" d="M1690.04 614.44V718.122L1694.18 716.793V612.832L1690.04 614.44Z" fill="#39B54A"/>
<path opacity="0.17" d="M1638.94 606.723L1575.42 625.274C1562.66 629.653 1551.81 638.299 1544.69 649.753C1537.56 661.206 1534.61 674.766 1536.33 688.143L1537.18 694.791C1537.39 696.378 1537.67 697.965 1538.01 699.563L1551.89 705.097L1551.57 703.675C1548.67 690.646 1550.63 677.006 1557.09 665.321C1563.54 653.637 1574.04 644.713 1586.61 640.229L1671.92 614.246L1638.94 606.723Z" fill="#BBE2D8"/>
<path opacity="0.17" d="M1502.89 580.801L1439.38 599.352C1426.63 603.733 1415.77 612.379 1408.65 623.831C1401.53 635.284 1398.57 648.843 1400.28 662.221L1401.15 668.869C1401.34 670.456 1401.63 672.043 1401.97 673.631L1415.84 679.175L1415.54 677.753C1412.64 664.722 1414.6 651.081 1421.05 639.395C1427.5 627.709 1438 618.783 1450.58 614.297L1535.87 588.366L1502.89 580.801Z" fill="#BBE2D8"/>
<path opacity="0.23" d="M1675.26 723.361L1750.93 699.626L1856.84 563.602L1783.68 585.379L1675.26 723.361Z" fill="#FFFEF9"/>
<path opacity="0.23" d="M1756.41 698.069L1774.84 692.05L1878.02 557.871L1864.83 560.097L1756.41 698.069Z" fill="#FFFEF9"/>
<path opacity="0.59" d="M849.991 804.184C849.991 795.939 815.259 789.178 772.415 789.178C751.421 789.178 732.385 790.786 718.42 793.414C705.181 795.854 691.52 794.456 679.049 789.384L677.802 788.879C660.476 781.897 641.971 778.308 623.292 778.305H87.2447C86.0158 778.31 84.8268 778.741 83.8805 779.525C82.9342 780.309 82.2892 781.397 82.0557 782.604C81.8222 783.81 82.0146 785.061 82.6 786.141C83.1854 787.221 84.1276 788.065 85.2659 788.529L176.921 825.467C182.997 827.919 189.487 829.182 196.039 829.187H766.355C766.872 829.19 767.373 829.012 767.773 828.684C768.172 828.356 768.444 827.899 768.542 827.391C768.64 826.883 768.557 826.358 768.308 825.905C768.06 825.452 767.66 825.1 767.179 824.91V824.91C766.535 824.65 766.002 824.173 765.672 823.562C765.342 822.95 765.236 822.242 765.373 821.561C765.51 820.879 765.881 820.267 766.422 819.831C766.963 819.394 767.639 819.16 768.334 819.17H772.456C815.259 819.19 849.991 812.47 849.991 804.184Z" fill="#6D6E71"/>
<path d="M848.125 688.791C848.125 688.791 847.991 627.128 862.472 605.732C876.55 584.944 864.44 600.733 856.813 609.937C849.187 619.141 829.44 663.19 838.396 698.139C847.352 733.088 848.125 688.791 848.125 688.791Z" fill="#64A43F"/>
<path d="M705.67 603.811C704.969 607.398 704.165 610.943 703.238 614.478C699.033 630.433 689.18 676.41 708.133 698.136C731.292 724.664 721.295 690.797 721.295 690.797C721.295 690.797 708.401 629.278 708.133 608.346C707.968 594.68 706.598 599.112 705.67 603.811Z" fill="#64A43F"/>
<path d="M770.992 679.307C770.704 678.482 758.934 619.303 707.092 568.605C671.762 534.048 699.558 557.268 713.276 602.864C726.994 648.46 742.134 696.034 742.134 696.034L767.849 698.095L770.992 679.307Z" fill="#64A43F"/>
<path d="M811.9 683.966C811.9 683.966 844.881 628.538 890.497 606.781C936.113 585.024 887.869 603.802 865.762 639.102C853.538 658.632 837.862 688.181 837.862 688.181L811.9 690.809V683.966Z" fill="#7AC143"/>
<path d="M766.553 658.685C766.553 658.685 767.346 621.52 787.083 593.363C806.82 565.206 786.29 594.672 785.764 628.096C785.502 648.55 787.893 668.951 792.875 688.79H768.14L766.553 658.685Z" fill="#64A43F"/>
<path d="M798.75 690.797C798.75 690.797 802.873 588.929 888.57 546.508C964.003 509.167 879.8 559.494 859.444 590.361C831.05 633.442 821.909 688.777 821.909 688.777L798.75 690.797Z" fill="#91C848"/>
<path d="M779.446 690.799C779.446 690.799 774.293 609.378 756.772 558.475C743.673 520.465 742.621 501.264 745.775 554.94C748.929 608.615 745.775 671.773 764.729 694.406C783.682 717.039 779.456 692.036 779.456 692.036" fill="#7AC143"/>
<path d="M788.133 690.799C788.133 690.799 788.39 632.825 806.025 604.936C823.659 577.047 800.233 613.964 801.294 647.872C802.356 681.78 805.221 690.242 805.221 690.242L788.133 690.799Z" fill="#7AC143"/>
<path d="M741.249 678.091C741.249 678.091 722.038 634.134 694.942 612.037C667.847 589.94 696.457 613.624 704.775 633.361C713.092 653.098 718.884 690.798 718.884 690.798L744.228 686.511L741.249 678.091Z" fill="#7AC143"/>
<path opacity="0.2" d="M822.455 685.819C824.784 673.792 834.956 627.526 859.444 590.372C861.025 588.02 862.746 585.766 864.598 583.621C818.219 619.817 811.891 683.954 811.891 683.954L822.455 685.819Z" fill="#BDD753"/>
<path opacity="0.2" d="M756.761 558.474C755.164 553.826 753.741 549.467 752.494 545.488C755.328 601.833 769.51 688.191 769.51 688.191L779.641 693.488C779.549 692.602 779.445 692.035 779.445 692.035V690.798C779.445 690.798 774.313 609.367 756.761 558.474Z" fill="#BDD753"/>
<path opacity="0.2" d="M741.248 678.089C741.248 678.089 730.179 652.776 712.998 630.906C721.666 654.467 726.695 688.189 726.695 688.189L730.292 688.87L744.226 686.509L741.248 678.089Z" fill="#BDD753"/>
<path d="M777.323 682.561H693.119L694.15 729.321C694.523 745.588 700.116 761.303 710.104 774.147C720.092 786.991 733.946 796.283 749.619 800.652C749.068 800.856 748.592 801.225 748.257 801.708C747.922 802.19 747.742 802.764 747.743 803.352V803.352C747.743 804.118 748.047 804.852 748.588 805.393C749.13 805.934 749.864 806.238 750.629 806.238H798.688C799.452 806.235 800.185 805.93 800.725 805.39C801.266 804.849 801.571 804.117 801.574 803.352V803.352C801.574 802.764 801.395 802.19 801.06 801.708C800.724 801.225 800.249 800.856 799.698 800.652C815.384 796.294 829.252 787.005 839.252 774.158C849.253 761.311 854.854 745.587 855.229 729.311L856.259 682.551L777.323 682.561Z" fill="#27676D"/>
<path d="M834.315 779.88V682.566H799.582V806.109C800.175 805.932 800.696 805.569 801.067 805.074C801.438 804.578 801.64 803.977 801.643 803.358V803.358C801.644 802.77 801.465 802.196 801.129 801.713C800.794 801.23 800.319 800.862 799.768 800.657C812.947 796.975 824.885 789.796 834.315 779.88V779.88Z" fill="#187173"/>
<path opacity="0.35" d="M820.607 791.232C830.991 784.518 839.575 775.365 845.609 764.572C851.643 753.779 854.945 741.673 855.227 729.311L856.257 682.551H820.607V791.232Z" fill="#01738E"/>
<path d="M747.803 803.353C747.803 804.118 748.107 804.852 748.648 805.393C749.189 805.934 749.923 806.238 750.689 806.238H798.747C799.512 806.236 800.244 805.931 800.785 805.39C801.326 804.85 801.63 804.117 801.633 803.353C801.634 802.765 801.455 802.191 801.119 801.708C800.784 801.225 800.309 800.857 799.757 800.652H749.679C749.127 800.857 748.652 801.225 748.317 801.708C747.981 802.191 747.802 802.765 747.803 803.353V803.353Z" fill="#1D585E"/>
<path d="M717.255 682.566H693.148L694.179 729.327C694.552 745.593 700.146 761.308 710.134 774.152C720.122 786.997 733.975 796.289 749.648 800.657C749.097 800.862 748.622 801.23 748.286 801.713C747.951 802.196 747.772 802.77 747.772 803.358V803.358C747.772 804.123 748.076 804.857 748.618 805.398C749.159 805.939 749.893 806.243 750.658 806.243H788.514L717.255 682.566Z" fill="#1D585E"/>
<path d="M214.087 723.656L211.644 782.836H206.295V723.656H214.087Z" fill="#354E5F"/>
<path d="M174.397 784.353C180.558 780.592 187.637 778.602 194.855 778.602H223.352C230.571 778.601 237.65 780.591 243.811 784.353L249.067 787.568H169.141L174.397 784.353Z" fill="#354E5F"/>
<path d="M209.108 760.667L178.745 723.656H173.035L209.108 768.974V760.667Z" fill="#354E5F"/>
<path d="M177.932 726.43L210.191 764.904V781.878L205.038 787.588H183.672C190.533 784.718 197.621 782.425 204.862 780.734L206.985 779.92L207.15 766.068L177.932 726.43Z" fill="#27676D"/>
<path d="M207.273 756.998L210.2 759.359V726.43H207.273V756.998Z" fill="#27676D"/>
<path d="M394.13 723.656L391.687 782.836H386.338V723.656H394.13Z" fill="#354E5F"/>
<path d="M354.438 784.353C360.599 780.591 367.678 778.601 374.896 778.602H403.393C410.598 778.61 417.661 780.599 423.81 784.353L429.067 787.568H349.182L354.438 784.353Z" fill="#354E5F"/>
<path d="M389.142 760.667L358.79 723.656H353.08L389.142 768.974V760.667Z" fill="#354E5F"/>
<path d="M357.975 726.43L390.234 764.904V781.878L385.08 787.588H363.674C370.538 784.718 377.629 782.426 384.874 780.734L386.936 779.92L387.101 766.068L357.975 726.43Z" fill="#27676D"/>
<path d="M387.316 756.998L390.233 759.359V726.43H387.316V756.998Z" fill="#27676D"/>
<path d="M578.975 723.656L576.522 782.836H571.184V723.656H578.975Z" fill="#354E5F"/>
<path d="M539.244 784.353C545.406 780.592 552.484 778.602 559.703 778.602H588.2C595.419 778.599 602.498 780.589 608.658 784.353L613.914 787.568H534.029L539.244 784.353Z" fill="#354E5F"/>
<path d="M573.986 760.667L543.623 723.656H537.924L573.986 768.974V760.667Z" fill="#354E5F"/>
<path d="M542.811 726.43L575.08 764.904V781.878L569.927 787.588H548.52C555.381 784.718 562.469 782.425 569.71 780.734L571.833 779.92L571.998 766.068L542.811 726.43Z" fill="#27676D"/>
<path d="M572.15 756.998L575.077 759.359V726.43H572.15V756.998Z" fill="#27676D"/>
<path d="M229.689 746.703L232.318 810.386H238.079V746.703H229.689Z" fill="#354E5F"/>
<path d="M272.4 812.012C265.77 807.967 258.152 805.827 250.385 805.828H219.744C211.977 805.827 204.36 807.967 197.73 812.012L192.082 815.475H278.079L272.4 812.012Z" fill="#354E5F"/>
<path d="M235.061 786.527L267.722 746.703H273.864L235.061 795.473V786.527Z" fill="#354E5F"/>
<path d="M268.597 749.691L233.885 791.092V809.335L239.481 815.518H262.464C255.08 812.431 247.451 809.966 239.656 808.149L237.379 807.273L237.203 792.36L268.597 749.691Z" fill="#27676D"/>
<path d="M237.028 782.579L233.885 785.125V749.691H237.028V782.579Z" fill="#27676D"/>
<path d="M418.092 746.703L420.72 810.386H426.481V746.703H418.092Z" fill="#354E5F"/>
<path d="M460.803 812.012C454.173 807.967 446.556 805.827 438.789 805.828H408.127C400.36 805.827 392.743 807.967 386.113 812.012L380.465 815.475H466.462L460.803 812.012Z" fill="#354E5F"/>
<path d="M423.461 786.527L456.122 746.703H462.265L423.461 795.473V786.527Z" fill="#354E5F"/>
<path d="M456.997 749.691L422.285 791.092V809.335L427.882 815.518H450.865C443.481 812.431 435.851 809.966 428.057 808.149L425.779 807.273L425.604 792.36L456.997 749.691Z" fill="#27676D"/>
<path d="M425.429 782.579L422.285 785.125V749.691H425.429V782.579Z" fill="#27676D"/>
<path d="M596.186 746.703L598.814 810.386H604.575V746.703H596.186Z" fill="#354E5F"/>
<path d="M638.895 812.012C632.265 807.967 624.648 805.827 616.881 805.828H586.219C578.452 805.827 570.835 807.967 564.205 812.012L558.557 815.475H644.553L638.895 812.012Z" fill="#354E5F"/>
<path d="M601.557 786.527L634.218 746.703H640.36L601.557 795.473V786.527Z" fill="#354E5F"/>
<path d="M635.093 749.691L600.381 791.092V809.335L605.977 815.518H628.961C621.576 812.431 613.947 809.966 606.152 808.149L603.875 807.273L603.699 792.36L635.093 749.691Z" fill="#27676D"/>
<path d="M603.524 782.579L600.381 785.125V749.691H603.524V782.579Z" fill="#27676D"/>
<path d="M63.9531 735.058H229.66L282.294 639.075L234.751 534.691L194.175 536.815L167.533 629.871L143.261 690.999L70.0133 726.257L63.9531 735.058Z" fill="#64A43F"/>
<path d="M194.783 535.191L192.948 533.707L192.618 533.491C191.796 533.672 190.939 533.618 190.145 533.336C184.538 566.554 163.276 643.099 140.952 684.552C138.095 689.89 133.488 694.082 127.904 696.425L69.2093 724.994C67.3717 725.886 65.8696 727.346 64.925 729.157C63.9804 730.968 63.6432 733.036 63.9634 735.053L132.81 701.537C138.398 699.197 143.01 695.005 145.868 689.664C168.831 647.016 190.681 567.213 195.504 535.676C195.254 535.529 195.013 535.367 194.783 535.191V535.191Z" fill="#27676D"/>
<path d="M678.504 649.411C685.966 649.411 692.562 654.564 695.313 662.655C698.065 670.745 696.148 680.176 690.439 686.03L669.104 708.436L629.363 687.978V649.411H678.514M678.514 644.258H624.199V691.121L670.166 714.826L694.118 689.678C701.209 682.464 703.62 671.127 700.188 661.026C696.746 650.947 688.12 644.299 678.545 644.299L678.514 644.258Z" fill="#27676D"/>
<path d="M466.613 547.077C470.797 577.14 493.08 659.468 516.537 703.023C519.402 708.357 524.012 712.545 529.595 714.886L600.71 749.495L718.141 748.309C719.9 748.289 721.601 747.676 722.969 746.569C724.336 745.461 725.29 743.925 725.675 742.208V742.208C725.675 730.263 713.307 721.595 701.733 718.74C694.848 717.04 686.737 714.968 678.42 712.711C665.326 709.158 653.58 701.801 644.668 691.572C635.756 681.342 630.077 668.699 628.351 655.242L604.801 542.573C604.154 537.519 601.688 532.875 597.863 529.509C594.038 526.144 589.118 524.288 584.023 524.289H487.236L475.394 530.298C472.363 531.83 469.888 534.271 468.313 537.279C466.739 540.288 466.144 543.713 466.613 547.077V547.077Z" fill="#27676D"/>
<path d="M474.828 545.861C479.24 584.459 499.564 662.324 520.95 701.663C523.802 706.848 528.335 710.908 533.802 713.175L603.318 742.25H725.676C725.68 736.446 723.739 730.808 720.164 726.237C716.588 721.665 711.584 718.424 705.95 717.03C699.055 715.329 690.944 713.258 682.616 710.99C669.525 707.439 657.782 700.084 648.873 689.856C639.964 679.628 634.289 666.987 632.568 653.532L609.008 540.821C608.365 535.767 605.902 531.12 602.079 527.752C598.255 524.385 593.335 522.527 588.24 522.527H495.637C492.685 522.527 489.766 523.151 487.072 524.358C484.377 525.565 481.969 527.328 480.004 529.531C478.039 531.735 476.562 534.328 475.67 537.143C474.778 539.957 474.491 542.928 474.828 545.861Z" fill="#7AC143"/>
<path d="M705.949 717.009C699.054 715.309 690.943 713.237 682.615 710.97C673.52 708.508 665.032 704.192 657.684 698.293H528.061L587.137 718.792C591.087 720.474 594.559 723.106 597.246 726.454C599.932 729.802 601.749 733.763 602.535 737.983L603.318 742.229H725.676C725.68 736.425 723.739 730.788 720.163 726.216C716.587 721.645 711.583 718.403 705.949 717.009V717.009Z" fill="#9FCD58"/>
<path d="M601.823 735.129H724.676C723.666 731.583 721.914 728.292 719.534 725.475C717.155 722.659 714.203 720.381 710.876 718.793H587.137C590.629 720.279 593.753 722.511 596.291 725.333C598.828 728.155 600.716 731.499 601.823 735.129Z" fill="#C2DB75"/>
<path d="M657.685 698.293C643.824 687.186 634.819 671.13 632.568 653.512L609.008 540.821C608.366 535.767 605.902 531.12 602.079 527.752C598.256 524.385 593.336 522.527 588.241 522.527H564.711L545.428 698.293H657.685Z" fill="#91C848"/>
<path d="M574.594 660.985C571.141 650.905 562.525 644.258 552.951 644.258H485.959C486.598 645.969 487.216 647.68 487.773 649.411H552.961C560.423 649.411 567.029 654.564 569.781 662.655C572.533 670.745 570.616 680.176 564.896 686.03L536.646 714.888C537.687 715.577 538.425 716.639 538.707 717.856L540.037 718.742L568.575 689.585C575.615 682.412 578.026 671.034 574.594 660.985Z" fill="#27676D"/>
<path d="M324.521 547.077C328.705 577.14 350.988 659.468 374.445 703.023C377.308 708.354 381.914 712.541 387.493 714.886L458.607 749.495L576.1 748.309C577.86 748.289 579.561 747.676 580.928 746.569C582.296 745.461 583.249 743.925 583.634 742.208V742.208C583.634 730.263 571.267 721.595 559.692 718.74C552.797 717.04 544.697 714.968 536.379 712.711C523.284 709.16 511.537 701.804 502.624 691.574C493.712 681.344 488.034 668.7 486.311 655.242L462.709 542.573C462.062 537.519 459.596 532.875 455.771 529.509C451.946 526.144 447.026 524.288 441.931 524.289H345.144L333.291 530.298C330.264 531.833 327.792 534.274 326.219 537.283C324.647 540.291 324.053 543.715 324.521 547.077Z" fill="#27676D"/>
<path d="M332.735 545.861C337.146 584.459 357.47 662.324 378.856 701.663C381.709 706.848 386.241 710.908 391.708 713.175L461.225 742.25H583.562C583.566 736.446 581.625 730.808 578.049 726.237C574.474 721.665 569.469 718.424 563.835 717.03C556.94 715.329 548.829 713.258 540.491 710.99C527.402 707.436 515.661 700.079 506.753 689.852C497.844 679.625 492.169 666.985 490.443 653.532L466.914 540.821C466.272 535.767 463.808 531.12 459.985 527.752C456.162 524.385 451.241 522.527 446.146 522.527H353.543C350.591 522.527 347.672 523.151 344.978 524.358C342.284 525.565 339.875 527.328 337.91 529.531C335.945 531.735 334.468 534.328 333.576 537.143C332.684 539.957 332.398 542.928 332.735 545.861V545.861Z" fill="#7AC143"/>
<path d="M563.855 717.009C556.961 715.309 548.849 713.237 540.511 710.97C531.403 708.509 522.901 704.193 515.539 698.293H385.967L445.033 718.792C448.985 720.471 452.459 723.102 455.146 726.45C457.833 729.799 459.649 733.761 460.431 737.983L461.224 742.229H583.561C583.566 736.428 581.629 730.793 578.057 726.221C574.485 721.65 569.486 718.407 563.855 717.009V717.009Z" fill="#9FCD58"/>
<path d="M459.728 735.129H582.581C581.571 731.583 579.818 728.292 577.439 725.475C575.06 722.659 572.108 720.381 568.78 718.793H445.031C448.526 720.277 451.652 722.508 454.192 725.331C456.731 728.153 458.621 731.497 459.728 735.129V735.129Z" fill="#C2DB75"/>
<path d="M515.54 698.293C501.682 687.183 492.678 671.129 490.423 653.512L466.914 540.821C466.272 535.767 463.808 531.12 459.985 527.752C456.162 524.385 451.242 522.527 446.147 522.527H422.617L403.334 698.293H515.54Z" fill="#91C848"/>
<path d="M432.499 660.985C429.046 650.905 420.42 644.258 410.804 644.258H344.451C345.1 645.969 345.709 647.68 346.265 649.411H410.824C418.286 649.411 424.893 654.564 427.645 662.655C430.396 670.745 428.469 680.176 422.759 686.03L394.509 714.888C395.554 715.573 396.293 716.637 396.571 717.856L397.911 718.742L426.449 689.585C433.519 682.412 435.931 671.034 432.499 660.985Z" fill="#27676D"/>
<path d="M185.011 547.077C189.196 577.14 211.478 659.468 234.946 703.023C237.809 708.354 242.415 712.541 247.994 714.886L319.108 749.495L436.539 748.309C438.3 748.29 440.003 747.677 441.372 746.57C442.741 745.462 443.696 743.926 444.084 742.208V742.208C444.084 730.263 431.716 721.595 420.142 718.74C413.247 717.04 405.146 714.968 396.818 712.711C383.725 709.158 371.979 701.801 363.066 691.572C354.154 681.342 348.476 668.699 346.75 655.242L323.2 542.573C322.555 537.52 320.09 532.876 316.268 529.51C312.445 526.145 307.526 524.288 302.432 524.289H205.634L193.792 530.298C190.762 531.83 188.286 534.271 186.712 537.279C185.137 540.288 184.543 543.713 185.011 547.077Z" fill="#27676D"/>
<path d="M193.225 545.861C197.646 584.459 217.96 662.324 239.356 701.663C242.203 706.853 246.738 710.915 252.208 713.175L321.715 742.25H444.083C444.085 736.445 442.142 730.807 438.564 726.236C434.987 721.665 429.981 718.424 424.346 717.03C417.451 715.329 409.34 713.258 401.012 710.99C387.922 707.438 376.18 700.083 367.271 689.855C358.362 679.627 352.687 666.986 350.964 653.532L327.414 540.821C326.77 535.766 324.304 531.119 320.479 527.752C316.654 524.384 311.733 522.527 306.637 522.527H214.033C211.081 522.527 208.162 523.151 205.468 524.358C202.774 525.565 200.365 527.328 198.4 529.531C196.435 531.735 194.958 534.328 194.067 537.143C193.175 539.957 192.888 542.928 193.225 545.861V545.861Z" fill="#7AC143"/>
<path d="M424.348 717.009C417.453 715.309 409.342 713.237 401.014 710.97C391.919 708.506 383.432 704.19 376.083 698.293H246.459L305.535 718.792C309.487 720.471 312.962 723.102 315.649 726.45C318.336 729.799 320.151 733.761 320.933 737.983L321.716 742.229H444.084C444.086 736.425 442.143 730.787 438.566 726.215C434.988 721.644 429.983 718.403 424.348 717.009V717.009Z" fill="#9FCD58"/>
<path d="M320.232 735.129H443.074C442.067 731.583 440.316 728.292 437.939 725.476C435.561 722.659 432.611 720.381 429.284 718.793H305.535C309.029 720.278 312.155 722.51 314.694 725.332C317.233 728.154 319.123 731.498 320.232 735.129Z" fill="#C2DB75"/>
<path d="M376.082 698.293C362.224 687.183 353.22 671.129 350.965 653.512L327.415 540.821C326.77 535.766 324.305 531.119 320.48 527.752C316.655 524.384 311.733 522.527 306.637 522.527H283.108L263.824 698.293H376.082Z" fill="#91C848"/>
<path d="M292.992 660.985C289.55 650.905 280.924 644.258 271.349 644.258H212.139C212.788 645.969 213.406 647.68 213.963 649.411H271.277C278.739 649.411 285.335 654.564 288.087 662.655C290.838 670.745 288.921 680.176 283.212 686.03L254.952 714.888C255.999 715.571 256.738 716.636 257.013 717.856L258.353 718.742L286.881 689.585C294.023 682.412 296.425 671.034 292.992 660.985Z" fill="#27676D"/>
<path d="M105.272 634.199C95.6561 634.199 87.0297 640.847 83.6286 650.927C80.1965 660.965 82.5979 672.343 89.699 679.578L116.836 707.303C118.104 706.272 119.371 705.241 120.618 704.118L120.783 704.005L93.3784 675.971C87.6687 670.148 85.7105 660.759 88.5035 652.596C91.2965 644.433 97.8514 639.352 105.313 639.352H162.658C163.215 637.611 163.833 635.9 164.482 634.199H105.272Z" fill="#27676D"/>
<path d="M136.811 711.004V716.786L210.264 749.694H319.461V743.923L136.811 711.004Z" fill="#354E5F"/>
<path d="M240.308 711.004H136.811L210.264 743.923H319.461L240.308 711.004Z" fill="#27676D"/>
<rect x="-30" y="524" width="2008" height="556" fill="url(#paint0_linear_418_2052)" fill-opacity="0.5"/>
</g>
</g>
<defs>
<linearGradient id="paint0_linear_418_2052" x1="1084" y1="1080" x2="1084" y2="524" gradientUnits="userSpaceOnUse">
<stop stop-color="#323232"/>
<stop offset="1" stop-color="#323232" stop-opacity="0"/>
</linearGradient>
<clipPath id="clip0_418_2052">
<rect width="1920" height="1080" fill="white"/>
</clipPath>
<clipPath id="clip1_418_2052">
<rect width="1980" height="1080" fill="white" transform="translate(-30)"/>
</clipPath>
</defs>
</svg>
