<svg width="1217" height="534" viewBox="0 0 1217 534" fill="none" xmlns="http://www.w3.org/2000/svg">
<g clip-path="url(#clip0_418_2457)">
<g style="mix-blend-mode:multiply" opacity="0.58">
<path d="M1143.61 323.432H886.679L902.569 289.852L927.709 252.852L897.999 271.642H844.179L743.179 325.542L229.179 326.082L255.689 297.632H235.689L181.689 326.082L107.609 325.002C88.4394 324.882 72.2094 339.842 71.6094 359.002C71.6094 359.602 71.6094 360.202 71.6094 360.802C71.6794 378.712 84.5194 394.002 101.999 398.002L102.319 398.072C104.429 398.542 106.549 398.972 108.679 399.382L88.9994 415.132L80.5994 422.002L107.799 423.902L151.999 403.152H698.309L623.679 533.222H703.309L759.709 464.302H813.899C819.907 464.303 825.856 463.121 831.406 460.823C836.957 458.525 842 455.156 846.249 450.908C850.497 446.661 853.867 441.618 856.167 436.068C858.466 430.518 859.649 424.569 859.649 418.562V402.832H1143.65C1154.18 402.832 1164.28 398.649 1171.72 391.204C1179.17 383.759 1183.35 373.661 1183.35 363.132C1183.35 357.915 1182.32 352.749 1180.32 347.93C1178.33 343.111 1175.4 338.732 1171.71 335.045C1168.02 331.358 1163.64 328.435 1158.81 326.442C1153.99 324.449 1148.83 323.426 1143.61 323.432V323.432Z" fill="#006838"/>
</g>
<path d="M421.71 323.792L411.25 317.002V316.672L411.01 316.842L410.74 316.672V317.002L401.42 323.782L402.06 330.422H397L397.41 332.272C397.506 332.729 397.758 333.137 398.123 333.428C398.488 333.718 398.944 333.872 399.41 333.862H402.11V338.002H400.2L401.39 341.442H405.82L406.75 346.932C403.572 348.013 400.881 350.188 399.157 353.068C397.433 355.949 396.787 359.348 397.335 362.66C397.883 365.972 399.589 368.982 402.15 371.153C404.71 373.325 407.958 374.516 411.315 374.516C414.672 374.516 417.92 373.325 420.48 371.153C423.041 368.982 424.747 365.972 425.295 362.66C425.843 359.348 425.197 355.949 423.473 353.068C421.749 350.188 419.058 348.013 415.88 346.932L416.88 341.432H422L423.18 337.992H421V333.902H424.25C424.71 333.914 425.159 333.768 425.524 333.487C425.888 333.207 426.144 332.809 426.25 332.362L426.72 330.462H421L421.71 323.792ZM411.25 364.472C410.425 364.472 409.619 364.227 408.933 363.769C408.248 363.311 407.713 362.66 407.397 361.898C407.082 361.136 406.999 360.297 407.16 359.488C407.321 358.679 407.718 357.936 408.301 357.353C408.885 356.77 409.628 356.373 410.436 356.212C411.245 356.051 412.084 356.134 412.846 356.449C413.608 356.765 414.259 357.299 414.717 357.985C415.175 358.671 415.42 359.477 415.42 360.302C415.417 361.407 414.977 362.466 414.196 363.248C413.414 364.029 412.355 364.469 411.25 364.472V364.472Z" fill="#18181A"/>
<path d="M450.88 330.432L451.59 323.792L441.13 317.002V316.672L440.89 316.842L440.62 316.672V317.002L431.3 323.782L431.94 330.422H426.83L427.25 332.272C427.346 332.729 427.598 333.137 427.963 333.428C428.328 333.718 428.784 333.872 429.25 333.862H431.96V338.002H430L431.19 341.442H435.61L436.54 346.932C433.363 348.014 430.673 350.19 428.95 353.07C427.227 355.951 426.582 359.349 427.131 362.661C427.679 365.972 429.386 368.981 431.946 371.152C434.506 373.323 437.753 374.515 441.11 374.515C444.467 374.515 447.714 373.323 450.274 371.152C452.834 368.981 454.541 365.972 455.09 362.661C455.638 359.349 454.993 355.951 453.27 353.07C451.547 350.19 448.857 348.014 445.68 346.932L446.68 341.432H451.76L453 338.002H450.86V333.912H454.11C454.57 333.924 455.019 333.778 455.384 333.497C455.748 333.217 456.004 332.819 456.11 332.372L456.58 330.472L450.88 330.432ZM441.13 364.432C440.305 364.432 439.499 364.187 438.813 363.729C438.128 363.271 437.593 362.62 437.278 361.858C436.962 361.096 436.879 360.257 437.04 359.448C437.201 358.639 437.598 357.896 438.181 357.313C438.765 356.73 439.508 356.333 440.317 356.172C441.125 356.011 441.964 356.094 442.726 356.409C443.488 356.725 444.139 357.259 444.597 357.945C445.056 358.631 445.3 359.437 445.3 360.262C445.305 360.813 445.201 361.359 444.994 361.87C444.787 362.38 444.481 362.845 444.093 363.236C443.705 363.628 443.244 363.939 442.735 364.151C442.227 364.363 441.681 364.472 441.13 364.472V364.432Z" fill="#18181A"/>
<path d="M391.84 323.792L381.38 317.002V316.672L381.14 316.842L380.87 316.672V317.002L371.55 323.782L372.19 330.422H367.08L367.49 332.272C367.586 332.729 367.838 333.137 368.203 333.428C368.568 333.718 369.024 333.872 369.49 333.862H372.2V338.002H370.28L371.47 341.442H375.9L376.83 346.932C373.649 348.013 370.956 350.189 369.23 353.072C367.504 355.954 366.857 359.356 367.405 362.67C367.953 365.985 369.661 368.998 372.223 371.171C374.785 373.344 378.035 374.537 381.395 374.537C384.755 374.537 388.005 373.344 390.568 371.171C393.13 368.998 394.837 365.985 395.385 362.67C395.933 359.356 395.287 355.954 393.561 353.072C391.834 350.189 389.141 348.013 385.96 346.932L386.96 341.432H392.05L393.23 337.992H391.1V333.902H394.35C394.81 333.914 395.259 333.768 395.624 333.487C395.988 333.207 396.245 332.809 396.35 332.362L396.82 330.462H391.13L391.84 323.792ZM381.38 364.472C380.555 364.472 379.749 364.227 379.063 363.769C378.378 363.311 377.843 362.66 377.528 361.898C377.212 361.136 377.129 360.297 377.29 359.488C377.451 358.679 377.848 357.936 378.431 357.353C379.015 356.77 379.758 356.373 380.567 356.212C381.375 356.051 382.214 356.134 382.976 356.449C383.738 356.765 384.389 357.299 384.847 357.985C385.306 358.671 385.55 359.477 385.55 360.302C385.55 361.408 385.111 362.468 384.329 363.25C383.547 364.033 382.486 364.472 381.38 364.472Z" fill="#18181A"/>
<path d="M1075.5 330.432L1076.22 323.792L1065.76 317.002V316.672L1065.52 316.842L1065.25 316.672V317.002L1055.93 323.782L1056.57 330.422H1051.46L1051.87 332.272C1051.97 332.729 1052.22 333.137 1052.58 333.428C1052.95 333.718 1053.4 333.872 1053.87 333.862H1056.58V338.002H1054.66L1055.85 341.442H1060.28L1061.21 346.932C1058.03 348.013 1055.34 350.189 1053.61 353.072C1051.88 355.954 1051.24 359.356 1051.79 362.67C1052.33 365.985 1054.04 368.998 1056.6 371.171C1059.17 373.344 1062.42 374.537 1065.78 374.537C1069.14 374.537 1072.39 373.344 1074.95 371.171C1077.51 368.998 1079.22 365.985 1079.77 362.67C1080.31 359.356 1079.67 355.954 1077.94 353.072C1076.22 350.189 1073.52 348.013 1070.34 346.932L1071.34 341.432H1076.43L1077.61 337.992H1075.47V333.902H1078.73C1079.19 333.914 1079.64 333.768 1080 333.487C1080.37 333.207 1080.63 332.809 1080.73 332.362L1081.2 330.462L1075.5 330.432ZM1065.76 364.432C1064.94 364.432 1064.13 364.187 1063.44 363.729C1062.76 363.271 1062.22 362.62 1061.91 361.858C1061.59 361.096 1061.51 360.257 1061.67 359.448C1061.83 358.639 1062.23 357.896 1062.81 357.313C1063.4 356.73 1064.14 356.333 1064.95 356.172C1065.76 356.011 1066.59 356.094 1067.36 356.409C1068.12 356.725 1068.77 357.259 1069.23 357.945C1069.69 358.631 1069.93 359.437 1069.93 360.262C1069.94 360.813 1069.83 361.359 1069.63 361.87C1069.42 362.38 1069.11 362.845 1068.72 363.236C1068.34 363.628 1067.87 363.939 1067.37 364.151C1066.86 364.363 1066.31 364.472 1065.76 364.472V364.432Z" fill="#18181A"/>
<path d="M76.5996 166.25V0H99.3396L205.44 166.25H76.5996Z" fill="#8DC63F"/>
<path d="M71.5293 166.25V0H94.2693L200.379 166.25H71.5293Z" fill="#39B54A"/>
<path d="M425.301 323.789H404.301C402.181 323.789 408.451 322.069 408.451 319.959L405.771 294.959C405.77 294.456 405.868 293.957 406.06 293.492C406.252 293.026 406.534 292.604 406.89 292.248C407.246 291.892 407.668 291.61 408.134 291.418C408.599 291.226 409.098 291.128 409.601 291.129H427.851C428.354 291.128 428.853 291.226 429.318 291.418C429.783 291.61 430.206 291.892 430.562 292.248C430.918 292.604 431.2 293.026 431.392 293.492C431.584 293.957 431.682 294.456 431.681 294.959L429.131 319.959C429.128 320.974 428.724 321.947 428.006 322.664C427.289 323.382 426.316 323.786 425.301 323.789Z" fill="#006838"/>
<path d="M407.42 323.789H394.42C393.405 323.786 392.433 323.382 391.715 322.664C390.997 321.947 390.593 320.974 390.59 319.959L387.91 294.959C387.91 293.943 388.314 292.969 389.032 292.251C389.75 291.532 390.724 291.129 391.74 291.129H407.44C407.943 291.128 408.442 291.226 408.907 291.418C409.373 291.61 409.795 291.892 410.151 292.248C410.507 292.604 410.789 293.026 410.981 293.492C411.173 293.957 411.271 294.456 411.27 294.959V319.959C411.27 320.464 411.17 320.963 410.977 321.429C410.783 321.895 410.499 322.318 410.141 322.674C409.784 323.03 409.359 323.312 408.892 323.503C408.425 323.694 407.925 323.792 407.42 323.789V323.789Z" fill="#006838"/>
<path d="M455.171 323.789H434.171C432.061 323.789 438.321 322.069 438.321 319.959L435.641 294.959C435.641 293.943 436.044 292.969 436.763 292.251C437.481 291.532 438.455 291.129 439.471 291.129H457.731C458.747 291.129 459.721 291.532 460.439 292.251C461.157 292.969 461.561 293.943 461.561 294.959L459.001 319.999C458.99 321.008 458.582 321.972 457.865 322.681C457.148 323.391 456.18 323.789 455.171 323.789V323.789Z" fill="#006838"/>
<path d="M437.299 323.789H424.299C423.284 323.786 422.311 323.382 421.594 322.664C420.876 321.947 420.472 320.974 420.469 319.959L417.789 294.959C417.788 294.456 417.886 293.957 418.078 293.492C418.27 293.026 418.552 292.604 418.908 292.248C419.264 291.892 419.687 291.61 420.152 291.418C420.617 291.226 421.116 291.128 421.619 291.129H437.319C437.822 291.128 438.321 291.226 438.786 291.418C439.252 291.61 439.674 291.892 440.03 292.248C440.386 292.604 440.668 293.026 440.86 293.492C441.052 293.957 441.15 294.456 441.149 294.959V319.959C441.149 320.464 441.049 320.963 440.856 321.429C440.662 321.895 440.378 322.318 440.02 322.674C439.662 323.03 439.238 323.312 438.771 323.503C438.304 323.694 437.804 323.792 437.299 323.789V323.789Z" fill="#006838"/>
<path d="M1079.8 323.789H1058.8C1056.68 323.789 1062.95 322.069 1062.95 319.959L1060.27 294.959C1060.27 294.456 1060.37 293.957 1060.56 293.492C1060.75 293.026 1061.03 292.604 1061.39 292.248C1061.75 291.892 1062.17 291.61 1062.63 291.418C1063.1 291.226 1063.6 291.128 1064.1 291.129H1082.35C1082.85 291.128 1083.35 291.226 1083.82 291.418C1084.28 291.61 1084.71 291.892 1085.06 292.248C1085.42 292.604 1085.7 293.026 1085.89 293.492C1086.08 293.957 1086.18 294.456 1086.18 294.959L1083.63 319.959C1083.63 320.974 1083.22 321.947 1082.51 322.664C1081.79 323.382 1080.82 323.786 1079.8 323.789V323.789Z" fill="#006838"/>
<path d="M1061.93 323.789H1048.93C1047.91 323.789 1046.94 323.385 1046.22 322.667C1045.5 321.949 1045.1 320.975 1045.1 319.959L1042.41 294.959C1042.41 293.943 1042.81 292.969 1043.53 292.251C1044.25 291.532 1045.22 291.129 1046.24 291.129H1061.95C1062.97 291.129 1063.94 291.532 1064.66 292.251C1065.38 292.969 1065.78 293.943 1065.78 294.959V319.959C1065.78 320.463 1065.68 320.962 1065.48 321.428C1065.29 321.893 1065.01 322.316 1064.65 322.671C1064.29 323.027 1063.87 323.309 1063.4 323.5C1062.93 323.692 1062.43 323.79 1061.93 323.789V323.789Z" fill="#009444"/>
<path d="M395.42 323.789H374.42C372.3 323.789 378.57 322.069 378.57 319.959L375.89 294.959C375.889 294.456 375.987 293.957 376.179 293.492C376.371 293.026 376.653 292.604 377.009 292.248C377.365 291.892 377.788 291.61 378.253 291.418C378.718 291.226 379.217 291.128 379.72 291.129H398C398.503 291.128 399.002 291.226 399.467 291.418C399.933 291.61 400.355 291.892 400.711 292.248C401.067 292.604 401.349 293.026 401.541 293.492C401.733 293.957 401.831 294.456 401.83 294.959L399.28 319.959C399.28 320.464 399.18 320.965 398.986 321.432C398.791 321.898 398.507 322.322 398.148 322.678C397.789 323.034 397.363 323.315 396.895 323.506C396.427 323.697 395.926 323.793 395.42 323.789V323.789Z" fill="#006838"/>
<path d="M377.55 323.792H364.55C363.537 323.797 362.564 323.402 361.842 322.691C361.121 321.981 360.71 321.014 360.7 320.002L358.02 295.002C358.018 294.499 358.116 294 358.308 293.535C358.5 293.069 358.782 292.647 359.138 292.291C359.494 291.935 359.917 291.653 360.382 291.461C360.848 291.269 361.346 291.171 361.85 291.172H377.55C378.565 291.172 379.54 291.575 380.258 292.294C380.976 293.012 381.38 293.986 381.38 295.002V320.002C381.366 321.01 380.957 321.972 380.241 322.681C379.524 323.39 378.558 323.789 377.55 323.792V323.792Z" fill="#39B54A"/>
<path d="M764.411 166.262H1065C1082.24 166.255 1099.17 170.864 1114.03 179.611C1128.89 188.358 1141.14 200.923 1149.5 216.002V216.002C1149.5 216.002 1215.02 228.262 1216.35 255.832C1217.68 283.402 1169.42 296.432 1126.52 302.562C1083.62 308.692 1037.67 307.722 1037.67 307.722H647.801L764.411 166.262Z" fill="#F1F2F2"/>
<path d="M1113.25 195H1098.61C1097.68 195 1096.79 195.37 1096.13 196.028C1095.47 196.686 1095.1 197.579 1095.1 198.51L1095.88 212.81C1095.88 213.741 1096.25 214.634 1096.91 215.292C1097.57 215.95 1098.46 216.32 1099.39 216.32H1113.25V195Z" fill="#192026"/>
<path d="M1136.81 216.3H1150.81L1149.53 216.04C1145.25 208.338 1139.93 201.259 1133.73 195H1127L1136.81 216.3Z" fill="#192026"/>
<path d="M1115.42 216.3H1134.42L1125.5 194.98H1114.44L1115.42 216.3Z" fill="#192026"/>
<path d="M1112.25 196V215.3H1099.39C1098.72 215.298 1098.09 215.033 1097.62 214.562C1097.15 214.092 1096.88 213.455 1096.88 212.79V212.73L1096.1 198.46C1096.11 197.8 1096.38 197.169 1096.85 196.705C1097.32 196.241 1097.95 195.98 1098.61 195.98H1112.25M1113.25 194.98H1098.61C1097.68 194.98 1096.79 195.35 1096.13 196.009C1095.47 196.667 1095.1 197.56 1095.1 198.49L1095.88 212.79C1095.88 213.721 1096.25 214.614 1096.91 215.272C1097.57 215.931 1098.46 216.3 1099.39 216.3H1113.25V195V194.98Z" fill="#9E98A9"/>
<path d="M1133.31 196C1138.98 201.793 1143.9 208.285 1147.93 215.32H1137.45L1128.51 196H1133.31ZM1133.73 195H1127L1136.86 216.32H1150.86L1149.58 216.06C1145.28 208.348 1139.95 201.262 1133.73 195V195Z" fill="#9E98A9"/>
<path d="M1124.84 196L1132.91 215.32H1116.37L1115.48 196H1124.84M1125.5 195H1114.44L1115.44 216.32H1134.44L1125.5 195V195Z" fill="#9E98A9"/>
<path d="M917.609 307.75H956.759L848.689 166.25H809.539L917.609 307.75Z" fill="#009444"/>
<path d="M198.509 299.202C255.549 304.942 312.841 307.812 370.169 307.802H686.169H872.489L764.409 166.262H71.5293L71.6893 176.372C72.6193 237.682 118.189 289.732 179.049 297.212L181.829 297.522L198.509 299.202Z" fill="#009444"/>
<g style="mix-blend-mode:multiply">
<path d="M385.68 269.999H363C361.814 269.999 360.677 269.528 359.839 268.69C359.001 267.852 358.53 266.715 358.53 265.529L357.26 207.829C357.26 206.646 357.729 205.51 358.565 204.672C359.402 203.834 360.536 203.362 361.72 203.359H386.32C387.505 203.359 388.642 203.83 389.481 204.669C390.319 205.507 390.79 206.644 390.79 207.829L390.19 265.529C390.19 266.12 390.073 266.704 389.846 267.249C389.619 267.794 389.286 268.289 388.866 268.704C388.447 269.12 387.95 269.448 387.403 269.671C386.856 269.893 386.27 270.005 385.68 269.999V269.999Z" stroke="#E0B8AD" stroke-width="3" stroke-miterlimit="10"/>
</g>
<path d="M1028.35 269.999H1005.63C1004.45 269.999 1003.31 269.528 1002.47 268.69C1001.63 267.852 1001.16 266.715 1001.16 265.529L999.881 207.829C999.881 207.242 999.996 206.661 1000.22 206.119C1000.45 205.576 1000.77 205.084 1001.19 204.669C1001.61 204.254 1002.1 203.924 1002.64 203.7C1003.18 203.475 1003.76 203.359 1004.35 203.359H1029C1030.19 203.359 1031.32 203.83 1032.16 204.669C1033 205.507 1033.47 206.644 1033.47 207.829L1032.87 265.529C1032.87 266.121 1032.75 266.706 1032.53 267.252C1032.3 267.797 1031.96 268.292 1031.54 268.708C1031.12 269.124 1030.62 269.452 1030.08 269.674C1029.53 269.895 1028.94 270.006 1028.35 269.999V269.999Z" stroke="#E0B8AD" stroke-width="3" stroke-miterlimit="10"/>
<path d="M1028.35 269.999H1005.63C1004.45 269.999 1003.31 269.528 1002.47 268.69C1001.63 267.852 1001.16 266.715 1001.16 265.529L999.881 207.829C999.881 207.242 999.996 206.661 1000.22 206.119C1000.45 205.576 1000.77 205.084 1001.19 204.669C1001.61 204.254 1002.1 203.924 1002.64 203.7C1003.18 203.475 1003.76 203.359 1004.35 203.359H1029C1030.19 203.359 1031.32 203.83 1032.16 204.669C1033 205.507 1033.47 206.644 1033.47 207.829L1032.87 265.529C1032.87 266.121 1032.75 266.706 1032.53 267.252C1032.3 267.797 1031.96 268.292 1031.54 268.708C1031.12 269.124 1030.62 269.452 1030.08 269.674C1029.53 269.895 1028.94 270.006 1028.35 269.999V269.999Z" stroke="#39B54A" stroke-miterlimit="10"/>
<path d="M385.68 269.999H363C361.814 269.999 360.677 269.528 359.839 268.69C359.001 267.852 358.53 266.715 358.53 265.529L357.26 207.829C357.26 206.646 357.729 205.51 358.565 204.672C359.402 203.834 360.536 203.362 361.72 203.359H386.32C387.505 203.359 388.642 203.83 389.481 204.669C390.319 205.507 390.79 206.644 390.79 207.829L390.19 265.529C390.19 266.12 390.073 266.704 389.846 267.249C389.619 267.794 389.286 268.289 388.866 268.704C388.447 269.12 387.95 269.448 387.403 269.671C386.856 269.893 386.27 270.005 385.68 269.999V269.999Z" stroke="#58595B" stroke-miterlimit="10"/>
<path d="M967.69 240.698H962.08C961.761 240.7 961.445 240.638 961.151 240.517C960.856 240.396 960.588 240.218 960.362 239.993C960.136 239.768 959.957 239.501 959.835 239.207C959.713 238.912 959.65 238.597 959.65 238.278L959.18 226.908C959.182 226.266 959.44 225.65 959.895 225.196C960.35 224.743 960.967 224.488 961.61 224.488H968.29C968.931 224.488 969.547 224.743 970.001 225.197C970.455 225.651 970.71 226.266 970.71 226.908L970.12 238.278C970.12 238.597 970.057 238.912 969.935 239.207C969.812 239.501 969.633 239.768 969.407 239.993C969.182 240.218 968.914 240.396 968.619 240.517C968.324 240.638 968.008 240.7 967.69 240.698Z" fill="#18181A"/>
<path d="M943.69 240.698H938.08C937.761 240.7 937.445 240.638 937.151 240.517C936.856 240.396 936.588 240.218 936.362 239.993C936.136 239.768 935.957 239.501 935.835 239.207C935.713 238.912 935.65 238.597 935.65 238.278L935.18 226.908C935.182 226.266 935.44 225.65 935.895 225.196C936.35 224.743 936.967 224.488 937.61 224.488H944.29C944.931 224.488 945.547 224.743 946.001 225.197C946.455 225.651 946.71 226.266 946.71 226.908L946.12 238.278C946.12 238.597 946.057 238.912 945.935 239.207C945.812 239.501 945.633 239.768 945.407 239.993C945.182 240.218 944.914 240.396 944.619 240.517C944.324 240.638 944.008 240.7 943.69 240.698Z" fill="#18181A"/>
<path d="M919.69 240.698H914.08C913.761 240.7 913.445 240.638 913.151 240.517C912.856 240.396 912.588 240.218 912.362 239.993C912.136 239.768 911.957 239.501 911.835 239.207C911.713 238.912 911.65 238.597 911.65 238.278L911.18 226.908C911.182 226.266 911.44 225.65 911.895 225.196C912.35 224.743 912.967 224.488 913.61 224.488H920.29C920.931 224.488 921.547 224.743 922.001 225.197C922.455 225.651 922.71 226.266 922.71 226.908L922.12 238.278C922.12 238.597 922.057 238.912 921.935 239.207C921.812 239.501 921.633 239.768 921.407 239.993C921.182 240.218 920.914 240.396 920.619 240.517C920.324 240.638 920.008 240.7 919.69 240.698Z" fill="#18181A"/>
<path d="M895.69 240.698H890.08C889.761 240.7 889.445 240.638 889.151 240.517C888.856 240.396 888.588 240.218 888.362 239.993C888.136 239.768 887.957 239.501 887.835 239.207C887.713 238.912 887.65 238.597 887.65 238.278L887.18 226.908C887.182 226.266 887.44 225.65 887.895 225.196C888.35 224.743 888.967 224.488 889.61 224.488H896.29C896.931 224.488 897.547 224.743 898.001 225.197C898.455 225.651 898.71 226.266 898.71 226.908L898.12 238.278C898.12 238.597 898.057 238.912 897.935 239.207C897.812 239.501 897.633 239.768 897.407 239.993C897.182 240.218 896.914 240.396 896.619 240.517C896.324 240.638 896.008 240.7 895.69 240.698Z" fill="#18181A"/>
<path d="M871.69 240.698H866.08C865.761 240.7 865.445 240.638 865.151 240.517C864.856 240.396 864.588 240.218 864.362 239.993C864.136 239.768 863.957 239.501 863.835 239.207C863.713 238.912 863.65 238.597 863.65 238.278L863.18 226.908C863.182 226.266 863.44 225.65 863.895 225.196C864.35 224.743 864.967 224.488 865.61 224.488H872.29C872.931 224.488 873.547 224.743 874.001 225.197C874.455 225.651 874.71 226.266 874.71 226.908L874.12 238.278C874.12 238.597 874.057 238.912 873.935 239.207C873.812 239.501 873.633 239.768 873.407 239.993C873.182 240.218 872.914 240.396 872.619 240.517C872.324 240.638 872.008 240.7 871.69 240.698Z" fill="#18181A"/>
<path d="M847.69 240.698H842.08C841.761 240.7 841.445 240.638 841.151 240.517C840.856 240.396 840.588 240.218 840.362 239.993C840.136 239.768 839.957 239.501 839.835 239.207C839.713 238.912 839.65 238.597 839.65 238.278L839.18 226.908C839.182 226.266 839.44 225.65 839.895 225.196C840.35 224.743 840.967 224.488 841.61 224.488H848.29C848.931 224.488 849.547 224.743 850.001 225.197C850.455 225.651 850.71 226.266 850.71 226.908L850.12 238.278C850.12 238.597 850.057 238.912 849.935 239.207C849.812 239.501 849.633 239.768 849.407 239.993C849.182 240.218 848.914 240.396 848.619 240.517C848.324 240.638 848.008 240.7 847.69 240.698Z" fill="#18181A"/>
<path d="M823.69 240.698H818.08C817.761 240.7 817.445 240.638 817.151 240.517C816.856 240.396 816.588 240.218 816.362 239.993C816.136 239.768 815.957 239.501 815.835 239.207C815.713 238.912 815.65 238.597 815.65 238.278L815.18 226.908C815.182 226.266 815.44 225.65 815.895 225.196C816.35 224.743 816.967 224.488 817.61 224.488H824.29C824.931 224.488 825.547 224.743 826.001 225.197C826.455 225.651 826.71 226.266 826.71 226.908L826.12 238.278C826.12 238.597 826.057 238.912 825.935 239.207C825.812 239.501 825.633 239.768 825.407 239.993C825.182 240.218 824.914 240.396 824.619 240.517C824.324 240.638 824.008 240.7 823.69 240.698Z" fill="#18181A"/>
<path d="M799.69 240.698H794.08C793.761 240.7 793.445 240.638 793.151 240.517C792.856 240.396 792.588 240.218 792.362 239.993C792.136 239.768 791.957 239.501 791.835 239.207C791.713 238.912 791.65 238.597 791.65 238.278L791.18 226.908C791.182 226.266 791.44 225.65 791.895 225.196C792.35 224.743 792.967 224.488 793.61 224.488H800.29C800.931 224.488 801.547 224.743 802.001 225.197C802.455 225.651 802.71 226.266 802.71 226.908L802.12 238.278C802.12 238.597 802.057 238.912 801.935 239.207C801.812 239.501 801.633 239.768 801.407 239.993C801.182 240.218 800.914 240.396 800.619 240.517C800.324 240.638 800.008 240.7 799.69 240.698Z" fill="#18181A"/>
<path d="M775.69 240.698H770.08C769.761 240.7 769.445 240.638 769.151 240.517C768.856 240.396 768.588 240.218 768.362 239.993C768.136 239.768 767.957 239.501 767.835 239.207C767.713 238.912 767.65 238.597 767.65 238.278L767.18 226.908C767.182 226.266 767.44 225.65 767.895 225.196C768.35 224.743 768.967 224.488 769.61 224.488H776.29C776.931 224.488 777.547 224.743 778.001 225.197C778.455 225.651 778.71 226.266 778.71 226.908L778.12 238.278C778.12 238.597 778.057 238.912 777.935 239.207C777.812 239.501 777.633 239.768 777.407 239.993C777.182 240.218 776.914 240.396 776.619 240.517C776.324 240.638 776.008 240.7 775.69 240.698V240.698Z" fill="#18181A"/>
<path d="M751.69 240.698H746.08C745.761 240.7 745.445 240.638 745.151 240.517C744.856 240.396 744.588 240.218 744.362 239.993C744.136 239.768 743.957 239.501 743.835 239.207C743.713 238.912 743.65 238.597 743.65 238.278L743.18 226.908C743.182 226.266 743.44 225.65 743.895 225.196C744.35 224.743 744.967 224.488 745.61 224.488H752.29C752.931 224.488 753.547 224.743 754.001 225.197C754.455 225.651 754.71 226.266 754.71 226.908L754.12 238.278C754.12 238.597 754.057 238.912 753.935 239.207C753.812 239.501 753.633 239.768 753.407 239.993C753.182 240.218 752.914 240.396 752.619 240.517C752.324 240.638 752.008 240.7 751.69 240.698Z" fill="#18181A"/>
<path d="M727.69 240.698H722.08C721.761 240.7 721.445 240.638 721.151 240.517C720.856 240.396 720.588 240.218 720.362 239.993C720.136 239.768 719.957 239.501 719.835 239.207C719.713 238.912 719.65 238.597 719.65 238.278L719.18 226.908C719.182 226.266 719.44 225.65 719.895 225.196C720.35 224.743 720.967 224.488 721.61 224.488H728.29C728.931 224.488 729.547 224.743 730.001 225.197C730.455 225.651 730.71 226.266 730.71 226.908L730.12 238.278C730.12 238.597 730.057 238.912 729.935 239.207C729.812 239.501 729.633 239.768 729.407 239.993C729.182 240.218 728.914 240.396 728.619 240.517C728.324 240.638 728.008 240.7 727.69 240.698Z" fill="#18181A"/>
<path d="M703.69 240.698H698.08C697.761 240.7 697.445 240.638 697.151 240.517C696.856 240.396 696.588 240.218 696.362 239.993C696.136 239.768 695.957 239.501 695.835 239.207C695.713 238.912 695.65 238.597 695.65 238.278L695.18 226.908C695.182 226.266 695.44 225.65 695.895 225.196C696.35 224.743 696.967 224.488 697.61 224.488H704.29C704.931 224.488 705.547 224.743 706.001 225.197C706.455 225.651 706.71 226.266 706.71 226.908L706.12 238.278C706.12 238.597 706.057 238.912 705.935 239.207C705.812 239.501 705.633 239.768 705.407 239.993C705.182 240.218 704.914 240.396 704.619 240.517C704.324 240.638 704.008 240.7 703.69 240.698Z" fill="#18181A"/>
<path d="M968.29 224.488C968.931 224.488 969.547 224.743 970.001 225.197C970.455 225.651 970.71 226.266 970.71 226.908L970.12 238.278C970.12 238.597 970.057 238.912 969.935 239.207C969.812 239.501 969.633 239.768 969.407 239.993C969.182 240.218 968.914 240.396 968.619 240.517C968.324 240.638 968.008 240.7 967.69 240.698H962.08C961.761 240.7 961.445 240.638 961.151 240.517C960.856 240.396 960.588 240.218 960.362 239.993C960.136 239.768 959.957 239.501 959.835 239.207C959.713 238.912 959.65 238.597 959.65 238.278L959.18 226.908C959.182 226.266 959.44 225.65 959.895 225.196C960.35 224.743 960.967 224.488 961.61 224.488H968.29M968.29 223.488H961.61C960.702 223.488 959.831 223.848 959.188 224.489C958.545 225.13 958.182 226 958.18 226.908L958.65 238.318C958.66 239.22 959.027 240.081 959.669 240.714C960.311 241.347 961.178 241.701 962.08 241.698H967.69C968.593 241.698 969.459 241.342 970.101 240.708C970.743 240.073 971.109 239.211 971.12 238.308L971.71 226.968V226.908C971.71 226.001 971.349 225.131 970.708 224.49C970.067 223.849 969.197 223.488 968.29 223.488V223.488Z" fill="#006838"/>
<path d="M944.29 224.488C944.931 224.488 945.547 224.743 946.001 225.197C946.455 225.651 946.71 226.266 946.71 226.908L946.12 238.278C946.12 238.597 946.057 238.912 945.935 239.207C945.812 239.501 945.633 239.768 945.407 239.993C945.182 240.218 944.914 240.396 944.619 240.517C944.324 240.638 944.008 240.7 943.69 240.698H938.08C937.761 240.7 937.445 240.638 937.151 240.517C936.856 240.396 936.588 240.218 936.362 239.993C936.136 239.768 935.957 239.501 935.835 239.207C935.713 238.912 935.65 238.597 935.65 238.278L935.18 226.908C935.182 226.266 935.44 225.65 935.895 225.196C936.35 224.743 936.967 224.488 937.61 224.488H944.29M944.29 223.488H937.61C936.702 223.488 935.831 223.848 935.188 224.489C934.545 225.13 934.182 226 934.18 226.908L934.65 238.318C934.66 239.22 935.027 240.081 935.669 240.714C936.311 241.347 937.178 241.701 938.08 241.698H943.69C944.593 241.698 945.459 241.342 946.101 240.708C946.743 240.073 947.109 239.211 947.12 238.308L947.71 226.968V226.908C947.71 226.001 947.349 225.131 946.708 224.49C946.067 223.849 945.197 223.488 944.29 223.488V223.488Z" fill="#006838"/>
<path d="M920.29 224.488C920.931 224.488 921.547 224.743 922.001 225.197C922.455 225.651 922.71 226.266 922.71 226.908L922.12 238.278C922.12 238.597 922.057 238.912 921.935 239.207C921.812 239.501 921.633 239.768 921.407 239.993C921.182 240.218 920.914 240.396 920.619 240.517C920.324 240.638 920.008 240.7 919.69 240.698H914.08C913.761 240.7 913.445 240.638 913.151 240.517C912.856 240.396 912.588 240.218 912.362 239.993C912.136 239.768 911.957 239.501 911.835 239.207C911.713 238.912 911.65 238.597 911.65 238.278L911.18 226.908C911.182 226.266 911.44 225.65 911.895 225.196C912.35 224.743 912.967 224.488 913.61 224.488H920.29M920.29 223.488H913.61C912.702 223.488 911.831 223.848 911.188 224.489C910.545 225.13 910.182 226 910.18 226.908L910.65 238.318C910.66 239.22 911.027 240.081 911.669 240.714C912.311 241.347 913.178 241.701 914.08 241.698H919.69C920.593 241.698 921.459 241.342 922.101 240.708C922.743 240.073 923.109 239.211 923.12 238.308L923.71 226.968V226.908C923.71 226.001 923.349 225.131 922.708 224.49C922.067 223.849 921.197 223.488 920.29 223.488V223.488Z" fill="#006838"/>
<path d="M896.29 224.488C896.931 224.488 897.547 224.743 898.001 225.197C898.455 225.651 898.71 226.266 898.71 226.908L898.12 238.278C898.12 238.597 898.057 238.912 897.935 239.207C897.812 239.501 897.633 239.768 897.407 239.993C897.182 240.218 896.914 240.396 896.619 240.517C896.324 240.638 896.008 240.7 895.69 240.698H890.08C889.761 240.7 889.445 240.638 889.151 240.517C888.856 240.396 888.588 240.218 888.362 239.993C888.136 239.768 887.957 239.501 887.835 239.207C887.713 238.912 887.65 238.597 887.65 238.278L887.18 226.908C887.182 226.266 887.44 225.65 887.895 225.196C888.35 224.743 888.967 224.488 889.61 224.488H896.29M896.29 223.488H889.61C888.702 223.488 887.831 223.848 887.188 224.489C886.545 225.13 886.182 226 886.18 226.908L886.65 238.318C886.66 239.22 887.027 240.081 887.669 240.714C888.311 241.347 889.178 241.701 890.08 241.698H895.69C896.593 241.698 897.459 241.342 898.101 240.708C898.743 240.073 899.109 239.211 899.12 238.308L899.71 226.968V226.908C899.71 226.001 899.349 225.131 898.708 224.49C898.067 223.849 897.197 223.488 896.29 223.488V223.488Z" fill="#006838"/>
<path d="M872.29 224.488C872.931 224.488 873.547 224.743 874.001 225.197C874.455 225.651 874.71 226.266 874.71 226.908L874.12 238.278C874.12 238.597 874.057 238.912 873.935 239.207C873.812 239.501 873.633 239.768 873.407 239.993C873.182 240.218 872.914 240.396 872.619 240.517C872.324 240.638 872.008 240.7 871.69 240.698H866.08C865.761 240.7 865.445 240.638 865.151 240.517C864.856 240.396 864.588 240.218 864.362 239.993C864.136 239.768 863.957 239.501 863.835 239.207C863.713 238.912 863.65 238.597 863.65 238.278L863.18 226.908C863.182 226.266 863.44 225.65 863.895 225.196C864.35 224.743 864.967 224.488 865.61 224.488H872.29M872.29 223.488H865.61C864.702 223.488 863.831 223.848 863.188 224.489C862.545 225.13 862.182 226 862.18 226.908L862.65 238.318C862.66 239.22 863.027 240.081 863.669 240.714C864.311 241.347 865.178 241.701 866.08 241.698H871.69C872.593 241.698 873.459 241.342 874.101 240.708C874.743 240.073 875.109 239.211 875.12 238.308L875.71 226.968V226.908C875.71 226.001 875.349 225.131 874.708 224.49C874.067 223.849 873.197 223.488 872.29 223.488V223.488Z" fill="#006838"/>
<path d="M848.29 224.488C848.931 224.488 849.547 224.743 850.001 225.197C850.455 225.651 850.71 226.266 850.71 226.908L850.12 238.278C850.12 238.597 850.057 238.912 849.935 239.207C849.812 239.501 849.633 239.768 849.407 239.993C849.182 240.218 848.914 240.396 848.619 240.517C848.324 240.638 848.008 240.7 847.69 240.698H842.08C841.761 240.7 841.445 240.638 841.151 240.517C840.856 240.396 840.588 240.218 840.362 239.993C840.136 239.768 839.957 239.501 839.835 239.207C839.713 238.912 839.65 238.597 839.65 238.278L839.18 226.908C839.182 226.266 839.44 225.65 839.895 225.196C840.35 224.743 840.967 224.488 841.61 224.488H848.29M848.29 223.488H841.61C840.702 223.488 839.831 223.848 839.188 224.489C838.545 225.13 838.182 226 838.18 226.908L838.65 238.318C838.66 239.22 839.027 240.081 839.669 240.714C840.311 241.347 841.178 241.701 842.08 241.698H847.69C848.593 241.698 849.459 241.342 850.101 240.708C850.743 240.073 851.109 239.211 851.12 238.308L851.71 226.968V226.908C851.71 226.001 851.349 225.131 850.708 224.49C850.067 223.849 849.197 223.488 848.29 223.488V223.488Z" fill="#006838"/>
<path d="M824.29 224.488C824.931 224.488 825.547 224.743 826.001 225.197C826.455 225.651 826.71 226.266 826.71 226.908L826.12 238.278C826.12 238.597 826.057 238.912 825.935 239.207C825.812 239.501 825.633 239.768 825.407 239.993C825.182 240.218 824.914 240.396 824.619 240.517C824.324 240.638 824.008 240.7 823.69 240.698H818.08C817.761 240.7 817.445 240.638 817.151 240.517C816.856 240.396 816.588 240.218 816.362 239.993C816.136 239.768 815.957 239.501 815.835 239.207C815.713 238.912 815.65 238.597 815.65 238.278L815.18 226.908C815.182 226.266 815.44 225.65 815.895 225.196C816.35 224.743 816.967 224.488 817.61 224.488H824.29M824.29 223.488H817.61C816.702 223.488 815.831 223.848 815.188 224.489C814.545 225.13 814.182 226 814.18 226.908L814.65 238.318C814.66 239.22 815.027 240.081 815.669 240.714C816.311 241.347 817.178 241.701 818.08 241.698H823.69C824.593 241.698 825.459 241.342 826.101 240.708C826.743 240.073 827.109 239.211 827.12 238.308L827.71 226.968V226.908C827.71 226.001 827.349 225.131 826.708 224.49C826.067 223.849 825.197 223.488 824.29 223.488V223.488Z" fill="#006838"/>
<path d="M800.29 224.488C800.931 224.488 801.547 224.743 802.001 225.197C802.455 225.651 802.71 226.266 802.71 226.908L802.12 238.278C802.12 238.597 802.057 238.912 801.935 239.207C801.812 239.501 801.633 239.768 801.407 239.993C801.182 240.218 800.914 240.396 800.619 240.517C800.324 240.638 800.008 240.7 799.69 240.698H794.08C793.761 240.7 793.445 240.638 793.151 240.517C792.856 240.396 792.588 240.218 792.362 239.993C792.136 239.768 791.957 239.501 791.835 239.207C791.713 238.912 791.65 238.597 791.65 238.278L791.18 226.908C791.182 226.266 791.44 225.65 791.895 225.196C792.35 224.743 792.967 224.488 793.61 224.488H800.29M800.29 223.488H793.61C792.702 223.488 791.831 223.848 791.188 224.489C790.545 225.13 790.182 226 790.18 226.908L790.65 238.318C790.66 239.22 791.027 240.081 791.669 240.714C792.311 241.347 793.178 241.701 794.08 241.698H799.69C800.593 241.698 801.459 241.342 802.101 240.708C802.743 240.073 803.109 239.211 803.12 238.308L803.71 226.968V226.908C803.71 226.001 803.349 225.131 802.708 224.49C802.067 223.849 801.197 223.488 800.29 223.488V223.488Z" fill="#006838"/>
<path d="M776.29 224.488C776.931 224.488 777.547 224.743 778.001 225.197C778.455 225.651 778.71 226.266 778.71 226.908L778.12 238.278C778.12 238.597 778.057 238.912 777.935 239.207C777.812 239.501 777.633 239.768 777.407 239.993C777.182 240.218 776.914 240.396 776.619 240.517C776.324 240.638 776.008 240.7 775.69 240.698H770.08C769.761 240.7 769.445 240.638 769.151 240.517C768.856 240.396 768.588 240.218 768.362 239.993C768.136 239.768 767.957 239.501 767.835 239.207C767.713 238.912 767.65 238.597 767.65 238.278L767.18 226.908C767.182 226.266 767.44 225.65 767.895 225.196C768.35 224.743 768.967 224.488 769.61 224.488H776.29M776.29 223.488H769.61C768.702 223.488 767.831 223.848 767.188 224.489C766.545 225.13 766.182 226 766.18 226.908L766.65 238.318C766.66 239.22 767.027 240.081 767.669 240.714C768.311 241.347 769.178 241.701 770.08 241.698H775.69C776.593 241.698 777.459 241.342 778.101 240.708C778.743 240.073 779.109 239.211 779.12 238.308L779.71 226.968V226.908C779.71 226.001 779.349 225.131 778.708 224.49C778.067 223.849 777.197 223.488 776.29 223.488V223.488Z" fill="#006838"/>
<path d="M752.29 224.488C752.931 224.488 753.547 224.743 754.001 225.197C754.455 225.651 754.71 226.266 754.71 226.908L754.12 238.278C754.12 238.597 754.057 238.912 753.935 239.207C753.812 239.501 753.633 239.768 753.407 239.993C753.182 240.218 752.914 240.396 752.619 240.517C752.324 240.638 752.008 240.7 751.69 240.698H746.08C745.761 240.7 745.445 240.638 745.151 240.517C744.856 240.396 744.588 240.218 744.362 239.993C744.136 239.768 743.957 239.501 743.835 239.207C743.713 238.912 743.65 238.597 743.65 238.278L743.18 226.908C743.182 226.266 743.44 225.65 743.895 225.196C744.35 224.743 744.967 224.488 745.61 224.488H752.29M752.29 223.488H745.61C744.702 223.488 743.831 223.848 743.188 224.489C742.545 225.13 742.182 226 742.18 226.908L742.65 238.318C742.66 239.22 743.027 240.081 743.669 240.714C744.311 241.347 745.178 241.701 746.08 241.698H751.69C752.593 241.698 753.459 241.342 754.101 240.708C754.743 240.073 755.109 239.211 755.12 238.308L755.71 226.968V226.908C755.71 226.001 755.349 225.131 754.708 224.49C754.067 223.849 753.197 223.488 752.29 223.488V223.488Z" fill="#006838"/>
<path d="M728.29 224.488C728.931 224.488 729.547 224.743 730.001 225.197C730.455 225.651 730.71 226.266 730.71 226.908L730.12 238.278C730.12 238.597 730.057 238.912 729.935 239.207C729.812 239.501 729.633 239.768 729.407 239.993C729.182 240.218 728.914 240.396 728.619 240.517C728.324 240.638 728.008 240.7 727.69 240.698H722.08C721.761 240.7 721.445 240.638 721.151 240.517C720.856 240.396 720.588 240.218 720.362 239.993C720.136 239.768 719.957 239.501 719.835 239.207C719.713 238.912 719.65 238.597 719.65 238.278L719.18 226.908C719.182 226.266 719.44 225.65 719.895 225.196C720.35 224.743 720.967 224.488 721.61 224.488H728.29M728.29 223.488H721.61C720.702 223.488 719.831 223.848 719.188 224.489C718.545 225.13 718.182 226 718.18 226.908L718.65 238.318C718.66 239.22 719.027 240.081 719.669 240.714C720.311 241.347 721.178 241.701 722.08 241.698H727.69C728.593 241.698 729.459 241.342 730.101 240.708C730.743 240.073 731.109 239.211 731.12 238.308L731.71 226.968V226.908C731.71 226.001 731.349 225.131 730.708 224.49C730.067 223.849 729.197 223.488 728.29 223.488V223.488Z" fill="#006838"/>
<path d="M704.29 224.488C704.931 224.488 705.547 224.743 706.001 225.197C706.455 225.651 706.71 226.266 706.71 226.908L706.12 238.278C706.12 238.597 706.057 238.912 705.935 239.207C705.812 239.501 705.633 239.768 705.407 239.993C705.182 240.218 704.914 240.396 704.619 240.517C704.324 240.638 704.008 240.7 703.69 240.698H698.08C697.761 240.7 697.445 240.638 697.151 240.517C696.856 240.396 696.588 240.218 696.362 239.993C696.136 239.768 695.957 239.501 695.835 239.207C695.713 238.912 695.65 238.597 695.65 238.278L695.18 226.908C695.182 226.266 695.44 225.65 695.895 225.196C696.35 224.743 696.967 224.488 697.61 224.488H704.29M704.29 223.488H697.61C696.702 223.488 695.831 223.848 695.188 224.489C694.545 225.13 694.182 226 694.18 226.908L694.65 238.318C694.66 239.22 695.027 240.081 695.669 240.714C696.311 241.347 697.178 241.701 698.08 241.698H703.69C704.593 241.698 705.459 241.342 706.101 240.708C706.743 240.073 707.109 239.211 707.12 238.308L707.71 226.968V226.908C707.71 226.001 707.349 225.131 706.708 224.49C706.067 223.849 705.197 223.488 704.29 223.488V223.488Z" fill="#006838"/>
<path d="M680.19 240.698H674.57C673.928 240.698 673.312 240.443 672.859 239.989C672.405 239.536 672.15 238.92 672.15 238.278L671.68 226.908C671.682 226.266 671.94 225.65 672.395 225.196C672.85 224.743 673.467 224.488 674.11 224.488H680.79C681.431 224.488 682.047 224.743 682.501 225.197C682.955 225.651 683.21 226.266 683.21 226.908L682.62 238.278C682.62 238.597 682.557 238.912 682.435 239.207C682.312 239.501 682.133 239.768 681.907 239.993C681.682 240.218 681.414 240.396 681.119 240.517C680.824 240.638 680.508 240.7 680.19 240.698Z" fill="#18181A"/>
<path d="M656.19 240.698H650.57C649.928 240.698 649.312 240.443 648.859 239.989C648.405 239.536 648.15 238.92 648.15 238.278L647.68 226.908C647.682 226.266 647.94 225.65 648.395 225.196C648.85 224.743 649.467 224.488 650.11 224.488H656.79C657.431 224.488 658.047 224.743 658.501 225.197C658.955 225.651 659.21 226.266 659.21 226.908L658.62 238.278C658.62 238.597 658.557 238.912 658.435 239.207C658.312 239.501 658.133 239.768 657.907 239.993C657.682 240.218 657.414 240.396 657.119 240.517C656.824 240.638 656.508 240.7 656.19 240.698Z" fill="#18181A"/>
<path d="M632.19 240.698H626.57C625.928 240.698 625.312 240.443 624.859 239.989C624.405 239.536 624.15 238.92 624.15 238.278L623.68 226.908C623.682 226.266 623.94 225.65 624.395 225.196C624.85 224.743 625.467 224.488 626.11 224.488H632.79C633.431 224.488 634.047 224.743 634.501 225.197C634.955 225.651 635.21 226.266 635.21 226.908L634.62 238.278C634.62 238.597 634.557 238.912 634.435 239.207C634.312 239.501 634.133 239.768 633.907 239.993C633.682 240.218 633.414 240.396 633.119 240.517C632.824 240.638 632.508 240.7 632.19 240.698V240.698Z" fill="#18181A"/>
<path d="M608.19 240.698H602.57C601.928 240.698 601.312 240.443 600.859 239.989C600.405 239.536 600.15 238.92 600.15 238.278L599.68 226.908C599.682 226.266 599.94 225.65 600.395 225.196C600.85 224.743 601.467 224.488 602.11 224.488H608.79C609.431 224.488 610.047 224.743 610.501 225.197C610.955 225.651 611.21 226.266 611.21 226.908L610.62 238.278C610.62 238.597 610.557 238.912 610.435 239.207C610.312 239.501 610.133 239.768 609.907 239.993C609.682 240.218 609.414 240.396 609.119 240.517C608.824 240.638 608.508 240.7 608.19 240.698V240.698Z" fill="#18181A"/>
<path d="M584.19 240.698H578.57C577.928 240.698 577.312 240.443 576.859 239.989C576.405 239.536 576.15 238.92 576.15 238.278L575.68 226.908C575.682 226.266 575.94 225.65 576.395 225.196C576.85 224.743 577.467 224.488 578.11 224.488H584.79C585.431 224.488 586.047 224.743 586.501 225.197C586.955 225.651 587.21 226.266 587.21 226.908L586.62 238.278C586.62 238.597 586.557 238.912 586.435 239.207C586.312 239.501 586.133 239.768 585.907 239.993C585.682 240.218 585.414 240.396 585.119 240.517C584.824 240.638 584.508 240.7 584.19 240.698Z" fill="#18181A"/>
<path d="M560.19 240.698H554.57C553.928 240.698 553.312 240.443 552.859 239.989C552.405 239.536 552.15 238.92 552.15 238.278L551.68 226.908C551.682 226.266 551.94 225.65 552.395 225.196C552.85 224.743 553.467 224.488 554.11 224.488H560.79C561.431 224.488 562.047 224.743 562.501 225.197C562.955 225.651 563.21 226.266 563.21 226.908L562.62 238.278C562.62 238.597 562.557 238.912 562.435 239.207C562.312 239.501 562.133 239.768 561.907 239.993C561.682 240.218 561.414 240.396 561.119 240.517C560.824 240.638 560.508 240.7 560.19 240.698Z" fill="#18181A"/>
<path d="M536.19 240.698H530.57C529.928 240.698 529.312 240.443 528.859 239.989C528.405 239.536 528.15 238.92 528.15 238.278L527.68 226.908C527.682 226.266 527.94 225.65 528.395 225.196C528.85 224.743 529.467 224.488 530.11 224.488H536.79C537.431 224.488 538.047 224.743 538.501 225.197C538.955 225.651 539.21 226.266 539.21 226.908L538.62 238.278C538.62 238.597 538.557 238.912 538.435 239.207C538.312 239.501 538.133 239.768 537.907 239.993C537.682 240.218 537.414 240.396 537.119 240.517C536.824 240.638 536.508 240.7 536.19 240.698Z" fill="#18181A"/>
<path d="M512.19 240.698H506.57C505.928 240.698 505.312 240.443 504.858 239.989C504.405 239.536 504.15 238.92 504.15 238.278L503.68 226.908C503.682 226.266 503.94 225.65 504.395 225.196C504.85 224.743 505.467 224.488 506.11 224.488H512.79C513.431 224.488 514.047 224.743 514.501 225.197C514.955 225.651 515.21 226.266 515.21 226.908L514.62 238.278C514.62 238.597 514.557 238.912 514.435 239.207C514.312 239.501 514.133 239.768 513.907 239.993C513.682 240.218 513.414 240.396 513.119 240.517C512.824 240.638 512.508 240.7 512.19 240.698V240.698Z" fill="#18181A"/>
<path d="M488.19 240.698H482.57C481.928 240.698 481.312 240.443 480.858 239.989C480.405 239.536 480.15 238.92 480.15 238.278L479.68 226.908C479.682 226.266 479.94 225.65 480.395 225.196C480.85 224.743 481.467 224.488 482.11 224.488H488.79C489.432 224.488 490.047 224.743 490.501 225.197C490.955 225.651 491.21 226.266 491.21 226.908L490.62 238.278C490.62 238.597 490.557 238.912 490.435 239.207C490.312 239.501 490.133 239.768 489.907 239.993C489.682 240.218 489.414 240.396 489.119 240.517C488.824 240.638 488.508 240.7 488.19 240.698V240.698Z" fill="#18181A"/>
<path d="M464.19 240.698H458.57C457.928 240.698 457.312 240.443 456.858 239.989C456.405 239.536 456.15 238.92 456.15 238.278L455.68 226.908C455.682 226.266 455.94 225.65 456.395 225.196C456.85 224.743 457.467 224.488 458.11 224.488H464.79C465.432 224.488 466.047 224.743 466.501 225.197C466.955 225.651 467.21 226.266 467.21 226.908L466.62 238.278C466.62 238.597 466.557 238.912 466.435 239.207C466.312 239.501 466.133 239.768 465.907 239.993C465.682 240.218 465.414 240.396 465.119 240.517C464.824 240.638 464.508 240.7 464.19 240.698V240.698Z" fill="#18181A"/>
<path d="M440.19 240.698H434.57C433.928 240.698 433.312 240.443 432.858 239.989C432.405 239.536 432.15 238.92 432.15 238.278L431.68 226.908C431.682 226.266 431.94 225.65 432.395 225.196C432.85 224.743 433.467 224.488 434.11 224.488H440.79C441.432 224.488 442.047 224.743 442.501 225.197C442.955 225.651 443.21 226.266 443.21 226.908L442.62 238.278C442.62 238.597 442.557 238.912 442.435 239.207C442.312 239.501 442.133 239.768 441.907 239.993C441.682 240.218 441.414 240.396 441.119 240.517C440.824 240.638 440.508 240.7 440.19 240.698V240.698Z" fill="#18181A"/>
<path d="M416.19 240.698H410.57C410.252 240.698 409.937 240.636 409.644 240.514C409.35 240.392 409.083 240.214 408.858 239.989C408.634 239.765 408.456 239.498 408.334 239.204C408.212 238.911 408.15 238.596 408.15 238.278L407.68 226.908C407.682 226.266 407.94 225.65 408.395 225.196C408.85 224.743 409.467 224.488 410.11 224.488H416.79C417.432 224.488 418.047 224.743 418.501 225.197C418.955 225.651 419.21 226.266 419.21 226.908L418.62 238.278C418.62 238.597 418.557 238.912 418.435 239.207C418.312 239.501 418.133 239.768 417.907 239.993C417.682 240.218 417.414 240.396 417.119 240.517C416.824 240.638 416.508 240.7 416.19 240.698Z" fill="#18181A"/>
<path d="M680.79 224.488C681.431 224.488 682.047 224.743 682.501 225.197C682.955 225.651 683.21 226.266 683.21 226.908L682.62 238.278C682.62 238.597 682.557 238.912 682.435 239.207C682.312 239.501 682.133 239.768 681.907 239.993C681.682 240.218 681.414 240.396 681.119 240.517C680.824 240.638 680.508 240.7 680.19 240.698H674.57C673.928 240.698 673.312 240.443 672.859 239.989C672.405 239.536 672.15 238.92 672.15 238.278L671.68 226.908C671.682 226.266 671.94 225.65 672.395 225.196C672.85 224.743 673.467 224.488 674.11 224.488H680.79M680.79 223.488H674.11C673.202 223.488 672.331 223.848 671.688 224.489C671.045 225.13 670.682 226 670.68 226.908L671.15 238.318C671.158 239.219 671.522 240.08 672.163 240.714C672.803 241.347 673.669 241.701 674.57 241.698H680.19C681.093 241.698 681.959 241.342 682.601 240.708C683.243 240.073 683.609 239.211 683.62 238.308L684.21 226.968V226.908C684.21 226.001 683.849 225.131 683.208 224.49C682.567 223.849 681.697 223.488 680.79 223.488V223.488Z" fill="#006838"/>
<path d="M656.79 224.488C657.431 224.488 658.047 224.743 658.501 225.197C658.955 225.651 659.21 226.266 659.21 226.908L658.62 238.278C658.62 238.597 658.557 238.912 658.435 239.207C658.312 239.501 658.133 239.768 657.907 239.993C657.682 240.218 657.414 240.396 657.119 240.517C656.824 240.638 656.508 240.7 656.19 240.698H650.57C649.928 240.698 649.312 240.443 648.859 239.989C648.405 239.536 648.15 238.92 648.15 238.278L647.68 226.908C647.682 226.266 647.94 225.65 648.395 225.196C648.85 224.743 649.467 224.488 650.11 224.488H656.79M656.79 223.488H650.11C649.202 223.488 648.331 223.848 647.688 224.489C647.045 225.13 646.682 226 646.68 226.908L647.15 238.318C647.158 239.219 647.522 240.08 648.163 240.714C648.803 241.347 649.669 241.701 650.57 241.698H656.19C657.093 241.698 657.959 241.342 658.601 240.708C659.243 240.073 659.609 239.211 659.62 238.308L660.21 226.968V226.908C660.21 226.001 659.849 225.131 659.208 224.49C658.567 223.849 657.697 223.488 656.79 223.488V223.488Z" fill="#006838"/>
<path d="M632.79 224.488C633.431 224.488 634.047 224.743 634.501 225.197C634.955 225.651 635.21 226.266 635.21 226.908L634.62 238.278C634.62 238.597 634.557 238.912 634.435 239.207C634.312 239.501 634.133 239.768 633.907 239.993C633.682 240.218 633.414 240.396 633.119 240.517C632.824 240.638 632.508 240.7 632.19 240.698H626.57C625.928 240.698 625.312 240.443 624.859 239.989C624.405 239.536 624.15 238.92 624.15 238.278L623.68 226.908C623.682 226.266 623.94 225.65 624.395 225.196C624.85 224.743 625.467 224.488 626.11 224.488H632.79M632.79 223.488H626.11C625.202 223.488 624.331 223.848 623.688 224.489C623.045 225.13 622.682 226 622.68 226.908L623.15 238.318C623.158 239.219 623.522 240.08 624.163 240.714C624.803 241.347 625.669 241.701 626.57 241.698H632.19C633.093 241.698 633.959 241.342 634.601 240.708C635.243 240.073 635.609 239.211 635.62 238.308L636.21 226.968V226.908C636.21 226.001 635.849 225.131 635.208 224.49C634.567 223.849 633.697 223.488 632.79 223.488V223.488Z" fill="#006838"/>
<path d="M608.79 224.488C609.431 224.488 610.047 224.743 610.501 225.197C610.955 225.651 611.21 226.266 611.21 226.908L610.62 238.278C610.62 238.597 610.557 238.912 610.435 239.207C610.312 239.501 610.133 239.768 609.907 239.993C609.682 240.218 609.414 240.396 609.119 240.517C608.824 240.638 608.508 240.7 608.19 240.698H602.57C601.928 240.698 601.312 240.443 600.859 239.989C600.405 239.536 600.15 238.92 600.15 238.278L599.68 226.908C599.682 226.266 599.94 225.65 600.395 225.196C600.85 224.743 601.467 224.488 602.11 224.488H608.79M608.79 223.488H602.11C601.202 223.488 600.331 223.848 599.688 224.489C599.045 225.13 598.682 226 598.68 226.908L599.15 238.318C599.158 239.219 599.522 240.08 600.163 240.714C600.803 241.347 601.669 241.701 602.57 241.698H608.19C609.093 241.698 609.959 241.342 610.601 240.708C611.243 240.073 611.609 239.211 611.62 238.308L612.21 226.968V226.908C612.21 226.001 611.849 225.131 611.208 224.49C610.567 223.849 609.697 223.488 608.79 223.488V223.488Z" fill="#006838"/>
<path d="M584.79 224.488C585.431 224.488 586.047 224.743 586.501 225.197C586.955 225.651 587.21 226.266 587.21 226.908L586.62 238.278C586.62 238.597 586.557 238.912 586.435 239.207C586.312 239.501 586.133 239.768 585.907 239.993C585.682 240.218 585.414 240.396 585.119 240.517C584.824 240.638 584.508 240.7 584.19 240.698H578.57C577.928 240.698 577.312 240.443 576.859 239.989C576.405 239.536 576.15 238.92 576.15 238.278L575.68 226.908C575.682 226.266 575.94 225.65 576.395 225.196C576.85 224.743 577.467 224.488 578.11 224.488H584.79M584.79 223.488H578.11C577.202 223.488 576.331 223.848 575.688 224.489C575.045 225.13 574.682 226 574.68 226.908L575.15 238.318C575.158 239.219 575.522 240.08 576.163 240.714C576.803 241.347 577.669 241.701 578.57 241.698H584.19C585.093 241.698 585.959 241.342 586.601 240.708C587.243 240.073 587.609 239.211 587.62 238.308L588.21 226.968V226.908C588.21 226.001 587.849 225.131 587.208 224.49C586.567 223.849 585.697 223.488 584.79 223.488V223.488Z" fill="#006838"/>
<path d="M560.79 224.488C561.431 224.488 562.047 224.743 562.501 225.197C562.955 225.651 563.21 226.266 563.21 226.908L562.62 238.278C562.62 238.597 562.557 238.912 562.435 239.207C562.312 239.501 562.133 239.768 561.907 239.993C561.682 240.218 561.414 240.396 561.119 240.517C560.824 240.638 560.508 240.7 560.19 240.698H554.57C553.928 240.698 553.312 240.443 552.859 239.989C552.405 239.536 552.15 238.92 552.15 238.278L551.68 226.908C551.682 226.266 551.94 225.65 552.395 225.196C552.85 224.743 553.467 224.488 554.11 224.488H560.79M560.79 223.488H554.11C553.202 223.488 552.331 223.848 551.688 224.489C551.045 225.13 550.682 226 550.68 226.908L551.15 238.318C551.158 239.219 551.522 240.08 552.163 240.714C552.803 241.347 553.669 241.701 554.57 241.698H560.19C561.093 241.698 561.959 241.342 562.601 240.708C563.243 240.073 563.609 239.211 563.62 238.308L564.21 226.968V226.908C564.21 226.001 563.849 225.131 563.208 224.49C562.567 223.849 561.697 223.488 560.79 223.488V223.488Z" fill="#006838"/>
<path d="M536.79 224.488C537.431 224.488 538.047 224.743 538.501 225.197C538.955 225.651 539.21 226.266 539.21 226.908L538.62 238.278C538.62 238.597 538.557 238.912 538.435 239.207C538.312 239.501 538.133 239.768 537.907 239.993C537.682 240.218 537.414 240.396 537.119 240.517C536.824 240.638 536.508 240.7 536.19 240.698H530.57C529.928 240.698 529.312 240.443 528.859 239.989C528.405 239.536 528.15 238.92 528.15 238.278L527.68 226.908C527.682 226.266 527.94 225.65 528.395 225.196C528.85 224.743 529.467 224.488 530.11 224.488H536.79M536.79 223.488H530.11C529.202 223.488 528.331 223.848 527.688 224.489C527.045 225.13 526.682 226 526.68 226.908L527.15 238.318C527.158 239.219 527.522 240.08 528.163 240.714C528.803 241.347 529.669 241.701 530.57 241.698H536.19C537.093 241.698 537.959 241.342 538.601 240.708C539.243 240.073 539.609 239.211 539.62 238.308L540.21 226.968V226.908C540.21 226.001 539.849 225.131 539.208 224.49C538.567 223.849 537.697 223.488 536.79 223.488V223.488Z" fill="#006838"/>
<path d="M512.79 224.488C513.431 224.488 514.047 224.743 514.501 225.197C514.955 225.651 515.21 226.266 515.21 226.908L514.62 238.278C514.62 238.597 514.557 238.912 514.435 239.207C514.312 239.501 514.133 239.768 513.907 239.993C513.682 240.218 513.414 240.396 513.119 240.517C512.824 240.638 512.508 240.7 512.19 240.698H506.57C505.928 240.698 505.312 240.443 504.858 239.989C504.405 239.536 504.15 238.92 504.15 238.278L503.68 226.908C503.682 226.266 503.94 225.65 504.395 225.196C504.85 224.743 505.467 224.488 506.11 224.488H512.79M512.79 223.488H506.11C505.202 223.488 504.331 223.848 503.688 224.489C503.045 225.13 502.682 226 502.68 226.908L503.15 238.318C503.158 239.219 503.522 240.08 504.163 240.714C504.803 241.347 505.669 241.701 506.57 241.698H512.19C513.093 241.698 513.959 241.342 514.601 240.708C515.243 240.073 515.609 239.211 515.62 238.308L516.21 226.968V226.908C516.21 226.001 515.849 225.131 515.208 224.49C514.567 223.849 513.697 223.488 512.79 223.488V223.488Z" fill="#006838"/>
<path d="M488.79 224.488C489.432 224.488 490.047 224.743 490.501 225.197C490.955 225.651 491.21 226.266 491.21 226.908L490.62 238.278C490.62 238.597 490.557 238.912 490.435 239.207C490.312 239.501 490.133 239.768 489.907 239.993C489.682 240.218 489.414 240.396 489.119 240.517C488.824 240.638 488.508 240.7 488.19 240.698H482.57C481.928 240.698 481.312 240.443 480.858 239.989C480.405 239.536 480.15 238.92 480.15 238.278L479.68 226.908C479.682 226.266 479.94 225.65 480.395 225.196C480.85 224.743 481.467 224.488 482.11 224.488H488.79ZM488.79 223.488H482.11C481.202 223.488 480.331 223.848 479.688 224.489C479.045 225.13 478.682 226 478.68 226.908L479.15 238.318C479.158 239.219 479.522 240.08 480.163 240.714C480.803 241.347 481.669 241.701 482.57 241.698H488.19C489.093 241.698 489.959 241.342 490.601 240.708C491.243 240.073 491.609 239.211 491.62 238.308L492.21 226.968V226.908C492.21 226.001 491.849 225.131 491.208 224.49C490.567 223.849 489.697 223.488 488.79 223.488V223.488Z" fill="#006838"/>
<path d="M464.79 224.488C465.432 224.488 466.047 224.743 466.501 225.197C466.955 225.651 467.21 226.266 467.21 226.908L466.62 238.278C466.62 238.597 466.557 238.912 466.435 239.207C466.312 239.501 466.133 239.768 465.907 239.993C465.682 240.218 465.414 240.396 465.119 240.517C464.824 240.638 464.508 240.7 464.19 240.698H458.57C457.928 240.698 457.312 240.443 456.858 239.989C456.405 239.536 456.15 238.92 456.15 238.278L455.68 226.908C455.682 226.266 455.94 225.65 456.395 225.196C456.85 224.743 457.467 224.488 458.11 224.488H464.79ZM464.79 223.488H458.11C457.202 223.488 456.331 223.848 455.688 224.489C455.045 225.13 454.682 226 454.68 226.908L455.15 238.318C455.158 239.219 455.522 240.08 456.163 240.714C456.803 241.347 457.669 241.701 458.57 241.698H464.19C465.093 241.698 465.959 241.342 466.601 240.708C467.243 240.073 467.609 239.211 467.62 238.308L468.21 226.968V226.908C468.21 226.001 467.849 225.131 467.208 224.49C466.567 223.849 465.697 223.488 464.79 223.488V223.488Z" fill="#006838"/>
<path d="M440.79 224.488C441.108 224.488 441.422 224.551 441.716 224.672C442.009 224.794 442.276 224.972 442.501 225.197C442.726 225.422 442.904 225.689 443.025 225.982C443.147 226.276 443.21 226.59 443.21 226.908L442.62 238.278C442.62 238.597 442.557 238.912 442.435 239.207C442.312 239.501 442.133 239.768 441.907 239.993C441.682 240.218 441.414 240.396 441.119 240.517C440.824 240.638 440.508 240.7 440.19 240.698H434.57C433.928 240.698 433.312 240.443 432.858 239.989C432.405 239.536 432.15 238.92 432.15 238.278L431.68 226.908C431.682 226.266 431.94 225.65 432.395 225.196C432.85 224.743 433.467 224.488 434.11 224.488H440.79ZM440.79 223.488H434.11C433.202 223.488 432.331 223.848 431.688 224.489C431.045 225.13 430.682 226 430.68 226.908L431.15 238.318C431.158 239.219 431.522 240.08 432.163 240.714C432.803 241.347 433.669 241.701 434.57 241.698H440.19C441.093 241.698 441.959 241.342 442.601 240.708C443.243 240.073 443.609 239.211 443.62 238.308L444.21 226.968V226.908C444.21 226.001 443.849 225.131 443.208 224.49C442.567 223.849 441.697 223.488 440.79 223.488V223.488Z" fill="#006838"/>
<path d="M416.79 224.488C417.432 224.488 418.047 224.743 418.501 225.197C418.955 225.651 419.21 226.266 419.21 226.908L418.62 238.278C418.62 238.597 418.557 238.912 418.435 239.207C418.312 239.501 418.133 239.768 417.907 239.993C417.682 240.218 417.414 240.396 417.119 240.517C416.824 240.638 416.508 240.7 416.19 240.698H410.57C409.928 240.698 409.312 240.443 408.858 239.989C408.405 239.536 408.15 238.92 408.15 238.278L407.68 226.908C407.682 226.266 407.94 225.65 408.395 225.196C408.85 224.743 409.467 224.488 410.11 224.488H416.79ZM416.79 223.488H410.11C409.202 223.488 408.331 223.848 407.688 224.489C407.045 225.13 406.682 226 406.68 226.908L407.15 238.318C407.158 239.219 407.522 240.08 408.163 240.714C408.803 241.347 409.669 241.701 410.57 241.698H416.19C417.093 241.698 417.959 241.342 418.601 240.708C419.243 240.073 419.609 239.211 419.62 238.308L420.21 226.968V226.908C420.21 226.459 420.121 226.014 419.949 225.6C419.778 225.185 419.526 224.808 419.208 224.49C418.89 224.172 418.513 223.92 418.098 223.749C417.684 223.577 417.239 223.488 416.79 223.488V223.488Z" fill="#006838"/>
<path d="M340.19 240.698H334.57C334.251 240.7 333.935 240.638 333.641 240.517C333.346 240.396 333.078 240.218 332.852 239.993C332.626 239.768 332.447 239.501 332.325 239.207C332.203 238.912 332.14 238.597 332.14 238.278L331.68 226.908C331.68 226.266 331.935 225.651 332.388 225.197C332.842 224.743 333.458 224.488 334.1 224.488H340.78C341.422 224.488 342.039 224.743 342.494 225.196C342.95 225.65 343.207 226.266 343.21 226.908L342.61 238.278C342.61 238.92 342.355 239.536 341.901 239.989C341.447 240.443 340.832 240.698 340.19 240.698Z" fill="#18181A"/>
<path d="M316.19 240.698H310.57C310.251 240.7 309.935 240.638 309.641 240.517C309.346 240.396 309.078 240.218 308.852 239.993C308.626 239.768 308.447 239.501 308.325 239.207C308.203 238.912 308.14 238.597 308.14 238.278L307.68 226.908C307.68 226.266 307.935 225.651 308.388 225.197C308.842 224.743 309.458 224.488 310.1 224.488H316.78C317.422 224.488 318.039 224.743 318.494 225.196C318.95 225.65 319.207 226.266 319.21 226.908L318.61 238.278C318.61 238.92 318.355 239.536 317.901 239.989C317.447 240.443 316.832 240.698 316.19 240.698V240.698Z" fill="#18181A"/>
<path d="M292.19 240.698H286.57C286.251 240.7 285.935 240.638 285.641 240.517C285.346 240.396 285.078 240.218 284.852 239.993C284.626 239.768 284.447 239.501 284.325 239.207C284.203 238.912 284.14 238.597 284.14 238.278L283.68 226.908C283.68 226.266 283.935 225.651 284.388 225.197C284.842 224.743 285.458 224.488 286.1 224.488H292.78C293.422 224.488 294.039 224.743 294.494 225.196C294.95 225.65 295.207 226.266 295.21 226.908L294.61 238.278C294.61 238.92 294.355 239.536 293.901 239.989C293.447 240.443 292.832 240.698 292.19 240.698Z" fill="#18181A"/>
<path d="M268.19 240.698H262.57C262.251 240.7 261.935 240.638 261.641 240.517C261.346 240.396 261.078 240.218 260.852 239.993C260.626 239.768 260.447 239.501 260.325 239.207C260.203 238.912 260.14 238.597 260.14 238.278L259.68 226.908C259.68 226.266 259.935 225.651 260.388 225.197C260.842 224.743 261.458 224.488 262.1 224.488H268.78C269.422 224.488 270.039 224.743 270.494 225.196C270.95 225.65 271.207 226.266 271.21 226.908L270.61 238.278C270.61 238.92 270.355 239.536 269.901 239.989C269.447 240.443 268.832 240.698 268.19 240.698Z" fill="#18181A"/>
<path d="M244.19 240.698H238.57C238.251 240.7 237.935 240.638 237.641 240.517C237.346 240.396 237.078 240.218 236.852 239.993C236.626 239.768 236.447 239.501 236.325 239.207C236.203 238.912 236.14 238.597 236.14 238.278L235.68 226.908C235.68 226.266 235.935 225.651 236.389 225.197C236.842 224.743 237.458 224.488 238.1 224.488H244.78C245.422 224.488 246.039 224.743 246.494 225.196C246.95 225.65 247.207 226.266 247.21 226.908L246.61 238.278C246.61 238.92 246.355 239.536 245.901 239.989C245.447 240.443 244.832 240.698 244.19 240.698Z" fill="#18181A"/>
<path d="M340.78 224.488C341.422 224.488 342.039 224.743 342.494 225.196C342.95 225.65 343.207 226.266 343.21 226.908L342.61 238.278C342.61 238.596 342.547 238.911 342.425 239.204C342.304 239.498 342.126 239.765 341.901 239.989C341.676 240.214 341.409 240.392 341.116 240.514C340.822 240.636 340.507 240.698 340.19 240.698H334.57C334.251 240.7 333.935 240.638 333.641 240.517C333.346 240.396 333.078 240.218 332.852 239.993C332.626 239.768 332.447 239.501 332.325 239.207C332.203 238.912 332.14 238.597 332.14 238.278L331.68 226.908C331.68 226.266 331.935 225.651 332.388 225.197C332.842 224.743 333.458 224.488 334.1 224.488H340.78ZM340.78 223.488H334.1C333.651 223.488 333.206 223.577 332.791 223.749C332.376 223.92 331.999 224.172 331.681 224.49C331.364 224.808 331.112 225.185 330.94 225.6C330.768 226.014 330.68 226.459 330.68 226.908L331.14 238.318C331.15 239.22 331.517 240.081 332.159 240.714C332.801 241.347 333.668 241.701 334.57 241.698H340.19C341.092 241.698 341.957 241.342 342.597 240.707C343.238 240.072 343.602 239.21 343.61 238.308L344.21 226.968V226.908C344.207 226 343.845 225.13 343.202 224.489C342.559 223.848 341.688 223.488 340.78 223.488V223.488Z" fill="#006838"/>
<path d="M316.78 224.488C317.422 224.488 318.039 224.743 318.494 225.196C318.95 225.65 319.207 226.266 319.21 226.908L318.61 238.278C318.61 238.92 318.355 239.536 317.901 239.989C317.447 240.443 316.832 240.698 316.19 240.698H310.57C310.251 240.7 309.935 240.638 309.641 240.517C309.346 240.396 309.078 240.218 308.852 239.993C308.626 239.768 308.447 239.501 308.325 239.207C308.203 238.912 308.14 238.597 308.14 238.278L307.68 226.908C307.68 226.266 307.935 225.651 308.388 225.197C308.842 224.743 309.458 224.488 310.1 224.488H316.78ZM316.78 223.488H310.1C309.651 223.488 309.206 223.577 308.791 223.749C308.376 223.92 307.999 224.172 307.681 224.49C307.364 224.808 307.112 225.185 306.94 225.6C306.768 226.014 306.68 226.459 306.68 226.908L307.14 238.318C307.15 239.22 307.517 240.081 308.159 240.714C308.801 241.347 309.668 241.701 310.57 241.698H316.19C317.092 241.698 317.957 241.342 318.597 240.707C319.238 240.072 319.602 239.21 319.61 238.308L320.21 226.968V226.908C320.207 226 319.845 225.13 319.202 224.489C318.559 223.848 317.688 223.488 316.78 223.488V223.488Z" fill="#006838"/>
<path d="M292.78 224.488C293.422 224.488 294.039 224.743 294.494 225.196C294.95 225.65 295.207 226.266 295.21 226.908L294.61 238.278C294.61 238.92 294.355 239.536 293.901 239.989C293.447 240.443 292.832 240.698 292.19 240.698H286.57C286.251 240.7 285.935 240.638 285.641 240.517C285.346 240.396 285.078 240.218 284.852 239.993C284.626 239.768 284.447 239.501 284.325 239.207C284.203 238.912 284.14 238.597 284.14 238.278L283.68 226.908C283.68 226.266 283.935 225.651 284.388 225.197C284.842 224.743 285.458 224.488 286.1 224.488H292.78ZM292.78 223.488H286.1C285.193 223.488 284.323 223.849 283.681 224.49C283.04 225.131 282.68 226.001 282.68 226.908L283.14 238.318C283.15 239.22 283.517 240.081 284.159 240.714C284.801 241.347 285.668 241.701 286.57 241.698H292.19C293.092 241.698 293.957 241.342 294.597 240.707C295.238 240.072 295.602 239.21 295.61 238.308L296.21 226.968V226.908C296.207 226 295.845 225.13 295.202 224.489C294.559 223.848 293.688 223.488 292.78 223.488V223.488Z" fill="#006838"/>
<path d="M268.78 224.488C269.422 224.488 270.039 224.743 270.494 225.196C270.95 225.65 271.207 226.266 271.21 226.908L270.61 238.278C270.61 238.596 270.547 238.911 270.425 239.204C270.304 239.498 270.126 239.765 269.901 239.989C269.676 240.214 269.409 240.392 269.116 240.514C268.822 240.636 268.507 240.698 268.19 240.698H262.57C262.251 240.7 261.935 240.638 261.641 240.517C261.346 240.396 261.078 240.218 260.852 239.993C260.626 239.768 260.447 239.501 260.325 239.207C260.203 238.912 260.14 238.597 260.14 238.278L259.68 226.908C259.68 226.266 259.935 225.651 260.388 225.197C260.842 224.743 261.458 224.488 262.1 224.488H268.78ZM268.78 223.488H262.1C261.193 223.488 260.323 223.849 259.681 224.49C259.04 225.131 258.68 226.001 258.68 226.908L259.14 238.318C259.15 239.22 259.517 240.081 260.159 240.714C260.801 241.347 261.668 241.701 262.57 241.698H268.19C269.092 241.698 269.957 241.342 270.597 240.707C271.238 240.072 271.602 239.21 271.61 238.308L272.21 226.968V226.908C272.207 226 271.845 225.13 271.202 224.489C270.559 223.848 269.688 223.488 268.78 223.488V223.488Z" fill="#006838"/>
<path d="M244.78 224.488C245.422 224.488 246.039 224.743 246.494 225.196C246.95 225.65 247.207 226.266 247.21 226.908L246.61 238.278C246.61 238.92 246.355 239.536 245.901 239.989C245.447 240.443 244.832 240.698 244.19 240.698H238.57C238.251 240.7 237.935 240.638 237.641 240.517C237.346 240.396 237.078 240.218 236.852 239.993C236.626 239.768 236.447 239.501 236.325 239.207C236.203 238.912 236.14 238.597 236.14 238.278L235.68 226.908C235.68 226.266 235.935 225.651 236.389 225.197C236.842 224.743 237.458 224.488 238.1 224.488H244.78ZM244.78 223.488H238.1C237.193 223.488 236.323 223.849 235.681 224.49C235.04 225.131 234.68 226.001 234.68 226.908L235.14 238.318C235.15 239.22 235.517 240.081 236.159 240.714C236.801 241.347 237.668 241.701 238.57 241.698H244.19C245.092 241.698 245.957 241.342 246.597 240.707C247.238 240.072 247.602 239.21 247.61 238.308L248.21 226.968V226.908C248.207 226 247.845 225.13 247.202 224.489C246.559 223.848 245.688 223.488 244.78 223.488V223.488Z" fill="#006838"/>
<path d="M814.03 335.07H745.59L698.35 401.4H812.23L814.03 335.07Z" fill="#009444"/>
<path d="M703.311 401.4H766.371V335.07H745.591L703.311 394.44V401.4Z" fill="#39B54A"/>
<path d="M812.219 401.4C830.55 401.4 845.409 386.54 845.409 368.21C845.409 349.879 830.55 335.02 812.219 335.02C793.889 335.02 779.029 349.879 779.029 368.21C779.029 386.54 793.889 401.4 812.219 401.4Z" fill="#105E47"/>
<path d="M812.221 396.039C827.591 396.039 840.051 383.579 840.051 368.209C840.051 352.839 827.591 340.379 812.221 340.379C796.85 340.379 784.391 352.839 784.391 368.209C784.391 383.579 796.85 396.039 812.221 396.039Z" fill="#BF1F50"/>
<path d="M803.669 341.73C798.056 343.531 793.16 347.068 789.686 351.83C786.212 356.593 784.34 362.335 784.34 368.23C784.34 374.125 786.212 379.868 789.686 384.631C793.16 389.393 798.056 392.93 803.669 394.73C809.283 392.93 814.179 389.393 817.653 384.631C821.127 379.868 822.999 374.125 822.999 368.23C822.999 362.335 821.127 356.593 817.653 351.83C814.179 347.068 809.283 343.531 803.669 341.73V341.73Z" fill="#1C1C24"/>
<path d="M786.631 357.272C786.891 356.672 787.171 356.092 787.461 355.512C787.171 356.092 786.891 356.672 786.631 357.272Z" fill="#2BB673"/>
<path d="M787.609 355.239C787.909 354.659 788.229 354.089 788.609 353.539C788.229 354.089 787.909 354.659 787.609 355.239Z" fill="#2BB673"/>
<path d="M785.91 359.16C786.12 358.54 786.35 357.92 786.61 357.32C786.35 357.92 786.12 358.54 785.91 359.16Z" fill="#2BB673"/>
<path d="M788.711 353.329C789.071 352.779 789.431 352.229 789.821 351.699C789.431 352.229 789.071 352.779 788.711 353.329Z" fill="#2BB673"/>
<path d="M784.811 363.45C784.911 362.85 785.041 362.25 785.181 361.66C785.001 362.25 784.911 362.85 784.811 363.45Z" fill="#2BB673"/>
<path d="M785.24 361.401C785.4 360.771 785.58 360.151 785.78 359.531C785.58 360.151 785.4 360.771 785.24 361.401Z" fill="#2BB673"/>
<path d="M799.689 343.37C800.975 342.715 802.313 342.166 803.689 341.73C802.313 342.166 800.975 342.715 799.689 343.37V343.37Z" fill="#2BB673"/>
<path d="M796 345.6C797.13 344.787 798.32 344.061 799.56 343.43C798.32 344.061 797.13 344.787 796 345.6V345.6Z" fill="#2BB673"/>
<path d="M794.19 347C793.148 347.888 792.172 348.851 791.27 349.88C792.172 348.851 793.148 347.888 794.19 347V347Z" fill="#2BB673"/>
<path d="M794.279 347C794.799 346.56 795.339 346.13 795.899 345.73C795.339 346.08 794.799 346.51 794.279 347Z" fill="#2BB673"/>
<path d="M784.391 368.208C784.391 367.518 784.391 366.828 784.481 366.148C784.431 366.828 784.391 367.518 784.391 368.208Z" fill="#2BB673"/>
<path d="M784.391 368.211C784.391 368.911 784.391 369.591 784.481 370.271C784.431 369.591 784.391 368.911 784.391 368.211Z" fill="#2BB673"/>
<path d="M784.51 365.73C784.57 365.064 784.65 364.397 784.75 363.73C784.65 364.404 784.57 365.07 784.51 365.73Z" fill="#2BB673"/>
<path d="M789.85 351.672C790.25 351.132 790.67 350.612 791.11 350.102C790.67 350.612 790.25 351.132 789.85 351.672Z" fill="#2BB673"/>
<path d="M799.57 393C798.329 392.365 797.139 391.637 796.01 390.82C797.139 391.637 798.329 392.365 799.57 393V393Z" fill="#2BB673"/>
<path d="M789.821 384.72C789.431 384.19 789.071 383.65 788.711 383.09C789.071 383.65 789.431 384.19 789.821 384.72Z" fill="#2BB673"/>
<path d="M791.11 386.33C790.67 385.82 790.25 385.33 789.85 384.75C790.25 385.29 790.67 385.82 791.11 386.33Z" fill="#2BB673"/>
<path d="M791.27 386.52C792.172 387.549 793.148 388.511 794.19 389.4C793.148 388.511 792.172 387.549 791.27 386.52V386.52Z" fill="#2BB673"/>
<path d="M812.22 340.379C809.317 340.38 806.432 340.836 803.67 341.729C809.283 343.529 814.18 347.066 817.654 351.829C821.128 356.591 822.999 362.334 822.999 368.229C822.999 374.124 821.128 379.867 817.654 384.629C814.18 389.392 809.283 392.928 803.67 394.729C807.495 395.961 811.543 396.35 815.533 395.869C819.523 395.388 823.362 394.048 826.785 391.942C830.208 389.836 833.134 387.014 835.362 383.669C837.591 380.324 839.068 376.536 839.693 372.566C840.318 368.596 840.076 364.537 838.982 360.67C837.889 356.802 835.972 353.217 833.361 350.162C830.75 347.106 827.509 344.652 823.859 342.968C820.21 341.285 816.239 340.412 812.22 340.409V340.379Z" fill="#2BB673"/>
<path d="M803.67 394.699C802.297 394.254 800.96 393.706 799.67 393.059C800.96 393.706 802.297 394.254 803.67 394.699V394.699Z" fill="#2BB673"/>
<path d="M795.899 390.75C795.339 390.34 794.799 389.92 794.279 389.48C794.799 389.92 795.339 390.34 795.899 390.75Z" fill="#2BB673"/>
<path d="M785.181 374.76C785.041 374.17 784.911 373.58 784.811 372.98C784.911 373.58 785.001 374.17 785.181 374.76Z" fill="#2BB673"/>
<path d="M785.78 376.89C785.58 376.28 785.4 375.65 785.24 375.02C785.4 375.65 785.58 376.28 785.78 376.89Z" fill="#2BB673"/>
<path d="M788.58 382.881C788.23 382.331 787.91 381.771 787.58 381.191C787.91 381.771 788.23 382.331 788.58 382.881Z" fill="#2BB673"/>
<path d="M784.75 372.648C784.65 372.008 784.57 371.348 784.51 370.648C784.57 371.348 784.65 371.998 784.75 372.648Z" fill="#2BB673"/>
<path d="M787.461 380.91C787.171 380.34 786.891 379.75 786.631 379.16C786.891 379.75 787.171 380.34 787.461 380.91Z" fill="#2BB673"/>
<path d="M786.61 379.102C786.35 378.502 786.12 377.892 785.91 377.262C786.12 377.892 786.35 378.502 786.61 379.102Z" fill="#2BB673"/>
<path d="M844.179 269.891L599.369 514.851H514.949L655.999 269.891H844.179Z" fill="#EEF3FA"/>
<g style="mix-blend-mode:multiply" opacity="0.49">
<path d="M844.179 269.891L872.489 307.751H806.279L844.179 269.891Z" fill="#93D4CE"/>
</g>
<path d="M789.271 269.891L577.18 514.851H543.48L743.141 269.891H789.271Z" fill="#39B54A"/>
<path d="M585.67 514.851H592.31L814.72 269.891H802.31L585.67 514.851Z" fill="#009444"/>
<g style="mix-blend-mode:multiply">
<path d="M71.5293 151.401H175.669L187.209 145.621L200.379 166.251H71.5293V151.401Z" fill="#39B54A"/>
</g>
<g style="mix-blend-mode:multiply">
<path d="M71.5293 101.189L157.439 98.9688L167.089 111.749H71.5293V101.189Z" fill="#93D4CE"/>
</g>
<path d="M74.2405 151.391C86.7664 151.391 96.9205 141.237 96.9205 128.711C96.9205 116.185 86.7664 106.031 74.2405 106.031C61.7147 106.031 51.5605 116.185 51.5605 128.711C51.5605 141.237 61.7147 151.391 74.2405 151.391Z" fill="#39B54A"/>
<path d="M74.2402 151.4H178.65V106.07H74.2402V146.64V151.4Z" fill="#39B54A"/>
<path d="M175.67 151.391C188.196 151.391 198.35 141.237 198.35 128.711C198.35 116.185 188.196 106.031 175.67 106.031C163.144 106.031 152.99 116.185 152.99 128.711C152.99 141.237 163.144 151.391 175.67 151.391Z" fill="#105E47"/>
<path d="M175.67 147.731C186.175 147.731 194.69 139.216 194.69 128.711C194.69 118.207 186.175 109.691 175.67 109.691C165.166 109.691 156.65 118.207 156.65 128.711C156.65 139.216 165.166 147.731 175.67 147.731Z" fill="#BF1F50"/>
<path d="M169.831 110.621C165.996 111.849 162.651 114.263 160.278 117.515C157.904 120.768 156.625 124.69 156.625 128.716C156.625 132.742 157.904 136.665 160.278 139.917C162.651 143.169 165.996 145.583 169.831 146.811C173.665 145.583 177.011 143.169 179.384 139.917C181.758 136.665 183.037 132.742 183.037 128.716C183.037 124.69 181.758 120.768 179.384 117.515C177.011 114.263 173.665 111.849 169.831 110.621V110.621Z" fill="#1C1C24"/>
<path d="M158.211 121.169C158.391 120.762 158.581 120.362 158.781 119.969C158.581 120.362 158.391 120.762 158.211 121.169Z" fill="#2BB673"/>
<path d="M158.881 119.779C159.091 119.389 159.311 119.009 159.551 118.629C159.311 118.999 159.091 119.389 158.881 119.779Z" fill="#2BB673"/>
<path d="M157.711 122.461C157.861 122.041 158.021 121.621 158.191 121.211C158.001 121.621 157.861 122.001 157.711 122.461Z" fill="#2BB673"/>
<path d="M159.641 118.479C159.881 118.109 160.141 117.739 160.401 117.379C160.141 117.739 159.881 118.109 159.641 118.479Z" fill="#2BB673"/>
<path d="M157 125.392C157.07 124.982 157.16 124.572 157.25 124.172C157.11 124.572 157 125.002 157 125.392Z" fill="#2BB673"/>
<path d="M157.25 124C157.36 123.57 157.48 123.14 157.62 122.73C157.48 123.14 157.36 123.56 157.25 124Z" fill="#2BB673"/>
<path d="M167.17 111.71C168.045 111.265 168.955 110.89 169.89 110.59C168.955 110.89 168.045 111.265 167.17 111.71V111.71Z" fill="#2BB673"/>
<path d="M164.65 113.22C165.424 112.667 166.24 112.175 167.09 111.75C166.24 112.175 165.424 112.667 164.65 113.22V113.22Z" fill="#2BB673"/>
<path d="M163.4 114.191C162.689 114.811 162.02 115.48 161.4 116.191C162.02 115.48 162.689 114.811 163.4 114.191V114.191Z" fill="#2BB673"/>
<path d="M163.461 114.141C163.821 113.841 164.191 113.551 164.571 113.281C164.191 113.551 163.821 113.841 163.461 114.141Z" fill="#2BB673"/>
<path d="M156.65 128.638C156.65 128.168 156.65 127.698 156.72 127.238C156.68 127.698 156.66 128.168 156.65 128.638Z" fill="#2BB673"/>
<path d="M156.65 128.641C156.65 129.121 156.67 129.591 156.71 130.051C156.67 129.591 156.65 129.121 156.65 128.641Z" fill="#2BB673"/>
<path d="M156.74 127C156.74 126.55 156.84 126.1 156.91 125.66C156.84 126.05 156.78 126.5 156.74 127Z" fill="#2BB673"/>
<path d="M160.42 117.351C160.7 116.991 160.99 116.631 161.29 116.281C161 116.631 160.69 117.001 160.42 117.351Z" fill="#2BB673"/>
<path d="M167 145.621C166.154 145.183 165.341 144.682 164.57 144.121C165.341 144.682 166.154 145.183 167 145.621V145.621Z" fill="#2BB673"/>
<path d="M160.32 139.94C160.06 139.58 159.81 139.2 159.57 138.82C159.81 139.2 160.06 139.58 160.32 139.94Z" fill="#2BB673"/>
<path d="M161.19 141.002C160.9 140.652 160.61 140.292 160.34 139.922C160.61 140.332 160.9 140.692 161.19 141.002Z" fill="#2BB673"/>
<path d="M161.311 141.172C161.922 141.891 162.591 142.56 163.311 143.172C162.591 142.56 161.922 141.891 161.311 141.172V141.172Z" fill="#2BB673"/>
<path d="M175.74 109.699C173.755 109.692 171.782 109.992 169.89 110.589C173.724 111.828 177.064 114.254 179.429 117.516C181.794 120.778 183.061 124.708 183.047 128.737C183.032 132.766 181.737 136.686 179.349 139.931C176.961 143.176 173.602 145.578 169.76 146.789C172.364 147.625 175.119 147.889 177.835 147.562C180.551 147.236 183.164 146.327 185.496 144.897C187.828 143.468 189.824 141.551 191.348 139.279C192.871 137.007 193.886 134.433 194.323 131.733C194.759 129.032 194.608 126.269 193.879 123.633C193.149 120.996 191.859 118.549 190.097 116.457C188.334 114.365 186.141 112.678 183.667 111.512C181.192 110.345 178.495 109.727 175.76 109.699H175.74Z" fill="#2BB673"/>
<path d="M169.759 146.79C168.825 146.482 167.916 146.104 167.039 145.66C167.916 146.104 168.825 146.482 169.759 146.79V146.79Z" fill="#2BB673"/>
<path d="M164.46 144.069C164.08 143.789 163.71 143.499 163.35 143.199C163.71 143.499 164.08 143.789 164.46 144.069Z" fill="#2BB673"/>
<path d="M157.17 133.118C157.08 132.718 156.99 132.308 156.92 131.898C157 132.308 157.08 132.718 157.17 133.118Z" fill="#2BB673"/>
<path d="M157.581 134.581C157.441 134.161 157.321 133.731 157.211 133.301C157.321 133.731 157.441 134.161 157.581 134.581Z" fill="#2BB673"/>
<path d="M159.47 138.68C159.24 138.3 159.02 137.91 158.82 137.52C159 137.91 159.24 138.3 159.47 138.68Z" fill="#2BB673"/>
<path d="M156.89 131.68C156.82 131.24 156.76 130.79 156.73 130.34C156.76 130.79 156.82 131.24 156.89 131.68Z" fill="#2BB673"/>
<path d="M158.72 137.329C158.52 136.939 158.33 136.539 158.16 136.129C158.33 136.539 158.52 136.939 158.72 137.329Z" fill="#2BB673"/>
<path d="M158.14 136.088C157.96 135.678 157.81 135.258 157.66 134.828C157.81 135.258 158 135.678 158.14 136.088Z" fill="#2BB673"/>
<path d="M74.2393 128.71C74.2387 122.907 76.4638 117.324 80.4562 113.112C84.4485 108.9 89.9042 106.38 95.6993 106.07H72.9993L64.2793 131.68L73.0993 151.4H96.9193C90.9033 151.398 85.1345 149.006 80.8815 144.751C76.6285 140.496 74.2393 134.726 74.2393 128.71V128.71Z" fill="#39B54A"/>
<path d="M270.51 193.871L47.5304 297.631H16.6504L135.87 193.871H270.51Z" fill="#39B54A"/>
<path d="M215.6 193.871L25.34 297.631H0L119.22 193.871H215.6Z" fill="#EEF3FA"/>
<path d="M125.339 86.7109H71.5293V91.2609H125.339V86.7109Z" fill="#EEF3FA"/>
<path d="M125.339 78.5781H71.5293V83.1281H125.339V78.5781Z" fill="#EEF3FA"/>
<g style="mix-blend-mode:multiply" opacity="0.49">
<path d="M270.51 193.871L111.2 243.341L98.7402 252.001C118.525 277.042 147.378 293.281 179.05 297.201L181.83 297.511L198.51 299.191C238.584 303.191 278.757 305.804 319.03 307.031L270.51 193.871Z" fill="#93D4CE"/>
</g>
</g>
<defs>
<clipPath id="clip0_418_2457">
<rect width="1216.37" height="533.22" fill="white"/>
</clipPath>
</defs>
</svg>
