<svg width="11090" height="648" viewBox="0 0 11090 648" fill="none" xmlns="http://www.w3.org/2000/svg">
<rect y="474" width="11090" height="174" fill="#00813D"/>
<path d="M1713.66 297.042L1710.55 300.156L1722.12 311.73L1725.24 308.616L1713.66 297.042Z" fill="#00B054"/>
<path fill-rule="evenodd" clip-rule="evenodd" d="M1815.39 308.617L1826.96 297.035L1830.07 300.136L1818.5 311.718L1815.39 308.617Z" fill="#00B054"/>
<path d="M1832.68 302.974L1822.85 296.56C1824.06 294.695 1824.68 292.802 1824.68 290.952C1824.68 279.957 1802.49 267.7 1770.65 267.7C1738.81 267.7 1716.61 279.957 1716.61 290.952C1716.61 292.802 1717.23 294.681 1718.45 296.56L1708.61 302.974C1706.13 299.158 1704.87 295.121 1704.87 290.952C1704.87 271.326 1733.76 255.957 1770.65 255.957C1807.52 255.957 1836.42 271.326 1836.42 290.952C1836.42 295.121 1835.16 299.172 1832.68 302.974Z" fill="#1B1B1B"/>
<path d="M1952.14 550.117H1589.15C1575.46 550.117 1564.7 538.417 1565.86 524.766L1582.34 329.21C1583.37 317.1 1593.49 307.793 1605.64 307.793H1935.66C1947.81 307.793 1957.94 317.1 1958.95 329.21L1975.44 524.766C1976.6 538.417 1965.84 550.117 1952.14 550.117Z" fill="#00B054"/>
<path d="M1580.07 355.586H1753.94" stroke="#87FFA2" stroke-width="2" stroke-miterlimit="10"/>
<path d="M1786.85 355.586H1960.72" stroke="#87FFA2" stroke-width="2" stroke-miterlimit="10"/>
<path d="M1778.41 377.224H1762.9C1758.16 377.224 1754.31 373.378 1754.31 368.637V342.244C1754.31 337.502 1758.16 333.656 1762.9 333.656H1778.41C1783.15 333.656 1787 337.502 1787 342.244V368.637C1786.99 373.378 1783.15 377.224 1778.41 377.224Z" fill="#00B054" stroke="#87FFA2" stroke-width="3" stroke-miterlimit="10"/>
<path d="M1754.32 364.414H1786.99" stroke="#87FFA2" stroke-width="2" stroke-miterlimit="10"/>
<path d="M1231.69 526.39L1207.82 526.316L1219.07 488.062L1242.93 488.151L1231.69 526.39Z" fill="#1B1B1B"/>
<path d="M1220.61 545.705C1210.27 545.705 1201.86 537.294 1201.86 526.96C1201.86 516.626 1210.27 508.215 1220.61 508.215C1230.94 508.215 1239.35 516.626 1239.35 526.96C1239.35 537.294 1230.94 545.705 1220.61 545.705Z" fill="#1B1B1B"/>
<path d="M1220.61 512.636C1228.5 512.636 1234.95 519.065 1234.95 526.977C1234.95 534.875 1228.52 541.319 1220.61 541.319C1212.69 541.319 1206.26 534.889 1206.26 526.977C1206.28 519.065 1212.71 512.636 1220.61 512.636ZM1220.61 503.828C1207.82 503.828 1197.46 514.192 1197.46 526.977C1197.46 539.763 1207.82 550.126 1220.61 550.126C1233.39 550.126 1243.76 539.763 1243.76 526.977C1243.76 514.192 1233.39 503.828 1220.61 503.828Z" fill="#87FFA2"/>
<path d="M1347.04 526.39L1370.91 526.316L1359.65 488.062L1335.79 488.151L1347.04 526.39Z" fill="#1B1B1B"/>
<path d="M1358.1 545.705C1347.77 545.705 1339.36 537.294 1339.36 526.96C1339.36 516.626 1347.77 508.215 1358.1 508.215C1368.44 508.215 1376.85 516.626 1376.85 526.96C1376.85 537.294 1368.44 545.705 1358.1 545.705Z" fill="#1B1B1B"/>
<path d="M1358.1 512.636C1366 512.636 1372.45 519.065 1372.45 526.977C1372.45 534.875 1366.02 541.319 1358.1 541.319C1350.19 541.319 1343.76 534.889 1343.76 526.977C1343.78 519.065 1350.21 512.636 1358.1 512.636ZM1358.1 503.828C1345.32 503.828 1334.96 514.192 1334.96 526.977C1334.96 539.763 1345.32 550.126 1358.1 550.126C1370.89 550.126 1381.25 539.763 1381.25 526.977C1381.25 514.192 1370.89 503.828 1358.1 503.828Z" fill="#87FFA2"/>
<path d="M1316.49 172.592C1331.68 172.592 1344.06 184.952 1344.06 200.16V212.123C1344.06 227.316 1331.7 239.691 1316.49 239.691H1266.3C1251.11 239.691 1238.73 227.331 1238.73 212.123V200.16C1238.73 184.967 1251.09 172.592 1266.3 172.592H1316.49ZM1316.49 156.445H1266.3C1242.17 156.445 1222.59 176.013 1222.59 200.16V212.123C1222.59 236.256 1242.15 255.838 1266.3 255.838H1316.49C1340.62 255.838 1360.2 236.271 1360.2 212.123V200.16C1360.2 176.027 1340.64 156.445 1316.49 156.445Z" fill="#00B054"/>
<path d="M1243.64 194.571L1212.94 205.746L1216.66 215.981L1247.37 204.806L1243.64 194.571Z" fill="#1B1B1B"/>
<path d="M1369.89 205.699L1339.18 194.523L1335.45 204.759L1366.16 215.934L1369.89 205.699Z" fill="#1B1B1B"/>
<path d="M1224.88 496.912C1196.19 496.912 1169.51 483.01 1153.48 459.744C1134.23 431.795 1124.06 399.031 1124.06 364.975C1124.06 272.702 1199.13 197.633 1291.4 197.633C1292.23 197.633 1293.06 197.633 1293.88 197.647C1337.66 198.279 1378.91 215.879 1410 247.19C1441.1 278.5 1458.41 319.866 1458.75 363.654C1459.01 398.194 1448.84 431.413 1429.34 459.744C1413.31 483.025 1386.63 496.926 1357.94 496.926H1224.88V496.912Z" fill="#00B054"/>
<path d="M1291.38 216.481C1292.1 216.481 1292.84 216.481 1293.56 216.496C1331.9 217.054 1368.02 232.467 1395.27 259.902C1422.51 287.337 1437.68 323.566 1437.99 361.922C1438.22 392.176 1429.31 421.285 1412.22 446.092C1398.6 465.88 1375.88 477.697 1351.48 477.697H1231.3C1206.89 477.697 1184.18 465.88 1170.56 446.092C1153.71 421.608 1144.8 392.91 1144.8 363.067C1144.78 282.244 1210.55 216.481 1291.38 216.481ZM1291.38 210.609C1207.17 210.609 1138.91 278.867 1138.91 363.082C1138.91 395.141 1148.81 424.881 1165.72 449.439C1180.53 470.959 1205.17 483.583 1231.3 483.583H1351.48C1377.61 483.583 1402.26 470.944 1417.07 449.425C1434.18 424.573 1444.11 394.392 1443.86 361.878C1443.23 279.396 1376.13 211.813 1293.65 210.624C1292.88 210.609 1292.13 210.609 1291.38 210.609Z" fill="#87FFA2"/>
<path d="M687.497 550.119C698.774 550.119 707.916 540.977 707.916 529.7C707.916 518.423 698.774 509.281 687.497 509.281C676.22 509.281 667.078 518.423 667.078 529.7C667.078 540.977 676.22 550.119 687.497 550.119Z" fill="#1B1B1B"/>
<path d="M687.497 541.049C693.764 541.049 698.844 535.969 698.844 529.702C698.844 523.436 693.764 518.355 687.497 518.355C681.231 518.355 676.15 523.436 676.15 529.702C676.15 535.969 681.231 541.049 687.497 541.049Z" fill="#87FFA2"/>
<path d="M939.348 550.119C950.625 550.119 959.767 540.977 959.767 529.7C959.767 518.423 950.625 509.281 939.348 509.281C928.071 509.281 918.93 518.423 918.93 529.7C918.93 540.977 928.071 550.119 939.348 550.119Z" fill="#1B1B1B"/>
<path d="M939.349 541.049C945.616 541.049 950.696 535.969 950.696 529.702C950.696 523.436 945.616 518.355 939.349 518.355C933.082 518.355 928.002 523.436 928.002 529.702C928.002 535.969 933.082 541.049 939.349 541.049Z" fill="#87FFA2"/>
<path d="M978.129 285.235C989.623 285.235 998.974 294.585 998.974 306.079V353.038C998.974 364.532 989.623 373.882 978.129 373.882H974.093C962.599 373.882 953.248 364.532 953.248 353.038V306.079C953.248 294.585 962.599 285.235 974.093 285.235H978.129ZM978.129 272.023H974.093C955.289 272.023 940.037 287.275 940.037 306.079V353.038C940.037 371.842 955.289 387.093 974.093 387.093H978.129C996.933 387.093 1012.19 371.842 1012.19 353.038V306.079C1012.19 287.275 996.933 272.023 978.129 272.023Z" fill="#00B054"/>
<path d="M878.061 38.2392H864.849C864.849 24.6757 857.245 13.2112 848.247 13.2112H782.837C773.838 13.2112 766.235 24.6757 766.235 38.2392H753.023C753.023 17.1453 766.396 0 782.837 0H848.247C864.702 0 878.061 17.1599 878.061 38.2392Z" fill="#1B1B1B"/>
<path d="M763.314 38.2383H755.975V134.211H763.314V38.2383Z" fill="#87FFA2"/>
<path d="M875.127 38.2383H867.787V134.211H875.127V38.2383Z" fill="#87FFA2"/>
<path d="M934.914 129.441H697.391C668.253 129.441 644.619 153.06 644.619 182.213V476.912C644.619 506.05 668.238 529.683 697.391 529.683H934.914C964.052 529.683 987.686 506.065 987.686 476.912V182.198C987.671 153.06 964.052 129.441 934.914 129.441Z" fill="#00B054"/>
<path d="M924.212 144.387H708.076C681.287 144.387 659.576 166.097 659.576 192.887V466.227C659.576 493.017 681.287 514.727 708.076 514.727H924.197C950.987 514.727 972.697 493.017 972.697 466.227V192.887C972.697 166.097 950.987 144.387 924.212 144.387Z" stroke="#87FFA2" stroke-width="2" stroke-miterlimit="10"/>
<path d="M282.707 190.198C297.9 190.198 310.275 202.558 310.275 217.765V229.729C310.275 244.922 297.915 257.296 282.707 257.296H232.519C217.326 257.296 204.952 244.936 204.952 229.729V217.765C204.952 202.572 217.312 190.198 232.519 190.198H282.707ZM282.707 174.051H232.519C208.387 174.051 188.805 193.618 188.805 217.765V229.729C188.805 253.861 208.372 273.443 232.519 273.443H282.707C306.84 273.443 326.422 253.876 326.422 229.729V217.765C326.422 193.633 306.855 174.051 282.707 174.051Z" fill="#1B1B1B"/>
<path d="M445.632 549.795H69.5957C31.7088 549.795 1 519.087 1 481.2V294.393C1 256.506 31.7088 225.797 69.5957 225.797H445.632C483.519 225.797 514.228 256.506 514.228 294.393V481.2C514.228 519.087 483.519 549.795 445.632 549.795Z" fill="#00B054"/>
<circle cx="72.6671" cy="285.243" r="23.8643" stroke="#1B1B1B" stroke-width="2"/>
<path d="M448.03 478.804C446.061 484.283 440.661 488.106 433.232 489.707C425.821 491.305 416.547 490.643 407.192 487.282C397.837 483.921 390.263 478.529 385.563 472.579C380.853 466.616 379.121 460.231 381.089 454.752C383.058 449.273 388.458 445.45 395.886 443.849C403.298 442.251 412.572 442.913 421.927 446.274C431.281 449.636 438.856 455.027 443.556 460.977C448.266 466.94 449.998 473.325 448.03 478.804Z" stroke="#1B1B1B" stroke-width="2"/>
<rect x="122.167" y="286.278" width="85.7565" height="27.2522" transform="rotate(-15.6981 122.167 286.278)" stroke="#1B1B1B" stroke-width="2"/>
<rect x="299.718" y="450.348" width="46.1195" height="49.9955" rx="5" transform="rotate(21.1815 299.718 450.348)" stroke="#1B1B1B" stroke-width="2"/>
<path d="M212.688 214.902H180.012V225.794H212.688V214.902Z" fill="#87FFA2"/>
<path d="M335.215 214.902H302.539V225.794H335.215V214.902Z" fill="#87FFA2"/>
<path d="M2299.32 124.125C2343.72 124.125 2382.52 132.925 2415.72 150.525C2448.92 168.125 2474.52 192.925 2492.52 224.925C2510.92 256.525 2520.12 293.125 2520.12 334.725C2520.12 375.925 2510.92 412.525 2492.52 444.525C2474.52 476.525 2448.72 501.325 2415.12 518.925C2381.92 536.525 2343.32 545.325 2299.32 545.325H2141.52V124.125H2299.32ZM2292.72 456.525C2331.52 456.525 2361.72 445.925 2383.32 424.725C2404.92 403.525 2415.72 373.525 2415.72 334.725C2415.72 295.925 2404.92 265.725 2383.32 244.125C2361.72 222.525 2331.52 211.725 2292.72 211.725H2244.12V456.525H2292.72Z" fill="white"/>
<path d="M2729.86 550.125C2697.06 550.125 2667.46 543.125 2641.06 529.125C2615.06 515.125 2594.46 495.125 2579.26 469.125C2564.46 443.125 2557.06 412.725 2557.06 377.925C2557.06 343.525 2564.66 313.325 2579.86 287.325C2595.06 260.925 2615.86 240.725 2642.26 226.725C2668.66 212.725 2698.26 205.725 2731.06 205.725C2763.86 205.725 2793.46 212.725 2819.86 226.725C2846.26 240.725 2867.06 260.925 2882.26 287.325C2897.46 313.325 2905.06 343.525 2905.06 377.925C2905.06 412.325 2897.26 442.725 2881.66 469.125C2866.46 495.125 2845.46 515.125 2818.66 529.125C2792.26 543.125 2762.66 550.125 2729.86 550.125ZM2729.86 461.325C2749.46 461.325 2766.06 454.125 2779.66 439.725C2793.66 425.325 2800.66 404.725 2800.66 377.925C2800.66 351.125 2793.86 330.525 2780.26 316.125C2767.06 301.725 2750.66 294.525 2731.06 294.525C2711.06 294.525 2694.46 301.725 2681.26 316.125C2668.06 330.125 2661.46 350.725 2661.46 377.925C2661.46 404.725 2667.86 425.325 2680.66 439.725C2693.86 454.125 2710.26 461.325 2729.86 461.325Z" fill="white"/>
<path d="M3189.24 124.125V545.325H3086.64V124.125H3189.24Z" fill="white"/>
<path d="M3450.19 458.325V545.325H3397.99C3360.79 545.325 3331.79 536.325 3310.99 518.325C3290.19 499.925 3279.79 470.125 3279.79 428.925V295.725H3238.99V210.525H3279.79V128.925H3382.39V210.525H3449.59V295.725H3382.39V430.125C3382.39 440.125 3384.79 447.325 3389.59 451.725C3394.39 456.125 3402.39 458.325 3413.59 458.325H3450.19Z" fill="white"/>
<path d="M3889.49 329.325C3913.89 334.525 3933.49 346.725 3948.29 365.925C3963.09 384.725 3970.49 406.325 3970.49 430.725C3970.49 465.925 3958.09 493.925 3933.29 514.725C3908.89 535.125 3874.69 545.325 3830.69 545.325H3634.49V124.125H3824.09C3866.89 124.125 3900.29 133.925 3924.29 153.525C3948.69 173.125 3960.89 199.725 3960.89 233.325C3960.89 258.125 3954.29 278.725 3941.09 295.125C3928.29 311.525 3911.09 322.925 3889.49 329.325ZM3737.09 294.525H3804.29C3821.09 294.525 3833.89 290.925 3842.69 283.725C3851.89 276.125 3856.49 265.125 3856.49 250.725C3856.49 236.325 3851.89 225.325 3842.69 217.725C3833.89 210.125 3821.09 206.325 3804.29 206.325H3737.09V294.525ZM3812.69 462.525C3829.89 462.525 3843.09 458.725 3852.29 451.125C3861.89 443.125 3866.69 431.725 3866.69 416.925C3866.69 402.125 3861.69 390.525 3851.69 382.125C3842.09 373.725 3828.69 369.525 3811.49 369.525H3737.09V462.525H3812.69Z" fill="white"/>
<path d="M4345.6 372.525C4345.6 382.125 4345 392.125 4343.8 402.525H4111.6C4113.2 423.325 4119.8 439.325 4131.4 450.525C4143.4 461.325 4158 466.725 4175.2 466.725C4200.8 466.725 4218.6 455.925 4228.6 434.325H4337.8C4332.2 456.325 4322 476.125 4307.2 493.725C4292.8 511.325 4274.6 525.125 4252.6 535.125C4230.6 545.125 4206 550.125 4178.8 550.125C4146 550.125 4116.8 543.125 4091.2 529.125C4065.6 515.125 4045.6 495.125 4031.2 469.125C4016.8 443.125 4009.6 412.725 4009.6 377.925C4009.6 343.125 4016.6 312.725 4030.6 286.725C4045 260.725 4065 240.725 4090.6 226.725C4116.2 212.725 4145.6 205.725 4178.8 205.725C4211.2 205.725 4240 212.525 4265.2 226.125C4290.4 239.725 4310 259.125 4324 284.325C4338.4 309.525 4345.6 338.925 4345.6 372.525ZM4240.6 345.525C4240.6 327.925 4234.6 313.925 4222.6 303.525C4210.6 293.125 4195.6 287.925 4177.6 287.925C4160.4 287.925 4145.8 292.925 4133.8 302.925C4122.2 312.925 4115 327.125 4112.2 345.525H4240.6Z" fill="white"/>
<path d="M4586.33 458.325V545.325H4534.13C4496.93 545.325 4467.93 536.325 4447.13 518.325C4426.33 499.925 4415.93 470.125 4415.93 428.925V295.725H4375.13V210.525H4415.93V128.925H4518.53V210.525H4585.73V295.725H4518.53V430.125C4518.53 440.125 4520.93 447.325 4525.73 451.725C4530.53 456.125 4538.53 458.325 4549.73 458.325H4586.33Z" fill="white"/>
<path d="M4830.08 458.325V545.325H4777.88C4740.68 545.325 4711.68 536.325 4690.88 518.325C4670.08 499.925 4659.68 470.125 4659.68 428.925V295.725H4618.88V210.525H4659.68V128.925H4762.28V210.525H4829.48V295.725H4762.28V430.125C4762.28 440.125 4764.68 447.325 4769.48 451.725C4774.28 456.125 4782.28 458.325 4793.48 458.325H4830.08Z" fill="white"/>
<path d="M5202.83 372.525C5202.83 382.125 5202.23 392.125 5201.03 402.525H4968.83C4970.43 423.325 4977.03 439.325 4988.63 450.525C5000.63 461.325 5015.23 466.725 5032.43 466.725C5058.03 466.725 5075.83 455.925 5085.83 434.325H5195.03C5189.43 456.325 5179.23 476.125 5164.43 493.725C5150.03 511.325 5131.83 525.125 5109.83 535.125C5087.83 545.125 5063.23 550.125 5036.03 550.125C5003.23 550.125 4974.03 543.125 4948.43 529.125C4922.83 515.125 4902.83 495.125 4888.43 469.125C4874.03 443.125 4866.83 412.725 4866.83 377.925C4866.83 343.125 4873.83 312.725 4887.83 286.725C4902.23 260.725 4922.23 240.725 4947.83 226.725C4973.43 212.725 5002.83 205.725 5036.03 205.725C5068.43 205.725 5097.23 212.525 5122.43 226.125C5147.63 239.725 5167.23 259.125 5181.23 284.325C5195.63 309.525 5202.83 338.925 5202.83 372.525ZM5097.83 345.525C5097.83 327.925 5091.83 313.925 5079.83 303.525C5067.83 293.125 5052.83 287.925 5034.83 287.925C5017.63 287.925 5003.03 292.925 4991.03 302.925C4979.43 312.925 4972.23 327.125 4969.43 345.525H5097.83Z" fill="white"/>
<path d="M5359.55 266.325C5371.55 247.925 5386.55 233.525 5404.55 223.125C5422.55 212.325 5442.55 206.925 5464.55 206.925V315.525H5436.35C5410.75 315.525 5391.55 321.125 5378.75 332.325C5365.95 343.125 5359.55 362.325 5359.55 389.925V545.325H5256.95V210.525H5359.55V266.325Z" fill="white"/>
<path d="M5561.59 550.125C5543.59 550.125 5528.79 544.925 5517.19 534.525C5505.99 523.725 5500.39 510.525 5500.39 494.925C5500.39 478.925 5505.99 465.525 5517.19 454.725C5528.79 443.925 5543.59 438.525 5561.59 438.525C5579.19 438.525 5593.59 443.925 5604.79 454.725C5616.39 465.525 5622.19 478.925 5622.19 494.925C5622.19 510.525 5616.39 523.725 5604.79 534.525C5593.59 544.925 5579.19 550.125 5561.59 550.125Z" fill="white"/>
<path d="M6092.68 550.122C6103.25 550.122 6111.83 541.549 6111.83 530.973C6111.83 520.398 6103.25 511.824 6092.68 511.824C6082.1 511.824 6073.53 520.398 6073.53 530.973C6073.53 541.549 6082.1 550.122 6092.68 550.122Z" fill="#87FFA2"/>
<path d="M6092.68 541.615C6098.55 541.615 6103.32 536.85 6103.32 530.973C6103.32 525.096 6098.55 520.332 6092.68 520.332C6086.8 520.332 6082.04 525.096 6082.04 530.973C6082.04 536.85 6086.8 541.615 6092.68 541.615Z" fill="#1B1B1B"/>
<path d="M5856.48 550.122C5867.06 550.122 5875.63 541.549 5875.63 530.973C5875.63 520.398 5867.06 511.824 5856.48 511.824C5845.91 511.824 5837.34 520.398 5837.34 530.973C5837.34 541.549 5845.91 550.122 5856.48 550.122Z" fill="#87FFA2"/>
<path d="M5856.48 541.615C5862.36 541.615 5867.12 536.85 5867.12 530.973C5867.12 525.096 5862.36 520.332 5856.48 520.332C5850.61 520.332 5845.84 525.096 5845.84 530.973C5845.84 536.85 5850.61 541.615 5856.48 541.615Z" fill="#1B1B1B"/>
<path d="M5823.92 301.706C5834.7 301.706 5843.47 310.475 5843.47 321.254V365.293C5843.47 376.072 5834.7 384.841 5823.92 384.841H5820.13C5809.35 384.841 5800.58 376.072 5800.58 365.293V321.254C5800.58 310.475 5809.35 301.706 5820.13 301.706H5823.92ZM5823.92 289.316H5820.13C5802.5 289.316 5788.19 303.62 5788.19 321.254V365.293C5788.19 382.927 5802.5 397.23 5820.13 397.23H5823.92C5841.55 397.23 5855.85 382.927 5855.85 365.293V321.254C5855.85 303.62 5841.55 289.316 5823.92 289.316Z" fill="#1B1B1B"/>
<path fill-rule="evenodd" clip-rule="evenodd" d="M5916.71 218.688V128.684H5923.6V218.688H5916.71Z" fill="#87FFA2"/>
<path fill-rule="evenodd" clip-rule="evenodd" d="M6021.57 218.688V128.684H6028.46V218.688H6021.57Z" fill="#87FFA2"/>
<path fill-rule="evenodd" clip-rule="evenodd" d="M5931.05 163.05C5934.13 167.254 5937.88 169.21 5941.44 169.21H6002.78C6006.34 169.21 6010.09 167.254 6013.18 163.05C6016.26 158.85 6018.35 152.749 6018.35 145.738H6030.74C6030.74 155.109 6027.96 163.841 6023.17 170.379C6018.37 176.913 6011.24 181.599 6002.78 181.599H5941.44C5932.98 181.599 5925.85 176.913 5921.06 170.379C5916.26 163.841 5913.48 155.109 5913.48 145.738H5925.87C5925.87 152.749 5927.96 158.85 5931.05 163.05Z" fill="#1B1B1B"/>
<path fill-rule="evenodd" clip-rule="evenodd" d="M5931.06 112.956C5927.98 117.155 5925.88 123.256 5925.88 130.268H5913.49C5913.49 120.897 5916.27 112.165 5921.07 105.627C5925.86 99.0926 5933 94.4062 5941.45 94.4062H6002.8C6011.25 94.4062 6018.39 99.0926 6023.18 105.627C6027.98 112.165 6030.76 120.897 6030.76 130.268H6018.37C6018.37 123.256 6016.27 117.155 6013.19 112.956C6010.11 108.752 6006.36 106.796 6002.8 106.796H5941.45C5937.89 106.796 5934.14 108.752 5931.06 112.956Z" fill="#00B054"/>
<path d="M5860.66 155.594H6083.41C6110.74 155.594 6132.9 177.744 6132.9 205.084V481.456C6132.9 508.782 6110.75 530.946 6083.41 530.946H5860.66C5833.33 530.946 5811.17 508.796 5811.17 481.456V205.084C5811.17 177.758 5833.32 155.594 5860.66 155.594Z" fill="#00B054"/>
<circle cx="6000.19" cy="475.039" r="22.0261" stroke="#1B1B1B" stroke-width="2.75326"/>
<path d="M5908.51 220.447C5910.23 225.435 5908.61 231.267 5904.15 236.753C5899.71 242.22 5892.59 247.157 5883.81 250.18C5875.03 253.203 5866.37 253.698 5859.51 252.122C5852.62 250.54 5847.75 246.944 5846.04 241.957C5844.32 236.969 5845.94 231.137 5850.4 225.651C5854.84 220.184 5861.96 215.247 5870.74 212.224C5879.52 209.201 5888.18 208.706 5895.04 210.282C5901.93 211.864 5906.8 215.46 5908.51 220.447Z" stroke="#1B1B1B" stroke-width="2.75326"/>
<rect x="5931.6" y="187.747" width="79.8446" height="24.7793" transform="rotate(22.4329 5931.6 187.747)" stroke="#1B1B1B" stroke-width="2.75326"/>
<rect x="6032.11" y="427.742" width="47.037" height="46.1857" rx="6.88315" transform="rotate(-12.055 6032.11 427.742)" stroke="#1B1B1B" stroke-width="2.75326"/>
<path fill-rule="evenodd" clip-rule="evenodd" d="M6467.76 245.94C6469.14 240.94 6473.68 237.516 6478.83 237.516H6537.17C6542.32 237.516 6546.87 240.941 6548.25 245.94C6548.25 245.943 6548.25 245.945 6548.25 245.948L6562.12 295.871H6453.89L6467.75 245.948C6467.75 245.945 6467.75 245.943 6467.76 245.94ZM6479.51 249.905L6470.19 283.481H6545.82L6536.5 249.905H6479.51Z" fill="#00B054"/>
<path d="M6476.41 273.723H6447.05V281.377H6476.41V273.723Z" fill="#1B1B1B"/>
<path d="M6415.12 273.723H6385.76V281.377H6415.12V273.723Z" fill="#87FFA2"/>
<path d="M6568.33 273.723H6538.97V281.377H6568.33V273.723Z" fill="#1B1B1B"/>
<path d="M6629.6 273.723H6600.24V281.377H6629.6V273.723Z" fill="#87FFA2"/>
<path d="M6675.03 550.123H6340.98C6330.98 550.123 6322.88 542.015 6322.88 532.021V298.833C6322.88 288.839 6330.98 280.73 6340.98 280.73H6675.03C6685.03 280.73 6693.13 288.839 6693.13 298.833V532.021C6693.12 542.029 6685.03 550.123 6675.03 550.123Z" fill="#00B054"/>
<path d="M6664.95 297.272C6672.81 297.272 6679.2 303.369 6679.2 310.871V520.003C6679.2 527.505 6672.81 533.602 6664.95 533.602H6351.05C6343.19 533.602 6336.8 527.505 6336.8 520.003V310.871C6336.8 303.369 6343.19 297.272 6351.05 297.272H6664.95ZM6664.95 294.645H6351.05C6341.66 294.645 6334.05 301.91 6334.05 310.871V520.003C6334.05 528.964 6341.66 536.23 6351.05 536.23H6664.95C6674.34 536.23 6681.95 528.964 6681.95 520.003V310.871C6681.95 301.91 6674.34 294.645 6664.95 294.645Z" fill="#87FFA2"/>
<path fill-rule="evenodd" clip-rule="evenodd" d="M6997.91 243.995C6986.31 243.995 6975.61 251.834 6971.04 264.22L6965.88 262.315C6971.14 248.052 6983.71 238.488 6997.91 238.488H7014.72C7028.93 238.488 7041.5 248.052 7046.76 262.315L7041.59 264.22C7037.02 251.834 7026.33 243.995 7014.72 243.995H6997.91Z" fill="#87FFA2"/>
<path d="M6941.57 288.783L6924.06 293.863C6918.95 295.35 6913.66 292.142 6912.27 286.718L6905.18 259.199C6903.78 253.775 6906.8 248.172 6911.92 246.686L6929.43 241.606C6934.53 240.119 6939.82 243.327 6941.21 248.751L6948.3 276.269C6949.69 281.693 6946.68 287.296 6941.57 288.783Z" fill="#87FFA2"/>
<path d="M7071.8 288.783L7089.31 293.863C7094.42 295.35 7099.7 292.142 7101.09 286.718L7108.18 259.199C7109.59 253.775 7106.57 248.172 7101.45 246.686L7083.94 241.606C7078.83 240.119 7073.55 243.327 7072.16 248.751L7065.07 276.269C7063.68 281.693 7066.69 287.296 7071.8 288.783Z" fill="#87FFA2"/>
<path d="M7127.59 467.113C7127.59 467.126 7127.59 467.126 7127.59 467.14C7127.56 478.759 7110.43 488.175 7089.27 488.175H6924.36C6903.2 488.175 6886.06 478.759 6886.04 467.14C6886.04 467.126 6886.04 467.126 6886.04 467.113L6907.43 306.749C6911.25 278.019 6937 256.488 6967.5 256.488H7046.12C7076.63 256.488 7102.37 278.019 7106.2 306.749L7127.59 467.113Z" fill="#00B054"/>
<path d="M7069.94 550.124H6943.69C6907.22 550.124 6879.01 519.755 6883.6 485.422L6886.04 467.141C6886.06 478.759 6903.2 488.176 6924.36 488.176H7089.27C7110.43 488.176 7127.57 478.759 7127.59 467.141L7130.03 485.422C7134.63 519.755 7106.42 550.124 7069.94 550.124Z" fill="#87FFA2"/>
<path d="M7066.96 352.75H6947.04C6932.29 352.75 6919.55 344.974 6916.55 334.134L6910.64 312.828H7103.37L7097.46 334.134C7094.45 344.974 7081.71 352.75 7066.96 352.75Z" fill="#87FFA2"/>
<path d="M7029.62 297.372H6984.02C6977.28 297.372 6971.81 291.906 6971.81 285.161V283.578C6971.81 276.832 6977.28 271.367 6984.02 271.367H7029.62C7036.36 271.367 7041.83 276.832 7041.83 283.578V285.161C7041.83 291.906 7036.36 297.372 7029.62 297.372Z" fill="#87FFA2"/>
<path d="M6936.5 340.735C6940.82 340.735 6944.32 337.407 6944.32 333.301C6944.32 329.195 6940.82 325.867 6936.5 325.867C6932.18 325.867 6928.68 329.195 6928.68 333.301C6928.68 337.407 6932.18 340.735 6936.5 340.735Z" fill="#00B054"/>
<path d="M7077.14 340.735C7081.46 340.735 7084.96 337.407 7084.96 333.301C7084.96 329.195 7081.46 325.867 7077.14 325.867C7072.82 325.867 7069.32 329.195 7069.32 333.301C7069.32 337.407 7072.82 340.735 7077.14 340.735Z" fill="#00B054"/>
<path fill-rule="evenodd" clip-rule="evenodd" d="M6998.44 246.062C6992.96 246.062 6987.82 248.863 6983.51 250.854C6981.1 251.971 6978.24 250.919 6977.12 248.504C6976 246.089 6977.05 243.225 6979.47 242.108C6985.1 239.501 6991.63 236.426 6998.44 236.426H7015.2C7021.99 236.426 7028.52 239.501 7034.15 242.09C7036.57 243.201 7037.63 246.062 7036.52 248.48C7035.4 250.898 7032.54 251.956 7030.12 250.845C7025.81 248.863 7020.67 246.062 7015.2 246.062H6998.44Z" fill="#1B1B1B"/>
<path fill-rule="evenodd" clip-rule="evenodd" d="M7480.56 176.02C7483.07 174.937 7485.96 174.395 7488.86 174.395H7595.08C7597.99 174.395 7600.87 174.937 7603.38 176.02C7605.76 177.051 7608.47 178.879 7609.94 181.893C7609.94 181.893 7609.94 181.893 7609.94 181.893C7609.94 181.896 7609.94 181.9 7609.95 181.903L7635.57 234.429H7448.37L7474 181.903C7474 181.901 7474 181.899 7474 181.897C7475.47 178.88 7478.18 177.051 7480.56 176.02ZM7484.98 187.653C7485.07 187.592 7485.23 187.5 7485.48 187.393C7486.25 187.061 7487.43 186.784 7488.86 186.784H7595.08C7596.51 186.784 7597.7 187.061 7598.46 187.393C7598.71 187.5 7598.87 187.592 7598.97 187.653L7615.74 222.04H7468.2L7484.98 187.653ZM7485.14 187.315C7485.14 187.318 7485.14 187.322 7485.14 187.325L7485.14 187.315Z" fill="#1B1B1B"/>
<path d="M7481.92 219.631H7449.83V213.009C7449.83 208.632 7453.39 205.094 7457.75 205.094H7473.99C7478.37 205.094 7481.91 208.645 7481.91 213.009V219.631H7481.92Z" fill="#87FFA2"/>
<path d="M7632.21 219.631H7601.62V212.83C7601.62 208.563 7605.09 205.094 7609.36 205.094H7624.48C7628.75 205.094 7632.22 208.563 7632.22 212.83V219.631H7632.21Z" fill="#87FFA2"/>
<path d="M7573.71 210.355H7509.96C7506.37 210.355 7503.45 213.274 7503.45 216.867V218.519H7580.22V216.867C7580.22 213.274 7577.32 210.355 7573.71 210.355Z" fill="#87FFA2"/>
<path d="M7736.44 543.593H7347.24C7332.47 543.593 7320.5 531.616 7320.5 516.845V245.264C7320.5 230.492 7332.47 218.516 7347.24 218.516H7736.44C7751.22 218.516 7763.19 230.492 7763.19 245.264V516.859C7763.19 531.616 7751.22 543.593 7736.44 543.593Z" fill="#00B054"/>
<path d="M7389.11 218.516C7389.11 256.4 7358.39 287.127 7320.5 287.127" stroke="#1B1B1B" stroke-width="2.75326" stroke-miterlimit="10"/>
<path d="M7694.58 218.516C7694.58 256.4 7725.29 287.127 7763.19 287.127" stroke="#1B1B1B" stroke-width="2.75326" stroke-miterlimit="10"/>
<path d="M7389.11 543.596C7389.11 505.711 7358.39 474.984 7320.5 474.984" stroke="#1B1B1B" stroke-width="2.75326" stroke-miterlimit="10"/>
<path d="M7694.58 543.596C7694.58 505.711 7725.29 474.984 7763.19 474.984" stroke="#1B1B1B" stroke-width="2.75326" stroke-miterlimit="10"/>
<path d="M7394.01 550.123H7384.21L7380.95 543.598H7397.27L7394.01 550.123Z" fill="#1B1B1B"/>
<path d="M7699.48 550.123H7689.68L7686.41 543.598H7702.75L7699.48 550.123Z" fill="#1B1B1B"/>
<path d="M8086.99 124.124C8131.39 124.124 8170.19 132.924 8203.39 150.524C8236.59 168.124 8262.19 192.924 8280.19 224.924C8298.59 256.524 8307.79 293.124 8307.79 334.724C8307.79 375.924 8298.59 412.524 8280.19 444.524C8262.19 476.524 8236.39 501.324 8202.79 518.924C8169.59 536.524 8130.99 545.324 8086.99 545.324H7929.19V124.124H8086.99ZM8080.39 456.524C8119.19 456.524 8149.39 445.924 8170.99 424.724C8192.59 403.524 8203.39 373.524 8203.39 334.724C8203.39 295.924 8192.59 265.724 8170.99 244.124C8149.39 222.524 8119.19 211.724 8080.39 211.724H8031.79V456.524H8080.39Z" fill="white"/>
<path d="M8467.73 124.124V545.324H8365.13V124.124H8467.73Z" fill="white"/>
<path d="M8797.08 329.324C8821.48 334.524 8841.08 346.724 8855.88 365.924C8870.68 384.724 8878.08 406.324 8878.08 430.724C8878.08 465.924 8865.68 493.924 8840.88 514.724C8816.48 535.124 8782.28 545.324 8738.28 545.324H8542.08V124.124H8731.68C8774.48 124.124 8807.88 133.924 8831.88 153.524C8856.28 173.124 8868.48 199.724 8868.48 233.324C8868.48 258.124 8861.88 278.724 8848.68 295.124C8835.88 311.524 8818.68 322.924 8797.08 329.324ZM8644.68 294.524H8711.88C8728.68 294.524 8741.48 290.924 8750.28 283.724C8759.48 276.124 8764.08 265.124 8764.08 250.724C8764.08 236.324 8759.48 225.324 8750.28 217.724C8741.48 210.124 8728.68 206.324 8711.88 206.324H8644.68V294.524ZM8720.28 462.524C8737.48 462.524 8750.68 458.724 8759.88 451.124C8769.48 443.124 8774.28 431.724 8774.28 416.924C8774.28 402.124 8769.28 390.524 8759.28 382.124C8749.68 373.724 8736.28 369.524 8719.08 369.524H8644.68V462.524H8720.28Z" fill="white"/>
<path d="M9367.74 124.124V206.324H9256.14V545.324H9153.54V206.324H9041.94V124.124H9367.74Z" fill="white"/>
<path d="M9521.83 266.324C9533.83 247.924 9548.83 233.524 9566.83 223.124C9584.83 212.324 9604.83 206.924 9626.83 206.924V315.524H9598.63C9573.03 315.524 9553.83 321.124 9541.03 332.324C9528.23 343.124 9521.83 362.324 9521.83 389.924V545.324H9419.23V210.524H9521.83V266.324Z" fill="white"/>
<path d="M9655.47 377.324C9655.47 342.924 9661.87 312.724 9674.67 286.724C9687.87 260.724 9705.67 240.724 9728.07 226.724C9750.47 212.724 9775.47 205.724 9803.07 205.724C9826.67 205.724 9847.27 210.524 9864.87 220.124C9882.87 229.724 9896.67 242.324 9906.27 257.924V210.524H10008.9V545.324H9906.27V497.924C9896.27 513.524 9882.27 526.124 9864.27 535.724C9846.67 545.324 9826.07 550.124 9802.47 550.124C9775.27 550.124 9750.47 543.124 9728.07 529.124C9705.67 514.724 9687.87 494.524 9674.67 468.524C9661.87 442.124 9655.47 411.724 9655.47 377.324ZM9906.27 377.924C9906.27 352.324 9899.07 332.124 9884.67 317.324C9870.67 302.524 9853.47 295.124 9833.07 295.124C9812.67 295.124 9795.27 302.524 9780.87 317.324C9766.87 331.724 9759.87 351.724 9759.87 377.324C9759.87 402.924 9766.87 423.324 9780.87 438.524C9795.27 453.324 9812.67 460.724 9833.07 460.724C9853.47 460.724 9870.67 453.324 9884.67 438.524C9899.07 423.724 9906.27 403.524 9906.27 377.924Z" fill="white"/>
<path d="M10233.7 449.324L10306.3 210.524H10415.5L10296.7 545.324H10170.1L10051.3 210.524H10161.1L10233.7 449.324Z" fill="white"/>
<path d="M10774.3 372.524C10774.3 382.124 10773.7 392.124 10772.5 402.524H10540.3C10541.9 423.324 10548.5 439.324 10560.1 450.524C10572.1 461.324 10586.7 466.724 10603.9 466.724C10629.5 466.724 10647.3 455.924 10657.3 434.324H10766.5C10760.9 456.324 10750.7 476.124 10735.9 493.724C10721.5 511.324 10703.3 525.124 10681.3 535.124C10659.3 545.124 10634.7 550.124 10607.5 550.124C10574.7 550.124 10545.5 543.124 10519.9 529.124C10494.3 515.124 10474.3 495.124 10459.9 469.124C10445.5 443.124 10438.3 412.724 10438.3 377.924C10438.3 343.124 10445.3 312.724 10459.3 286.724C10473.7 260.724 10493.7 240.724 10519.3 226.724C10544.9 212.724 10574.3 205.724 10607.5 205.724C10639.9 205.724 10668.7 212.524 10693.9 226.124C10719.1 239.724 10738.7 259.124 10752.7 284.324C10767.1 309.524 10774.3 338.924 10774.3 372.524ZM10669.3 345.524C10669.3 327.924 10663.3 313.924 10651.3 303.524C10639.3 293.124 10624.3 287.924 10606.3 287.924C10589.1 287.924 10574.5 292.924 10562.5 302.924C10550.9 312.924 10543.7 327.124 10540.9 345.524H10669.3Z" fill="white"/>
<path d="M10931 101.324V545.324H10828.4V101.324H10931Z" fill="white"/>
</svg>
