<svg width="700" height="418" viewBox="0 0 700 418" fill="none" xmlns="http://www.w3.org/2000/svg">
    <path fill="#BEA063" d="M0 0h700v418H0z"/>
    <path d="M124.816 221.858a45.654 45.654 0 0 1-2.563 17.213c-1.76 4.24-4.91 6.556-8.901 9.108l-.352.216 2.876 5.24.352-.157a32.564 32.564 0 0 0 15.748-13.739c3.111-5.712 4.676-13.602 4.676-23.553v-49.384h-11.836v55.056zm103.117-51.444a46.167 46.167 0 0 0-22.909-5.398 42.639 42.639 0 0 0-21.484 5.771 42.808 42.808 0 0 0-15.685 15.82 44.961 44.961 0 0 0-5.869 23.2 48.506 48.506 0 0 0 5.106 22.925 35.122 35.122 0 0 0 14.457 15.349 44.87 44.87 0 0 0 22.986 5.554 41.97 41.97 0 0 0 21.558-5.73 42.147 42.147 0 0 0 15.612-15.978 44.971 44.971 0 0 0 5.869-23.2 51.362 51.362 0 0 0-4.969-23.063 37.237 37.237 0 0 0-14.672-15.25zm3.364 57.568a33.602 33.602 0 0 1-10.642 14.328 25.764 25.764 0 0 1-16.394 5.437 24.89 24.89 0 0 1-16.511-5.378 30.64 30.64 0 0 1-10.114-14.112 54.134 54.134 0 0 1-3.247-19 48.166 48.166 0 0 1 3.638-18.725 34.135 34.135 0 0 1 10.643-14.21 25.757 25.757 0 0 1 16.354-5.378 26.152 26.152 0 0 1 16.648 5.24 31.933 31.933 0 0 1 9.958 14.054 54.14 54.14 0 0 1 3.247 19.019 48.308 48.308 0 0 1-3.58 18.725zm90.127-60.846a518.782 518.782 0 0 1-21.402 69.305l-26.723-69.639h-12.931l33.257 84.89h6.025v-.255c10.056-22.336 20.894-50.64 32.221-84.066l.195-.569h-10.759l.117.334zm77.274 77.412c-7.063.647-14.986.961-24.239.961h-13.087V211.73h5.712c8.627 0 16.746.236 24.121.687h.45v-7.184h-.45c-6.573.393-14.222.55-24.121.55h-5.712v-32.798h11.737c8.452 0 16.825.373 24.924 1.099h.469v-7.282H349.79v84.87h49.279v-7.183l-.371.059zM560.117 199.245a8.48 8.48 0 0 0 4.726-1.44 8.541 8.541 0 0 0 3.132-3.836 8.585 8.585 0 0 0-1.844-9.315 8.468 8.468 0 0 0-9.269-1.852 8.509 8.509 0 0 0-3.817 3.148 8.58 8.58 0 0 0 1.058 10.792 8.484 8.484 0 0 0 6.014 2.503zm-85.972 0a8.477 8.477 0 0 0 4.725-1.44 8.537 8.537 0 0 0 3.133-3.836 8.575 8.575 0 0 0-1.844-9.315 8.498 8.498 0 0 0-4.355-2.339 8.464 8.464 0 0 0-4.914.487 8.503 8.503 0 0 0-3.817 3.148 8.572 8.572 0 0 0 1.058 10.792 8.483 8.483 0 0 0 6.014 2.503zm105.743 24.529c0-3.114 3.116-6.34 3.116-10.491a5.143 5.143 0 0 0-2.933-5.186 5.079 5.079 0 0 0-2.042-.474c-6.815 0-8.205 7-11.472 7-3.267 0-3.379-5.321-8.355-5.321-3.623 0-4.562 3.962-4.562 6.132 0 4.566 4.262 12.434-1.221 12.434-3.605 0-4.694-3.132-8.355-3.132-5.482 0-4.412 7.302-4.412 10.264a7.962 7.962 0 0 1-2.301 6.282 7.877 7.877 0 0 1-6.261 2.284 7.768 7.768 0 0 1-5.872-2.265 7.823 7.823 0 0 1-1.765-2.7 7.874 7.874 0 0 1-.53-3.186c0-8.415 12.242-7.151 12.242-14.585 0-4.019-6.403-3.905-6.403-7.755 0-6.075 14.27-4 14.27-11.754 0-7.755-11.04-5.132-11.04-10.472 0-3.585 6.928-4.321 6.928-10.189a5.362 5.362 0 0 0-3.285-5.254 5.31 5.31 0 0 0-2.141-.406c-3.079 0-4.412 1.604-6.722 1.604-5.313 0-1.877-11.604-9.65-11.604-7.773 0-4.319 11.604-9.651 11.604-2.309 0-3.642-1.604-6.722-1.604a5.305 5.305 0 0 0-5.09 3.496 5.37 5.37 0 0 0-.317 2.164c0 5.868 6.928 6.604 6.928 10.189 0 5.34-11.058 2.566-11.058 10.472 0 7.905 14.269 5.66 14.269 11.754 0 3.774-6.403 3.774-6.403 7.755 0 7.434 12.242 6.17 12.242 14.585a7.819 7.819 0 0 1-2.282 5.885 7.76 7.76 0 0 1-5.867 2.266 7.89 7.89 0 0 1-6.273-2.277 7.928 7.928 0 0 1-1.846-2.888 7.983 7.983 0 0 1-.461-3.401c0-2.962 1.07-10.264-4.412-10.264-3.643 0-4.732 3.132-8.336 3.132-5.502 0-1.24-7.868-1.24-12.434 0-2.17-.92-6.132-4.562-6.132-4.975 0-4.975 5.321-8.355 5.321-3.38 0-4.656-7-11.472-7a5.082 5.082 0 0 0-3.723 1.733 5.142 5.142 0 0 0-1.252 3.927c0 4.151 3.116 7.377 3.116 10.491 0 4.037-8.054 2.396-8.054 9.151 0 3.773 4.074 5.415 8.956 5.415 3.755 0 9.387-.529 9.387 2.754s-4.28 4.359-4.28 8.321c0 3.472 3.21 4.585 6.477 4.585a33.553 33.553 0 0 0 16.654-5.132c-8.9-6.887-20.09-19.377-21.93-28.604 2.929 4.528 25.516 33.642 55.557 33.642 30.04 0 52.571-29.114 55.631-33.736-1.877 9.226-13.03 21.717-21.93 28.604a33.689 33.689 0 0 0 16.617 5.132c3.267 0 6.496-1.114 6.496-4.585 0-3.963-4.3-5.038-4.3-8.321 0-3.283 5.633-2.755 9.388-2.755 4.9 0 8.975-1.717 8.975-5.415-.038-6.755-8.111-5.113-8.111-9.151v.095zm-63.386 7.547.526-24.057-4.394 1.189c0-19.302 4.957-29.868 4.957-29.868l-.526 23.943 4.544-1.113c0 19.34-5.107 29.906-5.107 29.906z" fill="#1A1A1A"/>
</svg>
