<svg width="601" height="418" viewBox="0 0 601 418" fill="none" xmlns="http://www.w3.org/2000/svg">
    <path stroke="#B5B5B5" d="M.5.5h600v417H.5z"/>
    <g clip-path="url(#yabezcad9a)">
        <path d="M244.57 330.189h-2.061v13.506h7.289v-1.908h-5.228v-11.598zm8.796 13.506h2.06v-13.506h-2.06v13.506zm12.458-13.734a6.98 6.98 0 1 0 2.332 13.439 6.986 6.986 0 0 0 4.346-6.515 6.578 6.578 0 0 0-6.678-6.924zm0 12.112a4.658 4.658 0 0 1-4.396-3.261 4.655 4.655 0 0 1-.183-1.927 4.574 4.574 0 0 1 1.178-3.504 4.584 4.584 0 0 1 6.765 0 4.585 4.585 0 0 1 1.177 3.504 4.611 4.611 0 0 1-2.66 4.75c-.59.27-1.231.413-1.881.419v.019zm-81.927-11.884h-1.908v13.506h7.307v-1.908h-5.399v-11.598zm-8.643 13.506h2.137v-13.506h-2.061l-.076 13.506zm57.925-5.723h3.091v3.472a5.726 5.726 0 0 1-2.404.515 4.586 4.586 0 0 1-3.661-1.429 4.587 4.587 0 0 1-1.204-3.741 4.634 4.634 0 0 1 4.903-5.093 5.963 5.963 0 0 1 3.492 1.03h.095l.287-.152v-1.908h-.096a7.633 7.633 0 0 0-3.816-.839 6.753 6.753 0 0 0-7.04 6.924 6.625 6.625 0 0 0 7.117 7.211 7.642 7.642 0 0 0 4.369-1.335v-6.295h-5.152l.019 1.64zm-16.828 5.723h7.422v-1.908h-5.285v-4.235h4.598v-1.907h-4.598v-3.815h5.285v-1.908h-7.345l-.077 13.773zm-10.818-3.548-4.274-9.919h-2.098v13.505h1.908v-9.538l4.044 9.538v.133h.744l4.026-9.537v9.309h2.061v-13.506h-2.175l-4.236 10.015zm187.819 3.586h2.061v-13.505h-2.061v13.505zm-20.568-5.112a3.059 3.059 0 0 1-.802 2.482 3.065 3.065 0 0 1-2.422.97c-1.908 0-3.148-1.259-3.148-3.452v-8.432h-2.061v8.508a4.813 4.813 0 0 0 1.398 3.81 4.813 4.813 0 0 0 1.751 1.119 4.845 4.845 0 0 0 2.06.279 4.92 4.92 0 0 0 4.968-3.147c.252-.657.36-1.359.317-2.061v-8.508h-2.061v8.432zm16.409 2.079a5.266 5.266 0 0 1-3.683 1.354 4.785 4.785 0 0 1-4.787-3.154 4.78 4.78 0 0 1-.269-2.015 4.692 4.692 0 0 1 4.942-5.093 5.72 5.72 0 0 1 3.377 1.011h.095l.287-.153v-1.907a7.416 7.416 0 0 0-3.664-.802 6.776 6.776 0 0 0-6.581 4.213 6.772 6.772 0 0 0-.497 2.712 6.864 6.864 0 0 0 7.193 7.019 6.22 6.22 0 0 0 4.006-1.163v-1.908l-.305-.152-.114.038zm31.157-10.606v-.114h-.554l-5.724 13.352v.363h1.908l1.431-3.472h5.056l1.431 3.472h2.042v-.286l-5.59-13.315zm-2.118 8.298 1.755-4.254 1.755 4.254h-3.51zm-57.811 2.308a5.23 5.23 0 0 1-3.683 1.354 4.785 4.785 0 0 1-4.787-3.154 4.796 4.796 0 0 1-.269-2.015 4.692 4.692 0 0 1 4.942-5.093 5.72 5.72 0 0 1 3.377 1.011l.286-.153v-1.907a7.343 7.343 0 0 0-3.663-.802 6.776 6.776 0 0 0-7.079 6.925 6.865 6.865 0 0 0 2.069 5.074 6.867 6.867 0 0 0 5.124 1.945 6.224 6.224 0 0 0 4.007-1.163v-1.908l-.305-.152-.019.038zm48.538-1.164-8.109-9.537h-.858v13.772h1.908v-9.385l8.128 9.633h.915v-13.811h-1.908l-.076 9.328zm-98.279-9.347h-2.06v13.506h7.288v-1.908h-5.228v-11.598zm-24.803 0h-3.396v13.506h3.396c4.999 0 7.746-2.366 7.746-6.658s-2.881-6.848-7.746-6.848zm-.134 11.655h-1.202v-9.823h1.202c3.816 0 5.724 1.64 5.724 5.016 0 3.377-1.698 4.807-5.724 4.807zm11.448 1.908h7.346v-1.908h-5.209v-4.234h4.598v-1.908h-4.598v-3.815h5.285v-1.907h-7.345l-.077 13.772zm38.007-13.715h-.554l-5.724 13.353v.362h1.908l1.431-3.472h5.228l1.431 3.472h2.061v-.286l-5.724-13.353-.057-.076zm-2.08 8.412 1.755-4.254 1.775 4.254h-3.53zm-11.696-8.202h-2.06v13.505h7.288v-1.908h-5.151l-.077-11.597zM172.446 265.391a44.22 44.22 0 0 1-2.5 16.729c-1.717 4.12-4.788 6.371-8.681 8.851l-.343.209 2.805 5.094.343-.153a31.727 31.727 0 0 0 15.359-13.353c3.034-5.551 4.56-13.219 4.56-22.89v-47.994h-11.543v53.507zm100.568-49.997a45.155 45.155 0 0 0-22.342-5.245 41.694 41.694 0 0 0-36.251 20.982 43.581 43.581 0 0 0-5.724 22.547 47.005 47.005 0 0 0 4.98 22.28 34.178 34.178 0 0 0 14.1 14.917 43.888 43.888 0 0 0 22.418 5.399 41.047 41.047 0 0 0 36.251-21.098 43.577 43.577 0 0 0 5.724-22.547 49.76 49.76 0 0 0-4.846-22.413 36.251 36.251 0 0 0-14.31-14.822zm3.282 55.948a32.68 32.68 0 0 1-10.379 13.925 25.193 25.193 0 0 1-15.989 5.284 24.325 24.325 0 0 1-16.103-5.227 29.761 29.761 0 0 1-9.864-13.715 52.436 52.436 0 0 1-3.168-18.465 46.675 46.675 0 0 1 3.549-18.198 33.193 33.193 0 0 1 10.38-13.81 25.187 25.187 0 0 1 15.95-5.227 25.58 25.58 0 0 1 16.237 5.093 31.045 31.045 0 0 1 9.711 13.658 52.426 52.426 0 0 1 3.167 18.484 46.833 46.833 0 0 1-3.491 18.198zm87.899-59.133a502.933 502.933 0 0 1-20.873 67.355l-26.062-67.68h-12.612l32.435 82.501h5.877v-.248c9.807-21.708 20.377-49.214 31.424-81.699l.19-.554h-10.493l.114.325zm75.364 75.233c-6.887.629-14.615.934-23.639.934h-12.764v-32.828h5.571c8.414 0 16.332.229 23.525.667h.439v-6.981h-.439c-6.411.381-13.871.534-23.525.534h-5.571v-31.875h11.447c8.243 0 16.409.363 24.308 1.068h.458v-7.077h-47.508v82.482h48.061v-6.982l-.363.058z" fill="#1A1A1A"/>
        <path d="M344.355 109.832a8.641 8.641 0 1 0-3.307-16.625 8.645 8.645 0 0 0-5.336 7.983 8.642 8.642 0 0 0 8.643 8.642zm-87.365 0a8.64 8.64 0 0 0 7.985-5.335 8.635 8.635 0 0 0-6.299-11.782 8.642 8.642 0 1 0-1.686 17.117zm107.456 24.797c0-3.147 3.167-6.409 3.167-10.605a5.19 5.19 0 0 0-1.272-3.971 5.19 5.19 0 0 0-3.784-1.752c-6.926 0-8.337 7.077-11.657 7.077-3.32 0-3.435-5.379-8.491-5.379-3.682 0-4.636 4.005-4.636 6.199 0 4.616 4.331 12.571-1.24 12.571-3.663 0-4.77-3.167-8.491-3.167-5.571 0-4.483 7.382-4.483 10.377a8.03 8.03 0 0 1-5.264 8.208 8.022 8.022 0 0 1-3.437.452 7.916 7.916 0 0 1-8.299-8.24c0-8.508 12.44-7.23 12.44-14.745 0-4.063-6.506-3.949-6.506-7.84 0-6.143 14.5-4.044 14.5-11.884 0-7.84-11.219-5.189-11.219-10.587 0-3.624 7.041-4.368 7.041-10.3a5.41 5.41 0 0 0-1.508-4.065 5.425 5.425 0 0 0-4.006-1.658c-3.129 0-4.484 1.621-6.831 1.621-5.399 0-1.908-11.731-9.807-11.731-7.899 0-4.388 11.731-9.807 11.731-2.346 0-3.701-1.621-6.83-1.621a5.402 5.402 0 0 0-5.173 3.534 5.4 5.4 0 0 0-.322 2.188c0 5.933 7.04 6.677 7.04 10.301 0 5.398-11.237 2.594-11.237 10.587 0 7.992 14.5 5.722 14.5 11.884 0 3.815-6.506 3.815-6.506 7.84 0 7.515 12.44 6.237 12.44 14.745a7.906 7.906 0 0 1-2.319 5.95 7.88 7.88 0 0 1-2.739 1.774 7.878 7.878 0 0 1-3.223.516 8.042 8.042 0 0 1-6.375-2.301 8.03 8.03 0 0 1-2.344-6.359c0-2.995 1.087-10.377-4.484-10.377-3.701 0-4.808 3.167-8.471 3.167-5.59 0-1.259-7.955-1.259-12.571 0-2.194-.935-6.199-4.637-6.199-5.056 0-5.056 5.379-8.49 5.379s-4.732-7.077-11.658-7.077a5.19 5.19 0 0 0-5.056 5.723c0 4.196 3.167 7.458 3.167 10.605 0 4.083-8.185 2.423-8.185 9.252 0 3.815 4.141 5.475 9.101 5.475 3.816 0 9.54-.535 9.54 2.785 0 3.319-4.35 4.406-4.35 8.412 0 3.51 3.262 4.635 6.582 4.635A34.213 34.213 0 0 0 266.492 160c-9.044-6.963-20.415-19.591-22.285-28.919 2.976 4.578 25.929 34.012 56.456 34.012 30.528 0 53.423-29.434 56.533-34.107-1.908 9.328-13.241 21.956-22.285 28.918a34.35 34.35 0 0 0 16.885 5.189c3.32 0 6.602-1.126 6.602-4.636 0-4.005-4.369-5.093-4.369-8.412 0-3.319 5.724-2.785 9.54-2.785 4.979 0 9.12-1.736 9.12-5.474-.039-6.829-8.243-5.17-8.243-9.252v.095zm-64.412 7.631.534-24.321-4.465 1.201c0-19.514 5.037-30.196 5.037-30.196l-.534 24.207 4.617-1.126c0 19.552-5.189 30.235-5.189 30.235z" fill="#BEA063"/>
    </g>
    <defs>
        <clipPath id="yabezcad9a">
            <path fill="#fff" transform="translate(161 75)" d="M0 0h279v269H0z"/>
        </clipPath>
    </defs>
</svg>
