<svg width="700" height="418" viewBox="0 0 700 418" fill="none" xmlns="http://www.w3.org/2000/svg">
    <path fill="#072722" d="M0 0h700v418H0z"/>
    <path d="M124.816 222.497a46.649 46.649 0 0 1-2.563 17.407c-1.76 4.287-4.91 6.629-8.901 9.209l-.352.219 2.876 5.299.352-.159c6.611-2.751 12.145-7.633 15.748-13.893 3.111-5.776 4.676-13.755 4.676-23.818v-49.938h-11.836v55.674zm103.117-52.022a45.746 45.746 0 0 0-22.909-5.459 42.274 42.274 0 0 0-21.484 5.837 43.054 43.054 0 0 0-15.685 15.996 45.873 45.873 0 0 0-5.869 23.461 49.51 49.51 0 0 0 5.106 23.183c3.138 6.554 8.184 11.972 14.457 15.521a44.472 44.472 0 0 0 22.986 5.617 41.617 41.617 0 0 0 21.558-5.794 42.402 42.402 0 0 0 15.612-16.158 45.878 45.878 0 0 0 5.869-23.461 52.425 52.425 0 0 0-4.969-23.321c-3.318-6.473-8.414-11.83-14.672-15.422zm3.364 58.214a33.96 33.96 0 0 1-10.642 14.49 25.579 25.579 0 0 1-16.394 5.498 24.71 24.71 0 0 1-16.511-5.439 30.972 30.972 0 0 1-10.114-14.271 55.287 55.287 0 0 1-3.247-19.213 49.182 49.182 0 0 1 3.638-18.935 34.49 34.49 0 0 1 10.643-14.37 25.581 25.581 0 0 1 16.354-5.439 25.96 25.96 0 0 1 16.648 5.3 32.284 32.284 0 0 1 9.958 14.211 55.305 55.305 0 0 1 3.247 19.233 49.328 49.328 0 0 1-3.58 18.935zm90.127-61.529a528.98 528.98 0 0 1-21.402 70.084l-26.723-70.421h-12.931l33.257 85.843h6.025v-.258c10.056-22.587 20.894-51.208 32.221-85.01l.195-.575h-10.759l.117.337zm77.274 78.281c-7.063.655-14.986.973-24.239.973h-13.087v-34.159h5.712c8.627 0 16.746.238 24.121.695h.45v-7.265h-.45c-6.573.397-14.222.556-24.121.556h-5.712v-33.166h11.737c8.452 0 16.825.377 24.924 1.111h.469v-7.363H349.79v85.823h49.279v-7.264l-.371.059zM560.117 199.63a8.41 8.41 0 0 0 4.726-1.457 8.613 8.613 0 0 0 3.132-3.879 8.77 8.77 0 0 0 .484-4.993 8.684 8.684 0 0 0-2.328-4.426 8.457 8.457 0 0 0-4.354-2.365 8.372 8.372 0 0 0-4.915.492 8.54 8.54 0 0 0-3.817 3.183 8.746 8.746 0 0 0-1.433 4.802c0 2.292.896 4.491 2.491 6.112a8.441 8.441 0 0 0 6.014 2.531zm-85.972 0a8.408 8.408 0 0 0 4.725-1.457 8.608 8.608 0 0 0 3.133-3.879 8.779 8.779 0 0 0 .484-4.993 8.699 8.699 0 0 0-2.328-4.426 8.46 8.46 0 0 0-4.355-2.365 8.368 8.368 0 0 0-4.914.492 8.534 8.534 0 0 0-3.817 3.183 8.738 8.738 0 0 0-1.434 4.802c0 2.292.897 4.491 2.492 6.112a8.44 8.44 0 0 0 6.014 2.531zm105.743 24.804c0-3.148 3.116-6.411 3.116-10.608a5.257 5.257 0 0 0-1.252-3.972 5.11 5.11 0 0 0-1.681-1.273 5.035 5.035 0 0 0-2.042-.479c-6.815 0-8.205 7.078-11.472 7.078-3.267 0-3.379-5.38-8.355-5.38-3.623 0-4.562 4.006-4.562 6.201 0 4.617 4.262 12.573-1.221 12.573-3.605 0-4.694-3.167-8.355-3.167-5.482 0-4.412 7.384-4.412 10.38a8.134 8.134 0 0 1-.46 3.434 8.038 8.038 0 0 1-1.841 2.918 7.888 7.888 0 0 1-2.879 1.858 7.79 7.79 0 0 1-3.382.452 7.69 7.69 0 0 1-3.174-.516 7.79 7.79 0 0 1-2.698-1.774 7.93 7.93 0 0 1-1.765-2.731 8.046 8.046 0 0 1-.53-3.222c0-8.509 12.242-7.231 12.242-14.749 0-4.064-6.403-3.949-6.403-7.841 0-6.144 14.27-4.045 14.27-11.887 0-7.842-11.04-5.19-11.04-10.59 0-3.625 6.928-4.369 6.928-10.303a5.513 5.513 0 0 0-.324-2.19 5.436 5.436 0 0 0-1.16-1.875 5.322 5.322 0 0 0-1.801-1.248 5.265 5.265 0 0 0-2.141-.411c-3.079 0-4.412 1.622-6.722 1.622-5.313 0-1.877-11.734-9.65-11.734-7.773 0-4.319 11.734-9.651 11.734-2.309 0-3.642-1.622-6.722-1.622a5.259 5.259 0 0 0-3.936 1.66 5.4 5.4 0 0 0-1.154 1.876 5.48 5.48 0 0 0-.317 2.188c0 5.934 6.928 6.678 6.928 10.303 0 5.4-11.058 2.595-11.058 10.59 0 7.994 14.269 5.724 14.269 11.887 0 3.816-6.403 3.816-6.403 7.841 0 7.518 12.242 6.24 12.242 14.749a8.038 8.038 0 0 1-.522 3.221 7.916 7.916 0 0 1-1.76 2.731 7.767 7.767 0 0 1-2.695 1.775 7.675 7.675 0 0 1-3.172.516 7.784 7.784 0 0 1-3.387-.446 7.888 7.888 0 0 1-2.886-1.856 8.04 8.04 0 0 1-1.846-2.921 8.16 8.16 0 0 1-.461-3.439c0-2.996 1.07-10.38-4.412-10.38-3.643 0-4.732 3.167-8.336 3.167-5.502 0-1.24-7.956-1.24-12.573 0-2.195-.92-6.201-4.562-6.201-4.975 0-4.975 5.38-8.355 5.38-3.38 0-4.656-7.078-11.472-7.078a5.039 5.039 0 0 0-2.042.479 5.11 5.11 0 0 0-1.681 1.273 5.214 5.214 0 0 0-1.036 1.853 5.275 5.275 0 0 0-.216 2.119c0 4.197 3.116 7.46 3.116 10.608 0 4.083-8.054 2.423-8.054 9.254 0 3.816 4.074 5.476 8.956 5.476 3.755 0 9.387-.535 9.387 2.785 0 3.32-4.28 4.408-4.28 8.415 0 3.51 3.21 4.636 6.477 4.636a33.28 33.28 0 0 0 16.654-5.19c-8.9-6.964-20.09-19.595-21.93-28.925 2.929 4.579 25.516 34.02 55.557 34.02 30.04 0 52.571-29.441 55.631-34.115-1.877 9.33-13.03 21.961-21.93 28.925a33.41 33.41 0 0 0 16.617 5.19c3.267 0 6.496-1.126 6.496-4.637 0-4.007-4.3-5.094-4.3-8.414 0-3.32 5.633-2.786 9.388-2.786 4.9 0 8.975-1.736 8.975-5.476-.038-6.83-8.111-5.17-8.111-9.253v.095zm-63.386 7.632.526-24.327-4.394 1.202c0-19.519 4.957-30.203 4.957-30.203l-.526 24.212 4.544-1.126c0 19.557-5.107 30.242-5.107 30.242z" fill="#BEA063"/>
</svg>
