<svg width="601" height="418" viewBox="0 0 601 418" fill="none" xmlns="http://www.w3.org/2000/svg">
    <path fill="#1A1A1A" d="M0 0h601v418H0z"/>
    <path d="m311.322 122.694 10.037-17.876-2.003 18.464 3.07.348 2.72-24.06-3.401-.386-10.129 17.839-5.956-19.638-3.456-.385-2.702 24.061 2.868.312 2.114-18.72 5.956 19.931.882.11zM256.099 106.874l2.904-1.101 7.685 20.188 9.026-3.432.956 2.478-11.931 4.496-8.64-22.629zM241.686 114.637l-2.592 1.67 13.144 20.336 2.611-1.689-13.163-20.317zM226.257 143.315a4.383 4.383 0 0 0-1.454-2.078 4.354 4.354 0 0 0-3.288-.922 4.346 4.346 0 0 0-2.944 1.73 4.378 4.378 0 0 0-.285 4.844 4.402 4.402 0 0 0 6.678 1.104 4.393 4.393 0 0 0 1.354-2.145 4.372 4.372 0 0 0-.061-2.533zM342.684 105.424l11.765 5.396-1.139 2.441-8.935-4.111-3.235 6.937 7.794 3.579-1.121 2.386-7.703-3.56-3.676 7.745 8.824 4.111-1.14 2.422-11.655-5.396 10.221-21.95zM357.393 141.74a11.864 11.864 0 0 0 3.196 3.841 13.692 13.692 0 0 0 7.538 3.45l7.353-8.204-6.581-5.854-1.839 1.982 4.302 3.817-4.651 5.194a10.78 10.78 0 0 1-4.32-2.367c-4.706-4.185-4.265-9.269-.404-13.6 3.86-4.331 9.118-4.955 13.53-1.028a11.253 11.253 0 0 1 3.676 5.892h.147l2.041-2.276a13.457 13.457 0 0 0-4.081-5.653 12.077 12.077 0 0 0-4.168-2.661 12.1 12.1 0 0 0-13.554 3.542 11.834 11.834 0 0 0-2.185 13.925zM393.422 145.966l1.618 2.643-18.384 11.306 5.074 8.203-2.261 1.395-6.636-10.846 20.589-12.701zM406.952 173.11l-1.03-2.899-22.887 8.112 1.03 2.918 22.887-8.131z" fill="#fff"/>
    <path fill-rule="evenodd" clip-rule="evenodd" d="M399.562 189.243a12.03 12.03 0 0 1 11.273 6.914 11.987 11.987 0 0 1-1.917 13.069 12.038 12.038 0 0 1-18.43-.572 11.997 11.997 0 0 1-2.526-6.417 12.02 12.02 0 0 1 3.018-8.972 12.062 12.062 0 0 1 8.582-4.022zm1.691 20.702c5.993-.477 9.449-4.313 9.026-9.507-.423-5.194-4.357-8.461-10.441-8.002-6.085.459-9.633 4.368-9.192 9.562.441 5.194 4.596 8.443 10.607 7.947zM404.286 252.304l2.445-5.377-22.078-10.003-2.445 5.378c-3.309 7.304-2.665 14.15 5.111 17.582 7.776 3.432 13.64-.239 16.967-7.58zm-18.42-11.47 17.189 7.8-1.067 2.349c-2.683 5.965-6.654 8.974-13.291 5.965-6.636-3.01-6.581-7.856-3.897-13.765l1.066-2.349z" fill="#fff"/>
    <path d="m389.102 278.311-8.475 9.653-2.022-1.835 6.434-7.341-5.772-5.047-5.515 6.387-2.004-1.836 5.515-6.387-6.453-5.634-6.434 7.341-2.022-1.835 8.475-9.672 18.273 16.206zM365.7 300.353l2.574-1.726-13.567-19.968-10.589 7.121 1.489 2.203 8.015-5.506 12.078 17.876zM343.916 312.447l-2.905 1.047-7.353-20.299-9.1 3.23-.901-2.478 12.115-4.239 8.144 22.739z" fill="#fff"/>
    <path fill-rule="evenodd" clip-rule="evenodd" d="m311.819 302.518-9.78.606-3.052-6.277-3.18.202v.239l11.93 23.62h.534l8.824-24.96v-.165l-3.089.202-2.187 6.533zm-.938 2.735-3.199 9.342-4.357-8.865 7.556-.477z" fill="#fff"/>
    <path d="M270.401 304.519a12.093 12.093 0 0 1-6.951 6.778 12.135 12.135 0 0 1-9.704-.501 12.873 12.873 0 0 1-5.515-3.965l1.25-2.826h.184a10.806 10.806 0 0 0 5.147 4.35c5.405 2.367 10.313.128 12.611-5.121a9.158 9.158 0 0 0 .511-7.59 9.196 9.196 0 0 0-2.117-3.269 9.197 9.197 0 0 0-3.284-2.098 10.068 10.068 0 0 0-7.482-.459v-.128l1.25-2.864a11.175 11.175 0 0 1 7.353.973 12.312 12.312 0 0 1 7.026 6.891 12.265 12.265 0 0 1-.279 9.829zM233.12 298.334l10.35-11.397a8.615 8.615 0 0 0 2.727-6.724 8.615 8.615 0 0 0-3.389-6.417 8.768 8.768 0 0 0-6.743-2.712 8.786 8.786 0 0 0-6.475 3.299l-10.276 11.416 2.298 2.074 10.203-11.288c2.959-3.303 6.471-3.358 9.191-.789 2.721 2.57 2.96 5.873 0 9.177l-10.184 11.305 2.298 2.056zM219.296 267.115a12.163 12.163 0 0 1-4.683 1.633 12.146 12.146 0 0 1-12.414-6.57 13.146 13.146 0 0 1-2.004-6.442l2.703-1.523h.128c-.225 2.29.305 4.59 1.508 6.552 2.904 5.139 8.18 6.277 13.162 3.45a9.17 9.17 0 0 0 4.947-5.771 9.157 9.157 0 0 0-1.105-7.516 10.104 10.104 0 0 0-5.698-4.864v-.147l2.72-1.541a11.016 11.016 0 0 1 5.368 5.304 12.286 12.286 0 0 1-4.632 17.435zM193.044 237.805l.828 2.973 23.346-6.515-.827-2.973-23.347 6.515zM214.001 201.888l-18.254 15.949 17.942-.312v2.992l-24.689.44v-.991l18.126-15.912-17.924.312v-2.992l24.836-.44-.037.954z" fill="#fff"/>
    <path fill-rule="evenodd" clip-rule="evenodd" d="m210.067 185.48 2.96-9.323 6.82-.569.956-3.047h-.165l-26.454 2.515-.165.514 20.221 17.325h.166l.937-2.955-5.276-4.46zm-2.224-1.853-7.574-6.369 9.872-.826-2.298 7.195z" fill="#fff"/>
    <path d="M337.366 192.949a7.2 7.2 0 0 0 6.651-4.441 7.185 7.185 0 0 0-1.56-7.839 7.206 7.206 0 0 0-11.078 1.09 7.187 7.187 0 0 0 .895 9.083 7.202 7.202 0 0 0 5.092 2.107zm-72.827 0a7.2 7.2 0 0 0 7.062-8.597 7.19 7.19 0 0 0-1.971-3.683 7.207 7.207 0 0 0-7.846-1.56 7.187 7.187 0 0 0 0 13.292c.873.362 1.81.548 2.755.548zm89.515 20.643c.048-2.699 2.671-5.43 2.671-8.908a4.32 4.32 0 0 0-4.212-4.764c-5.77 0-6.946 5.891-9.712 5.891-2.765 0-2.861-4.478-7.073-4.478-3.067 0-3.862 3.335-3.862 5.177 0 3.843 3.608 10.449-1.033 10.449-3.052 0-3.973-2.636-7.073-2.636-4.641 0-3.735 6.145-3.735 8.638a6.667 6.667 0 0 1-4.382 6.839 6.682 6.682 0 0 1-2.866.371 6.605 6.605 0 0 1-4.99-1.922 6.59 6.59 0 0 1-1.923-4.986c0-7.082 10.362-6.018 10.362-12.275 0-3.382-5.419-3.271-5.419-6.526 0-5.114 12.079-3.367 12.079-9.894 0-6.526-9.346-4.319-9.346-8.813 0-3.017 5.865-3.636 5.865-8.575a4.512 4.512 0 0 0-2.78-4.422 4.525 4.525 0 0 0-1.813-.342c-2.607 0-3.735 1.35-5.69 1.35-4.498 0-1.59-9.766-8.17-9.766s-3.655 9.766-8.169 9.766c-1.955 0-3.084-1.35-5.69-1.35a4.512 4.512 0 0 0-3.333 1.381 4.51 4.51 0 0 0-.977 1.561 4.506 4.506 0 0 0-.268 1.822c0 4.939 5.865 5.558 5.865 8.575 0 4.494-9.361 2.16-9.361 8.813 0 6.654 12.079 4.764 12.079 9.894 0 3.176-5.42 3.176-5.42 6.526 0 6.257 10.363 5.193 10.363 12.275a6.58 6.58 0 0 1-1.931 4.953 6.598 6.598 0 0 1-2.282 1.478 6.594 6.594 0 0 1-2.685.429 6.695 6.695 0 0 1-6.873-4.347 6.672 6.672 0 0 1-.391-2.862c0-2.493.906-8.639-3.735-8.639-3.083 0-4.005 2.636-7.057 2.636-4.641 0-1.049-6.606-1.049-10.449 0-1.842-.778-5.176-3.862-5.176-4.212 0-4.212 4.478-7.073 4.478-2.861 0-3.941-5.892-9.711-5.892a4.327 4.327 0 0 0-4.212 4.764c0 3.494 2.639 6.209 2.639 8.829 0 3.399-6.819 2.017-6.819 7.702 0 3.176 3.449 4.558 7.581 4.558 3.179 0 7.947-.429 7.947 2.318s-3.671 3.716-3.671 7.114c0 2.906 2.718 3.843 5.483 3.843a28.52 28.52 0 0 0 14.146-4.367c-7.581-5.828-17.054-16.308-18.612-24.074 2.543 3.954 21.664 28.393 47.094 28.393 25.431 0 44.631-24.439 47.094-28.393-1.589 7.766-11.03 18.278-18.564 24.074a28.624 28.624 0 0 0 14.098 4.319c2.766 0 5.499-.937 5.499-3.843 0-3.35-3.639-4.255-3.639-7.018s4.768-2.319 7.947-2.319c4.148 0 7.597-1.445 7.597-4.557-.064-5.685-6.898-4.304-6.898-7.702l-.048.079zm-53.658 6.352.445-20.246-3.719 1c0-16.245 4.196-25.138 4.196-25.138l-.445 20.184 3.846-.937c.048 16.245-4.275 25.137-4.275 25.137h-.048z" fill="#BEA063"/>
</svg>
