<svg width="230" height="310" viewBox="0 0 230 310" fill="none" xmlns="http://www.w3.org/2000/svg">
    <g filter="url(#1oc7vaoqoa)">
        <path fill="#fff" d="M15 11h200v280H15z"/>
        <path fill="#FFB600" d="M15 11h200v200H15z"/>
        <path d="M36.22 233.24c0 .707-.167 1.373-.5 2-.333.627-.867 1.14-1.6 1.54-.733.387-1.673.58-2.82.58h-2.52V243H26.5v-13.9h4.8c1.067 0 1.967.187 2.7.56.747.36 1.3.853 1.66 1.48.373.627.56 1.327.56 2.1zm-4.92 2.26c.867 0 1.513-.193 1.94-.58.427-.4.64-.96.64-1.68 0-1.52-.86-2.28-2.58-2.28h-2.52v4.54h2.52zm15.475 4.66h-5.82l-1 2.84h-2.38l4.98-13.92h2.64l4.98 13.92h-2.4l-1-2.84zm-.64-1.86-2.26-6.46-2.28 6.46h4.54zM63.76 243h-2.28l-6.86-10.38V243h-2.28v-13.92h2.28l6.86 10.36v-10.36h2.28V243zm11.974-13.9v1.86h-3.7V243h-2.28v-12.04h-3.72v-1.86h9.7zm8.649 14.04a7.32 7.32 0 0 1-3.58-.9 6.932 6.932 0 0 1-2.58-2.54c-.627-1.093-.94-2.32-.94-3.68 0-1.36.313-2.58.94-3.66.64-1.08 1.5-1.92 2.58-2.52a7.197 7.197 0 0 1 3.58-.92c1.307 0 2.5.307 3.58.92a6.602 6.602 0 0 1 2.58 2.52c.627 1.08.94 2.3.94 3.66 0 1.36-.313 2.587-.94 3.68a6.743 6.743 0 0 1-2.58 2.54c-1.08.6-2.273.9-3.58.9zm0-1.98c.92 0 1.74-.207 2.46-.62a4.387 4.387 0 0 0 1.68-1.8c.413-.787.62-1.693.62-2.72 0-1.027-.207-1.927-.62-2.7a4.251 4.251 0 0 0-1.68-1.78c-.72-.413-1.54-.62-2.46-.62-.92 0-1.74.207-2.46.62-.72.413-1.287 1.007-1.7 1.78-.4.773-.6 1.673-.6 2.7 0 1.027.2 1.933.6 2.72.413.773.98 1.373 1.7 1.8.72.413 1.54.62 2.46.62zm20.764 1.84h-2.28l-6.86-10.38V243h-2.28v-13.92h2.28l6.86 10.36v-10.36h2.28V243zm5.274-12.06v4.08h4.8v1.86h-4.8v4.26h5.4V243h-7.68v-13.92h7.68v1.86h-5.4zM34.88 259.76 29.3 273h-1.42l5.64-13.12h-8v-1.2h9.36v1.08zm11.124.1h-7.32v5.12c.333-.467.82-.847 1.46-1.14a4.746 4.746 0 0 1 2.08-.46c1.093 0 1.987.227 2.68.68.693.44 1.193 1.02 1.5 1.74.307.707.46 1.467.46 2.28 0 .933-.18 1.78-.54 2.54a4.012 4.012 0 0 1-1.62 1.78c-.72.44-1.62.66-2.7.66-1.373 0-2.487-.353-3.34-1.06-.853-.72-1.373-1.687-1.56-2.9h1.38c.173.88.573 1.56 1.2 2.04s1.4.72 2.32.72c1.16 0 2.033-.34 2.62-1.02.6-.693.9-1.607.9-2.74 0-1.107-.3-1.967-.9-2.58-.6-.627-1.46-.94-2.58-.94-.773 0-1.453.18-2.04.54a3.28 3.28 0 0 0-1.3 1.46h-1.32v-7.94h8.62v1.22zm2.684 9.74v-1.06l7.28-9.8h1.66v9.64h2.14v1.22h-2.14v3.4h-1.38v-3.4h-7.56zm7.62-9.32-6 8.1h6v-8.1zm7.125 8.9c.147.867.48 1.533 1 2 .52.467 1.234.7 2.14.7 1.254 0 2.18-.487 2.78-1.46.614-.987.894-2.613.84-4.88-.253.733-.74 1.313-1.46 1.74-.706.413-1.52.62-2.44.62-1.4 0-2.526-.42-3.38-1.26-.84-.84-1.26-2.007-1.26-3.5 0-.893.174-1.7.52-2.42a3.887 3.887 0 0 1 1.58-1.7c.707-.413 1.574-.62 2.6-.62 1.894 0 3.214.62 3.96 1.86.747 1.227 1.12 2.993 1.12 5.3 0 2.493-.373 4.367-1.12 5.62-.733 1.253-2 1.88-3.8 1.88-1.32 0-2.346-.353-3.08-1.06-.733-.72-1.166-1.66-1.3-2.82h1.3zm3.08-2.48c.627 0 1.2-.127 1.72-.38.534-.267.96-.653 1.28-1.16.32-.507.48-1.113.48-1.82 0-1.093-.313-1.993-.94-2.7-.613-.707-1.5-1.06-2.66-1.06-1.026 0-1.853.32-2.48.96-.613.64-.92 1.493-.92 2.56 0 1.12.307 2 .92 2.64.614.64 1.48.96 2.6.96zm12.709-.7c0-1.373.3-2.6.9-3.68.6-1.093 1.42-1.94 2.46-2.54 1.04-.613 2.2-.92 3.48-.92 1.56 0 2.893.373 4 1.12 1.12.733 1.933 1.773 2.44 3.12h-1.64c-.4-.947-1.014-1.687-1.84-2.22-.814-.533-1.8-.8-2.96-.8-1.027 0-1.954.24-2.78.72-.814.48-1.454 1.173-1.92 2.08-.467.893-.7 1.933-.7 3.12s.233 2.227.7 3.12c.466.893 1.106 1.58 1.92 2.06.826.48 1.753.72 2.78.72 1.16 0 2.146-.26 2.96-.78a4.805 4.805 0 0 0 1.84-2.2h1.64c-.507 1.333-1.32 2.367-2.44 3.1-1.12.733-2.454 1.1-4 1.1-1.28 0-2.44-.3-3.48-.9a6.622 6.622 0 0 1-2.46-2.54c-.6-1.08-.9-2.307-.9-3.68z" fill="#010101"/>
    </g>
    <defs>
        <filter id="1oc7vaoqoa" x="0" y="0" width="230" height="310" filterUnits="userSpaceOnUse" color-interpolation-filters="sRGB">
            <feFlood flood-opacity="0" result="BackgroundImageFix"/>
            <feColorMatrix in="SourceAlpha" values="0 0 0 0 0 0 0 0 0 0 0 0 0 0 0 0 0 0 127 0" result="hardAlpha"/>
            <feOffset dy="4"/>
            <feGaussianBlur stdDeviation="7.5"/>
            <feComposite in2="hardAlpha" operator="out"/>
            <feColorMatrix values="0 0 0 0 0 0 0 0 0 0.152941 0 0 0 0 0.341176 0 0 0 0.2 0"/>
            <feBlend in2="BackgroundImageFix" result="effect1_dropShadow_372_871"/>
            <feBlend in="SourceGraphic" in2="effect1_dropShadow_372_871" result="shape"/>
        </filter>
    </defs>
</svg>
