<svg width="230" height="310" viewBox="0 0 230 310" fill="none" xmlns="http://www.w3.org/2000/svg">
    <g filter="url(#gq7of59qva)">
        <path fill="#fff" d="M15 11h200v280H15z"/>
        <path fill="#FFD800" d="M15 11h200v200H15z"/>
        <path d="M36.22 233.24c0 .707-.167 1.373-.5 2-.333.627-.867 1.14-1.6 1.54-.733.387-1.673.58-2.82.58h-2.52V243H26.5v-13.9h4.8c1.067 0 1.967.187 2.7.56.747.36 1.3.853 1.66 1.48.373.627.56 1.327.56 2.1zm-4.92 2.26c.867 0 1.513-.193 1.94-.58.427-.4.64-.96.64-1.68 0-1.52-.86-2.28-2.58-2.28h-2.52v4.54h2.52zm15.475 4.66h-5.82l-1 2.84h-2.38l4.98-13.92h2.64l4.98 13.92h-2.4l-1-2.84zm-.64-1.86-2.26-6.46-2.28 6.46h4.54zM63.76 243h-2.28l-6.86-10.38V243h-2.28v-13.92h2.28l6.86 10.36v-10.36h2.28V243zm11.974-13.9v1.86h-3.7V243h-2.28v-12.04h-3.72v-1.86h9.7zm8.649 14.04a7.32 7.32 0 0 1-3.58-.9 6.932 6.932 0 0 1-2.58-2.54c-.627-1.093-.94-2.32-.94-3.68 0-1.36.313-2.58.94-3.66.64-1.08 1.5-1.92 2.58-2.52a7.197 7.197 0 0 1 3.58-.92c1.307 0 2.5.307 3.58.92a6.602 6.602 0 0 1 2.58 2.52c.627 1.08.94 2.3.94 3.66 0 1.36-.313 2.587-.94 3.68a6.743 6.743 0 0 1-2.58 2.54c-1.08.6-2.273.9-3.58.9zm0-1.98c.92 0 1.74-.207 2.46-.62a4.387 4.387 0 0 0 1.68-1.8c.413-.787.62-1.693.62-2.72 0-1.027-.207-1.927-.62-2.7a4.251 4.251 0 0 0-1.68-1.78c-.72-.413-1.54-.62-2.46-.62-.92 0-1.74.207-2.46.62-.72.413-1.287 1.007-1.7 1.78-.4.773-.6 1.673-.6 2.7 0 1.027.2 1.933.6 2.72.413.773.98 1.373 1.7 1.8.72.413 1.54.62 2.46.62zm20.764 1.84h-2.28l-6.86-10.38V243h-2.28v-13.92h2.28l6.86 10.36v-10.36h2.28V243zm5.274-12.06v4.08h4.8v1.86h-4.8v4.26h5.4V243h-7.68v-13.92h7.68v1.86h-5.4zM35.84 259.02l-4.48 8.54V273h-1.4v-5.44l-4.52-8.54h1.58l3.64 7.26 3.62-7.26h1.56zm11.93 7.96c0 .48-.014.847-.04 1.1h-9.06c.04.827.24 1.533.6 2.12.36.587.832 1.033 1.42 1.34.586.293 1.226.44 1.92.44.906 0 1.666-.22 2.28-.66a3.083 3.083 0 0 0 1.24-1.78h1.48a4.652 4.652 0 0 1-1.72 2.62c-.868.667-1.96 1-3.28 1-1.028 0-1.948-.227-2.76-.68a5.027 5.027 0 0 1-1.92-1.96c-.454-.853-.68-1.847-.68-2.98s.226-2.127.68-2.98a4.726 4.726 0 0 1 1.9-1.96c.812-.453 1.74-.68 2.78-.68 1.04 0 1.946.227 2.72.68a4.594 4.594 0 0 1 1.8 1.84c.426.76.64 1.607.64 2.54zm-1.42-.04c.012-.813-.154-1.507-.5-2.08a3.245 3.245 0 0 0-1.38-1.3 4.237 4.237 0 0 0-1.92-.44c-1.04 0-1.928.333-2.66 1-.734.667-1.14 1.607-1.22 2.82h7.68zm5.38-8.74V273h-1.4v-14.8h1.4zm4.57 0V273h-1.4v-14.8h1.4zm7.951 14.96c-1.027 0-1.953-.227-2.78-.68a5.17 5.17 0 0 1-1.94-1.96c-.467-.853-.7-1.847-.7-2.98s.24-2.12.72-2.96a4.95 4.95 0 0 1 1.96-1.96c.827-.467 1.753-.7 2.78-.7s1.953.233 2.78.7a4.786 4.786 0 0 1 1.96 1.96c.48.84.72 1.827.72 2.96 0 1.12-.24 2.107-.72 2.96a5.053 5.053 0 0 1-1.98 1.98c-.84.453-1.773.68-2.8.68zm0-1.22c.72 0 1.387-.16 2-.48.613-.333 1.107-.827 1.48-1.48.387-.667.58-1.48.58-2.44s-.187-1.767-.56-2.42c-.373-.667-.867-1.16-1.48-1.48a4.125 4.125 0 0 0-2-.5c-.72 0-1.387.167-2 .5-.613.32-1.107.813-1.48 1.48-.36.653-.54 1.46-.54 2.42s.18 1.773.54 2.44c.373.653.86 1.147 1.46 1.48.613.32 1.28.48 2 .48zm22.452-9.86L83.283 273h-1.4l-3.02-9.16-3.02 9.16h-1.42l-3.42-10.92h1.42l2.72 9.5 3.06-9.5h1.4l3.02 9.52 2.7-9.52h1.38zm7.097 3.62c0-2.293.353-4.073 1.06-5.34.707-1.267 1.973-1.9 3.8-1.9 1.827 0 3.093.633 3.8 1.9.707 1.267 1.06 3.047 1.06 5.34 0 2.333-.353 4.14-1.06 5.42-.707 1.28-1.973 1.92-3.8 1.92-1.84 0-3.113-.64-3.82-1.92-.693-1.28-1.04-3.087-1.04-5.42zm8.34 0c0-1.24-.087-2.287-.26-3.14-.173-.853-.513-1.54-1.02-2.06s-1.24-.78-2.2-.78c-.96 0-1.693.26-2.2.78-.507.52-.847 1.207-1.02 2.06-.173.853-.26 1.9-.26 3.14 0 1.28.087 2.353.26 3.22.173.853.513 1.54 1.02 2.06s1.24.78 2.2.78c.96 0 1.693-.26 2.2-.78.507-.52.847-1.207 1.02-2.06.173-.867.26-1.94.26-3.22zm3.304-5.78v-1.26h3.4V273h-1.42v-13.08h-1.98zm6.24 11.98c2.453-1.84 4.347-3.487 5.68-4.94 1.347-1.467 2.02-2.9 2.02-4.3 0-.92-.233-1.653-.7-2.2-.453-.56-1.2-.84-2.24-.84-1.013 0-1.8.32-2.36.96-.547.627-.853 1.467-.92 2.52h-1.36c.08-1.48.533-2.627 1.36-3.44.84-.827 1.933-1.24 3.28-1.24 1.293 0 2.34.367 3.14 1.1.8.72 1.2 1.747 1.2 3.08 0 1.613-.673 3.18-2.02 4.7-1.333 1.507-2.98 2.98-4.94 4.42h7.4v1.18h-9.54v-1zm16.874-5.9c0-1.373.3-2.6.9-3.68.6-1.093 1.42-1.94 2.46-2.54 1.04-.613 2.2-.92 3.48-.92 1.56 0 2.893.373 4 1.12 1.12.733 1.933 1.773 2.44 3.12h-1.64c-.4-.947-1.014-1.687-1.84-2.22-.814-.533-1.8-.8-2.96-.8-1.027 0-1.954.24-2.78.72-.814.48-1.454 1.173-1.92 2.08-.467.893-.7 1.933-.7 3.12s.233 2.227.7 3.12c.466.893 1.106 1.58 1.92 2.06.826.48 1.753.72 2.78.72 1.16 0 2.146-.26 2.96-.78a4.809 4.809 0 0 0 1.84-2.2h1.64c-.507 1.333-1.32 2.367-2.44 3.1-1.12.733-2.454 1.1-4 1.1-1.28 0-2.44-.3-3.48-.9a6.622 6.622 0 0 1-2.46-2.54c-.6-1.08-.9-2.307-.9-3.68z" fill="#010101"/>
    </g>
    <defs>
        <filter id="gq7of59qva" x="0" y="0" width="230" height="310" filterUnits="userSpaceOnUse" color-interpolation-filters="sRGB">
            <feFlood flood-opacity="0" result="BackgroundImageFix"/>
            <feColorMatrix in="SourceAlpha" values="0 0 0 0 0 0 0 0 0 0 0 0 0 0 0 0 0 0 127 0" result="hardAlpha"/>
            <feOffset dy="4"/>
            <feGaussianBlur stdDeviation="7.5"/>
            <feComposite in2="hardAlpha" operator="out"/>
            <feColorMatrix values="0 0 0 0 0 0 0 0 0 0.152941 0 0 0 0 0.341176 0 0 0 0.2 0"/>
            <feBlend in2="BackgroundImageFix" result="effect1_dropShadow_372_863"/>
            <feBlend in="SourceGraphic" in2="effect1_dropShadow_372_863" result="shape"/>
        </filter>
    </defs>
</svg>
