<svg width="230" height="310" viewBox="0 0 230 310" fill="none" xmlns="http://www.w3.org/2000/svg">
    <g filter="url(#b0l74bttga)">
        <path fill="#fff" d="M15 11h200v280H15z"/>
        <path fill="#002856" d="M15 11h200v200H15z"/>
        <path d="M36.22 233.24c0 .707-.167 1.373-.5 2-.333.627-.867 1.14-1.6 1.54-.733.387-1.673.58-2.82.58h-2.52V243H26.5v-13.9h4.8c1.067 0 1.967.187 2.7.56.747.36 1.3.853 1.66 1.48.373.627.56 1.327.56 2.1zm-4.92 2.26c.867 0 1.513-.193 1.94-.58.427-.4.64-.96.64-1.68 0-1.52-.86-2.28-2.58-2.28h-2.52v4.54h2.52zm15.475 4.66h-5.82l-1 2.84h-2.38l4.98-13.92h2.64l4.98 13.92h-2.4l-1-2.84zm-.64-1.86-2.26-6.46-2.28 6.46h4.54zM63.76 243h-2.28l-6.86-10.38V243h-2.28v-13.92h2.28l6.86 10.36v-10.36h2.28V243zm11.974-13.9v1.86h-3.7V243h-2.28v-12.04h-3.72v-1.86h9.7zm8.649 14.04a7.32 7.32 0 0 1-3.58-.9 6.932 6.932 0 0 1-2.58-2.54c-.627-1.093-.94-2.32-.94-3.68 0-1.36.313-2.58.94-3.66.64-1.08 1.5-1.92 2.58-2.52a7.197 7.197 0 0 1 3.58-.92c1.307 0 2.5.307 3.58.92a6.602 6.602 0 0 1 2.58 2.52c.627 1.08.94 2.3.94 3.66 0 1.36-.313 2.587-.94 3.68a6.743 6.743 0 0 1-2.58 2.54c-1.08.6-2.273.9-3.58.9zm0-1.98c.92 0 1.74-.207 2.46-.62a4.387 4.387 0 0 0 1.68-1.8c.413-.787.62-1.693.62-2.72 0-1.027-.207-1.927-.62-2.7a4.251 4.251 0 0 0-1.68-1.78c-.72-.413-1.54-.62-2.46-.62-.92 0-1.74.207-2.46.62-.72.413-1.287 1.007-1.7 1.78-.4.773-.6 1.673-.6 2.7 0 1.027.2 1.933.6 2.72.413.773.98 1.373 1.7 1.8.72.413 1.54.62 2.46.62zm20.764 1.84h-2.28l-6.86-10.38V243h-2.28v-13.92h2.28l6.86 10.36v-10.36h2.28V243zm5.274-12.06v4.08h4.8v1.86h-4.8v4.26h5.4V243h-7.68v-13.92h7.68v1.86h-5.4zM26.02 271.9c2.453-1.84 4.347-3.487 5.68-4.94 1.347-1.467 2.02-2.9 2.02-4.3 0-.92-.233-1.653-.7-2.2-.453-.56-1.2-.84-2.24-.84-1.013 0-1.8.32-2.36.96-.547.627-.853 1.467-.92 2.52h-1.36c.08-1.48.533-2.627 1.36-3.44.84-.827 1.933-1.24 3.28-1.24 1.293 0 2.34.367 3.14 1.1.8.72 1.2 1.747 1.2 3.08 0 1.613-.673 3.18-2.02 4.7-1.333 1.507-2.98 2.98-4.94 4.42h7.4v1.18h-9.54v-1zm13.585-2.72c.147.867.48 1.533 1 2 .52.467 1.234.7 2.14.7 1.254 0 2.18-.487 2.78-1.46.614-.987.894-2.613.84-4.88-.253.733-.74 1.313-1.46 1.74-.706.413-1.52.62-2.44.62-1.4 0-2.526-.42-3.38-1.26-.84-.84-1.26-2.007-1.26-3.5 0-.893.174-1.7.52-2.42a3.887 3.887 0 0 1 1.58-1.7c.707-.413 1.574-.62 2.6-.62 1.894 0 3.214.62 3.96 1.86.747 1.227 1.12 2.993 1.12 5.3 0 2.493-.373 4.367-1.12 5.62-.733 1.253-2 1.88-3.8 1.88-1.32 0-2.346-.353-3.08-1.06-.733-.72-1.166-1.66-1.3-2.82h1.3zm3.08-2.48c.627 0 1.2-.127 1.72-.38.534-.267.96-.653 1.28-1.16.32-.507.48-1.113.48-1.82 0-1.093-.313-1.993-.94-2.7-.613-.707-1.5-1.06-2.66-1.06-1.026 0-1.853.32-2.48.96-.613.64-.92 1.493-.92 2.56 0 1.12.307 2 .92 2.64.614.64 1.48.96 2.6.96zm16.6-6.84h-7.32v5.12c.334-.467.82-.847 1.46-1.14a4.746 4.746 0 0 1 2.08-.46c1.094 0 1.987.227 2.68.68.694.44 1.194 1.02 1.5 1.74.307.707.46 1.467.46 2.28 0 .933-.18 1.78-.54 2.54a4.012 4.012 0 0 1-1.62 1.78c-.72.44-1.62.66-2.7.66-1.373 0-2.486-.353-3.34-1.06-.853-.72-1.373-1.687-1.56-2.9h1.38c.174.88.574 1.56 1.2 2.04.627.48 1.4.72 2.32.72 1.16 0 2.034-.34 2.62-1.02.6-.693.9-1.607.9-2.74 0-1.107-.3-1.967-.9-2.58-.6-.627-1.46-.94-2.58-.94-.773 0-1.453.18-2.04.54a3.28 3.28 0 0 0-1.3 1.46h-1.32v-7.94h8.62v1.22zm8.452 6.14c0-1.373.3-2.6.9-3.68.6-1.093 1.42-1.94 2.46-2.54 1.04-.613 2.2-.92 3.48-.92 1.56 0 2.894.373 4 1.12 1.12.733 1.934 1.773 2.44 3.12h-1.64c-.4-.947-1.013-1.687-1.84-2.22-.813-.533-1.8-.8-2.96-.8-1.026 0-1.953.24-2.78.72-.813.48-1.453 1.173-1.92 2.08-.466.893-.7 1.933-.7 3.12s.234 2.227.7 3.12c.467.893 1.107 1.58 1.92 2.06.827.48 1.754.72 2.78.72 1.16 0 2.147-.26 2.96-.78a4.805 4.805 0 0 0 1.84-2.2h1.64c-.506 1.333-1.32 2.367-2.44 3.1-1.12.733-2.453 1.1-4 1.1-1.28 0-2.44-.3-3.48-.9a6.622 6.622 0 0 1-2.46-2.54c-.6-1.08-.9-2.307-.9-3.68z" fill="#010101"/>
    </g>
    <defs>
        <filter id="b0l74bttga" x="0" y="0" width="230" height="310" filterUnits="userSpaceOnUse" color-interpolation-filters="sRGB">
            <feFlood flood-opacity="0" result="BackgroundImageFix"/>
            <feColorMatrix in="SourceAlpha" values="0 0 0 0 0 0 0 0 0 0 0 0 0 0 0 0 0 0 127 0" result="hardAlpha"/>
            <feOffset dy="4"/>
            <feGaussianBlur stdDeviation="7.5"/>
            <feComposite in2="hardAlpha" operator="out"/>
            <feColorMatrix values="0 0 0 0 0 0 0 0 0 0.152941 0 0 0 0 0.341176 0 0 0 0.2 0"/>
            <feBlend in2="BackgroundImageFix" result="effect1_dropShadow_372_859"/>
            <feBlend in="SourceGraphic" in2="effect1_dropShadow_372_859" result="shape"/>
        </filter>
    </defs>
</svg>
