<svg width="920" height="535" viewBox="0 0 920 535" fill="none" xmlns="http://www.w3.org/2000/svg">
    <path fill="#002857" d="M0 0h920v535H0z"/>
    <g clip-path="url(#aiaaoatnea)">
        <path d="M207.124 281.812v-27.717l84.803-21.529v107.432l-18.24 22.481-55.46 14.123-18.399-13.277v-35.969l31.458-7.988v26.131l29.184-7.405v-69.77l-53.346 13.488zM324.335 349.518l-18.081-13.277v-89.288l18.24-22.534 56.624-14.493 18.292 13.277v89.394l-18.292 22.533-56.783 14.388zm43.459-108.542-30.083 7.617v69.769l30.083-7.617v-69.769zM476.017 246.583l38.278 54.747-36.639 9.309-32.567-48.293v56.545l-31.511 7.987v-125.31l31.511-7.987v57.815l35.422-66.807 33.784-8.569-38.278 70.563zM519.691 299.954V174.643l89.297-22.639v27.77l-57.786 14.652v21.106l47.741-12.113v26.871l-47.741 12.113v21.846l57.786-14.652v27.717l-89.297 22.64zM619.665 149.414l75.498-19.148 18.451 13.224v41.787l-21.465 21.159 28.603 42.687-36.322 9.203-22.364-35.704-10.891 2.75v41.365l-31.722 7.987.212-125.31zm31.721 46.442 30.083-7.617v-26.712l-30.294 7.617.211 26.712z" fill="#E41618"/>
        <path d="M192.849 271.551v-27.718l84.803-21.528v107.431l-18.24 22.534-55.513 14.017-18.399-13.224v-35.969l31.51-7.987v26.13l29.132-7.352v-69.823l-53.293 13.489zM310.011 339.413l-18.081-13.118v-89.923l18.293-22.533 56.517-14.335 18.241 13.277v89.711l-18.241 22.534-56.729 14.387zm43.459-108.33-30.03 7.617v69.822l30.03-7.617v-69.822zM461.744 236.477l38.278 54.694-36.692 9.31-32.568-48.294v56.546l-31.457 8.04v-125.31l31.457-7.988v57.816l35.423-66.808 33.837-8.569-38.278 70.563zM505.363 289.852v-125.31l89.297-22.64v27.718l-57.786 14.652v21.158l47.741-12.166v26.871l-47.741 12.113v21.846l57.786-14.652v27.718l-89.297 22.692zM605.391 139.152l75.498-19.148 18.452 13.224v41.788l-21.518 21.158 28.655 42.687-36.321 9.151-22.364-35.652-10.891 2.856v41.259l-31.722 7.987.211-125.31zm31.722 46.443 29.819-7.406v-26.924l-30.03 7.617.211 26.713zM302.922 373.215l4.97-1.27v24.597l-4.97 1.269v-24.596zM327.352 379.19l8.564 10.262-5.921 1.481-6.503-8.357-1.85.476v9.997l-4.97 1.269v-24.596l4.97-1.27v10.368l1.639-.423 7.137-12.166 5.498-1.376-8.564 14.335zM355.319 384.485l-10.574 2.645-3.542-2.645v-17.456l3.49-4.39 10.573-2.698 3.543 2.592v17.562l-3.49 4.39zm-1.427-20.047-7.719 2.01v15.868l7.719-1.957v-15.921zM367.637 381.364V356.82l4.917-1.269v20.365l10.891-2.751v4.232l-15.808 3.967zM404.225 372.104l-1.004-4.39-7.666 1.904-1.216 4.972-4.917 1.27 6.397-26.448 7.508-1.904 6.133 23.062-5.235 1.534zm-7.666-6.823 5.71-1.481-2.432-10.579h-.74l-2.538 12.06zM431.607 344.811v-4.232l16.178-4.126v21.106l-3.489 4.39-10.627 2.698-3.489-2.645v-7.035l4.969-1.27v6.348l7.719-1.957v-16.134l-11.261 2.857zM470.997 355.233l-10.574 2.698-3.489-2.592v-17.614l3.489-4.391 10.574-2.697 3.489 2.645v17.561l-3.489 4.39zm-1.48-19.994-7.719 1.957v15.869l7.719-1.958v-15.868zM493.68 337.036l8.617 10.209-5.974 1.481-6.503-8.357-1.85.476v9.997l-4.97 1.269v-24.596l4.97-1.217v10.368l1.639-.476 7.137-12.113 5.551-1.429-8.617 14.388zM508.586 321.062l4.97-1.269v24.597l-4.97 1.216v-24.544zM540.312 327.726v6.347l-3.49 4.391-10.944 2.803-3.542-2.645v-17.561l3.542-4.39 10.944-2.804 3.49 2.645v6.295l-4.97 1.269v-5.607l-8.036 2.063v16.133l8.036-2.063v-5.607l4.97-1.269zM281.462 403.261l-4.97 1.269v-24.596l4.97-1.27v24.597z" fill="#fff"/>
        <path d="m294.151 400.034-4.97 1.269-12.689-21.369 4.97-1.27 12.689 21.37z" fill="#fff"/>
        <path d="m294.149 400.034-4.969 1.27v-24.597l4.969-1.269v24.596zM530.368 308.42l5.657-1.428-3.753 6.189-4.6 1.164 2.696-5.925zM248.521 391.359l5.022-1.269-6.238 11.425 6.291 8.781-5.075 1.27-4.124-6.189-4.23 8.357-5.128 1.27 6.186-11.161-6.133-9.098 5.075-1.27 4.071 6.242 4.283-8.358z" fill="#fff"/>
        <path d="M572.877 367.928c-1.692 2.381-3.595 4.655-.37 7.353 0 1.481-5.287-.529-5.287-4.391a15.896 15.896 0 0 1 1.48-4.707 6.033 6.033 0 0 0-4.486-1.584 6.038 6.038 0 0 0-4.237 2.166c-14.962 12.43-29.29 25.284-45.362 36.498a60.217 60.217 0 0 1-23.739 10.949 14.786 14.786 0 0 1-5.71 0 8.139 8.139 0 0 1-7.412-8.097 8.146 8.146 0 0 1 .962-3.857 41.997 41.997 0 0 1 12.477-16.61 113.133 113.133 0 0 1 24.426-15.868 93.058 93.058 0 0 1 35.211-10.262c-4.229-2.222-7.771-4.338-11.472-6.189-2.802-1.428-4.864-4.549.846-5.29 13.587-2.062 27.175-4.072 40.709-6.453 6.133-1.111 5.287-1.481 7.772-3.068 10.574-7.352 33.255-23.75 34.63-24.755h-40.234c-1.269 0 .74 1.904 1.216 2.856.476 1.799-7.137-3.861-10.574-6.136-4.6-3.173-.952-4.125 1.586-3.332a102.018 102.018 0 0 0 32.304 2.539c6.006.197 12.018-.104 17.975-.899a49.409 49.409 0 0 0 15.227-4.92 187.934 187.934 0 0 1 48.323-17.931 22.692 22.692 0 0 1 5.287 0 4.173 4.173 0 0 1 4.071 2.539 4.97 4.97 0 0 1-2.221 4.443 47.83 47.83 0 0 1-10.098 5.29 180.033 180.033 0 0 1-45.362 12.219 40.428 40.428 0 0 0-16.125 6.876c-10.204 6.612-19.932 13.912-29.872 21.158a16.93 16.93 0 0 0-3.331 2.381c3.014 0 6.609-.423 8.777-.529 25.853-1.64 51.759-3.227 77.613-4.973a12.251 12.251 0 0 0 6.08-2.433c12.9-9.944 25.007-21.158 38.489-30.045 7.402-4.972 7.825.529 3.278 4.073-9.781 7.67-18.769 16.292-28.18 24.385-.952.847-1.956 1.64-3.754 3.121a235.327 235.327 0 0 1 39.335 3.28c1.692.476 2.01.846 0 1.111-2.009.264-3.066 0-4.652 0-11.526-.371-23.104-.953-34.683-1.058a27.487 27.487 0 0 0-18.663 9.151c-9.781 9.098-19.403 18.46-28.708 28.087-6.609 6.824-14.804 6.665-22.893 5.29a274.385 274.385 0 0 1-27.598-5.607c-7.666-2.063-15.226-4.496-23.051-6.771zm-13.323-5.289c-2.591-1.376-18.346.952-24.796 3.121a101.715 101.715 0 0 0-51.442 35.651 5.825 5.825 0 0 0 0 6.983c4.969 6.241 20.883-2.645 28.496-7.829 12.848-8.728 22.047-16.715 32.886-25.337 5.075-3.861 9.093-7.617 14.856-12.536v-.053zm104.418-10.897-.37-.687-3.014.952c-7.349 1.957-14.645 3.967-21.994 5.765-1.797.423-4.547.688-5.287-.37-3.066-3.227-4.811-1.111-7.084 0-2.274 1.111-4.177 2.433-6.397 3.332-2.221.9-4.547 2.222-6.239 1.693-1.692-.529-2.749-2.592-1.692-5.871a72.141 72.141 0 0 1-24.796 12.324 142.978 142.978 0 0 0 43.089 7.617 16.966 16.966 0 0 0 12.16-3.808c7.085-6.877 14.328-13.912 21.624-20.947zm-97.069 9.257 4.547 1.058c.475-.37 3.701-3.544 5.287-4.496a91.634 91.634 0 0 1 31.721-13.489c5.287-1.322 10.574-.317 8.883 5.29a25.81 25.81 0 0 1 4.018-3.333c1.163-.687 3.066-1.745 4.071-1.428 1.004.318 0 3.174-.582 4.444-.581 1.269-1.374 2.697-2.379 4.813 3.119-1.322 5.287-2.327 7.507-3.121 4.759-1.64 4.6 2.592 9.147 1.746a187.396 187.396 0 0 0 22.734-5.29 39.436 39.436 0 0 0 15.861-8.569l-6.344.529c-25.589 1.746-51.178 3.385-76.767 5.29a21.14 21.14 0 0 0-10.31 2.433c-6.133 3.914-11.367 8.992-17.394 14.123zm-21.148-10.05c-1.48 0-1.903.846 0 1.692 3.013 1.482 5.974 3.068 8.988 4.444 7.772 3.438 7.824 3.438 14.01-2.063 3.701-3.227 7.349-6.612 10.997-9.892l-33.995 5.819zm67.568-3.491s0-1.164-7.825 1.216a62.787 62.787 0 0 0-15.121 6.401c-4.124 2.168-8.142 4.549-12.16 6.982-.634.317-2.485 1.534-1.48 1.904 8.935 2.01 31.721-7.934 36.586-16.503zm34.841-43.216a123.83 123.83 0 0 0 44.04-14.705 135.259 135.259 0 0 0-44.04 14.916v-.211z" fill="#E41618"/>
    </g>
    <defs>
        <clipPath id="aiaaoatnea">
            <path fill="#fff" transform="translate(185.5 120)" d="M0 0h549v295H0z"/>
        </clipPath>
    </defs>
</svg>
