<svg width="440" height="717" viewBox="0 0 440 717" fill="none" xmlns="http://www.w3.org/2000/svg">
    <rect x=".5" y=".5" width="439" height="715.045" rx="32.96" fill="#F4F4F4" stroke="#E4E4E4"/>
    <path d="M77.707 130.985v10.49h-1.271v-10.49h1.271zm-6.961 0v10.49h-1.272v-10.49h1.272zm6.278 4.578v1.192h-6.882v-1.192h6.882zm4.52-3.56c-.287 0-.52-.085-.7-.255-.17-.18-.254-.413-.254-.699s.085-.514.254-.683c.18-.181.413-.271.7-.271.285 0 .513.09.683.271.18.169.27.397.27.683 0 .286-.09.519-.27.699-.17.17-.398.255-.684.255zm.635 1.525v7.947h-1.271v-7.947h1.271zm9.642-1.462.286 1.129h-.112c-.519 0-.921.106-1.208.317-.275.202-.413.53-.413.986l-.778-.397c0-.414.095-.774.286-1.081.19-.308.45-.541.778-.7a2.327 2.327 0 0 1 1.081-.254h.08zm-2.416 8.392c.752 0 1.34.175 1.764.524.424.339.636.795.636 1.367 0 .519-.175.97-.525 1.351-.339.382-.8.673-1.383.874-.572.212-1.218.318-1.939.318-1.25 0-2.188-.212-2.813-.636-.614-.423-.921-.932-.921-1.525 0-.424.137-.806.413-1.145.286-.328.763-.514 1.43-.556l-.111.238a2.25 2.25 0 0 1-.922-.476c-.244-.233-.366-.567-.366-1.002 0-.434.16-.805.477-1.112.329-.318.81-.514 1.447-.588l.842.429h-.159c-.52.053-.89.185-1.113.397-.211.202-.317.424-.317.668 0 .296.106.519.317.667.223.138.53.207.922.207h2.32zm-1.462 3.369c.614 0 1.117-.063 1.51-.19.402-.128.699-.292.89-.493.19-.201.286-.419.286-.652a.801.801 0 0 0-.35-.683c-.223-.17-.63-.254-1.224-.254h-2.448c-.338 0-.625.084-.858.254a.875.875 0 0 0-.35.731c0 .392.223.705.668.938.456.233 1.08.349 1.876.349zm-.112-10.458c.636 0 1.198.117 1.685.35.498.223.885.535 1.16.938.276.402.413.869.413 1.398 0 .52-.137.986-.413 1.399-.275.403-.662.721-1.16.954-.487.222-1.049.333-1.685.333-1.049 0-1.854-.249-2.416-.747-.561-.508-.842-1.155-.842-1.939 0-.529.138-.996.413-1.398a2.832 2.832 0 0 1 1.16-.938c.488-.233 1.05-.35 1.685-.35zm0 1.033c-.55 0-1.012.154-1.382.461-.371.297-.557.694-.557 1.192 0 .488.186.885.557 1.192.37.308.831.461 1.382.461.551 0 1.012-.153 1.383-.461.37-.307.556-.704.556-1.192 0-.498-.185-.895-.556-1.192-.37-.307-.832-.461-1.383-.461zm5.757 7.073v-11.602h1.272v4.847c.275-.476.64-.821 1.097-1.033a3.497 3.497 0 0 1 1.494-.318c.572 0 1.09.112 1.557.334.466.212.837.541 1.113.986.286.445.429 1.011.429 1.7v5.086h-1.272v-4.641c0-.879-.19-1.489-.572-1.828-.37-.349-.832-.524-1.383-.524-.381 0-.762.09-1.144.27-.381.18-.7.477-.954.89-.243.403-.365.943-.365 1.621v4.212h-1.272zm13.735.159a3.19 3.19 0 0 1-1.24-.238 2.89 2.89 0 0 1-.985-.668 2.84 2.84 0 0 1-.62-.969l.175-.223-.112 1.939h-1.112v-11.602h1.271v5.451l-.159-.238c.212-.498.567-.906 1.065-1.224a3.129 3.129 0 0 1 1.733-.493c.656 0 1.26.165 1.811.493.551.329.991.8 1.32 1.415.328.614.492 1.356.492 2.225 0 .858-.169 1.6-.508 2.225-.329.614-.769 1.086-1.32 1.414a3.463 3.463 0 0 1-1.811.493zm-.128-1.113c.785 0 1.394-.275 1.828-.826.445-.551.668-1.282.668-2.193 0-.912-.217-1.643-.652-2.194-.434-.551-1.044-.826-1.828-.826-.498 0-.937.127-1.319.381-.371.255-.662.61-.874 1.065-.212.456-.318.991-.318 1.606 0 .603.101 1.133.302 1.589.212.445.503.789.874 1.033.382.244.821.365 1.319.365zm10.839-4.18c0-.593-.159-1.048-.477-1.366-.318-.329-.768-.493-1.351-.493-.551 0-1.017.122-1.398.365-.382.234-.663.615-.843 1.145l-1.033-.636c.212-.593.604-1.07 1.176-1.43.573-.371 1.282-.557 2.13-.557.572 0 1.092.101 1.558.302.466.191.831.488 1.096.89.276.392.414.901.414 1.526v3.846c0 .382.201.573.604.573.201 0 .397-.027.588-.08l-.064 1.001c-.212.106-.487.159-.826.159a1.9 1.9 0 0 1-.827-.174 1.308 1.308 0 0 1-.572-.525c-.138-.244-.207-.546-.207-.906v-.159l.318.048a2.143 2.143 0 0 1-.651 1.017 3.195 3.195 0 0 1-1.034.572 3.827 3.827 0 0 1-1.128.175c-.466 0-.901-.079-1.303-.238a2.22 2.22 0 0 1-.97-.716c-.233-.328-.349-.731-.349-1.207 0-.594.196-1.081.588-1.463.402-.392.959-.657 1.668-.794l3.147-.62v1.049l-2.558.524c-.52.106-.906.255-1.161.445-.254.191-.381.456-.381.795 0 .328.127.599.381.811.265.201.636.301 1.113.301.307 0 .599-.037.874-.111.286-.085.54-.206.763-.365.222-.17.397-.376.524-.62.128-.254.191-.551.191-.89v-2.194zm5.569-6.468v9.584c0 .402.074.683.223.842.148.148.387.222.715.222.212 0 .387-.015.525-.047.137-.032.323-.09.556-.175l-.207 1.113a2.23 2.23 0 0 1-.556.158 2.958 2.958 0 0 1-.62.064c-.646 0-1.128-.175-1.446-.524-.308-.35-.461-.885-.461-1.606v-9.631h1.271zm4.858 0v9.584c0 .402.075.683.223.842.148.148.387.222.715.222.212 0 .387-.015.525-.047.137-.032.323-.09.556-.175l-.207 1.113a2.23 2.23 0 0 1-.556.158 2.958 2.958 0 0 1-.62.064c-.646 0-1.128-.175-1.446-.524-.307-.35-.461-.885-.461-1.606v-9.631h1.271zm11.64 11.761c-.933 0-1.759-.217-2.48-.652-.71-.445-1.192-1.054-1.446-1.827l1.271-.652c.128.392.302.736.525 1.033.222.286.514.509.874.668.371.159.832.238 1.383.238.466 0 .858-.085 1.176-.254.318-.17.561-.398.731-.684.17-.296.254-.635.254-1.017 0-.381-.074-.699-.222-.953-.138-.255-.36-.44-.668-.557-.307-.127-.71-.19-1.208-.19-.116 0-.243.005-.381.015-.138 0-.281.011-.429.032v-1.271c.095.01.185.016.27.016h.254c.774 0 1.325-.149 1.653-.445.329-.308.493-.784.493-1.431 0-.551-.17-.969-.509-1.255-.339-.287-.821-.43-1.446-.43-.668 0-1.176.149-1.526.445-.349.287-.625.679-.826 1.177l-1.208-.573c.169-.445.424-.837.763-1.176a3.582 3.582 0 0 1 1.224-.794 4.36 4.36 0 0 1 1.605-.286c.731 0 1.335.127 1.812.381.476.244.831.572 1.065.985.243.414.365.869.365 1.367 0 .382-.053.726-.159 1.033a2.437 2.437 0 0 1-.445.779 2.28 2.28 0 0 1-.62.54 2.305 2.305 0 0 1-.747.255v.032c.35.01.657.079.922.206a2.11 2.11 0 0 1 1.129 1.24c.106.265.158.546.158.842 0 .615-.153 1.16-.46 1.637a3.105 3.105 0 0 1-1.256 1.129c-.54.265-1.171.397-1.891.397zm9.266 0c-.933 0-1.759-.217-2.48-.652-.71-.445-1.192-1.054-1.446-1.827l1.271-.652c.128.392.302.736.525 1.033.222.286.514.509.874.668.371.159.832.238 1.383.238.466 0 .858-.085 1.176-.254.318-.17.562-.398.731-.684.17-.296.254-.635.254-1.017 0-.381-.074-.699-.222-.953-.138-.255-.36-.44-.668-.557-.307-.127-.71-.19-1.208-.19-.116 0-.243.005-.381.015-.138 0-.281.011-.429.032v-1.271c.095.01.185.016.27.016h.254c.774 0 1.325-.149 1.653-.445.329-.308.493-.784.493-1.431 0-.551-.17-.969-.509-1.255-.339-.287-.821-.43-1.446-.43-.667 0-1.176.149-1.526.445-.349.287-.625.679-.826 1.177l-1.208-.573c.169-.445.424-.837.763-1.176a3.582 3.582 0 0 1 1.224-.794 4.36 4.36 0 0 1 1.605-.286c.731 0 1.335.127 1.812.381.477.244.831.572 1.065.985.243.414.365.869.365 1.367 0 .382-.053.726-.159 1.033a2.437 2.437 0 0 1-.445.779 2.28 2.28 0 0 1-.62.54 2.305 2.305 0 0 1-.747.255v.032c.35.01.657.079.922.206a2.11 2.11 0 0 1 1.129 1.24c.106.265.159.546.159.842 0 .615-.154 1.16-.461 1.637a3.105 3.105 0 0 1-1.256 1.129c-.54.265-1.171.397-1.891.397zm9.6 0c-1.187 0-2.136-.461-2.845-1.383-.71-.922-1.065-2.262-1.065-4.021s.355-3.099 1.065-4.021c.709-.922 1.658-1.383 2.845-1.383 1.197 0 2.145.461 2.844 1.383.71.922 1.065 2.262 1.065 4.021s-.355 3.099-1.065 4.021c-.699.922-1.647 1.383-2.844 1.383zm0-1.144c.561 0 1.033-.159 1.414-.477.392-.329.683-.811.874-1.446.201-.636.302-1.415.302-2.337 0-.922-.101-1.7-.302-2.336-.191-.636-.482-1.113-.874-1.431-.381-.328-.853-.492-1.414-.492-.562 0-1.039.164-1.431.492-.381.318-.673.795-.874 1.431-.191.636-.286 1.414-.286 2.336 0 .922.095 1.701.286 2.337.201.635.493 1.117.874 1.446.392.318.869.477 1.431.477zm11.838.985v-7.947h1.113l.079 1.24c.287-.487.657-.842 1.113-1.065a3.294 3.294 0 0 1 1.43-.334c.562 0 1.092.128 1.59.382s.879.646 1.144 1.176c.17-.36.408-.652.715-.874a3.094 3.094 0 0 1 1.002-.509c.37-.116.72-.175 1.049-.175.508 0 .99.106 1.446.318.466.212.848.541 1.144.986.297.445.445 1.017.445 1.716v5.086h-1.271v-4.959c0-.72-.18-1.239-.541-1.557-.36-.318-.805-.477-1.335-.477-.413 0-.8.101-1.16.302-.36.201-.652.498-.874.89-.212.392-.318.874-.318 1.446v4.355h-1.271v-4.959c0-.72-.181-1.239-.541-1.557-.36-.318-.805-.477-1.335-.477-.349 0-.71.095-1.081.286-.36.18-.662.472-.906.874-.243.403-.365.933-.365 1.59v4.243h-1.272zm16.357-11.602v9.584c0 .402.074.683.222.842.149.148.387.222.716.222.212 0 .386-.015.524-.047s.323-.09.556-.175l-.206 1.113c-.17.074-.355.127-.557.158a2.948 2.948 0 0 1-.619.064c-.647 0-1.129-.175-1.447-.524-.307-.35-.461-.885-.461-1.606v-9.631h1.272zm4.286 9.695c.254 0 .466.069.636.206.18.128.317.308.413.541.095.222.143.487.143.795 0 .349-.064.694-.191 1.033a2.742 2.742 0 0 1-.556.937 3.036 3.036 0 0 1-.986.716l-.667-.62c.286-.096.535-.228.747-.398.222-.169.403-.36.54-.572.138-.212.228-.429.27-.651l-.063-.032a.55.55 0 0 1-.159.079.971.971 0 0 1-.286.032.837.837 0 0 1-.397-.111 1.038 1.038 0 0 1-.334-.318c-.096-.148-.143-.339-.143-.572 0-.191.047-.366.143-.525.095-.169.217-.302.365-.397.159-.095.334-.143.525-.143zm10.52 1.907v-8.265l.032-.651a5.957 5.957 0 0 1-1.256.922 6.042 6.042 0 0 1-1.462.556l-.334-1.16a2.78 2.78 0 0 0 .715-.207c.297-.127.604-.281.922-.461.329-.191.631-.392.906-.604.276-.212.488-.418.636-.62h1.112v10.49h-1.271zm9.387-11.602-4.863 12.715H205.3l4.863-12.715h1.192zm1.614 11.602v-1.033a57.258 57.258 0 0 0 2.622-2.034c.71-.583 1.277-1.113 1.701-1.59.424-.477.726-.927.906-1.351.18-.434.27-.884.27-1.351 0-.625-.201-1.128-.604-1.509-.392-.393-.932-.589-1.621-.589-.72 0-1.298.239-1.732.716-.435.466-.689 1.091-.763 1.875l-1.113-.667a4.202 4.202 0 0 1 .588-1.622 3.223 3.223 0 0 1 1.224-1.096c.519-.265 1.134-.398 1.844-.398.54 0 1.022.08 1.446.239.434.159.805.387 1.113.683a2.8 2.8 0 0 1 .699 1.033c.169.403.254.848.254 1.335a4.29 4.29 0 0 1-.477 1.939c-.317.626-.842 1.282-1.573 1.971-.731.689-1.722 1.452-2.972 2.289v.016c.116-.011.275-.016.477-.016.212-.011.418-.016.619-.016.212-.011.371-.016.477-.016h3.672v1.192h-7.057zm13.426 0v-2.749h-5.118v-.938l4.784-6.803h1.605v6.644h1.86v1.097h-1.86v2.749h-1.271zm-3.767-3.846h3.767v-3.926c0-.275.005-.556.016-.842.021-.286.037-.567.047-.843h-.031c-.128.265-.292.562-.493.89-.201.329-.387.615-.556.859l-2.75 3.862z" fill="#303030"/>
    <path stroke="#E4E4E4" stroke-width=".837" d="M33.457 233.802h373.08"/>
    <path d="M77.93 272.629a4.493 4.493 0 0 1-.954 1.542c-.413.424-.9.747-1.462.97a4.805 4.805 0 0 1-1.812.333c-.996 0-1.86-.217-2.59-.651-.721-.445-1.283-1.07-1.685-1.876-.392-.805-.588-1.764-.588-2.876 0-1.113.196-2.072.588-2.877.402-.805.964-1.425 1.684-1.86.731-.445 1.584-.667 2.56-.667.677 0 1.281.095 1.811.286.53.18.98.455 1.351.826.382.361.683.806.906 1.335l-1.256.588c-.233-.604-.572-1.059-1.017-1.366-.434-.318-1.001-.477-1.7-.477-.71 0-1.336.169-1.876.508-.54.329-.964.806-1.271 1.431-.297.625-.445 1.383-.445 2.273 0 .879.143 1.637.429 2.272.286.625.694 1.108 1.224 1.447.53.328 1.154.492 1.875.492.7 0 1.309-.174 1.828-.524.519-.36.895-.895 1.128-1.605l1.272.476zm5.492-5.419c.752 0 1.414.164 1.986.492a3.434 3.434 0 0 1 1.367 1.431c.329.614.493 1.351.493 2.209 0 .858-.164 1.6-.493 2.225a3.452 3.452 0 0 1-1.367 1.415c-.572.328-1.234.492-1.986.492-.742 0-1.404-.164-1.987-.492a3.453 3.453 0 0 1-1.367-1.415c-.328-.625-.493-1.367-.493-2.225 0-.858.165-1.595.493-2.209a3.434 3.434 0 0 1 1.367-1.431c.583-.328 1.245-.492 1.987-.492zm0 1.096c-.54 0-1.002.122-1.383.366a2.415 2.415 0 0 0-.89 1.049c-.201.445-.302.985-.302 1.621 0 .625.1 1.166.302 1.621.212.456.508.805.89 1.049.381.244.842.366 1.383.366.54 0 1-.122 1.382-.366.382-.244.673-.593.874-1.049.212-.455.318-.996.318-1.621 0-.636-.106-1.176-.317-1.621a2.317 2.317 0 0 0-.875-1.049c-.381-.244-.842-.366-1.382-.366zm7.448-4.593v9.584c0 .403.074.683.222.842.148.149.387.223.715.223.212 0 .387-.016.525-.048.137-.032.323-.09.556-.175l-.207 1.113c-.17.074-.355.127-.556.159a3.028 3.028 0 0 1-.62.063c-.646 0-1.128-.174-1.446-.524-.307-.35-.461-.885-.461-1.605v-9.632h1.272zm4.858 0v9.584c0 .403.074.683.222.842.148.149.387.223.715.223.212 0 .387-.016.525-.048s.323-.09.556-.175l-.207 1.113c-.17.074-.355.127-.556.159a3.027 3.027 0 0 1-.62.063c-.646 0-1.128-.174-1.446-.524-.307-.35-.46-.885-.46-1.605v-9.632h1.27zm4.285 2.13c-.286 0-.519-.085-.699-.254-.17-.181-.254-.414-.254-.7s.085-.514.254-.683c.18-.18.413-.27.699-.27.287 0 .514.09.684.27.18.169.27.397.27.683a.95.95 0 0 1-.27.7c-.17.169-.397.254-.684.254zm.636 1.526v7.946h-1.271v-7.946h1.271zm2.95 7.946v-7.946h1.113l.111 1.78-.206-.175c.169-.424.397-.763.683-1.017a2.56 2.56 0 0 1 .985-.572 3.995 3.995 0 0 1 1.177-.175c.572 0 1.091.111 1.557.333a2.51 2.51 0 0 1 1.113.986c.286.445.429 1.012.429 1.701v5.085h-1.272v-4.64c0-.88-.19-1.489-.572-1.828-.371-.35-.832-.525-1.383-.525-.381 0-.762.09-1.144.27-.381.181-.699.472-.954.875-.243.402-.365.943-.365 1.621v4.227h-1.272zm12.702.159a4.736 4.736 0 0 1-2.146-.492 3.54 3.54 0 0 1-1.494-1.399l1.081-.779c.233.488.572.869 1.017 1.145.456.275 1.001.413 1.637.413.562 0 1.001-.106 1.319-.318.318-.223.477-.509.477-.858a.922.922 0 0 0-.223-.604c-.137-.191-.408-.329-.81-.413l-1.907-.398c-.774-.159-1.33-.424-1.669-.795-.329-.37-.493-.831-.493-1.382 0-.435.122-.832.366-1.192.254-.361.609-.647 1.065-.859.466-.222 1.011-.333 1.637-.333.784 0 1.446.153 1.986.461.541.307.943.741 1.208 1.303l-1.065.699c-.18-.466-.471-.805-.874-1.017a2.565 2.565 0 0 0-1.255-.334c-.382 0-.71.053-.986.159a1.452 1.452 0 0 0-.62.445.997.997 0 0 0-.206.62c0 .233.079.45.238.652.159.19.456.328.89.413l1.987.413c.742.149 1.261.392 1.557.731.297.339.445.753.445 1.24 0 .498-.132.938-.397 1.319-.265.371-.636.657-1.112.858-.477.202-1.028.302-1.653.302zm10.635-.159v-1.033a56.557 56.557 0 0 0 2.622-2.034c.71-.583 1.277-1.113 1.701-1.589.424-.477.726-.927.906-1.351a3.5 3.5 0 0 0 .27-1.351c0-.625-.201-1.129-.604-1.51-.392-.392-.932-.588-1.621-.588-.72 0-1.298.238-1.732.715-.435.466-.689 1.091-.763 1.875l-1.113-.667a4.19 4.19 0 0 1 .588-1.621 3.226 3.226 0 0 1 1.224-1.097c.519-.265 1.134-.397 1.844-.397.54 0 1.022.079 1.446.238.434.159.805.387 1.113.684.307.286.54.63.699 1.033.169.402.254.847.254 1.335 0 .657-.159 1.303-.477 1.939-.317.625-.842 1.282-1.573 1.971-.731.688-1.722 1.451-2.972 2.288v.016c.116-.01.275-.016.477-.016.212-.01.418-.016.619-.016.212-.01.371-.016.477-.016h3.672v1.192h-7.057zm9.266 0v-1.033a56.557 56.557 0 0 0 2.622-2.034c.71-.583 1.277-1.113 1.701-1.589.424-.477.726-.927.906-1.351a3.5 3.5 0 0 0 .27-1.351c0-.625-.201-1.129-.604-1.51-.392-.392-.932-.588-1.621-.588-.72 0-1.298.238-1.732.715-.435.466-.689 1.091-.763 1.875l-1.113-.667a4.19 4.19 0 0 1 .588-1.621 3.233 3.233 0 0 1 1.224-1.097c.519-.265 1.134-.397 1.844-.397.54 0 1.022.079 1.446.238.435.159.805.387 1.113.684.307.286.54.63.699 1.033.169.402.254.847.254 1.335 0 .657-.159 1.303-.477 1.939-.317.625-.842 1.282-1.573 1.971-.731.688-1.722 1.451-2.972 2.288v.016c.116-.01.275-.016.477-.016.212-.01.418-.016.62-.016.211-.01.37-.016.476-.016h3.672v1.192h-7.057zm13.033.159c-1.187 0-2.135-.461-2.845-1.382-.71-.922-1.065-2.263-1.065-4.021 0-1.759.355-3.1 1.065-4.021.71-.922 1.658-1.383 2.845-1.383 1.197 0 2.145.461 2.845 1.383.71.921 1.065 2.262 1.065 4.021 0 1.758-.355 3.099-1.065 4.021-.7.921-1.648 1.382-2.845 1.382zm0-1.144c.561 0 1.033-.159 1.414-.477.392-.328.684-.81.875-1.446.201-.636.301-1.415.301-2.336 0-.922-.1-1.701-.301-2.337-.191-.636-.483-1.112-.875-1.43-.381-.329-.853-.493-1.414-.493-.562 0-1.039.164-1.431.493-.381.318-.672.794-.874 1.43-.19.636-.286 1.415-.286 2.337 0 .921.096 1.7.286 2.336.202.636.493 1.118.874 1.446.392.318.869.477 1.431.477zm11.839.985v-7.946h1.112l.08 1.239c.286-.487.657-.842 1.112-1.065a3.297 3.297 0 0 1 1.431-.333 3.45 3.45 0 0 1 1.589.381c.498.254.88.647 1.144 1.176.17-.36.408-.651.716-.874a3.086 3.086 0 0 1 1.001-.508c.371-.117.72-.175 1.049-.175.509 0 .991.106 1.446.318.466.212.848.54 1.145.985.296.445.445 1.017.445 1.717v5.085h-1.272v-4.958c0-.721-.18-1.24-.54-1.558-.361-.318-.806-.477-1.335-.477a2.289 2.289 0 0 0-2.035 1.192c-.212.392-.318.874-.318 1.447v4.354h-1.271v-4.958c0-.721-.18-1.24-.54-1.558-.361-.318-.806-.477-1.336-.477-.349 0-.709.096-1.08.286-.361.18-.662.472-.906.875-.244.402-.366.932-.366 1.589v4.243h-1.271zm16.356-11.602v9.584c0 .403.074.683.223.842.148.149.386.223.715.223.212 0 .387-.016.524-.048.138-.032.324-.09.557-.175l-.207 1.113a2.274 2.274 0 0 1-.556.159 3.033 3.033 0 0 1-.62.063c-.646 0-1.129-.174-1.446-.524-.308-.35-.461-.885-.461-1.605v-9.632h1.271zm4.286 9.695c.254 0 .466.069.636.207.18.127.318.307.413.54.095.223.143.488.143.795a2.9 2.9 0 0 1-.191 1.033 2.746 2.746 0 0 1-.556.938 3.04 3.04 0 0 1-.985.715l-.668-.62a2.4 2.4 0 0 0 .747-.397c.223-.17.403-.361.541-.572.137-.212.227-.43.27-.652l-.064-.032a.562.562 0 0 1-.159.08.973.973 0 0 1-.286.031.84.84 0 0 1-.397-.111 1.048 1.048 0 0 1-.334-.318c-.095-.148-.143-.339-.143-.572 0-.191.048-.365.143-.524.095-.17.217-.302.366-.398.159-.095.333-.143.524-.143zm10.52 1.907v-8.264l.032-.652c-.36.35-.779.657-1.256.922-.476.254-.964.44-1.462.556l-.334-1.16c.191-.021.43-.09.716-.207a8.572 8.572 0 0 0 1.827-1.064 3.22 3.22 0 0 0 .636-.62h1.113v10.489h-1.272zm9.388-11.602-4.864 12.715h-1.192l4.864-12.715h1.192zm5.307.954c.561 0 1.049.079 1.462.238.424.149.79.387 1.097.715.307.318.567.737.779 1.256l-1.177.556c-.158-.487-.418-.869-.778-1.144-.35-.286-.837-.429-1.463-.429-.455 0-.858.116-1.207.349a2.81 2.81 0 0 0-.89.938c-.244.403-.43.874-.557 1.415a8.319 8.319 0 0 0-.175 1.748V270.595h.064c.117-.456.328-.821.636-1.097a2.928 2.928 0 0 1 1.065-.619 3.61 3.61 0 0 1 1.176-.207c.71 0 1.329.138 1.859.413.53.276.938.668 1.224 1.176.297.509.445 1.113.445 1.812 0 .689-.148 1.293-.445 1.812a2.986 2.986 0 0 1-1.256 1.176c-.529.276-1.165.413-1.907.413-.879 0-1.621-.233-2.225-.699-.604-.466-1.059-1.102-1.367-1.907-.307-.816-.461-1.748-.461-2.797 0-1.177.181-2.162.541-2.957.36-.805.847-1.414 1.462-1.827a3.714 3.714 0 0 1 2.098-.62zm-.064 5.229c-.455 0-.858.095-1.208.286-.339.18-.604.434-.794.763a2.116 2.116 0 0 0-.286 1.112c0 .403.1.774.302 1.113.201.328.471.593.81.794.35.191.742.287 1.176.287.721 0 1.282-.191 1.685-.573.403-.392.604-.932.604-1.621 0-.445-.09-.826-.27-1.144a1.764 1.764 0 0 0-.779-.747c-.339-.18-.752-.27-1.24-.27z" fill="#202020"/>
    <path d="M328.105 274.642v-8.557l.036-.939c-.417.38-.883.712-1.398.994a5.658 5.658 0 0 1-1.583.589l-.331-2.135c.282-.024.595-.104.938-.239a9.396 9.396 0 0 0 2.062-1.16c.306-.233.539-.466.699-.699h2.061v12.146h-2.484zm6.625-2.816c.491 0 .877.135 1.159.405.295.27.442.632.442 1.086 0 .466-.147.834-.442 1.104-.282.258-.668.387-1.159.387s-.883-.129-1.178-.387c-.282-.27-.423-.638-.423-1.104 0-.454.141-.816.423-1.086.295-.27.687-.405 1.178-.405zm8.146 3c-1.558 0-2.761-.527-3.607-1.583-.835-1.055-1.252-2.613-1.252-4.674 0-2.061.417-3.619 1.252-4.674.846-1.055 2.049-1.583 3.607-1.583 1.558 0 2.754.528 3.588 1.583.847 1.055 1.27 2.613 1.27 4.674 0 2.061-.423 3.619-1.27 4.674-.834 1.056-2.03 1.583-3.588 1.583zm0-2.043c.527 0 .957-.147 1.288-.441.343-.307.601-.767.773-1.381.172-.625.257-1.423.257-2.392 0-.969-.085-1.76-.257-2.374-.172-.626-.43-1.086-.773-1.38-.331-.307-.761-.46-1.288-.46-.528 0-.963.153-1.307.46-.343.294-.601.754-.773 1.38-.159.614-.239 1.405-.239 2.374 0 .969.08 1.767.239 2.392.172.614.43 1.074.773 1.381.344.294.779.441 1.307.441zm11.699 2.043c-1.558 0-2.76-.527-3.607-1.583-.834-1.055-1.251-2.613-1.251-4.674 0-2.061.417-3.619 1.251-4.674.847-1.055 2.049-1.583 3.607-1.583 1.558 0 2.755.528 3.589 1.583.846 1.055 1.27 2.613 1.27 4.674 0 2.061-.424 3.619-1.27 4.674-.834 1.056-2.031 1.583-3.589 1.583zm0-2.043c.528 0 .957-.147 1.288-.441.344-.307.602-.767.773-1.381.172-.625.258-1.423.258-2.392 0-.969-.086-1.76-.258-2.374-.171-.626-.429-1.086-.773-1.38-.331-.307-.76-.46-1.288-.46-.527 0-.963.153-1.306.46-.344.294-.602.754-.773 1.38-.16.614-.24 1.405-.24 2.374 0 .969.08 1.767.24 2.392.171.614.429 1.074.773 1.381.343.294.779.441 1.306.441zm11.7 2.043c-1.558 0-2.761-.527-3.607-1.583-.834-1.055-1.252-2.613-1.252-4.674 0-2.061.418-3.619 1.252-4.674.846-1.055 2.049-1.583 3.607-1.583 1.558 0 2.754.528 3.588 1.583.847 1.055 1.27 2.613 1.27 4.674 0 2.061-.423 3.619-1.27 4.674-.834 1.056-2.03 1.583-3.588 1.583zm0-2.043c.527 0 .957-.147 1.288-.441.344-.307.601-.767.773-1.381.172-.625.258-1.423.258-2.392 0-.969-.086-1.76-.258-2.374-.172-.626-.429-1.086-.773-1.38-.331-.307-.761-.46-1.288-.46-.528 0-.963.153-1.307.46-.343.294-.601.754-.773 1.38-.159.614-.239 1.405-.239 2.374 0 .969.08 1.767.239 2.392.172.614.43 1.074.773 1.381.344.294.779.441 1.307.441zm12.797 1.859v-9.201h2.19l.166 1.803c.245-.638.601-1.129 1.067-1.472.479-.344 1.074-.515 1.785-.515.209 0 .399.018.571.055.172.037.313.086.423.147l-.294 2.116a1.93 1.93 0 0 0-.46-.11 4.947 4.947 0 0 0-.681-.037c-.368 0-.724.092-1.068.276a2.064 2.064 0 0 0-.846.81c-.221.356-.331.81-.331 1.362v4.766h-2.522zm11.193.184c-.932 0-1.785-.166-2.558-.497-.761-.331-1.38-.797-1.859-1.398l1.454-1.473c.295.442.687.804 1.178 1.086.491.282 1.074.423 1.748.423.479 0 .859-.067 1.141-.202.295-.147.442-.374.442-.681a.676.676 0 0 0-.202-.497c-.135-.147-.405-.264-.81-.349l-1.62-.332c-1.067-.221-1.828-.552-2.282-.993-.441-.454-.662-1.037-.662-1.749 0-.503.147-.975.442-1.417.306-.441.76-.797 1.361-1.067.602-.282 1.35-.423 2.246-.423.92 0 1.717.147 2.392.441.687.282 1.227.706 1.619 1.27l-1.509 1.472a2.634 2.634 0 0 0-1.067-.975 2.813 2.813 0 0 0-1.362-.35c-.343 0-.638.037-.883.111-.246.073-.43.178-.552.313a.644.644 0 0 0-.184.478c0 .196.086.368.257.515.172.135.485.252.939.35l1.877.386c.908.184 1.558.497 1.951.939.392.429.589.951.589 1.564 0 .589-.16 1.117-.479 1.583-.307.454-.767.816-1.38 1.086-.601.257-1.343.386-2.227.386zm9.538 0c-.76 0-1.441-.19-2.042-.57-.589-.381-1.055-.927-1.399-1.638-.331-.712-.497-1.565-.497-2.558 0-1.019.178-1.884.534-2.595.356-.724.834-1.27 1.435-1.638a3.837 3.837 0 0 1 2.061-.57c.81 0 1.479.233 2.006.699.528.466.871 1.067 1.031 1.803l-.239.295v-6.644h2.521v13.232h-2.264l-.165-2.797.313.147a3.426 3.426 0 0 1-.589 1.509 3.193 3.193 0 0 1-1.16.975c-.466.234-.981.35-1.546.35zm.737-1.932c.441 0 .822-.111 1.141-.331.318-.234.564-.571.736-1.013.184-.441.276-.969.276-1.582 0-.589-.086-1.086-.258-1.491-.172-.417-.417-.736-.736-.957a1.922 1.922 0 0 0-1.123-.331c-.687 0-1.227.245-1.619.736-.38.478-.571 1.184-.571 2.116 0 .933.191 1.644.571 2.135.38.479.908.718 1.583.718z" fill="#303030"/>
    <g clip-path="url(#c0ifj38wta)">
        <path d="M42.24 127.148a8.764 8.764 0 0 0-8.783 8.783 8.764 8.764 0 0 0 8.783 8.783 8.764 8.764 0 0 0 8.784-8.783 8.764 8.764 0 0 0-8.784-8.783zm0 15.835c-3.876 0-7.051-3.176-7.051-7.052 0-3.876 3.175-7.051 7.051-7.051 3.877 0 7.052 3.175 7.052 7.051 0 3.876-3.175 7.052-7.052 7.052zm3.175-11.464-3.175 3.175-3.175-3.175-1.237 1.237 3.175 3.175-3.175 3.175 1.237 1.237 3.175-3.175 3.175 3.175 1.238-1.237-3.176-3.175 3.176-3.175-1.237-1.237z" fill="#00A79D"/>
    </g>
    <path d="M72.844 398.507c.922 0 1.716.191 2.384.572.667.371 1.224.922 1.669 1.653l-1.065.826c-.392-.678-.837-1.155-1.335-1.43-.488-.286-1.081-.429-1.78-.429-.562 0-1.028.079-1.399.238-.36.159-.625.371-.795.636a1.54 1.54 0 0 0-.254.874c0 .371.116.699.35.986.233.275.699.492 1.398.651l2.273.509c1.007.222 1.706.561 2.098 1.017.403.445.604 1.001.604 1.669 0 .593-.17 1.123-.509 1.589-.328.456-.794.811-1.398 1.065-.604.254-1.314.381-2.13.381-.763 0-1.436-.1-2.019-.302a4.87 4.87 0 0 1-1.478-.842 4.852 4.852 0 0 1-1.017-1.176l1.113-.906c.201.403.46.758.779 1.065.317.307.699.546 1.144.715.456.17.975.254 1.557.254.54 0 1.007-.063 1.4-.19.402-.138.709-.334.92-.588a1.48 1.48 0 0 0 .319-.954 1.37 1.37 0 0 0-.334-.906c-.222-.275-.641-.482-1.256-.62l-2.463-.556c-.646-.148-1.17-.35-1.574-.604-.392-.265-.678-.572-.858-.922a2.69 2.69 0 0 1-.254-1.16c0-.562.154-1.075.46-1.542.319-.476.769-.858 1.352-1.144.593-.286 1.293-.429 2.098-.429zm6.574 10.649v-11.603h1.271v4.848c.276-.477.641-.821 1.097-1.033a3.497 3.497 0 0 1 1.494-.318c.572 0 1.091.111 1.557.334.467.211.837.54 1.113.985.286.445.43 1.012.43 1.701v5.086h-1.272v-4.641c0-.88-.191-1.489-.573-1.828-.37-.35-.831-.525-1.382-.525-.382 0-.763.09-1.145.271-.381.18-.699.476-.953.89-.244.402-.366.943-.366 1.621v4.212h-1.271zm13.13-8.106c.752 0 1.415.164 1.987.493a3.425 3.425 0 0 1 1.367 1.43c.328.614.492 1.351.492 2.209 0 .858-.164 1.6-.493 2.225a3.452 3.452 0 0 1-1.366 1.415c-.572.328-1.235.492-1.987.492-.742 0-1.404-.164-1.987-.492a3.452 3.452 0 0 1-1.367-1.415c-.328-.625-.492-1.367-.492-2.225 0-.858.164-1.595.492-2.209a3.425 3.425 0 0 1 1.367-1.43c.583-.329 1.245-.493 1.987-.493zm0 1.096c-.54 0-1.001.122-1.383.366a2.416 2.416 0 0 0-.89 1.049c-.201.445-.302.985-.302 1.621 0 .625.1 1.166.302 1.621.212.456.509.806.89 1.049.382.244.843.366 1.383.366s1.001-.122 1.383-.366c.381-.243.672-.593.874-1.049.212-.455.318-.996.318-1.621 0-.636-.106-1.176-.318-1.621a2.318 2.318 0 0 0-.874-1.049c-.382-.244-.843-.366-1.383-.366zm9.53-1.096c.752 0 1.414.164 1.987.493a3.425 3.425 0 0 1 1.366 1.43c.329.614.493 1.351.493 2.209 0 .858-.164 1.6-.493 2.225a3.452 3.452 0 0 1-1.366 1.415c-.573.328-1.235.492-1.987.492-.742 0-1.404-.164-1.987-.492a3.452 3.452 0 0 1-1.367-1.415c-.328-.625-.492-1.367-.492-2.225 0-.858.164-1.595.492-2.209a3.425 3.425 0 0 1 1.367-1.43c.583-.329 1.245-.493 1.987-.493zm0 1.096c-.54 0-1.001.122-1.383.366a2.419 2.419 0 0 0-.89 1.049c-.201.445-.302.985-.302 1.621 0 .625.1 1.166.302 1.621.212.456.509.806.89 1.049.382.244.843.366 1.383.366s1.001-.122 1.383-.366c.381-.243.672-.593.874-1.049.212-.455.318-.996.318-1.621 0-.636-.106-1.176-.318-1.621a2.324 2.324 0 0 0-.874-1.049c-.382-.244-.843-.366-1.383-.366zm7.976-3.194v8.01c0 .392.111.684.333.874.223.191.509.286.859.286.307 0 .572-.053.794-.158.223-.106.424-.249.604-.43l.445 1.065a2.654 2.654 0 0 1-.874.525 3.16 3.16 0 0 1-1.144.19c-.403 0-.779-.068-1.129-.206a1.91 1.91 0 0 1-.842-.684c-.201-.317-.307-.731-.318-1.239v-7.883l1.272-.35zm2.892 2.257v1.096h-5.753v-1.096h5.753zm5.212 8.105c-.752 0-1.425-.164-2.018-.492a3.454 3.454 0 0 1-1.367-1.415c-.328-.625-.493-1.367-.493-2.225 0-.858.165-1.595.493-2.209.329-.625.779-1.102 1.351-1.43.572-.329 1.224-.493 1.955-.493.742 0 1.372.159 1.891.477.53.317.933.752 1.208 1.303.276.54.413 1.15.413 1.828 0 .18-.005.344-.015.492a3.883 3.883 0 0 1-.048.398h-6.421v-1.129h5.865l-.652.127c0-.762-.212-1.351-.636-1.764-.413-.413-.959-.62-1.637-.62-.519 0-.969.122-1.351.366-.371.233-.662.577-.874 1.033-.201.445-.302.985-.302 1.621 0 .625.106 1.166.318 1.621.212.456.509.806.89 1.049.392.233.858.35 1.399.35.582 0 1.054-.111 1.414-.334.371-.222.668-.524.89-.906l1.001.588a3.3 3.3 0 0 1-.778.938 3.376 3.376 0 0 1-1.097.62 4.401 4.401 0 0 1-1.399.206zm5.852-.158v-7.947h1.033l.174 1.303c.223-.487.546-.853.97-1.097.434-.243.959-.365 1.573-.365.138 0 .287.01.445.032.17.021.313.063.43.127l-.223 1.16a2.022 2.022 0 0 0-.381-.095 4.007 4.007 0 0 0-.588-.032 2.03 2.03 0 0 0-1.002.286c-.328.191-.604.482-.826.874-.223.382-.334.869-.334 1.462v4.292h-1.271zm14.615.158c-.932 0-1.685-.211-2.257-.635-.561-.424-.996-1.012-1.303-1.764l1.24-.652c.169.551.429 1.001.778 1.351.361.339.885.508 1.574.508.487 0 .9-.09 1.24-.27.349-.18.619-.434.81-.763.191-.339.286-.741.286-1.208 0-.498-.09-.911-.27-1.239a1.683 1.683 0 0 0-.747-.763c-.328-.17-.731-.254-1.208-.254-.339 0-.657.037-.954.111a2.38 2.38 0 0 0-.778.318 2.109 2.109 0 0 0-.604.588l-1.113-.207.62-5.769h5.897v1.192h-4.816l-.413 3.306-.032.143h.032c.254-.265.577-.477.969-.636.403-.159.88-.238 1.43-.238.668 0 1.245.143 1.733.429.498.275.885.667 1.16 1.176.276.508.413 1.102.413 1.78 0 .54-.09 1.028-.27 1.462-.18.435-.434.805-.763 1.113-.328.296-.72.524-1.176.683a4.368 4.368 0 0 1-1.478.238zm9.632 0c-1.187 0-2.135-.46-2.845-1.382-.71-.922-1.065-2.262-1.065-4.021s.355-3.1 1.065-4.021c.71-.922 1.658-1.383 2.845-1.383 1.197 0 2.146.461 2.845 1.383.71.921 1.065 2.262 1.065 4.021s-.355 3.099-1.065 4.021c-.699.922-1.648 1.382-2.845 1.382zm0-1.144c.562 0 1.033-.159 1.415-.477.392-.328.683-.81.874-1.446.201-.636.302-1.415.302-2.336 0-.922-.101-1.701-.302-2.337-.191-.635-.482-1.112-.874-1.43-.382-.329-.853-.493-1.415-.493s-1.038.164-1.43.493c-.382.318-.673.795-.875 1.43-.19.636-.286 1.415-.286 2.337 0 .921.096 1.7.286 2.336.202.636.493 1.118.875 1.446.392.318.868.477 1.43.477zm11.839.986v-7.947h1.112l.08 1.239c.286-.487.657-.842 1.113-1.064a3.28 3.28 0 0 1 1.43-.334 3.45 3.45 0 0 1 1.589.381c.498.255.88.647 1.145 1.176.169-.36.408-.651.715-.874a3.086 3.086 0 0 1 1.001-.508 3.494 3.494 0 0 1 1.049-.175c.509 0 .991.106 1.446.318.467.212.848.54 1.145.985.296.445.445 1.017.445 1.717v5.086h-1.272v-4.959c0-.721-.18-1.24-.54-1.558-.36-.318-.805-.477-1.335-.477-.413 0-.8.101-1.16.302a2.284 2.284 0 0 0-.875.89c-.211.392-.317.875-.317 1.447v4.355h-1.272v-4.959c0-.721-.18-1.24-.54-1.558-.361-.318-.806-.477-1.335-.477-.35 0-.71.096-1.081.286-.36.181-.662.472-.906.875-.244.402-.366.932-.366 1.589v4.244h-1.271zm16.356-11.603v9.584c0 .403.075.683.223.842.148.149.387.223.715.223.212 0 .387-.016.525-.048.137-.032.323-.09.556-.175l-.207 1.113a2.274 2.274 0 0 1-.556.159 3.026 3.026 0 0 1-.62.063c-.646 0-1.128-.174-1.446-.524-.307-.35-.461-.885-.461-1.605v-9.632h1.271zm4.286 9.695c.255 0 .466.069.636.207.18.127.318.307.413.54.096.223.143.488.143.795 0 .35-.063.694-.19 1.033a2.749 2.749 0 0 1-.557.938 3.03 3.03 0 0 1-.985.715l-.668-.62a2.4 2.4 0 0 0 .747-.397c.223-.17.403-.36.541-.572.137-.212.228-.43.27-.652l-.064-.032a.562.562 0 0 1-.159.08.973.973 0 0 1-.286.031.84.84 0 0 1-.397-.111 1.058 1.058 0 0 1-.334-.318c-.095-.148-.143-.339-.143-.572 0-.191.048-.365.143-.524a1.11 1.11 0 0 1 .366-.398c.159-.095.334-.143.524-.143zm10.52 1.908V400.891l.032-.652c-.36.35-.779.657-1.255.922-.477.254-.965.44-1.463.556l-.333-1.16c.19-.021.429-.09.715-.206a8.537 8.537 0 0 0 1.828-1.065 3.24 3.24 0 0 0 .635-.62h1.113v10.49h-1.272zm9.388-11.603-4.864 12.715h-1.192l4.864-12.715h1.192zm1.613 11.603v-1.034a56.648 56.648 0 0 0 2.623-2.034c.71-.583 1.277-1.112 1.701-1.589.423-.477.725-.927.905-1.351.181-.435.271-.885.271-1.351 0-.625-.202-1.129-.604-1.51-.392-.392-.933-.588-1.621-.588-.721 0-1.298.238-1.733.715-.434.466-.689 1.091-.763 1.876l-1.112-.668a4.159 4.159 0 0 1 .588-1.621 3.218 3.218 0 0 1 1.224-1.097c.519-.265 1.133-.397 1.843-.397a4.1 4.1 0 0 1 1.447.238 3.12 3.12 0 0 1 1.112.684c.307.286.54.63.699 1.033.17.402.255.847.255 1.335 0 .657-.159 1.303-.477 1.939-.318.625-.842 1.282-1.574 1.971-.731.688-1.721 1.451-2.972 2.288v.016c.117-.01.276-.016.477-.016a13.2 13.2 0 0 1 .62-.016c.212-.01.371-.015.477-.015h3.671v1.192h-7.057zm13.426 0v-2.75h-5.117v-.938l4.784-6.802h1.605v6.643h1.859v1.097h-1.859v2.75h-1.272zm-3.766-3.847h3.766v-3.925c0-.276.006-.557.016-.843.021-.286.037-.567.048-.842h-.032a9.934 9.934 0 0 1-.493.89c-.201.328-.386.614-.556.858l-2.749 3.862z" fill="#202020"/>
    <path d="M322.46 408.483v-1.712a47.83 47.83 0 0 0 2.797-2.024c.773-.614 1.393-1.178 1.859-1.693.479-.528.822-1.025 1.031-1.491.221-.466.331-.932.331-1.399 0-.564-.172-1.024-.515-1.38-.344-.368-.828-.552-1.454-.552-.687 0-1.227.233-1.62.699-.38.467-.589 1.129-.625 1.988l-2.19-.828c.061-.834.282-1.54.662-2.116a3.761 3.761 0 0 1 1.583-1.344c.675-.319 1.448-.478 2.319-.478.748 0 1.392.104 1.932.312.552.209 1.006.497 1.362.865.368.356.644.767.828 1.233.184.467.276.951.276 1.454 0 .785-.196 1.528-.589 2.227-.38.699-.969 1.393-1.767 2.08-.797.687-1.809 1.41-3.036 2.171v.019c.184-.013.405-.025.662-.037.27-.013.546-.019.829-.019.282-.012.527-.018.736-.018h3.349v2.043h-8.76zm12.272-2.816c.49 0 .877.135 1.159.405.295.27.442.632.442 1.086 0 .466-.147.834-.442 1.104-.282.257-.669.386-1.159.386-.491 0-.884-.129-1.178-.386-.282-.27-.423-.638-.423-1.104 0-.454.141-.816.423-1.086.294-.27.687-.405 1.178-.405zm8.145 3c-1.558 0-2.76-.528-3.607-1.583-.834-1.055-1.251-2.613-1.251-4.674 0-2.061.417-3.62 1.251-4.675.847-1.055 2.049-1.582 3.607-1.582 1.558 0 2.755.527 3.589 1.582.846 1.055 1.27 2.614 1.27 4.675s-.424 3.619-1.27 4.674c-.834 1.055-2.031 1.583-3.589 1.583zm0-2.043c.528 0 .957-.147 1.289-.442.343-.306.601-.767.772-1.38.172-.626.258-1.423.258-2.392 0-.97-.086-1.761-.258-2.374-.171-.626-.429-1.086-.772-1.381-.332-.306-.761-.46-1.289-.46-.527 0-.963.154-1.306.46-.344.295-.601.755-.773 1.381-.16.613-.239 1.404-.239 2.374 0 .969.079 1.766.239 2.392.172.613.429 1.074.773 1.38.343.295.779.442 1.306.442zm11.7 2.043c-1.558 0-2.761-.528-3.607-1.583-.834-1.055-1.251-2.613-1.251-4.674 0-2.061.417-3.62 1.251-4.675.846-1.055 2.049-1.582 3.607-1.582 1.558 0 2.754.527 3.589 1.582.846 1.055 1.269 2.614 1.269 4.675s-.423 3.619-1.269 4.674c-.835 1.055-2.031 1.583-3.589 1.583zm0-2.043c.527 0 .957-.147 1.288-.442.344-.306.601-.767.773-1.38.172-.626.258-1.423.258-2.392 0-.97-.086-1.761-.258-2.374-.172-.626-.429-1.086-.773-1.381-.331-.306-.761-.46-1.288-.46-.528 0-.963.154-1.307.46-.343.295-.601.755-.773 1.381-.159.613-.239 1.404-.239 2.374 0 .969.08 1.766.239 2.392.172.613.43 1.074.773 1.38.344.295.779.442 1.307.442zm11.7 2.043c-1.559 0-2.761-.528-3.607-1.583-.835-1.055-1.252-2.613-1.252-4.674 0-2.061.417-3.62 1.252-4.675.846-1.055 2.048-1.582 3.607-1.582 1.558 0 2.754.527 3.588 1.582.847 1.055 1.27 2.614 1.27 4.675s-.423 3.619-1.27 4.674c-.834 1.055-2.03 1.583-3.588 1.583zm0-2.043c.527 0 .956-.147 1.288-.442.343-.306.601-.767.773-1.38.171-.626.257-1.423.257-2.392 0-.97-.086-1.761-.257-2.374-.172-.626-.43-1.086-.773-1.381-.332-.306-.761-.46-1.288-.46-.528 0-.964.154-1.307.46-.344.295-.601.755-.773 1.381-.16.613-.239 1.404-.239 2.374 0 .969.079 1.766.239 2.392.172.613.429 1.074.773 1.38.343.295.779.442 1.307.442zm12.797 1.859v-9.202h2.19l.166 1.804c.245-.638.601-1.129 1.067-1.473.479-.343 1.074-.515 1.785-.515.209 0 .399.019.571.055.171.037.312.086.423.148l-.295 2.116a1.963 1.963 0 0 0-.46-.111 5.117 5.117 0 0 0-.681-.036c-.368 0-.723.092-1.067.276a2.05 2.05 0 0 0-.846.809c-.221.356-.332.81-.332 1.362v4.767h-2.521zm11.193.184c-.933 0-1.785-.166-2.558-.497a4.753 4.753 0 0 1-1.859-1.399l1.454-1.472c.294.442.687.804 1.178 1.086.491.282 1.073.423 1.748.423.479 0 .859-.067 1.141-.202.294-.148.442-.375.442-.681a.675.675 0 0 0-.203-.497c-.135-.147-.405-.264-.809-.35l-1.62-.331c-1.067-.221-1.828-.552-2.282-.994-.442-.454-.662-1.037-.662-1.748 0-.503.147-.976.441-1.417.307-.442.761-.798 1.362-1.068.601-.282 1.35-.423 2.245-.423.92 0 1.718.147 2.393.442.687.282 1.227.705 1.619 1.27l-1.509 1.472a2.636 2.636 0 0 0-1.067-.976 2.818 2.818 0 0 0-1.362-.349c-.344 0-.638.037-.883.11-.246.074-.43.178-.553.313a.65.65 0 0 0-.184.479c0 .196.086.368.258.515.172.135.485.251.939.35l1.877.386c.908.184 1.558.497 1.95.939.393.429.589.95.589 1.564 0 .589-.159 1.116-.478 1.582-.307.454-.767.816-1.38 1.086-.602.258-1.344.387-2.227.387zm9.538 0c-.761 0-1.441-.19-2.043-.571-.589-.38-1.055-.926-1.398-1.638-.332-.711-.497-1.564-.497-2.558 0-1.018.178-1.883.534-2.595.355-.723.834-1.269 1.435-1.637a3.824 3.824 0 0 1 2.061-.571c.81 0 1.478.233 2.006.699.528.467.871 1.068 1.031 1.804l-.24.294v-6.643h2.522v13.232h-2.264l-.166-2.798.313.148a3.424 3.424 0 0 1-.589 1.509 3.182 3.182 0 0 1-1.159.975 3.41 3.41 0 0 1-1.546.35zm.736-1.933c.442 0 .822-.11 1.141-.331.319-.233.565-.57.736-1.012.184-.442.276-.969.276-1.583 0-.589-.086-1.085-.257-1.49-.172-.417-.417-.736-.736-.957a1.924 1.924 0 0 0-1.123-.332c-.687 0-1.227.246-1.619.737-.381.478-.571 1.183-.571 2.116 0 .932.19 1.644.571 2.135.38.478.907.717 1.582.717z" fill="#303030"/>
    <path stroke="#E4E4E4" stroke-width=".837" d="M33.457 367.642h373.08"/>
    <path d="M322.46 142.475v-1.711a48.268 48.268 0 0 0 2.797-2.025c.773-.613 1.393-1.178 1.859-1.693.479-.527.822-1.024 1.031-1.49.221-.467.331-.933.331-1.399 0-.564-.172-1.025-.515-1.38-.344-.368-.828-.552-1.454-.552-.687 0-1.227.233-1.62.699-.38.466-.589 1.129-.625 1.987l-2.19-.828c.061-.834.282-1.539.662-2.116a3.752 3.752 0 0 1 1.583-1.343c.675-.319 1.448-.479 2.319-.479.748 0 1.392.104 1.932.313.552.208 1.006.497 1.362.865.368.356.644.767.828 1.233.184.466.276.951.276 1.454 0 .785-.196 1.527-.589 2.226-.38.7-.969 1.393-1.767 2.08-.797.687-1.809 1.411-3.036 2.172v.018c.184-.012.405-.025.662-.037.27-.012.546-.018.829-.018.282-.013.527-.019.736-.019h3.349v2.043h-8.76zm12.272-2.816c.49 0 .877.135 1.159.405.295.27.442.632.442 1.086 0 .466-.147.834-.442 1.104-.282.258-.669.387-1.159.387-.491 0-.884-.129-1.178-.387-.282-.27-.423-.638-.423-1.104 0-.454.141-.816.423-1.086.294-.27.687-.405 1.178-.405zm8.145 3c-1.558 0-2.76-.527-3.607-1.583-.834-1.055-1.251-2.613-1.251-4.674 0-2.061.417-3.619 1.251-4.674.847-1.055 2.049-1.583 3.607-1.583 1.558 0 2.755.528 3.589 1.583.846 1.055 1.27 2.613 1.27 4.674 0 2.061-.424 3.619-1.27 4.674-.834 1.056-2.031 1.583-3.589 1.583zm0-2.043c.528 0 .957-.147 1.289-.441.343-.307.601-.767.772-1.381.172-.625.258-1.423.258-2.392 0-.969-.086-1.76-.258-2.374-.171-.626-.429-1.086-.772-1.38-.332-.307-.761-.46-1.289-.46-.527 0-.963.153-1.306.46-.344.294-.601.754-.773 1.38-.16.614-.239 1.405-.239 2.374 0 .969.079 1.767.239 2.392.172.614.429 1.074.773 1.381.343.294.779.441 1.306.441zm11.7 2.043c-1.558 0-2.761-.527-3.607-1.583-.834-1.055-1.251-2.613-1.251-4.674 0-2.061.417-3.619 1.251-4.674.846-1.055 2.049-1.583 3.607-1.583 1.558 0 2.754.528 3.589 1.583.846 1.055 1.269 2.613 1.269 4.674 0 2.061-.423 3.619-1.269 4.674-.835 1.056-2.031 1.583-3.589 1.583zm0-2.043c.527 0 .957-.147 1.288-.441.344-.307.601-.767.773-1.381.172-.625.258-1.423.258-2.392 0-.969-.086-1.76-.258-2.374-.172-.626-.429-1.086-.773-1.38-.331-.307-.761-.46-1.288-.46-.528 0-.963.153-1.307.46-.343.294-.601.754-.773 1.38-.159.614-.239 1.405-.239 2.374 0 .969.08 1.767.239 2.392.172.614.43 1.074.773 1.381.344.294.779.441 1.307.441zm11.7 2.043c-1.559 0-2.761-.527-3.607-1.583-.835-1.055-1.252-2.613-1.252-4.674 0-2.061.417-3.619 1.252-4.674.846-1.055 2.048-1.583 3.607-1.583 1.558 0 2.754.528 3.588 1.583.847 1.055 1.27 2.613 1.27 4.674 0 2.061-.423 3.619-1.27 4.674-.834 1.056-2.03 1.583-3.588 1.583zm0-2.043c.527 0 .956-.147 1.288-.441.343-.307.601-.767.773-1.381.171-.625.257-1.423.257-2.392 0-.969-.086-1.76-.257-2.374-.172-.626-.43-1.086-.773-1.38-.332-.307-.761-.46-1.288-.46-.528 0-.964.153-1.307.46-.344.294-.601.754-.773 1.38-.16.614-.239 1.405-.239 2.374 0 .969.079 1.767.239 2.392.172.614.429 1.074.773 1.381.343.294.779.441 1.307.441zm12.797 1.859v-9.201h2.19l.166 1.803c.245-.638.601-1.129 1.067-1.472.479-.344 1.074-.515 1.785-.515.209 0 .399.018.571.055.171.037.312.086.423.147l-.295 2.116a1.918 1.918 0 0 0-.46-.11 4.927 4.927 0 0 0-.681-.037c-.368 0-.723.092-1.067.276a2.058 2.058 0 0 0-.846.81c-.221.356-.332.81-.332 1.362v4.766h-2.521zm11.193.184c-.933 0-1.785-.165-2.558-.497-.761-.331-1.38-.797-1.859-1.398l1.454-1.473c.294.442.687.804 1.178 1.086.491.282 1.073.423 1.748.423.479 0 .859-.067 1.141-.202.294-.147.442-.374.442-.681a.677.677 0 0 0-.203-.497c-.135-.147-.405-.264-.809-.349l-1.62-.332c-1.067-.221-1.828-.552-2.282-.993-.442-.454-.662-1.037-.662-1.749 0-.503.147-.975.441-1.417.307-.441.761-.797 1.362-1.067.601-.282 1.35-.423 2.245-.423.92 0 1.718.147 2.393.441.687.282 1.227.706 1.619 1.27l-1.509 1.472a2.64 2.64 0 0 0-1.067-.975 2.819 2.819 0 0 0-1.362-.35c-.344 0-.638.037-.883.111-.246.073-.43.178-.553.313a.648.648 0 0 0-.184.478c0 .196.086.368.258.515.172.135.485.252.939.35l1.877.386c.908.184 1.558.497 1.95.939.393.429.589.951.589 1.564 0 .589-.159 1.117-.478 1.583-.307.454-.767.816-1.38 1.086-.602.257-1.344.386-2.227.386zm9.538 0c-.761 0-1.441-.19-2.043-.57-.589-.381-1.055-.927-1.398-1.638-.332-.712-.497-1.564-.497-2.558 0-1.019.178-1.883.534-2.595.355-.724.834-1.27 1.435-1.638.613-.38 1.3-.57 2.061-.57.81 0 1.478.233 2.006.699.528.466.871 1.067 1.031 1.803l-.24.295v-6.644h2.522v13.232h-2.264l-.166-2.797.313.147a3.415 3.415 0 0 1-.589 1.509 3.182 3.182 0 0 1-1.159.975c-.466.234-.982.35-1.546.35zm.736-1.932c.442 0 .822-.111 1.141-.331.319-.234.565-.571.736-1.013.184-.441.276-.969.276-1.582 0-.589-.086-1.086-.257-1.491-.172-.417-.417-.736-.736-.957a1.924 1.924 0 0 0-1.123-.331c-.687 0-1.227.245-1.619.736-.381.478-.571 1.184-.571 2.116 0 .933.19 1.644.571 2.135.38.479.907.718 1.582.718zM94.03 41.66l-5.557 6.312-.203-.203-3.036 3.442-.387-2.356 6.24-7.195h2.944zm-7.931 0v12.146h-2.54V41.66h2.54zm3.073 4.196 5.006 7.95H91.27l-4.049-6.533 1.951-1.417zm10.061-1.436c.932 0 1.748.19 2.448.57.711.38 1.263.927 1.656 1.639.405.711.607 1.57.607 2.576 0 .994-.202 1.852-.607 2.576a4.024 4.024 0 0 1-1.656 1.638c-.7.38-1.516.57-2.448.57-.92 0-1.736-.19-2.448-.57a4.138 4.138 0 0 1-1.674-1.638c-.393-.724-.59-1.582-.59-2.576 0-1.006.197-1.865.59-2.576a4.138 4.138 0 0 1 1.674-1.638c.712-.38 1.528-.57 2.448-.57zm0 1.877c-.466 0-.865.11-1.196.332-.32.208-.565.527-.736.956-.172.43-.258.97-.258 1.62 0 .65.086 1.19.258 1.62.171.429.417.754.736.975.331.208.73.313 1.196.313.454 0 .84-.105 1.159-.313.332-.221.583-.546.755-.976.172-.429.258-.969.258-1.62 0-.65-.086-1.19-.258-1.619-.172-.429-.423-.748-.755-.956-.319-.221-.705-.332-1.159-.332zm6.821 7.509v-9.202h2.19l.165 1.804c.246-.638.602-1.13 1.068-1.473.478-.343 1.073-.515 1.785-.515.208 0 .399.018.57.055.172.037.313.086.424.148l-.295 2.116a1.948 1.948 0 0 0-.46-.11 5.017 5.017 0 0 0-.681-.037 2.23 2.23 0 0 0-1.067.276 2.058 2.058 0 0 0-.847.81c-.221.355-.331.81-.331 1.361v4.767h-2.521zm7.764 3.864V44.604h2.263l.166 2.926-.313-.331c.11-.54.313-1.018.607-1.435a3.186 3.186 0 0 1 1.16-.976 3.304 3.304 0 0 1 1.564-.368c.748 0 1.417.19 2.006.57.589.38 1.049.927 1.38 1.639.344.699.515 1.552.515 2.558 0 1.006-.171 1.87-.515 2.594-.344.712-.816 1.258-1.417 1.638-.589.38-1.264.57-2.024.57-.81 0-1.485-.226-2.025-.68a3.461 3.461 0 0 1-1.085-1.712l.239-.386v6.46h-2.521zm4.655-5.613c.675 0 1.203-.239 1.583-.717.393-.491.589-1.203.589-2.135 0-.932-.19-1.638-.57-2.116-.368-.491-.89-.737-1.565-.737-.429 0-.809.117-1.141.35-.319.22-.57.546-.754.976-.184.417-.276.926-.276 1.527 0 .589.086 1.098.257 1.527.172.43.418.761.737.994.331.221.711.331 1.14.331zm12.073-4.122c0-.528-.153-.939-.46-1.233-.294-.294-.687-.442-1.178-.442-.453 0-.852.117-1.196.35-.343.233-.595.62-.754 1.16l-2.153-.663c.208-.81.662-1.46 1.361-1.95.712-.491 1.663-.737 2.853-.737.81 0 1.515.129 2.116.387.601.245 1.068.62 1.399 1.122.343.503.515 1.135.515 1.896v3.735c0 .467.221.7.663.7.208 0 .404-.03.589-.092l-.148 1.564c-.319.16-.717.24-1.196.24-.429 0-.816-.074-1.159-.221a1.797 1.797 0 0 1-.81-.663c-.196-.307-.294-.687-.294-1.141v-.074l.441-.073a2.115 2.115 0 0 1-.607 1.196 3.356 3.356 0 0 1-1.215.736 4.174 4.174 0 0 1-1.454.258c-.625 0-1.165-.092-1.619-.276-.454-.197-.804-.479-1.049-.847-.245-.368-.368-.822-.368-1.362 0-.687.221-1.245.662-1.674.442-.442 1.074-.743 1.896-.902l3.46-.7-.019 1.565-2.208.442c-.417.085-.736.202-.957.35-.209.134-.313.361-.313.68 0 .307.111.54.331.7.234.159.51.239.829.239.257 0 .509-.031.754-.092.245-.062.466-.16.663-.295.196-.135.349-.319.46-.552.11-.233.165-.515.165-.846v-2.485z" fill="#202020"/>
    <g clip-path="url(#kcl05r0b6b)">
        <path d="M42.24 260.988a8.765 8.765 0 0 0-8.783 8.784 8.764 8.764 0 0 0 8.783 8.783 8.765 8.765 0 0 0 8.784-8.783 8.765 8.765 0 0 0-8.784-8.784zm0 15.835c-3.876 0-7.051-3.175-7.051-7.051 0-3.877 3.175-7.052 7.051-7.052 3.877 0 7.052 3.175 7.052 7.052 0 3.876-3.175 7.051-7.052 7.051zm3.175-11.464-3.175 3.175-3.175-3.175-1.237 1.237 3.175 3.176-3.175 3.175 1.237 1.237 3.175-3.175 3.175 3.175 1.238-1.237-3.176-3.175 3.176-3.176-1.237-1.237z" fill="#00A79D"/>
    </g>
    <g clip-path="url(#hq7vg62dvc)">
        <path d="M42.24 394.828a8.765 8.765 0 0 0-8.783 8.784 8.764 8.764 0 0 0 8.783 8.783 8.765 8.765 0 0 0 8.784-8.783 8.765 8.765 0 0 0-8.784-8.784zm0 15.835c-3.876 0-7.051-3.175-7.051-7.051 0-3.877 3.175-7.052 7.051-7.052 3.877 0 7.052 3.175 7.052 7.052 0 3.876-3.175 7.051-7.052 7.051zm3.175-11.464-3.175 3.176-3.175-3.176-1.237 1.237 3.175 3.176-3.175 3.175 1.237 1.237 3.175-3.175 3.175 3.175 1.238-1.237-3.176-3.175 3.176-3.176-1.237-1.237z" fill="#00A79D"/>
    </g>
    <g filter="url(#90mq9c6v9d)">
        <rect x="67.758" y="163.117" width="167.3" height="46.008" rx="23.004" fill="#fff" shape-rendering="crispEdges"/>
        <g clip-path="url(#8xr3x01pre)">
            <path d="M94.175 184.811c-.37 0-.682.128-.939.385-.256.257-.384.56-.384.91 0 .37.128.683.384.94.257.257.57.385.939.385h15.756c.37 0 .682-.128.939-.385.256-.257.385-.57.385-.94 0-.35-.129-.653-.385-.91a1.276 1.276 0 0 0-.939-.385H94.175z" fill="#CACACA"/>
        </g>
        <path stroke="#E4E4E4" stroke-width=".837" d="M129.75 170.228v31.787"/>
        <path d="M151.032 192.121v-8.557l.036-.939c-.417.38-.883.712-1.398.994a5.658 5.658 0 0 1-1.583.589l-.331-2.135c.282-.024.595-.104.938-.239a9.396 9.396 0 0 0 2.062-1.16c.306-.233.539-.466.699-.699h2.061v12.146h-2.484z" fill="#182D2E"/>
        <path stroke="#E4E4E4" stroke-width=".837" d="M173.903 170.228v31.787"/>
        <g clip-path="url(#ofkfuq0nkf)">
            <path d="M202.083 184.811v-6.597c0-.349-.128-.652-.384-.909a1.277 1.277 0 0 0-.939-.385c-.369 0-.682.128-.939.385-.256.257-.384.56-.384.909v6.597h-6.555c-.369 0-.682.129-.939.385-.256.257-.384.56-.384.91 0 .37.128.683.384.94.257.257.57.385.939.385h6.555v6.566c0 .37.128.683.384.94.257.257.57.386.939.386s.682-.129.939-.386c.256-.257.384-.57.384-.94v-6.566h6.555c.37 0 .682-.128.939-.385.256-.257.385-.57.385-.94 0-.35-.129-.653-.385-.91a1.28 1.28 0 0 0-.939-.385h-6.555z" fill="#CACACA"/>
        </g>
    </g>
    <g filter="url(#822hqiewjg)">
        <rect x="67.758" y="296.958" width="167.3" height="46.008" rx="23.004" fill="#fff" shape-rendering="crispEdges"/>
        <g clip-path="url(#8fp3gjg7th)">
            <path d="M94.175 318.651c-.37 0-.682.129-.939.386-.256.257-.384.56-.384.909 0 .37.128.683.384.94.257.257.57.386.939.386h15.756c.37 0 .682-.129.939-.386.256-.257.385-.57.385-.94 0-.349-.129-.652-.385-.909a1.277 1.277 0 0 0-.939-.386H94.175z" fill="#CACACA"/>
        </g>
        <path stroke="#E4E4E4" stroke-width=".837" d="M129.75 304.068v31.787"/>
        <path d="M151.032 325.961v-8.557l.036-.939a7.16 7.16 0 0 1-1.398.994 5.627 5.627 0 0 1-1.583.589l-.331-2.135c.282-.024.595-.104.938-.239a9.394 9.394 0 0 0 2.062-1.159c.306-.233.539-.466.699-.7h2.061v12.146h-2.484z" fill="#182D2E"/>
        <path stroke="#E4E4E4" stroke-width=".837" d="M173.903 304.068v31.787"/>
        <g clip-path="url(#97xs98783i)">
            <path d="M202.083 318.651v-6.596c0-.35-.128-.653-.384-.91a1.277 1.277 0 0 0-.939-.385c-.369 0-.682.128-.939.385-.256.257-.384.56-.384.91v6.596h-6.555c-.369 0-.682.129-.939.386-.256.257-.384.56-.384.909 0 .37.128.683.384.94.257.257.57.386.939.386h6.555v6.566c0 .369.128.683.384.94.257.257.57.385.939.385s.682-.128.939-.385c.256-.257.384-.571.384-.94v-6.566h6.555c.37 0 .682-.129.939-.386.256-.257.385-.57.385-.94 0-.349-.129-.652-.385-.909a1.277 1.277 0 0 0-.939-.386h-6.555z" fill="#CACACA"/>
        </g>
    </g>
    <g filter="url(#65mnfbf56j)">
        <rect x="67.758" y="439.163" width="167.3" height="46.008" rx="23.004" fill="#fff" shape-rendering="crispEdges"/>
        <g clip-path="url(#m1781bre5k)">
            <path d="M94.175 460.857c-.37 0-.682.128-.939.385-.256.257-.384.56-.384.909 0 .37.128.684.384.941.257.256.57.385.939.385h15.756c.37 0 .682-.129.939-.385.256-.257.385-.571.385-.941 0-.349-.129-.652-.385-.909a1.276 1.276 0 0 0-.939-.385H94.175z" fill="#CACACA"/>
        </g>
        <path stroke="#E4E4E4" stroke-width=".837" d="M129.75 446.273v31.787"/>
        <path d="M151.032 468.167v-8.558l.036-.938c-.417.38-.883.711-1.398.994a5.624 5.624 0 0 1-1.583.588l-.331-2.134a3.42 3.42 0 0 0 .938-.24c.356-.147.712-.319 1.068-.515.368-.208.699-.423.994-.644.306-.233.539-.466.699-.699h2.061v12.146h-2.484z" fill="#182D2E"/>
        <path stroke="#E4E4E4" stroke-width=".837" d="M173.903 446.273v31.787"/>
        <g clip-path="url(#zf8lwvbq6l)">
            <path d="M202.083 460.857v-6.597c0-.349-.128-.652-.384-.909a1.278 1.278 0 0 0-.939-.386c-.369 0-.682.129-.939.386-.256.257-.384.56-.384.909v6.597h-6.555c-.369 0-.682.128-.939.385-.256.257-.384.56-.384.909 0 .37.128.684.384.941.257.257.57.385.939.385h6.555v6.566c0 .37.128.683.384.94.257.257.57.385.939.385s.682-.128.939-.385c.256-.257.384-.57.384-.94v-6.566h6.555c.37 0 .682-.128.939-.385.256-.257.385-.571.385-.941 0-.349-.129-.652-.385-.909a1.276 1.276 0 0 0-.939-.385h-6.555z" fill="#CACACA"/>
        </g>
    </g>
    <g filter="url(#666o18hp5m)">
        <rect x="33.457" y="634.068" width="373.079" height="48.517" rx="24.259" fill="#202020" shape-rendering="crispEdges"/>
        <path d="M56.868 652.18c.932 0 1.73.16 2.392.479.663.307 1.172.754 1.528 1.343.368.577.552 1.276.552 2.098 0 .822-.184 1.528-.552 2.117-.356.576-.865 1.024-1.528 1.343-.662.307-1.46.46-2.392.46H54.31v4.306h-2.54V652.18h5.098zm-.387 5.834c.761 0 1.331-.159 1.712-.478.38-.332.57-.81.57-1.436 0-.638-.19-1.116-.57-1.435-.38-.319-.951-.479-1.712-.479H54.31v3.828h2.171zm9.413-6.919v10.397c0 .43.074.73.221.902.147.172.393.258.736.258.209 0 .38-.013.515-.037.135-.037.307-.086.516-.147l-.221 1.656a2.472 2.472 0 0 1-.791.276 3.91 3.91 0 0 1-.92.11c-.896 0-1.553-.214-1.97-.644-.405-.441-.607-1.141-.607-2.098v-10.673h2.521zm8.727 7.361c0-.528-.153-.939-.46-1.233-.294-.295-.687-.442-1.178-.442a2.08 2.08 0 0 0-1.196.35c-.343.233-.595.619-.754 1.159l-2.154-.662c.21-.81.663-1.46 1.362-1.951.712-.491 1.663-.736 2.853-.736.81 0 1.515.129 2.116.386.601.246 1.068.62 1.399 1.123.343.503.515 1.135.515 1.895v3.736c0 .466.22.7.663.7.208 0 .404-.031.588-.092l-.147 1.564c-.319.159-.718.239-1.196.239a2.92 2.92 0 0 1-1.16-.221 1.8 1.8 0 0 1-.81-.662c-.195-.307-.293-.687-.293-1.141v-.074l.441-.074a2.12 2.12 0 0 1-.607 1.197 3.365 3.365 0 0 1-1.215.736c-.466.172-.95.257-1.454.257-.625 0-1.165-.092-1.62-.276-.453-.196-.803-.478-1.048-.846s-.368-.822-.368-1.362c0-.687.22-1.245.662-1.675.442-.441 1.074-.742 1.896-.901l3.46-.7-.019 1.565-2.208.441c-.417.086-.736.203-.957.35-.209.135-.313.362-.313.681 0 .307.11.54.331.699.234.16.51.239.829.239.257 0 .509-.03.754-.092.245-.061.466-.159.663-.294a1.36 1.36 0 0 0 .46-.552c.11-.233.165-.515.165-.847v-2.484zm9.464-3.515c.822 0 1.516.123 2.08.368.576.233 1.036.558 1.38.975.356.405.607.859.755 1.362l-2.356.847c-.123-.552-.331-.97-.626-1.252-.294-.282-.693-.423-1.196-.423-.466 0-.865.11-1.196.331-.331.209-.583.534-.755.976-.171.429-.257.969-.257 1.619s.086 1.19.257 1.62c.184.429.442.748.773.956.344.209.743.313 1.197.313.368 0 .68-.061.938-.184.258-.135.466-.325.626-.57.171-.246.288-.54.35-.884l2.281.737a3.372 3.372 0 0 1-.754 1.453c-.368.418-.84.743-1.417.976-.577.233-1.245.349-2.006.349-.945 0-1.78-.19-2.503-.57a3.988 3.988 0 0 1-1.675-1.638c-.392-.712-.588-1.57-.588-2.576s.196-1.865.588-2.577a4.027 4.027 0 0 1 1.657-1.638c.711-.38 1.527-.57 2.447-.57zm-.036-4.27h2.429l-1.84 3.129h-1.86l1.27-3.129zm11.491 7.785c0-.528-.153-.939-.46-1.233-.294-.295-.687-.442-1.178-.442a2.08 2.08 0 0 0-1.196.35c-.343.233-.595.619-.754 1.159l-2.153-.662c.208-.81.662-1.46 1.361-1.951.712-.491 1.663-.736 2.853-.736.81 0 1.515.129 2.116.386.601.246 1.068.62 1.399 1.123.343.503.515 1.135.515 1.895v3.736c0 .466.221.7.663.7.208 0 .404-.031.588-.092l-.147 1.564c-.319.159-.717.239-1.196.239a2.92 2.92 0 0 1-1.16-.221 1.8 1.8 0 0 1-.809-.662c-.196-.307-.294-.687-.294-1.141v-.074l.441-.074a2.119 2.119 0 0 1-.607 1.197 3.363 3.363 0 0 1-1.215.736c-.466.172-.95.257-1.454.257-.625 0-1.165-.092-1.619-.276-.454-.196-.804-.478-1.049-.846-.245-.368-.368-.822-.368-1.362 0-.687.22-1.245.663-1.675.441-.441 1.073-.742 1.895-.901l3.46-.7-.019 1.565-2.208.441c-.417.086-.736.203-.957.35-.209.135-.313.362-.313.681 0 .307.11.54.331.699.234.16.51.239.829.239.257 0 .509-.03.754-.092.246-.061.466-.159.663-.294a1.36 1.36 0 0 0 .46-.552c.11-.233.165-.515.165-.847v-2.484zm5.323 5.87v-9.201h2.263l.148 2.76-.313-.294c.147-.601.38-1.098.699-1.491a2.87 2.87 0 0 1 1.159-.865 3.908 3.908 0 0 1 1.528-.294c.638 0 1.202.123 1.693.368.503.245.896.62 1.178 1.123.294.49.441 1.11.441 1.858v6.036h-2.521v-5.318c0-.785-.153-1.325-.46-1.62-.307-.306-.705-.46-1.196-.46-.344 0-.681.086-1.012.258-.319.16-.583.423-.792.791-.196.368-.294.859-.294 1.473v4.876h-2.521zm12.664-10.526c-.528 0-.92-.111-1.178-.331-.258-.233-.387-.571-.387-1.013 0-.453.129-.791.387-1.012.258-.233.65-.349 1.178-.349.527 0 .92.116 1.177.349.258.221.387.559.387 1.012 0 .442-.129.78-.387 1.013-.257.22-.65.331-1.177.331zm1.251 1.325v9.882c0 .798-.147 1.436-.442 1.914a2.418 2.418 0 0 1-1.159 1.031c-.491.221-1.049.331-1.675.331-.454 0-.865-.055-1.233-.166a3.103 3.103 0 0 1-.957-.423l.387-1.803a2.034 2.034 0 0 0 1.288.441c.38 0 .687-.116.92-.349.233-.233.35-.638.35-1.215v-9.643h2.521zm6.942 9.385c-.969 0-1.816-.19-2.539-.57a4.017 4.017 0 0 1-1.657-1.638c-.392-.712-.589-1.57-.589-2.576s.197-1.865.589-2.577a4.062 4.062 0 0 1 1.638-1.638c.712-.38 1.521-.57 2.429-.57.933 0 1.724.19 2.374.57a3.724 3.724 0 0 1 1.491 1.528c.344.638.515 1.368.515 2.19 0 .245-.006.478-.018.699a7.045 7.045 0 0 1-.055.589h-7.343v-1.748h6.239l-1.215.441c0-.773-.178-1.368-.534-1.785-.343-.417-.834-.625-1.472-.625-.466 0-.871.11-1.215.331-.331.221-.582.552-.754.994-.172.429-.258.975-.258 1.637 0 .651.092 1.191.276 1.62.197.417.466.73.81.938.356.209.779.313 1.27.313.54 0 .975-.104 1.306-.313.332-.208.589-.496.773-.864l2.006.772c-.196.479-.497.89-.901 1.233a4.077 4.077 0 0 1-1.418.792 5.722 5.722 0 0 1-1.748.257z" fill="#fff"/>
        <g clip-path="url(#r52b0k6g3n)">
            <path d="M389.718 658.811a.976.976 0 0 0 .088-.441c0-.176-.029-.362-.088-.558a.473.473 0 0 1-.118-.176.765.765 0 0 0-.118-.206l-8.814-8.76a1.222 1.222 0 0 0-.885-.382c-.334 0-.629.128-.884.382a1.208 1.208 0 0 0-.383.882c0 .333.127.627.383.882l6.662 6.643h-14.592c-.374 0-.673.113-.9.338-.226.225-.339.524-.339.897 0 .392.113.7.339.926.227.225.526.338.9.338h14.592l-6.662 6.643a1.205 1.205 0 0 0 0 1.763c.137.118.29.211.457.279.167.069.309.103.427.103s.261-.034.428-.103c.167-.068.319-.161.457-.279l8.814-8.789c.059-.058.113-.117.162-.176a.312.312 0 0 0 .074-.206z" fill="#fff"/>
        </g>
    </g>
    <path fill-rule="evenodd" clip-rule="evenodd" d="M382.924 34.94c.816-.817 2.128-.83 2.928-.03l19.577 19.577c.801.801.788 2.112-.029 2.929-.816.817-2.128.83-2.928.029l-19.577-19.577c-.801-.8-.788-2.112.029-2.929z" fill="#202020"/>
    <path fill-rule="evenodd" clip-rule="evenodd" d="M405.401 34.94c-.817-.817-2.128-.83-2.929-.03l-19.577 19.577c-.801.801-.788 2.112.029 2.929.816.817 2.128.83 2.929.029l19.576-19.577c.801-.8.788-2.112-.028-2.929z" fill="#202020"/>
    <g clip-path="url(#5v323nhvho)">
        <path d="M42.24 58.555a2.397 2.397 0 0 1-1.796-.765c-.491-.51-.736-1.133-.736-1.868 0-.714.245-1.327.736-1.837.49-.51 1.09-.766 1.796-.766.687 0 1.276.255 1.767.766.49.51.736 1.123.736 1.837 0 .735-.245 1.357-.736 1.868-.491.51-1.08.765-1.767.765zm8.775 0c-.687 0-1.276-.255-1.767-.765-.49-.51-.736-1.133-.736-1.868 0-.714.245-1.327.736-1.837s1.08-.766 1.767-.766c.707 0 1.306.255 1.796.766.491.51.736 1.123.736 1.837 0 .735-.245 1.357-.736 1.868-.49.51-1.09.765-1.796.765zM34.643 40.153a1.227 1.227 0 0 1-.84-.382 1.21 1.21 0 0 1-.338-.873 1.227 1.227 0 0 1 1.178-1.255h1.443c.569 0 1.074.183 1.516.55.442.368.722.838.84 1.41l1.59 7.378c.117.572.397 1.041.839 1.409.441.367.947.55 1.516.55h9.423l1.826-7.531h-11.75a1.198 1.198 0 0 1-.81-.383 1.21 1.21 0 0 1-.338-.873c0-.326.113-.612.339-.857.226-.245.495-.378.81-.398h11.749c.667 0 1.236.245 1.708.735.47.49.706 1.082.706 1.776 0 .102-.005.209-.014.321-.01.112-.035.22-.074.322l.03-.031-1.826 7.532a2.511 2.511 0 0 1-.854 1.363 2.286 2.286 0 0 1-1.502.536h-9.423c-1.158 0-2.174-.368-3.048-1.103a4.842 4.842 0 0 1-1.663-2.786v-.03l-1.59-7.38h-1.443z" fill="#00A79D"/>
    </g>
    <circle cx="57.724" cy="40.989" r="7.529" fill="#202020"/>
    <path d="M57.38 44.07c-.623 0-1.165-.137-1.627-.412a2.136 2.136 0 0 1-.934-1.174l1.044-.492c.06.241.154.449.282.623.127.174.294.307.501.401.208.087.465.13.773.13.261 0 .482-.046.663-.14a.97.97 0 0 0 .411-.391c.1-.168.151-.358.151-.573 0-.22-.044-.404-.13-.552a.702.702 0 0 0-.392-.32 1.9 1.9 0 0 0-.672-.101c-.08 0-.165.003-.252.01-.08 0-.167.007-.26.02v-.904l.17.02h.17c.436 0 .747-.087.934-.26.188-.174.281-.445.281-.814 0-.314-.097-.555-.29-.722-.188-.168-.46-.251-.814-.251-.368 0-.656.087-.863.26-.2.168-.355.412-.462.733l-.983-.411c.093-.308.25-.576.471-.803.221-.228.492-.402.813-.522.328-.127.686-.19 1.074-.19.476 0 .87.076 1.185.23.321.154.559.365.713.632.16.268.24.566.24.894 0 .254-.036.478-.11.672a1.595 1.595 0 0 1-.301.492 1.507 1.507 0 0 1-.833.462v.02c.194.007.371.047.532.12a1.3 1.3 0 0 1 .441.292c.134.12.238.267.312.441.073.174.11.365.11.572 0 .402-.1.753-.301 1.055-.2.3-.478.535-.833.702-.348.167-.753.251-1.215.251z" fill="#fff"/>
    <g filter="url(#8wewiyxf5p)">
        <rect x="33.457" y="552.091" width="373.079" height="48.517" rx="24.259" fill="#fff" shape-rendering="crispEdges"/>
        <path d="M56.868 570.203c.932 0 1.73.16 2.392.479a3.399 3.399 0 0 1 1.528 1.343c.368.577.552 1.276.552 2.098 0 .822-.184 1.527-.552 2.116-.356.577-.865 1.025-1.528 1.344-.662.306-1.46.46-2.392.46H54.31v4.306h-2.54v-12.146h5.098zm-.387 5.834c.761 0 1.331-.16 1.712-.479.38-.331.57-.809.57-1.435 0-.638-.19-1.116-.57-1.435-.38-.319-.951-.479-1.712-.479H54.31v3.828h2.171zm10.891-3.073c.933 0 1.748.19 2.448.57.711.38 1.263.926 1.656 1.638.405.712.607 1.57.607 2.576 0 .994-.202 1.853-.607 2.577a4.027 4.027 0 0 1-1.656 1.638c-.7.38-1.515.57-2.448.57-.92 0-1.736-.19-2.448-.57a4.146 4.146 0 0 1-1.674-1.638c-.393-.724-.59-1.583-.59-2.577 0-1.006.197-1.864.59-2.576a4.133 4.133 0 0 1 1.674-1.638c.712-.38 1.528-.57 2.448-.57zm0 1.877c-.466 0-.865.11-1.196.331-.32.209-.564.527-.736.957-.172.429-.258.969-.258 1.619 0 .651.086 1.19.258 1.62.172.429.417.754.736.975.331.209.73.313 1.196.313.454 0 .84-.104 1.16-.313.33-.221.582-.546.754-.975.172-.43.258-.969.258-1.62 0-.65-.086-1.19-.258-1.619-.172-.43-.423-.748-.755-.957-.319-.221-.705-.331-1.159-.331zm15.233-3.883.294 1.803h-.165a.698.698 0 0 0-.166-.018c-.564 0-.988.129-1.27.386-.282.246-.423.589-.423 1.031l-1.03-.423c0-.491.097-.945.294-1.362.196-.43.484-.773.865-1.031.392-.258.858-.386 1.398-.386h.202zm-3.018 9.661c.993 0 1.76.215 2.3.644.54.43.81 1.031.81 1.804 0 .699-.203 1.288-.608 1.767-.404.49-.975.858-1.711 1.104-.724.245-1.564.368-2.521.368-1.583 0-2.742-.221-3.478-.663-.724-.441-1.086-1.018-1.086-1.73 0-.503.19-.926.57-1.269.393-.344 1.037-.534 1.933-.571l-.092.295c-.638-.111-1.13-.319-1.473-.626-.33-.319-.496-.755-.496-1.307 0-.564.214-1.024.644-1.38.441-.368 1.036-.583 1.785-.644l1.104.515h-.258c-.527.037-.902.147-1.122.331-.209.172-.313.368-.313.589 0 .258.098.454.294.589.209.123.503.184.884.184h2.834zm-1.712 3.957c.638 0 1.16-.055 1.564-.166.418-.11.724-.251.92-.423.21-.172.313-.362.313-.571a.696.696 0 0 0-.276-.57c-.184-.135-.515-.202-.993-.202h-3.11c-.295 0-.54.073-.737.22a.737.737 0 0 0-.276.608c0 .343.227.613.681.809.466.197 1.104.295 1.914.295zm.019-11.612c.858 0 1.6.128 2.226.386.638.245 1.123.601 1.454 1.067.344.467.515 1.025.515 1.675 0 .638-.171 1.19-.515 1.656-.331.467-.816.829-1.454 1.086-.625.246-1.368.368-2.227.368-1.361 0-2.404-.276-3.128-.828-.712-.564-1.067-1.325-1.067-2.282 0-.65.165-1.208.497-1.675.343-.466.828-.822 1.453-1.067.626-.258 1.374-.386 2.246-.386zm0 1.582c-.491 0-.896.135-1.215.405-.319.27-.478.644-.478 1.123 0 .478.159.858.478 1.141.319.27.724.405 1.215.405.49 0 .889-.135 1.196-.405.319-.283.478-.663.478-1.141 0-.479-.16-.853-.478-1.123-.307-.27-.706-.405-1.197-.405zm8.811-5.429v10.398c0 .429.074.73.221.902.147.172.393.257.736.257.209 0 .38-.012.516-.036.135-.037.306-.086.515-.148l-.22 1.657a2.52 2.52 0 0 1-.792.276c-.307.073-.614.11-.92.11-.896 0-1.552-.215-1.97-.644-.404-.442-.607-1.141-.607-2.098v-10.674h2.521zm7.662 13.416c-.969 0-1.816-.19-2.54-.57a4.027 4.027 0 0 1-1.656-1.638c-.392-.712-.589-1.571-.589-2.577s.197-1.864.59-2.576a4.044 4.044 0 0 1 1.637-1.638c.712-.38 1.522-.57 2.43-.57.932 0 1.723.19 2.373.57.65.368 1.148.877 1.491 1.528.344.637.515 1.367.515 2.189 0 .246-.006.479-.018.7-.012.221-.03.417-.055.589h-7.343v-1.749h6.239l-1.215.442c0-.773-.178-1.368-.534-1.785-.343-.417-.834-.626-1.472-.626-.466 0-.871.111-1.215.332-.33.22-.582.552-.754.993-.172.43-.258.976-.258 1.638 0 .65.092 1.19.276 1.62.197.417.466.73.81.938.356.209.78.313 1.27.313.54 0 .975-.104 1.306-.313.332-.208.59-.497.773-.865l2.006.773c-.196.479-.496.89-.901 1.233a4.093 4.093 0 0 1-1.417.792 5.76 5.76 0 0 1-1.749.257zm9.866 0c-.76 0-1.441-.19-2.043-.57-.588-.381-1.055-.927-1.398-1.638-.331-.712-.497-1.564-.497-2.558 0-1.019.178-1.883.534-2.595.355-.724.834-1.27 1.435-1.638a3.835 3.835 0 0 1 2.061-.57c.81 0 1.479.233 2.006.699.528.466.871 1.067 1.031 1.803l-.24.295v-6.644h2.522v13.232h-2.264l-.166-2.797.313.147a3.415 3.415 0 0 1-.589 1.509 3.182 3.182 0 0 1-1.159.975c-.466.234-.981.35-1.546.35zm.736-1.932c.442 0 .822-.111 1.141-.331.319-.234.565-.571.736-1.013.184-.441.276-.969.276-1.582 0-.589-.085-1.086-.257-1.491-.172-.417-.417-.736-.736-.957a1.924 1.924 0 0 0-1.123-.331c-.687 0-1.227.245-1.619.736-.381.478-.571 1.184-.571 2.116 0 .933.19 1.644.571 2.135.38.479.908.718 1.582.718zm12.569-4.122c0-.528-.154-.939-.46-1.233-.295-.295-.687-.442-1.178-.442a2.07 2.07 0 0 0-1.196.35c-.344.233-.595.619-.755 1.159l-2.153-.663a3.332 3.332 0 0 1 1.362-1.95c.711-.491 1.662-.736 2.852-.736.81 0 1.515.128 2.117.386.601.245 1.067.62 1.398 1.123.344.503.515 1.134.515 1.895v3.736c0 .466.221.699.663.699.209 0 .405-.03.589-.092l-.147 1.565c-.319.159-.718.239-1.197.239a2.92 2.92 0 0 1-1.159-.221 1.803 1.803 0 0 1-.81-.663c-.196-.306-.294-.687-.294-1.141v-.073l.442-.074a2.115 2.115 0 0 1-.608 1.196 3.365 3.365 0 0 1-1.214.737 4.194 4.194 0 0 1-1.454.257c-.626 0-1.166-.092-1.62-.276-.454-.196-.803-.478-1.049-.846-.245-.368-.368-.822-.368-1.362 0-.687.221-1.246.663-1.675.442-.442 1.073-.742 1.895-.902l3.46-.699-.018 1.564-2.209.442c-.417.086-.736.202-.957.35-.208.135-.312.362-.312.681 0 .306.11.539.331.699.233.159.509.239.828.239.258 0 .509-.031.754-.092a2.01 2.01 0 0 0 .663-.294 1.36 1.36 0 0 0 .46-.552c.11-.234.166-.516.166-.847v-2.484zm6.592-4.656c-.528 0-.92-.111-1.178-.332-.257-.233-.386-.57-.386-1.012 0-.454.129-.791.386-1.012.258-.233.65-.35 1.178-.35.528 0 .92.117 1.178.35.257.221.386.558.386 1.012 0 .442-.129.779-.386 1.012-.258.221-.65.332-1.178.332zm1.251 1.325v9.882c0 .797-.147 1.435-.441 1.914a2.425 2.425 0 0 1-1.16 1.031c-.49.22-1.049.331-1.674.331-.454 0-.865-.055-1.233-.166a3.103 3.103 0 0 1-.957-.423l.386-1.804c.147.123.331.227.552.313.221.086.466.129.736.129.381 0 .687-.117.921-.35.233-.233.349-.638.349-1.214v-9.643h2.521zm17.665 0-4.251 4.435-.497.239-2.76 2.963-.037-2.687 4.674-4.95h2.871zm-6.846-4.031v13.232h-2.521v-13.232h2.521zm2.945 6.957 4.122 6.275h-2.852l-3-4.803 1.73-1.472zm9.369-3.11c.933 0 1.749.19 2.448.57.711.38 1.264.926 1.656 1.638.405.712.607 1.57.607 2.576 0 .994-.202 1.853-.607 2.577a4.026 4.026 0 0 1-1.656 1.638c-.699.38-1.515.57-2.448.57-.92 0-1.736-.19-2.447-.57a4.145 4.145 0 0 1-1.675-1.638c-.393-.724-.589-1.583-.589-2.577 0-1.006.196-1.864.589-2.576a4.132 4.132 0 0 1 1.675-1.638c.711-.38 1.527-.57 2.447-.57zm0 1.877c-.466 0-.865.11-1.196.331-.319.209-.564.527-.736.957-.172.429-.258.969-.258 1.619 0 .651.086 1.19.258 1.62.172.429.417.754.736.975.331.209.73.313 1.196.313.454 0 .841-.104 1.16-.313.331-.221.582-.546.754-.975.172-.43.258-.969.258-1.62 0-.65-.086-1.19-.258-1.619-.172-.43-.423-.748-.754-.957-.319-.221-.706-.331-1.16-.331zm6.821 7.508v-9.201h2.19l.166 1.803c.245-.638.601-1.129 1.067-1.472.478-.344 1.074-.515 1.785-.515.209 0 .399.018.571.055.171.037.312.086.423.147l-.295 2.116a1.918 1.918 0 0 0-.46-.11 4.927 4.927 0 0 0-.681-.037c-.368 0-.723.092-1.067.276a2.058 2.058 0 0 0-.846.81c-.221.356-.332.81-.332 1.362v4.766h-2.521zm7.764 3.865v-13.066h2.263l.166 2.926-.313-.332a3.784 3.784 0 0 1 .607-1.435 3.193 3.193 0 0 1 1.16-.975 3.296 3.296 0 0 1 1.564-.368c.749 0 1.417.19 2.006.57.589.38 1.049.926 1.38 1.638.344.699.516 1.552.516 2.558 0 1.006-.172 1.871-.516 2.595-.343.711-.816 1.257-1.417 1.638-.589.38-1.263.57-2.024.57-.81 0-1.485-.227-2.024-.681a3.455 3.455 0 0 1-1.086-1.711l.239-.387v6.46h-2.521zm4.656-5.613c.675 0 1.202-.239 1.582-.718.393-.491.589-1.202.589-2.135 0-.932-.19-1.638-.57-2.116-.368-.491-.89-.736-1.564-.736-.43 0-.81.116-1.141.35-.319.22-.571.546-.755.975-.184.417-.276.926-.276 1.527 0 .589.086 1.098.258 1.528.171.429.417.76.736.994.331.22.711.331 1.141.331zm10.084 1.932c-.614 0-1.166-.11-1.656-.331a2.628 2.628 0 0 1-1.178-1.049c-.282-.491-.424-1.123-.424-1.896v-6.109h2.522v5.502c0 .712.147 1.209.441 1.491.295.27.718.405 1.27.405.258 0 .509-.043.755-.129.245-.098.46-.246.644-.442.196-.196.349-.448.46-.754.11-.319.165-.694.165-1.123v-4.95h2.522v9.201h-2.245l-.092-1.601c-.307.613-.73 1.067-1.27 1.362-.528.282-1.166.423-1.914.423z" fill="#202020"/>
        <g clip-path="url(#ep1l7u34dq)">
            <path d="M389.718 576.834a.979.979 0 0 0 .088-.441c0-.176-.029-.362-.088-.558a.468.468 0 0 1-.118-.177.777.777 0 0 0-.118-.205l-8.814-8.76a1.214 1.214 0 0 0-1.769 0 1.208 1.208 0 0 0-.383.882c0 .333.127.627.383.882l6.662 6.643h-14.592c-.374 0-.673.112-.9.338-.226.225-.339.524-.339.896 0 .392.113.701.339.926.227.226.526.338.9.338h14.592l-6.662 6.643a1.208 1.208 0 0 0-.383.882c0 .333.127.627.383.882.137.118.29.211.457.279.167.069.309.103.427.103s.261-.034.428-.103c.167-.068.319-.161.457-.279l8.814-8.789c.059-.059.113-.117.162-.176a.314.314 0 0 0 .074-.206z" fill="#202020"/>
        </g>
    </g>
    <defs>
        <clipPath id="c0ifj38wta">
            <path fill="#fff" d="M33.457 127.148h17.567v17.567H33.457z"/>
        </clipPath>
        <clipPath id="kcl05r0b6b">
            <path fill="#fff" d="M33.457 260.988h17.567v17.567H33.457z"/>
        </clipPath>
        <clipPath id="hq7vg62dvc">
            <path fill="#fff" d="M33.457 394.828h17.567v17.567H33.457z"/>
        </clipPath>
        <clipPath id="8xr3x01pre">
            <path fill="#fff" transform="translate(92.852 176.92)" d="M0 0h18.403v18.403H0z"/>
        </clipPath>
        <clipPath id="ofkfuq0nkf">
            <path fill="#fff" transform="translate(191.559 176.92)" d="M0 0h18.403v18.403H0z"/>
        </clipPath>
        <clipPath id="8fp3gjg7th">
            <path fill="#fff" transform="translate(92.852 310.76)" d="M0 0h18.403v18.403H0z"/>
        </clipPath>
        <clipPath id="97xs98783i">
            <path fill="#fff" transform="translate(191.559 310.76)" d="M0 0h18.403v18.403H0z"/>
        </clipPath>
        <clipPath id="m1781bre5k">
            <path fill="#fff" transform="translate(92.852 452.965)" d="M0 0h18.403v18.403H0z"/>
        </clipPath>
        <clipPath id="zf8lwvbq6l">
            <path fill="#fff" transform="translate(191.559 452.965)" d="M0 0h18.403v18.403H0z"/>
        </clipPath>
        <clipPath id="r52b0k6g3n">
            <path fill="#fff" transform="translate(369.73 648.288)" d="M0 0h20.076v20.076H0z"/>
        </clipPath>
        <clipPath id="5v323nhvho">
            <path fill="#fff" d="M33.465 37.643H56.05v20.913H33.465z"/>
        </clipPath>
        <clipPath id="ep1l7u34dq">
            <path fill="#fff" transform="translate(369.73 566.311)" d="M0 0h20.076v20.076H0z"/>
        </clipPath>
        <filter id="90mq9c6v9d" x="51.028" y="154.752" width="200.761" height="79.468" filterUnits="userSpaceOnUse" color-interpolation-filters="sRGB">
            <feFlood flood-opacity="0" result="BackgroundImageFix"/>
            <feColorMatrix in="SourceAlpha" values="0 0 0 0 0 0 0 0 0 0 0 0 0 0 0 0 0 0 127 0" result="hardAlpha"/>
            <feOffset dy="8.365"/>
            <feGaussianBlur stdDeviation="8.365"/>
            <feComposite in2="hardAlpha" operator="out"/>
            <feColorMatrix values="0 0 0 0 0 0 0 0 0 0 0 0 0 0 0 0 0 0 0.1 0"/>
            <feBlend in2="BackgroundImageFix" result="effect1_dropShadow_738_489"/>
            <feBlend in="SourceGraphic" in2="effect1_dropShadow_738_489" result="shape"/>
        </filter>
        <filter id="822hqiewjg" x="51.028" y="288.593" width="200.761" height="79.468" filterUnits="userSpaceOnUse" color-interpolation-filters="sRGB">
            <feFlood flood-opacity="0" result="BackgroundImageFix"/>
            <feColorMatrix in="SourceAlpha" values="0 0 0 0 0 0 0 0 0 0 0 0 0 0 0 0 0 0 127 0" result="hardAlpha"/>
            <feOffset dy="8.365"/>
            <feGaussianBlur stdDeviation="8.365"/>
            <feComposite in2="hardAlpha" operator="out"/>
            <feColorMatrix values="0 0 0 0 0 0 0 0 0 0 0 0 0 0 0 0 0 0 0.1 0"/>
            <feBlend in2="BackgroundImageFix" result="effect1_dropShadow_738_489"/>
            <feBlend in="SourceGraphic" in2="effect1_dropShadow_738_489" result="shape"/>
        </filter>
        <filter id="65mnfbf56j" x="51.028" y="430.798" width="200.761" height="79.468" filterUnits="userSpaceOnUse" color-interpolation-filters="sRGB">
            <feFlood flood-opacity="0" result="BackgroundImageFix"/>
            <feColorMatrix in="SourceAlpha" values="0 0 0 0 0 0 0 0 0 0 0 0 0 0 0 0 0 0 127 0" result="hardAlpha"/>
            <feOffset dy="8.365"/>
            <feGaussianBlur stdDeviation="8.365"/>
            <feComposite in2="hardAlpha" operator="out"/>
            <feColorMatrix values="0 0 0 0 0 0 0 0 0 0 0 0 0 0 0 0 0 0 0.1 0"/>
            <feBlend in2="BackgroundImageFix" result="effect1_dropShadow_738_489"/>
            <feBlend in="SourceGraphic" in2="effect1_dropShadow_738_489" result="shape"/>
        </filter>
        <filter id="666o18hp5m" x="16.727" y="625.703" width="406.538" height="81.977" filterUnits="userSpaceOnUse" color-interpolation-filters="sRGB">
            <feFlood flood-opacity="0" result="BackgroundImageFix"/>
            <feColorMatrix in="SourceAlpha" values="0 0 0 0 0 0 0 0 0 0 0 0 0 0 0 0 0 0 127 0" result="hardAlpha"/>
            <feOffset dy="8.365"/>
            <feGaussianBlur stdDeviation="8.365"/>
            <feComposite in2="hardAlpha" operator="out"/>
            <feColorMatrix values="0 0 0 0 0 0 0 0 0 0 0 0 0 0 0 0 0 0 0.2 0"/>
            <feBlend in2="BackgroundImageFix" result="effect1_dropShadow_738_489"/>
            <feBlend in="SourceGraphic" in2="effect1_dropShadow_738_489" result="shape"/>
        </filter>
        <filter id="8wewiyxf5p" x="16.727" y="543.726" width="406.538" height="81.977" filterUnits="userSpaceOnUse" color-interpolation-filters="sRGB">
            <feFlood flood-opacity="0" result="BackgroundImageFix"/>
            <feColorMatrix in="SourceAlpha" values="0 0 0 0 0 0 0 0 0 0 0 0 0 0 0 0 0 0 127 0" result="hardAlpha"/>
            <feOffset dy="8.365"/>
            <feGaussianBlur stdDeviation="8.365"/>
            <feComposite in2="hardAlpha" operator="out"/>
            <feColorMatrix values="0 0 0 0 0 0 0 0 0 0 0 0 0 0 0 0 0 0 0.2 0"/>
            <feBlend in2="BackgroundImageFix" result="effect1_dropShadow_738_489"/>
            <feBlend in="SourceGraphic" in2="effect1_dropShadow_738_489" result="shape"/>
        </filter>
    </defs>
</svg>
