<svg width="904" height="221" viewBox="0 0 904 221" fill="none" xmlns="http://www.w3.org/2000/svg">
    <path d="M19.016 4.166c2.867 0 5.045.344 6.536 1.032 1.49.63 2.81 1.347 3.956 2.15.688.401 1.233.717 1.634.946.459.172.889.258 1.29.258.573 0 .975-.315 1.204-.946.287-.63.516-1.577.688-2.838h1.978c-.057.975-.143 2.15-.258 3.526a315.43 315.43 0 0 0-.172 5.332v8.686h-1.978a24.849 24.849 0 0 0-1.806-7.912c-1.032-2.523-2.551-4.587-4.558-6.192C25.58 6.603 23 5.8 19.79 5.8c-3.039 0-5.561.917-7.568 2.752-1.95 1.835-2.924 4.243-2.924 7.224 0 2.58.66 4.759 1.978 6.536 1.319 1.72 3.067 3.297 5.246 4.73 2.236 1.376 4.644 2.867 7.224 4.472 2.981 1.835 5.619 3.67 7.912 5.504 2.35 1.777 4.185 3.755 5.504 5.934 1.376 2.179 2.064 4.816 2.064 7.912 0 3.67-.831 6.708-2.494 9.116-1.663 2.408-3.87 4.214-6.622 5.418-2.752 1.204-5.79 1.806-9.116 1.806-3.039 0-5.447-.344-7.224-1.032-1.777-.688-3.297-1.405-4.558-2.15-1.261-.803-2.236-1.204-2.924-1.204-.573 0-1.003.315-1.29.946-.23.63-.43 1.577-.602 2.838H2.418c.115-1.204.172-2.609.172-4.214.057-1.663.086-3.813.086-6.45.057-2.637.086-5.963.086-9.976H4.74c.23 3.44.86 6.65 1.892 9.632 1.09 2.981 2.723 5.39 4.902 7.224 2.236 1.777 5.189 2.666 8.858 2.666 1.892 0 3.67-.373 5.332-1.118 1.72-.803 3.125-2.035 4.214-3.698 1.09-1.72 1.634-3.927 1.634-6.622 0-2.35-.573-4.386-1.72-6.106-1.09-1.777-2.637-3.411-4.644-4.902-2.007-1.548-4.357-3.125-7.052-4.73a115.706 115.706 0 0 1-7.568-5.074c-2.35-1.72-4.243-3.698-5.676-5.934-1.376-2.293-2.064-5.045-2.064-8.256 0-3.383.745-6.163 2.236-8.342 1.548-2.236 3.555-3.87 6.02-4.902 2.465-1.09 5.103-1.634 7.912-1.634zm40.767 3.268v14.362h12.728v1.72H59.783v33.282c0 2.695.488 4.587 1.462 5.676.975 1.09 2.322 1.634 4.042 1.634 1.72 0 3.211-.688 4.472-2.064 1.262-1.433 2.351-3.813 3.268-7.138l1.72.43c-.573 3.325-1.72 6.135-3.44 8.428-1.662 2.293-4.242 3.44-7.74 3.44-1.949 0-3.554-.258-4.816-.774a9.66 9.66 0 0 1-3.354-2.064c-1.261-1.319-2.15-2.895-2.666-4.73-.458-1.835-.688-4.271-.688-7.31v-28.81h-8.256v-1.72h8.256V8.638a46.214 46.214 0 0 0 4.128-.344c1.319-.172 2.523-.459 3.612-.86zm43.303 13.072c1.548 0 2.895.315 4.042.946 1.204.63 2.121 1.462 2.752 2.494.688.975 1.032 2.093 1.032 3.354 0 1.433-.459 2.695-1.376 3.784-.86 1.09-2.036 1.634-3.526 1.634-1.204 0-2.265-.373-3.182-1.118-.918-.803-1.376-1.92-1.376-3.354 0-1.09.286-2.007.86-2.752.63-.803 1.318-1.433 2.064-1.892-.402-.573-1.004-.86-1.806-.86-1.778 0-3.412.545-4.902 1.634-1.491 1.032-2.752 2.38-3.784 4.042a22.362 22.362 0 0 0-2.408 5.332c-.574 1.835-.86 3.555-.86 5.16v18.232c0 2.81.802 4.701 2.408 5.676 1.662.917 3.898 1.376 6.708 1.376V66a304.583 304.583 0 0 0-5.59-.172c-2.408-.115-4.96-.172-7.654-.172-1.95 0-3.899.057-5.848.172-1.892.057-3.326.115-4.3.172v-1.806c2.35 0 4.013-.43 4.988-1.29 1.032-.86 1.548-2.494 1.548-4.902V31.084c0-2.58-.459-4.472-1.376-5.676-.918-1.261-2.638-1.892-5.16-1.892V21.71c1.834.172 3.612.258 5.332.258 1.662 0 3.239-.086 4.73-.258 1.548-.23 2.952-.545 4.214-.946v10.75c.63-1.663 1.519-3.325 2.666-4.988a17.027 17.027 0 0 1 4.3-4.3c1.662-1.147 3.497-1.72 5.504-1.72zm30.941 0c3.669 0 6.966.803 9.89 2.408 2.924 1.605 5.246 4.128 6.966 7.568 1.777 3.44 2.666 7.912 2.666 13.416 0 5.504-.889 9.976-2.666 13.416-1.72 3.383-4.042 5.877-6.966 7.482-2.924 1.605-6.221 2.408-9.89 2.408-3.612 0-6.909-.803-9.89-2.408-2.924-1.605-5.275-4.1-7.052-7.482-1.72-3.44-2.58-7.912-2.58-13.416 0-5.504.86-9.976 2.58-13.416 1.777-3.44 4.128-5.963 7.052-7.568 2.981-1.605 6.278-2.408 9.89-2.408zm0 1.72c-3.268 0-5.963 1.691-8.084 5.074-2.064 3.383-3.096 8.915-3.096 16.598s1.032 13.215 3.096 16.598c2.121 3.325 4.816 4.988 8.084 4.988s5.934-1.663 7.998-4.988c2.121-3.383 3.182-8.915 3.182-16.598s-1.061-13.215-3.182-16.598c-2.064-3.383-4.73-5.074-7.998-5.074zm54.941-1.72c2.179 0 3.985.287 5.418.86 1.491.573 2.723 1.376 3.698 2.408 1.089 1.147 1.863 2.58 2.322 4.3.459 1.72.688 4.042.688 6.966v22.962c0 2.408.487 4.042 1.462 4.902 1.032.86 2.723 1.29 5.074 1.29V66c-.975-.057-2.465-.115-4.472-.172a102.537 102.537 0 0 0-5.848-.172c-1.892 0-3.755.057-5.59.172-1.777.057-3.125.115-4.042.172v-1.806c2.064 0 3.526-.43 4.386-1.29.86-.86 1.29-2.494 1.29-4.902V33.148c0-1.777-.143-3.411-.43-4.902-.287-1.49-.946-2.695-1.978-3.612-.975-.917-2.494-1.376-4.558-1.376-2.408 0-4.529.688-6.364 2.064-1.777 1.376-3.182 3.268-4.214 5.676-.975 2.35-1.462 4.988-1.462 7.912v19.092c0 2.408.43 4.042 1.29 4.902.86.86 2.322 1.29 4.386 1.29V66c-.917-.057-2.293-.115-4.128-.172a85.491 85.491 0 0 0-5.504-.172c-1.892 0-3.841.057-5.848.172-2.007.057-3.497.115-4.472.172v-1.806c2.351 0 4.013-.43 4.988-1.29 1.032-.86 1.548-2.494 1.548-4.902V31.084c0-2.58-.459-4.472-1.376-5.676-.917-1.261-2.637-1.892-5.16-1.892V21.71c1.835.172 3.612.258 5.332.258 1.663 0 3.239-.086 4.73-.258 1.548-.23 2.953-.545 4.214-.946v10.148c1.491-3.899 3.555-6.593 6.192-8.084 2.695-1.548 5.504-2.322 8.428-2.322zm37.403 61.662c-3.039 0-5.906-.315-8.6-.946-2.695-.63-4.874-1.634-6.536-3.01-1.606-1.319-2.408-3.01-2.408-5.074 0-2.007.802-3.727 2.408-5.16 1.605-1.433 3.784-2.523 6.536-3.268l.516 1.376c-1.262.401-2.265 1.204-3.01 2.408-.746 1.204-1.118 2.551-1.118 4.042 0 2.637 1.204 4.644 3.612 6.02 2.465 1.433 5.647 2.15 9.546 2.15 2.58 0 5.102-.344 7.568-1.032 2.465-.63 4.5-1.72 6.106-3.268 1.605-1.548 2.408-3.583 2.408-6.106 0-1.892-.688-3.44-2.064-4.644-1.319-1.261-3.956-1.892-7.912-1.892h-6.364c-1.835 0-3.612-.143-5.332-.43-1.72-.287-3.125-.889-4.214-1.806-1.09-.917-1.634-2.322-1.634-4.214 0-1.95.802-3.813 2.408-5.59 1.605-1.835 4.558-3.698 8.858-5.59l1.032.774c-1.95 1.032-3.641 2.093-5.074 3.182-1.434 1.032-2.15 2.265-2.15 3.698 0 1.835 1.376 2.752 4.128 2.752h10.75c2.408 0 4.615.344 6.622 1.032 2.064.688 3.726 1.777 4.988 3.268 1.261 1.49 1.892 3.44 1.892 5.848 0 2.695-.86 5.217-2.58 7.568-1.72 2.35-4.3 4.243-7.74 5.676-3.383 1.49-7.597 2.236-12.642 2.236zm.43-34.486c-2.81 0-5.361-.459-7.654-1.376-2.294-.975-4.1-2.465-5.418-4.472-1.319-2.007-1.978-4.587-1.978-7.74 0-3.153.659-5.733 1.978-7.74 1.318-2.007 3.124-3.469 5.418-4.386 2.293-.975 4.844-1.462 7.654-1.462 2.866 0 5.418.487 7.654 1.462 2.293.917 4.099 2.38 5.418 4.386 1.318 2.007 1.978 4.587 1.978 7.74 0 3.153-.66 5.733-1.978 7.74-1.319 2.007-3.125 3.497-5.418 4.472-2.236.917-4.788 1.376-7.654 1.376zm0-1.548c2.178 0 3.87-.86 5.074-2.58 1.261-1.72 1.892-4.873 1.892-9.46 0-4.587-.631-7.74-1.892-9.46-1.204-1.72-2.896-2.58-5.074-2.58-2.122 0-3.813.86-5.074 2.58-1.262 1.72-1.892 4.873-1.892 9.46 0 4.587.63 7.74 1.892 9.46 1.261 1.72 2.952 2.58 5.074 2.58zm12.384-18.49-1.548-.602c.802-1.95 2.178-3.67 4.128-5.16 1.949-1.49 3.984-2.236 6.106-2.236 1.49 0 2.694.43 3.612 1.29.917.803 1.376 2.035 1.376 3.698 0 1.777-.488 3.039-1.462 3.784-.918.688-1.864 1.032-2.838 1.032-.86 0-1.663-.287-2.408-.86-.746-.63-1.176-1.605-1.29-2.924-.115-1.319.286-3.01 1.204-5.074l1.118.258c-2.408.917-4.128 1.892-5.16 2.924-1.032.975-1.978 2.265-2.838 3.87zM287.202.21c1.491 0 2.781.545 3.87 1.634 1.09 1.09 1.634 2.38 1.634 3.87 0 1.49-.544 2.78-1.634 3.87-1.089 1.09-2.379 1.634-3.87 1.634-1.49 0-2.78-.545-3.87-1.634-1.089-1.09-1.634-2.38-1.634-3.87 0-1.49.545-2.78 1.634-3.87 1.09-1.09 2.38-1.634 3.87-1.634zm4.472 20.554v37.238c0 2.408.488 4.042 1.462 4.902 1.032.86 2.724 1.29 5.074 1.29V66c-.974-.057-2.465-.115-4.472-.172a100.998 100.998 0 0 0-5.934-.172 104 104 0 0 0-5.934.172 163.47 163.47 0 0 0-4.472.172v-1.806c2.351 0 4.014-.43 4.988-1.29 1.032-.86 1.548-2.494 1.548-4.902V31.084c0-2.58-.458-4.472-1.376-5.676-.917-1.261-2.637-1.892-5.16-1.892V21.71c1.835.172 3.612.258 5.332.258 1.663 0 3.24-.086 4.73-.258 1.548-.23 2.953-.545 4.214-.946zm39.3-.258c2.006 0 3.755.287 5.246.86 1.49.573 2.723 1.376 3.698 2.408 1.089 1.147 1.834 2.637 2.236 4.472.401 1.835.602 4.1.602 6.794v22.962c0 2.408.487 4.042 1.462 4.902 1.032.86 2.723 1.29 5.074 1.29V66a163.47 163.47 0 0 0-4.472-.172 102.537 102.537 0 0 0-5.848-.172c-1.892 0-3.756.057-5.59.172a145.26 145.26 0 0 0-4.042.172v-1.806c2.064 0 3.526-.43 4.386-1.29.86-.86 1.29-2.494 1.29-4.902V33.148c0-1.777-.115-3.411-.344-4.902-.23-1.49-.803-2.695-1.72-3.612-.918-.917-2.408-1.376-4.472-1.376-2.236 0-4.243.688-6.02 2.064-1.72 1.376-3.096 3.268-4.128 5.676-.975 2.35-1.462 4.988-1.462 7.912v19.092c0 2.408.43 4.042 1.29 4.902.86.86 2.322 1.29 4.386 1.29V66c-.918-.057-2.294-.115-4.128-.172a85.514 85.514 0 0 0-5.504-.172c-1.892 0-3.842.057-5.848.172-2.007.057-3.498.115-4.472.172v-1.806c2.35 0 4.013-.43 4.988-1.29 1.032-.86 1.548-2.494 1.548-4.902V31.084c0-2.58-.459-4.472-1.376-5.676-.918-1.261-2.638-1.892-5.16-1.892V21.71c1.834.172 3.612.258 5.332.258 1.662 0 3.239-.086 4.73-.258 1.548-.23 2.952-.545 4.214-.946v10.148c1.49-3.727 3.526-6.393 6.106-7.998 2.58-1.605 5.246-2.408 7.998-2.408zm25.886 0c2.006 0 3.755.287 5.246.86 1.49.573 2.723 1.376 3.698 2.408 1.089 1.147 1.834 2.637 2.236 4.472.401 1.835.602 4.1.602 6.794v22.962c0 2.408.487 4.042 1.462 4.902 1.032.86 2.723 1.29 5.074 1.29V66a163.47 163.47 0 0 0-4.472-.172 102.537 102.537 0 0 0-5.848-.172c-1.892 0-3.756.057-5.59.172a145.26 145.26 0 0 0-4.042.172v-1.806c2.064 0 3.526-.43 4.386-1.29.86-.86 1.29-2.494 1.29-4.902V33.148c0-1.777-.115-3.411-.344-4.902-.23-1.49-.803-2.695-1.72-3.612-.918-.917-2.408-1.376-4.472-1.376-2.236 0-4.243.688-6.02 2.064-1.72 1.376-3.096 3.24-4.128 5.59-.975 2.35-1.462 4.988-1.462 7.912l-.258-7.998c1.548-3.956 3.64-6.65 6.278-8.084 2.637-1.49 5.332-2.236 8.084-2.236zm50.455 0c2.007 0 3.756.287 5.246.86 1.491.573 2.724 1.376 3.698 2.408 1.09 1.147 1.835 2.637 2.236 4.472.402 1.835.602 4.1.602 6.794v22.962c0 2.408.488 4.042 1.462 4.902 1.032.86 2.724 1.29 5.074 1.29V66c-.974-.057-2.465-.115-4.472-.172a102.51 102.51 0 0 0-5.848-.172c-1.892 0-3.755.057-5.59.172-1.777.057-3.124.115-4.042.172v-1.806c2.064 0 3.526-.43 4.386-1.29.86-.86 1.29-2.494 1.29-4.902V33.148c0-1.777-.114-3.411-.344-4.902-.229-1.49-.802-2.695-1.72-3.612-.917-.917-2.408-1.376-4.472-1.376-2.236 0-4.242.688-6.02 2.064-1.72 1.376-3.096 3.268-4.128 5.676-.974 2.35-1.462 4.988-1.462 7.912v19.092c0 2.408.43 4.042 1.29 4.902.86.86 2.322 1.29 4.386 1.29V66c-.917-.057-2.293-.115-4.128-.172a85.491 85.491 0 0 0-5.504-.172c-1.892 0-3.841.057-5.848.172a163.47 163.47 0 0 0-4.472.172v-1.806c2.351 0 4.014-.43 4.988-1.29 1.032-.86 1.548-2.494 1.548-4.902V31.084c0-2.58-.458-4.472-1.376-5.676-.917-1.261-2.637-1.892-5.16-1.892V21.71c1.835.172 3.612.258 5.332.258 1.663 0 3.24-.086 4.73-.258 1.548-.23 2.953-.545 4.214-.946v10.148c1.491-3.727 3.526-6.393 6.106-7.998 2.58-1.605 5.246-2.408 7.998-2.408zm25.886 0c2.007 0 3.756.287 5.246.86 1.491.573 2.724 1.376 3.698 2.408 1.09 1.147 1.835 2.637 2.236 4.472.402 1.835.602 4.1.602 6.794v22.962c0 2.408.488 4.042 1.462 4.902 1.032.86 2.724 1.29 5.074 1.29V66c-.974-.057-2.465-.115-4.472-.172a102.51 102.51 0 0 0-5.848-.172c-1.892 0-3.755.057-5.59.172-1.777.057-3.124.115-4.042.172v-1.806c2.064 0 3.526-.43 4.386-1.29.86-.86 1.29-2.494 1.29-4.902V33.148c0-1.777-.114-3.411-.344-4.902-.229-1.49-.802-2.695-1.72-3.612-.917-.917-2.408-1.376-4.472-1.376-2.236 0-4.242.688-6.02 2.064-1.72 1.376-3.096 3.24-4.128 5.59-.974 2.35-1.462 4.988-1.462 7.912l-.258-7.998c1.548-3.956 3.641-6.65 6.278-8.084 2.638-1.49 5.332-2.236 8.084-2.236zm61.12.258v35.948c0 2.58.459 4.5 1.376 5.762.975 1.204 2.695 1.806 5.16 1.806v1.806a55.308 55.308 0 0 0-5.332-.258c-1.662 0-3.268.086-4.816.258-1.49.172-2.866.487-4.128.946V56.884c-1.433 3.727-3.468 6.393-6.106 7.998-2.58 1.548-5.246 2.322-7.998 2.322-2.006 0-3.755-.287-5.246-.86-1.49-.573-2.723-1.376-3.698-2.408-1.089-1.147-1.834-2.637-2.236-4.472-.401-1.835-.602-4.1-.602-6.794V31.084c0-2.58-.458-4.472-1.376-5.676-.917-1.261-2.637-1.892-5.16-1.892V21.71c1.835.172 3.612.258 5.332.258 1.663 0 3.24-.086 4.73-.258 1.548-.23 2.953-.545 4.214-.946v33.798c0 1.777.115 3.411.344 4.902.23 1.49.803 2.695 1.72 3.612.918.917 2.408 1.376 4.472 1.376 2.236 0 4.214-.688 5.934-2.064 1.778-1.376 3.154-3.24 4.128-5.59 1.032-2.35 1.548-4.988 1.548-7.912V31.084c0-2.58-.458-4.472-1.376-5.676-.917-1.261-2.637-1.892-5.16-1.892V21.71c1.835.172 3.612.258 5.332.258 1.663 0 3.24-.086 4.73-.258 1.548-.23 2.953-.545 4.214-.946zm39.823-.258c2.179 0 3.985.287 5.418.86 1.491.573 2.723 1.376 3.698 2.408 1.089 1.147 1.863 2.58 2.322 4.3.459 1.72.688 4.042.688 6.966v22.962c0 2.408.487 4.042 1.462 4.902 1.032.86 2.723 1.29 5.074 1.29V66c-.975-.057-2.465-.115-4.472-.172a102.537 102.537 0 0 0-5.848-.172c-1.892 0-3.755.057-5.59.172-1.777.057-3.125.115-4.042.172v-1.806c2.064 0 3.526-.43 4.386-1.29.86-.86 1.29-2.494 1.29-4.902V33.148c0-1.777-.143-3.411-.43-4.902-.287-1.49-.946-2.695-1.978-3.612-.975-.917-2.494-1.376-4.558-1.376-2.408 0-4.529.688-6.364 2.064-1.777 1.376-3.182 3.268-4.214 5.676-.975 2.35-1.462 4.988-1.462 7.912v19.092c0 2.408.43 4.042 1.29 4.902.86.86 2.322 1.29 4.386 1.29V66c-.917-.057-2.293-.115-4.128-.172a85.491 85.491 0 0 0-5.504-.172c-1.892 0-3.841.057-5.848.172-2.007.057-3.497.115-4.472.172v-1.806c2.351 0 4.013-.43 4.988-1.29 1.032-.86 1.548-2.494 1.548-4.902V31.084c0-2.58-.459-4.472-1.376-5.676-.917-1.261-2.637-1.892-5.16-1.892V21.71c1.835.172 3.612.258 5.332.258 1.663 0 3.239-.086 4.73-.258 1.548-.23 2.953-.545 4.214-.946v10.148c1.491-3.899 3.555-6.593 6.192-8.084 2.695-1.548 5.504-2.322 8.428-2.322zM566.366.21c1.491 0 2.781.545 3.87 1.634 1.09 1.09 1.634 2.38 1.634 3.87 0 1.49-.544 2.78-1.634 3.87-1.089 1.09-2.379 1.634-3.87 1.634-1.49 0-2.78-.545-3.87-1.634-1.089-1.09-1.634-2.38-1.634-3.87 0-1.49.545-2.78 1.634-3.87 1.09-1.09 2.38-1.634 3.87-1.634zm4.472 20.554v37.238c0 2.408.488 4.042 1.462 4.902 1.032.86 2.724 1.29 5.074 1.29V66c-.974-.057-2.465-.115-4.472-.172a100.998 100.998 0 0 0-5.934-.172 104 104 0 0 0-5.934.172 163.47 163.47 0 0 0-4.472.172v-1.806c2.351 0 4.014-.43 4.988-1.29 1.032-.86 1.548-2.494 1.548-4.902V31.084c0-2.58-.458-4.472-1.376-5.676-.917-1.261-2.637-1.892-5.16-1.892V21.71c1.835.172 3.612.258 5.332.258 1.663 0 3.24-.086 4.73-.258 1.548-.23 2.953-.545 4.214-.946zm24.766-13.33v14.362h12.728v1.72h-12.728v33.282c0 2.695.487 4.587 1.462 5.676.974 1.09 2.322 1.634 4.042 1.634 1.72 0 3.21-.688 4.472-2.064 1.261-1.433 2.35-3.813 3.268-7.138l1.72.43c-.574 3.325-1.72 6.135-3.44 8.428-1.663 2.293-4.243 3.44-7.74 3.44-1.95 0-3.555-.258-4.816-.774a9.649 9.649 0 0 1-3.354-2.064c-1.262-1.319-2.15-2.895-2.666-4.73-.459-1.835-.688-4.271-.688-7.31v-28.81h-8.256v-1.72h8.256V8.638a46.233 46.233 0 0 0 4.128-.344c1.318-.172 2.522-.459 3.612-.86zM652.15 21.71v1.72c-1.089.115-2.093.602-3.01 1.462-.917.86-1.777 2.38-2.58 4.558l-14.104 36.98h-1.462L615.17 28.332c-1.089-2.236-2.179-3.583-3.268-4.042-1.032-.516-1.892-.774-2.58-.774V21.71c1.261.172 2.58.315 3.956.43 1.376.057 2.867.086 4.472.086 1.777 0 3.641-.057 5.59-.172 2.007-.115 3.87-.23 5.59-.344v1.806c-1.433 0-2.723.115-3.87.344-1.089.172-1.777.774-2.064 1.806-.287.975.057 2.666 1.032 5.074l10.578 26.23-.516.172 9.804-25.628c.745-1.892 1.032-3.383.86-4.472-.115-1.147-.688-2.007-1.72-2.58s-2.58-.917-4.644-1.032v-1.72c1.032.057 1.921.115 2.666.172.745 0 1.462.029 2.15.086h2.408c1.319 0 2.494-.029 3.526-.086 1.089-.057 2.093-.115 3.01-.172zm-19.694 44.72-2.924 7.482c-.573 1.433-1.175 2.637-1.806 3.612-.573.975-1.204 1.777-1.892 2.408a6.935 6.935 0 0 1-3.268 1.72c-1.261.344-2.408.516-3.44.516-1.089 0-2.093-.2-3.01-.602a4.842 4.842 0 0 1-2.064-1.806c-.516-.745-.774-1.663-.774-2.752 0-1.376.401-2.494 1.204-3.354.803-.803 1.921-1.204 3.354-1.204 1.204 0 2.236.344 3.096 1.032.86.688 1.29 1.691 1.29 3.01 0 .975-.229 1.777-.688 2.408a4.94 4.94 0 0 1-1.634 1.462.664.664 0 0 0 .258.086h.258c1.548 0 2.924-.545 4.128-1.634 1.204-1.032 2.265-2.723 3.182-5.074l3.096-7.998 1.634.688zM14.16 106.2c2.08 0 3.88.76 5.4 2.28 1.52 1.52 2.28 3.32 2.28 5.4 0 2.08-.76 3.88-2.28 5.4-1.52 1.52-3.32 2.28-5.4 2.28-2.08 0-3.88-.76-5.4-2.28-1.52-1.52-2.28-3.32-2.28-5.4 0-2.08.76-3.88 2.28-5.4 1.52-1.52 3.32-2.28 5.4-2.28zm6.24 28.68v51.96c0 3.36.68 5.64 2.04 6.84 1.44 1.2 3.8 1.8 7.08 1.8V198c-1.36-.08-3.44-.16-6.24-.24-2.72-.16-5.48-.24-8.28-.24-2.72 0-5.48.08-8.28.24-2.8.08-4.88.16-6.24.24v-2.52c3.28 0 5.6-.6 6.96-1.8 1.44-1.2 2.16-3.48 2.16-6.84v-37.56c0-3.6-.64-6.24-1.92-7.92-1.28-1.76-3.68-2.64-7.2-2.64v-2.52c2.56.24 5.04.36 7.44.36 2.32 0 4.52-.12 6.6-.36 2.16-.32 4.12-.76 5.88-1.32zm36.716-.36c3.2 0 5.92.52 8.16 1.56s3.88 2 4.92 2.88c2.64 2.16 4.24.72 4.8-4.32h2.76c-.16 2.24-.28 4.92-.36 8.04-.08 3.04-.12 7.16-.12 12.36h-2.76c-.48-2.96-1.32-5.84-2.52-8.64-1.12-2.8-2.8-5.08-5.04-6.84-2.24-1.84-5.16-2.76-8.76-2.76-2.8 0-5.16.8-7.08 2.4-1.84 1.52-2.76 3.8-2.76 6.84 0 2.4.72 4.48 2.16 6.24 1.44 1.68 3.32 3.28 5.64 4.8 2.32 1.44 4.84 3.04 7.56 4.8 3.04 1.92 5.8 3.88 8.28 5.88 2.48 2 4.44 4.2 5.88 6.6 1.52 2.4 2.28 5.24 2.28 8.52 0 3.68-.96 6.76-2.88 9.24-1.92 2.48-4.44 4.36-7.56 5.64-3.04 1.28-6.4 1.92-10.08 1.92-1.76 0-3.44-.16-5.04-.48-1.52-.24-3-.64-4.44-1.2-.8-.4-1.64-.88-2.52-1.44-.8-.56-1.6-1.16-2.4-1.8-.8-.64-1.52-.6-2.16.12-.64.64-1.12 1.96-1.44 3.96h-2.76c.16-2.56.28-5.68.36-9.36.08-3.68.12-8.56.12-14.64h2.76c.56 4.48 1.36 8.4 2.4 11.76 1.04 3.36 2.68 6 4.92 7.92 2.24 1.84 5.36 2.76 9.36 2.76 1.6 0 3.2-.36 4.8-1.08 1.68-.72 3.08-1.92 4.2-3.6 1.12-1.68 1.68-3.92 1.68-6.72 0-3.52-1.28-6.4-3.84-8.64-2.56-2.24-5.8-4.6-9.72-7.08-2.88-1.84-5.6-3.68-8.16-5.52-2.48-1.84-4.52-3.92-6.12-6.24-1.52-2.32-2.28-5.12-2.28-8.4 0-3.6.8-6.52 2.4-8.76 1.68-2.32 3.88-4 6.6-5.04 2.72-1.12 5.64-1.68 8.76-1.68zm102.395 0c3.04 0 5.56.4 7.56 1.2 2.08.8 3.8 1.92 5.16 3.36 1.52 1.6 2.6 3.6 3.24 6 .64 2.4.96 5.64.96 9.72v32.04c0 3.36.68 5.64 2.04 6.84 1.44 1.2 3.8 1.8 7.08 1.8V198c-1.36-.08-3.44-.16-6.24-.24-2.8-.16-5.52-.24-8.16-.24-2.64 0-5.24.08-7.8.24-2.48.08-4.36.16-5.64.24v-2.52c2.88 0 4.92-.6 6.12-1.8 1.2-1.2 1.8-3.48 1.8-6.84v-34.68c0-2.48-.2-4.76-.6-6.84-.4-2.08-1.32-3.76-2.76-5.04-1.36-1.28-3.48-1.92-6.36-1.92-3.36 0-6.32.96-8.88 2.88-2.48 1.92-4.44 4.56-5.88 7.92-1.36 3.28-2.04 6.96-2.04 11.04v26.64c0 3.36.6 5.64 1.8 6.84 1.2 1.2 3.24 1.8 6.12 1.8V198c-1.28-.08-3.2-.16-5.76-.24-2.48-.16-5.04-.24-7.68-.24-2.64 0-5.36.08-8.16.24-2.8.08-4.88.16-6.24.24v-2.52c3.28 0 5.6-.6 6.96-1.8 1.44-1.2 2.16-3.48 2.16-6.84v-37.56c0-3.6-.64-6.24-1.92-7.92-1.28-1.76-3.68-2.64-7.2-2.64v-2.52c2.56.24 5.04.36 7.44.36 2.32 0 4.52-.12 6.6-.36 2.16-.32 4.12-.76 5.88-1.32v14.16c2.08-5.44 4.96-9.2 8.64-11.28 3.76-2.16 7.68-3.24 11.76-3.24zm60.682 0c5.12 0 9.72 1.12 13.8 3.36 4.08 2.24 7.32 5.76 9.72 10.56 2.48 4.8 3.72 11.04 3.72 18.72s-1.24 13.92-3.72 18.72c-2.4 4.72-5.64 8.2-9.72 10.44-4.08 2.24-8.68 3.36-13.8 3.36-5.04 0-9.64-1.12-13.8-3.36-4.08-2.24-7.36-5.72-9.84-10.44-2.4-4.8-3.6-11.04-3.6-18.72s1.2-13.92 3.6-18.72c2.48-4.8 5.76-8.32 9.84-10.56 4.16-2.24 8.76-3.36 13.8-3.36zm0 2.4c-4.56 0-8.32 2.36-11.28 7.08-2.88 4.72-4.32 12.44-4.32 23.16s1.44 18.44 4.32 23.16c2.96 4.64 6.72 6.96 11.28 6.96s8.28-2.32 11.16-6.96c2.96-4.72 4.44-12.44 4.44-23.16s-1.48-18.44-4.44-23.16c-2.88-4.72-6.6-7.08-11.16-7.08zm55.662-20.64v20.04h17.76v2.4h-17.76v46.44c0 3.76.68 6.4 2.04 7.92 1.36 1.52 3.24 2.28 5.64 2.28 2.4 0 4.48-.96 6.24-2.88 1.76-2 3.28-5.32 4.56-9.96l2.4.6c-.8 4.64-2.4 8.56-4.8 11.76-2.32 3.2-5.92 4.8-10.8 4.8-2.72 0-4.96-.36-6.72-1.08-1.76-.64-3.32-1.6-4.68-2.88-1.76-1.84-3-4.04-3.72-6.6-.64-2.56-.96-5.96-.96-10.2v-40.2h-11.52v-2.4h11.52v-18.36c2-.08 3.92-.24 5.76-.48 1.84-.24 3.52-.64 5.04-1.2zm68.032 82.56c-3.28 0-6.12-.6-8.52-1.8-2.4-1.28-4.24-3.04-5.52-5.28-1.2-2.24-1.8-4.84-1.8-7.8 0-3.52.8-6.4 2.4-8.64 1.68-2.24 3.8-4.04 6.36-5.4 2.56-1.36 5.24-2.48 8.04-3.36 2.88-.96 5.6-1.84 8.16-2.64 2.56-.88 4.64-1.88 6.24-3 1.68-1.12 2.52-2.6 2.52-4.44v-7.44c0-3.36-.52-5.92-1.56-7.68-.96-1.76-2.28-2.92-3.96-3.48-1.68-.64-3.56-.96-5.64-.96-2 0-4.16.28-6.48.84-2.24.56-4.04 1.72-5.4 3.48 1.52.32 2.84 1.12 3.96 2.4 1.12 1.28 1.68 2.92 1.68 4.92s-.64 3.6-1.92 4.8c-1.28 1.12-2.92 1.68-4.92 1.68-2.32 0-4.04-.72-5.16-2.16a8.731 8.731 0 0 1-1.56-5.04c0-2.08.52-3.76 1.56-5.04 1.04-1.28 2.36-2.48 3.96-3.6 1.84-1.28 4.2-2.36 7.08-3.24 2.96-.96 6.28-1.44 9.96-1.44 3.28 0 6.08.4 8.4 1.2 2.32.72 4.24 1.8 5.76 3.24 2.08 1.92 3.44 4.28 4.08 7.08.64 2.72.96 6 .96 9.84v33.36c0 2 .28 3.44.84 4.32.64.88 1.6 1.32 2.88 1.32.88 0 1.72-.2 2.52-.6.8-.4 1.76-1.04 2.88-1.92l1.32 2.04c-1.68 1.28-3.28 2.36-4.8 3.24-1.52.8-3.56 1.2-6.12 1.2-2.32 0-4.24-.4-5.76-1.2a8.12 8.12 0 0 1-3.48-3.48c-.72-1.6-1.08-3.6-1.08-6-2.16 3.6-4.76 6.28-7.8 8.04-2.96 1.76-6.32 2.64-10.08 2.64zm4.32-4.8c2.64 0 5.08-.76 7.32-2.28 2.32-1.52 4.4-3.8 6.24-6.84V161.4c-.96 1.36-2.36 2.52-4.2 3.48-1.84.88-3.84 1.8-6 2.76-2.16.88-4.24 1.96-6.24 3.24-1.92 1.2-3.52 2.8-4.8 4.8-1.28 2-1.92 4.6-1.92 7.8s.84 5.76 2.52 7.68c1.76 1.92 4.12 2.88 7.08 2.88zm85.962-59.16v73.68c0 3.44 1 5.72 3 6.84 2.08 1.2 4.92 1.8 8.52 1.8v2.52c-1.76-.08-4.2-.2-7.32-.36-3.12-.08-6.44-.12-9.96-.12-2.48 0-4.96.04-7.44.12-2.4.16-4.24.28-5.52.36v-2.52c2.88 0 4.92-.52 6.12-1.56 1.2-1.04 1.8-3 1.8-5.88v-60.48c0-3.6-.64-6.24-1.92-7.92-1.28-1.76-3.68-2.64-7.2-2.64v-2.52c2.56.24 5.04.36 7.44.36 2.32 0 4.52-.12 6.6-.36 2.16-.32 4.12-.76 5.88-1.32zm19.2-.36c4.24 0 8.04 1.16 11.4 3.48 3.36 2.24 6 5.56 7.92 9.96 2 4.4 3 9.84 3 16.32 0 4.32-.52 8.6-1.56 12.84-1.04 4.16-2.68 7.96-4.92 11.4-2.16 3.36-5 6.08-8.52 8.16-3.44 2-7.6 3-12.48 3-3.76 0-7.04-.88-9.84-2.64-2.72-1.76-4.56-3.88-5.52-6.36l1.2-1.68c1.12 2.24 2.72 4.12 4.8 5.64 2.16 1.52 4.84 2.28 8.04 2.28 4.48 0 7.96-1.4 10.44-4.2 2.48-2.8 4.2-6.52 5.16-11.16 1.04-4.72 1.56-9.92 1.56-15.6 0-6.4-.52-11.64-1.56-15.72s-2.6-7.12-4.68-9.12c-2.08-2-4.64-3-7.68-3-3.92 0-7.48 1.64-10.68 4.92-3.2 3.2-5.24 8.08-6.12 14.64l-1.44-1.68c.88-6.8 3.28-12.08 7.2-15.84 4-3.76 8.76-5.64 14.28-5.64zm68.767 0c2.16 0 4.04.44 5.64 1.32 1.68.88 2.96 2.04 3.84 3.48.96 1.36 1.44 2.92 1.44 4.68 0 2-.64 3.76-1.92 5.28-1.2 1.52-2.84 2.28-4.92 2.28-1.68 0-3.16-.52-4.44-1.56-1.28-1.12-1.92-2.68-1.92-4.68 0-1.52.4-2.8 1.2-3.84.88-1.12 1.84-2 2.88-2.64-.56-.8-1.4-1.2-2.52-1.2-2.48 0-4.76.76-6.84 2.28-2.08 1.44-3.84 3.32-5.28 5.64-1.44 2.32-2.56 4.8-3.36 7.44-.8 2.56-1.2 4.96-1.2 7.2v25.44c0 3.92 1.12 6.56 3.36 7.92 2.32 1.28 5.44 1.92 9.36 1.92V198c-1.84-.08-4.44-.16-7.8-.24-3.36-.16-6.92-.24-10.68-.24-2.72 0-5.44.08-8.16.24-2.64.08-4.64.16-6 .24v-2.52c3.28 0 5.6-.6 6.96-1.8 1.44-1.2 2.16-3.48 2.16-6.84v-37.56c0-3.6-.64-6.24-1.92-7.92-1.28-1.76-3.68-2.64-7.2-2.64v-2.52c2.56.24 5.04.36 7.44.36 2.32 0 4.52-.12 6.6-.36 2.16-.32 4.12-.76 5.88-1.32v15c.88-2.32 2.12-4.64 3.72-6.96 1.68-2.4 3.68-4.4 6-6 2.32-1.6 4.88-2.4 7.68-2.4zm29.797-28.32c2.08 0 3.88.76 5.4 2.28 1.52 1.52 2.28 3.32 2.28 5.4 0 2.08-.76 3.88-2.28 5.4-1.52 1.52-3.32 2.28-5.4 2.28-2.08 0-3.88-.76-5.4-2.28-1.52-1.52-2.28-3.32-2.28-5.4 0-2.08.76-3.88 2.28-5.4 1.52-1.52 3.32-2.28 5.4-2.28zm6.24 28.68v51.96c0 3.36.68 5.64 2.04 6.84 1.44 1.2 3.8 1.8 7.08 1.8V198c-1.36-.08-3.44-.16-6.24-.24-2.72-.16-5.48-.24-8.28-.24-2.72 0-5.48.08-8.28.24-2.8.08-4.88.16-6.24.24v-2.52c3.28 0 5.6-.6 6.96-1.8 1.44-1.2 2.16-3.48 2.16-6.84v-37.56c0-3.6-.64-6.24-1.92-7.92-1.28-1.76-3.68-2.64-7.2-2.64v-2.52c2.56.24 5.04.36 7.44.36 2.32 0 4.52-.12 6.6-.36 2.16-.32 4.12-.76 5.88-1.32zm70.077 1.32v2.4c-1.52.16-2.92.84-4.2 2.04-1.28 1.2-2.48 3.32-3.6 6.36l-19.68 51.6h-2.04l-22.08-53.16c-1.28-3.12-2.56-5-3.84-5.64-1.2-.72-2.24-1.08-3.12-1.08v-2.52c1.6.08 3.24.2 4.92.36 1.76.08 3.64.12 5.64.12 2.48 0 5.08-.04 7.8-.12 2.8-.08 5.4-.2 7.8-.36v2.52c-2 0-3.8.16-5.4.48-1.52.24-2.52 1-3 2.28-.4 1.28 0 3.48 1.2 6.6l15 37.08-.72.6 13.68-35.88c1.04-2.64 1.44-4.72 1.2-6.24-.16-1.6-.96-2.8-2.4-3.6-1.36-.8-3.48-1.28-6.36-1.44v-2.4c1.44.08 2.68.16 3.72.24 1.04 0 2.04.04 3 .12h3.36c1.84 0 3.48-.04 4.92-.12 1.52-.08 2.92-.16 4.2-.24zm17.551-30c2.08 0 3.88.76 5.4 2.28 1.52 1.52 2.28 3.32 2.28 5.4 0 2.08-.76 3.88-2.28 5.4-1.52 1.52-3.32 2.28-5.4 2.28-2.08 0-3.88-.76-5.4-2.28-1.52-1.52-2.28-3.32-2.28-5.4 0-2.08.76-3.88 2.28-5.4 1.52-1.52 3.32-2.28 5.4-2.28zm6.24 28.68v51.96c0 3.36.68 5.64 2.04 6.84 1.44 1.2 3.8 1.8 7.08 1.8V198c-1.36-.08-3.44-.16-6.24-.24-2.72-.16-5.48-.24-8.28-.24-2.72 0-5.48.08-8.28.24-2.8.08-4.88.16-6.24.24v-2.52c3.28 0 5.6-.6 6.96-1.8 1.44-1.2 2.16-3.48 2.16-6.84v-37.56c0-3.6-.64-6.24-1.92-7.92-1.28-1.76-3.68-2.64-7.2-2.64v-2.52c2.56.24 5.04.36 7.44.36 2.32 0 4.52-.12 6.6-.36 2.16-.32 4.12-.76 5.88-1.32zm34.316-30.96v82.92c0 3.36.68 5.64 2.04 6.84 1.44 1.2 3.8 1.8 7.08 1.8V198c-1.36-.08-3.44-.16-6.24-.24-2.72-.16-5.48-.24-8.28-.24-2.72 0-5.48.08-8.28.24-2.8.08-4.88.16-6.24.24v-2.52c3.28 0 5.6-.6 6.96-1.8 1.44-1.2 2.16-3.48 2.16-6.84v-68.52c0-3.6-.64-6.24-1.92-7.92-1.28-1.76-3.68-2.64-7.2-2.64v-2.52c2.56.24 5.04.36 7.44.36 2.32 0 4.52-.12 6.6-.36 2.16-.32 4.12-.76 5.88-1.32zm43.244 30.6c7.04 0 12.52 2.16 16.44 6.48 4 4.24 6 10.88 6 19.92h-42.36l-.12-2.28h30.96c.16-3.92-.16-7.52-.96-10.8-.8-3.36-2.08-6.04-3.84-8.04-1.68-2-3.88-3-6.6-3-3.68 0-6.96 1.84-9.84 5.52-2.8 3.68-4.48 9.52-5.04 17.52l.36.48c-.16 1.2-.28 2.52-.36 3.96-.08 1.44-.12 2.88-.12 4.32 0 5.44.88 10.12 2.64 14.04 1.76 3.92 4.04 6.92 6.84 9 2.88 2 5.84 3 8.88 3 2.4 0 4.68-.36 6.84-1.08 2.16-.8 4.16-2.08 6-3.84 1.84-1.76 3.44-4.12 4.8-7.08l2.4.96c-.88 2.64-2.32 5.2-4.32 7.68-2 2.48-4.52 4.52-7.56 6.12-3.04 1.52-6.56 2.28-10.56 2.28-5.76 0-10.72-1.32-14.88-3.96-4.08-2.64-7.24-6.28-9.48-10.92-2.16-4.72-3.24-10.12-3.24-16.2 0-7.04 1.12-13.08 3.36-18.12 2.24-5.12 5.4-9.04 9.48-11.76 4.08-2.8 8.84-4.2 14.28-4.2zm53.623 86.04c-4.24 0-8.24-.44-12-1.32-3.76-.88-6.8-2.28-9.12-4.2-2.24-1.84-3.36-4.2-3.36-7.08 0-2.8 1.12-5.2 3.36-7.2 2.24-2 5.28-3.52 9.12-4.56l.72 1.92c-1.76.56-3.16 1.68-4.2 3.36s-1.56 3.56-1.56 5.64c0 3.68 1.68 6.48 5.04 8.4 3.44 2 7.88 3 13.32 3 3.6 0 7.12-.48 10.56-1.44 3.44-.88 6.28-2.4 8.52-4.56 2.24-2.16 3.36-5 3.36-8.52 0-2.64-.96-4.8-2.88-6.48-1.84-1.76-5.52-2.64-11.04-2.64h-8.88c-2.56 0-5.04-.2-7.44-.6-2.4-.4-4.36-1.24-5.88-2.52-1.52-1.28-2.28-3.24-2.28-5.88 0-2.72 1.12-5.32 3.36-7.8 2.24-2.56 6.36-5.16 12.36-7.8l1.44 1.08c-2.72 1.44-5.08 2.92-7.08 4.44-2 1.44-3 3.16-3 5.16 0 2.56 1.92 3.84 5.76 3.84h15c3.36 0 6.44.48 9.24 1.44 2.88.96 5.2 2.48 6.96 4.56 1.76 2.08 2.64 4.8 2.64 8.16 0 3.76-1.2 7.28-3.6 10.56-2.4 3.28-6 5.92-10.8 7.92-4.72 2.08-10.6 3.12-17.64 3.12zm.6-48.12c-3.92 0-7.48-.64-10.68-1.92-3.2-1.36-5.72-3.44-7.56-6.24-1.84-2.8-2.76-6.4-2.76-10.8s.92-8 2.76-10.8c1.84-2.8 4.36-4.84 7.56-6.12 3.2-1.36 6.76-2.04 10.68-2.04 4 0 7.56.68 10.68 2.04 3.2 1.28 5.72 3.32 7.56 6.12 1.84 2.8 2.76 6.4 2.76 10.8s-.92 8-2.76 10.8c-1.84 2.8-4.36 4.88-7.56 6.24-3.12 1.28-6.68 1.92-10.68 1.92zm0-2.16c3.04 0 5.4-1.2 7.08-3.6 1.76-2.4 2.64-6.8 2.64-13.2 0-6.4-.88-10.8-2.64-13.2-1.68-2.4-4.04-3.6-7.08-3.6-2.96 0-5.32 1.2-7.08 3.6-1.76 2.4-2.64 6.8-2.64 13.2 0 6.4.88 10.8 2.64 13.2 1.76 2.4 4.12 3.6 7.08 3.6zm17.28-25.8-2.16-.84c1.12-2.72 3.04-5.12 5.76-7.2 2.72-2.08 5.56-3.12 8.52-3.12 2.08 0 3.76.6 5.04 1.8 1.28 1.12 1.92 2.84 1.92 5.16 0 2.48-.68 4.24-2.04 5.28-1.28.96-2.6 1.44-3.96 1.44-1.2 0-2.32-.4-3.36-1.2-1.04-.88-1.64-2.24-1.8-4.08-.16-1.84.4-4.2 1.68-7.08l1.56.36c-3.36 1.28-5.76 2.64-7.2 4.08-1.44 1.36-2.76 3.16-3.96 5.4zm51.427-9.96c7.04 0 12.52 2.16 16.44 6.48 4 4.24 6 10.88 6 19.92h-42.36l-.12-2.28h30.96c.16-3.92-.16-7.52-.96-10.8-.8-3.36-2.08-6.04-3.84-8.04-1.68-2-3.88-3-6.6-3-3.68 0-6.96 1.84-9.84 5.52-2.8 3.68-4.48 9.52-5.04 17.52l.36.48c-.16 1.2-.28 2.52-.36 3.96-.08 1.44-.12 2.88-.12 4.32 0 5.44.88 10.12 2.64 14.04 1.76 3.92 4.04 6.92 6.84 9 2.88 2 5.84 3 8.88 3 2.4 0 4.68-.36 6.84-1.08 2.16-.8 4.16-2.08 6-3.84 1.84-1.76 3.44-4.12 4.8-7.08l2.4.96c-.88 2.64-2.32 5.2-4.32 7.68-2 2.48-4.52 4.52-7.56 6.12-3.04 1.52-6.56 2.28-10.56 2.28-5.76 0-10.72-1.32-14.88-3.96-4.08-2.64-7.24-6.28-9.48-10.92-2.16-4.72-3.24-10.12-3.24-16.2 0-7.04 1.12-13.08 3.36-18.12 2.24-5.12 5.4-9.04 9.48-11.76 4.08-2.8 8.84-4.2 14.28-4.2zm43.783-30.36c1.52 0 2.8.52 3.84 1.56 1.12 1.04 1.68 2.76 1.68 5.16 0 3.12-.24 7-.72 11.64-.4 4.64-.92 9.8-1.56 15.48-.56 5.6-1.08 11.52-1.56 17.76-.4 6.16-.6 12.4-.6 18.72h-2.16c0-6.32-.24-12.56-.72-18.72-.4-6.24-.92-12.16-1.56-17.76-.56-5.68-1.08-10.84-1.56-15.48-.4-4.64-.6-8.52-.6-11.64 0-2.4.52-4.12 1.56-5.16 1.12-1.04 2.44-1.56 3.96-1.56zm0 80.16c2.08 0 3.88.76 5.4 2.28 1.52 1.52 2.28 3.32 2.28 5.4 0 2.08-.76 3.88-2.28 5.4-1.52 1.52-3.32 2.28-5.4 2.28-2.08 0-3.88-.76-5.4-2.28-1.52-1.52-2.28-3.32-2.28-5.4 0-2.08.76-3.88 2.28-5.4 1.52-1.52 3.32-2.28 5.4-2.28z" fill="#182D2E"/>
</svg>
