<svg width="646" height="203" viewBox="0 0 646 203" fill="none" xmlns="http://www.w3.org/2000/svg">
    <path d="M59.1 8.2v2c-1.267.266-2.533 1.1-3.8 2.5-1.267 1.333-2.667 3.466-4.2 6.4l-20.2 40h-1.7L5.8 15.9c-1.333-2.467-2.467-4-3.4-4.6-.867-.667-1.667-1-2.4-1V8.2c1.333.066 2.7.133 4.1.2 1.467.066 3.033.1 4.7.1h7c2.533-.067 4.867-.167 7-.3v2.1c-1.667 0-3.133.2-4.4.6-1.267.4-2.1 1.133-2.5 2.2-.4 1.066-.1 2.566.9 4.5L33.7 50l-.8.6 13.3-26.5c1.867-3.667 2.767-6.5 2.7-8.5 0-2-.767-3.367-2.3-4.1-1.533-.8-3.7-1.234-6.5-1.3v-2l5.9.2c2 .066 3.867.1 5.6.1a75.69 75.69 0 0 0 4.3-.1c1.133-.067 2.2-.134 3.2-.2zM35.4 48.6v19.8c0 2.4.2 4.2.6 5.4.4 1.2 1.167 2 2.3 2.4 1.2.4 2.933.666 5.2.8v2c-1.533-.134-3.467-.2-5.8-.2-2.267-.067-4.567-.1-6.9-.1-2.6 0-5.033.033-7.3.1-2.267 0-4.1.066-5.5.2v-2c2.267-.134 3.967-.4 5.1-.8 1.2-.4 2-1.2 2.4-2.4.4-1.2.6-3 .6-5.4V47.9l5.4 6.2 3.9-5.5zM80.044 26.1c4.266 0 8.1.933 11.5 2.8 3.4 1.866 6.1 4.8 8.1 8.8 2.066 4 3.1 9.2 3.1 15.6s-1.034 11.6-3.1 15.6c-2 3.933-4.7 6.833-8.1 8.7-3.4 1.866-7.234 2.8-11.5 2.8-4.2 0-8.034-.934-11.5-2.8-3.4-1.867-6.134-4.767-8.2-8.7-2-4-3-9.2-3-15.6s1-11.6 3-15.6c2.066-4 4.8-6.934 8.2-8.8 3.466-1.867 7.3-2.8 11.5-2.8zm0 2c-3.8 0-6.934 1.966-9.4 5.9-2.4 3.933-3.6 10.366-3.6 19.3 0 8.933 1.2 15.366 3.6 19.3 2.466 3.866 5.6 5.8 9.4 5.8 3.8 0 6.9-1.934 9.3-5.8 2.466-3.934 3.7-10.367 3.7-19.3 0-8.934-1.234-15.367-3.7-19.3-2.4-3.934-5.5-5.9-9.3-5.9zM155.729 26.4v41.8c0 3 .533 5.233 1.6 6.7 1.133 1.4 3.133 2.1 6 2.1v2.1a64.33 64.33 0 0 0-6.2-.3c-1.933 0-3.8.1-5.6.3-1.733.2-3.333.566-4.8 1.1V68.4c-1.667 4.333-4.033 7.433-7.1 9.3-3 1.8-6.1 2.7-9.3 2.7-2.333 0-4.367-.334-6.1-1-1.733-.667-3.167-1.6-4.3-2.8-1.267-1.334-2.133-3.067-2.6-5.2-.467-2.134-.7-4.767-.7-7.9V38.4c0-3-.533-5.2-1.6-6.6-1.067-1.467-3.067-2.2-6-2.2v-2.1c2.133.2 4.2.3 6.2.3 1.933 0 3.767-.1 5.5-.3 1.8-.267 3.433-.634 4.9-1.1v39.3c0 2.066.133 3.966.4 5.7.267 1.733.933 3.133 2 4.2 1.067 1.066 2.8 1.6 5.2 1.6 2.6 0 4.9-.8 6.9-2.4 2.067-1.6 3.667-3.767 4.8-6.5 1.2-2.734 1.8-5.8 1.8-9.2V38.4c0-3-.533-5.2-1.6-6.6-1.067-1.467-3.067-2.2-6-2.2v-2.1c2.133.2 4.2.3 6.2.3 1.933 0 3.767-.1 5.5-.3 1.8-.267 3.433-.634 4.9-1.1zM199.534 26.1c1.8 0 3.367.366 4.7 1.1 1.4.733 2.467 1.7 3.2 2.9.8 1.133 1.2 2.433 1.2 3.9 0 1.666-.533 3.133-1.6 4.4-1 1.266-2.366 1.9-4.1 1.9-1.4 0-2.633-.434-3.7-1.3-1.066-.934-1.6-2.234-1.6-3.9 0-1.267.334-2.334 1-3.2.734-.934 1.534-1.667 2.4-2.2-.466-.667-1.166-1-2.1-1-2.066 0-3.966.633-5.7 1.9-1.733 1.2-3.2 2.766-4.4 4.7-1.2 1.933-2.133 4-2.8 6.2-.666 2.133-1 4.133-1 6v21.2c0 3.266.934 5.466 2.8 6.6 1.934 1.066 4.534 1.6 7.8 1.6V79c-1.533-.067-3.7-.134-6.5-.2-2.8-.134-5.766-.2-8.9-.2-2.266 0-4.533.066-6.8.2-2.2.066-3.866.133-5 .2v-2.1c2.734 0 4.667-.5 5.8-1.5 1.2-1 1.8-2.9 1.8-5.7V38.4c0-3-.533-5.2-1.6-6.6-1.066-1.467-3.066-2.2-6-2.2v-2.1c2.134.2 4.2.3 6.2.3 1.934 0 3.767-.1 5.5-.3 1.8-.267 3.434-.634 4.9-1.1v12.5c.734-1.934 1.767-3.867 3.1-5.8 1.4-2 3.067-3.667 5-5 1.934-1.334 4.067-2 6.4-2zM248.392.7v37.4c1.734-4.534 4.134-7.667 7.2-9.4 3.134-1.734 6.4-2.6 9.8-2.6 2.534 0 4.634.333 6.3 1 1.734.666 3.167 1.6 4.3 2.8 1.267 1.333 2.167 3 2.7 5 .534 2 .8 4.7.8 8.1v26.7c0 2.8.567 4.7 1.7 5.7 1.2 1 3.167 1.5 5.9 1.5V79a189.718 189.718 0 0 0-5.2-.2c-2.333-.134-4.6-.2-6.8-.2s-4.366.066-6.5.2c-2.066.066-3.633.133-4.7.2v-2.1c2.4 0 4.1-.5 5.1-1.5s1.5-2.9 1.5-5.7V40.8c0-2.067-.166-3.967-.5-5.7-.333-1.734-1.1-3.134-2.3-4.2-1.133-1.067-2.9-1.6-5.3-1.6-2.733 0-5.166.766-7.3 2.3-2.066 1.533-3.7 3.666-4.9 6.4-1.2 2.733-1.8 5.866-1.8 9.4v22.3c0 2.8.5 4.7 1.5 5.7s2.7 1.5 5.1 1.5V79a168.24 168.24 0 0 0-4.8-.2c-2.066-.134-4.2-.2-6.4-.2s-4.466.066-6.8.2c-2.333.066-4.066.133-5.2.2v-2.1c2.734 0 4.667-.5 5.8-1.5 1.2-1 1.8-2.9 1.8-5.7v-57c0-3-.533-5.2-1.6-6.6-1.066-1.467-3.066-2.2-6-2.2V1.8c2.134.2 4.2.3 6.2.3 1.934 0 3.767-.1 5.5-.3 1.8-.267 3.434-.634 4.9-1.1zM315.781 26.1c5.867 0 10.434 1.8 13.7 5.4 3.334 3.533 5 9.066 5 16.6h-35.3l-.1-1.9h25.8c.134-3.267-.133-6.267-.8-9-.666-2.8-1.733-5.034-3.2-6.7-1.4-1.667-3.233-2.5-5.5-2.5-3.066 0-5.8 1.533-8.2 4.6-2.333 3.066-3.733 7.933-4.2 14.6l.3.4c-.133 1-.233 2.1-.3 3.3-.066 1.2-.1 2.4-.1 3.6 0 4.533.734 8.433 2.2 11.7 1.467 3.266 3.367 5.766 5.7 7.5 2.4 1.666 4.867 2.5 7.4 2.5 2 0 3.9-.3 5.7-.9 1.8-.667 3.467-1.734 5-3.2 1.534-1.467 2.867-3.434 4-5.9l2 .8c-.733 2.2-1.933 4.333-3.6 6.4-1.666 2.066-3.766 3.766-6.3 5.1-2.533 1.266-5.466 1.9-8.8 1.9-4.8 0-8.933-1.1-12.4-3.3-3.4-2.2-6.033-5.234-7.9-9.1-1.8-3.934-2.7-8.434-2.7-13.5 0-5.867.934-10.9 2.8-15.1 1.867-4.267 4.5-7.534 7.9-9.8 3.4-2.334 7.367-3.5 11.9-3.5zM356.267 79.7c-2.733 0-5.1-.5-7.1-1.5-2-1.067-3.533-2.534-4.6-4.4-1-1.867-1.5-4.034-1.5-6.5 0-2.934.667-5.334 2-7.2 1.4-1.867 3.167-3.367 5.3-4.5a39.51 39.51 0 0 1 6.7-2.8c2.4-.8 4.667-1.534 6.8-2.2 2.134-.734 3.867-1.567 5.2-2.5 1.4-.934 2.1-2.167 2.1-3.7v-6.2c0-2.8-.433-4.934-1.3-6.4-.8-1.467-1.9-2.434-3.3-2.9-1.4-.534-2.966-.8-4.7-.8-1.666 0-3.466.233-5.4.7-1.866.466-3.366 1.433-4.5 2.9 1.267.266 2.367.933 3.3 2 .934 1.066 1.4 2.433 1.4 4.1 0 1.666-.533 3-1.6 4-1.066.933-2.433 1.4-4.1 1.4-1.933 0-3.366-.6-4.3-1.8a7.28 7.28 0 0 1-1.3-4.2c0-1.734.434-3.134 1.3-4.2.867-1.067 1.967-2.067 3.3-3 1.534-1.067 3.5-1.967 5.9-2.7 2.467-.8 5.234-1.2 8.3-1.2 2.734 0 5.067.333 7 1 1.934.6 3.534 1.5 4.8 2.7 1.734 1.6 2.867 3.566 3.4 5.9.534 2.266.8 5 .8 8.2v27.8c0 1.666.234 2.866.7 3.6.534.733 1.334 1.1 2.4 1.1.734 0 1.434-.167 2.1-.5.667-.334 1.467-.867 2.4-1.6l1.1 1.7c-1.4 1.066-2.733 1.966-4 2.7-1.266.666-2.966 1-5.1 1-1.933 0-3.533-.334-4.8-1a6.772 6.772 0 0 1-2.9-2.9c-.6-1.334-.9-3-.9-5-1.8 3-3.966 5.233-6.5 6.7-2.466 1.466-5.266 2.2-8.4 2.2zm3.6-4c2.2 0 4.234-.634 6.1-1.9 1.934-1.267 3.667-3.167 5.2-5.7V48.5c-.8 1.133-1.966 2.1-3.5 2.9-1.533.733-3.2 1.5-5 2.3a32.104 32.104 0 0 0-5.2 2.7c-1.6 1-2.933 2.333-4 4-1.066 1.666-1.6 3.833-1.6 6.5 0 2.666.7 4.8 2.1 6.4 1.467 1.6 3.434 2.4 5.9 2.4zM407.772.6v69.1c0 2.8.567 4.7 1.7 5.7 1.2 1 3.167 1.5 5.9 1.5V79a189.886 189.886 0 0 0-5.2-.2c-2.267-.134-4.567-.2-6.9-.2-2.267 0-4.567.066-6.9.2-2.333.066-4.067.133-5.2.2v-2.1c2.733 0 4.667-.5 5.8-1.5 1.2-1 1.8-2.9 1.8-5.7V12.6c0-3-.533-5.2-1.6-6.6-1.067-1.467-3.067-2.2-6-2.2V1.7c2.133.2 4.2.3 6.2.3 1.933 0 3.767-.1 5.5-.3 1.8-.267 3.433-.634 4.9-1.1zM436.585 10.9v16.7h14.8v2h-14.8v38.7c0 3.133.567 5.333 1.7 6.6 1.133 1.266 2.7 1.9 4.7 1.9s3.733-.8 5.2-2.4c1.467-1.667 2.734-4.434 3.8-8.3l2 .5c-.666 3.866-2 7.133-4 9.8-1.933 2.666-4.933 4-9 4-2.266 0-4.133-.3-5.6-.9a11.234 11.234 0 0 1-3.9-2.4c-1.466-1.534-2.5-3.367-3.1-5.5-.533-2.134-.8-4.967-.8-8.5V29.6h-9.6v-2h9.6V12.3c1.667-.067 3.267-.2 4.8-.4s2.933-.534 4.2-1zM471.537.7v37.4c1.733-4.534 4.133-7.667 7.2-9.4 3.133-1.734 6.4-2.6 9.8-2.6 2.533 0 4.633.333 6.3 1 1.733.666 3.166 1.6 4.3 2.8 1.266 1.333 2.166 3 2.7 5 .533 2 .8 4.7.8 8.1v26.7c0 2.8.566 4.7 1.7 5.7 1.2 1 3.166 1.5 5.9 1.5V79a190.054 190.054 0 0 0-5.2-.2c-2.334-.134-4.6-.2-6.8-.2s-4.367.066-6.5.2c-2.067.066-3.634.133-4.7.2v-2.1c2.4 0 4.1-.5 5.1-1.5s1.5-2.9 1.5-5.7V40.8c0-2.067-.167-3.967-.5-5.7-.334-1.734-1.1-3.134-2.3-4.2-1.134-1.067-2.9-1.6-5.3-1.6-2.734 0-5.167.766-7.3 2.3-2.067 1.533-3.7 3.666-4.9 6.4-1.2 2.733-1.8 5.866-1.8 9.4v22.3c0 2.8.5 4.7 1.5 5.7s2.7 1.5 5.1 1.5V79a168.574 168.574 0 0 0-4.8-.2c-2.067-.134-4.2-.2-6.4-.2s-4.467.066-6.8.2c-2.334.066-4.067.133-5.2.2v-2.1c2.733 0 4.666-.5 5.8-1.5 1.2-1 1.8-2.9 1.8-5.7v-57c0-3-.534-5.2-1.6-6.6-1.067-1.467-3.067-2.2-6-2.2V1.8c2.133.2 4.2.3 6.2.3 1.933 0 3.766-.1 5.5-.3 1.8-.267 3.433-.634 4.9-1.1zM14.6 107.5c1.733 0 3.233.633 4.5 1.9 1.267 1.266 1.9 2.766 1.9 4.5 0 1.733-.633 3.233-1.9 4.5-1.267 1.266-2.767 1.9-4.5 1.9s-3.233-.634-4.5-1.9c-1.267-1.267-1.9-2.767-1.9-4.5 0-1.734.633-3.234 1.9-4.5 1.267-1.267 2.767-1.9 4.5-1.9zm5.2 23.9v43.3c0 2.8.567 4.7 1.7 5.7 1.2 1 3.167 1.5 5.9 1.5v2.1a185.86 185.86 0 0 0-5.2-.2c-2.267-.134-4.567-.2-6.9-.2-2.267 0-4.567.066-6.9.2a185.86 185.86 0 0 0-5.2.2v-2.1c2.733 0 4.667-.5 5.8-1.5 1.2-1 1.8-2.9 1.8-5.7v-31.3c0-3-.533-5.2-1.6-6.6-1.067-1.467-3.067-2.2-6-2.2v-2.1c2.133.2 4.2.3 6.2.3 1.933 0 3.767-.1 5.5-.3 1.8-.267 3.433-.634 4.9-1.1zM50.397 131.1c2.666 0 4.933.433 6.8 1.3 1.866.866 3.233 1.666 4.1 2.4 2.2 1.8 3.533.6 4-3.6h2.3c-.133 1.866-.233 4.1-.3 6.7-.067 2.533-.1 5.966-.1 10.3h-2.3c-.4-2.467-1.1-4.867-2.1-7.2-.933-2.334-2.333-4.234-4.2-5.7-1.867-1.534-4.3-2.3-7.3-2.3-2.333 0-4.3.666-5.9 2-1.533 1.266-2.3 3.166-2.3 5.7 0 2 .6 3.733 1.8 5.2 1.2 1.4 2.767 2.733 4.7 4a396.79 396.79 0 0 1 6.3 4c2.533 1.6 4.833 3.233 6.9 4.9 2.067 1.666 3.7 3.5 4.9 5.5 1.266 2 1.9 4.366 1.9 7.1 0 3.066-.8 5.633-2.4 7.7-1.6 2.066-3.7 3.633-6.3 4.7-2.533 1.066-5.334 1.6-8.4 1.6a21.43 21.43 0 0 1-4.2-.4 17.91 17.91 0 0 1-3.7-1 23.888 23.888 0 0 1-2.1-1.2 39.417 39.417 0 0 1-2-1.5c-.667-.534-1.267-.5-1.8.1-.534.533-.934 1.633-1.2 3.3h-2.3c.133-2.134.233-4.734.3-7.8.066-3.067.1-7.134.1-12.2h2.3c.467 3.733 1.133 7 2 9.8.867 2.8 2.233 5 4.1 6.6 1.867 1.533 4.467 2.3 7.8 2.3 1.333 0 2.667-.3 4-.9 1.4-.6 2.567-1.6 3.5-3 .933-1.4 1.4-3.267 1.4-5.6 0-2.934-1.067-5.334-3.2-7.2-2.133-1.867-4.834-3.834-8.1-5.9a151.149 151.149 0 0 1-6.8-4.6c-2.067-1.534-3.767-3.267-5.1-5.2-1.267-1.934-1.9-4.267-1.9-7 0-3 .666-5.434 2-7.3 1.4-1.934 3.233-3.334 5.5-4.2 2.267-.934 4.7-1.4 7.3-1.4zM126.626 131.1c4.266 0 8.1.933 11.5 2.8 3.4 1.866 6.1 4.8 8.1 8.8 2.066 4 3.1 9.2 3.1 15.6s-1.034 11.6-3.1 15.6c-2 3.933-4.7 6.833-8.1 8.7-3.4 1.866-7.234 2.8-11.5 2.8-4.2 0-8.034-.934-11.5-2.8-3.4-1.867-6.134-4.767-8.2-8.7-2-4-3-9.2-3-15.6s1-11.6 3-15.6c2.066-4 4.8-6.934 8.2-8.8 3.466-1.867 7.3-2.8 11.5-2.8zm0 2c-3.8 0-6.934 1.966-9.4 5.9-2.4 3.933-3.6 10.366-3.6 19.3 0 8.933 1.2 15.366 3.6 19.3 2.466 3.866 5.6 5.8 9.4 5.8 3.8 0 6.9-1.934 9.3-5.8 2.466-3.934 3.7-10.367 3.7-19.3 0-8.934-1.234-15.367-3.7-19.3-2.4-3.934-5.5-5.9-9.3-5.9zM202.311 131.4v41.8c0 3 .533 5.233 1.6 6.7 1.133 1.4 3.133 2.1 6 2.1v2.1a64.33 64.33 0 0 0-6.2-.3c-1.933 0-3.8.1-5.6.3-1.733.2-3.333.566-4.8 1.1v-11.8c-1.667 4.333-4.033 7.433-7.1 9.3-3 1.8-6.1 2.7-9.3 2.7-2.333 0-4.367-.334-6.1-1-1.733-.667-3.167-1.6-4.3-2.8-1.267-1.334-2.133-3.067-2.6-5.2-.467-2.134-.7-4.767-.7-7.9v-25.1c0-3-.533-5.2-1.6-6.6-1.067-1.467-3.067-2.2-6-2.2v-2.1c2.133.2 4.2.3 6.2.3 1.933 0 3.767-.1 5.5-.3 1.8-.267 3.433-.634 4.9-1.1v39.3c0 2.066.133 3.966.4 5.7.267 1.733.933 3.133 2 4.2 1.067 1.066 2.8 1.6 5.2 1.6 2.6 0 4.9-.8 6.9-2.4 2.067-1.6 3.667-3.767 4.8-6.5 1.2-2.734 1.8-5.8 1.8-9.2v-20.7c0-3-.533-5.2-1.6-6.6-1.067-1.467-3.067-2.2-6-2.2v-2.1c2.133.2 4.2.3 6.2.3 1.933 0 3.767-.1 5.5-.3 1.8-.267 3.433-.634 4.9-1.1zM246.116 131.1c1.8 0 3.367.366 4.7 1.1 1.4.733 2.467 1.7 3.2 2.9.8 1.133 1.2 2.433 1.2 3.9 0 1.666-.533 3.133-1.6 4.4-1 1.266-2.366 1.9-4.1 1.9-1.4 0-2.633-.434-3.7-1.3-1.066-.934-1.6-2.234-1.6-3.9 0-1.267.334-2.334 1-3.2.734-.934 1.534-1.667 2.4-2.2-.466-.667-1.166-1-2.1-1-2.066 0-3.966.633-5.7 1.9-1.733 1.2-3.2 2.766-4.4 4.7a26.01 26.01 0 0 0-2.8 6.2c-.666 2.133-1 4.133-1 6v21.2c0 3.266.934 5.466 2.8 6.6 1.934 1.066 4.534 1.6 7.8 1.6v2.1c-1.533-.067-3.7-.134-6.5-.2-2.8-.134-5.766-.2-8.9-.2-2.266 0-4.533.066-6.8.2-2.2.066-3.866.133-5 .2v-2.1c2.734 0 4.667-.5 5.8-1.5 1.2-1 1.8-2.9 1.8-5.7v-31.3c0-3-.533-5.2-1.6-6.6-1.066-1.467-3.066-2.2-6-2.2v-2.1c2.134.2 4.2.3 6.2.3 1.934 0 3.767-.1 5.5-.3 1.8-.267 3.434-.634 4.9-1.1v12.5c.734-1.934 1.767-3.867 3.1-5.8 1.4-2 3.067-3.667 5-5 1.934-1.334 4.067-2 6.4-2zM298.202 131.4v61.4c0 2.866.833 4.766 2.5 5.7 1.733 1 4.1 1.5 7.1 1.5v2.1c-1.467-.067-3.5-.167-6.1-.3-2.6-.067-5.367-.1-8.3-.1-2.067 0-4.134.033-6.2.1-2 .133-3.534.233-4.6.3V200c2.4 0 4.1-.434 5.1-1.3 1-.867 1.5-2.5 1.5-4.9v-50.4c0-3-.534-5.2-1.6-6.6-1.067-1.467-3.067-2.2-6-2.2v-2.1c2.133.2 4.2.3 6.2.3 1.933 0 3.766-.1 5.5-.3 1.8-.267 3.433-.634 4.9-1.1zm16-.3c3.533 0 6.7.966 9.5 2.9 2.8 1.866 5 4.633 6.6 8.3 1.666 3.666 2.5 8.2 2.5 13.6 0 3.6-.434 7.166-1.3 10.7-.867 3.466-2.234 6.633-4.1 9.5-1.8 2.8-4.167 5.066-7.1 6.8-2.867 1.666-6.334 2.5-10.4 2.5-3.134 0-5.867-.734-8.2-2.2-2.267-1.467-3.8-3.234-4.6-5.3l1-1.4c.933 1.866 2.266 3.433 4 4.7 1.8 1.266 4.033 1.9 6.7 1.9 3.733 0 6.633-1.167 8.7-3.5 2.066-2.334 3.5-5.434 4.3-9.3.866-3.934 1.3-8.267 1.3-13 0-5.334-.434-9.7-1.3-13.1-.867-3.4-2.167-5.934-3.9-7.6-1.734-1.667-3.867-2.5-6.4-2.5-3.267 0-6.234 1.366-8.9 4.1-2.667 2.666-4.367 6.733-5.1 12.2l-1.2-1.4c.733-5.667 2.733-10.067 6-13.2 3.333-3.134 7.3-4.7 11.9-4.7zM371.507 131.1c1.8 0 3.367.366 4.7 1.1 1.4.733 2.467 1.7 3.2 2.9.8 1.133 1.2 2.433 1.2 3.9 0 1.666-.533 3.133-1.6 4.4-1 1.266-2.367 1.9-4.1 1.9-1.4 0-2.633-.434-3.7-1.3-1.067-.934-1.6-2.234-1.6-3.9 0-1.267.333-2.334 1-3.2.733-.934 1.533-1.667 2.4-2.2-.467-.667-1.167-1-2.1-1-2.067 0-3.967.633-5.7 1.9-1.733 1.2-3.2 2.766-4.4 4.7a26.01 26.01 0 0 0-2.8 6.2c-.667 2.133-1 4.133-1 6v21.2c0 3.266.933 5.466 2.8 6.6 1.933 1.066 4.533 1.6 7.8 1.6v2.1c-1.533-.067-3.7-.134-6.5-.2-2.8-.134-5.767-.2-8.9-.2a115.2 115.2 0 0 0-6.8.2c-2.2.066-3.867.133-5 .2v-2.1c2.733 0 4.667-.5 5.8-1.5 1.2-1 1.8-2.9 1.8-5.7v-31.3c0-3-.533-5.2-1.6-6.6-1.067-1.467-3.067-2.2-6-2.2v-2.1c2.133.2 4.2.3 6.2.3 1.933 0 3.767-.1 5.5-.3 1.8-.267 3.433-.634 4.9-1.1v12.5c.733-1.934 1.767-3.867 3.1-5.8 1.4-2 3.067-3.667 5-5 1.933-1.334 4.067-2 6.4-2zM396.338 107.5c1.734 0 3.234.633 4.5 1.9 1.267 1.266 1.9 2.766 1.9 4.5 0 1.733-.633 3.233-1.9 4.5-1.266 1.266-2.766 1.9-4.5 1.9-1.733 0-3.233-.634-4.5-1.9-1.266-1.267-1.9-2.767-1.9-4.5 0-1.734.634-3.234 1.9-4.5 1.267-1.267 2.767-1.9 4.5-1.9zm5.2 23.9v43.3c0 2.8.567 4.7 1.7 5.7 1.2 1 3.167 1.5 5.9 1.5v2.1a185.699 185.699 0 0 0-5.2-.2c-2.266-.134-4.566-.2-6.9-.2-2.266 0-4.566.066-6.9.2a186.02 186.02 0 0 0-5.2.2v-2.1c2.734 0 4.667-.5 5.8-1.5 1.2-1 1.8-2.9 1.8-5.7v-31.3c0-3-.533-5.2-1.6-6.6-1.066-1.467-3.066-2.2-6-2.2v-2.1c2.134.2 4.2.3 6.2.3 1.934 0 3.767-.1 5.5-.3 1.8-.267 3.434-.634 4.9-1.1zM438.735 131.1c4.267 0 8.1.933 11.5 2.8 3.4 1.866 6.1 4.8 8.1 8.8 2.067 4 3.1 9.2 3.1 15.6s-1.033 11.6-3.1 15.6c-2 3.933-4.7 6.833-8.1 8.7-3.4 1.866-7.233 2.8-11.5 2.8-4.2 0-8.033-.934-11.5-2.8-3.4-1.867-6.133-4.767-8.2-8.7-2-4-3-9.2-3-15.6s1-11.6 3-15.6c2.067-4 4.8-6.934 8.2-8.8 3.467-1.867 7.3-2.8 11.5-2.8zm0 2c-3.8 0-6.933 1.966-9.4 5.9-2.4 3.933-3.6 10.366-3.6 19.3 0 8.933 1.2 15.366 3.6 19.3 2.467 3.866 5.6 5.8 9.4 5.8 3.8 0 6.9-1.934 9.3-5.8 2.467-3.934 3.7-10.367 3.7-19.3 0-8.934-1.233-15.367-3.7-19.3-2.4-3.934-5.5-5.9-9.3-5.9zM500.12 131.1c1.8 0 3.367.366 4.7 1.1 1.4.733 2.467 1.7 3.2 2.9.8 1.133 1.2 2.433 1.2 3.9 0 1.666-.533 3.133-1.6 4.4-1 1.266-2.366 1.9-4.1 1.9-1.4 0-2.633-.434-3.7-1.3-1.066-.934-1.6-2.234-1.6-3.9 0-1.267.334-2.334 1-3.2.734-.934 1.534-1.667 2.4-2.2-.466-.667-1.166-1-2.1-1-2.066 0-3.966.633-5.7 1.9-1.733 1.2-3.2 2.766-4.4 4.7a26.01 26.01 0 0 0-2.8 6.2c-.666 2.133-1 4.133-1 6v21.2c0 3.266.934 5.466 2.8 6.6 1.934 1.066 4.534 1.6 7.8 1.6v2.1c-1.533-.067-3.7-.134-6.5-.2-2.8-.134-5.766-.2-8.9-.2-2.266 0-4.533.066-6.8.2-2.2.066-3.866.133-5 .2v-2.1c2.734 0 4.667-.5 5.8-1.5 1.2-1 1.8-2.9 1.8-5.7v-31.3c0-3-.533-5.2-1.6-6.6-1.066-1.467-3.066-2.2-6-2.2v-2.1c2.134.2 4.2.3 6.2.3 1.934 0 3.767-.1 5.5-.3 1.8-.267 3.434-.634 4.9-1.1v12.5c.734-1.934 1.767-3.867 3.1-5.8 1.4-2 3.067-3.667 5-5 1.934-1.334 4.067-2 6.4-2zM524.952 107.5c1.733 0 3.233.633 4.5 1.9 1.266 1.266 1.9 2.766 1.9 4.5 0 1.733-.634 3.233-1.9 4.5-1.267 1.266-2.767 1.9-4.5 1.9-1.734 0-3.234-.634-4.5-1.9-1.267-1.267-1.9-2.767-1.9-4.5 0-1.734.633-3.234 1.9-4.5 1.266-1.267 2.766-1.9 4.5-1.9zm5.2 23.9v43.3c0 2.8.566 4.7 1.7 5.7 1.2 1 3.166 1.5 5.9 1.5v2.1a186.02 186.02 0 0 0-5.2-.2c-2.267-.134-4.567-.2-6.9-.2-2.267 0-4.567.066-6.9.2-2.334.066-4.067.133-5.2.2v-2.1c2.733 0 4.666-.5 5.8-1.5 1.2-1 1.8-2.9 1.8-5.7v-31.3c0-3-.534-5.2-1.6-6.6-1.067-1.467-3.067-2.2-6-2.2v-2.1c2.133.2 4.2.3 6.2.3 1.933 0 3.766-.1 5.5-.3 1.8-.267 3.433-.634 4.9-1.1zM558.948 115.9v16.7h14.8v2h-14.8v38.7c0 3.133.567 5.333 1.7 6.6 1.134 1.266 2.7 1.9 4.7 1.9s3.734-.8 5.2-2.4c1.467-1.667 2.734-4.434 3.8-8.3l2 .5c-.666 3.866-2 7.133-4 9.8-1.933 2.666-4.933 4-9 4-2.266 0-4.133-.3-5.6-.9a11.264 11.264 0 0 1-3.9-2.4c-1.466-1.534-2.5-3.367-3.1-5.5-.533-2.134-.8-4.967-.8-8.5v-33.5h-9.6v-2h9.6v-15.3c1.667-.067 3.267-.2 4.8-.4 1.534-.2 2.934-.534 4.2-1zM624.7 132.5v2c-1.267.133-2.433.7-3.5 1.7-1.067 1-2.067 2.766-3 5.3l-16.4 43h-1.7l-18.4-44.3c-1.267-2.6-2.533-4.167-3.8-4.7-1.2-.6-2.2-.9-3-.9v-2.1c1.467.2 3 .366 4.6.5 1.6.066 3.333.1 5.2.1 2.067 0 4.233-.067 6.5-.2 2.333-.134 4.5-.267 6.5-.4v2.1c-1.667 0-3.167.133-4.5.4-1.267.2-2.067.9-2.4 2.1-.333 1.133.067 3.1 1.2 5.9l12.3 30.5-.6.2 11.4-29.8c.867-2.2 1.2-3.934 1-5.2-.133-1.334-.8-2.334-2-3-1.2-.667-3-1.067-5.4-1.2v-2c1.2.066 2.233.133 3.1.2.867 0 1.7.033 2.5.1h2.8a75.4 75.4 0 0 0 4.1-.1c1.267-.067 2.433-.134 3.5-.2zm-22.9 52-3.4 8.7c-.667 1.666-1.367 3.066-2.1 4.2-.667 1.133-1.4 2.066-2.2 2.8-1.067 1-2.333 1.666-3.8 2-1.467.4-2.8.6-4 .6-1.267 0-2.433-.234-3.5-.7-1-.467-1.8-1.167-2.4-2.1-.6-.867-.9-1.934-.9-3.2 0-1.6.467-2.9 1.4-3.9.933-.934 2.233-1.4 3.9-1.4 1.4 0 2.6.4 3.6 1.2 1 .8 1.5 1.966 1.5 3.5 0 1.133-.267 2.066-.8 2.8-.533.733-1.167 1.3-1.9 1.7.133.066.233.1.3.1h.3c1.8 0 3.4-.634 4.8-1.9 1.4-1.2 2.633-3.167 3.7-5.9l3.6-9.3 1.9.8zM638.791 105.8c1.266 0 2.333.433 3.2 1.3.933.866 1.4 2.3 1.4 4.3 0 2.6-.2 5.833-.6 9.7a503.665 503.665 0 0 1-1.3 12.9c-.467 4.666-.9 9.6-1.3 14.8-.334 5.133-.5 10.333-.5 15.6h-1.8c0-5.267-.2-10.467-.6-15.6-.334-5.2-.767-10.134-1.3-14.8-.467-4.734-.9-9.034-1.3-12.9-.334-3.867-.5-7.1-.5-9.7 0-2 .433-3.434 1.3-4.3.933-.867 2.033-1.3 3.3-1.3zm0 66.8c1.733 0 3.233.633 4.5 1.9 1.266 1.266 1.9 2.766 1.9 4.5 0 1.733-.634 3.233-1.9 4.5-1.267 1.266-2.767 1.9-4.5 1.9-1.734 0-3.234-.634-4.5-1.9-1.267-1.267-1.9-2.767-1.9-4.5 0-1.734.633-3.234 1.9-4.5 1.266-1.267 2.766-1.9 4.5-1.9z" fill="#202020"/>
</svg>
