<svg width="337" height="287" viewBox="0 0 337 287" fill="none" xmlns="http://www.w3.org/2000/svg">
    <rect x="53" width="53" height="53" rx="8" transform="rotate(90 53 0)" fill="#91AE6D"/>
    <path stroke="#fff" stroke-width="2" stroke-linecap="round" d="M38 27H16M27 38V16"/>
    <rect x="53" y="78" width="53" height="53" rx="8" transform="rotate(90 53 78)" fill="#182D2E"/>
    <path stroke="#fff" stroke-width="2" stroke-linecap="round" d="M38 105H16M27 116V94"/>
    <rect x="78" width="97" height="53" rx="12" fill="#91AE6D"/>
    <path d="M99.26 32V20.364h2.108v9.869h5.125V32H99.26zm12.595 0h-2.25l4.096-11.636h2.602L120.406 32h-2.25l-3.108-9.25h-.091L111.855 32zm.073-4.563h6.137v1.694h-6.137v-1.694zM123.538 32V20.364h4.455c.841 0 1.54.132 2.096.397.561.262.98.62 1.256 1.074.28.455.421.97.421 1.546 0 .473-.091.878-.273 1.216a2.294 2.294 0 0 1-.733.812c-.307.208-.65.358-1.028.449v.114c.412.022.808.15 1.187.38.383.227.695.55.938.966.242.417.363.92.363 1.511 0 .603-.146 1.145-.437 1.625-.292.478-.731.855-1.319 1.131-.587.277-1.325.415-2.215.415h-4.711zm2.108-1.761h2.267c.766 0 1.317-.146 1.654-.438.341-.295.511-.674.511-1.136a1.735 1.735 0 0 0-.983-1.591c-.314-.163-.689-.245-1.125-.245h-2.324v3.41zm0-4.927h2.086c.363 0 .691-.066.982-.198.292-.137.521-.328.688-.574.17-.25.256-.546.256-.887 0-.45-.159-.822-.478-1.113-.314-.292-.782-.438-1.403-.438h-2.131v3.21zM135.654 32V20.364h7.568v1.767h-5.46v3.159h5.068v1.767h-5.068v3.176h5.506V32h-7.614zm11.319 0V20.364h2.108v9.869h5.125V32h-7.233z" fill="#fff"/>
    <rect x="78" y="78" width="97" height="53" rx="12" fill="#182D2E"/>
    <path d="M99.26 110V98.364h2.108v9.869h5.125V110H99.26zm12.595 0h-2.25l4.096-11.636h2.602L120.406 110h-2.25l-3.108-9.25h-.091l-3.102 9.25zm.073-4.562h6.137v1.693h-6.137v-1.693zm11.61 4.562V98.364h4.455c.841 0 1.54.132 2.096.397.561.262.98.62 1.256 1.074.28.455.421.97.421 1.546 0 .473-.091.878-.273 1.216a2.292 2.292 0 0 1-.733.812c-.307.208-.65.358-1.028.449v.114c.412.022.808.149 1.187.38.383.228.695.55.938.966.242.417.363.921.363 1.512 0 .602-.146 1.143-.437 1.625-.292.477-.731.854-1.319 1.13-.587.277-1.325.415-2.215.415h-4.711zm2.108-1.761h2.267c.766 0 1.317-.146 1.654-.438.341-.295.511-.674.511-1.136a1.75 1.75 0 0 0-.983-1.591c-.314-.163-.689-.244-1.125-.244h-2.324v3.409zm0-4.927h2.086c.363 0 .691-.066.982-.198.292-.137.521-.328.688-.574.17-.25.256-.546.256-.887 0-.45-.159-.822-.478-1.113-.314-.292-.782-.438-1.403-.438h-2.131v3.21zM135.654 110V98.364h7.568v1.767h-5.46v3.159h5.068v1.767h-5.068v3.176h5.506V110h-7.614zm11.319 0V98.364h2.108v9.869h5.125V110h-7.233z" fill="#fff"/>
    <path d="M241.26 39V27.364h2.108v9.869h5.125V39h-7.233zm12.595 0h-2.25l4.096-11.636h2.602L262.406 39h-2.25l-3.108-9.25h-.091L253.855 39zm.073-4.563h6.137v1.694h-6.137v-1.694zM265.538 39V27.364h4.455c.841 0 1.54.132 2.096.397.561.262.98.62 1.256 1.074.28.455.421.97.421 1.546 0 .473-.091.878-.273 1.216a2.294 2.294 0 0 1-.733.812c-.307.208-.65.358-1.028.449v.114c.412.022.808.15 1.187.38.383.228.695.55.938.966.242.417.363.92.363 1.512 0 .602-.146 1.144-.437 1.625-.292.477-.731.854-1.319 1.13-.587.277-1.325.415-2.215.415h-4.711zm2.108-1.761h2.267c.766 0 1.317-.146 1.654-.438.341-.295.511-.674.511-1.136a1.735 1.735 0 0 0-.983-1.591c-.314-.163-.689-.244-1.125-.244h-2.324v3.409zm0-4.926h2.086c.363 0 .691-.067.982-.2.292-.136.521-.327.688-.573.17-.25.256-.546.256-.887 0-.45-.159-.822-.478-1.113-.314-.292-.782-.438-1.403-.438h-2.131v3.21zM277.654 39V27.364h7.568v1.767h-5.46v3.159h5.068v1.767h-5.068v3.176h5.506V39h-7.614zm11.319 0V27.364h2.108v9.869h5.125V39h-7.233z" fill="#182D2E"/>
    <rect x="200.5" y=".5" width="136" height="66" rx="11.5" stroke="#182D2E"/>
    <rect x="200" y="92" width="137" height="67" rx="12" fill="#182D2E"/>
    <path d="M241.26 131v-11.636h2.108v9.869h5.125V131h-7.233zm12.595 0h-2.25l4.096-11.636h2.602L262.406 131h-2.25l-3.108-9.25h-.091l-3.102 9.25zm.073-4.562h6.137v1.693h-6.137v-1.693zm11.61 4.562v-11.636h4.455c.841 0 1.54.132 2.096.397.561.262.98.62 1.256 1.074.28.455.421.97.421 1.546 0 .473-.091.878-.273 1.216a2.292 2.292 0 0 1-.733.812c-.307.208-.65.358-1.028.449v.114c.412.022.808.149 1.187.38.383.228.695.55.938.966.242.417.363.921.363 1.512 0 .602-.146 1.143-.437 1.625-.292.477-.731.854-1.319 1.13-.587.277-1.325.415-2.215.415h-4.711zm2.108-1.761h2.267c.766 0 1.317-.146 1.654-.438.341-.295.511-.674.511-1.136a1.75 1.75 0 0 0-.983-1.591c-.314-.163-.689-.244-1.125-.244h-2.324v3.409zm0-4.927h2.086c.363 0 .691-.066.982-.198.292-.137.521-.328.688-.574.17-.25.256-.546.256-.887 0-.45-.159-.822-.478-1.113-.314-.292-.782-.438-1.403-.438h-2.131v3.21zM277.654 131v-11.636h7.568v1.767h-5.46v3.159h5.068v1.767h-5.068v3.176h5.506V131h-7.614zm11.319 0v-11.636h2.108v9.869h5.125V131h-7.233z" fill="#fff"/>
    <rect x="54" y="204" width="77" height="29" rx="4" fill="#707070"/>
    <path d="M65.148 224v-11.636h2.108v9.869h5.125V224h-7.233zm12.594 0h-2.25l4.097-11.636h2.602L86.293 224h-2.25l-3.108-9.25h-.09L77.741 224zm.074-4.562h6.136v1.693h-6.136v-1.693zM89.426 224v-11.636h4.454c.841 0 1.54.132 2.097.397.56.262.98.62 1.256 1.074.28.455.42.97.42 1.546 0 .473-.09.878-.273 1.216a2.291 2.291 0 0 1-.733.812 3.11 3.11 0 0 1-1.028.449v.114c.413.022.809.149 1.188.38.382.228.695.55.937.966.243.417.364.921.364 1.512 0 .602-.146 1.143-.438 1.625-.291.477-.73.854-1.318 1.13-.587.277-1.326.415-2.216.415h-4.71zm2.108-1.761H93.8c.765 0 1.316-.146 1.653-.438.341-.295.512-.674.512-1.136a1.738 1.738 0 0 0-.983-1.591c-.315-.163-.69-.244-1.125-.244h-2.324v3.409zm0-4.927h2.085c.364 0 .691-.066.983-.198.292-.137.52-.328.688-.574.17-.25.255-.546.255-.887 0-.45-.159-.822-.477-1.113-.314-.292-.782-.438-1.403-.438h-2.131v3.21zM101.54 224v-11.636h7.569v1.767h-5.461v3.159h5.069v1.767h-5.069v3.176h5.506V224h-7.614zm11.319 0v-11.636h2.108v9.869h5.125V224h-7.233z" fill="#fff"/>
    <rect x="54" y="258" width="77" height="29" rx="4" fill="#FA7C21"/>
    <path d="M65.148 278v-11.636h2.108v9.869h5.125V278h-7.233zm12.594 0h-2.25l4.097-11.636h2.602L86.293 278h-2.25l-3.108-9.25h-.09L77.741 278zm.074-4.562h6.136v1.693h-6.136v-1.693zM89.426 278v-11.636h4.454c.841 0 1.54.132 2.097.397.56.262.98.62 1.256 1.074.28.455.42.97.42 1.546 0 .473-.09.878-.273 1.216a2.291 2.291 0 0 1-.733.812 3.11 3.11 0 0 1-1.028.449v.114c.413.022.809.149 1.188.38.382.228.695.55.937.966.243.417.364.921.364 1.512 0 .602-.146 1.143-.438 1.625-.291.477-.73.854-1.318 1.13-.587.277-1.326.415-2.216.415h-4.71zm2.108-1.761H93.8c.765 0 1.316-.146 1.653-.438.341-.295.512-.674.512-1.136a1.738 1.738 0 0 0-.983-1.591c-.315-.163-.69-.244-1.125-.244h-2.324v3.409zm0-4.927h2.085c.364 0 .691-.066.983-.198.292-.137.52-.328.688-.574.17-.25.255-.546.255-.887 0-.45-.159-.822-.477-1.113-.314-.292-.782-.438-1.403-.438h-2.131v3.21zM101.54 278v-11.636h7.569v1.767h-5.461v3.159h5.069v1.767h-5.069v3.176h5.506V278h-7.614zm11.319 0v-11.636h2.108v9.869h5.125V278h-7.233z" fill="#fff"/>
    <path d="M28.75 212.098a7.892 7.892 0 0 0-.766-1.974 7.065 7.065 0 0 0-1.243-1.733 7.818 7.818 0 0 0-2.506-1.777 7.349 7.349 0 0 0-5.882 0 8.272 8.272 0 0 0-2.403 1.645l-.104.132-1.346 1.426-1.346-1.426-.104-.132a8.272 8.272 0 0 0-2.403-1.645 7.349 7.349 0 0 0-5.882 0 7.818 7.818 0 0 0-2.506 1.777 7.907 7.907 0 0 0-2.01 3.707 8.681 8.681 0 0 0-.248 2.193c0 .695.083 1.388.248 2.062.174.68.424 1.335.746 1.952a8.281 8.281 0 0 0 1.264 1.732L14.5 233l12.241-12.963a7.52 7.52 0 0 0 1.243-1.732A8.207 8.207 0 0 0 29 214.291a8.676 8.676 0 0 0-.248-2.193zm-2.07 3.575a5.999 5.999 0 0 1-1.43 2.654l-10.791 11.405-10.792-11.405a6.312 6.312 0 0 1-.911-1.251 6.783 6.783 0 0 1-.56-1.425 7.532 7.532 0 0 1-.165-1.514 7.787 7.787 0 0 1 .165-1.557c.13-.498.317-.977.56-1.426.248-.46.555-.877.911-1.25a6.022 6.022 0 0 1 1.844-1.316 5.499 5.499 0 0 1 4.308 0c.683.301 1.3.742 1.823 1.294l2.817 3.005 2.817-3.005a5.641 5.641 0 0 1 1.822-1.294 5.499 5.499 0 0 1 4.309 0 6.049 6.049 0 0 1 1.843 1.316c.36.362.663.783.89 1.25.48.896.73 1.91.726 2.94a6.032 6.032 0 0 1-.125 1.579h-.062zM28.75 264.098a7.892 7.892 0 0 0-.766-1.974 7.065 7.065 0 0 0-1.243-1.733 7.818 7.818 0 0 0-2.506-1.777 7.349 7.349 0 0 0-5.882 0 8.272 8.272 0 0 0-2.403 1.645l-.104.132-1.346 1.426-1.346-1.426-.104-.132a8.272 8.272 0 0 0-2.403-1.645 7.349 7.349 0 0 0-5.882 0 7.818 7.818 0 0 0-2.506 1.777 7.907 7.907 0 0 0-2.01 3.707 8.681 8.681 0 0 0-.248 2.193c0 .695.083 1.388.248 2.062.174.68.424 1.335.746 1.952a8.281 8.281 0 0 0 1.264 1.732L14.5 285l12.241-12.963a7.52 7.52 0 0 0 1.243-1.732A8.207 8.207 0 0 0 29 266.291a8.676 8.676 0 0 0-.248-2.193z" fill="#91AE6D"/>
    <rect x="175.5" y="184.5" width="161" height="46" rx="11.5" fill="#F4F3F0"/>
    <path d="M216.26 213v-11.636h2.108v9.869h5.125V213h-7.233zm12.595 0h-2.25l4.096-11.636h2.602L237.406 213h-2.25l-3.108-9.25h-.091l-3.102 9.25zm.073-4.562h6.137v1.693h-6.137v-1.693zm11.61 4.562v-11.636h4.455c.841 0 1.54.132 2.096.397.561.262.98.62 1.256 1.074.28.455.421.97.421 1.546 0 .473-.091.878-.273 1.216a2.292 2.292 0 0 1-.733.812c-.307.208-.65.358-1.028.449v.114c.412.022.808.149 1.187.38.383.228.695.55.938.966.242.417.363.921.363 1.512 0 .602-.146 1.143-.437 1.625-.292.477-.731.854-1.319 1.13-.587.277-1.325.415-2.215.415h-4.711zm2.108-1.761h2.267c.766 0 1.317-.146 1.654-.438.341-.295.511-.674.511-1.136a1.75 1.75 0 0 0-.983-1.591c-.314-.163-.689-.244-1.125-.244h-2.324v3.409zm0-4.927h2.086c.363 0 .691-.066.982-.198.292-.137.521-.328.688-.574.17-.25.256-.546.256-.887 0-.45-.159-.822-.478-1.113-.314-.292-.782-.438-1.403-.438h-2.131v3.21zM252.654 213v-11.636h7.568v1.767h-5.46v3.159h5.068v1.767h-5.068v3.176h5.506V213h-7.614zm11.319 0v-11.636h2.108v9.869h5.125V213h-7.233zM295.288 203.402l-5.788 6.038-5.788-6.038c-.457-.525-.913-.536-1.37-.033-.456.504-.456.996 0 1.477l6.473 6.826a.813.813 0 0 0 .685.328c.29 0 .519-.109.685-.328l6.473-6.826c.456-.481.456-.973 0-1.477-.457-.503-.913-.492-1.37.033z" fill="#182D2E"/>
    <rect x="175.5" y="184.5" width="161" height="46" rx="11.5" stroke="#182D2E"/>
    <rect x="219.5" y="256.5" width="117" height="30" rx="11.5" fill="#fff"/>
    <path d="M240.26 277v-11.636h2.108v9.869h5.125V277h-7.233zm12.595 0h-2.25l4.096-11.636h2.602L261.406 277h-2.25l-3.108-9.25h-.091l-3.102 9.25zm.073-4.562h6.137v1.693h-6.137v-1.693zm11.61 4.562v-11.636h4.455c.841 0 1.54.132 2.096.397.561.262.98.62 1.256 1.074.28.455.421.97.421 1.546 0 .473-.091.878-.273 1.216a2.292 2.292 0 0 1-.733.812c-.307.208-.65.358-1.028.449v.114c.412.022.808.149 1.187.38.383.228.695.55.938.966.242.417.363.921.363 1.512 0 .602-.146 1.143-.437 1.625-.292.477-.731.854-1.319 1.13-.587.277-1.325.415-2.215.415h-4.711zm2.108-1.761h2.267c.766 0 1.317-.146 1.654-.438.341-.295.511-.674.511-1.136a1.75 1.75 0 0 0-.983-1.591c-.314-.163-.689-.244-1.125-.244h-2.324v3.409zm0-4.927h2.086c.363 0 .691-.066.982-.198.292-.137.521-.328.688-.574.17-.25.256-.546.256-.887 0-.45-.159-.822-.478-1.113-.314-.292-.782-.438-1.403-.438h-2.131v3.21zM276.654 277v-11.636h7.568v1.767h-5.46v3.159h5.068v1.767h-5.068v3.176h5.506V277h-7.614zm11.319 0v-11.636h2.108v9.869h5.125V277h-7.233zM311.5 270.33l4.245-4.528c.335-.394.669-.402 1.004-.025.335.377.335.747 0 1.108l-4.28 4.615 4.28 4.615c.335.361.335.731 0 1.108-.335.377-.669.369-1.004-.025l-4.245-4.528-4.245 4.528c-.335.394-.669.402-1.004.025-.335-.377-.335-.747 0-1.108l4.28-4.615-4.28-4.615c-.335-.361-.335-.731 0-1.108.335-.377.669-.369 1.004.025l4.245 4.528z" fill="#182D2E"/>
    <rect x="219.5" y="256.5" width="117" height="30" rx="11.5" stroke="#182D2E"/>
</svg>
