<svg width="321" height="136" viewBox="0 0 321 136" fill="none" xmlns="http://www.w3.org/2000/svg">
    <path d="M1.932 10.432c.644.03 1.487.061 2.53.092 1.043.03 2.07.046 3.082.046 1.441 0 2.821-.015 4.14-.046a138.73 138.73 0 0 1 2.806-.046c3.71 0 6.486.843 8.326 2.53 1.84 1.687 2.76 3.864 2.76 6.532 0 1.104-.184 2.27-.552 3.496-.368 1.196-1.012 2.315-1.932 3.358-.89 1.012-2.116 1.84-3.68 2.484-1.564.644-3.542.966-5.934.966H9.062v-.92h3.956c2.177 0 3.833-.414 4.968-1.242 1.165-.828 1.947-1.917 2.346-3.266.43-1.35.644-2.806.644-4.37 0-2.913-.583-5.09-1.748-6.532-1.135-1.441-3.097-2.162-5.888-2.162-1.41 0-2.33.26-2.76.782-.43.521-.644 1.58-.644 3.174v22.816c0 1.104.107 1.932.322 2.484.245.552.705.92 1.38 1.104.675.184 1.656.307 2.944.368V43a40.955 40.955 0 0 0-3.036-.092 148.94 148.94 0 0 0-3.726-.046c-1.196 0-2.315.015-3.358.046-1.043 0-1.886.03-2.53.092v-.92c1.043-.061 1.825-.184 2.346-.368.552-.184.92-.552 1.104-1.104.184-.552.276-1.38.276-2.484V15.308c0-1.135-.092-1.963-.276-2.484a1.659 1.659 0 0 0-1.104-1.104c-.521-.215-1.303-.337-2.346-.368v-.92zm33.22-3.496v31.786c0 1.288.26 2.162.782 2.622.552.46 1.457.69 2.714.69V43a87.348 87.348 0 0 0-2.392-.092 54.077 54.077 0 0 0-6.348 0c-1.073.03-1.87.061-2.392.092v-.966c1.257 0 2.147-.23 2.668-.69.552-.46.828-1.334.828-2.622V12.456c0-1.38-.245-2.392-.736-3.036-.49-.675-1.41-1.012-2.76-1.012v-.966c.981.092 1.932.138 2.852.138.89 0 1.733-.046 2.53-.138a14.42 14.42 0 0 0 2.254-.506zm12.38 36.386c-1.257 0-2.346-.23-3.266-.69-.92-.49-1.625-1.165-2.116-2.024-.46-.859-.69-1.855-.69-2.99 0-1.35.307-2.453.92-3.312a7.259 7.259 0 0 1 2.438-2.07 18.16 18.16 0 0 1 3.082-1.288c1.104-.368 2.147-.705 3.128-1.012.981-.337 1.779-.72 2.392-1.15.644-.43.966-.997.966-1.702v-2.852c0-1.288-.2-2.27-.598-2.944-.368-.675-.874-1.12-1.518-1.334-.644-.245-1.365-.368-2.162-.368-.767 0-1.595.107-2.484.322-.859.215-1.549.66-2.07 1.334.583.123 1.089.43 1.518.92.43.49.644 1.12.644 1.886 0 .767-.245 1.38-.736 1.84-.49.43-1.12.644-1.886.644-.89 0-1.549-.276-1.978-.828a3.347 3.347 0 0 1-.598-1.932c0-.797.2-1.441.598-1.932.399-.49.905-.95 1.518-1.38.705-.49 1.61-.905 2.714-1.242 1.135-.368 2.407-.552 3.818-.552 1.257 0 2.33.153 3.22.46.89.276 1.625.69 2.208 1.242a5.178 5.178 0 0 1 1.564 2.714c.245 1.043.368 2.3.368 3.772v12.788c0 .767.107 1.319.322 1.656.245.337.613.506 1.104.506.337 0 .66-.077.966-.23.307-.153.675-.399 1.104-.736l.506.782c-.644.49-1.257.905-1.84 1.242-.583.307-1.365.46-2.346.46-.89 0-1.625-.153-2.208-.46a3.113 3.113 0 0 1-1.334-1.334c-.276-.613-.414-1.38-.414-2.3-.828 1.38-1.825 2.407-2.99 3.082-1.135.675-2.423 1.012-3.864 1.012zm1.656-1.84a4.896 4.896 0 0 0 2.806-.874c.89-.583 1.687-1.457 2.392-2.622V28.97c-.368.521-.905.966-1.61 1.334-.705.337-1.472.69-2.3 1.058a14.76 14.76 0 0 0-2.392 1.242 5.855 5.855 0 0 0-1.84 1.84c-.49.767-.736 1.763-.736 2.99 0 1.227.322 2.208.966 2.944.675.736 1.58 1.104 2.714 1.104zM85.031 19.31v.92c-.583.061-1.12.322-1.61.782-.491.46-.951 1.273-1.38 2.438l-7.544 19.78h-.782L65.25 22.852c-.583-1.196-1.166-1.917-1.748-2.162-.552-.276-1.012-.414-1.38-.414v-.966c.674.092 1.38.169 2.116.23.736.03 1.533.046 2.392.046.95 0 1.947-.03 2.99-.092 1.073-.061 2.07-.123 2.99-.184v.966a10.6 10.6 0 0 0-2.07.184c-.583.092-.951.414-1.104.966-.154.521.03 1.426.552 2.714l5.658 14.03-.276.092 5.244-13.708c.398-1.012.552-1.81.46-2.392-.062-.613-.368-1.073-.92-1.38-.552-.307-1.38-.49-2.484-.552v-.92c.552.03 1.027.061 1.426.092.398 0 .782.015 1.15.046h1.288c.705 0 1.334-.015 1.886-.046.582-.03 1.119-.061 1.61-.092zM74.497 43.23l-1.564 4.002c-.307.767-.629 1.41-.966 1.932a5.54 5.54 0 0 1-1.012 1.288c-.491.46-1.074.767-1.748.92-.675.184-1.288.276-1.84.276-.583 0-1.12-.107-1.61-.322a2.59 2.59 0 0 1-1.104-.966c-.276-.399-.414-.89-.414-1.472 0-.736.214-1.334.644-1.794.429-.43 1.027-.644 1.794-.644.644 0 1.196.184 1.656.552.46.368.69.905.69 1.61 0 .521-.123.95-.368 1.288a2.642 2.642 0 0 1-.874.782c.061.03.107.046.138.046h.138c.828 0 1.564-.291 2.208-.874.644-.552 1.211-1.457 1.702-2.714l1.656-4.278.874.368zm23.37-36.202c.86 0 1.61.123 2.255.368a5.835 5.835 0 0 1 1.748.874c.46.368.813.797 1.058 1.288.245.49.368 1.012.368 1.564 0 .705-.23 1.288-.69 1.748-.46.46-1.043.69-1.748.69a2.742 2.742 0 0 1-1.794-.644c-.49-.46-.736-1.073-.736-1.84 0-.644.168-1.165.506-1.564.368-.399.843-.66 1.426-.782-.092-.276-.338-.506-.736-.69-.368-.215-.874-.322-1.518-.322-.706 0-1.319.153-1.84.46-.49.307-.874.72-1.15 1.242-.368.644-.598 1.61-.69 2.898-.092 1.257-.138 3.205-.138 5.842v1.196h4.922v.92h-4.922v17.986c0 1.503.43 2.515 1.288 3.036.89.49 2.085.736 3.588.736V43a162.93 162.93 0 0 0-2.99-.092 86.302 86.302 0 0 0-4.094-.092c-1.043 0-2.086.03-3.128.092-1.012.03-1.779.061-2.3.092v-.966c1.257 0 2.146-.23 2.668-.69.552-.46.828-1.334.828-2.622V20.276h-3.68v-.92h3.68c0-1.81.076-3.327.23-4.554.153-1.227.398-2.27.736-3.128a7.767 7.767 0 0 1 1.38-2.346c.613-.705 1.395-1.257 2.346-1.656.95-.43 1.993-.644 3.128-.644zm10.444 36.294c-1.257 0-2.346-.23-3.266-.69-.92-.49-1.625-1.165-2.116-2.024-.46-.859-.69-1.855-.69-2.99 0-1.35.307-2.453.92-3.312a7.262 7.262 0 0 1 2.438-2.07c.982-.521 2.009-.95 3.082-1.288 1.104-.368 2.147-.705 3.128-1.012.982-.337 1.779-.72 2.392-1.15.644-.43.966-.997.966-1.702v-2.852c0-1.288-.199-2.27-.598-2.944-.368-.675-.874-1.12-1.518-1.334-.644-.245-1.364-.368-2.162-.368-.766 0-1.594.107-2.484.322-.858.215-1.548.66-2.07 1.334.583.123 1.089.43 1.518.92.43.49.644 1.12.644 1.886 0 .767-.245 1.38-.736 1.84-.49.43-1.119.644-1.886.644-.889 0-1.548-.276-1.978-.828a3.352 3.352 0 0 1-.598-1.932c0-.797.2-1.441.598-1.932a7.43 7.43 0 0 1 1.518-1.38c.706-.49 1.61-.905 2.714-1.242 1.135-.368 2.408-.552 3.818-.552 1.258 0 2.331.153 3.22.46.89.276 1.626.69 2.208 1.242a5.172 5.172 0 0 1 1.564 2.714c.246 1.043.368 2.3.368 3.772v12.788c0 .767.108 1.319.322 1.656.246.337.614.506 1.104.506.338 0 .66-.077.966-.23.307-.153.675-.399 1.104-.736l.506.782a17.64 17.64 0 0 1-1.84 1.242c-.582.307-1.364.46-2.346.46-.889 0-1.625-.153-2.208-.46a3.118 3.118 0 0 1-1.334-1.334c-.276-.613-.414-1.38-.414-2.3-.828 1.38-1.824 2.407-2.99 3.082-1.134.675-2.422 1.012-3.864 1.012zm1.656-1.84a4.894 4.894 0 0 0 2.806-.874c.89-.583 1.687-1.457 2.392-2.622V28.97c-.368.521-.904.966-1.61 1.334-.705.337-1.472.69-2.3 1.058-.828.337-1.625.751-2.392 1.242a5.858 5.858 0 0 0-1.84 1.84c-.49.767-.736 1.763-.736 2.99 0 1.227.322 2.208.966 2.944.675.736 1.58 1.104 2.714 1.104zM129.933 7.81c.798 0 1.488.291 2.07.874.583.583.874 1.273.874 2.07 0 .797-.291 1.487-.874 2.07-.582.583-1.272.874-2.07.874-.797 0-1.487-.291-2.07-.874-.582-.583-.874-1.273-.874-2.07 0-.797.292-1.487.874-2.07.583-.583 1.273-.874 2.07-.874zm2.392 10.994v19.918c0 1.288.261 2.162.782 2.622.552.46 1.457.69 2.714.69V43a87.18 87.18 0 0 0-2.392-.092 54.042 54.042 0 0 0-3.174-.092c-1.042 0-2.1.03-3.174.092-1.073.03-1.87.061-2.392.092v-.966c1.258 0 2.147-.23 2.668-.69.552-.46.828-1.334.828-2.622V24.324c0-1.38-.245-2.392-.736-3.036-.49-.675-1.41-1.012-2.76-1.012v-.966c.982.092 1.932.138 2.852.138.89 0 1.733-.046 2.53-.138.828-.123 1.58-.291 2.254-.506zm20.147-.138c.828 0 1.549.169 2.162.506.644.337 1.135.782 1.472 1.334.368.521.552 1.12.552 1.794 0 .767-.245 1.441-.736 2.024-.46.583-1.089.874-1.886.874-.644 0-1.211-.2-1.702-.598-.491-.43-.736-1.027-.736-1.794 0-.583.153-1.073.46-1.472.337-.43.705-.767 1.104-1.012-.215-.307-.537-.46-.966-.46-.951 0-1.825.291-2.622.874-.797.552-1.472 1.273-2.024 2.162-.552.89-.981 1.84-1.288 2.852-.307.981-.46 1.901-.46 2.76v9.752c0 1.503.429 2.515 1.288 3.036.889.49 2.085.736 3.588.736V43c-.705-.03-1.702-.061-2.99-.092a86.312 86.312 0 0 0-4.094-.092c-1.043 0-2.085.03-3.128.092-1.012.03-1.779.061-2.3.092v-.966c1.257 0 2.147-.23 2.668-.69.552-.46.828-1.334.828-2.622V24.324c0-1.38-.245-2.392-.736-3.036-.491-.675-1.411-1.012-2.76-1.012v-.966c.981.092 1.932.138 2.852.138.889 0 1.733-.046 2.53-.138a14.427 14.427 0 0 0 2.254-.506v5.75c.337-.89.813-1.779 1.426-2.668a9.112 9.112 0 0 1 2.3-2.3 5.073 5.073 0 0 1 2.944-.92zm29.801-8.234c5.49 0 9.568 1.38 12.236 4.14 2.668 2.73 4.002 6.655 4.002 11.776 0 3.343-.659 6.271-1.978 8.786-1.288 2.484-3.174 4.416-5.658 5.796-2.484 1.38-5.489 2.07-9.016 2.07-.46 0-1.073-.015-1.84-.046a59.819 59.819 0 0 0-2.392-.046 57.655 57.655 0 0 0-2.208-.046c-1.073 0-2.131.015-3.174.046-1.042 0-1.886.03-2.53.092v-.92c1.043-.061 1.825-.184 2.346-.368.552-.184.92-.552 1.104-1.104.184-.552.276-1.38.276-2.484V15.308c0-1.135-.092-1.963-.276-2.484a1.659 1.659 0 0 0-1.104-1.104c-.521-.215-1.303-.337-2.346-.368v-.92c.644.03 1.488.077 2.53.138 1.043.03 2.07.03 3.082 0 1.074-.03 2.285-.061 3.634-.092 1.35-.03 2.454-.046 3.312-.046zm-1.15.828c-1.41 0-2.33.26-2.76.782-.429.521-.644 1.58-.644 3.174v23c0 1.595.215 2.653.644 3.174.46.521 1.396.782 2.806.782 3.343 0 5.934-.598 7.774-1.794 1.84-1.227 3.128-3.005 3.864-5.336.736-2.33 1.104-5.167 1.104-8.51 0-3.435-.414-6.271-1.242-8.51-.797-2.27-2.131-3.956-4.002-5.06-1.84-1.135-4.354-1.702-7.544-1.702zm26.48-3.45c.798 0 1.488.291 2.07.874.583.583.874 1.273.874 2.07 0 .797-.291 1.487-.874 2.07-.582.583-1.272.874-2.07.874-.797 0-1.487-.291-2.07-.874-.582-.583-.874-1.273-.874-2.07 0-.797.292-1.487.874-2.07.583-.583 1.273-.874 2.07-.874zm2.392 10.994v19.918c0 1.288.261 2.162.782 2.622.552.46 1.457.69 2.714.69V43a87.18 87.18 0 0 0-2.392-.092 54.042 54.042 0 0 0-3.174-.092c-1.042 0-2.1.03-3.174.092-1.073.03-1.87.061-2.392.092v-.966c1.258 0 2.147-.23 2.668-.69.552-.46.828-1.334.828-2.622V24.324c0-1.38-.245-2.392-.736-3.036-.49-.675-1.41-1.012-2.76-1.012v-.966c.982.092 1.932.138 2.852.138.89 0 1.733-.046 2.53-.138.828-.123 1.58-.291 2.254-.506zm14.075-.138c1.227 0 2.269.2 3.128.598.859.399 1.487.767 1.886 1.104 1.012.828 1.625.276 1.84-1.656h1.058a69.951 69.951 0 0 0-.138 3.082 188.422 188.422 0 0 0-.046 4.738h-1.058a14.114 14.114 0 0 0-.966-3.312c-.429-1.073-1.073-1.947-1.932-2.622-.859-.705-1.978-1.058-3.358-1.058-1.073 0-1.978.307-2.714.92-.705.583-1.058 1.457-1.058 2.622 0 .92.276 1.717.828 2.392.552.644 1.273 1.257 2.162 1.84.889.552 1.855 1.165 2.898 1.84a33.915 33.915 0 0 1 3.174 2.254c.951.767 1.702 1.61 2.254 2.53.583.92.874 2.009.874 3.266 0 1.41-.368 2.591-1.104 3.542-.736.95-1.702 1.671-2.898 2.162-1.165.49-2.453.736-3.864.736a9.827 9.827 0 0 1-1.932-.184 8.212 8.212 0 0 1-1.702-.46 10.73 10.73 0 0 1-.966-.552 18.01 18.01 0 0 1-.92-.69c-.307-.245-.583-.23-.828.046-.245.245-.429.751-.552 1.518h-1.058a91.73 91.73 0 0 0 .138-3.588c.031-1.41.046-3.281.046-5.612h1.058c.215 1.717.521 3.22.92 4.508.399 1.288 1.027 2.3 1.886 3.036.859.705 2.055 1.058 3.588 1.058.613 0 1.227-.138 1.84-.414.644-.276 1.181-.736 1.61-1.38.429-.644.644-1.503.644-2.576 0-1.35-.491-2.453-1.472-3.312s-2.223-1.763-3.726-2.714a68.964 68.964 0 0 1-3.128-2.116c-.951-.705-1.733-1.503-2.346-2.392-.583-.89-.874-1.963-.874-3.22 0-1.38.307-2.5.92-3.358a5.462 5.462 0 0 1 2.53-1.932 8.734 8.734 0 0 1 3.358-.644zm19.654.138v28.244c0 1.319.384 2.193 1.15 2.622.798.46 1.886.69 3.266.69v.966c-.674-.03-1.61-.077-2.806-.138-1.196-.03-2.468-.046-3.818-.046-.95 0-1.901.015-2.852.046-.92.061-1.625.107-2.116.138v-.966c1.104 0 1.886-.2 2.346-.598.46-.399.69-1.15.69-2.254V24.324c0-1.38-.245-2.392-.736-3.036-.49-.675-1.41-1.012-2.76-1.012v-.966c.982.092 1.932.138 2.852.138.89 0 1.733-.046 2.53-.138.828-.123 1.58-.291 2.254-.506zm7.36-.138c1.626 0 3.082.445 4.37 1.334 1.288.859 2.3 2.131 3.036 3.818.767 1.687 1.15 3.772 1.15 6.256 0 1.656-.199 3.297-.598 4.922a14.276 14.276 0 0 1-1.886 4.37 9.662 9.662 0 0 1-3.266 3.128c-1.318.767-2.913 1.15-4.784 1.15-1.441 0-2.698-.337-3.772-1.012-1.042-.675-1.748-1.487-2.116-2.438l.46-.644a5.947 5.947 0 0 0 1.84 2.162c.828.583 1.856.874 3.082.874 1.718 0 3.052-.537 4.002-1.61.951-1.073 1.61-2.5 1.978-4.278.399-1.81.598-3.803.598-5.98 0-2.453-.199-4.462-.598-6.026-.398-1.564-.996-2.73-1.794-3.496-.797-.767-1.778-1.15-2.944-1.15-1.502 0-2.867.629-4.094 1.886-1.226 1.227-2.008 3.097-2.346 5.612l-.552-.644c.338-2.607 1.258-4.63 2.76-6.072 1.534-1.441 3.358-2.162 5.474-2.162zm19.369-11.73v31.786c0 1.288.26 2.162.782 2.622.552.46 1.456.69 2.714.69V43a87.516 87.516 0 0 0-2.392-.092 54.092 54.092 0 0 0-6.348 0 87.18 87.18 0 0 0-2.392.092v-.966c1.257 0 2.146-.23 2.668-.69.552-.46.828-1.334.828-2.622V12.456c0-1.38-.246-2.392-.736-3.036-.491-.675-1.411-1.012-2.76-1.012v-.966c.981.092 1.932.138 2.852.138.889 0 1.732-.046 2.53-.138a14.427 14.427 0 0 0 2.254-.506zm12.38 36.386c-1.258 0-2.346-.23-3.266-.69-.92-.49-1.626-1.165-2.116-2.024-.46-.859-.69-1.855-.69-2.99 0-1.35.306-2.453.92-3.312a7.252 7.252 0 0 1 2.438-2.07c.981-.521 2.008-.95 3.082-1.288 1.104-.368 2.146-.705 3.128-1.012.981-.337 1.778-.72 2.392-1.15.644-.43.966-.997.966-1.702v-2.852c0-1.288-.2-2.27-.598-2.944-.368-.675-.874-1.12-1.518-1.334-.644-.245-1.365-.368-2.162-.368-.767 0-1.595.107-2.484.322-.859.215-1.549.66-2.07 1.334.582.123 1.088.43 1.518.92.429.49.644 1.12.644 1.886 0 .767-.246 1.38-.736 1.84-.491.43-1.12.644-1.886.644-.89 0-1.549-.276-1.978-.828a3.345 3.345 0 0 1-.598-1.932c0-.797.199-1.441.598-1.932.398-.49.904-.95 1.518-1.38.705-.49 1.61-.905 2.714-1.242 1.134-.368 2.407-.552 3.818-.552 1.257 0 2.33.153 3.22.46.889.276 1.625.69 2.208 1.242a5.185 5.185 0 0 1 1.564 2.714c.245 1.043.368 2.3.368 3.772v12.788c0 .767.107 1.319.322 1.656.245.337.613.506 1.104.506.337 0 .659-.077.966-.23.306-.153.674-.399 1.104-.736l.506.782c-.644.49-1.258.905-1.84 1.242-.583.307-1.365.46-2.346.46-.89 0-1.626-.153-2.208-.46a3.107 3.107 0 0 1-1.334-1.334c-.276-.613-.414-1.38-.414-2.3-.828 1.38-1.825 2.407-2.99 3.082-1.135.675-2.423 1.012-3.864 1.012zm1.656-1.84a4.897 4.897 0 0 0 2.806-.874c.889-.583 1.686-1.457 2.392-2.622V28.97c-.368.521-.905.966-1.61 1.334-.706.337-1.472.69-2.3 1.058-.828.337-1.626.751-2.392 1.242a5.848 5.848 0 0 0-1.84 1.84c-.491.767-.736 1.763-.736 2.99 0 1.227.322 2.208.966 2.944.674.736 1.579 1.104 2.714 1.104zm35.842-22.172v.92c-.582.061-1.119.322-1.61.782-.49.46-.95 1.273-1.38 2.438l-7.544 19.78h-.782l-8.464-20.378c-.582-1.196-1.165-1.917-1.748-2.162-.552-.276-1.012-.414-1.38-.414v-.966c.675.092 1.38.169 2.116.23.736.03 1.534.046 2.392.046.951 0 1.948-.03 2.99-.092 1.074-.061 2.07-.123 2.99-.184v.966c-.766 0-1.456.061-2.07.184-.582.092-.95.414-1.104.966-.153.521.031 1.426.552 2.714l5.658 14.03-.276.092 5.244-13.708c.399-1.012.552-1.81.46-2.392-.061-.613-.368-1.073-.92-1.38-.552-.307-1.38-.49-2.484-.552v-.92c.552.03 1.028.061 1.426.092.399 0 .782.015 1.15.046h1.288c.706 0 1.334-.015 1.886-.046.583-.03 1.12-.061 1.61-.092zm-10.534 23.92-1.564 4.002c-.306.767-.628 1.41-.966 1.932-.306.521-.644.95-1.012 1.288-.49.46-1.073.767-1.748.92-.674.184-1.288.276-1.84.276a3.976 3.976 0 0 1-1.61-.322 2.59 2.59 0 0 1-1.104-.966c-.276-.399-.414-.89-.414-1.472 0-.736.215-1.334.644-1.794.43-.43 1.028-.644 1.794-.644.644 0 1.196.184 1.656.552.46.368.69.905.69 1.61 0 .521-.122.95-.368 1.288a2.633 2.633 0 0 1-.874.782.36.36 0 0 0 .138.046h.138c.828 0 1.564-.291 2.208-.874.644-.552 1.212-1.457 1.702-2.714l1.656-4.278.874.368zM8.723 95.546V129H3.675V95.546h5.048zm11.843 18.556V129h-4.884v-25.091h4.688v4.084h.31a7.172 7.172 0 0 1 2.712-3.202c1.242-.806 2.804-1.209 4.688-1.209 1.71 0 3.207.36 4.492 1.079 1.285.707 2.282 1.764 2.99 3.169.708 1.404 1.062 3.141 1.062 5.21V129h-4.885v-15.371c0-1.819-.473-3.24-1.42-4.264-.948-1.035-2.25-1.552-3.905-1.552-1.133 0-2.14.245-3.022.735-.871.49-1.563 1.209-2.075 2.157-.5.936-.75 2.069-.75 3.397zm34.32-10.193v3.921H41.181v-3.921h13.705zm-10.03-6.011h4.885v23.735c0 .947.141 1.661.425 2.14.283.468.647.789 1.094.964.457.163.953.245 1.486.245.392 0 .735-.028 1.03-.082.294-.055.522-.098.686-.131l.882 4.035c-.283.109-.686.218-1.21.327-.522.119-1.175.185-1.96.196-1.284.021-2.482-.207-3.593-.686a6.17 6.17 0 0 1-2.695-2.222c-.686-1.002-1.03-2.26-1.03-3.773V97.898zm25.978 31.608c-2.472 0-4.602-.528-6.387-1.584-1.776-1.067-3.148-2.565-4.117-4.492-.958-1.939-1.437-4.209-1.437-6.812 0-2.57.479-4.835 1.437-6.796.97-1.96 2.32-3.49 4.051-4.59 1.743-1.1 3.78-1.65 6.11-1.65 1.415 0 2.787.235 4.116.703a9.965 9.965 0 0 1 3.578 2.205c1.056 1.002 1.889 2.303 2.499 3.904.61 1.59.915 3.523.915 5.799v1.732H61.653v-3.659h15.16c0-1.285-.262-2.423-.785-3.414a5.928 5.928 0 0 0-2.205-2.369c-.937-.577-2.036-.866-3.3-.866-1.372 0-2.57.338-3.593 1.013a6.79 6.79 0 0 0-2.353 2.614 7.544 7.544 0 0 0-.816 3.479v2.859c0 1.677.294 3.103.882 4.28.599 1.176 1.432 2.074 2.499 2.695 1.067.61 2.314.915 3.74.915.926 0 1.77-.131 2.533-.392a5.488 5.488 0 0 0 1.976-1.209 5.256 5.256 0 0 0 1.274-1.977l4.623.833a8.372 8.372 0 0 1-1.993 3.578c-.947 1.012-2.14 1.802-3.577 2.368-1.427.556-3.055.833-4.884.833zM87.018 129v-25.091h4.72v3.986H92c.457-1.35 1.263-2.412 2.418-3.185 1.165-.785 2.483-1.177 3.953-1.177.305 0 .664.011 1.078.033.425.022.757.049.996.082v4.672c-.196-.055-.544-.115-1.045-.18a10.006 10.006 0 0 0-1.503-.114c-1.154 0-2.184.245-3.087.735a5.462 5.462 0 0 0-2.124 2.009c-.523.849-.784 1.819-.784 2.908V129h-4.884z" fill="#323232"/>
</svg>
