<svg width="600" height="236" viewBox="0 0 600 236" fill="none" xmlns="http://www.w3.org/2000/svg">
    <path d="M3.612 20.112c1.204.057 2.78.115 4.73.172 1.95.057 3.87.086 5.762.086 2.695 0 5.275-.029 7.74-.086 2.465-.057 4.214-.086 5.246-.086 6.937 0 12.126 1.577 15.566 4.73 3.44 3.153 5.16 7.224 5.16 12.212 0 2.064-.344 4.243-1.032 6.536-.688 2.236-1.892 4.329-3.612 6.278-1.663 1.892-3.956 3.44-6.88 4.644-2.924 1.204-6.622 1.806-11.094 1.806h-8.256v-1.72h7.396c4.07 0 7.167-.774 9.288-2.322 2.179-1.548 3.64-3.583 4.386-6.106.803-2.523 1.204-5.246 1.204-8.17 0-5.447-1.09-9.517-3.268-12.212-2.121-2.695-5.79-4.042-11.008-4.042-2.637 0-4.357.487-5.16 1.462-.803.975-1.204 2.953-1.204 5.934v42.656c0 2.064.2 3.612.602 4.644.459 1.032 1.319 1.72 2.58 2.064 1.261.344 3.096.573 5.504.688V81c-1.49-.115-3.383-.172-5.676-.172a278.903 278.903 0 0 0-6.966-.086c-2.236 0-4.329.029-6.278.086-1.95 0-3.526.057-4.73.172v-1.72c1.95-.115 3.411-.344 4.386-.688 1.032-.344 1.72-1.032 2.064-2.064.344-1.032.516-2.58.516-4.644V29.228c0-2.121-.172-3.67-.516-4.644-.344-1.032-1.032-1.72-2.064-2.064-.975-.401-2.437-.63-4.386-.688v-1.72zm62.107-6.536v59.426c0 2.408.487 4.042 1.462 4.902 1.032.86 2.723 1.29 5.074 1.29V81c-.975-.057-2.466-.115-4.472-.172-1.95-.115-3.928-.172-5.934-.172-1.95 0-3.928.057-5.934.172-2.007.057-3.498.115-4.472.172v-1.806c2.35 0 4.013-.43 4.988-1.29 1.032-.86 1.548-2.494 1.548-4.902V23.896c0-2.58-.459-4.472-1.376-5.676-.918-1.261-2.638-1.892-5.16-1.892v-1.806c1.834.172 3.612.258 5.332.258 1.662 0 3.24-.086 4.73-.258 1.548-.23 2.952-.545 4.214-.946zm23.145 68.026c-2.35 0-4.386-.43-6.106-1.29-1.72-.917-3.038-2.179-3.956-3.784-.86-1.605-1.29-3.469-1.29-5.59 0-2.523.573-4.587 1.72-6.192 1.204-1.605 2.724-2.895 4.558-3.87a33.95 33.95 0 0 1 5.762-2.408 326.38 326.38 0 0 1 5.848-1.892c1.835-.63 3.325-1.347 4.472-2.15 1.204-.803 1.806-1.863 1.806-3.182v-5.332c0-2.408-.372-4.243-1.118-5.504-.688-1.261-1.634-2.093-2.838-2.494-1.204-.459-2.551-.688-4.042-.688-1.433 0-2.981.2-4.644.602-1.605.401-2.895 1.233-3.87 2.494 1.09.23 2.035.803 2.838 1.72.803.917 1.204 2.093 1.204 3.526 0 1.433-.459 2.58-1.376 3.44-.917.803-2.092 1.204-3.526 1.204-1.662 0-2.895-.516-3.698-1.548a6.257 6.257 0 0 1-1.118-3.612c0-1.49.373-2.695 1.118-3.612.745-.917 1.691-1.777 2.838-2.58 1.319-.917 3.01-1.691 5.074-2.322 2.121-.688 4.5-1.032 7.138-1.032 2.35 0 4.358.287 6.02.86 1.663.516 3.039 1.29 4.128 2.322 1.491 1.376 2.466 3.067 2.924 5.074.459 1.95.688 4.3.688 7.052v23.908c0 1.433.201 2.465.602 3.096.459.63 1.147.946 2.064.946.631 0 1.233-.143 1.806-.43.574-.287 1.262-.745 2.064-1.376l.946 1.462a33.005 33.005 0 0 1-3.44 2.322c-1.089.573-2.551.86-4.386.86-1.662 0-3.038-.287-4.128-.86a5.825 5.825 0 0 1-2.494-2.494c-.516-1.147-.774-2.58-.774-4.3-1.548 2.58-3.411 4.5-5.59 5.762-2.121 1.261-4.53 1.892-7.224 1.892zm3.096-3.44c1.892 0 3.64-.545 5.246-1.634 1.663-1.09 3.154-2.723 4.472-4.902V54.77c-.688.975-1.691 1.806-3.01 2.494-1.319.63-2.752 1.29-4.3 1.978a27.606 27.606 0 0 0-4.472 2.322c-1.376.86-2.522 2.007-3.44 3.44-.917 1.433-1.376 3.297-1.376 5.59 0 2.293.602 4.128 1.806 5.504 1.261 1.376 2.953 2.064 5.074 2.064zm67.01-41.452v1.72c-1.089.115-2.092.602-3.01 1.462-.917.86-1.777 2.38-2.58 4.558l-14.104 36.98h-1.462L121.99 43.332c-1.089-2.236-2.178-3.583-3.268-4.042-1.032-.516-1.892-.774-2.58-.774V36.71c1.262.172 2.58.315 3.956.43 1.376.057 2.867.086 4.472.086a95.28 95.28 0 0 0 5.59-.172c2.007-.115 3.87-.23 5.59-.344v1.806c-1.433 0-2.723.115-3.87.344-1.089.172-1.777.774-2.064 1.806-.286.975.058 2.666 1.032 5.074l10.578 26.23-.516.172 9.804-25.628c.746-1.892 1.032-3.383.86-4.472-.114-1.147-.688-2.007-1.72-2.58s-2.58-.917-4.644-1.032v-1.72c1.032.057 1.921.115 2.666.172.746 0 1.462.029 2.15.086h2.408c1.319 0 2.494-.029 3.526-.086 1.09-.057 2.093-.115 3.01-.172zm-19.694 44.72-2.924 7.482c-.573 1.433-1.175 2.637-1.806 3.612-.573.975-1.204 1.777-1.892 2.408a6.93 6.93 0 0 1-3.268 1.72c-1.261.344-2.408.516-3.44.516-1.089 0-2.092-.2-3.01-.602a4.842 4.842 0 0 1-2.064-1.806c-.516-.745-.774-1.663-.774-2.752 0-1.376.402-2.494 1.204-3.354.803-.803 1.921-1.204 3.354-1.204 1.204 0 2.236.344 3.096 1.032.86.688 1.29 1.691 1.29 3.01 0 .975-.229 1.777-.688 2.408a4.93 4.93 0 0 1-1.634 1.462.664.664 0 0 0 .258.086h.258c1.548 0 2.924-.545 4.128-1.634 1.204-1.032 2.265-2.723 3.182-5.074l3.096-7.998 1.634.688zm43.694-67.682c1.606 0 3.01.23 4.214.688 1.262.401 2.351.946 3.268 1.634.86.688 1.52 1.49 1.978 2.408.459.917.688 1.892.688 2.924 0 1.319-.43 2.408-1.29 3.268-.86.86-1.949 1.29-3.268 1.29a5.127 5.127 0 0 1-3.354-1.204c-.917-.86-1.376-2.007-1.376-3.44 0-1.204.316-2.179.946-2.924.688-.745 1.577-1.233 2.666-1.462-.172-.516-.63-.946-1.376-1.29-.688-.401-1.634-.602-2.838-.602-1.318 0-2.465.287-3.44.86a5.994 5.994 0 0 0-2.15 2.322c-.688 1.204-1.118 3.01-1.29 5.418-.172 2.35-.258 5.991-.258 10.922v2.236h9.202v1.72h-9.202v33.626c0 2.81.803 4.701 2.408 5.676 1.663.917 3.899 1.376 6.708 1.376V81a304.378 304.378 0 0 0-5.59-.172 161.208 161.208 0 0 0-7.654-.172c-1.949 0-3.898.057-5.848.172-1.892.057-3.325.115-4.3.172v-1.806c2.351 0 4.014-.43 4.988-1.29 1.032-.86 1.548-2.494 1.548-4.902V38.516h-6.88v-1.72h6.88c0-3.383.144-6.22.43-8.514.287-2.293.746-4.243 1.376-5.848.631-1.663 1.491-3.125 2.58-4.386 1.147-1.319 2.609-2.35 4.386-3.096 1.778-.803 3.727-1.204 5.848-1.204zm19.525 67.854c-2.351 0-4.386-.43-6.106-1.29-1.72-.917-3.039-2.179-3.956-3.784-.86-1.605-1.29-3.469-1.29-5.59 0-2.523.573-4.587 1.72-6.192 1.204-1.605 2.723-2.895 4.558-3.87a33.95 33.95 0 0 1 5.762-2.408 325.601 325.601 0 0 1 5.848-1.892c1.835-.63 3.325-1.347 4.472-2.15 1.204-.803 1.806-1.863 1.806-3.182v-5.332c0-2.408-.373-4.243-1.118-5.504-.688-1.261-1.634-2.093-2.838-2.494-1.204-.459-2.551-.688-4.042-.688-1.433 0-2.981.2-4.644.602-1.605.401-2.895 1.233-3.87 2.494 1.089.23 2.035.803 2.838 1.72.803.917 1.204 2.093 1.204 3.526 0 1.433-.459 2.58-1.376 3.44-.917.803-2.093 1.204-3.526 1.204-1.663 0-2.895-.516-3.698-1.548a6.26 6.26 0 0 1-1.118-3.612c0-1.49.373-2.695 1.118-3.612.745-.917 1.691-1.777 2.838-2.58 1.319-.917 3.01-1.691 5.074-2.322 2.121-.688 4.501-1.032 7.138-1.032 2.351 0 4.357.287 6.02.86 1.663.516 3.039 1.29 4.128 2.322 1.491 1.376 2.465 3.067 2.924 5.074.459 1.95.688 4.3.688 7.052v23.908c0 1.433.201 2.465.602 3.096.459.63 1.147.946 2.064.946.631 0 1.233-.143 1.806-.43.573-.287 1.261-.745 2.064-1.376l.946 1.462a33.111 33.111 0 0 1-3.44 2.322c-1.089.573-2.551.86-4.386.86-1.663 0-3.039-.287-4.128-.86a5.82 5.82 0 0 1-2.494-2.494c-.516-1.147-.774-2.58-.774-4.3-1.548 2.58-3.411 4.5-5.59 5.762-2.121 1.261-4.529 1.892-7.224 1.892zm3.096-3.44c1.892 0 3.641-.545 5.246-1.634 1.663-1.09 3.153-2.723 4.472-4.902V54.77c-.688.975-1.691 1.806-3.01 2.494-1.319.63-2.752 1.29-4.3 1.978a27.594 27.594 0 0 0-4.472 2.322c-1.376.86-2.523 2.007-3.44 3.44-.917 1.433-1.376 3.297-1.376 5.59 0 2.293.602 4.128 1.806 5.504 1.261 1.376 2.953 2.064 5.074 2.064zm37.328-62.952c1.491 0 2.781.545 3.87 1.634 1.089 1.09 1.634 2.38 1.634 3.87 0 1.49-.545 2.78-1.634 3.87-1.089 1.09-2.379 1.634-3.87 1.634s-2.781-.545-3.87-1.634c-1.089-1.09-1.634-2.38-1.634-3.87 0-1.49.545-2.78 1.634-3.87 1.089-1.09 2.379-1.634 3.87-1.634zm4.472 20.554v37.238c0 2.408.487 4.042 1.462 4.902 1.032.86 2.723 1.29 5.074 1.29V81c-.975-.057-2.465-.115-4.472-.172a100.998 100.998 0 0 0-5.934-.172 104 104 0 0 0-5.934.172c-2.007.057-3.497.115-4.472.172v-1.806c2.351 0 4.013-.43 4.988-1.29 1.032-.86 1.548-2.494 1.548-4.902V46.084c0-2.58-.459-4.472-1.376-5.676-.917-1.261-2.637-1.892-5.16-1.892V36.71c1.835.172 3.612.258 5.332.258 1.663 0 3.239-.086 4.73-.258 1.548-.23 2.953-.545 4.214-.946zm37.665-.258c1.548 0 2.896.315 4.042.946 1.204.63 2.122 1.462 2.752 2.494.688.975 1.032 2.093 1.032 3.354 0 1.433-.458 2.695-1.376 3.784-.86 1.09-2.035 1.634-3.526 1.634-1.204 0-2.264-.373-3.182-1.118-.917-.803-1.376-1.92-1.376-3.354 0-1.09.287-2.007.86-2.752.631-.803 1.319-1.433 2.064-1.892-.401-.573-1.003-.86-1.806-.86-1.777 0-3.411.545-4.902 1.634-1.49 1.032-2.752 2.38-3.784 4.042a22.39 22.39 0 0 0-2.408 5.332c-.573 1.835-.86 3.555-.86 5.16v18.232c0 2.81.803 4.701 2.408 5.676 1.663.917 3.899 1.376 6.708 1.376V81a304.378 304.378 0 0 0-5.59-.172 161.208 161.208 0 0 0-7.654-.172c-1.949 0-3.898.057-5.848.172-1.892.057-3.325.115-4.3.172v-1.806c2.351 0 4.014-.43 4.988-1.29 1.032-.86 1.548-2.494 1.548-4.902V46.084c0-2.58-.458-4.472-1.376-5.676-.917-1.261-2.637-1.892-5.16-1.892V36.71c1.835.172 3.612.258 5.332.258 1.663 0 3.24-.086 4.73-.258 1.548-.23 2.953-.545 4.214-.946v10.75c.631-1.663 1.52-3.325 2.666-4.988a17.039 17.039 0 0 1 4.3-4.3c1.663-1.147 3.498-1.72 5.504-1.72zm55.716-15.394c10.262 0 17.888 2.58 22.876 7.74 4.988 5.103 7.482 12.441 7.482 22.016 0 6.25-1.233 11.725-3.698 16.426-2.408 4.644-5.934 8.256-10.578 10.836-4.644 2.58-10.263 3.87-16.856 3.87-.86 0-2.007-.029-3.44-.086a112.086 112.086 0 0 0-4.472-.086 108.065 108.065 0 0 0-4.128-.086c-2.007 0-3.985.029-5.934.086-1.95 0-3.526.057-4.73.172v-1.72c1.949-.115 3.411-.344 4.386-.688 1.032-.344 1.72-1.032 2.064-2.064.344-1.032.516-2.58.516-4.644V29.228c0-2.121-.172-3.67-.516-4.644-.344-1.032-1.032-1.72-2.064-2.064-.975-.401-2.437-.63-4.386-.688v-1.72c1.204.057 2.78.143 4.73.258 1.949.057 3.87.057 5.762 0 2.006-.057 4.271-.115 6.794-.172 2.522-.057 4.586-.086 6.192-.086zm-2.15 1.548c-2.638 0-4.358.487-5.16 1.462-.803.975-1.204 2.953-1.204 5.934v43c0 2.981.401 4.96 1.204 5.934.86.975 2.608 1.462 5.246 1.462 6.249 0 11.094-1.118 14.534-3.354 3.44-2.293 5.848-5.619 7.224-9.976 1.376-4.357 2.064-9.66 2.064-15.91 0-6.421-.774-11.725-2.322-15.91-1.491-4.243-3.985-7.396-7.482-9.46-3.44-2.121-8.142-3.182-14.104-3.182zm49.506-6.45c1.491 0 2.781.545 3.87 1.634 1.089 1.09 1.634 2.38 1.634 3.87 0 1.49-.545 2.78-1.634 3.87-1.089 1.09-2.379 1.634-3.87 1.634s-2.781-.545-3.87-1.634c-1.089-1.09-1.634-2.38-1.634-3.87 0-1.49.545-2.78 1.634-3.87 1.089-1.09 2.379-1.634 3.87-1.634zm4.472 20.554v37.238c0 2.408.487 4.042 1.462 4.902 1.032.86 2.723 1.29 5.074 1.29V81c-.975-.057-2.465-.115-4.472-.172a100.998 100.998 0 0 0-5.934-.172 104 104 0 0 0-5.934.172c-2.007.057-3.497.115-4.472.172v-1.806c2.351 0 4.013-.43 4.988-1.29 1.032-.86 1.548-2.494 1.548-4.902V46.084c0-2.58-.459-4.472-1.376-5.676-.917-1.261-2.637-1.892-5.16-1.892V36.71c1.835.172 3.612.258 5.332.258 1.663 0 3.239-.086 4.73-.258 1.548-.23 2.953-.545 4.214-.946zm26.313-.258c2.294 0 4.243.373 5.848 1.118 1.606.745 2.781 1.433 3.526 2.064 1.892 1.548 3.039.516 3.44-3.096h1.978c-.114 1.605-.2 3.526-.258 5.762-.057 2.179-.086 5.131-.086 8.858h-1.978a26.39 26.39 0 0 0-1.806-6.192c-.802-2.007-2.006-3.64-3.612-4.902-1.605-1.319-3.698-1.978-6.278-1.978-2.006 0-3.698.573-5.074 1.72-1.318 1.09-1.978 2.723-1.978 4.902 0 1.72.516 3.21 1.548 4.472 1.032 1.204 2.38 2.35 4.042 3.44a340.242 340.242 0 0 1 5.418 3.44 63.172 63.172 0 0 1 5.934 4.214c1.778 1.433 3.182 3.01 4.214 4.73 1.09 1.72 1.634 3.755 1.634 6.106 0 2.637-.688 4.845-2.064 6.622-1.376 1.777-3.182 3.125-5.418 4.042-2.178.917-4.586 1.376-7.224 1.376-1.261 0-2.465-.115-3.612-.344a15.375 15.375 0 0 1-3.182-.86 20.375 20.375 0 0 1-1.806-1.032 34.002 34.002 0 0 1-1.72-1.29c-.573-.459-1.089-.43-1.548.086-.458.459-.802 1.405-1.032 2.838h-1.978c.115-1.835.201-4.07.258-6.708.058-2.637.086-6.135.086-10.492h1.978c.402 3.21.975 6.02 1.72 8.428.746 2.408 1.921 4.3 3.526 5.676 1.606 1.319 3.842 1.978 6.708 1.978 1.147 0 2.294-.258 3.44-.774 1.204-.516 2.208-1.376 3.01-2.58.803-1.204 1.204-2.81 1.204-4.816 0-2.523-.917-4.587-2.752-6.192-1.834-1.605-4.156-3.297-6.966-5.074a129.472 129.472 0 0 1-5.848-3.956c-1.777-1.319-3.239-2.81-4.386-4.472-1.089-1.663-1.634-3.67-1.634-6.02 0-2.58.574-4.673 1.72-6.278 1.204-1.663 2.781-2.867 4.73-3.612 1.95-.803 4.042-1.204 6.278-1.204zm36.745.258v52.804c0 2.465.717 4.1 2.15 4.902 1.491.86 3.526 1.29 6.106 1.29v1.806c-1.261-.057-3.01-.143-5.246-.258a279.35 279.35 0 0 0-7.138-.086c-1.777 0-3.554.029-5.332.086-1.72.115-3.038.2-3.956.258V94.76c2.064 0 3.526-.373 4.386-1.118.86-.745 1.29-2.15 1.29-4.214V46.084c0-2.58-.458-4.472-1.376-5.676-.917-1.261-2.637-1.892-5.16-1.892V36.71c1.835.172 3.612.258 5.332.258 1.663 0 3.24-.086 4.73-.258 1.548-.23 2.953-.545 4.214-.946zm13.76-.258c3.039 0 5.762.831 8.17 2.494 2.408 1.605 4.3 3.985 5.676 7.138 1.434 3.153 2.15 7.052 2.15 11.696 0 3.096-.372 6.163-1.118 9.202-.745 2.981-1.92 5.705-3.526 8.17-1.548 2.408-3.583 4.357-6.106 5.848-2.465 1.433-5.446 2.15-8.944 2.15-2.694 0-5.045-.63-7.052-1.892-1.949-1.261-3.268-2.78-3.956-4.558l.86-1.204c.803 1.605 1.95 2.953 3.44 4.042 1.548 1.09 3.469 1.634 5.762 1.634 3.211 0 5.705-1.003 7.482-3.01 1.778-2.007 3.01-4.673 3.698-7.998.746-3.383 1.118-7.11 1.118-11.18 0-4.587-.372-8.342-1.118-11.266-.745-2.924-1.863-5.103-3.354-6.536-1.49-1.433-3.325-2.15-5.504-2.15-2.809 0-5.36 1.175-7.654 3.526-2.293 2.293-3.755 5.79-4.386 10.492l-1.032-1.204c.631-4.873 2.351-8.657 5.16-11.352 2.867-2.695 6.278-4.042 10.234-4.042zm36.211-21.93v59.426c0 2.408.487 4.042 1.462 4.902 1.032.86 2.723 1.29 5.074 1.29V81c-.975-.057-2.465-.115-4.472-.172a100.998 100.998 0 0 0-5.934-.172 104 104 0 0 0-5.934.172c-2.007.057-3.497.115-4.472.172v-1.806c2.351 0 4.013-.43 4.988-1.29 1.032-.86 1.548-2.494 1.548-4.902V23.896c0-2.58-.459-4.472-1.376-5.676-.917-1.261-2.637-1.892-5.16-1.892v-1.806c1.835.172 3.612.258 5.332.258 1.663 0 3.239-.086 4.73-.258 1.548-.23 2.953-.545 4.214-.946zm23.145 68.026c-2.35 0-4.386-.43-6.106-1.29-1.72-.917-3.038-2.179-3.956-3.784-.86-1.605-1.29-3.469-1.29-5.59 0-2.523.574-4.587 1.72-6.192 1.204-1.605 2.724-2.895 4.558-3.87a33.984 33.984 0 0 1 5.762-2.408 328.214 328.214 0 0 1 5.848-1.892c1.835-.63 3.326-1.347 4.472-2.15 1.204-.803 1.806-1.863 1.806-3.182v-5.332c0-2.408-.372-4.243-1.118-5.504-.688-1.261-1.634-2.093-2.838-2.494-1.204-.459-2.551-.688-4.042-.688-1.433 0-2.981.2-4.644.602-1.605.401-2.895 1.233-3.87 2.494 1.09.23 2.036.803 2.838 1.72.803.917 1.204 2.093 1.204 3.526 0 1.433-.458 2.58-1.376 3.44-.917.803-2.092 1.204-3.526 1.204-1.662 0-2.895-.516-3.698-1.548a6.26 6.26 0 0 1-1.118-3.612c0-1.49.373-2.695 1.118-3.612.746-.917 1.692-1.777 2.838-2.58 1.319-.917 3.01-1.691 5.074-2.322 2.122-.688 4.501-1.032 7.138-1.032 2.351 0 4.358.287 6.02.86 1.663.516 3.039 1.29 4.128 2.322 1.491 1.376 2.466 3.067 2.924 5.074.459 1.95.688 4.3.688 7.052v23.908c0 1.433.201 2.465.602 3.096.459.63 1.147.946 2.064.946.631 0 1.233-.143 1.806-.43.574-.287 1.262-.745 2.064-1.376l.946 1.462a33.005 33.005 0 0 1-3.44 2.322c-1.089.573-2.551.86-4.386.86-1.662 0-3.038-.287-4.128-.86a5.825 5.825 0 0 1-2.494-2.494c-.516-1.147-.774-2.58-.774-4.3-1.548 2.58-3.411 4.5-5.59 5.762-2.121 1.261-4.529 1.892-7.224 1.892zm3.096-3.44c1.892 0 3.641-.545 5.246-1.634 1.663-1.09 3.154-2.723 4.472-4.902V54.77c-.688.975-1.691 1.806-3.01 2.494-1.318.63-2.752 1.29-4.3 1.978a27.635 27.635 0 0 0-4.472 2.322c-1.376.86-2.522 2.007-3.44 3.44-.917 1.433-1.376 3.297-1.376 5.59 0 2.293.602 4.128 1.806 5.504 1.262 1.376 2.953 2.064 5.074 2.064zm67.01-41.452v1.72c-1.089.115-2.092.602-3.01 1.462-.917.86-1.777 2.38-2.58 4.558l-14.104 36.98h-1.462L561.9 43.332c-1.089-2.236-2.178-3.583-3.268-4.042-1.032-.516-1.892-.774-2.58-.774V36.71c1.262.172 2.58.315 3.956.43 1.376.057 2.867.086 4.472.086a95.28 95.28 0 0 0 5.59-.172c2.007-.115 3.87-.23 5.59-.344v1.806c-1.433 0-2.723.115-3.87.344-1.089.172-1.777.774-2.064 1.806-.286.975.058 2.666 1.032 5.074l10.578 26.23-.516.172 9.804-25.628c.746-1.892 1.032-3.383.86-4.472-.114-1.147-.688-2.007-1.72-2.58s-2.58-.917-4.644-1.032v-1.72c1.032.057 1.921.115 2.666.172.746 0 1.462.029 2.15.086h2.408c1.319 0 2.494-.029 3.526-.086 1.09-.057 2.093-.115 3.01-.172zm-19.694 44.72-2.924 7.482c-.573 1.433-1.175 2.637-1.806 3.612-.573.975-1.204 1.777-1.892 2.408a6.93 6.93 0 0 1-3.268 1.72c-1.261.344-2.408.516-3.44.516-1.089 0-2.092-.2-3.01-.602a4.842 4.842 0 0 1-2.064-1.806c-.516-.745-.774-1.663-.774-2.752 0-1.376.402-2.494 1.204-3.354.803-.803 1.921-1.204 3.354-1.204 1.204 0 2.236.344 3.096 1.032.86.688 1.29 1.691 1.29 3.01 0 .975-.229 1.777-.688 2.408a4.93 4.93 0 0 1-1.634 1.462.664.664 0 0 0 .258.086h.258c1.548 0 2.924-.545 4.128-1.634 1.204-1.032 2.265-2.723 3.182-5.074l3.096-7.998 1.634.688zM434.55 163.364V223h-8.998v-59.636h8.998zm21.111 33.079V223h-8.706v-44.727h8.357v7.28h.553c1.029-2.369 2.64-4.271 4.834-5.708 2.213-1.436 4.999-2.155 8.357-2.155 3.048 0 5.717.641 8.008 1.922 2.291 1.262 4.067 3.145 5.329 5.649 1.262 2.505 1.893 5.601 1.893 9.289V223h-8.707v-27.401c0-3.242-.845-5.776-2.534-7.6-1.688-1.845-4.008-2.767-6.959-2.767-2.019 0-3.815.437-5.387 1.311-1.553.873-2.786 2.154-3.698 3.843-.893 1.67-1.34 3.689-1.34 6.057zm61.18-18.17v6.988H492.41v-6.988h24.431zm-17.879-10.716h8.706v42.31c0 1.689.253 2.961.757 3.815.505.835 1.155 1.407 1.951 1.718a7.833 7.833 0 0 0 2.65.437c.699 0 1.311-.049 1.835-.146.524-.097.932-.175 1.223-.233l1.572 7.193c-.504.194-1.223.388-2.155.582-.931.213-2.096.33-3.494.349-2.291.039-4.426-.368-6.406-1.223a10.988 10.988 0 0 1-4.805-3.96c-1.223-1.786-1.834-4.028-1.834-6.726v-44.116zm46.307 56.346c-4.407 0-8.202-.942-11.386-2.825-3.164-1.902-5.61-4.572-7.338-8.008-1.708-3.455-2.563-7.503-2.563-12.142 0-4.582.855-8.62 2.563-12.114 1.728-3.494 4.135-6.222 7.222-8.183 3.106-1.96 6.736-2.941 10.89-2.941 2.524 0 4.97.418 7.338 1.252 2.369.835 4.494 2.146 6.377 3.932s3.368 4.105 4.456 6.959c1.087 2.834 1.63 6.28 1.63 10.337v3.087h-35.554v-6.523h27.022c0-2.29-.466-4.319-1.397-6.086-.932-1.786-2.243-3.193-3.932-4.222-1.669-1.029-3.63-1.543-5.882-1.543-2.446 0-4.581.602-6.406 1.805a12.117 12.117 0 0 0-4.193 4.659c-.971 1.903-1.456 3.97-1.456 6.203v5.096c0 2.989.524 5.532 1.572 7.629 1.068 2.096 2.553 3.698 4.456 4.805 1.902 1.087 4.125 1.63 6.668 1.63 1.65 0 3.155-.233 4.513-.699 1.359-.485 2.534-1.203 3.524-2.154.99-.952 1.747-2.126 2.271-3.524l8.241 1.485a14.909 14.909 0 0 1-3.553 6.377c-1.688 1.806-3.814 3.213-6.377 4.223-2.543.99-5.445 1.485-8.706 1.485zm28.85-.903v-44.727h8.415v7.105H583c.815-2.407 2.252-4.3 4.31-5.678 2.077-1.398 4.426-2.097 7.047-2.097.543 0 1.184.019 1.921.058.758.039 1.35.088 1.777.146v8.328c-.35-.097-.971-.204-1.864-.32a17.77 17.77 0 0 0-2.679-.204c-2.058 0-3.892.437-5.503 1.31a9.734 9.734 0 0 0-3.786 3.582c-.932 1.514-1.398 3.242-1.398 5.183V223h-8.706z" fill="#323232"/>
</svg>
