<svg width="360" height="233" viewBox="0 0 360 233" fill="none" xmlns="http://www.w3.org/2000/svg">
    <path d="M39.56 81v-1.72c1.95-.115 3.411-.344 4.386-.688 1.032-.344 1.72-1.032 2.064-2.064.344-1.032.516-2.58.516-4.644V29.228c0-2.121-.172-3.67-.516-4.644-.344-1.032-1.032-1.72-2.064-2.064-.975-.401-2.437-.63-4.386-.688v-1.72c1.319.057 2.981.115 4.988.172a214.395 214.395 0 0 0 12.212 0c1.95-.057 3.526-.115 4.73-.172v1.72c-1.95.057-3.44.287-4.472.688-.975.344-1.634 1.032-1.978 2.064-.344.975-.516 2.523-.516 4.644v42.656c0 2.064.172 3.612.516 4.644.344 1.032 1.003 1.72 1.978 2.064 1.032.344 2.523.573 4.472.688V81c-1.204-.115-2.78-.172-4.73-.172a214.395 214.395 0 0 0-12.212 0c-2.007 0-3.67.057-4.988.172zM3.612 81v-1.72c1.95-.115 3.411-.344 4.386-.688 1.032-.344 1.72-1.032 2.064-2.064.344-1.032.516-2.58.516-4.644V29.228c0-2.121-.172-3.67-.516-4.644-.344-1.032-1.032-1.72-2.064-2.064-.975-.401-2.437-.63-4.386-.688v-1.72c1.204.057 2.78.115 4.73.172a214.395 214.395 0 0 0 12.212 0c2.007-.057 3.67-.115 4.988-.172v1.72c-1.95.057-3.44.287-4.472.688-.975.344-1.634 1.032-1.978 2.064-.344.975-.516 2.523-.516 4.644v42.656c0 2.064.172 3.612.516 4.644.344 1.032 1.003 1.72 1.978 2.064 1.032.344 2.523.573 4.472.688V81c-1.319-.115-2.981-.172-4.988-.172a214.395 214.395 0 0 0-12.212 0c-1.95 0-3.526.057-4.73.172zm11.954-29.756v-1.72h33.97v1.72h-33.97zm71.402-15.738c5.045 0 8.973 1.548 11.782 4.644 2.867 3.039 4.3 7.797 4.3 14.276H72.692l-.086-1.634h22.188c.115-2.81-.114-5.39-.688-7.74-.573-2.408-1.49-4.329-2.752-5.762-1.204-1.433-2.78-2.15-4.73-2.15-2.637 0-4.988 1.319-7.052 3.956-2.007 2.637-3.21 6.823-3.612 12.556l.258.344c-.115.86-.2 1.806-.258 2.838a55.738 55.738 0 0 0-.086 3.096c0 3.899.63 7.253 1.892 10.062 1.261 2.81 2.895 4.96 4.902 6.45 2.064 1.433 4.185 2.15 6.364 2.15a15.4 15.4 0 0 0 4.902-.774c1.548-.573 2.981-1.49 4.3-2.752 1.319-1.261 2.466-2.953 3.44-5.074l1.72.688c-.63 1.892-1.662 3.727-3.096 5.504-1.433 1.777-3.24 3.24-5.418 4.386-2.178 1.09-4.701 1.634-7.568 1.634-4.128 0-7.683-.946-10.664-2.838-2.924-1.892-5.188-4.5-6.794-7.826-1.548-3.383-2.322-7.253-2.322-11.61 0-5.045.803-9.374 2.408-12.986 1.606-3.67 3.87-6.479 6.794-8.428 2.924-2.007 6.336-3.01 10.234-3.01zm34.818 46.096c-2.351 0-4.386-.43-6.106-1.29-1.72-.917-3.039-2.179-3.956-3.784-.86-1.605-1.29-3.469-1.29-5.59 0-2.523.573-4.587 1.72-6.192 1.204-1.605 2.723-2.895 4.558-3.87a33.95 33.95 0 0 1 5.762-2.408 325.601 325.601 0 0 1 5.848-1.892c1.835-.63 3.325-1.347 4.472-2.15 1.204-.803 1.806-1.863 1.806-3.182v-5.332c0-2.408-.373-4.243-1.118-5.504-.688-1.261-1.634-2.093-2.838-2.494-1.204-.459-2.551-.688-4.042-.688-1.433 0-2.981.2-4.644.602-1.605.401-2.895 1.233-3.87 2.494 1.089.23 2.035.803 2.838 1.72.803.917 1.204 2.093 1.204 3.526 0 1.433-.459 2.58-1.376 3.44-.917.803-2.093 1.204-3.526 1.204-1.663 0-2.895-.516-3.698-1.548a6.26 6.26 0 0 1-1.118-3.612c0-1.49.373-2.695 1.118-3.612.745-.917 1.691-1.777 2.838-2.58 1.319-.917 3.01-1.691 5.074-2.322 2.121-.688 4.501-1.032 7.138-1.032 2.351 0 4.357.287 6.02.86 1.663.516 3.039 1.29 4.128 2.322 1.491 1.376 2.465 3.067 2.924 5.074.459 1.95.688 4.3.688 7.052v23.908c0 1.433.201 2.465.602 3.096.459.63 1.147.946 2.064.946.631 0 1.233-.143 1.806-.43.573-.287 1.261-.745 2.064-1.376l.946 1.462a33.111 33.111 0 0 1-3.44 2.322c-1.089.573-2.551.86-4.386.86-1.663 0-3.039-.287-4.128-.86a5.82 5.82 0 0 1-2.494-2.494c-.516-1.147-.774-2.58-.774-4.3-1.548 2.58-3.411 4.5-5.59 5.762-2.121 1.261-4.529 1.892-7.224 1.892zm3.096-3.44c1.892 0 3.641-.545 5.246-1.634 1.663-1.09 3.153-2.723 4.472-4.902V54.77c-.688.975-1.691 1.806-3.01 2.494-1.319.63-2.752 1.29-4.3 1.978a27.594 27.594 0 0 0-4.472 2.322c-1.376.86-2.523 2.007-3.44 3.44-.917 1.433-1.376 3.297-1.376 5.59 0 2.293.602 4.128 1.806 5.504 1.261 1.376 2.953 2.064 5.074 2.064zm66.654-64.586v58.05c0 2.58.459 4.5 1.376 5.762.975 1.204 2.695 1.806 5.16 1.806V81a55.323 55.323 0 0 0-5.332-.258c-1.663 0-3.268.086-4.816.258-1.491.172-2.867.487-4.128.946v-58.05c0-2.58-.459-4.472-1.376-5.676-.917-1.261-2.637-1.892-5.16-1.892v-1.806c1.835.172 3.612.258 5.332.258 1.663 0 3.239-.086 4.73-.258 1.548-.23 2.953-.545 4.214-.946zm-18.06 21.93c2.523 0 4.873.602 7.052 1.806 2.236 1.204 3.727 3.268 4.472 6.192l-1.118.86c-.803-2.408-2.064-4.157-3.784-5.246-1.663-1.09-3.641-1.634-5.934-1.634-3.383 0-6.221 1.749-8.514 5.246-2.236 3.497-3.325 8.887-3.268 16.168 0 4.644.43 8.514 1.29 11.61.917 3.039 2.236 5.332 3.956 6.88 1.777 1.49 3.927 2.236 6.45 2.236 2.408 0 4.587-1.032 6.536-3.096 1.949-2.064 3.125-5.103 3.526-9.116l1.032 1.204c-.459 4.357-1.863 7.711-4.214 10.062-2.293 2.35-5.418 3.526-9.374 3.526-3.555 0-6.679-.86-9.374-2.58-2.637-1.72-4.673-4.3-6.106-7.74-1.376-3.44-2.064-7.769-2.064-12.986 0-5.217.889-9.546 2.666-12.986 1.835-3.497 4.214-6.106 7.138-7.826a18.952 18.952 0 0 1 9.632-2.58zm42.575-21.93v59.426c0 2.408.487 4.042 1.462 4.902 1.032.86 2.723 1.29 5.074 1.29V81a163.47 163.47 0 0 0-4.472-.172c-1.95-.115-3.928-.172-5.934-.172-1.95 0-3.928.057-5.934.172-2.007.057-3.498.115-4.472.172v-1.806c2.35 0 4.013-.43 4.988-1.29 1.032-.86 1.548-2.494 1.548-4.902V23.896c0-2.58-.459-4.472-1.376-5.676-.918-1.261-2.638-1.892-5.16-1.892v-1.806c1.834.172 3.612.258 5.332.258 1.662 0 3.239-.086 4.73-.258 1.548-.23 2.952-.545 4.214-.946zm20.737 1.634c1.491 0 2.781.545 3.87 1.634 1.09 1.09 1.634 2.38 1.634 3.87 0 1.49-.544 2.78-1.634 3.87-1.089 1.09-2.379 1.634-3.87 1.634-1.49 0-2.78-.545-3.87-1.634-1.089-1.09-1.634-2.38-1.634-3.87 0-1.49.545-2.78 1.634-3.87 1.09-1.09 2.38-1.634 3.87-1.634zm4.472 20.554v37.238c0 2.408.488 4.042 1.462 4.902 1.032.86 2.724 1.29 5.074 1.29V81c-.974-.057-2.465-.115-4.472-.172a100.998 100.998 0 0 0-5.934-.172 104 104 0 0 0-5.934.172 163.47 163.47 0 0 0-4.472.172v-1.806c2.351 0 4.014-.43 4.988-1.29 1.032-.86 1.548-2.494 1.548-4.902V46.084c0-2.58-.458-4.472-1.376-5.676-.917-1.261-2.637-1.892-5.16-1.892V36.71c1.835.172 3.612.258 5.332.258 1.663 0 3.24-.086 4.73-.258 1.548-.23 2.953-.545 4.214-.946zm39.816-.258c2.178 0 3.984.287 5.418.86 1.49.573 2.723 1.376 3.698 2.408 1.089 1.147 1.863 2.58 2.322 4.3.458 1.72.688 4.042.688 6.966v22.962c0 2.408.487 4.042 1.462 4.902 1.032.86 2.723 1.29 5.074 1.29V81a163.47 163.47 0 0 0-4.472-.172 102.537 102.537 0 0 0-5.848-.172c-1.892 0-3.756.057-5.59.172a145.26 145.26 0 0 0-4.042.172v-1.806c2.064 0 3.526-.43 4.386-1.29.86-.86 1.29-2.494 1.29-4.902V48.148c0-1.777-.144-3.411-.43-4.902-.287-1.49-.946-2.695-1.978-3.612-.975-.917-2.494-1.376-4.558-1.376-2.408 0-4.53.688-6.364 2.064-1.778 1.376-3.182 3.268-4.214 5.676-.975 2.35-1.462 4.988-1.462 7.912v19.092c0 2.408.43 4.042 1.29 4.902.86.86 2.322 1.29 4.386 1.29V81c-.918-.057-2.294-.115-4.128-.172a85.514 85.514 0 0 0-5.504-.172c-1.892 0-3.842.057-5.848.172-2.007.057-3.498.115-4.472.172v-1.806c2.35 0 4.013-.43 4.988-1.29 1.032-.86 1.548-2.494 1.548-4.902V46.084c0-2.58-.459-4.472-1.376-5.676-.918-1.261-2.638-1.892-5.16-1.892V36.71c1.834.172 3.612.258 5.332.258 1.662 0 3.239-.086 4.73-.258 1.548-.23 2.952-.545 4.214-.946v10.148c1.49-3.899 3.554-6.593 6.192-8.084 2.694-1.548 5.504-2.322 8.428-2.322zm43.316 0c5.045 0 8.973 1.548 11.782 4.644 2.867 3.039 4.3 7.797 4.3 14.276h-30.358l-.086-1.634h22.188c.115-2.81-.115-5.39-.688-7.74-.573-2.408-1.491-4.329-2.752-5.762-1.204-1.433-2.781-2.15-4.73-2.15-2.637 0-4.988 1.319-7.052 3.956-2.007 2.637-3.211 6.823-3.612 12.556l.258.344c-.115.86-.201 1.806-.258 2.838a56.13 56.13 0 0 0-.086 3.096c0 3.899.631 7.253 1.892 10.062 1.261 2.81 2.895 4.96 4.902 6.45 2.064 1.433 4.185 2.15 6.364 2.15a15.4 15.4 0 0 0 4.902-.774c1.548-.573 2.981-1.49 4.3-2.752 1.319-1.261 2.465-2.953 3.44-5.074l1.72.688c-.631 1.892-1.663 3.727-3.096 5.504-1.433 1.777-3.239 3.24-5.418 4.386-2.179 1.09-4.701 1.634-7.568 1.634-4.128 0-7.683-.946-10.664-2.838-2.924-1.892-5.189-4.5-6.794-7.826-1.548-3.383-2.322-7.253-2.322-11.61 0-5.045.803-9.374 2.408-12.986 1.605-3.67 3.87-6.479 6.794-8.428 2.924-2.007 6.335-3.01 10.234-3.01zM15.36 127.86c2 0 3.52.24 4.56.72 1.04.44 1.96.94 2.76 1.5.48.28.86.5 1.14.66.32.12.62.18.9.18.4 0 .68-.22.84-.66.2-.44.36-1.1.48-1.98h1.38c-.04.68-.1 1.5-.18 2.46-.04.92-.08 2.16-.12 3.72v6.06h-1.38c-.12-1.92-.54-3.76-1.26-5.52-.72-1.76-1.78-3.2-3.18-4.32-1.36-1.12-3.16-1.68-5.4-1.68-2.12 0-3.88.64-5.28 1.92-1.36 1.28-2.04 2.96-2.04 5.04 0 1.8.46 3.32 1.38 4.56.92 1.2 2.14 2.3 3.66 3.3 1.56.96 3.24 2 5.04 3.12 2.08 1.28 3.92 2.56 5.52 3.84 1.64 1.24 2.92 2.62 3.84 4.14.96 1.52 1.44 3.36 1.44 5.52 0 2.56-.58 4.68-1.74 6.36-1.16 1.68-2.7 2.94-4.62 3.78-1.92.84-4.04 1.26-6.36 1.26-2.12 0-3.8-.24-5.04-.72-1.24-.48-2.3-.98-3.18-1.5-.88-.56-1.56-.84-2.04-.84-.4 0-.7.22-.9.66-.16.44-.3 1.1-.42 1.98H3.78c.08-.84.12-1.82.12-2.94.04-1.16.06-2.66.06-4.5.04-1.84.06-4.16.06-6.96H5.4c.16 2.4.6 4.64 1.32 6.72.76 2.08 1.9 3.76 3.42 5.04 1.56 1.24 3.62 1.86 6.18 1.86 1.32 0 2.56-.26 3.72-.78 1.2-.56 2.18-1.42 2.94-2.58.76-1.2 1.14-2.74 1.14-4.62 0-1.64-.4-3.06-1.2-4.26-.76-1.24-1.84-2.38-3.24-3.42-1.4-1.08-3.04-2.18-4.92-3.3a80.716 80.716 0 0 1-5.28-3.54c-1.64-1.2-2.96-2.58-3.96-4.14-.96-1.6-1.44-3.52-1.44-5.76 0-2.36.52-4.3 1.56-5.82 1.08-1.56 2.48-2.7 4.2-3.42 1.72-.76 3.56-1.14 5.52-1.14zm46.022 11.58v25.08c0 1.8.32 3.14.96 4.02.68.84 1.88 1.26 3.6 1.26v1.26c-1.24-.12-2.48-.18-3.72-.18-1.16 0-2.28.06-3.36.18-1.04.12-2 .34-2.88.66v-7.08c-1 2.6-2.42 4.46-4.26 5.58-1.8 1.08-3.66 1.62-5.58 1.62-1.4 0-2.62-.2-3.66-.6-1.04-.4-1.9-.96-2.58-1.68-.76-.8-1.28-1.84-1.56-3.12s-.42-2.86-.42-4.74v-15.06c0-1.8-.32-3.12-.96-3.96-.64-.88-1.84-1.32-3.6-1.32v-1.26c1.28.12 2.52.18 3.72.18 1.16 0 2.26-.06 3.3-.18 1.08-.16 2.06-.38 2.94-.66v23.58c0 1.24.08 2.38.24 3.42.16 1.04.56 1.88 1.2 2.52.64.64 1.68.96 3.12.96 1.56 0 2.94-.48 4.14-1.44 1.24-.96 2.2-2.26 2.88-3.9.72-1.64 1.08-3.48 1.08-5.52v-12.42c0-1.8-.32-3.12-.96-3.96-.64-.88-1.84-1.32-3.6-1.32v-1.26c1.28.12 2.52.18 3.72.18 1.16 0 2.26-.06 3.3-.18 1.08-.16 2.06-.38 2.94-.66zm25.444-.18c3.28 0 6 1.36 8.16 4.08 2.16 2.68 3.24 6.76 3.24 12.24 0 3.6-.62 6.62-1.86 9.06-1.2 2.4-2.82 4.2-4.86 5.4-2.04 1.2-4.26 1.8-6.66 1.8-2 0-3.94-.56-5.82-1.68-1.84-1.16-3.22-2.86-4.14-5.1l1.2.66c1 1.6 2.24 2.8 3.72 3.6 1.48.76 3 1.14 4.56 1.14 2.68 0 4.68-1.2 6-3.6 1.36-2.44 2.04-6.2 2.04-11.28 0-3.24-.26-5.94-.78-8.1-.52-2.16-1.32-3.76-2.4-4.8-1.08-1.08-2.46-1.62-4.14-1.62-1.84 0-3.56.84-5.16 2.52-1.56 1.64-2.52 4.06-2.88 7.26l-.72-.84c.44-3.4 1.62-6.04 3.54-7.92 1.96-1.88 4.28-2.82 6.96-2.82zm-9.36-15.24v43.86c-.52.44-1.06.9-1.62 1.38l-1.56 1.32c-.52.44-1.06.9-1.62 1.38l-1.02-.42c.16-.56.26-1.12.3-1.68.08-.6.12-1.2.12-1.8v-36.84c0-1.8-.32-3.12-.96-3.96-.64-.88-1.84-1.32-3.6-1.32v-1.26c1.28.12 2.52.18 3.72.18 1.16 0 2.26-.06 3.3-.18 1.08-.16 2.06-.38 2.94-.66zm34.182 0v22.44c1.04-2.72 2.48-4.6 4.32-5.64 1.88-1.04 3.84-1.56 5.88-1.56 1.52 0 2.78.2 3.78.6 1.04.4 1.9.96 2.58 1.68.76.8 1.3 1.8 1.62 3 .32 1.2.48 2.82.48 4.86v16.02c0 1.68.34 2.82 1.02 3.42.72.6 1.9.9 3.54.9V171c-.68-.04-1.72-.08-3.12-.12-1.4-.08-2.76-.12-4.08-.12-1.32 0-2.62.04-3.9.12-1.24.04-2.18.08-2.82.12v-1.26c1.44 0 2.46-.3 3.06-.9.6-.6.9-1.74.9-3.42v-17.34c0-1.24-.1-2.38-.3-3.42-.2-1.04-.66-1.88-1.38-2.52-.68-.64-1.74-.96-3.18-.96-1.64 0-3.1.46-4.38 1.38-1.24.92-2.22 2.2-2.94 3.84-.72 1.64-1.08 3.52-1.08 5.64v13.38c0 1.68.3 2.82.9 3.42.6.6 1.62.9 3.06.9V171c-.64-.04-1.6-.08-2.88-.12-1.24-.08-2.52-.12-3.84-.12-1.32 0-2.68.04-4.08.12-1.4.04-2.44.08-3.12.12v-1.26c1.64 0 2.8-.3 3.48-.9.72-.6 1.08-1.74 1.08-3.42v-34.2c0-1.8-.32-3.12-.96-3.96-.64-.88-1.84-1.32-3.6-1.32v-1.26c1.28.12 2.52.18 3.72.18 1.16 0 2.26-.06 3.3-.18 1.08-.16 2.06-.38 2.94-.66zm40.434 15.24c3.52 0 6.26 1.08 8.22 3.24 2 2.12 3 5.44 3 9.96h-21.18l-.06-1.14h15.48c.08-1.96-.08-3.76-.48-5.4-.4-1.68-1.04-3.02-1.92-4.02-.84-1-1.94-1.5-3.3-1.5-1.84 0-3.48.92-4.92 2.76-1.4 1.84-2.24 4.76-2.52 8.76l.18.24c-.08.6-.14 1.26-.18 1.98-.04.72-.06 1.44-.06 2.16 0 2.72.44 5.06 1.32 7.02.88 1.96 2.02 3.46 3.42 4.5 1.44 1 2.92 1.5 4.44 1.5 1.2 0 2.34-.18 3.42-.54 1.08-.4 2.08-1.04 3-1.92.92-.88 1.72-2.06 2.4-3.54l1.2.48c-.44 1.32-1.16 2.6-2.16 3.84-1 1.24-2.26 2.26-3.78 3.06-1.52.76-3.28 1.14-5.28 1.14-2.88 0-5.36-.66-7.44-1.98-2.04-1.32-3.62-3.14-4.74-5.46-1.08-2.36-1.62-5.06-1.62-8.1 0-3.52.56-6.54 1.68-9.06 1.12-2.56 2.7-4.52 4.74-5.88 2.04-1.4 4.42-2.1 7.14-2.1zm24.291 32.16c-1.64 0-3.06-.3-4.26-.9-1.2-.64-2.12-1.52-2.76-2.64-.6-1.12-.9-2.42-.9-3.9 0-1.76.4-3.2 1.2-4.32.84-1.12 1.9-2.02 3.18-2.7 1.28-.68 2.62-1.24 4.02-1.68 1.44-.48 2.8-.92 4.08-1.32 1.28-.44 2.32-.94 3.12-1.5.84-.56 1.26-1.3 1.26-2.22v-3.72c0-1.68-.26-2.96-.78-3.84-.48-.88-1.14-1.46-1.98-1.74-.84-.32-1.78-.48-2.82-.48-1 0-2.08.14-3.24.42-1.12.28-2.02.86-2.7 1.74.76.16 1.42.56 1.98 1.2.56.64.84 1.46.84 2.46s-.32 1.8-.96 2.4c-.64.56-1.46.84-2.46.84-1.16 0-2.02-.36-2.58-1.08-.52-.76-.78-1.6-.78-2.52 0-1.04.26-1.88.78-2.52.52-.64 1.18-1.24 1.98-1.8.92-.64 2.1-1.18 3.54-1.62 1.48-.48 3.14-.72 4.98-.72 1.64 0 3.04.2 4.2.6 1.16.36 2.12.9 2.88 1.62 1.04.96 1.72 2.14 2.04 3.54.32 1.36.48 3 .48 4.92v16.68c0 1 .14 1.72.42 2.16.32.44.8.66 1.44.66.44 0 .86-.1 1.26-.3.4-.2.88-.52 1.44-.96l.66 1.02c-.84.64-1.64 1.18-2.4 1.62-.76.4-1.78.6-3.06.6-1.16 0-2.12-.2-2.88-.6a4.06 4.06 0 0 1-1.74-1.74c-.36-.8-.54-1.8-.54-3-1.08 1.8-2.38 3.14-3.9 4.02-1.48.88-3.16 1.32-5.04 1.32zm2.16-2.4c1.32 0 2.54-.38 3.66-1.14 1.16-.76 2.2-1.9 3.12-3.42V152.7c-.48.68-1.18 1.26-2.1 1.74-.92.44-1.92.9-3 1.38-1.08.44-2.12.98-3.12 1.62-.96.6-1.76 1.4-2.4 2.4-.64 1-.96 2.3-.96 3.9s.42 2.88 1.26 3.84c.88.96 2.06 1.44 3.54 1.44zm46.503-45.06v40.5c0 1.8.32 3.14.96 4.02.68.84 1.88 1.26 3.6 1.26V171c-1.24-.12-2.48-.18-3.72-.18-1.16 0-2.28.06-3.36.18-1.04.12-2 .34-2.88.66v-40.5c0-1.8-.32-3.12-.96-3.96-.64-.88-1.84-1.32-3.6-1.32v-1.26c1.28.12 2.52.18 3.72.18 1.16 0 2.26-.06 3.3-.18 1.08-.16 2.06-.38 2.94-.66zm-12.6 15.3c1.76 0 3.4.42 4.92 1.26 1.56.84 2.6 2.28 3.12 4.32l-.78.6c-.56-1.68-1.44-2.9-2.64-3.66-1.16-.76-2.54-1.14-4.14-1.14-2.36 0-4.34 1.22-5.94 3.66-1.56 2.44-2.32 6.2-2.28 11.28 0 3.24.3 5.94.9 8.1.64 2.12 1.56 3.72 2.76 4.8 1.24 1.04 2.74 1.56 4.5 1.56 1.68 0 3.2-.72 4.56-2.16 1.36-1.44 2.18-3.56 2.46-6.36l.72.84c-.32 3.04-1.3 5.38-2.94 7.02-1.6 1.64-3.78 2.46-6.54 2.46-2.48 0-4.66-.6-6.54-1.8-1.84-1.2-3.26-3-4.26-5.4-.96-2.4-1.44-5.42-1.44-9.06 0-3.64.62-6.66 1.86-9.06 1.28-2.44 2.94-4.26 4.98-5.46 2.08-1.2 4.32-1.8 6.72-1.8zm29.703-15.3v41.46c0 1.68.34 2.82 1.02 3.42.72.6 1.9.9 3.54.9V171c-.68-.04-1.72-.08-3.12-.12-1.36-.08-2.74-.12-4.14-.12-1.36 0-2.74.04-4.14.12-1.4.04-2.44.08-3.12.12v-1.26c1.64 0 2.8-.3 3.48-.9.72-.6 1.08-1.74 1.08-3.42v-34.26c0-1.8-.32-3.12-.96-3.96-.64-.88-1.84-1.32-3.6-1.32v-1.26c1.28.12 2.52.18 3.72.18 1.16 0 2.26-.06 3.3-.18 1.08-.16 2.06-.38 2.94-.66zm14.468 1.14c1.04 0 1.94.38 2.7 1.14.76.76 1.14 1.66 1.14 2.7 0 1.04-.38 1.94-1.14 2.7-.76.76-1.66 1.14-2.7 1.14-1.04 0-1.94-.38-2.7-1.14-.76-.76-1.14-1.66-1.14-2.7 0-1.04.38-1.94 1.14-2.7.76-.76 1.66-1.14 2.7-1.14zm3.12 14.34v25.98c0 1.68.34 2.82 1.02 3.42.72.6 1.9.9 3.54.9V171c-.68-.04-1.72-.08-3.12-.12-1.36-.08-2.74-.12-4.14-.12-1.36 0-2.74.04-4.14.12-1.4.04-2.44.08-3.12.12v-1.26c1.64 0 2.8-.3 3.48-.9.72-.6 1.08-1.74 1.08-3.42v-18.78c0-1.8-.32-3.12-.96-3.96-.64-.88-1.84-1.32-3.6-1.32v-1.26c1.28.12 2.52.18 3.72.18 1.16 0 2.26-.06 3.3-.18 1.08-.16 2.06-.38 2.94-.66zm27.778-.18c1.52 0 2.78.2 3.78.6 1.04.4 1.9.96 2.58 1.68.76.8 1.3 1.8 1.62 3 .32 1.2.48 2.82.48 4.86v16.02c0 1.68.34 2.82 1.02 3.42.72.6 1.9.9 3.54.9V171c-.68-.04-1.72-.08-3.12-.12-1.4-.08-2.76-.12-4.08-.12-1.32 0-2.62.04-3.9.12-1.24.04-2.18.08-2.82.12v-1.26c1.44 0 2.46-.3 3.06-.9.6-.6.9-1.74.9-3.42v-17.34c0-1.24-.1-2.38-.3-3.42-.2-1.04-.66-1.88-1.38-2.52-.68-.64-1.74-.96-3.18-.96-1.68 0-3.16.48-4.44 1.44-1.24.96-2.22 2.28-2.94 3.96-.68 1.64-1.02 3.48-1.02 5.52v13.32c0 1.68.3 2.82.9 3.42.6.6 1.62.9 3.06.9V171c-.64-.04-1.6-.08-2.88-.12-1.24-.08-2.52-.12-3.84-.12-1.32 0-2.68.04-4.08.12-1.4.04-2.44.08-3.12.12v-1.26c1.64 0 2.8-.3 3.48-.9.72-.6 1.08-1.74 1.08-3.42v-18.78c0-1.8-.32-3.12-.96-3.96-.64-.88-1.84-1.32-3.6-1.32v-1.26c1.28.12 2.52.18 3.72.18 1.16 0 2.26-.06 3.3-.18 1.08-.16 2.06-.38 2.94-.66v7.08c1.04-2.72 2.48-4.6 4.32-5.64 1.88-1.08 3.84-1.62 5.88-1.62zm30.221 0c3.52 0 6.26 1.08 8.22 3.24 2 2.12 3 5.44 3 9.96h-21.18l-.06-1.14h15.48c.08-1.96-.08-3.76-.48-5.4-.4-1.68-1.04-3.02-1.92-4.02-.84-1-1.94-1.5-3.3-1.5-1.84 0-3.48.92-4.92 2.76-1.4 1.84-2.24 4.76-2.52 8.76l.18.24c-.08.6-.14 1.26-.18 1.98-.04.72-.06 1.44-.06 2.16 0 2.72.44 5.06 1.32 7.02.88 1.96 2.02 3.46 3.42 4.5 1.44 1 2.92 1.5 4.44 1.5 1.2 0 2.34-.18 3.42-.54 1.08-.4 2.08-1.04 3-1.92.92-.88 1.72-2.06 2.4-3.54l1.2.48c-.44 1.32-1.16 2.6-2.16 3.84-1 1.24-2.26 2.26-3.78 3.06-1.52.76-3.28 1.14-5.28 1.14-2.88 0-5.36-.66-7.44-1.98-2.04-1.32-3.62-3.14-4.74-5.46-1.08-2.36-1.62-5.06-1.62-8.1 0-3.52.56-6.54 1.68-9.06 1.12-2.56 2.7-4.52 4.74-5.88 2.04-1.4 4.42-2.1 7.14-2.1zM1.642 226v-16h3.867v6.422h6.304V210h3.86v16h-3.86v-6.43H5.51V226H1.642zm16.457 0v-12h3.82v12h-3.82zm1.914-13.398c-.537 0-.998-.178-1.383-.532-.386-.359-.578-.791-.578-1.297 0-.5.192-.927.578-1.281a1.959 1.959 0 0 1 1.383-.539c.541 0 1.002.18 1.382.539.386.354.579.781.579 1.281 0 .506-.193.938-.579 1.297-.38.354-.84.532-1.382.532zm9.931 18.148c-1.14 0-2.117-.159-2.93-.477-.812-.317-1.45-.752-1.913-1.304a3.611 3.611 0 0 1-.836-1.875l3.617-.203c.067.244.192.458.375.64.187.183.43.323.726.422.302.099.657.149 1.063.149.64 0 1.17-.157 1.586-.469.422-.307.633-.847.633-1.617v-2.11h-.133c-.151.37-.38.701-.688.992-.307.292-.69.521-1.148.688-.453.167-.974.25-1.563.25a4.863 4.863 0 0 1-2.406-.609c-.724-.412-1.305-1.047-1.742-1.907-.432-.864-.649-1.976-.649-3.336 0-1.401.224-2.554.672-3.461.448-.911 1.034-1.586 1.758-2.023a4.487 4.487 0 0 1 2.352-.656c.63 0 1.169.109 1.617.328a3.3 3.3 0 0 1 1.117.828c.292.339.513.69.664 1.055h.11V214h3.804v12.047c0 1.016-.255 1.872-.765 2.57-.51.698-1.224 1.227-2.141 1.586-.917.365-1.977.547-3.18.547zm.117-7.695c.464 0 .86-.123 1.188-.368.328-.244.58-.596.758-1.054.177-.459.266-1.008.266-1.649 0-.651-.09-1.211-.266-1.679-.172-.474-.425-.839-.758-1.094-.328-.255-.724-.383-1.188-.383-.473 0-.875.13-1.203.391-.328.26-.578.627-.75 1.101-.166.469-.25 1.024-.25 1.664 0 .641.086 1.19.258 1.649.172.458.42.81.742 1.054.328.245.73.368 1.203.368zm12.225-3.899V226h-3.82v-16h3.695v6.203h.133c.27-.739.714-1.318 1.328-1.734.62-.417 1.378-.625 2.273-.625.844 0 1.579.187 2.204.562a3.75 3.75 0 0 1 1.453 1.571c.349.677.52 1.468.515 2.375V226h-3.82v-6.898c.005-.667-.161-1.188-.5-1.563-.339-.375-.815-.562-1.43-.562a2.09 2.09 0 0 0-1.062.265 1.81 1.81 0 0 0-.711.742c-.167.323-.253.714-.258 1.172zM56.272 210v16h-3.82v-16h3.82zm2.432 16v-12h3.82v12h-3.82zm1.914-13.398c-.536 0-.997-.178-1.383-.532-.385-.359-.578-.791-.578-1.297 0-.5.193-.927.578-1.281a1.959 1.959 0 0 1 1.383-.539c.542 0 1.003.18 1.383.539.385.354.578.781.578 1.281 0 .506-.193.938-.578 1.297-.38.354-.841.532-1.383.532zm9.932 18.148c-1.14 0-2.117-.159-2.93-.477-.812-.317-1.45-.752-1.914-1.304a3.611 3.611 0 0 1-.836-1.875l3.617-.203c.068.244.193.458.375.64.188.183.43.323.727.422.302.099.656.149 1.062.149.641 0 1.17-.157 1.586-.469.422-.307.633-.847.633-1.617v-2.11h-.133c-.15.37-.38.701-.687.992-.307.292-.69.521-1.149.688-.453.167-.974.25-1.562.25a4.863 4.863 0 0 1-2.406-.609c-.724-.412-1.305-1.047-1.743-1.907-.432-.864-.648-1.976-.648-3.336 0-1.401.224-2.554.672-3.461.448-.911 1.034-1.586 1.758-2.023a4.487 4.487 0 0 1 2.351-.656c.63 0 1.17.109 1.617.328.454.213.826.489 1.118.828.291.339.513.69.664 1.055h.11V214h3.804v12.047c0 1.016-.255 1.872-.766 2.57-.51.698-1.224 1.227-2.14 1.586-.917.365-1.977.547-3.18.547zm.117-7.695c.463 0 .86-.123 1.188-.368.328-.244.58-.596.757-1.054.177-.459.266-1.008.266-1.649 0-.651-.089-1.211-.266-1.679-.172-.474-.424-.839-.757-1.094-.329-.255-.725-.383-1.188-.383-.474 0-.875.13-1.203.391-.328.26-.578.627-.75 1.101-.167.469-.25 1.024-.25 1.664 0 .641.086 1.19.258 1.649.172.458.419.81.742 1.054.328.245.729.368 1.203.368zm12.225-3.899V226h-3.82v-16h3.695v6.203h.132c.271-.739.714-1.318 1.329-1.734.62-.417 1.377-.625 2.273-.625.844 0 1.578.187 2.203.562a3.75 3.75 0 0 1 1.453 1.571c.35.677.521 1.468.516 2.375V226h-3.82v-6.898c.005-.667-.162-1.188-.5-1.563-.339-.375-.816-.562-1.43-.562a2.09 2.09 0 0 0-1.063.265 1.81 1.81 0 0 0-.71.742c-.167.323-.253.714-.258 1.172zM99.832 214v2.812H92.26V214h7.57zm-5.985-2.875h3.82v11.102c0 .234.037.424.11.57.078.14.19.242.335.305.146.057.32.086.524.086.146 0 .3-.014.46-.04.167-.031.292-.057.376-.078l.578 2.758c-.182.052-.44.117-.774.195a6.359 6.359 0 0 1-1.18.149c-.895.042-1.663-.063-2.304-.313-.635-.255-1.122-.651-1.46-1.187-.334-.537-.496-1.211-.485-2.024v-11.523zM152.563 217.29h-2.125a2.647 2.647 0 0 0-.336-.926 2.476 2.476 0 0 0-1.437-1.12 3.25 3.25 0 0 0-.994-.147c-.633 0-1.194.159-1.682.477-.489.314-.871.776-1.148 1.386-.276.606-.415 1.347-.415 2.222 0 .89.139 1.64.415 2.25.28.606.663 1.064 1.148 1.375.488.307 1.047.46 1.676.46.348 0 .674-.045.977-.136.307-.095.582-.233.824-.415a2.531 2.531 0 0 0 .972-1.58l2.125.012a4.591 4.591 0 0 1-.517 1.557 4.63 4.63 0 0 1-1.029 1.284c-.424.367-.92.655-1.488.863a5.546 5.546 0 0 1-1.892.307c-1.023 0-1.936-.237-2.739-.71-.803-.474-1.436-1.157-1.898-2.051-.462-.894-.693-1.966-.693-3.216 0-1.254.233-2.326.699-3.216.466-.894 1.1-1.578 1.903-2.051.803-.474 1.712-.71 2.728-.71.647 0 1.25.09 1.806.272a4.64 4.64 0 0 1 1.489.801c.436.349.794.777 1.074 1.284.284.504.47 1.08.557 1.728zm4.884 7.71h-2.25l4.096-11.636h2.603L165.998 225h-2.25l-3.108-9.25h-.091l-3.102 9.25zm.074-4.562h6.136v1.693h-6.136v-1.693zm9.692-5.307v-1.767h9.284v1.767H172.9V225h-2.09v-9.869h-3.597zM179.887 225v-11.636h7.568v1.767h-5.46v3.159h5.068v1.767h-5.068v3.176h5.505V225h-7.613zm19.114-7.92a3.002 3.002 0 0 0-.392-.824 2.522 2.522 0 0 0-.591-.631 2.386 2.386 0 0 0-.784-.392 3.269 3.269 0 0 0-.966-.136 3.02 3.02 0 0 0-1.67.471c-.489.315-.874.777-1.154 1.387-.276.606-.415 1.344-.415 2.215 0 .879.139 1.624.415 2.233.277.61.661 1.074 1.154 1.392.492.315 1.064.472 1.715.472.591 0 1.103-.114 1.535-.341.435-.227.77-.549 1.005-.966.235-.42.353-.913.353-1.477l.477.074h-3.159v-1.648h4.721v1.398c0 .996-.212 1.858-.636 2.585a4.351 4.351 0 0 1-1.75 1.682c-.742.39-1.595.585-2.557.585-1.072 0-2.013-.24-2.824-.721-.807-.485-1.437-1.173-1.892-2.063-.451-.894-.676-1.955-.676-3.182 0-.939.133-1.778.398-2.517.269-.738.644-1.365 1.125-1.881a4.794 4.794 0 0 1 1.693-1.181 5.387 5.387 0 0 1 2.114-.409c.644 0 1.244.094 1.801.284.557.185 1.051.45 1.483.795a4.336 4.336 0 0 1 1.625 2.796h-2.148zm16.28 2.102c0 1.254-.234 2.327-.704 3.221-.466.891-1.102 1.572-1.909 2.046-.803.473-1.714.71-2.733.71-1.019 0-1.932-.237-2.739-.71-.803-.477-1.439-1.161-1.909-2.051-.466-.894-.699-1.966-.699-3.216 0-1.254.233-2.326.699-3.216.47-.894 1.106-1.578 1.909-2.051.807-.474 1.72-.71 2.739-.71s1.93.236 2.733.71c.807.473 1.443 1.157 1.909 2.051.47.89.704 1.962.704 3.216zm-2.119 0c0-.883-.138-1.627-.415-2.233-.272-.61-.651-1.07-1.136-1.381-.485-.314-1.044-.471-1.676-.471-.633 0-1.191.157-1.676.471-.485.311-.866.771-1.142 1.381-.273.606-.409 1.35-.409 2.233 0 .882.136 1.629.409 2.238.276.607.657 1.067 1.142 1.381.485.311 1.043.466 1.676.466.632 0 1.191-.155 1.676-.466.485-.314.864-.774 1.136-1.381.277-.609.415-1.356.415-2.238zm5.712 5.818v-11.636h4.364c.894 0 1.644.155 2.25.466.61.31 1.07.746 1.381 1.306.314.557.471 1.207.471 1.949 0 .746-.159 1.394-.477 1.943-.314.546-.778.968-1.392 1.267-.614.296-1.368.444-2.261.444h-3.108v-1.75h2.823c.523 0 .951-.072 1.285-.216a1.53 1.53 0 0 0 .738-.642c.163-.284.244-.633.244-1.046 0-.413-.081-.765-.244-1.057a1.554 1.554 0 0 0-.744-.67c-.333-.155-.763-.233-1.29-.233h-1.932V225h-2.108zm6.012-5.273 2.88 5.273h-2.352l-2.829-5.273h2.301zm4.746-6.363h2.381l2.846 5.147h.114l2.846-5.147h2.381l-4.233 7.295V225h-2.102v-4.341l-4.233-7.295zM282.878 227v-11.636h3.932c.913 0 1.659.164 2.238.494.584.326 1.015.767 1.296 1.324.28.557.42 1.178.42 1.863 0 .686-.14 1.309-.42 1.87a3.138 3.138 0 0 1-1.284 1.341c-.58.329-1.322.494-2.228.494h-2.818v-1.25h2.773c.625 0 1.127-.108 1.506-.324.378-.216.653-.507.823-.875a2.91 2.91 0 0 0 .262-1.256c0-.465-.087-.882-.262-1.25a1.858 1.858 0 0 0-.829-.863c-.383-.212-.89-.318-1.523-.318h-2.477V227h-1.409zm12.542.205a3.55 3.55 0 0 1-1.505-.313 2.58 2.58 0 0 1-1.074-.915c-.265-.401-.398-.886-.398-1.454 0-.5.099-.906.296-1.216.197-.315.46-.561.789-.739a4.2 4.2 0 0 1 1.091-.398c.402-.09.805-.162 1.211-.215.53-.069.96-.12 1.289-.154.334-.038.576-.1.728-.187.155-.087.233-.239.233-.455v-.045c0-.561-.154-.997-.461-1.307-.303-.311-.763-.466-1.38-.466-.641 0-1.142.14-1.506.42-.364.281-.619.58-.767.898l-1.273-.454c.227-.531.53-.944.909-1.239.383-.299.8-.508 1.25-.625a5.205 5.205 0 0 1 1.341-.182c.28 0 .602.034.966.102.368.065.722.199 1.063.404.344.204.63.513.858.926.227.413.34.966.34 1.659V227h-1.34v-1.182h-.069c-.091.19-.242.392-.454.608-.212.216-.494.4-.847.551-.352.152-.782.228-1.29.228zm.205-1.205c.53 0 .977-.104 1.341-.312a2.133 2.133 0 0 0 1.114-1.847v-1.227c-.057.068-.182.13-.375.187-.19.053-.41.101-.66.142a27.7 27.7 0 0 1-.721.102c-.231.027-.419.05-.563.069a5.114 5.114 0 0 0-.977.221 1.684 1.684 0 0 0-.727.449c-.182.197-.273.466-.273.807 0 .466.172.818.517 1.057.349.235.79.352 1.324.352zm6.243 1v-8.727h1.295v1.318h.091c.159-.432.447-.782.864-1.051a2.542 2.542 0 0 1 1.409-.404c.098 0 .222.002.369.006.148.004.26.01.336.017v1.364a3.462 3.462 0 0 0-.313-.051 3.026 3.026 0 0 0-.506-.04c-.424 0-.803.089-1.136.267-.33.174-.591.417-.784.727a1.963 1.963 0 0 0-.284 1.051V227h-1.341zm8.521.205a3.546 3.546 0 0 1-1.505-.313 2.58 2.58 0 0 1-1.074-.915c-.265-.401-.398-.886-.398-1.454 0-.5.098-.906.295-1.216.197-.315.461-.561.79-.739.33-.178.693-.31 1.091-.398.402-.09.805-.162 1.21-.215.531-.069.961-.12 1.29-.154.333-.038.576-.1.727-.187.156-.087.233-.239.233-.455v-.045c0-.561-.153-.997-.46-1.307-.303-.311-.763-.466-1.381-.466-.64 0-1.142.14-1.505.42-.364.281-.62.58-.767.898l-1.273-.454c.227-.531.53-.944.909-1.239a3.406 3.406 0 0 1 1.25-.625 5.205 5.205 0 0 1 1.341-.182c.28 0 .602.034.966.102.367.065.721.199 1.062.404.345.204.631.513.858.926.228.413.341.966.341 1.659V227h-1.341v-1.182h-.068c-.091.19-.242.392-.454.608-.213.216-.495.4-.847.551-.352.152-.782.228-1.29.228zm.205-1.205c.53 0 .977-.104 1.341-.312a2.133 2.133 0 0 0 1.113-1.847v-1.227c-.057.068-.182.13-.375.187a6.143 6.143 0 0 1-.659.142 28.32 28.32 0 0 1-1.284.171 5.114 5.114 0 0 0-.977.221 1.684 1.684 0 0 0-.727.449c-.182.197-.273.466-.273.807 0 .466.172.818.517 1.057.348.235.79.352 1.324.352zm9.765 4.455c-.647 0-1.204-.084-1.67-.25a3.55 3.55 0 0 1-1.165-.648 3.54 3.54 0 0 1-.733-.852l1.068-.75c.122.159.275.34.461.545.185.208.439.388.761.54.326.155.752.233 1.278.233.705 0 1.286-.171 1.745-.512.458-.341.687-.875.687-1.602v-1.773h-.113a7.374 7.374 0 0 1-.421.591c-.178.231-.436.438-.773.62-.333.178-.784.267-1.352.267a3.648 3.648 0 0 1-1.898-.5c-.556-.334-.998-.819-1.323-1.455-.322-.636-.483-1.409-.483-2.318 0-.894.157-1.672.471-2.335.315-.667.752-1.182 1.313-1.546.56-.367 1.208-.551 1.943-.551.568 0 1.019.095 1.352.284.337.186.595.398.773.637.182.234.322.428.42.579h.137v-1.386h1.295v8.977c0 .75-.17 1.36-.511 1.83a2.91 2.91 0 0 1-1.364 1.039 5.135 5.135 0 0 1-1.898.336zm-.045-4.796c.538 0 .992-.123 1.364-.369.371-.246.653-.601.846-1.063.193-.462.29-1.015.29-1.659 0-.629-.095-1.184-.284-1.665-.19-.481-.47-.858-.841-1.13-.371-.273-.83-.409-1.375-.409-.568 0-1.042.144-1.421.431a2.628 2.628 0 0 0-.846 1.16 4.465 4.465 0 0 0-.279 1.613c0 .606.095 1.142.285 1.608.193.462.477.826.852 1.091.379.261.848.392 1.409.392zm6.273 1.341v-8.727h1.295v1.318h.091c.159-.432.447-.782.864-1.051a2.54 2.54 0 0 1 1.409-.404c.098 0 .221.002.369.006s.26.01.335.017v1.364a3.351 3.351 0 0 0-.312-.051 3.026 3.026 0 0 0-.506-.04c-.424 0-.803.089-1.136.267a1.954 1.954 0 0 0-1.068 1.778V227h-1.341zm8.521.205a3.554 3.554 0 0 1-1.506-.313 2.592 2.592 0 0 1-1.074-.915c-.265-.401-.397-.886-.397-1.454 0-.5.098-.906.295-1.216.197-.315.46-.561.79-.739.329-.178.693-.31 1.091-.398.401-.09.805-.162 1.21-.215.53-.069.96-.12 1.29-.154.333-.038.576-.1.727-.187.155-.087.233-.239.233-.455v-.045c0-.561-.153-.997-.46-1.307-.303-.311-.763-.466-1.381-.466-.64 0-1.142.14-1.506.42-.363.281-.619.58-.767.898l-1.272-.454c.227-.531.53-.944.909-1.239a3.398 3.398 0 0 1 1.25-.625 5.193 5.193 0 0 1 1.341-.182c.28 0 .602.034.966.102.367.065.721.199 1.062.404.345.204.631.513.858.926.227.413.341.966.341 1.659V227h-1.341v-1.182h-.068a2.36 2.36 0 0 1-.455.608c-.212.216-.494.4-.846.551-.353.152-.782.228-1.29.228zm.204-1.205c.531 0 .978-.104 1.341-.312.368-.209.644-.478.83-.807.189-.33.284-.676.284-1.04v-1.227c-.057.068-.182.13-.375.187a6.143 6.143 0 0 1-.659.142c-.246.038-.487.072-.722.102-.231.027-.418.05-.562.069a5.097 5.097 0 0 0-.977.221c-.3.099-.542.248-.728.449-.181.197-.272.466-.272.807 0 .466.172.818.517 1.057.348.235.789.352 1.323.352zm6.243 4.273v-12h1.296v1.386h.159c.098-.151.235-.345.409-.579.178-.239.432-.451.761-.637.334-.189.784-.284 1.353-.284.735 0 1.382.184 1.943.551.56.368.998.888 1.312 1.563.315.674.472 1.469.472 2.386 0 .924-.157 1.725-.472 2.403-.314.675-.75 1.197-1.306 1.569-.557.367-1.199.551-1.927.551-.56 0-1.009-.093-1.346-.279-.337-.189-.597-.403-.779-.642a8.61 8.61 0 0 1-.42-.602h-.114v4.614h-1.341zm1.319-7.637c0 .659.096 1.241.289 1.745.194.5.476.892.847 1.176.371.28.826.42 1.364.42.56 0 1.028-.147 1.403-.443.379-.299.663-.701.852-1.204.193-.508.29-1.072.29-1.694 0-.613-.095-1.166-.284-1.659-.186-.496-.468-.888-.847-1.176-.375-.292-.846-.437-1.414-.437-.546 0-1.004.138-1.375.414-.372.273-.652.656-.841 1.148-.19.489-.284 1.059-.284 1.71zm9.772-.886V227h-1.341v-11.636h1.341v4.272h.114c.204-.45.511-.808.92-1.074.413-.268.963-.403 1.648-.403.595 0 1.116.119 1.563.358.447.235.793.597 1.039 1.085.25.485.375 1.103.375 1.853V227h-1.341v-5.455c0-.693-.179-1.229-.539-1.607-.356-.383-.851-.574-1.483-.574-.44 0-.834.092-1.182.278a2.032 2.032 0 0 0-.818.813c-.197.356-.296.787-.296 1.295z" fill="#202020"/>
</svg>
