<svg width="150" height="50" viewBox="0 0 150 50" fill="none" xmlns="http://www.w3.org/2000/svg">
<g id="Imuno Logo">
<g id="Group 1">
<g id="Union">
<path d="M87.9666 14.6766V38.6052H89.1426V14.6766H87.9666Z" fill="#182D2E"/>
<path d="M7.31918 32.0316C7.50407 32.0316 7.697 32.0163 7.89797 31.9856C8.10698 31.9473 8.29589 31.8744 8.4647 31.7671C8.64155 31.6597 8.78625 31.5064 8.89879 31.307C9.01937 31.1077 9.07966 30.8393 9.07966 30.5019V23.3481C9.07966 23.0338 9.01937 22.7846 8.89879 22.6005C8.78625 22.4089 8.64155 22.2632 8.4647 22.1635C8.28785 22.0561 8.09492 21.9871 7.88591 21.9565C7.68494 21.9258 7.49603 21.9105 7.31918 21.9105H7.02979V20.6568H12.8297V30.5019C12.8297 30.8393 12.886 31.1077 12.9985 31.307C13.1191 31.5064 13.2638 31.6597 13.4326 31.7671C13.6095 31.8744 13.8024 31.9473 14.0114 31.9856C14.2204 32.0163 14.4134 32.0316 14.5902 32.0316H14.8796V33.2852H7.02979V32.0316H7.31918Z" fill="#182D2E"/>
<path d="M25.6596 33.2852V25.5334C25.6596 25.0273 25.6234 24.5788 25.551 24.1877C25.4867 23.789 25.3742 23.4555 25.2134 23.1871C25.0607 22.9187 24.8557 22.7156 24.5984 22.5775C24.3492 22.4319 24.0438 22.359 23.682 22.359C23.2721 22.359 22.9304 22.4587 22.6571 22.6581C22.3838 22.8574 22.1627 23.1258 21.9939 23.4631C21.8331 23.7928 21.7166 24.1801 21.6442 24.6248C21.5719 25.0618 21.5357 25.5219 21.5357 26.0049V30.5019C21.5357 30.8316 21.5759 31.0962 21.6563 31.2955C21.7447 31.4949 21.8653 31.6521 22.018 31.7671C22.1708 31.8744 22.3556 31.9473 22.5727 31.9856C22.7978 32.0163 23.047 32.0316 23.3203 32.0316H23.3926V33.2852H15.8081V32.0316H15.8563C16.1377 32.0316 16.3949 32.0163 16.628 31.9856C16.8612 31.9473 17.0621 31.8706 17.2309 31.7556C17.4078 31.6406 17.5445 31.4757 17.6409 31.261C17.7374 31.0463 17.7856 30.7626 17.7856 30.4099V23.3711C17.7856 23.0414 17.7414 22.7769 17.653 22.5775C17.5726 22.3782 17.452 22.2248 17.2912 22.1175C17.1385 22.0025 16.9536 21.9296 16.7366 21.899C16.5195 21.8606 16.2743 21.8415 16.001 21.8415H15.9287V20.6568H21.1137L21.4392 22.336H21.5598C21.809 21.8913 22.0703 21.5386 22.3436 21.2779C22.6249 21.0172 22.9224 20.8178 23.2359 20.6798C23.5494 20.5418 23.879 20.4536 24.2246 20.4153C24.5784 20.377 24.9481 20.3578 25.334 20.3578C26.2424 20.3578 27.0181 20.515 27.6612 20.8293C28.3043 21.136 28.7746 21.6383 29.072 22.336H29.2891C29.5383 21.8913 29.8076 21.5386 30.0969 21.2779C30.3944 21.0172 30.7079 20.8178 31.0375 20.6798C31.3751 20.5418 31.7248 20.4536 32.0865 20.4153C32.4563 20.377 32.8341 20.3578 33.22 20.3578C33.8551 20.3578 34.4258 20.446 34.9322 20.6223C35.4387 20.7987 35.8647 21.0709 36.2104 21.4389C36.5641 21.807 36.8334 22.2785 37.0183 22.8536C37.2032 23.421 37.2956 24.1034 37.2956 24.9008V30.3639C37.2956 30.732 37.3278 31.0272 37.3921 31.2495C37.4645 31.4642 37.569 31.6291 37.7056 31.7441C37.8423 31.8591 38.0151 31.9358 38.2241 31.9741C38.4331 32.0124 38.6743 32.0316 38.9476 32.0316H39.0199V33.2852H33.5335V25.5334C33.5335 24.5213 33.3848 23.7392 33.0874 23.1871C32.798 22.635 32.2915 22.359 31.568 22.359C31.1822 22.359 30.8526 22.451 30.5793 22.635C30.306 22.8114 30.0809 23.0529 29.904 23.3596C29.7352 23.6663 29.6106 24.0267 29.5302 24.4408C29.4498 24.8471 29.4096 25.2765 29.4096 25.7289V30.3639C29.4096 30.732 29.4418 31.0272 29.5061 31.2495C29.5784 31.4642 29.683 31.6291 29.8196 31.7441C29.9563 31.8591 30.1291 31.9358 30.3381 31.9741C30.5471 32.0124 30.7923 32.0316 31.0737 32.0316H31.146V33.2852H25.6596Z" fill="#182D2E"/>
<path d="M48.5835 31.6176L49.1261 33.2852H54.0458V32.0316H53.8408C53.5996 32.0316 53.3786 32.0201 53.1776 31.9971C52.9767 31.9664 52.8038 31.9013 52.6591 31.8016C52.5144 31.7019 52.3979 31.5562 52.3094 31.3645C52.229 31.1652 52.1889 30.893 52.1889 30.5479V20.6568H46.5818V21.9105H46.6542C46.8953 21.9105 47.1244 21.9258 47.3415 21.9565C47.5585 21.9795 47.7474 22.0446 47.9082 22.152C48.069 22.2517 48.1976 22.4012 48.2941 22.6005C48.3905 22.7999 48.4388 23.0721 48.4388 23.4171V27.9371C48.4388 28.4892 48.3946 28.9876 48.3061 29.4323C48.2257 29.8694 48.0931 30.2451 47.9082 30.5594C47.7314 30.8661 47.4982 31.1038 47.2089 31.2725C46.9275 31.4335 46.5899 31.514 46.196 31.514C45.8342 31.514 45.5328 31.4374 45.2916 31.284C45.0504 31.123 44.8575 30.9006 44.7128 30.6169C44.5681 30.3256 44.4636 29.9767 44.3993 29.5703C44.343 29.1639 44.3149 28.7077 44.3149 28.2017V20.6568H38.8285V21.9105H38.8767C39.1741 21.9105 39.4273 21.9335 39.6364 21.9795C39.8534 22.0255 40.0303 22.1098 40.1669 22.2325C40.3036 22.3552 40.4041 22.5239 40.4684 22.7386C40.5327 22.9533 40.5648 23.2331 40.5648 23.5782V28.8572C40.5648 30.4444 40.9065 31.6176 41.5898 32.3766C42.2811 33.1357 43.2699 33.5153 44.5561 33.5153C44.9419 33.5153 45.3157 33.4923 45.6775 33.4463C46.0473 33.4003 46.3969 33.3121 46.7265 33.1817C47.0561 33.0437 47.3656 32.852 47.655 32.6067C47.9444 32.3536 48.2137 32.0239 48.4629 31.6176H48.5835Z" fill="#182D2E"/>
<path d="M65.0066 33.2852V25.5334C65.0066 25.0273 64.9705 24.5788 64.8981 24.1877C64.8338 23.789 64.7212 23.4555 64.5605 23.1871C64.4077 22.9187 64.2027 22.7156 63.9455 22.5775C63.6963 22.4319 63.3908 22.359 63.0291 22.359C62.6191 22.359 62.2775 22.4587 62.0042 22.6581C61.7308 22.8574 61.5098 23.1258 61.341 23.4631C61.1802 23.7928 61.0636 24.1801 60.9913 24.6248C60.9189 25.0618 60.8827 25.5219 60.8827 26.0049V30.5019C60.8827 30.8316 60.9229 31.0962 61.0033 31.2955C61.0918 31.4949 61.2123 31.6521 61.3651 31.7671C61.5178 31.8744 61.7027 31.9473 61.9197 31.9856C62.1448 32.0163 62.394 32.0316 62.6673 32.0316H62.7397V33.2852H55.1551V32.0316H55.2034C55.4847 32.0316 55.742 32.0163 55.9751 31.9856C56.2082 31.9473 56.4092 31.8706 56.578 31.7556C56.7549 31.6406 56.8915 31.4757 56.988 31.261C57.0844 31.0463 57.1327 30.7626 57.1327 30.4099V23.4401C57.1327 23.1104 57.0885 22.8459 57 22.6465C56.9196 22.4472 56.7991 22.2938 56.6383 22.1865C56.4856 22.0715 56.3007 21.9986 56.0836 21.968C55.8666 21.9296 55.6214 21.9105 55.3481 21.9105H55.2757V20.6568H60.4607L60.7863 22.336H60.9069C61.1561 21.8913 61.4173 21.5386 61.6906 21.2779C61.972 21.0172 62.2694 20.8178 62.5829 20.6798C62.8965 20.5418 63.226 20.4536 63.5717 20.4153C63.9254 20.377 64.2952 20.3578 64.6811 20.3578C65.3161 20.3578 65.8869 20.446 66.3933 20.6223C66.8997 20.7987 67.3258 21.0709 67.6715 21.4389C68.0252 21.807 68.2945 22.2785 68.4794 22.8536C68.6642 23.421 68.7567 24.1034 68.7567 24.9008V30.3639C68.7567 30.732 68.7889 31.0272 68.8532 31.2495C68.9255 31.4642 69.03 31.6291 69.1667 31.7441C69.3033 31.8591 69.4762 31.9358 69.6852 31.9741C69.8942 32.0124 70.1394 32.0316 70.4207 32.0316H70.4931V33.2852H65.0066Z" fill="#182D2E"/>
<path fill-rule="evenodd" clip-rule="evenodd" d="M82.3563 31.8821C83.4496 30.7933 83.9962 29.1409 83.9962 26.925C83.9962 25.8209 83.8475 24.8586 83.5501 24.0382C83.2607 23.2101 82.8386 22.5239 82.284 21.9795C81.7373 21.4351 81.0701 21.0287 80.2823 20.7603C79.5026 20.492 78.6183 20.3578 77.6295 20.3578C75.5073 20.3578 73.8996 20.8984 72.8063 21.9795C71.7211 23.0606 71.1784 24.7091 71.1784 26.925C71.1784 28.0292 71.3231 28.9953 71.6125 29.8234C71.91 30.6514 72.332 31.3377 72.8786 31.8821C73.4333 32.4265 74.1045 32.8367 74.8923 33.1127C75.6801 33.3811 76.5684 33.5153 77.5572 33.5153C79.6714 33.5153 81.2711 32.9709 82.3563 31.8821ZM75.1456 29.1333C75.0571 28.4969 75.0129 27.7608 75.0129 26.925C75.0129 26.0816 75.0571 25.3455 75.1456 24.7168C75.234 24.0804 75.3787 23.5513 75.5797 23.1296C75.7806 22.7079 76.0459 22.3935 76.3755 22.1865C76.7051 21.9718 77.107 21.8645 77.5813 21.8645C78.0556 21.8645 78.4575 21.9718 78.7871 22.1865C79.1167 22.3935 79.382 22.7079 79.5829 23.1296C79.7919 23.5513 79.9407 24.0804 80.0291 24.7168C80.1256 25.3455 80.1738 26.0816 80.1738 26.925C80.1738 27.7608 80.1296 28.4969 80.0412 29.1333C79.9527 29.7697 79.804 30.3026 79.595 30.732C79.394 31.1613 79.1288 31.4872 78.7992 31.7096C78.4776 31.9243 78.0797 32.0316 77.6054 32.0316C77.1311 32.0316 76.7292 31.9243 76.3996 31.7096C76.07 31.4872 75.8007 31.1613 75.5917 30.732C75.3907 30.3026 75.242 29.7697 75.1456 29.1333Z" fill="#182D2E"/>
<path d="M96.7657 33.5153C96.1468 33.5153 95.5841 33.4616 95.0776 33.3543C94.5792 33.2546 94.1532 33.1012 93.7994 32.8942C93.4457 32.6795 93.1724 32.4188 92.9795 32.1121C92.7866 31.7977 92.6901 31.4335 92.6901 31.0195C92.6901 30.7051 92.7424 30.4444 92.8469 30.2374C92.9594 30.0227 93.092 29.854 93.2448 29.7313C93.4056 29.6087 93.5744 29.5243 93.7512 29.4783C93.9361 29.4246 94.1009 29.3978 94.2456 29.3978C94.2456 29.8119 94.2898 30.1991 94.3782 30.5594C94.4667 30.9198 94.6154 31.238 94.8244 31.514C95.0334 31.7824 95.3067 31.9971 95.6443 32.1581C95.99 32.3115 96.412 32.3881 96.9104 32.3881C97.3526 32.3881 97.7424 32.3383 98.0801 32.2386C98.4177 32.1313 98.6991 31.9856 98.9241 31.8016C99.1573 31.6099 99.3341 31.3837 99.4547 31.123C99.5753 30.8546 99.6356 30.5633 99.6356 30.2489C99.6356 29.9575 99.5873 29.7083 99.4909 29.5013C99.4025 29.2866 99.2417 29.0873 99.0086 28.9033C98.7835 28.7192 98.474 28.5314 98.0801 28.3397C97.6862 28.148 97.1918 27.9295 96.5969 27.6841C95.9619 27.4158 95.4072 27.1589 94.9329 26.9135C94.4667 26.6605 94.0808 26.3883 93.7753 26.0969C93.4699 25.8056 93.2408 25.4759 93.088 25.1078C92.9353 24.7321 92.8589 24.2874 92.8589 23.7737C92.8589 23.2369 92.9674 22.7616 93.1845 22.3475C93.4096 21.9335 93.7271 21.5884 94.1371 21.3124C94.5471 21.0287 95.0374 20.814 95.6082 20.6683C96.1789 20.5226 96.814 20.4498 97.5133 20.4498C98.1002 20.4498 98.6187 20.5073 99.0688 20.6223C99.519 20.7373 99.8968 20.8945 100.202 21.0939C100.508 21.2856 100.737 21.5156 100.89 21.784C101.042 22.0446 101.119 22.3207 101.119 22.612C101.119 23.0414 100.962 23.3865 100.648 23.6472C100.343 23.9002 99.9049 24.0267 99.3341 24.0267C99.3341 23.2369 99.1613 22.6235 98.8156 22.1865C98.478 21.7494 97.9434 21.5309 97.2119 21.5309C96.7939 21.5309 96.4362 21.5769 96.1387 21.6689C95.8413 21.7609 95.5961 21.8913 95.4032 22.06C95.2183 22.2287 95.0816 22.428 94.9932 22.6581C94.9048 22.8881 94.8606 23.1411 94.8606 23.4171C94.8606 23.7162 94.9168 23.9769 95.0294 24.1992C95.1419 24.4139 95.3188 24.6133 95.5599 24.7973C95.8091 24.9813 96.1267 25.1615 96.5125 25.3379C96.9064 25.5065 97.3767 25.6982 97.9233 25.9129C98.5745 26.1736 99.1331 26.4305 99.5994 26.6835C100.066 26.9365 100.447 27.2126 100.745 27.5116C101.05 27.8106 101.275 28.148 101.42 28.5237C101.565 28.8994 101.637 29.3326 101.637 29.8234C101.637 30.4368 101.521 30.9735 101.288 31.4335C101.054 31.8936 100.725 32.2808 100.299 32.5952C99.8727 32.9019 99.3582 33.1319 98.7553 33.2852C98.1605 33.4386 97.4973 33.5153 96.7657 33.5153Z" fill="#182D2E"/>
<path d="M109.072 33.2852V32.2961H108.999C108.726 32.2961 108.465 32.2808 108.216 32.2501C107.974 32.2118 107.761 32.1389 107.577 32.0316C107.392 31.9243 107.243 31.7671 107.13 31.5601C107.026 31.3454 106.974 31.0655 106.974 30.7205V25.7519C106.974 25.1768 107.034 24.6554 107.155 24.1877C107.275 23.7123 107.456 23.3098 107.697 22.9801C107.946 22.6427 108.256 22.3859 108.626 22.2095C109.003 22.0255 109.45 21.9335 109.964 21.9335C110.462 21.9335 110.884 22.0063 111.23 22.152C111.576 22.29 111.853 22.497 112.062 22.7731C112.279 23.0491 112.436 23.3865 112.532 23.7852C112.629 24.1839 112.677 24.6401 112.677 25.1538V33.2852H116.97V32.2961H116.897C116.624 32.2961 116.371 32.277 116.138 32.2386C115.905 32.2003 115.704 32.1236 115.535 32.0086C115.366 31.8859 115.233 31.7134 115.137 31.491C115.041 31.2687 114.992 30.9735 114.992 30.6054V25.0388C114.992 24.2337 114.896 23.5398 114.703 22.9571C114.51 22.3744 114.229 21.899 113.859 21.5309C113.489 21.1552 113.031 20.8792 112.484 20.7028C111.946 20.5188 111.327 20.4268 110.627 20.4268C108.947 20.4268 107.737 21.1399 106.998 22.566H106.877C106.893 22.3437 106.909 22.1175 106.925 21.8875C106.942 21.6881 106.954 21.4734 106.962 21.2434C106.97 21.0057 106.974 20.7795 106.974 20.5648V15.3892H102.428V16.3783H102.621C102.894 16.3783 103.151 16.3975 103.392 16.4359C103.642 16.4665 103.859 16.5394 104.044 16.6544C104.228 16.7694 104.373 16.9342 104.478 17.1489C104.59 17.356 104.646 17.632 104.646 17.977V30.6054C104.646 30.9735 104.59 31.2687 104.478 31.491C104.373 31.7134 104.228 31.8859 104.044 32.0086C103.867 32.1236 103.654 32.2003 103.404 32.2386C103.163 32.277 102.902 32.2961 102.621 32.2961H102.428V33.2852H109.072Z" fill="#182D2E"/>
<path fill-rule="evenodd" clip-rule="evenodd" d="M129.066 26.948C129.066 29.1639 128.571 30.8125 127.582 31.8936C126.602 32.9747 125.163 33.5153 123.266 33.5153C122.373 33.5153 121.573 33.3811 120.866 33.1127C120.159 32.8444 119.556 32.438 119.057 31.8936C118.567 31.3492 118.189 30.6668 117.924 29.8464C117.667 29.0183 117.538 28.0522 117.538 26.948C117.538 24.7475 118.024 23.1104 118.997 22.037C119.978 20.9635 121.425 20.4268 123.338 20.4268C124.23 20.4268 125.03 20.561 125.738 20.8293C126.445 21.09 127.044 21.4926 127.534 22.037C128.033 22.5737 128.41 23.2523 128.668 24.0727C128.933 24.8855 129.066 25.8439 129.066 26.948ZM119.926 26.948C119.926 27.8221 119.986 28.5927 120.106 29.2598C120.227 29.9269 120.42 30.4866 120.685 30.939C120.959 31.3837 121.308 31.7211 121.734 31.9511C122.168 32.1811 122.695 32.2961 123.314 32.2961C123.933 32.2961 124.455 32.1811 124.881 31.9511C125.307 31.7211 125.653 31.3837 125.918 30.939C126.184 30.4866 126.373 29.9269 126.485 29.2598C126.606 28.5927 126.666 27.8221 126.666 26.948C126.666 26.0739 126.606 25.3072 126.485 24.6478C126.365 23.9884 126.172 23.4401 125.906 23.0031C125.641 22.5584 125.291 22.2248 124.857 22.0025C124.431 21.7801 123.909 21.6689 123.29 21.6689C122.671 21.6689 122.148 21.7801 121.722 22.0025C121.296 22.2248 120.95 22.5584 120.685 23.0031C120.42 23.4401 120.227 23.9884 120.106 24.6478C119.986 25.3072 119.926 26.0739 119.926 26.948Z" fill="#182D2E"/>
<path fill-rule="evenodd" clip-rule="evenodd" d="M142.662 29.8924C142.887 29.0643 143 28.0828 143 26.948C143 25.8209 142.887 24.8471 142.662 24.0267C142.445 23.2063 142.124 22.5315 141.698 22.0025C141.272 21.4657 140.745 21.0709 140.118 20.8178C139.491 20.5571 138.772 20.4268 137.96 20.4268C137.477 20.4268 137.043 20.4843 136.657 20.5993C136.271 20.7067 135.926 20.8638 135.62 21.0709C135.315 21.2702 135.046 21.5156 134.812 21.807C134.579 22.0983 134.37 22.4242 134.185 22.7846H134.089L133.836 20.6568H129.519V21.6459H129.832C130.106 21.6459 130.363 21.6651 130.604 21.7034C130.853 21.7418 131.07 21.8185 131.255 21.9335C131.44 22.0485 131.585 22.2133 131.689 22.428C131.802 22.635 131.858 22.9111 131.858 23.2561V36.2526C131.858 36.6206 131.802 36.9158 131.689 37.1382C131.585 37.3682 131.44 37.5407 131.255 37.6557C131.078 37.7784 130.865 37.8589 130.616 37.8973C130.375 37.9356 130.114 37.9548 129.832 37.9548H129.64V38.9439H136.284V37.9548H136.211C135.938 37.9548 135.677 37.9356 135.427 37.8973C135.186 37.8666 134.973 37.7938 134.788 37.6787C134.603 37.5714 134.455 37.4104 134.342 37.1957C134.238 36.9887 134.185 36.7126 134.185 36.3676V34.1133C134.185 34.052 134.181 33.9638 134.173 33.8488C134.173 33.7415 134.169 33.6188 134.161 33.4808C134.161 33.3428 134.157 33.1971 134.149 33.0437C134.149 32.8827 134.145 32.7294 134.137 32.5837C134.121 32.231 134.105 31.8514 134.089 31.445H134.185C134.362 31.7517 134.567 32.0316 134.8 32.2846C135.042 32.5377 135.315 32.7562 135.62 32.9402C135.934 33.1242 136.284 33.2661 136.669 33.3658C137.055 33.4654 137.485 33.5153 137.96 33.5153C138.772 33.5153 139.491 33.3888 140.118 33.1357C140.745 32.875 141.272 32.4763 141.698 31.9396C142.124 31.4029 142.445 30.7205 142.662 29.8924ZM135.922 22.244C136.356 22.037 136.895 21.9335 137.538 21.9335C138.084 21.9335 138.55 22.037 138.936 22.244C139.33 22.451 139.648 22.7616 139.889 23.1756C140.138 23.5897 140.319 24.111 140.432 24.7398C140.544 25.3609 140.6 26.0893 140.6 26.925C140.6 27.7531 140.544 28.4854 140.432 29.1218C140.319 29.7505 140.138 30.2796 139.889 30.709C139.648 31.1383 139.334 31.4642 138.948 31.6866C138.571 31.9013 138.108 32.0086 137.562 32.0086C136.911 32.0086 136.368 31.9013 135.934 31.6866C135.508 31.4642 135.162 31.1383 134.897 30.709C134.64 30.2796 134.455 29.7505 134.342 29.1218C134.238 28.493 134.185 27.7685 134.185 26.948C134.185 26.0969 134.238 25.357 134.342 24.7283C134.455 24.0995 134.64 23.5782 134.897 23.1641C135.154 22.7501 135.496 22.4434 135.922 22.244Z" fill="#182D2E"/>
</g>
<path id="Rectangle 73" d="M7 18.8329C7 14.4966 10.6854 10.9813 15.2317 10.9813H21.8954C21.8954 15.3176 18.21 18.8329 13.6637 18.8329H7Z" fill="#91AE6D"/>
</g>
</g>
</svg>
