<svg width="300" height="454" viewBox="0 0 300 454" fill="none" xmlns="http://www.w3.org/2000/svg">
    <path d="M0 66C0 29.55 29.69 0 66.316 0H120c0 36.45-29.69 66-66.316 66H0z" fill="#CADDB4"/>
    <path d="M33.936 99.91c-.102-.864-.517-1.535-1.244-2.012-.727-.477-1.62-.716-2.676-.716-.773 0-1.449.125-2.028.375-.574.25-1.023.594-1.347 1.031a2.472 2.472 0 0 0-.477 1.492c0 .465.11.866.332 1.201.227.33.517.605.87.827.352.216.721.395 1.107.537.387.136.742.247 1.066.332l1.772.478c.455.119.96.284 1.517.494.563.21 1.1.497 1.611.861.517.358.944.818 1.279 1.38.335.563.502 1.253.502 2.071 0 .944-.247 1.796-.741 2.557-.489.762-1.204 1.367-2.148 1.816-.937.448-2.076.673-3.417.673-1.25 0-2.333-.202-3.248-.605-.909-.404-1.625-.966-2.147-1.688-.517-.721-.81-1.559-.878-2.514h2.182c.057.659.278 1.205.665 1.636a3.6 3.6 0 0 0 1.483.955c.602.204 1.25.307 1.943.307.806 0 1.531-.131 2.173-.392.642-.267 1.15-.637 1.526-1.108a2.627 2.627 0 0 0 .562-1.671c0-.579-.162-1.051-.486-1.415-.324-.363-.75-.659-1.278-.886-.529-.227-1.1-.426-1.713-.596l-2.148-.614c-1.364-.392-2.443-.952-3.239-1.679-.795-.727-1.193-1.679-1.193-2.855 0-.978.265-1.83.793-2.557.534-.733 1.25-1.301 2.148-1.704.903-.41 1.912-.614 3.025-.614 1.125 0 2.125.201 3 .605.875.398 1.568.943 2.08 1.636.517.694.79 1.48.818 2.361h-2.046zm5.487 17.999v-18h1.943v2.08h.239c.148-.228.352-.517.613-.87.267-.358.648-.676 1.142-.954.5-.284 1.177-.426 2.029-.426 1.102 0 2.074.275 2.915.826.84.551 1.497 1.333 1.968 2.344.472 1.011.708 2.205.708 3.58 0 1.386-.236 2.588-.708 3.605-.471 1.011-1.125 1.795-1.96 2.352-.835.551-1.798.827-2.89.827-.84 0-1.513-.139-2.019-.418-.506-.284-.895-.605-1.168-.963a13.143 13.143 0 0 1-.63-.903h-.17v6.92h-2.012zm1.977-11.454c0 .988.145 1.86.435 2.616.29.75.713 1.338 1.27 1.764.557.421 1.238.631 2.045.631.841 0 1.543-.222 2.105-.665.569-.449.995-1.051 1.279-1.807.29-.761.434-1.608.434-2.539 0-.921-.142-1.75-.426-2.489-.278-.744-.701-1.332-1.27-1.764-.562-.438-1.27-.657-2.122-.657-.818 0-1.505.208-2.062.623-.557.409-.978.983-1.262 1.721-.284.733-.426 1.588-.426 2.566zM54.048 113V99.91h1.943v1.976h.136c.24-.647.67-1.173 1.296-1.576a3.81 3.81 0 0 1 2.114-.606c.147 0 .332.003.554.01.221.005.389.013.502.025v2.045a5.891 5.891 0 0 0-.468-.077 4.7 4.7 0 0 0-.759-.059c-.636 0-1.204.133-1.704.4a3.026 3.026 0 0 0-1.177 1.091 2.94 2.94 0 0 0-.426 1.577V113h-2.011zm13.85.273c-1.182 0-2.22-.282-3.111-.844-.887-.563-1.58-1.349-2.08-2.361-.494-1.011-.741-2.193-.741-3.545 0-1.364.247-2.554.741-3.571.5-1.017 1.193-1.807 2.08-2.37.892-.562 1.929-.843 3.11-.843 1.182 0 2.216.281 3.103.843.892.563 1.585 1.353 2.08 2.37.5 1.017.75 2.207.75 3.571 0 1.352-.25 2.534-.75 3.545-.495 1.012-1.188 1.798-2.08 2.361-.887.562-1.92.844-3.103.844zm0-1.807c.897 0 1.636-.23 2.215-.69.58-.461 1.009-1.066 1.287-1.816.279-.75.418-1.562.418-2.437 0-.875-.14-1.691-.418-2.446-.278-.756-.707-1.367-1.287-1.833-.58-.466-1.318-.699-2.216-.699-.897 0-1.636.233-2.216.699-.58.466-1.008 1.077-1.287 1.833a7.018 7.018 0 0 0-.417 2.446c0 .875.14 1.687.417 2.437.279.75.708 1.355 1.287 1.816.58.46 1.319.69 2.216.69zm17.252-3.818v-7.739h2.01V113h-2.01v-2.216h-.137c-.307.665-.784 1.23-1.432 1.696-.647.46-1.466.69-2.454.69-.818 0-1.546-.179-2.182-.536-.636-.364-1.136-.91-1.5-1.637-.364-.733-.545-1.656-.545-2.77v-8.318h2.01v8.182c0 .954.268 1.716.802 2.284.54.568 1.227.852 2.063.852.5 0 1.008-.128 1.525-.383a3.33 3.33 0 0 0 1.313-1.176c.358-.529.537-1.202.537-2.02zm11.388-7.739v1.705h-6.784v-1.705h6.784zm-4.807-3.136h2.012v12.477c0 .568.082.994.247 1.278.17.279.386.466.647.563.267.091.549.136.844.136.222 0 .404-.011.546-.034l.34-.068.41 1.807a4.1 4.1 0 0 1-.571.153 4.195 4.195 0 0 1-.93.085 4.053 4.053 0 0 1-1.67-.366 3.314 3.314 0 0 1-1.346-1.116c-.353-.5-.529-1.131-.529-1.893V96.773z" fill="gray"/>
    <path d="M180 66c0-36.45 29.691-66 66.316-66H300c0 36.45-29.691 66-66.316 66H180z" fill="#92AE6D"/>
    <path d="M218.43 113V95.546h2.114v8.659h.204l7.841-8.66h2.761l-7.329 7.875 7.329 9.58h-2.556l-6.069-8.114-2.181 2.455V113h-2.114zm16.204 0V99.91h2.011V113h-2.011zm1.023-15.273c-.392 0-.731-.133-1.015-.4a1.288 1.288 0 0 1-.417-.963c0-.375.139-.696.417-.963.284-.267.623-.401 1.015-.401.392 0 .727.133 1.005.4.284.268.426.589.426.964s-.142.696-.426.963c-.278.267-.613.4-1.005.4zM243.295 113l-3.989-13.09h2.114l2.83 10.022h.136l2.795-10.023h2.148l2.762 9.989h.136l2.829-9.989h2.114L253.181 113h-1.977l-2.863-10.057h-.205L245.272 113h-1.977zm16.534 0V99.91h2.012V113h-2.012zm1.023-15.273a1.43 1.43 0 0 1-1.014-.4 1.285 1.285 0 0 1-.418-.963c0-.375.139-.696.418-.963a1.43 1.43 0 0 1 1.014-.401c.392 0 .727.133 1.006.4.284.268.426.589.426.964s-.142.696-.426.963c-.279.267-.614.4-1.006.4z" fill="gray"/>
    <path d="M0 233c0-36.451 29.69-66 66.316-66H120c0 36.451-29.69 66-66.316 66H0z" fill="#F4F3F0"/>
    <path d="M33.508 280v-17.455h5.898c1.37 0 2.489.248 3.358.742.875.489 1.523 1.151 1.943 1.986.42.835.63 1.767.63 2.795 0 1.029-.21 1.963-.63 2.804-.415.841-1.057 1.512-1.926 2.012-.87.494-1.983.741-3.341.741h-4.227v-1.875h4.159c.937 0 1.69-.162 2.258-.486.569-.324.98-.761 1.236-1.312.261-.557.392-1.185.392-1.884 0-.699-.13-1.324-.392-1.875-.256-.551-.67-.983-1.244-1.295-.574-.318-1.335-.478-2.284-.478h-3.716V280h-2.114zm20.31.273c-1.261 0-2.35-.279-3.264-.835-.91-.563-1.611-1.347-2.105-2.353-.49-1.011-.733-2.187-.733-3.528 0-1.341.244-2.523.733-3.546.494-1.028 1.181-1.829 2.062-2.403.886-.58 1.92-.869 3.102-.869.682 0 1.355.113 2.02.341.665.227 1.27.596 1.816 1.108.545.505.98 1.176 1.303 2.011.324.835.486 1.863.486 3.085v.852h-10.09v-1.738h8.045c0-.739-.148-1.398-.443-1.978a3.347 3.347 0 0 0-1.245-1.372c-.534-.335-1.164-.503-1.892-.503-.8 0-1.494.199-2.08.597a3.922 3.922 0 0 0-1.337 1.534 4.509 4.509 0 0 0-.47 2.029v1.159c0 .988.171 1.826.512 2.514.347.682.827 1.202 1.44 1.56.614.352 1.327.528 2.14.528.528 0 1.006-.074 1.432-.222.431-.153.804-.38 1.116-.682.313-.306.554-.687.725-1.142l1.943.546a4.31 4.31 0 0 1-1.032 1.739 5.04 5.04 0 0 1-1.79 1.159c-.71.272-1.508.409-2.394.409zm12.332.034c-.83 0-1.582-.156-2.258-.469a3.879 3.879 0 0 1-1.611-1.372c-.398-.602-.597-1.33-.597-2.182 0-.75.148-1.358.444-1.824.295-.471.69-.841 1.184-1.108a6.204 6.204 0 0 1 1.636-.596 19.525 19.525 0 0 1 1.816-.324c.795-.102 1.44-.179 1.934-.23.5-.057.864-.151 1.091-.282.233-.13.35-.358.35-.681v-.069c0-.84-.23-1.494-.69-1.96-.455-.466-1.145-.699-2.072-.699-.96 0-1.713.211-2.258.631-.546.42-.929.869-1.15 1.347l-1.91-.682c.341-.796.796-1.415 1.364-1.858a5.108 5.108 0 0 1 1.875-.938 7.82 7.82 0 0 1 2.011-.272c.42 0 .904.051 1.45.153a4.64 4.64 0 0 1 1.593.605c.517.307.946.77 1.287 1.389.34.62.511 1.449.511 2.489V280H70.14v-1.773h-.102c-.137.284-.364.588-.682.912-.318.324-.742.6-1.27.827-.528.227-1.173.341-1.935.341zm.307-1.807c.796 0 1.466-.156 2.011-.469.551-.312.966-.716 1.245-1.21a3.083 3.083 0 0 0 .426-1.56v-1.841c-.085.103-.273.196-.563.282a9.76 9.76 0 0 1-.988.213c-.37.057-.73.108-1.083.153-.346.04-.627.074-.843.102a7.699 7.699 0 0 0-1.466.333c-.45.148-.813.372-1.091.673-.273.296-.41.699-.41 1.21 0 .699.26 1.228.776 1.586.523.352 1.185.528 1.986.528zm9.364 1.5v-13.091h1.944v1.977h.136c.239-.647.67-1.173 1.295-1.576a3.808 3.808 0 0 1 2.114-.605c.148 0 .332.002.554.008.222.006.39.014.503.026v2.045a5.886 5.886 0 0 0-.469-.077 4.702 4.702 0 0 0-.758-.059c-.637 0-1.205.133-1.705.4a3.026 3.026 0 0 0-1.176 1.091 2.94 2.94 0 0 0-.426 1.577V280H75.82zm10.941-17.455V280h-2.01v-17.455h2.01z" fill="gray"/>
    <path d="M180 233c0-36.451 29.691-66 66.316-66H300c0 36.451-29.691 66-66.316 66H180z" fill="#FA7C21"/>
    <path d="M184.956 265.42v-1.875h13.091v1.875h-5.489V281h-2.113v-15.58h-5.489zm18.151 15.887c-.829 0-1.582-.156-2.258-.469a3.882 3.882 0 0 1-1.611-1.372c-.398-.602-.597-1.33-.597-2.182 0-.75.148-1.358.444-1.824a3.13 3.13 0 0 1 1.184-1.108 6.198 6.198 0 0 1 1.637-.596 19.495 19.495 0 0 1 1.815-.324c.795-.102 1.44-.179 1.935-.23.5-.057.863-.151 1.09-.282.233-.13.35-.358.35-.681v-.069c0-.84-.23-1.494-.69-1.96-.455-.466-1.145-.699-2.071-.699-.961 0-1.714.211-2.259.631-.545.42-.929.869-1.151 1.347l-1.909-.682c.341-.796.796-1.415 1.364-1.858a5.11 5.11 0 0 1 1.875-.938 7.818 7.818 0 0 1 2.011-.272c.421 0 .904.051 1.449.153a4.64 4.64 0 0 1 1.594.605c.517.307.946.77 1.287 1.389.341.62.511 1.449.511 2.489V281h-2.011v-1.773h-.102c-.137.284-.364.588-.682.912-.318.324-.742.6-1.27.827-.529.227-1.173.341-1.935.341zm.307-1.807c.796 0 1.466-.156 2.011-.469.552-.312.966-.716 1.245-1.21a3.084 3.084 0 0 0 .426-1.56v-1.841c-.085.103-.273.196-.563.282-.284.079-.613.15-.988.213-.37.057-.73.108-1.083.153-.346.04-.627.074-.843.102a7.688 7.688 0 0 0-1.466.333c-.449.148-.813.372-1.091.673-.273.296-.409.699-.409 1.21 0 .699.258 1.228.775 1.586.523.352 1.185.528 1.986.528zm11.376-6.375V281h-2.012v-13.091h1.944v2.046h.17a3.744 3.744 0 0 1 1.398-1.603c.625-.409 1.432-.613 2.42-.613.887 0 1.662.181 2.327.545.665.358 1.182.904 1.551 1.636.369.728.554 1.648.554 2.762V281h-2.011v-8.182c0-1.028-.267-1.829-.801-2.403-.535-.58-1.267-.87-2.199-.87-.642 0-1.216.14-1.722.418-.5.278-.895.685-1.185 1.219-.289.534-.434 1.182-.434 1.943zm17.312 13.057c-.972 0-1.807-.125-2.506-.375-.699-.245-1.281-.568-1.747-.972a5.302 5.302 0 0 1-1.1-1.278l1.603-1.125c.181.238.411.511.69.818.278.312.659.582 1.142.81.489.233 1.128.349 1.918.349 1.056 0 1.929-.256 2.616-.767.688-.511 1.031-1.312 1.031-2.403v-2.659h-.17c-.148.238-.358.534-.631.886-.267.346-.653.656-1.159.929-.5.267-1.176.4-2.028.4-1.057 0-2.006-.25-2.847-.75-.835-.5-1.497-1.227-1.986-2.181-.483-.955-.724-2.114-.724-3.478 0-1.341.236-2.508.707-3.502.472-1 1.128-1.773 1.969-2.319.841-.551 1.812-.826 2.915-.826.852 0 1.528.142 2.028.426.506.278.892.596 1.159.954.273.353.483.642.631.87h.204v-2.08h1.944v13.466c0 1.125-.256 2.04-.767 2.744-.506.711-1.188 1.23-2.046 1.56-.852.335-1.801.503-2.846.503zm-.069-7.193c.807 0 1.489-.185 2.046-.554.557-.37.98-.901 1.27-1.594.289-.693.434-1.523.434-2.489 0-.943-.142-1.775-.426-2.497-.284-.721-.704-1.287-1.261-1.696-.557-.409-1.244-.614-2.063-.614-.852 0-1.562.216-2.13.648-.563.432-.986 1.012-1.27 1.739-.279.727-.418 1.534-.418 2.42 0 .909.142 1.713.426 2.412.29.693.716 1.239 1.279 1.637.568.392 1.272.588 2.113.588zm14.898 2.284c-1.261 0-2.349-.279-3.264-.835-.909-.563-1.611-1.347-2.105-2.353-.489-1.011-.733-2.187-.733-3.528 0-1.341.244-2.523.733-3.546.494-1.028 1.182-1.829 2.062-2.403.887-.58 1.921-.869 3.103-.869.681 0 1.355.113 2.019.341.665.227 1.27.596 1.816 1.108.545.505.98 1.176 1.304 2.011.324.835.486 1.863.486 3.085v.852h-10.091v-1.738h8.045c0-.739-.148-1.398-.443-1.978a3.353 3.353 0 0 0-1.244-1.372c-.534-.335-1.165-.503-1.892-.503-.802 0-1.495.199-2.08.597a3.914 3.914 0 0 0-1.338 1.534 4.503 4.503 0 0 0-.469 2.029v1.159c0 .988.171 1.826.512 2.514.346.682.826 1.202 1.44 1.56.614.352 1.327.528 2.139.528.529 0 1.006-.074 1.432-.222a3.04 3.04 0 0 0 1.116-.682c.313-.306.554-.687.725-1.142l1.943.546a4.314 4.314 0 0 1-1.031 1.739c-.483.494-1.08.88-1.79 1.159-.71.272-1.509.409-2.395.409zm8.48-.273v-13.091h1.943v1.977h.137c.238-.647.67-1.173 1.295-1.576a3.81 3.81 0 0 1 2.114-.605c.148 0 .332.002.554.008.221.006.389.014.503.026v2.045a6.008 6.008 0 0 0-.469-.077 4.71 4.71 0 0 0-.759-.059c-.636 0-1.204.133-1.704.4a3.022 3.022 0 0 0-1.176 1.091 2.94 2.94 0 0 0-.426 1.577V281h-2.012zm8.93 0v-13.091h2.011V281h-2.011zm1.023-15.273c-.392 0-.73-.133-1.015-.4a1.288 1.288 0 0 1-.417-.963c0-.375.139-.696.417-.963a1.434 1.434 0 0 1 1.015-.401 1.4 1.4 0 0 1 1.005.401c.284.267.426.588.426.963s-.142.696-.426.963c-.278.267-.613.4-1.005.4zm6.684 7.398V281h-2.012v-13.091h1.943v2.046h.171a3.744 3.744 0 0 1 1.398-1.603c.625-.409 1.431-.613 2.42-.613.886 0 1.662.181 2.327.545.665.358 1.182.904 1.551 1.636.369.728.554 1.648.554 2.762V281h-2.012v-8.182c0-1.028-.267-1.829-.801-2.403-.534-.58-1.267-.87-2.199-.87-.642 0-1.215.14-1.721.418-.5.278-.895.685-1.185 1.219-.29.534-.434 1.182-.434 1.943zm17.516 8.148c-1.261 0-2.35-.279-3.264-.835-.909-.563-1.611-1.347-2.105-2.353-.489-1.011-.733-2.187-.733-3.528 0-1.341.244-2.523.733-3.546.494-1.028 1.181-1.829 2.062-2.403.886-.58 1.921-.869 3.102-.869.682 0 1.355.113 2.02.341.665.227 1.27.596 1.816 1.108.545.505.98 1.176 1.304 2.011.323.835.485 1.863.485 3.085v.852h-10.091v-1.738h8.046c0-.739-.148-1.398-.443-1.978a3.349 3.349 0 0 0-1.245-1.372c-.534-.335-1.164-.503-1.892-.503-.801 0-1.494.199-2.079.597a3.914 3.914 0 0 0-1.338 1.534 4.503 4.503 0 0 0-.469 2.029v1.159c0 .988.17 1.826.511 2.514.347.682.827 1.202 1.441 1.56.613.352 1.326.528 2.139.528.528 0 1.006-.074 1.432-.222a3.04 3.04 0 0 0 1.116-.682c.313-.306.554-.687.725-1.142l1.943.546a4.314 4.314 0 0 1-1.031 1.739c-.483.494-1.08.88-1.79 1.159-.71.272-1.509.409-2.395.409z" fill="gray"/>
    <path d="M0 403c0-36.451 29.69-66 66.316-66H120c0 36.451-29.69 66-66.316 66H0z" fill="#182D2E"/>
    <path d="M27.048 441.273c0 1.841-.332 3.432-.997 4.772-.665 1.341-1.577 2.375-2.736 3.103-1.16.727-2.483 1.091-3.972 1.091-1.488 0-2.812-.364-3.971-1.091-1.16-.728-2.071-1.762-2.736-3.103-.665-1.34-.997-2.931-.997-4.772 0-1.841.332-3.432.997-4.773.665-1.341 1.577-2.375 2.736-3.102 1.159-.728 2.483-1.091 3.971-1.091 1.489 0 2.813.363 3.972 1.091 1.16.727 2.071 1.761 2.736 3.102s.997 2.932.997 4.773zm-2.045 0c0-1.512-.253-2.787-.759-3.827-.5-1.04-1.179-1.827-2.037-2.361-.852-.534-1.807-.801-2.864-.801-1.056 0-2.014.267-2.872.801-.852.534-1.531 1.321-2.037 2.361-.5 1.04-.75 2.315-.75 3.827 0 1.511.25 2.787.75 3.826.506 1.04 1.185 1.827 2.037 2.361.858.534 1.816.801 2.872.801 1.057 0 2.012-.267 2.864-.801.858-.534 1.537-1.321 2.037-2.361.506-1.039.759-2.315.759-3.826zM30.602 450v-17.455h2.011v6.444h.17c.148-.228.353-.517.614-.87.267-.358.648-.676 1.142-.954.5-.284 1.177-.426 2.029-.426 1.102 0 2.074.275 2.915.826.84.551 1.497 1.333 1.968 2.344.472 1.011.708 2.205.708 3.58 0 1.386-.236 2.588-.708 3.605-.471 1.011-1.125 1.795-1.96 2.352-.835.551-1.798.827-2.89.827-.84 0-1.513-.139-2.019-.418-.506-.284-.895-.605-1.168-.963a13.186 13.186 0 0 1-.63-.903h-.239V450h-1.943zm1.977-6.545c0 .988.145 1.86.435 2.616.29.75.713 1.338 1.27 1.764.557.421 1.238.631 2.045.631.841 0 1.543-.222 2.105-.665.569-.449.995-1.051 1.279-1.807.29-.761.434-1.608.434-2.539 0-.921-.142-1.75-.426-2.489-.278-.744-.701-1.332-1.27-1.764-.562-.438-1.27-.657-2.122-.657-.818 0-1.505.208-2.062.623-.557.409-.978.983-1.262 1.721-.284.733-.426 1.588-.426 2.566zm21.93-3.614-1.808.511a3.372 3.372 0 0 0-.502-.878 2.441 2.441 0 0 0-.887-.715c-.375-.188-.855-.282-1.44-.282-.801 0-1.469.185-2.003.554-.528.364-.793.827-.793 1.389 0 .5.182.895.546 1.185.363.29.932.531 1.704.725l1.944.477c1.17.284 2.042.719 2.616 1.304.574.579.86 1.326.86 2.241 0 .75-.215 1.421-.647 2.012-.426.591-1.023 1.056-1.79 1.397-.767.341-1.659.512-2.676.512-1.335 0-2.44-.29-3.315-.87-.875-.579-1.43-1.426-1.662-2.539l1.909-.478c.182.705.526 1.233 1.031 1.586.512.352 1.18.528 2.003.528.938 0 1.682-.199 2.233-.597.557-.403.835-.886.835-1.448 0-.455-.159-.836-.477-1.143-.318-.312-.807-.545-1.466-.698l-2.182-.512c-1.199-.284-2.08-.724-2.642-1.321-.557-.602-.835-1.355-.835-2.258 0-.739.207-1.392.622-1.961.42-.568.992-1.014 1.713-1.338.727-.323 1.551-.485 2.472-.485 1.295 0 2.312.284 3.05.852.745.568 1.274 1.318 1.586 2.25zM57.774 450v-13.091h2.01V450h-2.01zm1.022-15.273a1.43 1.43 0 0 1-1.014-.4 1.287 1.287 0 0 1-.418-.963c0-.375.14-.696.418-.963a1.43 1.43 0 0 1 1.014-.401c.392 0 .728.134 1.006.401.284.267.426.588.426.963s-.142.696-.426.963a1.4 1.4 0 0 1-1.006.4zm9.616 15.546c-1.09 0-2.054-.276-2.89-.827-.834-.557-1.488-1.341-1.96-2.352-.471-1.017-.707-2.219-.707-3.605 0-1.375.236-2.569.708-3.58.471-1.011 1.127-1.793 1.968-2.344.841-.551 1.813-.826 2.915-.826.852 0 1.526.142 2.02.426.5.278.88.596 1.142.954.267.353.475.642.622.87h.17v-6.444h2.012V450H72.47v-2.011h-.239a13.15 13.15 0 0 1-.63.903c-.273.358-.662.679-1.168.963-.506.279-1.18.418-2.02.418zm.273-1.807c.806 0 1.488-.21 2.045-.631.557-.426.98-1.014 1.27-1.764.29-.756.435-1.628.435-2.616 0-.978-.142-1.833-.426-2.566-.285-.738-.705-1.312-1.262-1.721-.557-.415-1.244-.623-2.062-.623-.853 0-1.563.219-2.131.657-.563.432-.986 1.02-1.27 1.764-.278.739-.417 1.568-.417 2.489 0 .931.142 1.778.426 2.539.29.756.716 1.358 1.278 1.807.568.443 1.273.665 2.114.665zm9.69 1.534v-13.091h2.011V450h-2.01zm1.023-15.273a1.43 1.43 0 0 1-1.014-.4 1.287 1.287 0 0 1-.418-.963c0-.375.14-.696.418-.963a1.43 1.43 0 0 1 1.014-.401c.392 0 .727.134 1.005.401.285.267.427.588.427.963s-.142.696-.427.963a1.4 1.4 0 0 1-1.005.4zm8.525 15.58c-.83 0-1.583-.156-2.259-.469a3.88 3.88 0 0 1-1.61-1.372c-.398-.602-.597-1.33-.597-2.182 0-.75.148-1.358.443-1.824.295-.471.69-.841 1.185-1.108a6.203 6.203 0 0 1 1.636-.596 19.521 19.521 0 0 1 1.815-.324c.796-.102 1.44-.179 1.935-.23.5-.057.864-.151 1.09-.282.234-.13.35-.358.35-.681v-.069c0-.84-.23-1.494-.69-1.96-.455-.466-1.145-.699-2.071-.699-.96 0-1.713.211-2.259.631-.545.42-.929.869-1.15 1.347l-1.91-.682c.342-.796.796-1.415 1.364-1.858a5.107 5.107 0 0 1 1.875-.938 7.819 7.819 0 0 1 2.012-.272c.42 0 .903.051 1.449.153a4.642 4.642 0 0 1 1.593.605c.517.307.946.77 1.287 1.389.341.62.512 1.449.512 2.489V450h-2.012v-1.773h-.102c-.136.284-.364.588-.682.912-.318.324-.741.6-1.27.827-.528.227-1.173.341-1.934.341zm.306-1.807c.796 0 1.466-.156 2.012-.469.551-.312.966-.716 1.244-1.21a3.084 3.084 0 0 0 .426-1.56v-1.841c-.085.103-.272.196-.562.282-.284.079-.614.15-.989.213-.37.057-.73.108-1.082.153-.347.04-.628.074-.844.102a7.702 7.702 0 0 0-1.466.333c-.449.148-.812.372-1.09.673-.273.296-.41.699-.41 1.21 0 .699.259 1.228.776 1.586.522.352 1.184.528 1.986.528zm11.376-6.375V450h-2.011v-13.091h1.943v2.046h.17a3.74 3.74 0 0 1 1.398-1.603c.625-.409 1.432-.613 2.421-.613.886 0 1.662.181 2.326.545.665.358 1.182.904 1.551 1.636.37.728.554 1.648.554 2.762V450h-2.011v-8.182c0-1.028-.267-1.829-.801-2.403-.534-.58-1.267-.87-2.199-.87-.642 0-1.216.14-1.722.418-.5.278-.894.685-1.184 1.219-.29.534-.435 1.182-.435 1.943z" fill="gray"/>
</svg>
