<svg width="400" height="400" viewBox="0 0 400 400" fill="none" xmlns="http://www.w3.org/2000/svg">
<g clip-path="url(#clip0_2667_1705)">
<path d="M0 0V400H400V0H0ZM12.6831 12.6831H191.822L12.6831 246.14V12.6831ZM198.382 387.317H12.6831V271.157H198.382V387.317ZM198.382 258.474H19.2434L198.382 25.0164V258.474ZM387.317 387.317H211.065V271.157H387.317V387.317ZM387.317 258.474H211.065V12.6831H387.317V258.474ZM250.426 203.105C253.973 207.034 257.999 210.502 262.41 213.427C266.958 216.552 271.938 218.998 277.192 220.687C282.988 222.532 289.041 223.448 295.124 223.398C302.332 223.409 309.489 222.197 316.291 219.812C322.705 217.471 328.634 213.972 333.785 209.49C339.036 204.874 343.266 199.214 346.206 192.871C349.446 185.827 351.061 178.144 350.929 170.391C351.071 162.853 349.517 155.38 346.381 148.524C343.511 142.633 339.427 137.417 334.398 133.217C329.464 129.322 323.862 126.358 317.866 124.47C312.645 122.655 307.201 121.566 301.684 121.233L346.118 66.3022V60.7041H251.826V73.5622H323.639L279.904 127.881V133.217H293.112C304.751 132.508 316.26 135.983 325.563 143.013C329.324 146.367 332.289 150.519 334.241 155.164C336.193 159.81 337.083 164.833 336.847 169.867C336.912 175.496 335.871 181.082 333.785 186.311C331.801 191.06 328.818 195.326 325.038 198.819C321.285 202.401 316.854 205.197 312.005 207.041C306.694 209.042 301.061 210.05 295.386 210.015C290.425 210.07 285.488 209.302 280.778 207.741C276.58 206.328 272.604 204.326 268.97 201.793C265.502 199.305 262.384 196.363 259.698 193.046C257.065 190.006 254.639 186.791 252.438 183.424V182.725L242.029 190.247L242.467 190.947C244.807 195.196 247.468 199.261 250.426 203.105Z" fill="#202020"/>
</g>
<rect x="0.5" y="0.5" width="399" height="399" stroke="#E0E0E0"/>
<defs>
<clipPath id="clip0_2667_1705">
<rect width="400" height="400" fill="white"/>
</clipPath>
</defs>
</svg>
