<svg width="480" height="480" viewBox="0 0 480 480" fill="none" xmlns="http://www.w3.org/2000/svg">
<path fill-rule="evenodd" clip-rule="evenodd" d="M0 329.907H105.609V393.163C105.609 428.388 104.987 449.721 103.743 457.163C102.499 464.605 98.6431 470.434 92.1745 474.651C87.9369 477.355 81.6783 479.138 73.3987 480H0V329.907ZM0 194.262V0H133.715L0 194.262ZM0 224.662L105.609 71.3023V307.581H0V224.662ZM158.975 0V307.581H193.309C214.456 307.581 227.02 306.341 231.001 303.86C234.982 301.38 240.455 290.837 247.421 272.233H263.842L255.258 329.907H158.975V393.163C158.975 429.132 159.597 450.961 160.841 458.651C162.334 466.093 166.439 471.674 173.157 475.395C177.585 477.685 184.502 479.22 193.905 480H256.458C240.164 467.328 232.017 453.886 232.017 439.674C232.017 432.481 234.256 426.403 238.735 421.442C243.213 416.233 249.06 413.628 256.275 413.628C269.212 413.628 278.417 422.434 283.891 440.047C289.777 459.12 297.794 472.438 307.943 480H403.644C412.432 474.686 420.407 467.818 427.569 459.395C447.223 436.574 457.051 401.225 457.051 353.349C457.051 314.899 449.711 286.248 435.032 267.395C420.602 248.543 403.436 239.116 383.532 239.116C366.365 239.116 347.457 249.535 326.807 270.372C323.324 274.093 319.717 275.953 315.985 275.953C308.521 275.953 304.789 271.984 304.789 264.047C304.789 260.574 306.655 256.977 310.387 253.256C314.368 249.287 325.315 241.225 343.228 229.07C382.537 202.527 408.536 180.45 421.224 162.837C433.913 145.225 440.257 123.023 440.257 96.2326C440.257 70.6822 433.664 50.9612 420.478 37.0698C407.292 22.9302 389.752 15.8605 367.858 15.8605C345.467 15.8605 325.563 23.0543 308.148 37.4419C290.981 51.5814 282.398 69.6899 282.398 91.7674C282.398 109.38 289.986 125.876 305.162 141.256C306.904 142.992 307.775 144.481 307.775 145.721C307.775 148.946 303.67 152.419 295.459 156.14C287.249 159.86 281.278 161.721 277.546 161.721C269.834 161.721 262.619 155.891 255.901 144.233C249.184 132.574 245.825 119.922 245.825 106.279C245.825 78.7442 257.767 53.814 281.651 31.4884C299.699 14.6187 322.363 4.12262 349.643 0H158.975ZM408.174 5.526e-08C434.374 3.68034 455.145 12.44 470.485 26.2791C473.939 29.3174 477.11 32.4152 480 35.5726V0L408.174 5.526e-08ZM480 146.404C465.747 163.611 441.802 183.477 408.163 206L377.934 226.837C385.647 224.605 393.359 223.488 401.072 223.488C433.569 223.488 459.878 233.379 480 253.16V146.404ZM480 458.827C477.565 461.433 475.015 463.979 472.351 466.465C467.068 471.396 461.527 475.907 455.727 480H480V458.827Z" fill="url(#paint0_radial_2807_1445)"/>
<defs>
<radialGradient id="paint0_radial_2807_1445" cx="0" cy="0" r="1" gradientUnits="userSpaceOnUse" gradientTransform="rotate(45) scale(678.823)">
<stop stop-color="#7000FF"/>
<stop offset="1" stop-color="#00FFFF"/>
</radialGradient>
</defs>
</svg>
