<svg width="330" height="330" viewBox="0 0 330 330" fill="none" xmlns="http://www.w3.org/2000/svg">
<g clip-path="url(#clip0_2677_393)">
<path d="M0 0V330H330V0H0ZM10.4636 10.4636H158.253L10.4636 203.066V10.4636ZM163.665 319.536H10.4636V223.704H163.665V319.536ZM163.665 213.241H15.8758L163.665 20.6385V213.241ZM319.536 319.536H174.129V223.704H319.536V319.536ZM319.536 213.241H174.129V10.4636H319.536V213.241ZM206.602 167.562C209.527 170.803 212.849 173.664 216.488 176.077C220.24 178.656 224.349 180.673 228.684 182.066C233.465 183.589 238.459 184.344 243.477 184.304C249.424 184.313 255.329 183.312 260.94 181.345C266.232 179.413 271.123 176.527 275.373 172.83C279.704 169.021 283.194 164.352 285.62 159.119C288.293 153.307 289.625 146.969 289.517 140.573C289.634 134.354 288.351 128.189 285.764 122.532C283.397 117.673 280.027 113.369 275.878 109.904C271.807 106.69 267.186 104.245 262.239 102.688C257.932 101.19 253.44 100.292 248.889 100.017L285.548 54.6993V50.0809H207.756V60.6888H267.002L230.921 105.502V109.904H241.817C251.42 109.319 260.915 112.186 268.59 117.986C271.692 120.753 274.138 124.178 275.749 128.011C277.359 131.843 278.094 135.987 277.899 140.14C277.952 144.784 277.094 149.393 275.373 153.707C273.736 157.624 271.275 161.144 268.157 164.026C265.06 166.981 261.405 169.287 257.404 170.809C253.023 172.459 248.375 173.291 243.693 173.263C239.6 173.308 235.528 172.674 231.642 171.386C228.179 170.221 224.898 168.569 221.9 166.479C219.04 164.427 216.467 161.999 214.251 159.263C212.078 156.755 210.077 154.103 208.262 151.325V150.748L199.674 156.954L200.035 157.531C201.966 161.037 204.161 164.39 206.602 167.562Z" fill="white"/>
</g>
<defs>
<clipPath id="clip0_2677_393">
<rect width="330" height="330" fill="white"/>
</clipPath>
</defs>
</svg>
