<svg width="135" height="96" viewBox="0 0 135 96" fill="none" xmlns="http://www.w3.org/2000/svg">
<path d="M20.0427 62.9577L20 58.3032L30.6205 49.4175C33.862 46.7094 35.2696 44.5938 35.2696 42.3512C35.2696 39.6855 33.4355 37.9506 30.6205 37.9506C27.2936 37.9506 25.3742 40.5317 25.7154 44.4245L20.2133 44.0437C19.6161 37.7391 24.3079 33 30.6205 33C36.933 33 41.113 36.8082 41.113 42.3512C41.113 46.0748 38.9377 49.3752 34.0327 53.2257L28.1466 57.9647H41.0703V62.9577H20.0427Z" fill="url(#paint0_linear_1518_588)"/>
<path d="M56.5242 62.9577V56.78H41.4678V51.787L56.055 33.3385H62.3249V51.787H66.121V56.78H62.3249V62.9577H56.5242ZM47.4392 51.787H56.5242V40.1932L47.4392 51.787Z" fill="url(#paint1_linear_1518_588)"/>
<path d="M66.7974 63L80.1903 33.3385H85.8204L72.3849 63H66.7974Z" fill="url(#paint2_linear_1518_588)"/>
<path d="M89.7448 62.9577C90.7258 55.2567 95.6734 46.4133 102.029 38.2891H86.5032V33.3385H108V38.2891C101.346 47.2172 96.1853 56.0606 95.5881 62.9577H89.7448Z" fill="url(#paint3_linear_1518_588)"/>
<path d="M1 11V10H0V11H1ZM127 11H128V10H127V11ZM1 85H0V86H1V85ZM126.293 48.7071C126.683 49.0976 127.317 49.0976 127.707 48.7071L134.071 42.3431C134.462 41.9526 134.462 41.3195 134.071 40.9289C133.681 40.5384 133.047 40.5384 132.657 40.9289L127 46.5858L121.343 40.9289C120.953 40.5384 120.319 40.5384 119.929 40.9289C119.538 41.3195 119.538 41.9526 119.929 42.3431L126.293 48.7071ZM64 86C64.5523 86 65 85.5523 65 85C65 84.4477 64.5523 84 64 84V86ZM1 12H127V10H1V12ZM2 85V11H0V85H2ZM126 11V48H128V11H126ZM64 84H1V86H64V84Z" fill="url(#paint4_radial_1518_588)"/>
<defs>
<linearGradient id="paint0_linear_1518_588" x1="64.7387" y1="33" x2="64.7387" y2="64.6141" gradientUnits="userSpaceOnUse">
<stop stop-color="#EEEDED"/>
<stop offset="0.489583" stop-color="#ACACAC"/>
</linearGradient>
<linearGradient id="paint1_linear_1518_588" x1="64.7387" y1="33" x2="64.7387" y2="64.6141" gradientUnits="userSpaceOnUse">
<stop stop-color="#EEEDED"/>
<stop offset="0.489583" stop-color="#ACACAC"/>
</linearGradient>
<linearGradient id="paint2_linear_1518_588" x1="64.7387" y1="33" x2="64.7387" y2="64.6141" gradientUnits="userSpaceOnUse">
<stop stop-color="#EEEDED"/>
<stop offset="0.489583" stop-color="#ACACAC"/>
</linearGradient>
<linearGradient id="paint3_linear_1518_588" x1="64.7387" y1="33" x2="64.7387" y2="64.6141" gradientUnits="userSpaceOnUse">
<stop stop-color="#EEEDED"/>
<stop offset="0.489583" stop-color="#ACACAC"/>
</linearGradient>
<radialGradient id="paint4_radial_1518_588" cx="0" cy="0" r="1" gradientUnits="userSpaceOnUse" gradientTransform="translate(-12.6062 46.2791) rotate(7.31575) scale(304.082 76.8114)">
<stop stop-color="#7000FF"/>
<stop offset="1" stop-color="#00FFFF"/>
</radialGradient>
</defs>
</svg>
