<svg width="168" height="96" viewBox="0 0 168 96" fill="none" xmlns="http://www.w3.org/2000/svg">
<path d="M63.2675 51.6346L71.3787 57.5192C72.069 58.2115 72.1841 59.0192 71.7239 59.9423L64.303 72.2308C63.8428 73.1539 63.1525 73.4423 62.232 73.0962L52.9128 69.4615C50.0364 71.4231 47.9655 72.6346 46.6999 73.0962L45.3193 82.6154C45.0892 83.5385 44.4564 84 43.4209 84H28.7517C27.7162 84 27.0834 83.5385 26.8533 82.6154L25.4727 73.0962C23.7469 72.4038 21.6759 71.1923 19.2598 69.4615L9.94056 73.0962C9.02013 73.5577 8.32982 73.2692 7.86961 72.2308L0.448709 59.9423C-0.126559 58.9038 -0.0115058 58.0962 0.793867 57.5192L8.55993 51.6346C8.55993 51.2885 8.53116 50.7115 8.47364 49.9038C8.41611 49.0961 8.38735 48.4615 8.38735 48C8.38735 47.5385 8.41611 46.9039 8.47364 46.0962C8.53116 45.2885 8.55993 44.7115 8.55993 44.3654L0.621288 38.4808C-0.069034 37.7885 -0.184085 36.9808 0.27613 36.0577L7.69703 23.7692C8.15724 22.8461 8.84755 22.5577 9.76798 22.9038L19.0872 26.5385C21.9636 24.5769 24.0345 23.3654 25.3001 22.9038L26.6807 13.3846C26.9108 12.4615 27.5436 12 28.5791 12H43.2483C44.2838 12 44.9166 12.4615 45.1467 13.3846L46.3547 22.9038C48.0805 23.5962 50.1515 24.8077 52.5676 26.5385L61.7143 22.9038C62.6347 22.4423 63.3825 22.7308 63.9578 23.7692L71.3787 36.0577C71.954 37.0962 71.8389 37.9038 71.0336 38.4808L63.2675 44.3654C63.2675 44.7115 63.2963 45.2885 63.3538 46.0962C63.4113 46.9039 63.4401 47.5385 63.4401 48C63.4401 49.7308 63.3825 50.9423 63.2675 51.6346ZM26.6807 57C29.2119 59.4231 32.2608 60.6346 35.8274 60.6346C39.3941 60.6346 42.4429 59.4231 44.9741 57C47.5053 54.5769 48.7709 51.5769 48.7709 48C48.7709 44.4231 47.5053 41.4231 44.9741 39C42.4429 36.5769 39.3941 35.3654 35.8274 35.3654C32.2608 35.3654 29.2407 36.5769 26.767 39C24.2934 41.4231 23.0566 44.4231 23.0566 48C23.0566 51.5769 24.2646 54.5769 26.6807 57Z" fill="url(#paint0_linear_1518_581)"/>
<path d="M128.29 64.6422L127.892 65.1222L128.148 65.6909L132.229 74.7612C132.289 75.0269 132.262 75.2044 132.211 75.3326C132.154 75.4727 132.027 75.6511 131.739 75.8465L119.098 82.7569L119.063 82.7762L119.029 82.7982C118.72 83.0011 118.554 83.0057 118.492 82.9978C118.44 82.9911 118.308 82.9573 118.106 82.7146C118.105 82.7132 118.104 82.7118 118.102 82.7104L111.803 74.9129L111.474 74.5052L110.951 74.5441C107.442 74.8052 105.138 74.8065 103.937 74.5974L103.352 74.4956L102.983 74.9602L97.0112 82.4696C96.8207 82.6551 96.6735 82.7056 96.5646 82.7171C96.4386 82.7305 96.227 82.7054 95.8994 82.5178L83.0863 75.1836C82.7581 74.9957 82.6332 74.8279 82.5842 74.7182C82.5424 74.6247 82.5123 74.4781 82.5784 74.2242L86.1519 65.3427L86.3687 64.8039L86.0081 64.3486C84.9202 62.9751 83.7613 60.9713 82.5398 58.2999L82.315 57.808L81.7803 57.727L71.8073 56.2151L71.7617 56.2082L71.7156 56.2055C71.5441 56.1955 71.4431 56.1657 71.3902 56.1424C71.3446 56.1225 71.333 56.1073 71.3297 56.1029L71.3294 56.1026C71.3218 56.0927 71.232 55.9634 71.2791 55.5261L71.286 55.4628L71.2847 55.3991L71.0002 41.0673C71.0108 40.61 71.113 40.4018 71.181 40.3158C71.2302 40.2536 71.3298 40.1649 71.6205 40.1366L71.6337 40.1353L71.6469 40.1336L81.3979 38.9205L81.8894 38.8593L82.1386 38.4314C82.3328 38.0978 82.6123 37.5554 82.9697 36.8264L82.0719 36.3862L82.9698 36.8264C83.3229 36.1063 83.6057 35.5669 83.8208 35.1976L82.9566 34.6943L83.8208 35.1976C84.0359 34.8282 84.3656 34.3156 84.8182 33.6523C85.2762 32.9809 85.6102 32.4698 85.8044 32.1363L86.06 31.6975L85.8564 31.2322L81.9232 22.2433C81.8616 21.9751 81.888 21.7963 81.9402 21.6674C81.997 21.5273 82.1241 21.3489 82.4122 21.1535L95.0528 14.2432L95.0881 14.2238L95.1218 14.2018C95.431 13.9989 95.5965 13.9943 95.6587 14.0022C95.711 14.0089 95.8426 14.0427 96.0448 14.2854L102.348 22.0871L102.677 22.4948L103.2 22.4559C106.709 22.1948 109.013 22.1935 110.214 22.4026L110.798 22.5044L111.168 22.0398L117.14 14.5305C117.33 14.3449 117.477 14.2944 117.586 14.2829C117.712 14.2695 117.924 14.2946 118.251 14.4822L131.064 21.8164C131.393 22.0043 131.518 22.1721 131.567 22.2818C131.608 22.3744 131.638 22.5189 131.574 22.7681L127.855 31.5544L127.624 32.1004L127.992 32.5651C129.08 33.9386 130.239 35.9424 131.46 38.6139L131.687 39.1094L132.226 39.1877L142.048 40.6133L142.091 40.6195L142.134 40.622C142.458 40.6409 142.546 40.7329 142.575 40.7681C142.623 40.8271 142.724 41.0104 142.715 41.4769L142.715 41.4958L142.715 41.5146L143 55.8464C142.989 56.3037 142.887 56.5119 142.819 56.5979C142.77 56.6601 142.67 56.7488 142.38 56.7772L142.366 56.7785L142.353 56.7801L132.602 57.9932L132.111 58.0544L131.861 58.4824C131.667 58.8159 131.388 59.3583 131.03 60.0873C130.677 60.8074 130.394 61.3468 130.179 61.7162C129.306 63.2163 128.681 64.1709 128.29 64.6422ZM93.4309 51.8939L93.4339 51.9053L93.4372 51.9165C94.5009 55.5345 96.7228 58.3149 100.056 60.223C103.39 62.131 106.925 62.6467 110.611 61.7525C114.313 60.8545 117.156 58.7172 119.094 55.3884C121.033 52.0592 121.48 48.5451 120.412 44.9109C119.348 41.2929 117.126 38.5125 113.793 36.6045C110.459 34.6963 106.945 34.1931 103.303 35.1208C99.6522 36.0506 96.8403 38.203 94.9056 41.5254C92.9745 44.8414 92.4697 48.3168 93.4309 51.8939Z" stroke="url(#paint1_radial_1518_581)" stroke-width="2" stroke-linecap="round"/>
<defs>
<linearGradient id="paint0_linear_1518_581" x1="36.6044" y1="12" x2="36.6044" y2="87.8739" gradientUnits="userSpaceOnUse">
<stop stop-color="#EEEDED"/>
<stop offset="0.489583" stop-color="#ACACAC"/>
</linearGradient>
<radialGradient id="paint1_radial_1518_581" cx="0" cy="0" r="1" gradientUnits="userSpaceOnUse" gradientTransform="translate(66.504 46.8488) rotate(25.6128) scale(85.9409 67.001)">
<stop stop-color="#7000FF"/>
<stop offset="1" stop-color="#00FFFF"/>
</radialGradient>
</defs>
</svg>
