<svg width="96" height="96" viewBox="0 0 96 96" fill="none" xmlns="http://www.w3.org/2000/svg">
<mask id="path-1-inside-1_1518_640" fill="white">
<path fill-rule="evenodd" clip-rule="evenodd" d="M21.0938 0C21.646 0 22.0938 0.447715 22.0938 1L22.0938 9C22.0938 9.55229 21.646 10 21.0937 10C20.5415 10 20.0938 9.55229 20.0938 9V1C20.0938 0.447715 20.5415 0 21.0938 0ZM34.4893 0C35.0415 0 35.4893 0.447715 35.4893 1V9C35.4893 9.55229 35.0415 10 34.4893 10C33.937 10 33.4893 9.55229 33.4893 9V1C33.4893 0.447715 33.937 0 34.4893 0ZM48.8848 1C48.8848 0.447715 48.437 0 47.8848 0C47.3325 0 46.8848 0.447715 46.8848 1V9C46.8848 9.55229 47.3325 10 47.8848 10C48.437 10 48.8848 9.55229 48.8848 9V1ZM61.2803 0C61.8326 0 62.2803 0.447715 62.2803 1V9C62.2803 9.55229 61.8326 10 61.2803 10C60.728 10 60.2803 9.55229 60.2803 9V1C60.2803 0.447715 60.728 0 61.2803 0ZM75.6748 1C75.6748 0.447715 75.2271 0 74.6748 0C74.1225 0 73.6748 0.447715 73.6748 1V9C73.6748 9.55229 74.1225 10 74.6748 10C75.2271 10 75.6748 9.55229 75.6748 9V1Z"/>
</mask>
<path d="M22.0938 1L24.0938 1V1H22.0938ZM22.0938 9H20.0938H22.0938ZM24.0938 1C24.0938 -0.656854 22.7506 -2 21.0938 -2V2C20.5415 2 20.0938 1.55228 20.0938 1H24.0938ZM24.0938 9L24.0938 1L20.0938 1L20.0938 9H24.0938ZM21.0937 12C22.7506 12 24.0938 10.6569 24.0938 9H20.0938C20.0938 8.44771 20.5415 8 21.0937 8V12ZM18.0938 9C18.0938 10.6569 19.4369 12 21.0937 12V8C21.646 8 22.0938 8.44771 22.0938 9H18.0938ZM18.0938 1V9H22.0938V1H18.0938ZM21.0938 -2C19.4369 -2 18.0938 -0.656855 18.0938 1H22.0938C22.0938 1.55229 21.646 2 21.0938 2V-2ZM37.4893 1C37.4893 -0.656855 36.1461 -2 34.4893 -2V2C33.937 2 33.4893 1.55229 33.4893 1H37.4893ZM37.4893 9V1H33.4893V9H37.4893ZM34.4893 12C36.1461 12 37.4893 10.6569 37.4893 9H33.4893C33.4893 8.44771 33.937 8 34.4893 8V12ZM31.4893 9C31.4893 10.6569 32.8324 12 34.4893 12V8C35.0415 8 35.4893 8.44772 35.4893 9H31.4893ZM31.4893 1V9H35.4893V1H31.4893ZM34.4893 -2C32.8324 -2 31.4893 -0.656854 31.4893 1H35.4893C35.4893 1.55228 35.0415 2 34.4893 2V-2ZM47.8848 2C47.3325 2 46.8848 1.55229 46.8848 1H50.8848C50.8848 -0.656855 49.5416 -2 47.8848 -2V2ZM48.8848 1C48.8848 1.55229 48.437 2 47.8848 2V-2C46.2279 -2 44.8848 -0.656855 44.8848 1H48.8848ZM48.8848 9V1H44.8848V9H48.8848ZM47.8848 8C48.437 8 48.8848 8.44772 48.8848 9H44.8848C44.8848 10.6569 46.2279 12 47.8848 12V8ZM46.8848 9C46.8848 8.44771 47.3325 8 47.8848 8V12C49.5416 12 50.8848 10.6569 50.8848 9H46.8848ZM46.8848 1V9H50.8848V1H46.8848ZM64.2803 1C64.2803 -0.656855 62.9371 -2 61.2803 -2V2C60.728 2 60.2803 1.55229 60.2803 1H64.2803ZM64.2803 9V1H60.2803V9H64.2803ZM61.2803 12C62.9371 12 64.2803 10.6569 64.2803 9H60.2803C60.2803 8.44771 60.728 8 61.2803 8V12ZM58.2803 9C58.2803 10.6569 59.6234 12 61.2803 12V8C61.8326 8 62.2803 8.44771 62.2803 9H58.2803ZM58.2803 1V9H62.2803V1H58.2803ZM61.2803 -2C59.6234 -2 58.2803 -0.656855 58.2803 1H62.2803C62.2803 1.55229 61.8326 2 61.2803 2V-2ZM74.6748 2C74.1225 2 73.6748 1.55229 73.6748 1H77.6748C77.6748 -0.656855 76.3317 -2 74.6748 -2V2ZM75.6748 1C75.6748 1.55229 75.2271 2 74.6748 2V-2C73.018 -2 71.6748 -0.656855 71.6748 1H75.6748ZM75.6748 9V1H71.6748V9H75.6748ZM74.6748 8C75.2271 8 75.6748 8.44771 75.6748 9H71.6748C71.6748 10.6569 73.018 12 74.6748 12V8ZM73.6748 9C73.6748 8.44771 74.1225 8 74.6748 8V12C76.3317 12 77.6748 10.6569 77.6748 9H73.6748ZM73.6748 1V9H77.6748V1H73.6748Z" fill="url(#paint0_radial_1518_640)" mask="url(#path-1-inside-1_1518_640)"/>
<mask id="path-3-inside-2_1518_640" fill="white">
<path fill-rule="evenodd" clip-rule="evenodd" d="M21.0928 86C21.6451 86 22.0928 86.4477 22.0928 87L22.0928 94.9997C22.0928 95.552 21.6451 95.9997 21.0928 95.9997C20.5405 95.9997 20.0928 95.552 20.0928 94.9997V87C20.0928 86.4477 20.5405 86 21.0928 86ZM34.4883 86C35.0406 86 35.4883 86.4477 35.4883 87V94.9997C35.4883 95.552 35.0406 95.9997 34.4883 95.9997C33.936 95.9997 33.4883 95.552 33.4883 94.9997V87C33.4883 86.4477 33.936 86 34.4883 86ZM48.8838 87C48.8838 86.4477 48.4361 86 47.8838 86C47.3315 86 46.8838 86.4477 46.8838 87V94.9997C46.8838 95.552 47.3315 95.9997 47.8838 95.9997C48.4361 95.9997 48.8838 95.552 48.8838 94.9997V87ZM61.2793 86C61.8316 86 62.2793 86.4477 62.2793 87V94.9997C62.2793 95.552 61.8316 95.9997 61.2793 95.9997C60.727 95.9997 60.2793 95.552 60.2793 94.9997V87C60.2793 86.4477 60.727 86 61.2793 86ZM75.6738 87C75.6738 86.4477 75.2261 86 74.6738 86C74.1215 86 73.6738 86.4477 73.6738 87V94.9997C73.6738 95.552 74.1215 95.9997 74.6738 95.9997C75.2261 95.9997 75.6738 95.552 75.6738 94.9997V87Z"/>
</mask>
<path d="M22.0928 87L24.0928 87V87H22.0928ZM22.0928 94.9997H20.0928H22.0928ZM24.0928 87C24.0928 85.3431 22.7496 84 21.0928 84V88C20.5405 88 20.0928 87.5523 20.0928 87H24.0928ZM24.0928 94.9997L24.0928 87L20.0928 87L20.0928 94.9997H24.0928ZM21.0928 97.9997C22.7496 97.9997 24.0928 96.6566 24.0928 94.9997H20.0928C20.0928 94.4474 20.5405 93.9997 21.0928 93.9997V97.9997ZM18.0928 94.9997C18.0928 96.6566 19.4359 97.9997 21.0928 97.9997V93.9997C21.6451 93.9997 22.0928 94.4474 22.0928 94.9997H18.0928ZM18.0928 87V94.9997H22.0928V87H18.0928ZM21.0928 84C19.4359 84 18.0928 85.3431 18.0928 87H22.0928C22.0928 87.5523 21.6451 88 21.0928 88V84ZM37.4883 87C37.4883 85.3431 36.1451 84 34.4883 84V88C33.936 88 33.4883 87.5523 33.4883 87H37.4883ZM37.4883 94.9997V87H33.4883V94.9997H37.4883ZM34.4883 97.9997C36.1451 97.9997 37.4883 96.6566 37.4883 94.9997H33.4883C33.4883 94.4474 33.936 93.9997 34.4883 93.9997V97.9997ZM31.4883 94.9997C31.4883 96.6566 32.8314 97.9997 34.4883 97.9997V93.9997C35.0406 93.9997 35.4883 94.4474 35.4883 94.9997H31.4883ZM31.4883 87V94.9997H35.4883V87H31.4883ZM34.4883 84C32.8314 84 31.4883 85.3431 31.4883 87H35.4883C35.4883 87.5523 35.0406 88 34.4883 88V84ZM47.8838 88C47.3315 88 46.8838 87.5523 46.8838 87H50.8838C50.8838 85.3431 49.5406 84 47.8838 84V88ZM48.8838 87C48.8838 87.5523 48.4361 88 47.8838 88V84C46.2269 84 44.8838 85.3431 44.8838 87H48.8838ZM48.8838 94.9997V87H44.8838V94.9997H48.8838ZM47.8838 93.9997C48.4361 93.9997 48.8838 94.4474 48.8838 94.9997H44.8838C44.8838 96.6566 46.2269 97.9997 47.8838 97.9997V93.9997ZM46.8838 94.9997C46.8838 94.4474 47.3315 93.9997 47.8838 93.9997V97.9997C49.5406 97.9997 50.8838 96.6566 50.8838 94.9997H46.8838ZM46.8838 87V94.9997H50.8838V87H46.8838ZM64.2793 87C64.2793 85.3431 62.9361 84 61.2793 84V88C60.727 88 60.2793 87.5523 60.2793 87H64.2793ZM64.2793 94.9997V87H60.2793V94.9997H64.2793ZM61.2793 97.9997C62.9361 97.9997 64.2793 96.6566 64.2793 94.9997H60.2793C60.2793 94.4474 60.727 93.9997 61.2793 93.9997V97.9997ZM58.2793 94.9997C58.2793 96.6566 59.6224 97.9997 61.2793 97.9997V93.9997C61.8316 93.9997 62.2793 94.4474 62.2793 94.9997H58.2793ZM58.2793 87V94.9997H62.2793V87H58.2793ZM61.2793 84C59.6224 84 58.2793 85.3431 58.2793 87H62.2793C62.2793 87.5523 61.8316 88 61.2793 88V84ZM74.6738 88C74.1215 88 73.6738 87.5523 73.6738 87H77.6738C77.6738 85.3431 76.3307 84 74.6738 84V88ZM75.6738 87C75.6738 87.5523 75.2261 88 74.6738 88V84C73.017 84 71.6738 85.3431 71.6738 87H75.6738ZM75.6738 94.9997V87H71.6738V94.9997H75.6738ZM74.6738 93.9997C75.2261 93.9997 75.6738 94.4474 75.6738 94.9997H71.6738C71.6738 96.6566 73.017 97.9997 74.6738 97.9997V93.9997ZM73.6738 94.9997C73.6738 94.4474 74.1215 93.9997 74.6738 93.9997V97.9997C76.3307 97.9997 77.6738 96.6566 77.6738 94.9997H73.6738ZM73.6738 87V94.9997H77.6738V87H73.6738Z" fill="url(#paint1_radial_1518_640)" mask="url(#path-3-inside-2_1518_640)"/>
<mask id="path-5-inside-3_1518_640" fill="white">
<path fill-rule="evenodd" clip-rule="evenodd" d="M96 34.4883C96 35.0406 95.5523 35.4883 95 35.4883L87 35.4883C86.4477 35.4883 86 35.0406 86 34.4883C86 33.936 86.4477 33.4883 87 33.4883L95 33.4883C95.5523 33.4883 96 33.936 96 34.4883ZM96 21.0933C96 21.6455 95.5523 22.0933 95 22.0933L87 22.0933C86.4477 22.0933 86 21.6455 86 21.0933C86 20.541 86.4477 20.0933 87 20.0933L95 20.0933C95.5523 20.0933 96 20.541 96 21.0933ZM95 48.8838C95.5523 48.8838 96 48.4361 96 47.8838C96 47.3315 95.5523 46.8838 95 46.8838L87 46.8838C86.4477 46.8838 86 47.3315 86 47.8838C86 48.4361 86.4477 48.8838 87 48.8838L95 48.8838ZM96 61.2793C96 61.8316 95.5523 62.2793 95 62.2793L87 62.2793C86.4477 62.2793 86 61.8316 86 61.2793C86 60.727 86.4477 60.2793 87 60.2793L95 60.2793C95.5523 60.2793 96 60.727 96 61.2793ZM95 75.6743C95.5523 75.6743 96 75.2266 96 74.6743C96 74.122 95.5523 73.6743 95 73.6743L87 73.6743C86.4477 73.6743 86 74.122 86 74.6743C86 75.2266 86.4477 75.6743 87 75.6743L95 75.6743Z"/>
</mask>
<path d="M95 35.4883L95 37.4883L95 35.4883ZM87 35.4883L87 33.4883L87 35.4883ZM87 33.4883L87 31.4883L87 33.4883ZM95 33.4883L95 35.4883L95 33.4883ZM95 22.0933L95 24.0933L95 24.0933L95 22.0933ZM96 21.0933L98 21.0933L96 21.0933ZM87 22.0933L87 20.0933L87 22.0933ZM87 20.0933L87 18.0933L87 20.0933ZM95 20.0933L95 22.0933L95 20.0933ZM95 48.8838L95 50.8838L95 48.8838ZM95 46.8838L95 48.8838L95 46.8838ZM87 46.8838L87 44.8838L87 46.8838ZM87 48.8838L87 46.8838L87 48.8838ZM95 62.2793L95 64.2793L95 62.2793ZM87 62.2793L87 60.2793L87 62.2793ZM87 60.2793L87 58.2793L87 60.2793ZM95 60.2793L95 62.2793L95 60.2793ZM95 37.4883C96.6568 37.4883 98 36.1451 98 34.4883L94 34.4883C94 33.936 94.4477 33.4883 95 33.4883L95 37.4883ZM87 37.4883L95 37.4883L95 33.4883L87 33.4883L87 37.4883ZM84 34.4883C84 36.1451 85.3431 37.4883 87 37.4883L87 33.4883C87.5523 33.4883 88 33.936 88 34.4883L84 34.4883ZM87 31.4883C85.3431 31.4883 84 32.8314 84 34.4883L88 34.4883C88 35.0406 87.5523 35.4883 87 35.4883L87 31.4883ZM95 31.4883L87 31.4883L87 35.4883L95 35.4883L95 31.4883ZM98 34.4883C98 32.8314 96.6568 31.4883 95 31.4883L95 35.4883C94.4477 35.4883 94 35.0406 94 34.4883L98 34.4883ZM95 24.0933C96.6569 24.0933 98 22.7501 98 21.0933L94 21.0933C94 20.541 94.4477 20.0933 95 20.0933L95 24.0933ZM87 24.0933L95 24.0933L95 20.0933L87 20.0933L87 24.0933ZM84 21.0933C84 22.7501 85.3431 24.0933 87 24.0933L87 20.0933C87.5523 20.0933 88 20.541 88 21.0933L84 21.0933ZM87 18.0933C85.3431 18.0933 84 19.4364 84 21.0933L88 21.0933C88 21.6455 87.5523 22.0933 87 22.0933L87 18.0933ZM95 18.0933L87 18.0933L87 22.0933L95 22.0933L95 18.0933ZM98 21.0933C98 19.4364 96.6569 18.0933 95 18.0933L95 22.0933C94.4477 22.0933 94 21.6455 94 21.0933L98 21.0933ZM94 47.8838C94 47.3315 94.4477 46.8838 95 46.8838L95 50.8838C96.6568 50.8838 98 49.5406 98 47.8838L94 47.8838ZM95 48.8838C94.4477 48.8838 94 48.4361 94 47.8838L98 47.8838C98 46.2269 96.6569 44.8838 95 44.8838L95 48.8838ZM87 48.8838L95 48.8838L95 44.8838L87 44.8838L87 48.8838ZM88 47.8838C88 48.4361 87.5523 48.8838 87 48.8838L87 44.8838C85.3431 44.8838 84 46.2269 84 47.8838L88 47.8838ZM87 46.8838C87.5523 46.8838 88 47.3315 88 47.8838L84 47.8838C84 49.5406 85.3431 50.8838 87 50.8838L87 46.8838ZM95 46.8838L87 46.8838L87 50.8838L95 50.8838L95 46.8838ZM95 64.2793C96.6569 64.2793 98 62.9361 98 61.2793L94 61.2793C94 60.727 94.4477 60.2793 95 60.2793L95 64.2793ZM87 64.2793L95 64.2793L95 60.2793L87 60.2793L87 64.2793ZM84 61.2793C84 62.9361 85.3431 64.2793 87 64.2793L87 60.2793C87.5523 60.2793 88 60.727 88 61.2793L84 61.2793ZM87 58.2793C85.3431 58.2793 84 59.6224 84 61.2793L88 61.2793C88 61.8316 87.5523 62.2793 87 62.2793L87 58.2793ZM95 58.2793L87 58.2793L87 62.2793L95 62.2793L95 58.2793ZM98 61.2793C98 59.6224 96.6569 58.2793 95 58.2793L95 62.2793C94.4477 62.2793 94 61.8316 94 61.2793L98 61.2793ZM94 74.6743C94 74.122 94.4477 73.6743 95 73.6743L95 77.6743C96.6569 77.6743 98 76.3312 98 74.6743L94 74.6743ZM95 75.6743C94.4477 75.6743 94 75.2266 94 74.6743L98 74.6743C98 73.0175 96.6569 71.6743 95 71.6743L95 75.6743ZM87 75.6743L95 75.6743L95 71.6743L87 71.6743L87 75.6743ZM88 74.6743C88 75.2266 87.5523 75.6743 87 75.6743L87 71.6743C85.3431 71.6743 84 73.0175 84 74.6743L88 74.6743ZM87 73.6743C87.5523 73.6743 88 74.122 88 74.6743L84 74.6743C84 76.3312 85.3431 77.6743 87 77.6743L87 73.6743ZM95 73.6743L87 73.6743L87 77.6743L95 77.6743L95 73.6743Z" fill="url(#paint2_radial_1518_640)" mask="url(#path-5-inside-3_1518_640)"/>
<mask id="path-7-inside-4_1518_640" fill="white">
<path fill-rule="evenodd" clip-rule="evenodd" d="M10 34.4888C10 35.0411 9.55228 35.4888 9 35.4888L1.00029 35.4888C0.448006 35.4888 0.000291171 35.0411 0.000291195 34.4888C0.000291219 33.9365 0.448006 33.4888 1.00029 33.4888L9 33.4888C9.55228 33.4888 10 33.9365 10 34.4888ZM10 21.0933C10 21.6455 9.55228 22.0933 9 22.0933L1.00029 22.0933C0.448007 22.0933 0.000291756 21.6455 0.000291781 21.0933C0.000291805 20.541 0.448007 20.0933 1.00029 20.0933L9 20.0933C9.55228 20.0933 10 20.541 10 21.0933ZM9 48.8838C9.55228 48.8838 10 48.4361 10 47.8838C10 47.3315 9.55228 46.8838 9 46.8838L1.00029 46.8838C0.448006 46.8838 0.000291587 47.3315 0.000291563 47.8838C0.000291539 48.4361 0.448006 48.8838 1.00029 48.8838L9 48.8838ZM10 61.2793C10 61.8316 9.55228 62.2793 9 62.2793L1.00029 62.2793C0.448006 62.2793 0.000290954 61.8316 0.000290978 61.2793C0.000291002 60.727 0.448006 60.2793 1.00029 60.2793L9 60.2793C9.55228 60.2793 10 60.727 10 61.2793ZM9 75.6748C9.55228 75.6748 10 75.2271 10 74.6748C10 74.1225 9.55228 73.6748 9 73.6748L1.00029 73.6748C0.448006 73.6748 0.00029137 74.1225 0.000291346 74.6748C0.000291322 75.2271 0.448006 75.6748 1.00029 75.6748L9 75.6748Z"/>
</mask>
<path d="M9 22.0933L9 24.0933L9 24.0933L9 22.0933ZM10 21.0933L12 21.0933L10 21.0933ZM1.00029 22.0933L1.00029 20.0933L1.00029 22.0933ZM9 75.6748L9 73.6748L9 75.6748ZM9 73.6748L9 71.6748L9 73.6748ZM1.00029 73.6748L1.00029 75.6748L1.00029 73.6748ZM1.00029 75.6748L1.00029 77.6748L1.00029 75.6748ZM9 37.4888C10.6568 37.4888 12 36.1456 12 34.4888L8 34.4888C8 33.9365 8.44772 33.4888 9 33.4888L9 37.4888ZM1.00029 37.4888L9 37.4888L9 33.4888L1.00029 33.4888L1.00029 37.4888ZM-1.99971 34.4888C-1.99971 36.1456 -0.656566 37.4888 1.00029 37.4888L1.00029 33.4888C1.55258 33.4888 2.00029 33.9365 2.00029 34.4888L-1.99971 34.4888ZM1.00029 31.4888C-0.656562 31.4888 -1.99971 32.8319 -1.99971 34.4888L2.00029 34.4888C2.00029 35.0411 1.55257 35.4888 1.00029 35.4888L1.00029 31.4888ZM9 31.4888L1.00029 31.4888L1.00029 35.4888L9 35.4888L9 31.4888ZM12 34.4888C12 32.8319 10.6568 31.4888 9 31.4888L9 35.4888C8.44772 35.4888 8 35.0411 8 34.4888L12 34.4888ZM9 24.0933C10.6569 24.0933 12 22.7501 12 21.0933L8 21.0933C8 20.541 8.44771 20.0933 9 20.0933L9 24.0933ZM1.00029 24.0933L9 24.0933L9 20.0933L1.00029 20.0933L1.00029 24.0933ZM-1.99971 21.0933C-1.99971 22.7501 -0.656564 24.0933 1.00029 24.0933L1.00029 20.0933C1.55258 20.0933 2.00029 20.541 2.00029 21.0933L-1.99971 21.0933ZM1.00029 18.0933C-0.656564 18.0933 -1.99971 19.4364 -1.99971 21.0933L2.00029 21.0933C2.00029 21.6455 1.55258 22.0933 1.00029 22.0933L1.00029 18.0933ZM9 18.0933L1.00029 18.0933L1.00029 22.0933L9 22.0933L9 18.0933ZM12 21.0933C12 19.4364 10.6569 18.0933 9 18.0933L9 22.0933C8.44771 22.0933 8 21.6455 8 21.0933L12 21.0933ZM8 47.8838C8 47.3315 8.44772 46.8838 9 46.8838L9 50.8838C10.6568 50.8838 12 49.5406 12 47.8838L8 47.8838ZM9 48.8838C8.44771 48.8838 8 48.4361 8 47.8838L12 47.8838C12 46.2269 10.6569 44.8838 9 44.8838L9 48.8838ZM1.00029 48.8838L9 48.8838L9 44.8838L1.00029 44.8838L1.00029 48.8838ZM2.00029 47.8838C2.00029 48.4361 1.55257 48.8838 1.00029 48.8838L1.00029 44.8838C-0.656562 44.8838 -1.99971 46.2269 -1.99971 47.8838L2.00029 47.8838ZM1.00029 46.8838C1.55258 46.8838 2.00029 47.3315 2.00029 47.8838L-1.99971 47.8838C-1.99971 49.5406 -0.656564 50.8838 1.00029 50.8838L1.00029 46.8838ZM9 46.8838L1.00029 46.8838L1.00029 50.8838L9 50.8838L9 46.8838ZM9 64.2793C10.6569 64.2793 12 62.9361 12 61.2793L8 61.2793C8 60.727 8.44771 60.2793 9 60.2793L9 64.2793ZM1.00029 64.2793L9 64.2793L9 60.2793L1.00029 60.2793L1.00029 64.2793ZM-1.99971 61.2793C-1.99971 62.9361 -0.656565 64.2793 1.00029 64.2793L1.00029 60.2793C1.55258 60.2793 2.00029 60.727 2.00029 61.2793L-1.99971 61.2793ZM1.00029 58.2793C-0.656564 58.2793 -1.99971 59.6224 -1.99971 61.2793L2.00029 61.2793C2.00029 61.8316 1.55258 62.2793 1.00029 62.2793L1.00029 58.2793ZM9 58.2793L1.00029 58.2793L1.00029 62.2793L9 62.2793L9 58.2793ZM12 61.2793C12 59.6224 10.6569 58.2793 9 58.2793L9 62.2793C8.44771 62.2793 8 61.8316 8 61.2793L12 61.2793ZM8 74.6748C8 74.1225 8.44771 73.6748 9 73.6748L9 77.6748C10.6569 77.6748 12 76.3317 12 74.6748L8 74.6748ZM9 75.6748C8.44771 75.6748 8 75.2271 8 74.6748L12 74.6748C12 73.018 10.6569 71.6748 9 71.6748L9 75.6748ZM1.00029 75.6748L9 75.6748L9 71.6748L1.00029 71.6748L1.00029 75.6748ZM2.00029 74.6748C2.00029 75.2271 1.55258 75.6748 1.00029 75.6748L1.00029 71.6748C-0.656564 71.6748 -1.99971 73.018 -1.99971 74.6748L2.00029 74.6748ZM1.00029 73.6748C1.55258 73.6748 2.00029 74.1225 2.00029 74.6748L-1.99971 74.6748C-1.99971 76.3317 -0.656564 77.6748 1.00029 77.6748L1.00029 73.6748ZM9 73.6748L1.00029 73.6748L1.00029 77.6748L9 77.6748L9 73.6748Z" fill="url(#paint3_radial_1518_640)" mask="url(#path-7-inside-4_1518_640)"/>
<rect x="9.92969" y="9.93018" width="76.1395" height="76.1395" stroke="url(#paint4_radial_1518_640)" stroke-width="2" stroke-linecap="round"/>
<path d="M29 70V26H38.8125L55.8125 54.2857V26H65V70H55.1875L38.1875 41.7143V70H29Z" fill="url(#paint5_linear_1518_640)"/>
<defs>
<radialGradient id="paint0_radial_1518_640" cx="0" cy="0" r="1" gradientUnits="userSpaceOnUse" gradientTransform="translate(17.4679 4.76744) rotate(5.13684) scale(58.4416 10.4231)">
<stop stop-color="#7000FF"/>
<stop offset="1" stop-color="#00FFFF"/>
</radialGradient>
<radialGradient id="paint1_radial_1518_640" cx="0" cy="0" r="1" gradientUnits="userSpaceOnUse" gradientTransform="translate(17.4669 90.7673) rotate(5.13669) scale(58.4416 10.4228)">
<stop stop-color="#7000FF"/>
<stop offset="1" stop-color="#00FFFF"/>
</radialGradient>
<radialGradient id="paint2_radial_1518_640" cx="0" cy="0" r="1" gradientUnits="userSpaceOnUse" gradientTransform="translate(91.2326 17.4674) rotate(95.1368) scale(58.4416 10.4231)">
<stop stop-color="#7000FF"/>
<stop offset="1" stop-color="#00FFFF"/>
</radialGradient>
<radialGradient id="paint3_radial_1518_640" cx="0" cy="0" r="1" gradientUnits="userSpaceOnUse" gradientTransform="translate(5.2327 17.4674) rotate(95.1366) scale(58.4421 10.4228)">
<stop stop-color="#7000FF"/>
<stop offset="1" stop-color="#00FFFF"/>
</radialGradient>
<radialGradient id="paint4_radial_1518_640" cx="0" cy="0" r="1" gradientUnits="userSpaceOnUse" gradientTransform="translate(5.23808 46.1827) rotate(26.549) scale(91.4772 73.151)">
<stop stop-color="#7000FF"/>
<stop offset="1" stop-color="#00FFFF"/>
</radialGradient>
<linearGradient id="paint5_linear_1518_640" x1="47.3022" y1="26" x2="47.3022" y2="72.3674" gradientUnits="userSpaceOnUse">
<stop stop-color="#EEEDED"/>
<stop offset="0.489583" stop-color="#ACACAC"/>
</linearGradient>
</defs>
</svg>
