<svg width="176" height="96" viewBox="0 0 176 96" fill="none" xmlns="http://www.w3.org/2000/svg">
<path d="M5 17L41.3543 79L80.8504 17L119 79" stroke="url(#paint0_radial_1518_481)" stroke-width="2" stroke-linecap="round"/>
<path d="M161.462 24.6381L155.83 30.3716L168.628 43.1695L174.362 37.5384C175.454 36.3098 176 34.9447 176 33.4431C176 31.9415 175.454 30.5764 174.362 29.3478L169.652 24.6381C168.424 23.546 167.059 23 165.557 23C164.055 23 162.69 23.546 161.462 24.6381ZM153.271 32.5217L152.349 32.7264L137.606 37.2313C135.49 37.9139 134.023 39.3131 133.204 41.429L124.194 68.4582C123.784 69.6868 124.023 70.7789 124.911 71.7345L140.678 56.0698C140.336 55.3873 140.166 54.6706 140.166 53.9198C140.234 52.5547 140.712 51.3943 141.599 50.4388C142.555 49.5514 143.715 49.0736 145.08 49.0054C146.445 49.0736 147.606 49.5514 148.561 50.4388C149.449 51.3943 149.926 52.5547 149.995 53.9198C149.926 55.2849 149.449 56.4452 148.561 57.4008C147.606 58.2882 146.445 58.7659 145.08 58.8342C144.329 58.8342 143.613 58.6636 142.93 58.3223L127.265 74.0893C128.221 74.9767 129.313 75.2155 130.542 74.806L157.571 65.7963C159.687 64.9772 161.086 63.5097 161.769 61.3938L166.274 46.6506L166.478 45.7291L153.271 32.5217Z" fill="url(#paint1_linear_1518_481)"/>
<circle cx="5" cy="16" r="5" fill="#D9D9D9"/>
<circle cx="41" cy="80" r="5" fill="#D9D9D9"/>
<circle cx="81" cy="16" r="5" fill="#D9D9D9"/>
<circle cx="119" cy="80" r="5" fill="#D9D9D9"/>
<defs>
<radialGradient id="paint0_radial_1518_481" cx="0" cy="0" r="1" gradientUnits="userSpaceOnUse" gradientTransform="translate(-0.385799 46.5581) rotate(15.2024) scale(123.715 62.6131)">
<stop stop-color="#7000FF"/>
<stop offset="1" stop-color="#00FFFF"/>
</radialGradient>
<linearGradient id="paint1_linear_1518_481" x1="150.437" y1="23" x2="150.437" y2="77.7978" gradientUnits="userSpaceOnUse">
<stop stop-color="#EEEDED"/>
<stop offset="0.489583" stop-color="#ACACAC"/>
</linearGradient>
</defs>
</svg>
