<svg width="51" height="44" viewBox="0 0 51 44" fill="none" xmlns="http://www.w3.org/2000/svg">
<path id="Vector" d="M18.3542 36.5359L22.9583 36.5359L22.9583 35.5479L16.3125 35.5479C15.3349 35.5479 14.4857 35.2095 13.7944 34.5364C13.1026 33.8628 12.75 33.0296 12.75 32.0659C12.75 31.1021 13.1026 30.269 13.7944 29.5954C14.4857 28.9223 15.3349 28.5838 16.3125 28.5838L20.9167 28.5838L20.9167 27.5958L14.2708 27.5958C13.2933 27.5958 12.444 27.2574 11.7527 26.5843C11.061 25.9107 10.7083 25.0775 10.7083 24.1138C10.7083 23.15 11.061 22.3169 11.7527 21.6433C12.444 20.9701 13.2932 20.6317 14.2708 20.6317L22.9583 20.6317L22.9583 19.6437L4.0625 19.6437C3.08492 19.6437 2.23568 19.3053 1.54441 18.6322C0.852635 17.9586 0.500001 17.1254 0.500001 16.1617C0.500001 15.1979 0.852634 14.3648 1.54441 13.6912C2.23568 13.018 3.08492 12.6796 4.0625 12.6796L23.8537 12.6796C21.9434 10.8484 20.192 8.9232 18.5996 6.90389C17.6665 5.72068 17.0645 4.64452 16.8602 3.6853C16.649 2.6931 16.8656 1.81667 17.5587 1.14174L17.5654 1.13529L17.5722 1.12909C18.3471 0.428435 19.3854 0.350784 20.5446 0.711974L20.5446 0.711847L20.5555 0.715528C21.7126 1.10552 23.1738 1.8417 24.9296 2.90499C26.6798 3.96495 28.79 5.30368 31.2592 6.92041C33.7605 8.53031 36.6665 10.3066 39.9778 12.2496C43.0859 14.0154 45.6145 16.115 47.5522 18.553C49.5308 21.0425 50.5 24.2355 50.5 28.0898C50.5 30.1878 50.0818 32.1828 49.2448 34.0702C48.4117 35.9489 47.2803 37.5863 45.8508 38.9784C44.4217 40.3698 42.7421 41.4699 40.8168 42.2797C38.9217 43.0948 36.8768 43.5 34.6875 43.5L18.3542 43.5C17.3766 43.5 16.5273 43.1616 15.8361 42.4885C15.1443 41.8149 14.7917 40.9817 14.7917 40.018C14.7917 39.0542 15.1443 38.2211 15.8361 37.5475C16.5273 36.8744 17.3766 36.5359 18.3542 36.5359Z" fill="white" stroke="#B5B5B5"/>
</svg>
