<svg width="180" height="37" viewBox="0 0 180 37" fill="none" xmlns="http://www.w3.org/2000/svg">
<g clip-path="url(#clip0_1518_505)">
<path d="M119.658 0.015625H151.011V5.94824H138.574V37.1589H132.355V5.94824H119.658V0.015625Z" fill="black"/>
<path d="M68.0949 0.015625V5.94824H42.9635V15.492H63.1742V21.4246H42.9635V31.2263H68.0949V37.1589H36.7448V5.94824H36.7422V0.015625H68.0949Z" fill="black"/>
<path d="M83.7507 0.03125H75.6123L104.762 37.1745H112.924L98.3476 18.6157L112.901 0.059588L104.762 0.0724818L94.2729 13.4279L83.7507 0.03125Z" fill="black"/>
<path d="M92.1018 26.5631L88.0262 21.3682L75.5889 37.2031H83.7505L92.1018 26.5631Z" fill="black"/>
<path fill-rule="evenodd" clip-rule="evenodd" d="M36.9626 37.1588L7.7734 0H0V37.1433H6.21873V7.93936L29.1503 37.1588H36.9626Z" fill="black"/>
<path d="M152.41 36.9318C151.954 36.9318 151.567 36.77 151.242 36.4465C150.918 36.1231 150.758 35.7314 150.762 35.2675C150.758 34.8162 150.918 34.4289 151.242 34.1054C151.567 33.7819 151.954 33.6201 152.41 33.6201C152.848 33.6201 153.231 33.7819 153.555 34.1054C153.884 34.4289 154.048 34.8162 154.053 35.2675C154.048 35.5739 153.973 35.8548 153.821 36.106C153.665 36.3614 153.467 36.5615 153.218 36.7062C152.974 36.8552 152.704 36.9318 152.41 36.9318Z" fill="black"/>
<path d="M163.023 21.2842H165.779V32.1684C165.775 33.1687 165.564 34.0243 165.151 34.7437C164.734 35.463 164.157 36.0121 163.415 36.3995C162.678 36.7825 161.814 36.9784 160.832 36.9784C159.934 36.9784 159.13 36.8124 158.413 36.4889C157.697 36.1654 157.128 35.6801 156.711 35.0416C156.29 34.4031 156.083 33.6071 156.083 32.6537H158.843C158.847 33.0708 158.94 33.4326 159.117 33.7348C159.294 34.037 159.538 34.2669 159.85 34.4286C160.166 34.5904 160.529 34.6713 160.937 34.6713C161.38 34.6713 161.759 34.5776 162.066 34.3861C162.374 34.1988 162.61 33.9179 162.775 33.5433C162.934 33.173 163.019 32.7132 163.023 32.1684V21.2842Z" fill="black"/>
<path d="M177.117 25.5414C177.05 24.8816 176.755 24.3665 176.241 24.0005C175.723 23.6302 175.053 23.4471 174.231 23.4471C173.654 23.4471 173.157 23.5365 172.744 23.711C172.331 23.8898 172.011 24.1282 171.791 24.4304C171.572 24.7326 171.463 25.0774 171.454 25.4648C171.454 25.7883 171.53 26.0692 171.678 26.3033C171.825 26.5417 172.023 26.7418 172.28 26.9035C172.533 27.0695 172.815 27.2057 173.123 27.3164C173.435 27.4271 173.747 27.5207 174.058 27.5974L175.495 27.9592C176.072 28.0954 176.633 28.2784 177.168 28.5125C177.703 28.7424 178.188 29.0361 178.613 29.3894C179.039 29.7427 179.376 30.1683 179.624 30.6664C179.873 31.1644 180 31.7475 180 32.4201C180 33.3267 179.772 34.1227 179.312 34.8123C178.853 35.4976 178.192 36.034 177.324 36.4213C176.46 36.8044 175.415 37.0002 174.185 37.0002C172.996 37.0002 171.96 36.813 171.088 36.4384C170.211 36.0681 169.529 35.5232 169.036 34.808C168.543 34.093 168.277 33.2203 168.239 32.1945H170.97C171.008 32.7308 171.176 33.1778 171.463 33.5396C171.753 33.8971 172.133 34.1611 172.596 34.3398C173.064 34.5143 173.586 34.6037 174.164 34.6037C174.766 34.6037 175.297 34.5101 175.756 34.327C176.211 34.144 176.57 33.8887 176.827 33.5566C177.088 33.2288 177.219 32.8415 177.223 32.3988C177.219 31.9944 177.1 31.6581 176.873 31.3942C176.641 31.1303 176.321 30.909 175.912 30.7302C175.5 30.5515 175.019 30.3897 174.471 30.2492L172.727 29.798C171.467 29.4703 170.468 28.9723 169.739 28.304C169.006 27.6357 168.644 26.7503 168.644 25.6393C168.644 24.7284 168.888 23.9282 169.381 23.2428C169.87 22.5575 170.54 22.0254 171.387 21.6466C172.238 21.2635 173.199 21.0762 174.269 21.0762C175.356 21.0762 176.308 21.2635 177.13 21.6466C177.951 22.0254 178.597 22.5533 179.064 23.2258C179.532 23.8983 179.776 24.6688 179.789 25.5414H177.117Z" fill="black"/>
</g>
<defs>
<clipPath id="clip0_1518_505">
<rect width="180" height="37" fill="white"/>
</clipPath>
</defs>
</svg>
