<svg width="184" height="187" viewBox="0 0 184 187" fill="none" xmlns="http://www.w3.org/2000/svg">
    <path d="M14.204 43.914a183.393 183.393 0 0 1 77.512-17.908 183.391 183.391 0 0 1 78.105 16.743L93.205 180.906l-79-136.992z" stroke="#fff" stroke-width="6" stroke-linejoin="round"/>
    <path d="M4.108 26.172A183.512 183.512 0 0 1 91.822 3.006a183.51 183.51 0 0 1 88.09 21.69l-86.6 156.209L4.108 26.172z" stroke="#fff" stroke-width="6" stroke-linejoin="round"/>
    <circle cx="75" cy="62" r="20" transform="rotate(-180 75 62)" stroke="#fff" stroke-width="6" stroke-linejoin="round"/>
    <path d="M55 118.722a24.032 24.032 0 0 1 16.79-.401 24.08 24.08 0 0 1 12.965 10.697 24.147 24.147 0 0 1 2.823 16.586A24.119 24.119 0 0 1 78.886 160M125.628 126a28.227 28.227 0 0 1-15.199-16.88 28.263 28.263 0 0 1 9.747-31.387 28.21 28.21 0 0 1 22.081-5.28A28.207 28.207 0 0 1 153 76.83" stroke="#fff" stroke-width="6" stroke-linejoin="round"/>
</svg>
