<svg width="54" height="66" viewBox="0 0 54 66" fill="none" xmlns="http://www.w3.org/2000/svg">
<path id="Pointer" d="M53.4743 37.411L53.4495 37.4603L53.436 37.5137C53.3008 38.0513 53.0318 38.5216 52.6197 38.9311C52.2156 39.3327 51.7556 39.5697 51.2302 39.6567L51.2222 39.658L51.2144 39.6596L30.658 43.7453L29.9502 43.886L30.3306 44.4993L41.3732 62.3032L36.5283 65.3124L25.3286 47.4275L24.9603 46.8394L24.519 47.3748L12.3433 62.1463L12.3365 62.1545L12.33 62.1631C12.0598 62.5212 11.7405 62.7814 11.3709 62.9542C10.9935 63.1307 10.5789 63.2214 10.1201 63.2214C9.40327 63.2214 8.78492 62.9812 8.24301 62.4875C7.69773 61.9908 7.38639 61.3927 7.29574 60.6752C7.29566 60.6745 7.29558 60.6739 7.29551 60.6733L0.575619 3.71285L0.55519 3.53968L0.5 3.48484V3.48453V3.48413V3.48374V3.48334V3.48295V3.48255V3.48215V3.48176V3.48136V3.48097V3.48058V3.48018V3.47979V3.47939V3.479V3.47861V3.47822V3.47782V3.47743V3.47704V3.47665V3.47626V3.47587V3.47548V3.47509V3.4747V3.47431V3.47392V3.47353V3.47314V3.47275V3.47236V3.47198V3.47159V3.4712V3.47082V3.47043V3.47004V3.46966V3.46927V3.46889V3.4685V3.46812V3.46773V3.46735V3.46696V3.46658V3.4662V3.46581V3.46543V3.46505V3.46467V3.46429V3.4639V3.46352V3.46314V3.46276V3.46238V3.462V3.46162V3.46124V3.46086V3.46049V3.46011V3.45973V3.45935V3.45897V3.4586V3.45822V3.45784V3.45747V3.45709V3.45671V3.45634V3.45596V3.45559V3.45521V3.45484V3.45447V3.45409V3.45372V3.45335V3.45297V3.4526V3.45223V3.45186V3.45149V3.45112V3.45074V3.45037V3.45V3.44963V3.44926V3.44889V3.44852V3.44816V3.44779V3.44742V3.44705V3.44668V3.44632V3.44595V3.44558V3.44522V3.44485V3.44448V3.44412V3.44375V3.44339V3.44302V3.44266V3.4423V3.44193V3.44157V3.44121V3.44084V3.44048V3.44012V3.43976V3.43939V3.43903V3.43867V3.43831V3.43795V3.43759V3.43723V3.43687V3.43651V3.43615V3.43579V3.43544V3.43508V3.43472V3.43436V3.43401V3.43365V3.43329V3.43294V3.43258V3.43223V3.43187V3.43151V3.43116V3.43081V3.43045V3.4301V3.42974V3.42939V3.42904V3.42869V3.42833V3.42798V3.42763V3.42728V3.42693V3.42658V3.42623V3.42588V3.42553V3.42518V3.42483V3.42448V3.42413V3.42378V3.42343V3.42308V3.42274V3.42239V3.42204V3.4217V3.42135V3.421V3.42066V3.42031V3.41997V3.41962V3.41928V3.41893V3.41859V3.41825V3.4179V3.41756V3.41722V3.41687V3.41653V3.41619V3.41585V3.41551V3.41517V3.41483V3.41449V3.41415V3.41381V3.41347V3.41313V3.41279V3.41245V3.41211V3.41177V3.41144V3.4111V3.41076V3.41042V3.41009V3.40975V3.40942V3.40908V3.40875V3.40841V3.40808V3.40774V3.40741V3.40707V3.40674V3.40641V3.40607V3.40574V3.40541V3.40508V3.40475V3.40441V3.40408V3.40375V3.40342V3.40309V3.40276V3.40243V3.4021V3.40177V3.40145V3.40112V3.40079V3.40046V3.40013V3.39981V3.39948V3.39915V3.39883V3.3985V3.39818V3.39785V3.39753V3.3972V3.39688V3.39655V3.39623V3.39591V3.39558V3.39526V3.39494V3.39461V3.39429V3.39397V3.39365V3.39333V3.39301V3.39269V3.39237V3.39205V3.39173V3.39141V3.39109V3.39077V3.39045V3.39013V3.38981V3.3895V3.38918V3.38886V3.38855V3.38823V3.38791V3.3876V3.38728V3.38697V3.38665V3.38634V3.38602V3.38571V3.3854V3.38508V3.38477V3.38446V3.38414V3.38383V3.38352V3.38321V3.3829V3.38259V3.38228V3.38197V3.38166V3.38135V3.38104V3.38073V3.38042V3.38011V3.3798V3.37949V3.37919V3.37888V3.37857C0.5 2.56661 0.777904 1.89613 1.34074 1.3368C1.9037 0.777334 2.57985 0.5 3.39971 0.5C3.70802 0.5 4.00328 0.554438 4.28854 0.663474C4.60168 0.783166 4.87248 0.911882 5.10345 1.04808L52.2824 34.5827C52.6442 34.8533 52.939 35.1911 53.1682 35.6011C53.3873 35.993 53.5 36.4319 53.5 36.9286V36.9292V36.9298V36.9304V36.931V36.9316V36.9323V36.9329V36.9335V36.9341V36.9347V36.9353V36.936V36.9366V36.9372V36.9378V36.9384V36.9391V36.9397V36.9403V36.9409V36.9415V36.9422V36.9428V36.9434V36.944V36.9446V36.9453V36.9459V36.9465V36.9471V36.9477V36.9484V36.949V36.9496V36.9502V36.9509V36.9515V36.9521V36.9527V36.9534V36.954V36.9546V36.9552V36.9559V36.9565V36.9571V36.9578V36.9584V36.959V36.9596V36.9603V36.9609V36.9615V36.9622V36.9628V36.9634V36.9641V36.9647V36.9653V36.9659V36.9666V36.9672V36.9678V36.9685V36.9691V36.9697V36.9704V36.971V36.9716V36.9723V36.9729V36.9735V36.9742V36.9748V36.9755V36.9761V36.9767V36.9774V36.978V36.9786V36.9793V36.9799V36.9806V36.9812V36.9818V36.9825V36.9831V36.9838V36.9844V36.985V36.9857V36.9863V36.987V36.9876V36.9882V36.9889V36.9895V36.9902V36.9908V36.9915V36.9921V36.9927V36.9934V36.994V36.9947V36.9953V36.996V36.9966V36.9973V36.9979V36.9986V36.9992V36.9999V37.0005V37.0011V37.0018V37.0024V37.0031V37.0037V37.0044V37.005V37.0057V37.0063V37.007V37.0076V37.0083V37.0089V37.0096V37.0103V37.0109V37.0116V37.0122V37.0129V37.0135V37.0142V37.0148V37.0155V37.0161V37.0168V37.0174V37.0181V37.0188V37.0194V37.0201V37.0207V37.0214V37.022V37.0227V37.0234V37.024V37.0247V37.0253V37.026V37.0267V37.0273V37.028V37.0286V37.0293V37.03V37.0306V37.0313V37.0319V37.0326V37.0333V37.0339V37.0346V37.0353V37.0359V37.0366V37.0373V37.0379V37.0386V37.0393V37.0399V37.0406V37.0413V37.0419V37.0426V37.0433V37.0439V37.0446V37.0453V37.0459V37.0466V37.0473V37.0479V37.0486V37.0493V37.0499V37.0506V37.0513V37.052V37.0526V37.0533V37.054V37.0546V37.0553V37.056V37.0567V37.0573V37.058V37.0587V37.0594V37.06V37.0607V37.0614V37.0621V37.0627V37.0634V37.0641V37.0648V37.0654V37.0661V37.0668V37.0675V37.0682V37.0688V37.0695V37.0702V37.0709V37.0715V37.0722V37.0729V37.0736V37.0743V37.075V37.0756V37.0763V37.077V37.0777V37.0784V37.079V37.0797V37.0804V37.0811V37.0818V37.0825V37.0832V37.0838V37.0845V37.0852V37.0859V37.0866V37.0873V37.088V37.0886V37.0893V37.09V37.0907V37.0914V37.0921V37.0928V37.0935V37.0942V37.0948V37.0955V37.0962V37.0969V37.0976V37.0983V37.099V37.0997V37.1004V37.1011V37.1018V37.1025V37.1031V37.1038V37.1045V37.1052V37.1059V37.1066V37.1073V37.108V37.1087V37.1094V37.1101V37.1108V37.1115V37.1122V37.1129V37.1136V37.1143V37.115V37.1157V37.1164V37.1171V37.1178V37.1185V37.1192V37.1199V37.1206V37.1213V37.122V37.1227V37.1234V37.1241V37.1248V37.1255V37.1262V37.1269V37.1276V37.1283V37.129V37.1297V37.1304V37.1311V37.1319V37.1326V37.1333V37.134V37.1347V37.1354V37.1361V37.1368V37.1375V37.1382V37.1389V37.1396V37.1403V37.1411V37.1418V37.1425V37.1432V37.1439V37.1446V37.1453V37.146V37.1467V37.1475V37.1482V37.1489V37.1496V37.1503V37.151V37.1517V37.1525V37.1532V37.1539V37.1546V37.1553V37.156V37.1567V37.1575V37.1582V37.1589V37.1596V37.1603V37.1611V37.1618V37.1625V37.1632V37.1639V37.1646V37.1654V37.1661V37.1668V37.1675V37.1683V37.169V37.1697V37.1704V37.1711V37.1719V37.1726V37.1733V37.174V37.1748V37.1755V37.1762V37.1769V37.1777V37.1784V37.1791V37.1798V37.1806V37.1813V37.182V37.1827V37.1835V37.1842V37.1849V37.1857V37.1864V37.1871V37.1878V37.1886V37.1893V37.19V37.1908V37.1915V37.1922V37.193V37.1937V37.1944V37.1952V37.1959V37.1966V37.1973V37.1981V37.1988V37.1996V37.2003V37.201V37.2018V37.2025V37.2032V37.204V37.2047V37.2054V37.2062V37.2069V37.2076V37.2084V37.2091V37.2099V37.2106V37.2113V37.2121V37.2128V37.2136V37.2143V37.215V37.2158V37.2165V37.2173V37.218V37.2187V37.2195V37.2202V37.221V37.2217V37.2225V37.2232V37.2239V37.2247V37.2254V37.2262V37.2269V37.2277V37.2284V37.2292V37.2299V37.2307V37.2314V37.2322V37.2329V37.2337V37.2344V37.2351V37.2359V37.2366V37.2374V37.2381V37.2389V37.2396V37.2404V37.2411V37.2419V37.2426V37.2434V37.2442V37.2449V37.2457V37.2464V37.2472V37.2479V37.2487V37.2494V37.2502V37.2509V37.2517V37.2524V37.2532V37.254V37.2547V37.2555V37.2562V37.257V37.2577V37.2585V37.2593V37.26V37.2608V37.2615V37.2623V37.2631V37.2638V37.2646V37.2653V37.2661V37.2669V37.2676V37.2684V37.2691V37.2699V37.2707V37.2714V37.2722V37.273V37.2737V37.2745V37.2752V37.276V37.2768V37.2775V37.2783V37.2791V37.2798V37.2806V37.2814V37.2821C53.5 37.3443 53.488 37.3837 53.4743 37.411Z" fill="url(#paint0_linear_1518_464)" stroke="#E0E0E0"/>
<defs>
<linearGradient id="paint0_linear_1518_464" x1="27" y1="0" x2="27" y2="66" gradientUnits="userSpaceOnUse">
<stop stop-color="#EEEDED"/>
<stop offset="0.489583" stop-color="#C2C2C2"/>
</linearGradient>
</defs>
</svg>
