<svg width="450" height="38" viewBox="0 0 450 38" fill="none" xmlns="http://www.w3.org/2000/svg">
    <path opacity=".8" d="M84.181 34.595C55.639 36.758 9.24 39.173 1.948 37.334c-4.057-.545 1.728-14.27 5.396-16.246 1.299-.7 3.66-.853 15.21.14 8.734.75 61.502-2.776 68.465-3.101 1.494-.07 12.293-.505 23.572-.9 36.001-1.262 102.1-4.636 108.402-4.864 7.379-.27 50.233-1.575 67.575-2.965 9.139-.732 11.055-.63 19.847-.958 13.41-.498 90.901-4.845 96.395-5.01.929-.028 3.981.027 4.917-.203 1.193-.291 34.481-3.764 36.583-2.457 2.841 1.763-1.509 12.897-5.43 15.545-2.019 1.365-9.413.637-18.132 1.298-9.981.758-79.454 4.265-116.11 5.917 0 0-28.38 2.705-34.085 2.124-2.242-.229-15.023.44-20.277.755-2.974.18-157.056 7.198-170.094 8.186z" fill="#7003FF"/>
</svg>
