<svg width="100" height="100" viewBox="0 0 100 100" fill="none" xmlns="http://www.w3.org/2000/svg">
<path d="M27.1108 98.2686L3.1582 3.01074L97.895 29.616" fill="white"/>
<path d="M38.8105 57.3262L44.7948 81.1525" stroke="black" stroke-width="1.5" stroke-miterlimit="10"/>
<path d="M62.4474 64.0209L38.8105 57.3262" stroke="black" stroke-width="1.5" stroke-miterlimit="10"/>
<path d="M44.7949 81.1521L62.4476 64.0205" stroke="black" stroke-width="1.5" stroke-miterlimit="10"/>
<path d="M44.795 81.1518L21.1582 74.457" stroke="black" stroke-width="1.5" stroke-miterlimit="10"/>
<path d="M21.1582 74.457L27.1424 98.2991L44.795 81.1518" stroke="black" stroke-width="1.5" stroke-miterlimit="10"/>
<path d="M21.1582 74.4578L38.8108 57.3262" stroke="black" stroke-width="1.5" stroke-miterlimit="10"/>
<path d="M38.8105 57.3261L56.479 40.1787" stroke="black" stroke-width="1.5" stroke-miterlimit="10"/>
<path d="M56.4785 40.1785L74.1311 23.0469" stroke="black" stroke-width="1.5" stroke-miterlimit="10"/>
<path d="M50.4951 16.3516L56.4793 40.1779" stroke="black" stroke-width="1.5" stroke-miterlimit="10"/>
<path d="M56.4788 40.1789L32.8262 33.5" stroke="black" stroke-width="1.5" stroke-miterlimit="10"/>
<path d="M32.8262 33.5L38.8104 57.3263" stroke="black" stroke-width="1.5" stroke-miterlimit="10"/>
<path d="M38.8107 57.3256L15.1738 50.6309" stroke="black" stroke-width="1.5" stroke-miterlimit="10"/>
<path d="M15.1738 50.6309L21.158 74.4572" stroke="black" stroke-width="1.5" stroke-miterlimit="10"/>
<path d="M9.18945 26.8047L15.1737 50.631" stroke="black" stroke-width="1.5" stroke-miterlimit="10"/>
<path d="M32.8263 33.4994L9.18945 26.8047" stroke="black" stroke-width="1.5" stroke-miterlimit="10"/>
<path d="M15.1738 50.6316L32.8265 33.5" stroke="black" stroke-width="1.5" stroke-miterlimit="10"/>
<path d="M32.8262 33.4841L50.4946 16.3525" stroke="black" stroke-width="1.5" stroke-miterlimit="10"/>
<path d="M50.4944 16.352L26.8418 9.65723" stroke="black" stroke-width="1.5" stroke-miterlimit="10"/>
<path d="M26.8418 9.65723L32.826 33.4835" stroke="black" stroke-width="1.5" stroke-miterlimit="10"/>
<path d="M9.18929 26.805L3.20508 2.96289L26.8419 9.65763" stroke="black" stroke-width="1.5" stroke-miterlimit="10"/>
<path d="M9.18945 26.8046L26.8421 9.65723" stroke="black" stroke-width="1.5" stroke-miterlimit="10"/>
<path d="M80.116 46.8732L97.7687 29.7416L74.1318 23.0469" stroke="black" stroke-width="1.5" stroke-miterlimit="10"/>
<path d="M74.1318 23.0469L80.116 46.8732" stroke="black" stroke-width="1.5" stroke-miterlimit="10"/>
<path d="M80.1154 46.8734L56.4785 40.1787" stroke="black" stroke-width="1.5" stroke-miterlimit="10"/>
<path d="M56.4785 40.1787L62.4469 64.0208" stroke="black" stroke-width="1.5" stroke-miterlimit="10"/>
<path d="M62.4473 64.0204L80.1157 46.873" stroke="black" stroke-width="1.5" stroke-miterlimit="10"/>
<path d="M74.132 23.0463L50.4951 16.3516" stroke="black" stroke-width="1.5" stroke-miterlimit="10"/>
</svg>
