<svg width="198" height="56" viewBox="0 0 198 56" fill="none" xmlns="http://www.w3.org/2000/svg">
<g clip-path="url(#clip0_1546_593)">
<mask id="mask0_1546_593" style="mask-type:luminance" maskUnits="userSpaceOnUse" x="0" y="0" width="198" height="56">
<path d="M198 0H0V56H198V0Z" fill="white"/>
</mask>
<g mask="url(#mask0_1546_593)">
<path d="M68.4991 31.1402C66.8132 30.2179 65.9259 29.4712 65.9259 28.4171C65.9259 27.0555 67.1238 26.221 69.0315 26.221C71.2498 26.221 73.2018 27.1434 73.2018 27.1434L74.7545 22.4437C74.7545 22.4437 73.3349 21.3457 69.1203 21.3457C63.2641 21.3457 59.1825 24.6837 59.1825 29.3394C59.1825 31.9748 61.0903 33.9951 63.619 35.4446C65.6598 36.5865 66.3696 37.421 66.3696 38.6069C66.3696 39.8807 65.3493 40.8908 63.4415 40.8908C60.6022 40.8908 57.9403 39.4414 57.9403 39.4414L56.2988 44.141C56.2988 44.141 58.7832 45.7661 62.9092 45.7661C68.9428 45.7661 73.2461 42.8234 73.2461 37.5528C73.3349 34.6539 71.1166 32.6336 68.4991 31.1402Z" fill="black"/>
<path d="M92.5452 21.2583C89.5726 21.2583 87.2656 22.6638 85.4466 24.7721L85.3579 24.7281L87.931 11.376H81.1876L74.666 45.3274H81.365L83.5833 33.7321C84.4706 29.3399 86.7332 26.6607 88.8624 26.6607C90.3708 26.6607 90.948 27.6708 90.948 29.1203C90.948 30.0426 90.8592 31.1407 90.6374 32.063L88.1083 45.3713H94.8077L97.4248 31.6678C97.7355 30.2183 97.9132 28.5054 97.9132 27.3195C98.0021 23.4983 96.0494 21.2583 92.5452 21.2583Z" fill="black"/>
<path d="M113.174 21.2578C105.099 21.2578 99.7314 28.461 99.7314 36.4987C99.7314 41.6374 102.926 45.81 108.959 45.81C116.9 45.81 122.224 38.7826 122.224 30.5692C122.269 25.7817 119.474 21.2578 113.174 21.2578ZM109.891 40.6712C107.584 40.6712 106.653 38.7386 106.653 36.323C106.653 32.5017 108.648 26.3088 112.286 26.3088C114.683 26.3088 115.437 28.3292 115.437 30.3057C115.437 34.4344 113.44 40.6712 109.891 40.6712Z" fill="black"/>
<path d="M139.438 21.2578C134.913 21.2578 132.34 25.2108 132.34 25.2108H132.251L132.65 21.6531H126.705C126.395 24.0688 125.862 27.7144 125.33 30.4814L120.672 54.726H127.371L129.234 44.8876H129.367C129.367 44.8876 130.743 45.766 133.316 45.766C141.213 45.766 146.359 37.7724 146.359 29.6908C146.359 25.2547 144.362 21.2578 139.438 21.2578ZM133.05 40.8029C131.319 40.8029 130.299 39.8367 130.299 39.8367L131.408 33.6437C132.207 29.5151 134.381 26.748 136.688 26.748C138.729 26.748 139.349 28.6367 139.349 30.3935C139.349 34.6539 136.776 40.8029 133.05 40.8029Z" fill="black"/>
<path d="M155.942 11.7266C153.812 11.7266 152.082 13.3955 152.082 15.5916C152.082 17.5681 153.325 18.9297 155.232 18.9297H155.321C157.406 18.9297 159.225 17.5241 159.269 15.0646C159.314 13.0881 157.982 11.7266 155.942 11.7266Z" fill="black"/>
<path d="M146.537 45.3271H153.281L157.85 21.7852H151.062L146.537 45.3271Z" fill="black"/>
<path d="M174.886 21.7413H170.227L170.449 20.6432C170.849 18.3593 172.179 16.3389 174.443 16.3389C175.64 16.3389 176.571 16.6903 176.571 16.6903L177.903 11.5075C177.903 11.5075 176.749 10.9365 174.265 10.9365C171.869 10.9365 169.518 11.5954 167.699 13.1326C165.392 15.0652 164.327 17.8322 163.795 20.6432L163.617 21.7413H160.511L159.535 26.7483H162.641L159.092 45.3272H165.791L169.34 26.7483H173.954L174.886 21.7413Z" fill="black"/>
<path d="M191.033 21.7852C191.033 21.7852 186.819 32.2384 184.956 37.9482H184.867C184.734 36.1036 183.226 21.7852 183.226 21.7852H176.172L180.209 43.3945C180.297 43.8777 180.253 44.1852 180.076 44.4925C179.278 45.9859 177.991 47.4353 176.438 48.4895C175.196 49.4118 173.776 49.9828 172.667 50.3781L174.53 56C175.905 55.6925 178.7 54.5945 181.097 52.3984C184.157 49.5436 186.997 45.1953 189.881 39.222L198.088 21.7852H191.033Z" fill="black"/>
<path d="M42.5304 10.6271C42.4908 10.3526 42.2532 10.1957 42.0552 10.1957C41.8572 10.1957 37.9368 10.1173 37.9368 10.1173C37.9368 10.1173 34.65 6.98009 34.3332 6.62715C34.0164 6.31342 33.3828 6.39186 33.1452 6.47028C33.1452 6.47028 32.5116 6.66636 31.482 6.98009C31.3236 6.43107 31.0464 5.7644 30.69 5.05852C29.5416 2.86244 27.7992 1.68598 25.74 1.68598C25.5816 1.68598 25.4628 1.68598 25.3044 1.72518C25.2252 1.64676 25.1856 1.56832 25.1064 1.52911C24.1956 0.587934 23.0472 0.117346 21.6612 0.156562C19.008 0.234993 16.3548 2.15656 14.1768 5.52911C12.672 7.92127 11.5236 10.9017 11.1672 13.2154C8.118 14.1566 5.9796 14.8233 5.9004 14.8233C4.356 15.2938 4.3164 15.333 4.1184 16.784C4.0392 17.8821 0 48.8232 0 48.8232L33.8976 54.6272L48.5892 51.0193C48.5496 51.0193 42.57 10.9017 42.5304 10.6271ZM29.7792 7.52911C28.9872 7.76441 28.116 8.03891 27.1656 8.35264C27.1656 7.0193 26.9676 5.13695 26.3736 3.56833C28.3932 3.88205 29.3832 6.15656 29.7792 7.52911ZM25.3836 8.86241C23.6016 9.41147 21.6612 9.99974 19.7208 10.5879C20.2752 8.50951 21.3048 6.47028 22.572 5.09774C23.0472 4.58793 23.7204 4.03891 24.4728 3.72519C25.2648 5.2546 25.4232 7.41146 25.3836 8.86241ZM21.7404 1.92126C22.374 1.92126 22.8888 2.03892 23.3244 2.35264C22.6116 2.70558 21.8988 3.2546 21.2652 3.96049C19.5624 5.7644 18.2556 8.54871 17.7408 11.2546C16.1172 11.7644 14.5332 12.235 13.1076 12.6664C14.058 8.39185 17.6616 2.03892 21.7404 1.92126Z" fill="#95BF47"/>
<path d="M42.0551 10.1963C41.8571 10.1963 37.9367 10.1179 37.9367 10.1179C37.9367 10.1179 34.6499 6.98066 34.3331 6.62772C34.2143 6.51007 34.0559 6.43164 33.8975 6.43164V54.6277L48.5891 51.0199C48.5891 51.0199 42.6095 10.9022 42.5699 10.6277C42.4907 10.3532 42.2531 10.1963 42.0551 10.1963Z" fill="#5E8E3E"/>
<path d="M25.7395 17.6864L24.0367 24.0002C24.0367 24.0002 22.1359 23.1374 19.8787 23.2942C16.5523 23.4903 16.5523 25.5688 16.5523 26.0786C16.7503 28.9021 24.2347 29.5296 24.6703 36.157C24.9871 41.3727 21.8983 44.9413 17.3839 45.2159C11.9983 45.4903 9.02832 42.3531 9.02832 42.3531L10.1767 37.5295C10.1767 37.5295 13.1863 39.7649 15.5623 39.608C17.1067 39.5296 17.7007 38.2355 17.6215 37.3727C17.3839 33.6864 11.2855 33.9217 10.8895 27.8433C10.5727 22.7452 13.9387 17.6079 21.3835 17.1374C24.2743 16.9413 25.7395 17.6864 25.7395 17.6864Z" fill="white"/>
</g>
</g>
<defs>
<clipPath id="clip0_1546_593">
<rect width="198" height="56" fill="white"/>
</clipPath>
</defs>
</svg>
