<svg width="230" height="51" viewBox="0 0 230 51" fill="none" xmlns="http://www.w3.org/2000/svg">
    <path fill="#33454F" d="M0 0h230v51H0z"/>
    <path d="M82.814 19.94c1.068 0 1.992.204 2.772.612.78.396 1.44.984 1.98 1.764l-1.296 1.242c-.456-.696-.972-1.194-1.548-1.494-.564-.312-1.236-.468-2.016-.468-.576 0-1.05.078-1.422.234-.372.156-.648.366-.828.63-.168.252-.252.54-.252.864 0 .372.126.696.378.972.264.276.75.492 1.458.648l2.412.54c1.152.252 1.968.636 2.448 1.152.48.516.72 1.17.72 1.962 0 .732-.198 1.368-.594 1.908-.396.54-.948.954-1.656 1.242-.696.288-1.518.432-2.466.432-.84 0-1.596-.108-2.268-.324a6.075 6.075 0 0 1-1.764-.882 5.217 5.217 0 0 1-1.242-1.278l1.332-1.332c.252.42.57.798.954 1.134.384.324.828.576 1.332.756.516.18 1.086.27 1.71.27.552 0 1.026-.066 1.422-.198.408-.132.714-.324.918-.576.216-.264.324-.576.324-.936 0-.348-.12-.654-.36-.918-.228-.264-.66-.468-1.296-.612l-2.61-.594c-.72-.156-1.314-.378-1.782-.666-.468-.288-.816-.636-1.044-1.044a2.895 2.895 0 0 1-.342-1.404c0-.672.18-1.278.54-1.818.372-.552.906-.99 1.602-1.314.696-.336 1.524-.504 2.484-.504zm9.857.414V29.3c0 .444.114.768.342.972.24.204.558.306.954.306.324 0 .606-.048.846-.144a2.64 2.64 0 0 0 .666-.432l.432 1.404c-.276.24-.618.432-1.026.576-.396.132-.84.198-1.332.198-.516 0-.99-.084-1.422-.252a2.048 2.048 0 0 1-1.008-.81c-.24-.384-.366-.882-.378-1.494v-8.73l1.926-.54zM95.767 23v1.512h-6.75V23h6.75zm7.159 3.222c0-.6-.168-1.062-.504-1.386-.324-.336-.774-.504-1.35-.504-.54 0-1.002.126-1.386.378-.384.252-.666.66-.846 1.224l-1.62-.684c.228-.732.672-1.32 1.332-1.764.672-.444 1.536-.666 2.592-.666.72 0 1.356.12 1.908.36.552.228.984.576 1.296 1.044.324.468.486 1.068.486 1.8v4.014c0 .444.222.666.666.666.216 0 .426-.03.63-.09l-.108 1.332c-.276.132-.624.198-1.044.198-.384 0-.732-.066-1.044-.198-.3-.144-.54-.354-.72-.63-.168-.288-.252-.642-.252-1.062v-.126l.396-.018c-.108.468-.33.858-.666 1.17-.336.3-.726.528-1.17.684a4.351 4.351 0 0 1-1.35.216c-.563 0-1.073-.09-1.53-.27a2.404 2.404 0 0 1-1.061-.81c-.252-.372-.379-.828-.379-1.368 0-.672.216-1.224.648-1.656.445-.432 1.069-.726 1.873-.882l3.491-.684-.018 1.35-2.538.522c-.504.096-.882.234-1.133.414-.253.18-.379.444-.379.792a.99.99 0 0 0 .379.81c.263.192.611.288 1.043.288.3 0 .588-.036.864-.108a2.38 2.38 0 0 0 .774-.342c.228-.168.402-.378.522-.63a2.07 2.07 0 0 0 .198-.936v-2.448zm7.341-5.868V29.3c0 .444.114.768.342.972.24.204.558.306.954.306.324 0 .606-.048.846-.144a2.64 2.64 0 0 0 .666-.432l.432 1.404c-.276.24-.618.432-1.026.576-.396.132-.84.198-1.332.198-.516 0-.99-.084-1.422-.252a2.048 2.048 0 0 1-1.008-.81c-.24-.384-.366-.882-.378-1.494v-8.73l1.926-.54zM113.363 23v1.512h-6.75V23h6.75zm5.864 9.18c-.9 0-1.692-.186-2.376-.558a3.96 3.96 0 0 1-1.602-1.602c-.372-.708-.558-1.548-.558-2.52s.186-1.806.558-2.502a3.964 3.964 0 0 1 1.584-1.62c.672-.372 1.434-.558 2.286-.558.876 0 1.62.18 2.232.54.612.36 1.08.852 1.404 1.476.324.624.486 1.332.486 2.124 0 .216-.006.42-.018.612-.012.192-.03.36-.054.504h-7.236V26.6h6.39l-.954.288c0-.816-.204-1.44-.612-1.872-.408-.444-.966-.666-1.674-.666-.516 0-.966.12-1.35.36-.384.24-.678.6-.882 1.08-.204.468-.306 1.044-.306 1.728 0 .672.108 1.242.324 1.71.216.468.522.822.918 1.062.396.24.864.36 1.404.36.6 0 1.086-.114 1.458-.342a2.42 2.42 0 0 0 .882-.954l1.53.72c-.216.432-.51.81-.882 1.134-.36.312-.792.552-1.296.72a5.21 5.21 0 0 1-1.656.252zm20.508-12.06L137.773 32h-1.476l1.962-11.88h1.476zm.882 7.38v1.314h-10.188V27.5h10.188zm-5.148-7.38L133.507 32h-1.494l1.962-11.88h1.494zm5.94 3.168v1.332h-10.206v-1.332h10.206zM143.071 32v-1.404a60.056 60.056 0 0 0 2.862-2.16c.78-.624 1.404-1.2 1.872-1.728.468-.528.804-1.026 1.008-1.494.216-.48.324-.966.324-1.458 0-.636-.198-1.152-.594-1.548-.396-.396-.948-.594-1.656-.594-.744 0-1.338.252-1.782.756-.432.492-.678 1.17-.738 2.034l-1.674-.774c.084-.756.306-1.41.666-1.962a3.59 3.59 0 0 1 1.458-1.278c.624-.3 1.344-.45 2.16-.45.672 0 1.26.096 1.764.288.516.192.948.462 1.296.81.348.336.612.732.792 1.188.192.456.288.942.288 1.458 0 .756-.186 1.488-.558 2.196-.372.696-.96 1.41-1.764 2.142s-1.86 1.518-3.168 2.358v.036c.144-.024.342-.036.594-.036.252-.012.504-.018.756-.018.252-.012.456-.018.612-.018h3.744V32h-8.262z" fill="#fff"/>
</svg>
