<svg width="320" height="320" viewBox="0 0 320 320" fill="none" xmlns="http://www.w3.org/2000/svg">
    <path fill="#33454F" d="M160 0v160H0V0z"/>
    <path d="m47.58 77.8-.76 3.6h2.76V83h-3.1l-.86 4h-1.74l.86-4h-4.2l-.86 4h-1.74l.86-4h-3.14v-1.6h3.48l.76-3.6h-3.1v-1.6h3.44l.86-4h1.74l-.86 4h4.2l.86-4h1.74l-.86 4h2.78v1.6h-3.12zm-1.74 0h-4.2l-.76 3.6h4.2l.76-3.6zm7.157-1.62c.093-1.227.566-2.187 1.42-2.88.853-.693 1.96-1.04 3.32-1.04.907 0 1.686.167 2.34.5.666.32 1.166.76 1.5 1.32.346.56.52 1.193.52 1.9 0 .827-.24 1.54-.72 2.14-.467.6-1.08.987-1.84 1.16v.1c.867.213 1.553.633 2.06 1.26.506.627.76 1.447.76 2.46 0 .76-.173 1.447-.52 2.06-.347.6-.867 1.073-1.56 1.42-.694.347-1.527.52-2.5.52-1.413 0-2.574-.367-3.48-1.1-.907-.747-1.413-1.8-1.52-3.16h1.76c.093.8.42 1.453.98 1.96.56.507 1.306.76 2.24.76.933 0 1.64-.24 2.12-.72.493-.493.74-1.127.74-1.9 0-1-.334-1.72-1-2.16-.667-.44-1.673-.66-3.02-.66h-.46V78.6h.48c1.227-.013 2.153-.213 2.78-.6.627-.4.94-1.013.94-1.84 0-.707-.234-1.273-.7-1.7-.453-.427-1.107-.64-1.96-.64-.827 0-1.493.213-2 .64-.507.427-.807 1-.9 1.72h-1.78zm11.777 0c.094-1.227.567-2.187 1.42-2.88.854-.693 1.96-1.04 3.32-1.04.907 0 1.687.167 2.34.5.667.32 1.167.76 1.5 1.32.347.56.52 1.193.52 1.9 0 .827-.24 1.54-.72 2.14-.466.6-1.08.987-1.84 1.16v.1c.867.213 1.554.633 2.06 1.26.507.627.76 1.447.76 2.46 0 .76-.173 1.447-.52 2.06-.346.6-.866 1.073-1.56 1.42-.693.347-1.526.52-2.5.52-1.413 0-2.573-.367-3.48-1.1-.906-.747-1.413-1.8-1.52-3.16h1.76c.094.8.42 1.453.98 1.96.56.507 1.307.76 2.24.76.934 0 1.64-.24 2.12-.72.494-.493.74-1.127.74-1.9 0-1-.333-1.72-1-2.16-.666-.44-1.673-.66-3.02-.66h-.46V78.6h.48c1.227-.013 2.154-.213 2.78-.6.627-.4.94-1.013.94-1.84 0-.707-.233-1.273-.7-1.7-.453-.427-1.106-.64-1.96-.64-.826 0-1.493.213-2 .64-.506.427-.806 1-.9 1.72h-1.78zm11.378 7.6V82.4l7.02-9.72h2.18v9.52h2v1.58h-2V87h-1.8v-3.22h-7.4zm7.48-9.2-5.38 7.62h5.38v-7.62zm14.758-.46h-7.02v4.56c.306-.427.76-.773 1.36-1.04a4.53 4.53 0 0 1 1.94-.42c1.106 0 2.006.233 2.7.7.693.453 1.186 1.047 1.48 1.78.306.72.46 1.487.46 2.3 0 .96-.18 1.82-.54 2.58-.36.76-.914 1.36-1.66 1.8-.734.44-1.647.66-2.74.66-1.4 0-2.534-.36-3.4-1.08-.867-.72-1.394-1.68-1.58-2.88h1.78c.173.76.54 1.353 1.1 1.78.56.427 1.266.64 2.12.64 1.053 0 1.846-.313 2.38-.94.533-.64.8-1.48.8-2.52s-.267-1.84-.8-2.4c-.534-.573-1.32-.86-2.36-.86-.707 0-1.327.173-1.86.52-.52.333-.9.793-1.14 1.38h-1.72v-8.16h8.7v1.6zm2.898 9.66V82.4l7.02-9.72h2.18v9.52h2v1.58h-2V87h-1.8v-3.22h-7.4zm7.48-9.2-5.38 7.62h5.38v-7.62zm13.718-1.52v1.48h-6.06v4.7h4.92v1.48h-4.92V87h-1.82V73.06h7.88z" fill="#fff"/>
    <path fill="#F5AD52" d="M160 160v160H0V160z"/>
    <path d="m45.58 237.8-.76 3.6h2.76v1.6h-3.1l-.86 4h-1.74l.86-4h-4.2l-.86 4h-1.74l.86-4h-3.14v-1.6h3.48l.76-3.6h-3.1v-1.6h3.44l.86-4h1.74l-.86 4h4.2l.86-4h1.74l-.86 4h2.78v1.6h-3.12zm-1.74 0h-4.2l-.76 3.6h4.2l.76-3.6zm6.817 2.22c0-1.36.307-2.58.92-3.66a6.685 6.685 0 0 1 2.5-2.56c1.067-.613 2.247-.92 3.54-.92 1.52 0 2.847.367 3.98 1.1 1.133.733 1.96 1.773 2.48 3.12h-2.18c-.387-.84-.947-1.487-1.68-1.94-.72-.453-1.587-.68-2.6-.68-.973 0-1.847.227-2.62.68-.773.453-1.38 1.1-1.82 1.94-.44.827-.66 1.8-.66 2.92 0 1.107.22 2.08.66 2.92a4.766 4.766 0 0 0 1.82 1.92c.773.453 1.647.68 2.62.68 1.013 0 1.88-.22 2.6-.66.733-.453 1.293-1.1 1.68-1.94h2.18c-.52 1.333-1.347 2.367-2.48 3.1-1.133.72-2.46 1.08-3.98 1.08-1.293 0-2.473-.3-3.54-.9a6.723 6.723 0 0 1-2.5-2.54c-.613-1.08-.92-2.3-.92-3.66zm15.45 0c0-1.36.306-2.58.92-3.66a6.686 6.686 0 0 1 2.5-2.56c1.066-.613 2.246-.92 3.54-.92 1.52 0 2.846.367 3.98 1.1 1.132.733 1.96 1.773 2.48 3.12h-2.18c-.388-.84-.948-1.487-1.68-1.94-.72-.453-1.588-.68-2.6-.68-.974 0-1.848.227-2.62.68-.774.453-1.38 1.1-1.82 1.94-.44.827-.66 1.8-.66 2.92 0 1.107.22 2.08.66 2.92a4.766 4.766 0 0 0 1.82 1.92c.772.453 1.646.68 2.62.68 1.012 0 1.88-.22 2.6-.66.732-.453 1.292-1.1 1.68-1.94h2.18c-.52 1.333-1.348 2.367-2.48 3.1-1.134.72-2.46 1.08-3.98 1.08-1.294 0-2.474-.3-3.54-.9a6.723 6.723 0 0 1-2.5-2.54c-.614-1.08-.92-2.3-.92-3.66zm24.008-6.96v1.48h-6.06v4.7h4.92v1.48h-4.92V247h-1.82v-13.94h7.88zm10.078 0v1.48h-6.06v4.7h4.92v1.48h-4.92V247h-1.82v-13.94h7.88zm1.899 6.56c0-2.293.373-4.08 1.12-5.36.746-1.293 2.053-1.94 3.92-1.94 1.853 0 3.153.647 3.9 1.94.746 1.28 1.12 3.067 1.12 5.36 0 2.333-.374 4.147-1.12 5.44-.747 1.293-2.047 1.94-3.9 1.94-1.867 0-3.174-.647-3.92-1.94-.747-1.293-1.12-3.107-1.12-5.44zm8.26 0c0-1.16-.08-2.14-.24-2.94-.147-.813-.46-1.467-.94-1.96-.467-.493-1.147-.74-2.04-.74-.907 0-1.6.247-2.08.74-.467.493-.78 1.147-.94 1.96-.147.8-.22 1.78-.22 2.94 0 1.2.073 2.207.22 3.02.16.813.473 1.467.94 1.96.48.493 1.173.74 2.08.74.893 0 1.573-.247 2.04-.74.48-.493.793-1.147.94-1.96.16-.813.24-1.82.24-3.02zm4.298 0c0-2.293.373-4.08 1.12-5.36.747-1.293 2.053-1.94 3.92-1.94 1.853 0 3.153.647 3.9 1.94.747 1.28 1.12 3.067 1.12 5.36 0 2.333-.373 4.147-1.12 5.44-.747 1.293-2.047 1.94-3.9 1.94-1.867 0-3.173-.647-3.92-1.94-.747-1.293-1.12-3.107-1.12-5.44zm8.26 0c0-1.16-.08-2.14-.24-2.94-.147-.813-.46-1.467-.94-1.96-.467-.493-1.147-.74-2.04-.74-.907 0-1.6.247-2.08.74-.467.493-.78 1.147-.94 1.96-.147.8-.22 1.78-.22 2.94 0 1.2.073 2.207.22 3.02.16.813.473 1.467.94 1.96.48.493 1.173.74 2.08.74.893 0 1.573-.247 2.04-.74.48-.493.793-1.147.94-1.96.16-.813.24-1.82.24-3.02z" fill="#000"/>
    <path fill="#2B8A94" d="M320 0v160H160V0z"/>
    <path d="m205.58 77.8-.76 3.6h2.76V83h-3.1l-.86 4h-1.74l.86-4h-4.2l-.86 4h-1.74l.86-4h-3.14v-1.6h3.48l.76-3.6h-3.1v-1.6h3.44l.86-4h1.74l-.86 4h4.2l.86-4h1.74l-.86 4h2.78v1.6h-3.12zm-1.74 0h-4.2l-.76 3.6h4.2l.76-3.6zm6.817 2.22c0-1.36.307-2.58.92-3.66a6.686 6.686 0 0 1 2.5-2.56c1.067-.613 2.247-.92 3.54-.92 1.52 0 2.847.367 3.98 1.1 1.133.733 1.96 1.773 2.48 3.12h-2.18c-.387-.84-.947-1.487-1.68-1.94-.72-.453-1.587-.68-2.6-.68-.973 0-1.847.227-2.62.68-.773.453-1.38 1.1-1.82 1.94-.44.827-.66 1.8-.66 2.92 0 1.107.22 2.08.66 2.92a4.772 4.772 0 0 0 1.82 1.92c.773.453 1.647.68 2.62.68 1.013 0 1.88-.22 2.6-.66.733-.453 1.293-1.1 1.68-1.94h2.18c-.52 1.333-1.347 2.367-2.48 3.1-1.133.72-2.46 1.08-3.98 1.08-1.293 0-2.473-.3-3.54-.9a6.725 6.725 0 0 1-2.5-2.54c-.613-1.08-.92-2.3-.92-3.66zm15.449 0c0-1.36.307-2.58.92-3.66a6.686 6.686 0 0 1 2.5-2.56c1.067-.613 2.247-.92 3.54-.92 1.52 0 2.847.367 3.98 1.1 1.133.733 1.96 1.773 2.48 3.12h-2.18c-.387-.84-.947-1.487-1.68-1.94-.72-.453-1.587-.68-2.6-.68-.973 0-1.847.227-2.62.68-.773.453-1.38 1.1-1.82 1.94-.44.827-.66 1.8-.66 2.92 0 1.107.22 2.08.66 2.92a4.772 4.772 0 0 0 1.82 1.92c.773.453 1.647.68 2.62.68 1.013 0 1.88-.22 2.6-.66.733-.453 1.293-1.1 1.68-1.94h2.18c-.52 1.333-1.347 2.367-2.48 3.1-1.133.72-2.46 1.08-3.98 1.08-1.293 0-2.473-.3-3.54-.9a6.725 6.725 0 0 1-2.5-2.54c-.613-1.08-.92-2.3-.92-3.66zm24.009-6.96v1.48h-6.06v4.7h4.92v1.48h-4.92V87h-1.82V73.06h7.88zm10.078 0v1.48h-6.06v4.7h4.92v1.48h-4.92V87h-1.82V73.06h7.88zm1.899 6.56c0-2.293.373-4.08 1.12-5.36.746-1.293 2.053-1.94 3.92-1.94 1.853 0 3.153.647 3.9 1.94.746 1.28 1.12 3.067 1.12 5.36 0 2.333-.374 4.147-1.12 5.44-.747 1.293-2.047 1.94-3.9 1.94-1.867 0-3.174-.647-3.92-1.94-.747-1.293-1.12-3.107-1.12-5.44zm8.26 0c0-1.16-.08-2.14-.24-2.94-.147-.813-.46-1.467-.94-1.96-.467-.493-1.147-.74-2.04-.74-.907 0-1.6.247-2.08.74-.467.493-.78 1.147-.94 1.96-.147.8-.22 1.78-.22 2.94 0 1.2.073 2.207.22 3.02.16.813.473 1.467.94 1.96.48.493 1.173.74 2.08.74.893 0 1.573-.247 2.04-.74.48-.493.793-1.147.94-1.96.16-.813.24-1.82.24-3.02zm4.298 0c0-2.293.373-4.08 1.12-5.36.747-1.293 2.053-1.94 3.92-1.94 1.853 0 3.153.647 3.9 1.94.747 1.28 1.12 3.067 1.12 5.36 0 2.333-.373 4.147-1.12 5.44-.747 1.293-2.047 1.94-3.9 1.94-1.867 0-3.173-.647-3.92-1.94-.747-1.293-1.12-3.107-1.12-5.44zm8.26 0c0-1.16-.08-2.14-.24-2.94-.147-.813-.46-1.467-.94-1.96-.467-.493-1.147-.74-2.04-.74-.907 0-1.6.247-2.08.74-.467.493-.78 1.147-.94 1.96-.147.8-.22 1.78-.22 2.94 0 1.2.073 2.207.22 3.02.16.813.473 1.467.94 1.96.48.493 1.173.74 2.08.74.893 0 1.573-.247 2.04-.74.48-.493.793-1.147.94-1.96.16-.813.24-1.82.24-3.02z" fill="#fff"/>
    <mask id="cpep5orina" fill="#fff">
        <path d="M320 160v160H160V160h160z"/>
    </mask>
    <path d="M320 160v160H160V160h160z" fill="#fff"/>
    <path d="M320 320v1.6h1.6V320H320zm-1.6-160v160h3.2V160h-3.2zm1.6 158.4H160v3.2h160v-3.2z" fill="#D1D1D1" mask="url(#cpep5orina)"/>
    <path d="m213.58 237.8-.76 3.6h2.76v1.6h-3.1l-.86 4h-1.74l.86-4h-4.2l-.86 4h-1.74l.86-4h-3.14v-1.6h3.48l.76-3.6h-3.1v-1.6h3.44l.86-4h1.74l-.86 4h4.2l.86-4h1.74l-.86 4h2.78v1.6h-3.12zm-1.74 0h-4.2l-.76 3.6h4.2l.76-3.6zm15.377-4.74v1.48h-6.06v4.7h4.92v1.48h-4.92V247h-1.82v-13.94h7.88zm10.078 0v1.48h-6.06v4.7h4.92v1.48h-4.92V247h-1.82v-13.94h7.88zm10.078 0v1.48h-6.06v4.7h4.92v1.48h-4.92V247h-1.82v-13.94h7.88zm10.078 0v1.48h-6.06v4.7h4.92v1.48h-4.92V247h-1.82v-13.94h7.88zm10.078 0v1.48h-6.06v4.7h4.92v1.48h-4.92V247h-1.82v-13.94h7.88zm10.079 0v1.48h-6.06v4.7h4.92v1.48h-4.92V247h-1.82v-13.94h7.88z" fill="#000"/>
</svg>
