<svg width="360" height="699" viewBox="0 0 360 699" fill="none" xmlns="http://www.w3.org/2000/svg">
    <g filter="url(#dksaetny9a)">
        <rect x="20" y="12" width="320" height="659" rx="10" fill="#F7F5F2"/>
        <mask id="62m8atoqbb" maskUnits="userSpaceOnUse" x="20" y="12" width="320" height="32" fill="#000">
            <path fill="#fff" d="M20 12h320v32H20z"/>
            <path d="M20 12h320v30H20V12z"/>
        </mask>
        <path d="M20 12h320v30H20V12z" fill="#33454F"/>
        <path d="M340 40H20v4h320v-4z" fill="#F5AD52" mask="url(#62m8atoqbb)"/>
        <circle cx="37" cy="27" r="7" fill="#F5AD52"/>
        <circle cx="61" cy="27" r="7" fill="#F7F5F2"/>
        <circle cx="85" cy="27" r="7" fill="#F7F5F2"/>
        <path d="M51.54 150.086v-11.57h1.538v1.593c.63-1.187 1.576-1.781 2.836-1.781 1.02 0 1.823.373 2.406 1.117.589.745.883 1.763.883 3.055 0 1.406-.333 2.542-1 3.406-.661.86-1.534 1.289-2.617 1.289-1.005 0-1.841-.385-2.508-1.156v4.047H51.54zm1.538-5.109c.792.708 1.547 1.062 2.266 1.062 1.479 0 2.218-1.128 2.218-3.383 0-1.989-.656-2.984-1.968-2.984-.86 0-1.698.466-2.516 1.398v3.907zm12.02 2.218c-1.214 0-2.183-.401-2.907-1.203-.724-.807-1.086-1.885-1.086-3.234 0-1.365.362-2.443 1.086-3.235.73-.796 1.716-1.195 2.961-1.195 1.245 0 2.23.399 2.953 1.195.73.792 1.094 1.865 1.094 3.219 0 1.386-.364 2.474-1.094 3.266-.729.791-1.731 1.187-3.008 1.187zm.023-1.156c1.63 0 2.445-1.099 2.445-3.297 0-2.172-.804-3.258-2.414-3.258-1.604 0-2.406 1.092-2.406 3.274 0 2.187.792 3.281 2.375 3.281zm8.894 1.156c-.703 0-1.557-.164-2.562-.492v-1.414c1.005.5 1.88.75 2.625.75.442 0 .81-.12 1.101-.359.292-.24.438-.539.438-.899 0-.526-.409-.961-1.227-1.304l-.898-.383c-1.328-.552-1.992-1.347-1.992-2.383 0-.74.26-1.32.78-1.742.527-.427 1.246-.641 2.157-.641.474 0 1.06.065 1.758.195l.32.063v1.281c-.86-.255-1.541-.383-2.047-.383-.99 0-1.484.36-1.484 1.078 0 .464.375.855 1.125 1.172l.742.313c.839.354 1.433.729 1.781 1.125.35.39.524.88.524 1.469 0 .744-.294 1.356-.883 1.836-.588.479-1.341.718-2.258.718zm6.067-.195v-8.484h1.539V147h-1.54zm0-10.023v-1.539h1.539v1.539h-1.54zm7.331 10.218c-.78 0-1.39-.224-1.828-.672-.437-.447-.656-1.07-.656-1.867v-4.984h-1.062v-1.156h1.062v-1.539l1.54-.149v1.688h2.218v1.156h-2.219v4.703c0 1.109.48 1.664 1.438 1.664.203 0 .45-.034.742-.101V147c-.474.13-.886.195-1.235.195zm3.598-.195v-8.484h1.539V147h-1.54zm0-10.023v-1.539h1.539v1.539h-1.54zm8.105 10.218c-1.213 0-2.182-.401-2.906-1.203-.724-.807-1.086-1.885-1.086-3.234 0-1.365.362-2.443 1.086-3.235.73-.796 1.716-1.195 2.96-1.195 1.246 0 2.23.399 2.954 1.195.729.792 1.094 1.865 1.094 3.219 0 1.386-.365 2.474-1.094 3.266-.729.791-1.732 1.187-3.008 1.187zm.024-1.156c1.63 0 2.445-1.099 2.445-3.297 0-2.172-.805-3.258-2.414-3.258-1.604 0-2.406 1.092-2.406 3.274 0 2.187.791 3.281 2.375 3.281zm6.644.961v-8.484h1.539v1.593c.813-1.187 1.807-1.781 2.984-1.781.735 0 1.321.234 1.758.703.438.464.657 1.089.657 1.875V147h-1.54v-5.594c0-.63-.093-1.078-.281-1.344-.182-.27-.487-.406-.914-.406-.943 0-1.831.617-2.664 1.852V147h-1.539zm10.316 0v-1.539h1.539V147H116.1zm0-6.938v-1.546h1.539v1.546H116.1zm78.1 9.446v-.578c.37-.193.555-.776.555-1.75V147h-.555v-1.539h1.539v1.297c0 1.578-.513 2.495-1.539 2.75zm0-9.446v-1.546h1.539v1.546H194.2zM52.523 173l-2.43-8.484h1.509l1.859 6.57 2.008-6.57h1.539l1.758 6.57 2.132-6.57h1.32L59.454 173h-1.547l-1.797-6.57-2.03 6.57h-1.556zm11.504 0v-8.484h1.54V173h-1.54zm0-10.023v-1.539h1.54v1.539h-1.54zM74.257 173v-1.594c-.625 1.193-1.567 1.789-2.828 1.789-1.02 0-1.825-.372-2.414-1.117-.583-.745-.875-1.763-.875-3.055 0-1.411.331-2.546.992-3.406.667-.859 1.542-1.289 2.625-1.289 1.006 0 1.839.386 2.5 1.156v-4.82h1.547V173h-1.547zm0-6.461c-.796-.703-1.552-1.055-2.265-1.055-1.474 0-2.211 1.128-2.211 3.383 0 1.985.656 2.977 1.969 2.977.854 0 1.69-.466 2.507-1.399v-3.906zm7.34 6.656c-.781 0-1.39-.224-1.828-.672-.437-.447-.656-1.07-.656-1.867v-4.984H78.05v-1.156h1.063v-1.539l1.539-.149v1.688h2.219v1.156h-2.22v4.703c0 1.109.48 1.664 1.438 1.664.204 0 .45-.034.743-.101V173c-.474.13-.886.195-1.235.195zm3.598-.195v-12.336h1.539v5.445c.812-1.187 1.807-1.781 2.984-1.781.734 0 1.32.234 1.758.703.437.464.656 1.089.656 1.875V173h-1.539v-5.594c0-.63-.094-1.078-.281-1.344-.182-.27-.487-.406-.914-.406-.943 0-1.83.617-2.664 1.852V173h-1.54zm10.316 0v-1.539h1.539V173h-1.54zm0-6.938v-1.546h1.539v1.546h-1.54zm10.312 6.852v-1.437c1.104.437 1.974.656 2.609.656.735 0 1.331-.214 1.79-.641.463-.432.695-.989.695-1.672 0-1.625-1.138-2.437-3.414-2.437h-.61v-1.039l.539-.008c2.136 0 3.204-.753 3.204-2.258 0-1.182-.704-1.773-2.11-1.773-.771 0-1.62.216-2.547.648v-1.344c.912-.307 1.797-.461 2.657-.461 2.364 0 3.546.894 3.546 2.68 0 1.36-.804 2.328-2.414 2.906 1.865.433 2.797 1.454 2.797 3.063 0 1.088-.359 1.943-1.078 2.562-.719.62-1.706.93-2.961.93-.713 0-1.614-.125-2.703-.375zm10.285 0v-1.437c1.104.437 1.974.656 2.609.656.735 0 1.331-.214 1.79-.641.463-.432.695-.989.695-1.672 0-1.625-1.138-2.437-3.414-2.437h-.61v-1.039l.539-.008c2.136 0 3.204-.753 3.204-2.258 0-1.182-.704-1.773-2.11-1.773-.771 0-1.62.216-2.547.648v-1.344c.912-.307 1.797-.461 2.657-.461 2.364 0 3.546.894 3.546 2.68 0 1.36-.804 2.328-2.414 2.906 1.865.433 2.797 1.454 2.797 3.063 0 1.088-.359 1.943-1.078 2.562-.719.62-1.706.93-2.961.93-.713 0-1.614-.125-2.703-.375zm11.066.086c.151-.901.365-1.68.641-2.336.281-.656.776-1.557 1.484-2.703l3.157-5.078h-5.953v-1.445h7.421v1.445c-2.963 4.37-4.622 7.742-4.976 10.117h-1.774zm9.418 3.086v-11.57h1.539v1.593c.63-1.187 1.576-1.781 2.836-1.781 1.021 0 1.823.373 2.406 1.117.589.745.883 1.763.883 3.055 0 1.406-.333 2.542-1 3.406-.661.86-1.534 1.289-2.617 1.289-1.005 0-1.841-.385-2.508-1.156v4.047h-1.539zm1.539-5.109c.792.708 1.547 1.062 2.266 1.062 1.479 0 2.219-1.128 2.219-3.383 0-1.989-.657-2.984-1.969-2.984-.86 0-1.698.466-2.516 1.398v3.907zm7.848 2.023 3.226-4.383-3.132-4.101h1.828l2.476 3.265 2.242-3.265h1.5l-2.937 4.304 3.195 4.18h-1.828l-2.555-3.359-2.468 3.359h-1.547zm11.043 2.508v-.578c.369-.193.554-.776.554-1.75V173h-.554v-1.539h1.539v1.297c0 1.578-.513 2.495-1.539 2.75zm0-9.446v-1.546h1.539v1.546h-1.539zM51.539 199v-12.336h1.54v5.445c.812-1.187 1.806-1.781 2.983-1.781.735 0 1.32.234 1.758.703.438.464.657 1.089.657 1.875V199h-1.54v-5.594c0-.63-.093-1.078-.28-1.344-.183-.27-.488-.406-.915-.406-.942 0-1.83.617-2.664 1.852V199H51.54zm16.316-.273c-1.03.312-1.914.468-2.648.468-1.25 0-2.271-.414-3.063-1.242-.786-.833-1.18-1.911-1.18-3.234 0-1.287.347-2.341 1.04-3.164.698-.823 1.588-1.235 2.672-1.235 1.026 0 1.817.365 2.375 1.094.562.729.843 1.766.843 3.109l-.007.477h-5.352c.224 2.016 1.21 3.023 2.96 3.023.642 0 1.428-.171 2.36-.515v1.219zm-5.25-4.883h3.742c0-1.578-.588-2.367-1.765-2.367-1.182 0-1.841.789-1.977 2.367zM70.718 199v-8.484h1.54V199h-1.54zm0-10.023v-1.539h1.54v1.539h-1.54zm4.817 12.843.18-1.336c.89.422 1.768.633 2.632.633 1.735 0 2.602-.919 2.602-2.758v-1.336c-.568 1.188-1.5 1.782-2.797 1.782-1.016 0-1.823-.37-2.422-1.11-.599-.739-.898-1.737-.898-2.992 0-1.292.34-2.344 1.023-3.156.682-.813 1.565-1.219 2.648-1.219.948 0 1.763.386 2.446 1.156v-.968h1.547v6.172c0 1.328-.07 2.309-.211 2.945-.136.64-.394 1.164-.774 1.57-.672.714-1.716 1.07-3.133 1.07-.99 0-1.937-.151-2.843-.453zm5.414-5.758v-3.523c-.677-.703-1.414-1.055-2.211-1.055-.709 0-1.263.284-1.664.852-.401.568-.602 1.346-.602 2.336 0 1.859.654 2.789 1.961 2.789.89 0 1.73-.466 2.516-1.399zM85.648 199v-12.336h1.539v5.445c.812-1.187 1.807-1.781 2.984-1.781.735 0 1.32.234 1.758.703.438.464.656 1.089.656 1.875V199h-1.539v-5.594c0-.63-.094-1.078-.281-1.344-.182-.27-.487-.406-.914-.406-.943 0-1.83.617-2.664 1.852V199h-1.54zm12.644.195c-.781 0-1.39-.224-1.828-.672-.437-.447-.656-1.07-.656-1.867v-4.984h-1.063v-1.156h1.063v-1.539l1.539-.149v1.688h2.219v1.156h-2.22v4.703c0 1.109.48 1.664 1.438 1.664.203 0 .45-.034.743-.101V199c-.474.13-.886.195-1.235.195zm3.816-.195v-1.539h1.539V199h-1.539zm0-6.938v-1.546h1.539v1.546h-1.539zm10.313 6.852v-1.437c1.104.437 1.974.656 2.609.656.734 0 1.331-.214 1.789-.641.464-.432.695-.989.695-1.672 0-1.625-1.138-2.437-3.414-2.437h-.609v-1.039l.539-.008c2.135 0 3.203-.753 3.203-2.258 0-1.182-.703-1.773-2.109-1.773-.771 0-1.62.216-2.547.648v-1.344c.911-.307 1.797-.461 2.656-.461 2.365 0 3.547.894 3.547 2.68 0 1.36-.805 2.328-2.414 2.906 1.865.433 2.797 1.454 2.797 3.063 0 1.088-.36 1.943-1.078 2.562-.719.62-1.706.93-2.961.93-.714 0-1.615-.125-2.703-.375zm10.48.016v-1.305c.979.339 1.812.508 2.5.508.958 0 1.706-.406 2.242-1.219.542-.818.813-1.953.813-3.406-.782.963-1.67 1.445-2.664 1.445-.974 0-1.8-.357-2.477-1.07-.677-.719-1.016-1.594-1.016-2.625 0-1.182.36-2.162 1.079-2.938.723-.781 1.632-1.172 2.726-1.172 1.255 0 2.245.506 2.969 1.516.724 1.005 1.086 2.383 1.086 4.133 0 1.989-.443 3.57-1.328 4.742-.881 1.167-2.073 1.75-3.578 1.75-.605 0-1.389-.12-2.352-.359zm.937-7.977c0 .896.198 1.602.594 2.117.401.516.948.774 1.641.774a2.31 2.31 0 0 0 1.664-.664c.463-.443.695-.977.695-1.602 0-.984-.224-1.776-.672-2.375-.442-.604-1.026-.906-1.75-.906-.672 0-1.203.239-1.593.719-.386.474-.579 1.119-.579 1.937zm9.934 8.047c.151-.901.364-1.68.64-2.336.282-.656.777-1.557 1.485-2.703l3.156-5.078H133.1v-1.445h7.422v1.445c-2.964 4.37-4.623 7.742-4.977 10.117h-1.773zm9.418 3.086v-11.57h1.539v1.593c.63-1.187 1.575-1.781 2.836-1.781 1.021 0 1.823.373 2.406 1.117.588.745.883 1.763.883 3.055 0 1.406-.334 2.542-1 3.406-.662.86-1.534 1.289-2.617 1.289-1.006 0-1.842-.385-2.508-1.156v4.047h-1.539zm1.539-5.109c.791.708 1.547 1.062 2.265 1.062 1.48 0 2.219-1.128 2.219-3.383 0-1.989-.656-2.984-1.969-2.984-.859 0-1.698.466-2.515 1.398v3.907zm7.847 2.023 3.227-4.383-3.133-4.101h1.828l2.477 3.265 2.242-3.265h1.5l-2.938 4.304 3.196 4.18h-1.828l-2.555-3.359-2.469 3.359h-1.547zm11.043 2.508v-.578c.37-.193.555-.776.555-1.75V199h-.555v-1.539h1.539v1.297c0 1.578-.513 2.495-1.539 2.75zm0-9.446v-1.546h1.539v1.546h-1.539zM51.539 225v-12.336h1.54V225h-1.54zm11.004-.273c-1.031.312-1.914.468-2.649.468-1.25 0-2.27-.414-3.062-1.242-.787-.833-1.18-1.911-1.18-3.234 0-1.287.346-2.341 1.04-3.164.697-.823 1.588-1.235 2.671-1.235 1.026 0 1.818.365 2.375 1.094.563.729.844 1.766.844 3.109l-.008.477h-5.352c.224 2.016 1.211 3.023 2.961 3.023.641 0 1.428-.171 2.36-.515v1.219zm-5.25-4.883h3.742c0-1.578-.588-2.367-1.766-2.367-1.182 0-1.84.789-1.976 2.367zm9.949-2.172V225h-1.547v-7.328h-1.203v-1.156h1.203V215.5c0-2.021.922-3.031 2.766-3.031.515 0 1.101.086 1.757.258v1.218c-.692-.213-1.247-.32-1.664-.32-.505 0-.851.122-1.039.367-.182.24-.273.688-.273 1.344v1.18h2.117v1.156h-2.117zm6.761 7.523c-.78 0-1.39-.224-1.828-.672-.437-.447-.656-1.07-.656-1.867v-4.984h-1.062v-1.156h1.062v-1.539l1.54-.149v1.688h2.218v1.156h-2.219v4.703c0 1.109.48 1.664 1.438 1.664.203 0 .45-.034.742-.101V225c-.474.13-.886.195-1.235.195zM77.82 225v-1.539h1.539V225h-1.54zm0-6.938v-1.546h1.539v1.546h-1.54zM88.913 225v-1.156h2.313v-9.125l-2.313.578v-1.188l3.86-.961v10.696h2.312V225h-6.172zm9.7-.07v-1.305c.978.339 1.812.508 2.499.508.959 0 1.706-.406 2.242-1.219.542-.818.813-1.953.813-3.406-.781.963-1.669 1.445-2.664 1.445-.974 0-1.8-.357-2.477-1.07-.677-.719-1.015-1.594-1.015-2.625 0-1.182.359-2.162 1.078-2.938.724-.781 1.633-1.172 2.726-1.172 1.256 0 2.245.506 2.969 1.516.724 1.005 1.086 2.383 1.086 4.133 0 1.989-.443 3.57-1.328 4.742-.88 1.167-2.073 1.75-3.578 1.75-.604 0-1.388-.12-2.352-.359zm.937-7.977c0 .896.198 1.602.593 2.117.401.516.948.774 1.641.774a2.31 2.31 0 0 0 1.664-.664c.464-.443.695-.977.695-1.602 0-.984-.224-1.776-.671-2.375-.443-.604-1.026-.906-1.75-.906-.672 0-1.204.239-1.594.719-.386.474-.578 1.119-.578 1.937zm9.066 11.133v-11.57h1.539v1.593c.63-1.187 1.576-1.781 2.836-1.781 1.021 0 1.823.373 2.406 1.117.589.745.883 1.763.883 3.055 0 1.406-.333 2.542-1 3.406-.661.86-1.534 1.289-2.617 1.289-1.005 0-1.841-.385-2.508-1.156v4.047h-1.539zm1.539-5.109c.792.708 1.547 1.062 2.266 1.062 1.479 0 2.218-1.128 2.218-3.383 0-1.989-.656-2.984-1.968-2.984-.86 0-1.698.466-2.516 1.398v3.907zm7.848 2.023 3.226-4.383-3.133-4.101h1.828l2.477 3.265 2.242-3.265h1.5l-2.937 4.304 3.195 4.18h-1.828l-2.555-3.359-2.469 3.359h-1.546zm11.042 2.508v-.578c.37-.193.555-.776.555-1.75V225h-.555v-1.539h1.539v1.297c0 1.578-.513 2.495-1.539 2.75zm0-9.446v-1.546h1.539v1.546h-1.539zm-74.96 33.133c-.78 0-1.39-.224-1.827-.672-.438-.447-.656-1.07-.656-1.867v-4.984h-1.063v-1.156h1.063v-1.539l1.539-.149v1.688h2.218v1.156h-2.218v4.703c0 1.109.479 1.664 1.437 1.664.203 0 .45-.034.742-.101V251c-.474.13-.885.195-1.234.195zm6.919 0c-1.214 0-2.182-.401-2.907-1.203-.724-.807-1.085-1.885-1.085-3.234 0-1.365.361-2.443 1.085-3.235.73-.796 1.717-1.195 2.961-1.195 1.245 0 2.23.399 2.954 1.195.729.792 1.093 1.865 1.093 3.219 0 1.386-.364 2.474-1.093 3.266-.73.791-1.732 1.187-3.008 1.187zm.023-1.156c1.63 0 2.445-1.099 2.445-3.297 0-2.172-.804-3.258-2.414-3.258-1.604 0-2.406 1.092-2.406 3.274 0 2.187.792 3.281 2.375 3.281zm6.645 4.047v-11.57h1.539v1.593c.63-1.187 1.575-1.781 2.836-1.781 1.02 0 1.823.373 2.406 1.117.588.745.883 1.763.883 3.055 0 1.406-.334 2.542-1 3.406-.662.86-1.534 1.289-2.618 1.289-1.005 0-1.84-.385-2.507-1.156v4.047h-1.54zm1.539-5.109c.791.708 1.546 1.062 2.265 1.062 1.48 0 2.219-1.128 2.219-3.383 0-1.989-.656-2.984-1.969-2.984-.86 0-1.698.466-2.515 1.398v3.907zM78.128 251v-1.539h1.54V251h-1.54zm0-6.938v-1.546h1.54v1.546h-1.54zM89.222 251v-1.156h2.312v-9.125l-2.312.578v-1.188l3.86-.961v10.696h2.312V251h-6.172zm10.285 0c.15-.901.364-1.68.64-2.336.282-.656.777-1.557 1.485-2.703l3.156-5.078h-5.953v-1.445h7.422v1.445c-2.964 4.37-4.623 7.742-4.977 10.117h-1.773zm10.629-5.992c.734-.953 1.658-1.43 2.773-1.43 1.01 0 1.836.336 2.477 1.008.645.667.968 1.523.968 2.57 0 1.203-.362 2.193-1.086 2.969-.718.776-1.632 1.164-2.742 1.164-1.276 0-2.273-.513-2.992-1.539-.719-1.026-1.078-2.451-1.078-4.273 0-2.006.411-3.563 1.234-4.672.828-1.11 1.992-1.664 3.492-1.664.688 0 1.547.145 2.579.437v1.344c-1.089-.417-1.98-.625-2.672-.625-1.969 0-2.953 1.57-2.953 4.711zm4.671 2.492c0-.875-.197-1.562-.593-2.062-.391-.5-.935-.75-1.633-.75-.651 0-1.211.218-1.68.656-.469.437-.703.963-.703 1.578 0 .969.221 1.747.664 2.336.448.583 1.039.875 1.774.875.661 0 1.187-.237 1.578-.711.396-.479.593-1.12.593-1.922zm8.887 3.5v-3.273h-5.203v-1.165l5.203-7.124h1.445v7.031h1.547v1.258h-1.547V251h-1.445zm-3.695-4.531h3.797v-5.141l-3.797 5.141zm9.496 7.617v-11.57h1.539v1.593c.63-1.187 1.575-1.781 2.836-1.781 1.021 0 1.823.373 2.406 1.117.588.745.883 1.763.883 3.055 0 1.406-.334 2.542-1 3.406-.662.86-1.534 1.289-2.617 1.289-1.006 0-1.842-.385-2.508-1.156v4.047h-1.539zm1.539-5.109c.791.708 1.547 1.062 2.265 1.062 1.48 0 2.219-1.128 2.219-3.383 0-1.989-.656-2.984-1.969-2.984-.859 0-1.698.466-2.515 1.398v3.907zm7.847 2.023 3.227-4.383-3.133-4.101h1.828l2.477 3.265 2.242-3.265h1.5l-2.938 4.304 3.196 4.18h-1.828l-2.555-3.359-2.469 3.359h-1.547zm11.043 2.508v-.578c.37-.193.555-.776.555-1.75V251h-.555v-1.539h1.539v1.297c0 1.578-.513 2.495-1.539 2.75zm0-9.446v-1.546h1.539v1.546h-1.539zm-98.416 61.25 4.164-13.874h1.21l-4.163 13.874h-1.211zM65.05 292.93l.351 1.101-2.367.516a.544.544 0 0 0 .023-.117.672.672 0 0 0-.226-.524l2.219-.976zm-.43 3.523-.938.68-1.226-2.086c.265-.031.448-.164.547-.399l1.617 1.805zm-3.484.68-.938-.68 1.61-1.805a.643.643 0 0 0 .546.399l-1.218 2.086zm-1.727-3.102.36-1.101 2.218.976a.657.657 0 0 0-.21.641l-2.368-.516zm2.422-2.593h1.156l-.242 2.406a.625.625 0 0 0-.336-.086.625.625 0 0 0-.336.086l-.242-2.406zm11.359 14.648v-11.57h1.539v1.593c.63-1.187 1.575-1.781 2.836-1.781 1.02 0 1.823.373 2.406 1.117.589.745.883 1.763.883 3.055 0 1.406-.333 2.542-1 3.406-.662.86-1.534 1.289-2.617 1.289-1.005 0-1.841-.385-2.508-1.156v4.047h-1.54zm1.539-5.109c.792.708 1.547 1.062 2.266 1.062 1.479 0 2.218-1.128 2.218-3.383 0-1.989-.656-2.984-1.968-2.984-.86 0-1.698.466-2.516 1.398v3.907zm13.539-2.024v-1.156h6.937v1.156H88.27zM103.3 303v-8.484h1.539v1.593c.75-1.187 1.713-1.781 2.89-1.781 1.136 0 1.909.594 2.321 1.781.729-1.192 1.677-1.789 2.843-1.789.75 0 1.331.222 1.743.664.411.438.617 1.052.617 1.844V303h-1.547v-5.93c0-.968-.383-1.453-1.149-1.453-.796 0-1.632.565-2.507 1.695V303h-1.547v-5.93c0-.974-.391-1.461-1.172-1.461-.776 0-1.607.568-2.492 1.703V303H103.3zm18.417.195c-1.213 0-2.182-.401-2.906-1.203-.724-.807-1.086-1.885-1.086-3.234 0-1.365.362-2.443 1.086-3.235.729-.796 1.716-1.195 2.961-1.195 1.245 0 2.229.399 2.953 1.195.729.792 1.094 1.865 1.094 3.219 0 1.386-.365 2.474-1.094 3.266-.729.791-1.731 1.187-3.008 1.187zm.024-1.156c1.63 0 2.445-1.099 2.445-3.297 0-2.172-.804-3.258-2.414-3.258-1.604 0-2.406 1.092-2.406 3.274 0 2.187.792 3.281 2.375 3.281zm6.644 1.055v-12.43h1.539v5.445c.631-1.187 1.576-1.781 2.836-1.781 1.021 0 1.823.373 2.407 1.117.588.745.882 1.763.882 3.055 0 1.406-.333 2.542-1 3.406-.661.86-1.533 1.289-2.617 1.289-1.005 0-1.841-.385-2.508-1.156l-.187 1.055h-1.352zm1.539-2.117c.792.708 1.547 1.062 2.266 1.062 1.479 0 2.219-1.128 2.219-3.383 0-1.989-.656-2.984-1.969-2.984-.859 0-1.698.466-2.516 1.398v3.907zm8.699 2.023v-8.484h1.539V303h-1.539zm0-10.023v-1.539h1.539v1.539h-1.539zM143.408 303v-12.336h1.54V303h-1.54zm11.004-.273c-1.031.312-1.914.468-2.648.468-1.25 0-2.271-.414-3.063-1.242-.786-.833-1.179-1.911-1.179-3.234 0-1.287.346-2.341 1.039-3.164.698-.823 1.588-1.235 2.671-1.235 1.027 0 1.818.365 2.375 1.094.563.729.844 1.766.844 3.109l-.008.477h-5.351c.224 2.016 1.211 3.023 2.961 3.023.64 0 1.427-.171 2.359-.515v1.219zm-5.25-4.883h3.742c0-1.578-.588-2.367-1.765-2.367-1.183 0-1.841.789-1.977 2.367zm18.297-4.914.351 1.101-2.367.516a.532.532 0 0 0 .024-.117.673.673 0 0 0-.227-.524l2.219-.976zm-.43 3.523-.937.68-1.227-2.086c.266-.031.448-.164.547-.399l1.617 1.805zm-3.484.68-.938-.68 1.61-1.805a.642.642 0 0 0 .546.399l-1.218 2.086zm-1.727-3.102.359-1.101 2.219.976a.656.656 0 0 0-.211.641l-2.367-.516zm2.422-2.593h1.156l-.242 2.406a.627.627 0 0 0-.336-.086.627.627 0 0 0-.336.086l-.242-2.406zm6.105 13.874 4.164-13.874h1.211l-4.164 13.874h-1.211zm-116.97 42.36V355h-1.547v-7.328h-1.203v-1.156h1.203V345.5c0-2.021.922-3.031 2.766-3.031.515 0 1.101.086 1.758.258v1.218c-.693-.213-1.248-.32-1.664-.32-.506 0-.852.122-1.04.367-.182.24-.273.688-.273 1.344v1.18h2.117v1.156h-2.117zm7.535 7.523c-1.213 0-2.182-.401-2.906-1.203-.724-.807-1.086-1.885-1.086-3.234 0-1.365.362-2.443 1.086-3.235.729-.796 1.716-1.195 2.96-1.195 1.245 0 2.23.399 2.954 1.195.729.792 1.094 1.865 1.094 3.219 0 1.386-.365 2.474-1.094 3.266-.73.791-1.732 1.187-3.008 1.187zm.023-1.156c1.63 0 2.446-1.099 2.446-3.297 0-2.172-.805-3.258-2.414-3.258-1.605 0-2.407 1.092-2.407 3.274 0 2.187.792 3.281 2.375 3.281zm6.645.961v-8.484h1.539v1.593c.812-1.187 1.807-1.781 2.984-1.781.735 0 1.32.234 1.758.703.438.464.656 1.089.656 1.875V355h-1.539v-5.594c0-.63-.094-1.078-.281-1.344-.182-.27-.487-.406-.914-.406-.943 0-1.83.617-2.664 1.852V355h-1.54zm12.644.195c-.781 0-1.39-.224-1.828-.672-.437-.447-.656-1.07-.656-1.867v-4.984h-1.063v-1.156h1.063v-1.539l1.539-.149v1.688h2.219v1.156h-2.22v4.703c0 1.109.48 1.664 1.438 1.664.204 0 .45-.034.743-.101V355c-.474.13-.886.195-1.235.195zm3.215-4.242v-1.156h6.937v1.156h-6.937zm11.644-3.281V355h-1.547v-7.328h-1.203v-1.156h1.203V345.5c0-2.021.922-3.031 2.766-3.031.516 0 1.102.086 1.758.258v1.218c-.693-.213-1.248-.32-1.664-.32-.506 0-.852.122-1.04.367-.182.24-.273.688-.273 1.344v1.18h2.117v1.156h-2.117zm8.59 6.25c-.922.849-1.81 1.273-2.664 1.273-.703 0-1.287-.218-1.75-.656-.464-.443-.695-1-.695-1.672 0-.927.388-1.638 1.164-2.133.781-.5 1.898-.75 3.351-.75h.367v-1.023c0-.984-.505-1.477-1.515-1.477-.813 0-1.69.25-2.633.75v-1.273c1.036-.422 2.008-.633 2.914-.633.948 0 1.646.214 2.094.641.453.427.679 1.091.679 1.992v3.844c0 .88.271 1.32.813 1.32.068 0 .167-.01.297-.031l.109.851c-.349.167-.734.25-1.156.25-.719 0-1.177-.424-1.375-1.273zm-.227-.836v-2.195l-.515-.016c-.844 0-1.526.161-2.047.484-.521.318-.781.737-.781 1.258 0 .37.13.682.39.938.261.255.578.383.953.383.641 0 1.308-.284 2-.852zM108.3 355v-8.484h1.539v1.593c.75-1.187 1.713-1.781 2.89-1.781 1.136 0 1.909.594 2.321 1.781.729-1.192 1.677-1.789 2.843-1.789.75 0 1.331.222 1.743.664.411.438.617 1.052.617 1.844V355h-1.547v-5.93c0-.968-.383-1.453-1.149-1.453-.796 0-1.632.565-2.507 1.695V355h-1.547v-5.93c0-.974-.391-1.461-1.172-1.461-.776 0-1.607.568-2.492 1.703V355H108.3zm15.097 0v-8.484h1.539V355h-1.539zm0-10.023v-1.539h1.539v1.539h-1.539zM128.182 355v-12.336h1.539V355h-1.539zm5.277 3.086 1.375-3.086-3.281-8.484h1.664l2.43 6.39 2.594-6.39h1.453l-4.633 11.57h-1.602zm8.246-3.086v-1.539h1.539V355h-1.539zm0-6.938v-1.546h1.539v1.546h-1.539zm9.938-1.156-.383-4.242h1.929l-.39 4.242h-1.156zm5.574 8.094-2.977-11.562h1.578l2.367 9.132 2.18-9.132h1.578l2.063 9.007 2.546-9.007h1.336L164.646 355h-1.633l-2.039-8.914-2.132 8.914h-1.625zm15.714.195c-1.213 0-2.182-.401-2.906-1.203-.724-.807-1.086-1.885-1.086-3.234 0-1.365.362-2.443 1.086-3.235.729-.796 1.716-1.195 2.961-1.195 1.245 0 2.229.399 2.953 1.195.729.792 1.094 1.865 1.094 3.219 0 1.386-.365 2.474-1.094 3.266-.729.791-1.732 1.187-3.008 1.187zm.024-1.156c1.63 0 2.445-1.099 2.445-3.297 0-2.172-.805-3.258-2.414-3.258-1.604 0-2.406 1.092-2.406 3.274 0 2.187.791 3.281 2.375 3.281zm6.644.961v-8.484h1.539v1.593c.609-1.187 1.495-1.781 2.656-1.781.157 0 .321.013.493.039v1.438a2.253 2.253 0 0 0-.704-.133c-.974 0-1.789.578-2.445 1.734V355h-1.539zm6.707 0v-12.336h1.539v7.969l3.594-4.117h1.656l-3.43 3.961 4.141 4.523h-1.969l-3.992-4.352V355h-1.539zm16.961.289c-.776 0-1.769-.169-2.977-.508v-1.625c1.302.604 2.372.906 3.211.906.646 0 1.164-.169 1.555-.507.395-.339.593-.784.593-1.336 0-.453-.13-.839-.39-1.157-.255-.317-.729-.671-1.422-1.062l-.797-.461c-.984-.562-1.68-1.091-2.086-1.586a2.704 2.704 0 0 1-.602-1.742c0-.891.323-1.622.969-2.195.646-.578 1.469-.868 2.469-.868.891 0 1.831.149 2.82.446v1.5c-1.218-.479-2.127-.719-2.726-.719-.568 0-1.037.151-1.407.453-.369.302-.554.682-.554 1.141 0 .385.135.726.406 1.023.271.297.766.651 1.484 1.063l.829.468c1 .568 1.697 1.105 2.093 1.61.396.505.594 1.112.594 1.82 0 1.005-.372 1.813-1.117 2.422-.74.609-1.721.914-2.945.914zm10.941-1.367c-.922.849-1.81 1.273-2.664 1.273-.703 0-1.287-.218-1.75-.656-.464-.443-.696-1-.696-1.672 0-.927.388-1.638 1.164-2.133.782-.5 1.899-.75 3.352-.75h.367v-1.023c0-.984-.505-1.477-1.515-1.477-.813 0-1.69.25-2.633.75v-1.273c1.036-.422 2.008-.633 2.914-.633.948 0 1.646.214 2.094.641.453.427.679 1.091.679 1.992v3.844c0 .88.271 1.32.813 1.32.068 0 .166-.01.297-.031l.109.851c-.349.167-.734.25-1.156.25-.719 0-1.177-.424-1.375-1.273zm-.227-.836v-2.195l-.515-.016c-.844 0-1.526.161-2.047.484-.521.318-.782.737-.782 1.258 0 .37.131.682.391.938.261.255.578.383.953.383.641 0 1.308-.284 2-.852zm4.856 1.914v-8.484h1.539v1.593c.812-1.187 1.807-1.781 2.984-1.781.734 0 1.32.234 1.758.703.437.464.656 1.089.656 1.875V355h-1.539v-5.594c0-.63-.094-1.078-.281-1.344-.183-.27-.487-.406-.914-.406-.943 0-1.831.617-2.664 1.852V355h-1.539zm12.347.195c-.703 0-1.557-.164-2.562-.492v-1.414c1.005.5 1.88.75 2.625.75.442 0 .809-.12 1.101-.359.292-.24.438-.539.438-.899 0-.526-.409-.961-1.227-1.304l-.898-.383c-1.328-.552-1.993-1.347-1.993-2.383 0-.74.261-1.32.782-1.742.526-.427 1.244-.641 2.156-.641.474 0 1.06.065 1.758.195l.32.063v1.281c-.859-.255-1.542-.383-2.047-.383-.989 0-1.484.36-1.484 1.078 0 .464.375.855 1.125 1.172l.742.313c.839.354 1.432.729 1.781 1.125.349.39.524.88.524 1.469 0 .744-.295 1.356-.883 1.836-.589.479-1.341.718-2.258.718zm5.777-8.289-.383-4.242h1.93l-.391 4.242h-1.156zm4.34 10.602v-.578c.37-.193.555-.776.555-1.75V355h-.555v-1.539h1.539v1.297c0 1.578-.513 2.495-1.539 2.75zm0-9.446v-1.546h1.539v1.546h-1.539zm-187.926 25.61V381h-1.547v-7.328h-1.203v-1.156h1.203V371.5c0-2.021.922-3.031 2.766-3.031.515 0 1.101.086 1.758.258v1.218c-.693-.213-1.248-.32-1.664-.32-.506 0-.852.122-1.04.367-.182.24-.273.688-.273 1.344v1.18h2.117v1.156h-2.117zm7.535 7.523c-1.213 0-2.182-.401-2.906-1.203-.724-.807-1.086-1.885-1.086-3.234 0-1.365.362-2.443 1.086-3.235.729-.796 1.716-1.195 2.96-1.195 1.245 0 2.23.399 2.954 1.195.729.792 1.094 1.865 1.094 3.219 0 1.386-.365 2.474-1.094 3.266-.73.791-1.732 1.187-3.008 1.187zm.023-1.156c1.63 0 2.446-1.099 2.446-3.297 0-2.172-.805-3.258-2.414-3.258-1.605 0-2.407 1.092-2.407 3.274 0 2.187.792 3.281 2.375 3.281zm6.645.961v-8.484h1.539v1.593c.812-1.187 1.807-1.781 2.984-1.781.735 0 1.32.234 1.758.703.438.464.656 1.089.656 1.875V381h-1.539v-5.594c0-.63-.094-1.078-.281-1.344-.182-.27-.487-.406-.914-.406-.943 0-1.83.617-2.664 1.852V381h-1.54zm12.644.195c-.781 0-1.39-.224-1.828-.672-.437-.447-.656-1.07-.656-1.867v-4.984h-1.063v-1.156h1.063v-1.539l1.539-.149v1.688h2.219v1.156h-2.22v4.703c0 1.109.48 1.664 1.438 1.664.204 0 .45-.034.743-.101V381c-.474.13-.886.195-1.235.195zm3.215-4.242v-1.156h6.937v1.156h-6.937zm12.058 4.242c-.703 0-1.557-.164-2.562-.492v-1.414c1.005.5 1.88.75 2.625.75.442 0 .81-.12 1.101-.359.292-.24.438-.539.438-.899 0-.526-.409-.961-1.227-1.304l-.898-.383c-1.328-.552-1.992-1.347-1.992-2.383 0-.74.26-1.32.78-1.742.527-.427 1.246-.641 2.157-.641.474 0 1.06.065 1.758.195l.32.063v1.281c-.86-.255-1.541-.383-2.047-.383-.99 0-1.484.36-1.484 1.078 0 .464.375.855 1.125 1.172l.742.313c.839.354 1.432.729 1.781 1.125.35.39.524.88.524 1.469 0 .744-.294 1.356-.883 1.836-.588.479-1.341.718-2.258.718zm8.613 0c-.781 0-1.39-.224-1.828-.672-.437-.447-.656-1.07-.656-1.867v-4.984h-1.062v-1.156h1.062v-1.539l1.539-.149v1.688h2.219v1.156h-2.219v4.703c0 1.109.479 1.664 1.438 1.664.203 0 .45-.034.742-.101V381c-.474.13-.886.195-1.235.195zm4.09 2.891 1.375-3.086-3.281-8.484h1.664l2.43 6.39 2.593-6.39h1.453l-4.632 11.57h-1.602zm8.027-3.086v-12.336h1.539V381h-1.539zm11.004-.273c-1.031.312-1.914.468-2.648.468-1.25 0-2.271-.414-3.063-1.242-.786-.833-1.18-1.911-1.18-3.234 0-1.287.347-2.341 1.04-3.164.697-.823 1.588-1.235 2.671-1.235 1.026 0 1.818.365 2.375 1.094.563.729.844 1.766.844 3.109l-.008.477h-5.351c.224 2.016 1.211 3.023 2.961 3.023.64 0 1.427-.171 2.359-.515v1.219zm-5.25-4.883h3.742c0-1.578-.588-2.367-1.765-2.367-1.183 0-1.842.789-1.977 2.367zm8.332 5.156v-1.539h1.539V381h-1.539zm0-6.938v-1.546h1.539v1.546h-1.539zM140.537 381v-8.484h1.539v1.593c.813-1.187 1.808-1.781 2.985-1.781.734 0 1.32.234 1.757.703.438.464.657 1.089.657 1.875V381h-1.539v-5.594c0-.63-.094-1.078-.282-1.344-.182-.27-.487-.406-.914-.406-.942 0-1.83.617-2.664 1.852V381h-1.539zm13.418.195c-1.214 0-2.182-.401-2.906-1.203-.724-.807-1.086-1.885-1.086-3.234 0-1.365.362-2.443 1.086-3.235.729-.796 1.716-1.195 2.961-1.195 1.244 0 2.229.399 2.953 1.195.729.792 1.094 1.865 1.094 3.219 0 1.386-.365 2.474-1.094 3.266-.729.791-1.732 1.187-3.008 1.187zm.023-1.156c1.631 0 2.446-1.099 2.446-3.297 0-2.172-.805-3.258-2.414-3.258-1.604 0-2.407 1.092-2.407 3.274 0 2.187.792 3.281 2.375 3.281zm6.645.961v-8.484h1.539v1.593c.609-1.187 1.495-1.781 2.656-1.781.156 0 .32.013.492.039v1.438a2.247 2.247 0 0 0-.703-.133c-.974 0-1.789.578-2.445 1.734V381h-1.539zm6.707 0v-8.484h1.539v1.593c.75-1.187 1.713-1.781 2.89-1.781 1.136 0 1.909.594 2.321 1.781.729-1.192 1.677-1.789 2.843-1.789.75 0 1.331.222 1.743.664.411.438.617 1.052.617 1.844V381h-1.547v-5.93c0-.968-.383-1.453-1.148-1.453-.797 0-1.633.565-2.508 1.695V381h-1.547v-5.93c0-.974-.391-1.461-1.172-1.461-.776 0-1.607.568-2.492 1.703V381h-1.539zm19.472-1.078c-.922.849-1.81 1.273-2.664 1.273-.703 0-1.286-.218-1.75-.656-.463-.443-.695-1-.695-1.672 0-.927.388-1.638 1.164-2.133.781-.5 1.898-.75 3.351-.75h.368v-1.023c0-.984-.506-1.477-1.516-1.477-.813 0-1.69.25-2.633.75v-1.273c1.037-.422 2.008-.633 2.914-.633.948 0 1.646.214 2.094.641.453.427.68 1.091.68 1.992v3.844c0 .88.271 1.32.812 1.32.068 0 .167-.01.297-.031l.109.851c-.349.167-.734.25-1.156.25-.719 0-1.177-.424-1.375-1.273zm-.226-.836v-2.195l-.516-.016c-.844 0-1.526.161-2.047.484-.521.318-.781.737-.781 1.258 0 .37.13.682.39.938.261.255.579.383.954.383.64 0 1.307-.284 2-.852zm4.855 1.914v-12.336h1.539V381h-1.539zm5.004 2.508v-.578c.369-.193.554-.776.554-1.75V381h-.554v-1.539h1.539v1.297c0 1.578-.513 2.495-1.539 2.75zm0-9.446v-1.546h1.539v1.546h-1.539zm-143.06 25.61V407h-1.547v-7.328h-1.203v-1.156h1.203V397.5c0-2.021.922-3.031 2.766-3.031.515 0 1.101.086 1.758.258v1.218c-.693-.213-1.248-.32-1.664-.32-.506 0-.852.122-1.04.367-.182.24-.273.688-.273 1.344v1.18h2.117v1.156h-2.117zm7.535 7.523c-1.213 0-2.182-.401-2.906-1.203-.724-.807-1.086-1.885-1.086-3.234 0-1.365.362-2.443 1.086-3.235.729-.796 1.716-1.195 2.96-1.195 1.245 0 2.23.399 2.954 1.195.729.792 1.094 1.865 1.094 3.219 0 1.386-.365 2.474-1.094 3.266-.73.791-1.732 1.187-3.008 1.187zm.023-1.156c1.63 0 2.446-1.099 2.446-3.297 0-2.172-.805-3.258-2.414-3.258-1.605 0-2.407 1.092-2.407 3.274 0 2.187.792 3.281 2.375 3.281zm6.645.961v-8.484h1.539v1.593c.812-1.187 1.807-1.781 2.984-1.781.735 0 1.32.234 1.758.703.438.464.656 1.089.656 1.875V407h-1.539v-5.594c0-.63-.094-1.078-.281-1.344-.182-.27-.487-.406-.914-.406-.943 0-1.83.617-2.664 1.852V407h-1.54zm12.644.195c-.781 0-1.39-.224-1.828-.672-.437-.447-.656-1.07-.656-1.867v-4.984h-1.063v-1.156h1.063v-1.539l1.539-.149v1.688h2.219v1.156h-2.22v4.703c0 1.109.48 1.664 1.438 1.664.204 0 .45-.034.743-.101V407c-.474.13-.886.195-1.235.195zm3.215-4.242v-1.156h6.937v1.156h-6.937zM94.23 407l-2.43-8.484h1.508l1.86 6.57 2.007-6.57h1.54l1.757 6.57 2.133-6.57h1.32L101.159 407h-1.547l-1.796-6.57-2.032 6.57H94.23zm17.722-.273c-1.031.312-1.914.468-2.648.468-1.25 0-2.271-.414-3.063-1.242-.786-.833-1.179-1.911-1.179-3.234 0-1.287.346-2.341 1.039-3.164.698-.823 1.588-1.235 2.671-1.235 1.027 0 1.818.365 2.375 1.094.563.729.844 1.766.844 3.109l-.008.477h-5.351c.224 2.016 1.211 3.023 2.961 3.023.64 0 1.427-.171 2.359-.515v1.219zm-5.25-4.883h3.742c0-1.578-.588-2.367-1.765-2.367-1.183 0-1.841.789-1.977 2.367zm8.113 5.156v-8.484h1.539V407h-1.539zm0-10.023v-1.539h1.539v1.539h-1.539zm4.817 12.843.179-1.336c.891.422 1.768.633 2.633.633 1.734 0 2.602-.919 2.602-2.758v-1.336c-.568 1.188-1.5 1.782-2.797 1.782-1.016 0-1.823-.37-2.422-1.11-.599-.739-.899-1.737-.899-2.992 0-1.292.342-2.344 1.024-3.156.682-.813 1.565-1.219 2.648-1.219.948 0 1.763.386 2.446 1.156v-.968h1.546v6.172c0 1.328-.07 2.309-.21 2.945-.136.64-.394 1.164-.774 1.57-.672.714-1.716 1.07-3.133 1.07a8.932 8.932 0 0 1-2.843-.453zm5.414-5.758v-3.523c-.677-.703-1.414-1.055-2.211-1.055-.709 0-1.263.284-1.664.852-.401.568-.602 1.346-.602 2.336 0 1.859.654 2.789 1.961 2.789.891 0 1.729-.466 2.516-1.399zm4.699 2.938v-12.336h1.539v5.445c.812-1.187 1.807-1.781 2.984-1.781.735 0 1.32.234 1.758.703.437.464.656 1.089.656 1.875V407h-1.539v-5.594c0-.63-.094-1.078-.281-1.344-.182-.27-.487-.406-.914-.406-.943 0-1.831.617-2.664 1.852V407h-1.539zm12.644.195c-.781 0-1.391-.224-1.828-.672-.438-.447-.656-1.07-.656-1.867v-4.984h-1.063v-1.156h1.063v-1.539l1.539-.149v1.688h2.218v1.156h-2.218v4.703c0 1.109.479 1.664 1.437 1.664.203 0 .451-.034.742-.101V407c-.474.13-.885.195-1.234.195zm3.816-.195v-1.539h1.539V407h-1.539zm0-6.938v-1.546h1.539v1.546h-1.539zM160.916 407v-3.273h-5.203v-1.165l5.203-7.124h1.445v7.031h1.547v1.258h-1.547V407h-1.445zm-3.695-4.531h3.797v-5.141l-3.797 5.141zm12.972 4.82c-1.193 0-2.159-.56-2.898-1.68-.735-1.125-1.102-2.591-1.102-4.398 0-1.823.37-3.289 1.109-4.399.745-1.109 1.724-1.664 2.938-1.664 1.214 0 2.19.555 2.93 1.664.744 1.11 1.117 2.568 1.117 4.376 0 1.854-.373 3.335-1.117 4.445-.74 1.104-1.732 1.656-2.977 1.656zm.016-1.156c1.63 0 2.445-1.656 2.445-4.969 0-3.24-.805-4.859-2.414-4.859-1.604 0-2.406 1.635-2.406 4.906 0 3.281.791 4.922 2.375 4.922zm10.269 1.156c-1.193 0-2.159-.56-2.898-1.68-.735-1.125-1.102-2.591-1.102-4.398 0-1.823.37-3.289 1.11-4.399.744-1.109 1.723-1.664 2.937-1.664 1.214 0 2.19.555 2.93 1.664.744 1.11 1.117 2.568 1.117 4.376 0 1.854-.373 3.335-1.117 4.445-.74 1.104-1.732 1.656-2.977 1.656zm.016-1.156c1.63 0 2.445-1.656 2.445-4.969 0-3.24-.805-4.859-2.414-4.859-1.604 0-2.406 1.635-2.406 4.906 0 3.281.791 4.922 2.375 4.922zm7.011 3.375v-.578c.37-.193.555-.776.555-1.75V407h-.555v-1.539h1.539v1.297c0 1.578-.513 2.495-1.539 2.75zm0-9.446v-1.546h1.539v1.546h-1.539zm-134.13 25.61V433h-1.547v-7.328h-1.203v-1.156h1.203V423.5c0-2.021.922-3.031 2.766-3.031.515 0 1.101.086 1.758.258v1.218c-.693-.213-1.248-.32-1.664-.32-.506 0-.852.122-1.04.367-.182.24-.273.688-.273 1.344v1.18h2.117v1.156h-2.117zm7.535 7.523c-1.213 0-2.182-.401-2.906-1.203-.724-.807-1.086-1.885-1.086-3.234 0-1.365.362-2.443 1.086-3.235.729-.796 1.716-1.195 2.96-1.195 1.245 0 2.23.399 2.954 1.195.729.792 1.094 1.865 1.094 3.219 0 1.386-.365 2.474-1.094 3.266-.73.791-1.732 1.187-3.008 1.187zm.023-1.156c1.63 0 2.446-1.099 2.446-3.297 0-2.172-.805-3.258-2.414-3.258-1.605 0-2.407 1.092-2.407 3.274 0 2.187.792 3.281 2.375 3.281zm6.645.961v-8.484h1.539v1.593c.812-1.187 1.807-1.781 2.984-1.781.735 0 1.32.234 1.758.703.438.464.656 1.089.656 1.875V433h-1.539v-5.594c0-.63-.094-1.078-.281-1.344-.182-.27-.487-.406-.914-.406-.943 0-1.83.617-2.664 1.852V433h-1.54zm12.644.195c-.781 0-1.39-.224-1.828-.672-.437-.447-.656-1.07-.656-1.867v-4.984h-1.063v-1.156h1.063v-1.539l1.539-.149v1.688h2.219v1.156h-2.22v4.703c0 1.109.48 1.664 1.438 1.664.204 0 .45-.034.743-.101V433c-.474.13-.886.195-1.235.195zm3.215-4.242v-1.156h6.937v1.156h-6.937zm12.058 4.242c-.703 0-1.557-.164-2.562-.492v-1.414c1.005.5 1.88.75 2.625.75.442 0 .81-.12 1.101-.359.292-.24.438-.539.438-.899 0-.526-.409-.961-1.227-1.304l-.898-.383c-1.328-.552-1.992-1.347-1.992-2.383 0-.74.26-1.32.78-1.742.527-.427 1.246-.641 2.157-.641.474 0 1.06.065 1.758.195l.32.063v1.281c-.86-.255-1.541-.383-2.047-.383-.99 0-1.484.36-1.484 1.078 0 .464.375.855 1.125 1.172l.742.313c.839.354 1.432.729 1.781 1.125.35.39.524.88.524 1.469 0 .744-.294 1.356-.883 1.836-.588.479-1.341.718-2.258.718zm6.067-.195v-8.484h1.539V433h-1.539zm0-10.023v-1.539h1.539v1.539h-1.539zM105.768 433v-1.156l5.25-6.172h-5.007v-1.156h6.906v1.156l-5.25 6.172h5.351V433h-7.25zm16.129-.273c-1.031.312-1.914.468-2.648.468-1.25 0-2.271-.414-3.063-1.242-.786-.833-1.179-1.911-1.179-3.234 0-1.287.346-2.341 1.039-3.164.698-.823 1.588-1.235 2.671-1.235 1.027 0 1.818.365 2.375 1.094.563.729.844 1.766.844 3.109l-.008.477h-5.351c.224 2.016 1.211 3.023 2.961 3.023.64 0 1.427-.171 2.359-.515v1.219zm-5.25-4.883h3.742c0-1.578-.588-2.367-1.765-2.367-1.183 0-1.841.789-1.977 2.367zm8.332 5.156v-1.539h1.539V433h-1.539zm0-6.938v-1.546h1.539v1.546h-1.539zM136.073 433v-1.156h2.312v-9.125l-2.312.578v-1.188l3.859-.961v10.696h2.312V433h-6.171zm13.902 0v-3.273h-5.203v-1.165l5.203-7.124h1.445v7.031h1.547v1.258h-1.547V433h-1.445zm-3.696-4.531h3.797v-5.141l-3.797 5.141zm9.496 7.617v-11.57h1.539v1.593c.631-1.187 1.576-1.781 2.836-1.781 1.021 0 1.823.373 2.407 1.117.588.745.882 1.763.882 3.055 0 1.406-.333 2.542-1 3.406-.661.86-1.533 1.289-2.617 1.289-1.005 0-1.841-.385-2.508-1.156v4.047h-1.539zm1.539-5.109c.792.708 1.547 1.062 2.266 1.062 1.479 0 2.219-1.128 2.219-3.383 0-1.989-.656-2.984-1.969-2.984-.859 0-1.698.466-2.516 1.398v3.907zm7.848 2.023 3.226-4.383-3.132-4.101h1.828l2.476 3.265 2.242-3.265h1.5l-2.937 4.304 3.195 4.18h-1.828l-2.555-3.359-2.468 3.359h-1.547zm11.043 2.508v-.578c.369-.193.554-.776.554-1.75V433h-.554v-1.539h1.539v1.297c0 1.578-.513 2.495-1.539 2.75zm0-9.446v-1.546h1.539v1.546h-1.539zM51.539 459v-12.336h1.54V459h-1.54zm4.785 0v-8.484h1.54V459h-1.54zm0-10.023v-1.539h1.54v1.539h-1.54zM61.11 459v-8.484h1.54v1.593c.812-1.187 1.806-1.781 2.983-1.781.735 0 1.32.234 1.758.703.438.464.657 1.089.657 1.875V459h-1.54v-5.594c0-.63-.093-1.078-.28-1.344-.183-.27-.488-.406-.915-.406-.942 0-1.83.617-2.664 1.852V459H61.11zm16.316-.273c-1.03.312-1.914.468-2.648.468-1.25 0-2.271-.414-3.063-1.242-.786-.833-1.18-1.911-1.18-3.234 0-1.287.347-2.341 1.04-3.164.698-.823 1.588-1.235 2.672-1.235 1.026 0 1.817.365 2.375 1.094.562.729.843 1.766.843 3.109l-.007.477h-5.352c.224 2.016 1.21 3.023 2.96 3.023.642 0 1.428-.171 2.36-.515v1.219zm-5.25-4.883h3.743c0-1.578-.589-2.367-1.766-2.367-1.182 0-1.841.789-1.977 2.367zm7.73 1.109v-1.156h6.938v1.156h-6.937zm9.81 4.047v-12.336h1.538v5.445c.813-1.187 1.807-1.781 2.984-1.781.735 0 1.32.234 1.758.703.438.464.657 1.089.657 1.875V459h-1.54v-5.594c0-.63-.093-1.078-.28-1.344-.183-.27-.488-.406-.915-.406-.942 0-1.83.617-2.664 1.852V459h-1.539zm16.315-.273c-1.031.312-1.914.468-2.648.468-1.25 0-2.271-.414-3.063-1.242-.786-.833-1.18-1.911-1.18-3.234 0-1.287.347-2.341 1.04-3.164.698-.823 1.588-1.235 2.672-1.235 1.026 0 1.817.365 2.375 1.094.562.729.843 1.766.843 3.109l-.007.477h-5.352c.224 2.016 1.211 3.023 2.961 3.023.641 0 1.427-.171 2.359-.515v1.219zm-5.25-4.883h3.742c0-1.578-.588-2.367-1.765-2.367-1.182 0-1.841.789-1.977 2.367zm8.113 5.156v-8.484h1.539V459h-1.539zm0-10.023v-1.539h1.539v1.539h-1.539zm4.817 12.843.179-1.336c.891.422 1.769.633 2.633.633 1.735 0 2.602-.919 2.602-2.758v-1.336c-.568 1.188-1.5 1.782-2.797 1.782-1.016 0-1.823-.37-2.422-1.11-.599-.739-.898-1.737-.898-2.992 0-1.292.341-2.344 1.023-3.156.682-.813 1.565-1.219 2.648-1.219.948 0 1.763.386 2.446 1.156v-.968h1.547v6.172c0 1.328-.071 2.309-.211 2.945-.136.64-.394 1.164-.774 1.57-.672.714-1.716 1.07-3.133 1.07a8.932 8.932 0 0 1-2.843-.453zm5.414-5.758v-3.523c-.677-.703-1.414-1.055-2.211-1.055-.709 0-1.263.284-1.664.852-.401.568-.602 1.346-.602 2.336 0 1.859.654 2.789 1.961 2.789.891 0 1.729-.466 2.516-1.399zm4.699 2.938v-12.336h1.539v5.445c.812-1.187 1.807-1.781 2.984-1.781.735 0 1.321.234 1.758.703.438.464.656 1.089.656 1.875V459h-1.539v-5.594c0-.63-.093-1.078-.281-1.344-.182-.27-.487-.406-.914-.406-.943 0-1.831.617-2.664 1.852V459h-1.539zm12.644.195c-.781 0-1.39-.224-1.828-.672-.437-.447-.656-1.07-.656-1.867v-4.984h-1.063v-1.156h1.063v-1.539l1.539-.149v1.688h2.219v1.156h-2.219v4.703c0 1.109.479 1.664 1.437 1.664.203 0 .451-.034.743-.101V459c-.474.13-.886.195-1.235.195zm3.816-.195v-1.539h1.54V459h-1.54zm0-6.938v-1.546h1.54v1.546h-1.54zM151.377 459v-1.156h2.312v-9.125l-2.312.578v-1.188l3.859-.961v10.696h2.313V459h-6.172zm9.824.047v-1.375c.766.307 1.495.461 2.187.461.761 0 1.357-.224 1.789-.672.438-.448.657-1.065.657-1.852 0-1.734-1.196-2.601-3.586-2.601-.271 0-.555.018-.852.054v-5.624h5.852v1.343h-4.5v3.047c1.484 0 2.643.341 3.476 1.024.834.682 1.25 1.627 1.25 2.836 0 1.124-.38 2.007-1.14 2.648-.755.635-1.805.953-3.149.953-.583 0-1.244-.081-1.984-.242zm13.355.242c-1.192 0-2.159-.56-2.898-1.68-.735-1.125-1.102-2.591-1.102-4.398 0-1.823.37-3.289 1.11-4.399.744-1.109 1.724-1.664 2.937-1.664 1.214 0 2.19.555 2.93 1.664.745 1.11 1.117 2.568 1.117 4.376 0 1.854-.372 3.335-1.117 4.445-.74 1.104-1.732 1.656-2.977 1.656zm.016-1.156c1.63 0 2.445-1.656 2.445-4.969 0-3.24-.804-4.859-2.414-4.859-1.604 0-2.406 1.635-2.406 4.906 0 3.281.792 4.922 2.375 4.922zm5.441 1.156 9.109-12.141h1.204l-9.102 12.141h-1.211zm2.328-6.07c-.734 0-1.323-.263-1.765-.789-.438-.526-.657-1.229-.657-2.11 0-.885.222-1.586.664-2.101.443-.521 1.042-.781 1.797-.781.75 0 1.347.26 1.789.781.443.515.664 1.213.664 2.093 0 .902-.221 1.612-.664 2.133-.442.516-1.052.774-1.828.774zm.024-.774c.875 0 1.312-.711 1.312-2.133 0-.64-.117-1.151-.351-1.531-.235-.385-.55-.578-.946-.578-.401 0-.718.193-.953.578-.234.38-.351.893-.351 1.539 0 .646.117 1.162.351 1.547.235.386.547.578.938.578zm5.57 6.555c-.74 0-1.328-.26-1.766-.781-.437-.526-.656-1.229-.656-2.11 0-.885.221-1.588.664-2.109.443-.521 1.039-.781 1.789-.781s1.347.26 1.789.781c.448.516.672 1.214.672 2.094 0 .906-.221 1.617-.664 2.133-.443.515-1.052.773-1.828.773zm.016-.773c.88 0 1.32-.711 1.32-2.133 0-.641-.12-1.151-.359-1.532-.235-.385-.55-.578-.946-.578-.396 0-.711.193-.945.578-.234.381-.352.896-.352 1.547 0 .641.115 1.154.344 1.539.234.386.547.579.938.579zm4.496 3.281v-.578c.369-.193.554-.776.554-1.75V459h-.554v-1.539h1.539v1.297c0 1.578-.513 2.495-1.539 2.75zm0-9.446v-1.546h1.539v1.546h-1.539zm-140.94 35.25 4.165-13.874h1.21l-4.163 13.874h-1.211zm13.544-12.382.351 1.101-2.367.516a.544.544 0 0 0 .023-.117.672.672 0 0 0-.226-.524l2.219-.976zm-.43 3.523-.938.68-1.226-2.086c.265-.031.448-.164.547-.399l1.617 1.805zm-3.484.68-.938-.68 1.61-1.805a.643.643 0 0 0 .546.399l-1.218 2.086zm-1.727-3.102.36-1.101 2.218.976a.657.657 0 0 0-.21.641l-2.368-.516zm2.422-2.593h1.156l-.242 2.406a.625.625 0 0 0-.336-.086.625.625 0 0 0-.336.086l-.242-2.406zm14.68 11.757c-1.214 0-2.183-.401-2.907-1.203-.724-.807-1.086-1.885-1.086-3.234 0-1.365.362-2.443 1.086-3.235.73-.796 1.716-1.195 2.96-1.195 1.246 0 2.23.399 2.954 1.195.73.792 1.094 1.865 1.094 3.219 0 1.386-.365 2.474-1.094 3.266-.73.791-1.732 1.187-3.008 1.187zm.023-1.156c1.63 0 2.445-1.099 2.445-3.297 0-2.172-.805-3.258-2.414-3.258-1.604 0-2.406 1.092-2.406 3.274 0 2.187.791 3.281 2.375 3.281zm6.644.961v-8.484h1.54v1.593c.609-1.187 1.494-1.781 2.655-1.781.157 0 .32.013.493.039v1.438a2.25 2.25 0 0 0-.704-.133c-.974 0-1.789.578-2.445 1.734V485H83.18zm11.718 0v-1.352c.448-1.046 1.355-2.187 2.72-3.421l.882-.789c1.136-1.027 1.703-2.045 1.703-3.055 0-.646-.195-1.154-.586-1.524-.385-.369-.916-.554-1.594-.554-.802 0-1.747.31-2.835.929v-1.359c1.026-.484 2.044-.727 3.054-.727 1.084 0 1.953.292 2.61.875.656.584.984 1.357.984 2.321 0 .692-.167 1.307-.5 1.844-.328.536-.943 1.187-1.844 1.953l-.594.507c-1.234 1.047-1.947 2.047-2.14 3h5.023V485h-6.883zm11.364 0v-1.156h2.312v-9.125l-2.312.578v-1.188l3.859-.961v10.696h2.312V485h-6.171zm9.417 3.086v-11.57h1.539v1.593c.631-1.187 1.576-1.781 2.836-1.781 1.021 0 1.823.373 2.407 1.117.588.745.882 1.763.882 3.055 0 1.406-.333 2.542-1 3.406-.661.86-1.533 1.289-2.617 1.289-1.005 0-1.841-.385-2.508-1.156v4.047h-1.539zm1.539-5.109c.792.708 1.547 1.062 2.266 1.062 1.479 0 2.219-1.128 2.219-3.383 0-1.989-.656-2.984-1.969-2.984-.859 0-1.698.466-2.516 1.398v3.907zm7.848 2.023 3.227-4.383-3.133-4.101h1.828l2.476 3.265 2.243-3.265h1.5l-2.938 4.304 3.195 4.18h-1.828l-2.554-3.359-2.469 3.359h-1.547zm21.008-10.07.351 1.101-2.367.516a.512.512 0 0 0 .023-.117.672.672 0 0 0-.226-.524l2.219-.976zm-.43 3.523-.938.68-1.226-2.086c.265-.031.448-.164.547-.399l1.617 1.805zm-3.485.68-.937-.68 1.609-1.805a.643.643 0 0 0 .547.399l-1.219 2.086zm-1.726-3.102.359-1.101 2.219.976a.657.657 0 0 0-.211.641l-2.367-.516zm2.422-2.593h1.156l-.242 2.406a.627.627 0 0 0-.336-.086.627.627 0 0 0-.336.086l-.242-2.406zm6.105 13.874 4.164-13.874h1.211l-4.164 13.874h-1.211zm-97.451 78 4.164-13.874h1.21l-4.163 13.874h-1.211zM65.05 552.93l.351 1.101-2.367.516a.544.544 0 0 0 .023-.117.672.672 0 0 0-.226-.524l2.219-.976zm-.43 3.523-.938.68-1.226-2.086c.265-.031.448-.164.547-.399l1.617 1.805zm-3.484.68-.938-.68 1.61-1.805a.643.643 0 0 0 .546.399l-1.218 2.086zm-1.727-3.102.36-1.101 2.218.976a.657.657 0 0 0-.21.641l-2.368-.516zm2.422-2.593h1.156l-.242 2.406a.625.625 0 0 0-.336-.086.625.625 0 0 0-.336.086l-.242-2.406zM73.144 563v-11.562h3.844c1.146 0 2.07.127 2.773.382a4.29 4.29 0 0 1 1.836 1.297c.818.969 1.227 2.245 1.227 3.828 0 1.922-.508 3.412-1.524 4.469-1.015 1.057-2.445 1.586-4.289 1.586h-3.867zm1.64-1.227h2.102c1.5 0 2.563-.403 3.188-1.211.672-.859 1.008-2.013 1.008-3.46 0-1.36-.331-2.428-.993-3.204a3.027 3.027 0 0 0-1.437-.968c-.557-.177-1.396-.266-2.516-.266h-1.351v9.109zm14.926.149c-.922.849-1.81 1.273-2.664 1.273-.703 0-1.286-.218-1.75-.656-.463-.443-.695-1-.695-1.672 0-.927.388-1.638 1.164-2.133.781-.5 1.898-.75 3.352-.75h.367v-1.023c0-.984-.505-1.477-1.516-1.477-.812 0-1.69.25-2.633.75v-1.273c1.037-.422 2.008-.633 2.914-.633.948 0 1.646.214 2.094.641.453.427.68 1.091.68 1.992v3.844c0 .88.27 1.32.812 1.32.068 0 .167-.01.297-.031l.11.851c-.35.167-.735.25-1.157.25-.718 0-1.177-.424-1.375-1.273zm-.226-.836v-2.195l-.516-.016c-.844 0-1.526.161-2.047.484-.52.318-.781.737-.781 1.258 0 .37.13.682.39.938.261.255.579.383.954.383.64 0 1.307-.284 2-.852zM94.339 563v-8.484h1.54v1.593c.608-1.187 1.494-1.781 2.655-1.781.157 0 .32.013.493.039v1.438a2.25 2.25 0 0 0-.704-.133c-.973 0-1.789.578-2.445 1.734V563H94.34zm6.707 0v-12.336h1.539v7.969l3.594-4.117h1.656l-3.43 3.961 4.141 4.523h-1.969l-3.992-4.352V563h-1.539zm17.445 0v-10.336h-4.102v-1.226h9.844v1.226h-4.101V563h-1.641zm13.801-.273c-1.032.312-1.914.468-2.649.468-1.25 0-2.271-.414-3.062-1.242-.787-.833-1.18-1.911-1.18-3.234 0-1.287.346-2.341 1.039-3.164.698-.823 1.589-1.235 2.672-1.235 1.026 0 1.818.365 2.375 1.094.562.729.844 1.766.844 3.109l-.008.477h-5.352c.224 2.016 1.211 3.023 2.961 3.023.641 0 1.427-.171 2.36-.515v1.219zm-5.25-4.883h3.742c0-1.578-.589-2.367-1.766-2.367-1.182 0-1.841.789-1.976 2.367zm12.488 4.078c-.922.849-1.81 1.273-2.664 1.273-.704 0-1.287-.218-1.75-.656-.464-.443-.696-1-.696-1.672 0-.927.388-1.638 1.164-2.133.782-.5 1.899-.75 3.352-.75h.367v-1.023c0-.984-.505-1.477-1.516-1.477-.812 0-1.69.25-2.632.75v-1.273c1.036-.422 2.007-.633 2.914-.633.948 0 1.646.214 2.093.641.454.427.68 1.091.68 1.992v3.844c0 .88.271 1.32.813 1.32.067 0 .166-.01.297-.031l.109.851c-.349.167-.734.25-1.156.25-.719 0-1.177-.424-1.375-1.273zm-.227-.836v-2.195l-.516-.016c-.843 0-1.526.161-2.046.484-.521.318-.782.737-.782 1.258 0 .37.131.682.391.938.26.255.578.383.953.383.641 0 1.307-.284 2-.852zm4.855 1.914v-12.336h1.54V563h-1.54zm14.969-10.07.351 1.101-2.367.516a.532.532 0 0 0 .024-.117.673.673 0 0 0-.227-.524l2.219-.976zm-.43 3.523-.937.68-1.227-2.086c.266-.031.448-.164.547-.399l1.617 1.805zm-3.484.68-.938-.68 1.61-1.805a.642.642 0 0 0 .547.399l-1.219 2.086zm-1.727-3.102.36-1.101 2.218.976a.656.656 0 0 0-.211.641l-2.367-.516zm2.422-2.593h1.156l-.242 2.406a.627.627 0 0 0-.336-.086.627.627 0 0 0-.336.086l-.242-2.406zm6.105 13.874 4.164-13.874h1.211l-4.164 13.874h-1.211zM54.852 615.195c-1.146 0-2.097-.424-2.852-1.273-.755-.849-1.133-1.919-1.133-3.211 0-1.38.373-2.456 1.117-3.227.75-.77 1.795-1.156 3.133-1.156.662 0 1.401.091 2.219.274v1.289c-.87-.256-1.578-.383-2.125-.383-.786 0-1.42.297-1.898.89-.474.589-.711 1.375-.711 2.36 0 .953.244 1.724.734 2.312.49.589 1.13.883 1.922.883.703 0 1.427-.18 2.172-.539v1.328c-.995.302-1.855.453-2.578.453zm8.37 0c-1.213 0-2.182-.401-2.906-1.203-.724-.807-1.086-1.885-1.086-3.234 0-1.365.362-2.443 1.086-3.235.73-.796 1.716-1.195 2.961-1.195 1.245 0 2.23.399 2.953 1.195.73.792 1.094 1.865 1.094 3.219 0 1.386-.364 2.474-1.094 3.266-.729.791-1.731 1.187-3.008 1.187zm.024-1.156c1.63 0 2.445-1.099 2.445-3.297 0-2.172-.804-3.258-2.414-3.258-1.604 0-2.406 1.092-2.406 3.274 0 2.187.792 3.281 2.375 3.281zm6.644.961v-12.336h1.54V615h-1.54zm8.106.195c-1.214 0-2.183-.401-2.907-1.203-.724-.807-1.086-1.885-1.086-3.234 0-1.365.362-2.443 1.086-3.235.73-.796 1.716-1.195 2.961-1.195 1.245 0 2.23.399 2.953 1.195.73.792 1.094 1.865 1.094 3.219 0 1.386-.364 2.474-1.094 3.266-.729.791-1.731 1.187-3.007 1.187zm.023-1.156c1.63 0 2.445-1.099 2.445-3.297 0-2.172-.804-3.258-2.414-3.258-1.604 0-2.406 1.092-2.406 3.274 0 2.187.792 3.281 2.375 3.281zm6.644.961v-8.484h1.54v1.593c.609-1.187 1.494-1.781 2.656-1.781.156 0 .32.013.492.039v1.438a2.25 2.25 0 0 0-.703-.133c-.974 0-1.79.578-2.445 1.734V615h-1.54zm6.926 0v-1.539h1.54V615h-1.54zm0-6.938v-1.546h1.54v1.546h-1.54zM101.862 615l.867-3.469h-2.336l.196-.969h2.383l.679-2.695h-2.531l.195-.961h2.571l.875-3.468h.992l-.867 3.468h2.054l.867-3.468h1l-.867 3.468h2.336l-.187.961h-2.391l-.68 2.695h2.532l-.196.969h-2.57l-.867 3.469h-1l.867-3.469h-2.055l-.867 3.469h-1zm2.11-4.438h2.054l.68-2.695h-2.063l-.671 2.695zm8.214 4.352v-1.437c1.104.437 1.974.656 2.61.656.734 0 1.33-.214 1.789-.641.463-.432.695-.989.695-1.672 0-1.625-1.138-2.437-3.414-2.437h-.609v-1.039l.539-.008c2.135 0 3.203-.753 3.203-2.258 0-1.182-.703-1.773-2.11-1.773-.77 0-1.619.216-2.547.648v-1.344c.912-.307 1.797-.461 2.657-.461 2.364 0 3.547.894 3.547 2.68 0 1.36-.805 2.328-2.414 2.906 1.864.433 2.796 1.454 2.796 3.063 0 1.088-.359 1.943-1.078 2.562-.718.62-1.705.93-2.961.93-.713 0-1.614-.125-2.703-.375zm10.285 0v-1.437c1.104.437 1.974.656 2.61.656.734 0 1.33-.214 1.789-.641.463-.432.695-.989.695-1.672 0-1.625-1.138-2.437-3.414-2.437h-.609v-1.039l.539-.008c2.135 0 3.203-.753 3.203-2.258 0-1.182-.703-1.773-2.11-1.773-.77 0-1.619.216-2.546.648v-1.344c.911-.307 1.796-.461 2.656-.461 2.364 0 3.547.894 3.547 2.68 0 1.36-.805 2.328-2.414 2.906 1.864.433 2.796 1.454 2.796 3.063 0 1.088-.359 1.943-1.078 2.562-.718.62-1.705.93-2.961.93-.713 0-1.614-.125-2.703-.375zm14.684.086v-3.273h-5.203v-1.165l5.203-7.124h1.445v7.031h1.547v1.258H138.6V615h-1.445zm-3.696-4.531h3.797v-5.141l-3.797 5.141zm9.903 4.578v-1.375c.765.307 1.494.461 2.187.461.76 0 1.357-.224 1.789-.672.438-.448.656-1.065.656-1.852 0-1.734-1.195-2.601-3.586-2.601-.27 0-.554.018-.851.054v-5.624h5.851v1.343h-4.5v3.047c1.485 0 2.644.341 3.477 1.024.833.682 1.25 1.627 1.25 2.836 0 1.124-.38 2.007-1.141 2.648-.755.635-1.804.953-3.148.953-.583 0-1.245-.081-1.984-.242zm14.363-.047v-3.273h-5.203v-1.165l5.203-7.124h1.445v7.031h1.547v1.258h-1.547V615h-1.445zm-3.696-4.531h3.797v-5.141l-3.797 5.141zm9.449 4.531v-11.562h6.461v1.226h-4.82v3.875h4.047v1.211h-4.047V615h-1.641zm9.004 2.508v-.578c.37-.193.555-.776.555-1.75V615h-.555v-1.539h1.539v1.297c0 1.578-.513 2.495-1.539 2.75zm0-9.446v-1.546h1.539v1.546h-1.539z" fill="#000"/>
        <path d="M130.702 145.922c-.922.849-1.81 1.273-2.665 1.273-.703 0-1.286-.218-1.75-.656-.463-.443-.695-1-.695-1.672 0-.927.388-1.638 1.164-2.133.781-.5 1.899-.75 3.352-.75h.367v-1.023c0-.984-.505-1.477-1.516-1.477-.812 0-1.69.25-2.632.75v-1.273c1.036-.422 2.007-.633 2.914-.633.948 0 1.645.214 2.093.641.453.427.68 1.091.68 1.992v3.844c0 .88.271 1.32.813 1.32.067 0 .166-.01.296-.031l.11.851c-.349.167-.735.25-1.156.25-.719 0-1.178-.424-1.375-1.273zm-.227-.836v-2.195l-.516-.016c-.843 0-1.526.161-2.047.484-.52.318-.781.737-.781 1.258 0 .37.13.682.391.938.26.255.578.383.953.383.641 0 1.307-.284 2-.852zm4.855 2.008v-12.43h1.539v5.445c.631-1.187 1.576-1.781 2.836-1.781 1.021 0 1.823.373 2.407 1.117.588.745.882 1.763.882 3.055 0 1.406-.333 2.542-1 3.406-.661.86-1.533 1.289-2.617 1.289-1.005 0-1.841-.385-2.508-1.156l-.187 1.055h-1.352zm1.539-2.117c.792.708 1.547 1.062 2.266 1.062 1.479 0 2.219-1.128 2.219-3.383 0-1.989-.656-2.984-1.969-2.984-.859 0-1.698.466-2.516 1.398v3.907zm10.949 2.218c-.703 0-1.557-.164-2.562-.492v-1.414c1.005.5 1.88.75 2.625.75.443 0 .81-.12 1.101-.359.292-.24.438-.539.438-.899 0-.526-.409-.961-1.227-1.304l-.898-.383c-1.328-.552-1.992-1.347-1.992-2.383 0-.74.26-1.32.781-1.742.526-.427 1.245-.641 2.156-.641.474 0 1.06.065 1.758.195l.32.063v1.281c-.859-.255-1.541-.383-2.046-.383-.99 0-1.485.36-1.485 1.078 0 .464.375.855 1.125 1.172l.742.313c.839.354 1.433.729 1.782 1.125.349.39.523.88.523 1.469 0 .744-.294 1.356-.883 1.836-.588.479-1.341.718-2.258.718zm9.387 0c-1.214 0-2.182-.401-2.906-1.203-.724-.807-1.086-1.885-1.086-3.234 0-1.365.362-2.443 1.086-3.235.729-.796 1.716-1.195 2.961-1.195 1.244 0 2.229.399 2.953 1.195.729.792 1.094 1.865 1.094 3.219 0 1.386-.365 2.474-1.094 3.266-.729.791-1.732 1.187-3.008 1.187zm.023-1.156c1.631 0 2.446-1.099 2.446-3.297 0-2.172-.805-3.258-2.414-3.258-1.604 0-2.407 1.092-2.407 3.274 0 2.187.792 3.281 2.375 3.281zm6.645.961v-12.336h1.539V147h-1.539zm10.09 0v-1.594c-.818 1.193-1.81 1.789-2.977 1.789-.74 0-1.328-.231-1.766-.695-.437-.469-.656-1.099-.656-1.891v-6.093h1.539v5.593c0 .636.091 1.089.274 1.36.187.265.497.398.929.398.938 0 1.823-.617 2.657-1.851v-5.5h1.539V147h-1.539zm7.339.195c-.781 0-1.39-.224-1.828-.672-.437-.447-.656-1.07-.656-1.867v-4.984h-1.063v-1.156h1.063v-1.539l1.539-.149v1.688h2.219v1.156h-2.219v4.703c0 1.109.479 1.664 1.437 1.664.203 0 .451-.034.743-.101V147c-.474.13-.886.195-1.235.195zm9.816-.468c-1.031.312-1.914.468-2.648.468-1.25 0-2.271-.414-3.062-1.242-.787-.833-1.18-1.911-1.18-3.234 0-1.287.346-2.341 1.039-3.164.698-.823 1.588-1.235 2.672-1.235 1.026 0 1.817.365 2.375 1.094.562.729.844 1.766.844 3.109l-.008.477h-5.352c.224 2.016 1.211 3.023 2.961 3.023.641 0 1.427-.171 2.359-.515v1.219zm-5.25-4.883h3.743c0-1.578-.589-2.367-1.766-2.367-1.182 0-1.841.789-1.977 2.367z" fill="#F5AD52"/>
        <path d="m51.508 93.313 4.164-13.876h1.21L52.72 93.314h-1.211zM65.05 80.93l.351 1.101-2.367.516a.551.551 0 0 0 .023-.117.671.671 0 0 0-.226-.524l2.219-.976zm-.43 3.523-.938.68-1.226-2.086c.265-.031.448-.164.547-.399l1.617 1.805zm-3.484.68-.938-.68 1.61-1.805a.644.644 0 0 0 .546.399l-1.218 2.086zM59.41 82.03l.36-1.101 2.218.976a.656.656 0 0 0-.21.64l-2.368-.515zm2.422-2.594h1.156l-.242 2.407a.632.632 0 0 0-.336-.086.632.632 0 0 0-.336.086l-.242-2.406zM78.097 91.29c-1.797 0-3.185-.526-4.164-1.578-.979-1.057-1.469-2.552-1.469-4.484 0-1.928.498-3.422 1.493-4.485 1-1.062 2.406-1.594 4.218-1.594 1.037 0 2.25.17 3.64.508v1.54c-1.582-.548-2.804-.821-3.663-.821-1.255 0-2.227.424-2.914 1.273-.688.85-1.031 2.047-1.031 3.594 0 1.474.367 2.638 1.101 3.492.734.85 1.737 1.274 3.008 1.274 1.094 0 2.266-.336 3.516-1.008v1.406c-1.141.589-2.386.883-3.735.883zm8.55 0c-.775 0-1.767-.17-2.976-.508v-1.625c1.302.604 2.373.906 3.211.906.646 0 1.164-.169 1.555-.507.396-.339.594-.784.594-1.336 0-.453-.13-.839-.391-1.156-.255-.318-.73-.672-1.422-1.063l-.797-.46c-.984-.563-1.68-1.092-2.086-1.587a2.704 2.704 0 0 1-.601-1.742c0-.89.323-1.623.969-2.195.645-.579 1.468-.868 2.468-.868.89 0 1.831.149 2.82.446v1.5c-1.218-.48-2.127-.719-2.726-.719-.568 0-1.037.151-1.406.453-.37.302-.555.682-.555 1.14 0 .386.135.727.406 1.024.271.297.766.651 1.485 1.063l.828.468c1 .568 1.698 1.105 2.094 1.61.395.505.593 1.112.593 1.82 0 1.005-.372 1.813-1.117 2.422-.74.61-1.721.914-2.945.914zm8.786 0c-.776 0-1.768-.17-2.977-.508v-1.625c1.302.604 2.373.906 3.211.906.646 0 1.164-.169 1.555-.507.396-.339.594-.784.594-1.336 0-.453-.13-.839-.391-1.156-.255-.318-.73-.672-1.422-1.063l-.797-.46c-.984-.563-1.68-1.092-2.086-1.587a2.704 2.704 0 0 1-.601-1.742c0-.89.323-1.623.968-2.195.646-.579 1.47-.868 2.47-.868.89 0 1.83.149 2.82.446v1.5c-1.22-.48-2.128-.719-2.727-.719-.568 0-1.037.151-1.406.453-.37.302-.555.682-.555 1.14 0 .386.136.727.406 1.024.271.297.766.651 1.485 1.063l.828.468c1 .568 1.698 1.105 2.094 1.61.395.505.593 1.112.593 1.82 0 1.005-.372 1.813-1.117 2.422-.74.61-1.721.914-2.945.914zm6.785-.289v-1.54h1.539V91h-1.539zm0-6.938v-1.546h1.539v1.546h-1.539zm15.187-3.132.352 1.101-2.368.516a.539.539 0 0 0 .024-.117.672.672 0 0 0-.227-.524l2.219-.976zm-.43 3.523-.937.68-1.227-2.086c.266-.031.448-.164.547-.399l1.617 1.805zm-3.484.68-.938-.68 1.61-1.805a.643.643 0 0 0 .547.399l-1.219 2.086zm-1.727-3.102.36-1.101 2.218.976a.656.656 0 0 0-.21.64l-2.368-.515zm2.422-2.594h1.156l-.242 2.407a.628.628 0 0 0-.336-.086.633.633 0 0 0-.336.086l-.242-2.406zm6.106 13.876 4.164-13.876h1.211l-4.164 13.876h-1.211z" fill="#000"/>
        <rect x="21" y="13" width="318" height="657" rx="9" stroke="#33454F" stroke-width="2"/>
    </g>
    <defs>
        <filter id="dksaetny9a" x="0" y="0" width="360" height="699" filterUnits="userSpaceOnUse" color-interpolation-filters="sRGB">
            <feFlood flood-opacity="0" result="BackgroundImageFix"/>
            <feColorMatrix in="SourceAlpha" values="0 0 0 0 0 0 0 0 0 0 0 0 0 0 0 0 0 0 127 0" result="hardAlpha"/>
            <feOffset dy="8"/>
            <feGaussianBlur stdDeviation="10"/>
            <feComposite in2="hardAlpha" operator="out"/>
            <feColorMatrix values="0 0 0 0 0 0 0 0 0 0 0 0 0 0 0 0 0 0 0.5 0"/>
            <feBlend in2="BackgroundImageFix" result="effect1_dropShadow_547_4357"/>
            <feBlend in="SourceGraphic" in2="effect1_dropShadow_547_4357" result="shape"/>
        </filter>
    </defs>
</svg>
