<svg width="721" height="663" viewBox="0 0 721 663" fill="none" xmlns="http://www.w3.org/2000/svg">
    <g clip-path="url(#14bpenf8ba)">
        <rect x="257.143" width="205.714" height="128.544" rx="10" fill="#F7F5F2"/>
        <mask id="a76s1yof5b" maskUnits="userSpaceOnUse" x="257.143" y="0" width="206" height="21" fill="#000">
            <path fill="#fff" d="M257.143 0h206v21h-206z"/>
            <path d="M257.143 0h205.644v19.28H257.143V0z"/>
        </mask>
        <path d="M257.143 0h205.644v19.28H257.143V0z" fill="#33454F"/>
        <path d="M462.787 17.994H257.143v2.57h205.644v-2.57z" fill="#F5AD52" mask="url(#a76s1yof5b)"/>
        <circle cx="268.067" cy="9.639" r="4.498" fill="#F5AD52"/>
        <circle cx="283.491" cy="9.639" r="4.498" fill="#F7F5F2"/>
        <circle cx="298.913" cy="9.639" r="4.498" fill="#F7F5F2"/>
        <path d="M313.991 65.235v13.96h-2.8v-5.94h-5.98v5.94h-2.8v-13.96h2.8v5.74h5.98v-5.74h2.8zm7.676 14.14c-1.066 0-2.026-.233-2.88-.7a5.258 5.258 0 0 1-2.02-2.02c-.48-.866-.72-1.866-.72-3 0-1.133.247-2.133.74-3a5.217 5.217 0 0 1 2.06-2c.867-.48 1.834-.72 2.9-.72 1.067 0 2.034.24 2.9.72a5.072 5.072 0 0 1 2.04 2c.507.867.76 1.867.76 3 0 1.134-.26 2.134-.78 3a5.31 5.31 0 0 1-2.08 2.02c-.866.467-1.84.7-2.92.7zm0-2.44c.507 0 .98-.12 1.42-.36a2.728 2.728 0 0 0 1.08-1.12c.267-.493.4-1.093.4-1.8 0-1.053-.28-1.86-.84-2.42a2.68 2.68 0 0 0-2.02-.86c-.8 0-1.473.287-2.02.86-.533.56-.8 1.367-.8 2.42 0 1.054.26 1.867.78 2.44.534.56 1.2.84 2 .84zm21.594-8.98c1.36 0 2.453.42 3.28 1.26.84.827 1.26 1.987 1.26 3.48v6.5h-2.8v-6.12c0-.866-.22-1.526-.66-1.98-.44-.466-1.04-.7-1.8-.7s-1.367.234-1.82.7c-.44.454-.66 1.114-.66 1.98v6.12h-2.8v-6.12c0-.866-.22-1.526-.66-1.98-.44-.466-1.04-.7-1.8-.7-.773 0-1.387.234-1.84.7-.44.454-.66 1.114-.66 1.98v6.12h-2.8v-11.08h2.8v1.34c.36-.466.82-.833 1.38-1.1.573-.266 1.2-.4 1.88-.4.867 0 1.64.187 2.32.56.68.36 1.207.88 1.58 1.56.36-.64.88-1.153 1.56-1.54a4.524 4.524 0 0 1 2.24-.58zm17.497 5.46c0 .4-.027.76-.08 1.08h-8.1c.067.8.347 1.427.84 1.88.493.454 1.1.68 1.82.68 1.04 0 1.78-.446 2.22-1.34h3.02c-.32 1.067-.933 1.947-1.84 2.64-.907.68-2.02 1.02-3.34 1.02-1.067 0-2.027-.233-2.88-.7a5.152 5.152 0 0 1-1.98-2.02c-.467-.866-.7-1.866-.7-3 0-1.146.233-2.153.7-3.02a4.886 4.886 0 0 1 1.96-2c.84-.466 1.807-.7 2.9-.7 1.053 0 1.993.227 2.82.68.84.454 1.487 1.1 1.94 1.94.467.827.7 1.78.7 2.86zm-2.9-.8c-.013-.72-.273-1.293-.78-1.72-.507-.44-1.127-.66-1.86-.66-.693 0-1.28.214-1.76.64-.467.414-.753.994-.86 1.74h5.26zm19.89-3.06c0 .747-.18 1.447-.541 2.1-.346.654-.899 1.18-1.659 1.58-.747.4-1.694.6-2.84.6h-2.34v5.36h-2.8v-13.96h5.14c1.08 0 2 .187 2.76.56.76.374 1.326.887 1.7 1.54.386.654.58 1.394.58 2.22zm-5.16 2.02c.773 0 1.346-.173 1.72-.52.373-.36.56-.86.56-1.5 0-1.36-.76-2.04-2.28-2.04h-2.22v4.06h2.22zm6.427 2.04c0-1.12.22-2.113.66-2.98.454-.866 1.06-1.533 1.82-2a4.9 4.9 0 0 1 2.58-.7c.827 0 1.547.167 2.16.5.627.334 1.127.754 1.5 1.26v-1.58h2.82v11.08h-2.82v-1.62c-.36.52-.86.954-1.5 1.3-.626.334-1.353.5-2.18.5-.933 0-1.786-.24-2.56-.72-.76-.48-1.366-1.153-1.82-2.02-.44-.88-.66-1.886-.66-3.02zm8.72.04c0-.68-.133-1.26-.4-1.74a2.728 2.728 0 0 0-1.08-1.12 2.83 2.83 0 0 0-1.46-.4c-.52 0-1 .127-1.44.38-.44.254-.8.627-1.08 1.12-.266.48-.4 1.054-.4 1.72 0 .667.134 1.254.4 1.76.28.494.64.874 1.08 1.14.454.267.934.4 1.44.4.52 0 1.007-.126 1.46-.38a2.9 2.9 0 0 0 1.08-1.12c.267-.493.4-1.08.4-1.76zm9.895-5.72c.827 0 1.553.167 2.18.5.627.32 1.12.74 1.48 1.26v-1.58h2.82v11.16c0 1.027-.207 1.94-.62 2.74a4.524 4.524 0 0 1-1.86 1.92c-.827.48-1.827.72-3 .72-1.573 0-2.867-.366-3.88-1.1-1-.733-1.567-1.733-1.7-3h2.78c.147.507.46.907.94 1.2.493.307 1.087.46 1.78.46.813 0 1.473-.246 1.98-.74.507-.48.76-1.213.76-2.2v-1.72c-.36.52-.86.954-1.5 1.3-.627.347-1.347.52-2.16.52-.933 0-1.787-.24-2.56-.72-.773-.48-1.387-1.153-1.84-2.02-.44-.88-.66-1.886-.66-3.02 0-1.12.22-2.113.66-2.98.453-.866 1.06-1.533 1.82-2a4.895 4.895 0 0 1 2.58-.7zm3.66 5.72c0-.68-.133-1.26-.4-1.74a2.74 2.74 0 0 0-1.08-1.12 2.83 2.83 0 0 0-1.46-.4c-.52 0-1 .127-1.44.38-.44.254-.8.627-1.08 1.12-.267.48-.4 1.054-.4 1.72 0 .667.133 1.254.4 1.76.28.494.64.874 1.08 1.14.453.267.933.4 1.44.4.52 0 1.007-.126 1.46-.38.453-.266.813-.64 1.08-1.12.267-.493.4-1.08.4-1.76zm15.855-.24c0 .4-.027.76-.08 1.08h-8.1c.067.8.347 1.427.84 1.88.493.454 1.1.68 1.82.68 1.04 0 1.78-.446 2.22-1.34h3.02c-.32 1.067-.933 1.947-1.84 2.64-.907.68-2.02 1.02-3.34 1.02-1.067 0-2.027-.233-2.88-.7a5.152 5.152 0 0 1-1.98-2.02c-.467-.866-.7-1.866-.7-3 0-1.146.233-2.153.7-3.02a4.886 4.886 0 0 1 1.96-2c.84-.466 1.807-.7 2.9-.7 1.053 0 1.993.227 2.82.68.84.454 1.487 1.1 1.94 1.94.467.827.7 1.78.7 2.86zm-2.9-.8c-.013-.72-.273-1.293-.78-1.72-.507-.44-1.127-.66-1.86-.66-.693 0-1.28.214-1.76.64-.467.414-.753.994-.86 1.74h5.26z" fill="#33454F"/>
    </g>
    <rect x="257.763" y=".621" width="204.473" height="127.303" rx="9.379" stroke="#33454F" stroke-width="1.241"/>
    <g clip-path="url(#hxnzts9upc)">
        <rect y="230.094" width="205.714" height="128.544" rx="10" fill="#F7F5F2"/>
        <mask id="lavypghkkd" maskUnits="userSpaceOnUse" x="0" y="230.094" width="206" height="21" fill="#000">
            <path fill="#fff" d="M0 230.094h206v21H0z"/>
            <path d="M0 230.094h205.644v19.279H0v-19.279z"/>
        </mask>
        <path d="M0 230.094h205.644v19.279H0v-19.279z" fill="#33454F"/>
        <path d="M205.644 248.088H0v2.57h205.644v-2.57z" fill="#F5AD52" mask="url(#lavypghkkd)"/>
        <circle cx="10.924" cy="239.733" r="4.498" fill="#F5AD52"/>
        <circle cx="26.348" cy="239.733" r="4.498" fill="#F7F5F2"/>
        <circle cx="41.77" cy="239.733" r="4.498" fill="#F7F5F2"/>
        <path d="M42.34 302.129a3.14 3.14 0 0 1 1.94 1.18c.506.64.76 1.373.76 2.2 0 .747-.188 1.407-.56 1.98-.36.56-.888 1-1.58 1.32-.694.32-1.514.48-2.46.48h-6.02v-13.96h5.76c.946 0 1.76.153 2.44.46.692.307 1.212.733 1.56 1.28.36.547.54 1.167.54 1.86 0 .813-.22 1.493-.66 2.04-.428.547-1 .933-1.72 1.16zm-5.12-1.04h2.56c.666 0 1.18-.147 1.54-.44.36-.307.54-.74.54-1.3s-.18-.993-.54-1.3c-.36-.307-.874-.46-1.54-.46h-2.56v3.5zm2.82 5.92c.68 0 1.206-.16 1.58-.48.386-.32.58-.773.58-1.36 0-.6-.2-1.067-.6-1.4-.4-.347-.94-.52-1.62-.52h-2.76v3.76h2.82zm17.69-8.8v11.08h-2.82v-1.4c-.36.48-.833.86-1.42 1.14-.573.267-1.2.4-1.88.4-.866 0-1.633-.18-2.3-.54a4.017 4.017 0 0 1-1.58-1.62c-.373-.72-.56-1.573-.56-2.56v-6.5h2.8v6.1c0 .88.22 1.56.66 2.04.44.467 1.04.7 1.8.7.774 0 1.38-.233 1.82-.7.44-.48.66-1.16.66-2.04v-6.1h2.82zm4.183-1.32c-.493 0-.906-.153-1.24-.46-.32-.32-.48-.713-.48-1.18 0-.467.16-.853.48-1.16.334-.32.747-.48 1.24-.48.494 0 .9.16 1.22.48.334.307.5.693.5 1.16 0 .467-.166.86-.5 1.18-.32.307-.726.46-1.22.46zm1.38 1.32v11.08h-2.8v-11.08h2.8zm5.567-3.72v14.8h-2.8v-14.8h2.8zm2.046 9.22c0-1.12.22-2.113.66-2.98.453-.867 1.067-1.533 1.84-2a4.894 4.894 0 0 1 2.58-.7c.72 0 1.407.16 2.06.48.653.307 1.173.72 1.56 1.24v-5.26h2.84v14.8h-2.84v-1.64c-.347.547-.833.987-1.46 1.32-.627.333-1.353.5-2.18.5-.933 0-1.787-.24-2.56-.72-.773-.48-1.387-1.153-1.84-2.02-.44-.88-.66-1.887-.66-3.02zm8.72.04c0-.68-.133-1.26-.4-1.74a2.737 2.737 0 0 0-1.08-1.12c-.453-.267-.94-.4-1.46-.4s-1 .127-1.44.38c-.44.253-.8.627-1.08 1.12-.267.48-.4 1.053-.4 1.72s.133 1.253.4 1.76c.28.493.64.873 1.08 1.14.453.267.933.4 1.44.4.52 0 1.007-.127 1.46-.38.453-.267.813-.64 1.08-1.12.267-.493.4-1.08.4-1.76zm15.855-.24c0 .4-.027.76-.08 1.08h-8.1c.066.8.346 1.427.84 1.88.493.453 1.1.68 1.82.68 1.04 0 1.78-.447 2.22-1.34h3.02c-.32 1.067-.934 1.947-1.84 2.64-.907.68-2.02 1.02-3.34 1.02-1.067 0-2.027-.233-2.88-.7a5.15 5.15 0 0 1-1.98-2.02c-.467-.867-.7-1.867-.7-3 0-1.147.233-2.153.7-3.02a4.884 4.884 0 0 1 1.96-2c.84-.467 1.806-.7 2.9-.7 1.053 0 1.993.227 2.82.68a4.69 4.69 0 0 1 1.94 1.94c.466.827.7 1.78.7 2.86zm-2.9-.8c-.014-.72-.274-1.293-.78-1.72-.507-.44-1.127-.66-1.86-.66-.694 0-1.28.213-1.76.64-.467.413-.754.993-.86 1.74h5.26zm7.744-2.78a3.952 3.952 0 0 1 1.4-1.38c.586-.333 1.253-.5 2-.5v2.94h-.74c-.88 0-1.547.207-2 .62-.44.413-.66 1.133-.66 2.16v5.52h-2.8v-11.08h2.8v1.72zm9.525 9.54c-.906 0-1.72-.16-2.44-.48-.72-.333-1.293-.78-1.72-1.34a3.412 3.412 0 0 1-.68-1.86h2.82c.054.427.26.78.62 1.06.374.28.834.42 1.38.42.534 0 .947-.107 1.24-.32.307-.213.46-.487.46-.82 0-.36-.186-.627-.56-.8-.36-.187-.94-.387-1.74-.6-.826-.2-1.506-.407-2.04-.62a3.625 3.625 0 0 1-1.36-.98c-.373-.44-.56-1.033-.56-1.78 0-.613.174-1.173.52-1.68.36-.507.867-.907 1.52-1.2.667-.293 1.447-.44 2.34-.44 1.32 0 2.374.333 3.16 1 .787.653 1.22 1.54 1.3 2.66h-2.68c-.04-.44-.226-.787-.56-1.04-.32-.267-.753-.4-1.3-.4-.506 0-.9.093-1.18.28a.901.901 0 0 0-.4.78c0 .373.187.66.56.86.374.187.954.38 1.74.58.8.2 1.46.407 1.98.62.52.213.967.547 1.34 1 .387.44.587 1.027.6 1.76 0 .64-.18 1.213-.54 1.72-.346.507-.853.907-1.52 1.2-.653.28-1.42.42-2.3.42zm21.605-9.82c0 .747-.18 1.447-.54 2.1-.347.653-.9 1.18-1.66 1.58-.747.4-1.694.6-2.84.6h-2.34v5.36h-2.8v-13.96h5.14c1.08 0 2 .187 2.76.56.76.373 1.326.887 1.7 1.54.386.653.58 1.393.58 2.22zm-5.16 2.02c.773 0 1.346-.173 1.72-.52.373-.36.56-.86.56-1.5 0-1.36-.76-2.04-2.28-2.04h-2.22v4.06h2.22zm6.427 2.04c0-1.12.22-2.113.66-2.98.454-.867 1.061-1.533 1.821-2a4.892 4.892 0 0 1 2.58-.7c.826 0 1.546.167 2.16.5.626.333 1.126.753 1.5 1.26v-1.58h2.82v11.08h-2.82v-1.62c-.36.52-.86.953-1.5 1.3-.627.333-1.354.5-2.18.5-.934 0-1.787-.24-2.56-.72-.76-.48-1.367-1.153-1.821-2.02-.44-.88-.66-1.887-.66-3.02zm8.721.04c0-.68-.134-1.26-.4-1.74a2.74 2.74 0 0 0-1.08-1.12 2.83 2.83 0 0 0-1.46-.4c-.52 0-1 .127-1.441.38-.439.253-.799.627-1.079 1.12-.267.48-.4 1.053-.4 1.72s.133 1.253.4 1.76c.28.493.64.873 1.079 1.14.454.267.934.4 1.441.4a2.95 2.95 0 0 0 1.46-.38c.453-.267.813-.64 1.08-1.12.266-.493.4-1.08.4-1.76zm9.894-5.72c.827 0 1.554.167 2.18.5.627.32 1.12.74 1.48 1.26v-1.58h2.82v11.16c0 1.027-.206 1.94-.62 2.74a4.527 4.527 0 0 1-1.86 1.92c-.826.48-1.826.72-3 .72-1.573 0-2.866-.367-3.88-1.1-1-.733-1.566-1.733-1.7-3h2.78c.147.507.46.907.94 1.2.494.307 1.087.46 1.78.46.814 0 1.474-.247 1.98-.74.507-.48.76-1.213.76-2.2v-1.72c-.36.52-.86.953-1.5 1.3-.626.347-1.346.52-2.16.52-.933 0-1.786-.24-2.56-.72-.773-.48-1.386-1.153-1.84-2.02-.44-.88-.66-1.887-.66-3.02 0-1.12.22-2.113.66-2.98.454-.867 1.06-1.533 1.82-2a4.897 4.897 0 0 1 2.58-.7zm3.66 5.72c0-.68-.133-1.26-.4-1.74a2.728 2.728 0 0 0-1.08-1.12c-.453-.267-.94-.4-1.46-.4s-1 .127-1.44.38c-.44.253-.8.627-1.08 1.12-.266.48-.4 1.053-.4 1.72s.134 1.253.4 1.76c.28.493.64.873 1.08 1.14.454.267.934.4 1.44.4.52 0 1.007-.127 1.46-.38.454-.267.814-.64 1.08-1.12.267-.493.4-1.08.4-1.76zm15.855-.24c0 .4-.027.76-.08 1.08h-8.1c.067.8.347 1.427.84 1.88.493.453 1.1.68 1.82.68 1.04 0 1.78-.447 2.22-1.34h3.02c-.32 1.067-.933 1.947-1.84 2.64-.907.68-2.02 1.02-3.34 1.02-1.067 0-2.027-.233-2.88-.7a5.15 5.15 0 0 1-1.98-2.02c-.467-.867-.7-1.867-.7-3 0-1.147.233-2.153.7-3.02a4.886 4.886 0 0 1 1.96-2c.84-.467 1.807-.7 2.9-.7 1.053 0 1.993.227 2.82.68.84.453 1.487 1.1 1.94 1.94.467.827.7 1.78.7 2.86zm-2.9-.8c-.013-.72-.273-1.293-.78-1.72-.507-.44-1.127-.66-1.86-.66-.693 0-1.28.213-1.76.64-.467.413-.753.993-.86 1.74h5.26z" fill="#33454F"/>
    </g>
    <rect x=".621" y="230.714" width="204.473" height="127.303" rx="9.379" stroke="#33454F" stroke-width="1.241"/>
    <g clip-path="url(#nx13n82xre)">
        <rect x="257.143" y="230.094" width="205.714" height="128.544" rx="10" fill="#F7F5F2"/>
        <mask id="ipxmnhzlmf" maskUnits="userSpaceOnUse" x="257.143" y="230.094" width="206" height="21" fill="#000">
            <path fill="#fff" d="M257.143 230.094h206v21h-206z"/>
            <path d="M257.143 230.094h205.644v19.279H257.143v-19.279z"/>
        </mask>
        <path d="M257.143 230.094h205.644v19.279H257.143v-19.279z" fill="#33454F"/>
        <path d="M462.787 248.088H257.143v2.57h205.644v-2.57z" fill="#F5AD52" mask="url(#ipxmnhzlmf)"/>
        <circle cx="268.067" cy="239.733" r="4.498" fill="#F5AD52"/>
        <circle cx="283.491" cy="239.733" r="4.498" fill="#F7F5F2"/>
        <circle cx="298.913" cy="239.733" r="4.498" fill="#F7F5F2"/>
        <path d="M301.677 302.129c.787.147 1.433.54 1.94 1.18.507.64.76 1.373.76 2.2 0 .747-.187 1.407-.56 1.98-.36.56-.887 1-1.58 1.32-.693.32-1.513.48-2.46.48h-6.02v-13.96h5.76c.947 0 1.76.153 2.44.46.693.307 1.213.733 1.56 1.28.36.547.54 1.167.54 1.86 0 .813-.22 1.493-.66 2.04-.427.547-1 .933-1.72 1.16zm-5.12-1.04h2.56c.667 0 1.18-.147 1.54-.44.36-.307.54-.74.54-1.3s-.18-.993-.54-1.3c-.36-.307-.873-.46-1.54-.46h-2.56v3.5zm2.82 5.92c.68 0 1.207-.16 1.58-.48.387-.32.58-.773.58-1.36 0-.6-.2-1.067-.6-1.4-.4-.347-.94-.52-1.62-.52h-2.76v3.76h2.82zm10.032-7.08a3.952 3.952 0 0 1 1.4-1.38c.586-.333 1.253-.5 2-.5v2.94h-.74c-.88 0-1.547.207-2 .62-.44.413-.66 1.133-.66 2.16v5.52h-2.8v-11.08h2.8v1.72zm10.205 9.54c-1.066 0-2.026-.233-2.88-.7a5.256 5.256 0 0 1-2.02-2.02c-.48-.867-.72-1.867-.72-3s.247-2.133.74-3a5.217 5.217 0 0 1 2.06-2c.867-.48 1.834-.72 2.9-.72 1.067 0 2.034.24 2.9.72a5.072 5.072 0 0 1 2.04 2c.507.867.76 1.867.76 3s-.26 2.133-.78 3a5.308 5.308 0 0 1-2.08 2.02c-.866.467-1.84.7-2.92.7zm0-2.44c.507 0 .98-.12 1.42-.36a2.728 2.728 0 0 0 1.08-1.12c.267-.493.4-1.093.4-1.8 0-1.053-.28-1.86-.84-2.42a2.681 2.681 0 0 0-2.02-.86c-.8 0-1.473.287-2.02.86-.533.56-.8 1.367-.8 2.42s.26 1.867.78 2.44c.534.56 1.2.84 2 .84zm14.394 2.26-3.76-4.72v4.72h-2.8v-14.8h2.8v8.42l3.72-4.7h3.64l-4.88 5.56 4.92 5.52h-3.64zm15.42-5.78c0 .4-.027.76-.08 1.08h-8.1c.067.8.347 1.427.84 1.88.493.453 1.1.68 1.82.68 1.04 0 1.78-.447 2.22-1.34h3.02c-.32 1.067-.933 1.947-1.84 2.64-.907.68-2.02 1.02-3.34 1.02-1.067 0-2.027-.233-2.88-.7a5.15 5.15 0 0 1-1.98-2.02c-.467-.867-.7-1.867-.7-3 0-1.147.233-2.153.7-3.02a4.886 4.886 0 0 1 1.96-2c.84-.467 1.807-.7 2.9-.7 1.053 0 1.993.227 2.82.68.84.453 1.487 1.1 1.94 1.94.467.827.7 1.78.7 2.86zm-2.9-.8c-.013-.72-.273-1.293-.78-1.72-.507-.44-1.127-.66-1.86-.66-.693 0-1.28.213-1.76.64-.467.413-.753.993-.86 1.74h5.26zm7.744-2.78a3.952 3.952 0 0 1 1.4-1.38c.586-.333 1.253-.5 2-.5v2.94h-.74c-.88 0-1.547.207-2 .62-.44.413-.66 1.133-.66 2.16v5.52h-2.8v-11.08h2.8v1.72zm9.526 9.54c-.907 0-1.72-.16-2.44-.48-.72-.333-1.294-.78-1.72-1.34a3.405 3.405 0 0 1-.68-1.86h2.82c.053.427.26.78.62 1.06.373.28.833.42 1.38.42.533 0 .946-.107 1.24-.32.306-.213.46-.487.46-.82 0-.36-.187-.627-.56-.8-.36-.187-.94-.387-1.74-.6-.827-.2-1.507-.407-2.04-.62a3.617 3.617 0 0 1-1.36-.98c-.374-.44-.56-1.033-.56-1.78 0-.613.173-1.173.52-1.68.36-.507.866-.907 1.52-1.2.666-.293 1.446-.44 2.34-.44 1.32 0 2.373.333 3.16 1 .786.653 1.22 1.54 1.3 2.66h-2.68c-.04-.44-.227-.787-.56-1.04-.32-.267-.754-.4-1.3-.4-.507 0-.9.093-1.18.28a.899.899 0 0 0-.4.78c0 .373.186.66.56.86.373.187.953.38 1.74.58.8.2 1.46.407 1.98.62.52.213.966.547 1.34 1 .386.44.586 1.027.6 1.76 0 .64-.18 1.213-.54 1.72-.347.507-.854.907-1.52 1.2-.654.28-1.42.42-2.3.42zm21.604-9.82c0 .747-.18 1.447-.54 2.1-.347.653-.9 1.18-1.66 1.58-.747.4-1.694.6-2.84.6h-2.34v5.36h-2.8v-13.96h5.14c1.08 0 2 .187 2.76.56.76.373 1.326.887 1.7 1.54.386.653.58 1.393.58 2.22zm-5.16 2.02c.773 0 1.346-.173 1.72-.52.373-.36.56-.86.56-1.5 0-1.36-.76-2.04-2.28-2.04h-2.22v4.06h2.22zm6.428 2.04c0-1.12.22-2.113.66-2.98.453-.867 1.06-1.533 1.82-2a4.892 4.892 0 0 1 2.58-.7c.826 0 1.546.167 2.16.5.626.333 1.126.753 1.5 1.26v-1.58h2.82v11.08h-2.82v-1.62c-.36.52-.86.953-1.5 1.3-.627.333-1.354.5-2.18.5-.934 0-1.787-.24-2.56-.72-.76-.48-1.367-1.153-1.82-2.02-.44-.88-.66-1.887-.66-3.02zm8.72.04c0-.68-.134-1.26-.4-1.74a2.74 2.74 0 0 0-1.08-1.12 2.83 2.83 0 0 0-1.46-.4c-.52 0-1 .127-1.44.38-.44.253-.8.627-1.08 1.12-.267.48-.4 1.053-.4 1.72s.133 1.253.4 1.76c.28.493.64.873 1.08 1.14.453.267.933.4 1.44.4a2.95 2.95 0 0 0 1.46-.38c.453-.267.813-.64 1.08-1.12.266-.493.4-1.08.4-1.76zm9.894-5.72c.827 0 1.554.167 2.18.5.627.32 1.12.74 1.48 1.26v-1.58h2.82v11.16c0 1.027-.206 1.94-.62 2.74a4.527 4.527 0 0 1-1.86 1.92c-.826.48-1.826.72-3 .72-1.573 0-2.866-.367-3.88-1.1-1-.733-1.566-1.733-1.7-3h2.78c.147.507.46.907.94 1.2.494.307 1.087.46 1.78.46.814 0 1.474-.247 1.98-.74.507-.48.76-1.213.76-2.2v-1.72c-.36.52-.86.953-1.5 1.3-.626.347-1.346.52-2.16.52-.933 0-1.786-.24-2.56-.72-.773-.48-1.386-1.153-1.84-2.02-.44-.88-.66-1.887-.66-3.02 0-1.12.22-2.113.66-2.98.454-.867 1.06-1.533 1.82-2a4.897 4.897 0 0 1 2.58-.7zm3.66 5.72c0-.68-.133-1.26-.4-1.74a2.728 2.728 0 0 0-1.08-1.12c-.453-.267-.94-.4-1.46-.4s-1 .127-1.44.38c-.44.253-.8.627-1.08 1.12-.266.48-.4 1.053-.4 1.72s.134 1.253.4 1.76c.28.493.64.873 1.08 1.14.454.267.934.4 1.44.4.52 0 1.007-.127 1.46-.38.454-.267.814-.64 1.08-1.12.267-.493.4-1.08.4-1.76zm15.855-.24c0 .4-.027.76-.08 1.08h-8.1c.067.8.347 1.427.84 1.88.493.453 1.1.68 1.82.68 1.04 0 1.78-.447 2.22-1.34h3.02c-.32 1.067-.933 1.947-1.84 2.64-.907.68-2.02 1.02-3.34 1.02-1.067 0-2.027-.233-2.88-.7a5.15 5.15 0 0 1-1.98-2.02c-.467-.867-.7-1.867-.7-3 0-1.147.233-2.153.7-3.02a4.886 4.886 0 0 1 1.96-2c.84-.467 1.807-.7 2.9-.7 1.053 0 1.993.227 2.82.68.84.453 1.487 1.1 1.94 1.94.467.827.7 1.78.7 2.86zm-2.9-.8c-.013-.72-.273-1.293-.78-1.72-.507-.44-1.127-.66-1.86-.66-.693 0-1.28.213-1.76.64-.467.413-.753.993-.86 1.74h5.26z" fill="#33454F"/>
    </g>
    <rect x="257.763" y="230.714" width="204.473" height="127.303" rx="9.379" stroke="#33454F" stroke-width="1.241"/>
    <g clip-path="url(#5y743paavg)">
        <rect x="514.287" y="230.094" width="205.714" height="128.544" rx="10" fill="#F7F5F2"/>
        <mask id="k31mbks0wh" maskUnits="userSpaceOnUse" x="514.287" y="230.094" width="206" height="21" fill="#000">
            <path fill="#fff" d="M514.287 230.094h206v21h-206z"/>
            <path d="M514.287 230.094h205.645v19.279H514.287v-19.279z"/>
        </mask>
        <path d="M514.287 230.094h205.645v19.279H514.287v-19.279z" fill="#33454F"/>
        <path d="M719.932 248.088H514.287v2.57h205.645v-2.57z" fill="#F5AD52" mask="url(#k31mbks0wh)"/>
        <circle cx="525.211" cy="239.733" r="4.498" fill="#F5AD52"/>
        <circle cx="540.635" cy="239.733" r="4.498" fill="#F7F5F2"/>
        <circle cx="556.057" cy="239.733" r="4.498" fill="#F7F5F2"/>
        <path d="M580.399 306.629h-5.56l-.92 2.66h-2.94l5.02-13.98h3.26l5.02 13.98h-2.96l-.92-2.66zm-.76-2.24-2.02-5.84-2.02 5.84h4.04zm9.316-4.56c.36-.533.854-.967 1.48-1.3.64-.333 1.367-.5 2.18-.5.947 0 1.8.233 2.56.7.774.467 1.38 1.133 1.82 2 .454.853.68 1.847.68 2.98s-.226 2.14-.68 3.02c-.44.867-1.046 1.54-1.82 2.02-.76.48-1.613.72-2.56.72-.826 0-1.553-.16-2.18-.48a4.34 4.34 0 0 1-1.48-1.28v1.58h-2.8v-14.8h2.8v5.34zm5.86 3.88c0-.667-.14-1.24-.42-1.72a2.728 2.728 0 0 0-1.08-1.12 2.84 2.84 0 0 0-1.44-.38c-.506 0-.986.133-1.44.4-.44.253-.8.627-1.08 1.12-.266.493-.4 1.073-.4 1.74s.134 1.247.4 1.74c.28.493.64.873 1.08 1.14.454.253.934.38 1.44.38.52 0 1-.133 1.44-.4a2.87 2.87 0 0 0 1.08-1.14c.28-.493.42-1.08.42-1.76zm9.815 5.76c-1.067 0-2.027-.233-2.88-.7a5.249 5.249 0 0 1-2.02-2.02c-.48-.867-.72-1.867-.72-3s.247-2.133.74-3a5.21 5.21 0 0 1 2.06-2c.867-.48 1.833-.72 2.9-.72s2.033.24 2.9.72a5.072 5.072 0 0 1 2.04 2c.507.867.76 1.867.76 3s-.26 2.133-.78 3a5.314 5.314 0 0 1-2.08 2.02c-.867.467-1.84.7-2.92.7zm0-2.44c.507 0 .98-.12 1.42-.36a2.74 2.74 0 0 0 1.08-1.12c.267-.493.4-1.093.4-1.8 0-1.053-.28-1.86-.84-2.42a2.683 2.683 0 0 0-2.02-.86c-.8 0-1.473.287-2.02.86-.533.56-.8 1.367-.8 2.42s.26 1.867.78 2.44c.533.56 1.2.84 2 .84zm18.294-8.82v11.08h-2.82v-1.4c-.36.48-.833.86-1.42 1.14-.573.267-1.2.4-1.88.4-.867 0-1.633-.18-2.3-.54a4.017 4.017 0 0 1-1.58-1.62c-.373-.72-.56-1.573-.56-2.56v-6.5h2.8v6.1c0 .88.22 1.56.66 2.04.44.467 1.04.7 1.8.7.773 0 1.38-.233 1.82-.7.44-.48.66-1.16.66-2.04v-6.1h2.82zm6.023 2.3v5.36c0 .373.086.647.26.82.186.16.493.24.92.24h1.3v2.36h-1.76c-2.36 0-3.54-1.147-3.54-3.44v-5.34h-1.32v-2.3h1.32v-2.74h2.82v2.74h2.48v2.3h-2.48zm12.019-5.18v8.64c0 .947.247 1.673.74 2.18.494.493 1.187.74 2.08.74.907 0 1.607-.247 2.1-.74.494-.507.74-1.233.74-2.18v-8.64h2.82v8.62c0 1.187-.26 2.193-.78 3.02a4.82 4.82 0 0 1-2.06 1.84c-.853.413-1.806.62-2.86.62-1.04 0-1.986-.207-2.84-.62a4.756 4.756 0 0 1-2-1.84c-.493-.827-.74-1.833-.74-3.02v-8.62h2.8zm15.425 14.14c-.906 0-1.72-.16-2.44-.48-.72-.333-1.293-.78-1.72-1.34a3.412 3.412 0 0 1-.68-1.86h2.82c.054.427.26.78.62 1.06.374.28.834.42 1.38.42.534 0 .947-.107 1.24-.32.307-.213.46-.487.46-.82 0-.36-.186-.627-.56-.8-.36-.187-.94-.387-1.74-.6-.826-.2-1.506-.407-2.04-.62a3.625 3.625 0 0 1-1.36-.98c-.373-.44-.56-1.033-.56-1.78 0-.613.174-1.173.52-1.68.36-.507.867-.907 1.52-1.2.667-.293 1.447-.44 2.34-.44 1.32 0 2.374.333 3.16 1 .787.653 1.22 1.54 1.3 2.66h-2.68c-.04-.44-.226-.787-.56-1.04-.32-.267-.753-.4-1.3-.4-.506 0-.9.093-1.18.28a.901.901 0 0 0-.4.78c0 .373.187.66.56.86.374.187.954.38 1.74.58.8.2 1.46.407 1.98.62.52.213.967.547 1.34 1 .387.44.587 1.027.6 1.76 0 .64-.18 1.213-.54 1.72-.346.507-.853.907-1.52 1.2-.653.28-1.42.42-2.3.42z" fill="#33454F"/>
    </g>
    <rect x="514.908" y="230.714" width="204.473" height="127.303" rx="9.379" stroke="#33454F" stroke-width="1.241"/>
    <path d="m359.54 209.704-2.01-3.234c-.241-.387-.012-.887.403-.964a.43.43 0 0 1 .218.028l1.851.668 1.852-.668a.426.426 0 0 1 .217-.028c.41.076.64.564.412.951l-1.905 3.234a.602.602 0 0 1-1.038.013z" fill="#33454F"/>
    <path d="M360.002 146.221a1.607 1.607 0 1 0 0 3.214 1.607 1.607 0 0 0 0-3.214z" fill="#F7F5F2" stroke="#33454F" stroke-width="1.928"/>
    <path d="m359.54 439.798-2.01-3.234c-.241-.388-.012-.887.403-.964a.42.42 0 0 1 .218.028l1.851.667 1.852-.667a.416.416 0 0 1 .217-.028c.41.076.64.563.412.951l-1.905 3.233a.602.602 0 0 1-1.038.014z" fill="#33454F"/>
    <path d="M360.002 376.315a1.606 1.606 0 1 0-.001 3.213 1.606 1.606 0 0 0 .001-3.213z" fill="#F7F5F2" stroke="#33454F" stroke-width="1.928"/>
    <path d="M360.002 380.492v58.488M360.143 149.094v19.852c0 5.679 4.603 10.283 10.282 10.283H606.86c5.679 0 10.283 4.603 10.283 10.282v19.852" stroke="#33454F" stroke-linecap="round"/>
    <path d="m617.605 209.704 2.01-3.234c.241-.387.012-.887-.404-.964a.426.426 0 0 0-.217.028l-1.852.668-1.851-.668a.43.43 0 0 0-.218-.028c-.409.076-.639.564-.411.951l1.904 3.234a.603.603 0 0 0 1.039.013z" fill="#33454F"/>
    <path d="M360.143 146.221a1.607 1.607 0 1 1-.002 3.214 1.607 1.607 0 0 1 .002-3.214z" fill="#F7F5F2" stroke="#33454F" stroke-width="1.928"/>
    <path d="M359.857 149.094v19.852c0 5.679-4.603 10.283-10.282 10.283H113.14c-5.679 0-10.283 4.603-10.283 10.282v19.852" stroke="#33454F" stroke-linecap="round"/>
    <path d="m102.395 209.704-2.01-3.234c-.241-.387-.012-.887.404-.964a.426.426 0 0 1 .217.028l1.852.668 1.851-.668a.43.43 0 0 1 .218-.028c.409.076.639.564.411.951l-1.904 3.234a.603.603 0 0 1-1.039.013z" fill="#33454F"/>
    <path d="M359.857 146.221a1.607 1.607 0 1 0 .002 3.214 1.607 1.607 0 0 0-.002-3.214z" fill="#F7F5F2" stroke="#33454F" stroke-width="1.928"/>
    <path d="M103 379.184v19.852c0 5.679 4.604 10.282 10.282 10.282h236.436c5.678 0 10.282 4.604 10.282 10.283v19.852" stroke="#33454F" stroke-linecap="round"/>
    <path d="m360.462 439.794 2.01-3.234c.241-.387.012-.887-.403-.964a.43.43 0 0 0-.218.028l-1.851.668-1.852-.668a.426.426 0 0 0-.217-.028c-.41.076-.64.563-.412.951l1.905 3.234a.602.602 0 0 0 1.038.013z" fill="#33454F"/>
    <path d="M103 376.311a1.606 1.606 0 1 1 .001 3.213 1.606 1.606 0 0 1-.001-3.213z" fill="#F7F5F2" stroke="#33454F" stroke-width="1.928"/>
    <path d="M617 379.184v19.852c0 5.679-4.604 10.282-10.282 10.282H370.282c-5.678 0-10.282 4.604-10.282 10.283v19.852" stroke="#33454F" stroke-linecap="round"/>
    <path d="m359.538 439.794-2.01-3.234c-.241-.387-.012-.887.403-.964a.43.43 0 0 1 .218.028l1.851.668 1.852-.668a.426.426 0 0 1 .217-.028c.41.076.64.563.412.951l-1.905 3.234a.602.602 0 0 1-1.038.013z" fill="#33454F"/>
    <path d="M617 376.311a1.606 1.606 0 1 0-.001 3.213 1.606 1.606 0 0 0 .001-3.213z" fill="#F7F5F2" stroke="#33454F" stroke-width="1.928"/>
    <path d="M360 149.113v58.488" stroke="#33454F" stroke-linecap="round"/>
    <g clip-path="url(#n7vdf20yhi)">
        <rect x="257.143" y="460.188" width="205.714" height="128.544" rx="10" fill="#F7F5F2"/>
        <mask id="71tmfup5zj" maskUnits="userSpaceOnUse" x="257.143" y="460.188" width="206" height="21" fill="#000">
            <path fill="#fff" d="M257.143 460.188h206v21h-206z"/>
            <path d="M257.143 460.188h205.644v19.279H257.143v-19.279z"/>
        </mask>
        <path d="M257.143 460.188h205.644v19.279H257.143v-19.279z" fill="#33454F"/>
        <path d="M462.787 478.181H257.143v2.571h205.644v-2.571z" fill="#F5AD52" mask="url(#71tmfup5zj)"/>
        <circle cx="268.067" cy="469.827" r="4.498" fill="#F5AD52"/>
        <circle cx="283.491" cy="469.827" r="4.498" fill="#F7F5F2"/>
        <circle cx="298.913" cy="469.827" r="4.498" fill="#F7F5F2"/>
        <path d="M289.825 532.383c0-1.374.307-2.6.92-3.68a6.636 6.636 0 0 1 2.54-2.54c1.08-.614 2.287-.92 3.62-.92 1.56 0 2.927.4 4.1 1.2 1.173.8 1.993 1.906 2.46 3.32h-3.22c-.32-.667-.773-1.167-1.36-1.5-.573-.334-1.24-.5-2-.5-.813 0-1.54.193-2.18.58-.627.373-1.12.906-1.48 1.6-.347.693-.52 1.506-.52 2.44 0 .92.173 1.733.52 2.44.36.693.853 1.233 1.48 1.62.64.373 1.367.56 2.18.56.76 0 1.427-.167 2-.5.587-.347 1.04-.854 1.36-1.52h3.22c-.467 1.426-1.287 2.54-2.46 3.34-1.16.786-2.527 1.18-4.1 1.18-1.333 0-2.54-.3-3.62-.9a6.834 6.834 0 0 1-2.54-2.54c-.613-1.08-.92-2.307-.92-3.68zm20.952 7.18c-1.067 0-2.027-.234-2.88-.7a5.249 5.249 0 0 1-2.02-2.02c-.48-.867-.72-1.867-.72-3 0-1.134.246-2.134.74-3a5.197 5.197 0 0 1 2.06-2c.866-.48 1.833-.72 2.9-.72 1.066 0 2.033.24 2.9.72a5.078 5.078 0 0 1 2.04 2c.506.866.76 1.866.76 3 0 1.133-.26 2.133-.78 3a5.321 5.321 0 0 1-2.08 2.02c-.867.466-1.84.7-2.92.7zm0-2.44c.506 0 .98-.12 1.42-.36a2.747 2.747 0 0 0 1.08-1.12c.266-.494.4-1.094.4-1.8 0-1.054-.28-1.86-.84-2.42a2.68 2.68 0 0 0-2.02-.86c-.8 0-1.474.286-2.02.86-.534.56-.8 1.366-.8 2.42 0 1.053.26 1.866.78 2.44.533.56 1.2.84 2 .84zm13.973-8.98c1.32 0 2.387.42 3.2 1.26.814.826 1.22 1.986 1.22 3.48v6.5h-2.8v-6.12c0-.88-.22-1.554-.66-2.02-.44-.48-1.04-.72-1.8-.72-.773 0-1.386.24-1.84.72-.44.466-.66 1.14-.66 2.02v6.12h-2.8v-11.08h2.8v1.38c.374-.48.847-.854 1.42-1.12a4.402 4.402 0 0 1 1.92-.42zm10.343 2.46v5.36c0 .373.087.646.26.82.187.16.493.24.92.24h1.3v2.36h-1.76c-2.36 0-3.54-1.147-3.54-3.44v-5.34h-1.32v-2.3h1.32v-2.74h2.82v2.74h2.48v2.3h-2.48zm3.774 3.2c0-1.12.22-2.114.66-2.98.453-.867 1.06-1.534 1.82-2a4.892 4.892 0 0 1 2.58-.7c.827 0 1.547.166 2.16.5.627.333 1.127.753 1.5 1.26v-1.58h2.82v11.08h-2.82v-1.62c-.36.52-.86.953-1.5 1.3-.627.333-1.353.5-2.18.5-.933 0-1.787-.24-2.56-.72-.76-.48-1.367-1.154-1.82-2.02-.44-.88-.66-1.887-.66-3.02zm8.72.04c0-.68-.133-1.26-.4-1.74a2.735 2.735 0 0 0-1.08-1.12c-.453-.267-.94-.4-1.46-.4s-1 .126-1.44.38c-.44.253-.8.626-1.08 1.12-.267.48-.4 1.053-.4 1.72 0 .666.133 1.253.4 1.76.28.493.64.873 1.08 1.14a2.8 2.8 0 0 0 1.44.4c.52 0 1.007-.127 1.46-.38.453-.267.813-.64 1.08-1.12.267-.494.4-1.08.4-1.76zm4.835 0c0-1.147.233-2.147.7-3a4.908 4.908 0 0 1 1.94-2c.826-.48 1.773-.72 2.84-.72 1.373 0 2.506.346 3.4 1.04.906.68 1.513 1.64 1.82 2.88h-3.02a2.137 2.137 0 0 0-.82-1.12c-.374-.28-.84-.42-1.4-.42-.8 0-1.434.293-1.9.88-.467.573-.7 1.393-.7 2.46 0 1.053.233 1.873.7 2.46.466.573 1.1.86 1.9.86 1.133 0 1.873-.507 2.22-1.52h3.02c-.307 1.2-.914 2.153-1.82 2.86-.907.706-2.04 1.06-3.4 1.06-1.067 0-2.014-.234-2.84-.7a5.085 5.085 0 0 1-1.94-2c-.467-.867-.7-1.874-.7-3.02zm16.011-3.24v5.36c0 .373.087.646.26.82.187.16.493.24.92.24h1.3v2.36h-1.76c-2.36 0-3.54-1.147-3.54-3.44v-5.34h-1.32v-2.3h1.32v-2.74h2.82v2.74h2.48v2.3h-2.48zm17.879-5.18v2.26h-5.819v3.58h4.46v2.22h-4.46v5.9h-2.8v-13.96h8.619zm6.906 14.14c-1.067 0-2.027-.234-2.88-.7a5.256 5.256 0 0 1-2.02-2.02c-.48-.867-.72-1.867-.72-3 0-1.134.247-2.134.74-3a5.204 5.204 0 0 1 2.06-2c.867-.48 1.833-.72 2.9-.72s2.033.24 2.9.72a5.066 5.066 0 0 1 2.04 2c.507.866.76 1.866.76 3 0 1.133-.26 2.133-.78 3a5.321 5.321 0 0 1-2.08 2.02c-.867.466-1.84.7-2.92.7zm0-2.44c.507 0 .98-.12 1.42-.36a2.747 2.747 0 0 0 1.08-1.12c.267-.494.4-1.094.4-1.8 0-1.054-.28-1.86-.84-2.42a2.68 2.68 0 0 0-2.02-.86c-.8 0-1.473.286-2.02.86-.533.56-.8 1.366-.8 2.42 0 1.053.26 1.866.78 2.44.533.56 1.2.84 2 .84zm10.634-7.1a3.96 3.96 0 0 1 1.4-1.38c.587-.334 1.253-.5 2-.5v2.94h-.74c-.88 0-1.547.206-2 .62-.44.413-.66 1.133-.66 2.16v5.52h-2.8v-11.08h2.8v1.72zm19.046-1.88c1.36 0 2.453.42 3.28 1.26.84.826 1.26 1.986 1.26 3.48v6.5h-2.8v-6.12c0-.867-.22-1.527-.66-1.98-.44-.467-1.04-.7-1.8-.7s-1.367.233-1.82.7c-.44.453-.66 1.113-.66 1.98v6.12h-2.8v-6.12c0-.867-.22-1.527-.66-1.98-.44-.467-1.04-.7-1.8-.7-.774 0-1.387.233-1.84.7-.44.453-.66 1.113-.66 1.98v6.12h-2.8v-11.08h2.8v1.34c.36-.467.82-.834 1.38-1.1.573-.267 1.2-.4 1.88-.4.866 0 1.64.186 2.32.56.68.36 1.206.88 1.58 1.56.36-.64.88-1.154 1.56-1.54a4.52 4.52 0 0 1 2.24-.58z" fill="#33454F"/>
    </g>
    <rect x="257.763" y="460.808" width="204.473" height="127.303" rx="9.379" stroke="#33454F" stroke-width="1.241"/>
    <path d="M481.711 310.223h15.9" stroke="#33454F" stroke-linecap="round"/>
    <path d="m498.926 309.76-3.233-2.01c-.388-.24-.887-.012-.964.404a.415.415 0 0 0 .028.217l.667 1.852-.667 1.851a.42.42 0 0 0-.028.218c.076.41.563.64.951.411l3.233-1.904a.602.602 0 0 0 .013-1.039z" fill="#33454F"/>
    <path d="M478.61 310.222a1.606 1.606 0 1 1 3.212 0 1.606 1.606 0 0 1-3.212 0z" fill="#F7F5F2" stroke="#33454F" stroke-width="1.928"/>
    <path d="M495.43 292.227h-15.901" stroke="#33454F" stroke-linecap="round"/>
    <path d="m478.214 291.764 3.234-2.01c.387-.241.887-.012.964.404a.426.426 0 0 1-.028.217l-.668 1.852.668 1.851a.43.43 0 0 1 .028.218c-.076.409-.564.639-.951.411l-3.234-1.904a.603.603 0 0 1-.013-1.039z" fill="#33454F"/>
    <path d="M498.531 292.226a1.607 1.607 0 1 0-3.214.002 1.607 1.607 0 0 0 3.214-.002z" fill="#F7F5F2" stroke="#33454F" stroke-width="1.928"/>
    <path d="M238.299 310.223h-15.901" stroke="#33454F" stroke-linecap="round"/>
    <path d="m221.083 309.76 3.234-2.01c.387-.24.887-.012.964.404a.425.425 0 0 1-.028.217l-.668 1.852.668 1.851a.43.43 0 0 1 .028.218c-.076.41-.564.64-.951.411l-3.234-1.904a.603.603 0 0 1-.013-1.039z" fill="#33454F"/>
    <path d="M241.4 310.222a1.606 1.606 0 1 0-3.212 0 1.606 1.606 0 0 0 3.212 0z" fill="#F7F5F2" stroke="#33454F" stroke-width="1.928"/>
    <path d="M224.576 292.227h15.901" stroke="#33454F" stroke-linecap="round"/>
    <path d="m241.792 291.764-3.234-2.01c-.387-.241-.887-.012-.964.404a.426.426 0 0 0 .028.217l.668 1.852-.668 1.851a.43.43 0 0 0-.028.218c.076.409.564.639.951.411l3.234-1.904a.603.603 0 0 0 .013-1.039z" fill="#33454F"/>
    <path d="M221.475 292.226a1.606 1.606 0 1 1 3.212 0 1.606 1.606 0 0 1-3.212 0z" fill="#F7F5F2" stroke="#33454F" stroke-width="1.928"/>
    <path d="M83.572 206.656V81.24c0-5.68 4.604-10.283 10.282-10.283h142.7" stroke="#33454F" stroke-linecap="round"/>
    <path d="m237.282 70.495-3.234-2.01c-.387-.241-.887-.012-.964.403a.428.428 0 0 0 .028.218l.668 1.851-.668 1.852a.428.428 0 0 0-.028.217c.076.41.564.64.951.412l3.234-1.904a.603.603 0 0 0 .013-1.04z" fill="#33454F"/>
    <path d="M83.572 209.204a1.606 1.606 0 1 1 0-3.213 1.606 1.606 0 0 1 0 3.213z" fill="#F7F5F2" stroke="#33454F" stroke-width="1.928"/>
    <path d="M83.572 377.918v220.015c0 5.679 4.604 10.282 10.282 10.282h531.793c5.679 0 10.283-4.603 10.283-10.282V377.918" stroke="#33454F" stroke-linecap="round"/>
    <path d="m635.467 375.64-2.01 3.234c-.24.387-.012.886.404.963a.414.414 0 0 0 .217-.027l1.852-.668 1.851.668c.07.025.145.041.218.027.41-.076.64-.563.411-.95l-1.904-3.234a.603.603 0 0 0-1.039-.013z" fill="#33454F"/>
    <path d="M83.573 376.311a1.606 1.606 0 1 1 0 3.213 1.606 1.606 0 0 1 0-3.213z" fill="#F7F5F2" stroke="#33454F" stroke-width="1.928"/>
    <path d="M656 378v240.015c0 5.679-4.604 10.283-10.282 10.283H74.925c-5.679 0-10.282-4.604-10.282-10.283V378" stroke="#33454F" stroke-linecap="round"/>
    <path d="m65.105 375.722 2.01 3.234c.24.387.012.886-.404.964a.428.428 0 0 1-.217-.028l-1.852-.668-1.851.668a.428.428 0 0 1-.218.028c-.41-.077-.64-.564-.411-.951l1.904-3.234a.603.603 0 0 1 1.039-.013z" fill="#33454F"/>
    <path d="M656 376.393a1.606 1.606 0 1 0-.001 3.213 1.606 1.606 0 0 0 .001-3.213z" fill="#F7F5F2" stroke="#33454F" stroke-width="1.928"/>
    <path d="M636.428 206.656V81.24c0-5.68-4.604-10.283-10.282-10.283h-142.7" stroke="#33454F" stroke-linecap="round"/>
    <path d="m482.718 70.495 3.234-2.01c.387-.241.887-.012.964.403a.428.428 0 0 1-.028.218l-.668 1.851.668 1.852c.025.07.041.144.028.217-.076.41-.564.64-.951.412l-3.234-1.904a.603.603 0 0 1-.013-1.04z" fill="#33454F"/>
    <path d="M636.428 209.204a1.607 1.607 0 1 0 0-3.214 1.607 1.607 0 0 0 0 3.214z" fill="#F7F5F2" stroke="#33454F" stroke-width="1.928"/>
    <defs>
        <clipPath id="14bpenf8ba">
            <rect x="257.143" width="205.714" height="128.544" rx="10" fill="#fff"/>
        </clipPath>
        <clipPath id="hxnzts9upc">
            <rect y="230.094" width="205.714" height="128.544" rx="10" fill="#fff"/>
        </clipPath>
        <clipPath id="nx13n82xre">
            <rect x="257.143" y="230.094" width="205.714" height="128.544" rx="10" fill="#fff"/>
        </clipPath>
        <clipPath id="5y743paavg">
            <rect x="514.287" y="230.094" width="205.714" height="128.544" rx="10" fill="#fff"/>
        </clipPath>
        <clipPath id="n7vdf20yhi">
            <rect x="257.143" y="460.188" width="205.714" height="128.544" rx="10" fill="#fff"/>
        </clipPath>
    </defs>
</svg>
