<svg width="324" height="193" viewBox="0 0 324 193" fill="none" xmlns="http://www.w3.org/2000/svg">
<path d="M86.7182 88.762L168.602 88.7057L168.417 155.387C168.379 166.629 169.072 177.861 170.492 189.016L128.168 189.045L128.185 164.471C120.758 182.044 107.004 192.648 86.6469 192.662C40.8604 192.694 0.66113 155.263 0.699246 99.7581C0.736797 45.0737 34.9059 0.892615 92.8649 0.579298C130.781 0.313954 159.522 17.6223 170.759 54.7657L125.273 75.3037C121.547 51.792 110.678 38.5727 92.9788 38.5848C73.9156 38.598 56.1682 58.2624 56.1398 99.6174C56.1107 142.032 77.2638 154.663 92.3394 154.653C99.9531 154.714 107.357 152.199 113.296 147.535C119.235 142.871 123.343 136.346 124.922 129.065L125.167 128.006L86.6912 128.032L86.7182 88.762Z" fill="url(#paint0_linear_2168_387)"/>
<path d="M183.418 110.227C186.942 72.458 214.139 44.7211 253.42 44.6941C295.498 44.6651 323.739 75.8841 323.71 118.299C323.681 160.713 295.257 192.518 253.283 192.547C213.653 192.574 186.844 164.875 183.372 127.111L260.325 125.998C252.775 133.452 245.9 141.53 239.776 150.142C239.065 151.185 238.577 152.357 238.342 153.589C238.108 154.82 238.131 156.085 238.411 157.307C238.691 158.529 239.222 159.682 239.972 160.697C240.721 161.712 241.673 162.567 242.771 163.212C243.869 163.857 245.09 164.277 246.36 164.447C247.629 164.617 248.921 164.534 250.158 164.203C251.394 163.871 252.549 163.298 253.553 162.519C254.557 161.739 255.389 160.769 255.999 159.666C263.755 146.647 272.973 134.512 283.482 123.487C284.632 122.101 285.207 120.344 285.094 118.565L285.095 118.052C285.067 117.39 284.95 116.735 284.746 116.104C284.761 115.945 284.761 115.785 284.746 115.625C284.465 114.87 284.038 114.174 283.489 113.576C273.004 102.608 263.803 90.5322 256.055 77.5712C255.467 76.4363 254.645 75.4325 253.641 74.6225C252.637 73.8125 251.472 73.2136 250.22 72.8633C248.968 72.5129 247.655 72.4187 246.363 72.5864C245.072 72.7541 243.829 73.1802 242.712 73.8381C241.596 74.4959 240.63 75.3714 239.875 76.4098C239.12 77.4483 238.592 78.6274 238.323 79.8736C238.055 81.1198 238.053 82.4062 238.316 83.6527C238.579 84.8991 239.103 86.0788 239.854 87.118C244.643 93.9811 249.959 100.479 255.756 106.554C256.679 107.517 257.601 108.444 258.524 109.37C259.139 109.987 259.755 110.605 260.37 111.233L183.418 110.227Z" fill="url(#paint1_linear_2168_387)"/>
<defs>
<linearGradient id="paint0_linear_2168_387" x1="185.108" y1="21.3028" x2="134.934" y2="208.554" gradientUnits="userSpaceOnUse">
<stop stop-color="#5B24B2"/>
<stop offset="1" stop-color="#5B24B2" stop-opacity="0"/>
</linearGradient>
<linearGradient id="paint1_linear_2168_387" x1="185.108" y1="21.3028" x2="134.934" y2="208.554" gradientUnits="userSpaceOnUse">
<stop stop-color="#5B24B2"/>
<stop offset="1" stop-color="#5B24B2" stop-opacity="0"/>
</linearGradient>
</defs>
</svg>
