<svg width="324" height="193" viewBox="0 0 324 193" fill="none" xmlns="http://www.w3.org/2000/svg">
<path d="M86.019 88.1857L167.903 88.1294L167.717 154.81C167.679 166.053 168.373 177.285 169.793 188.44L127.469 188.469L127.486 163.895C120.059 181.467 106.305 192.072 85.9476 192.086C40.1611 192.118 -0.0380857 154.686 2.7079e-05 99.1818C0.0375755 44.4974 34.2066 0.316318 92.1657 0.00300379C130.082 -0.262338 158.822 17.046 170.06 54.1894L124.574 74.7274C120.848 51.2157 109.979 37.9964 92.2795 38.0085C73.2164 38.0217 55.469 57.6861 55.4406 99.0411C55.4115 141.456 76.5646 154.087 91.6402 154.077C99.2539 154.137 106.658 151.622 112.597 146.959C118.536 142.295 122.643 135.769 124.222 128.489L124.468 127.429L85.992 127.456L86.019 88.1857Z" fill="url(#paint0_linear_2168_390)"/>
<path d="M182.719 109.65C186.243 71.8817 213.44 44.1448 252.72 44.1178C294.799 44.0888 323.04 75.3078 323.011 117.722C322.982 160.137 294.558 191.942 252.584 191.971C212.954 191.998 186.144 164.298 182.673 126.534L259.625 125.422C252.076 132.876 245.201 140.954 239.077 149.565C238.365 150.608 237.878 151.781 237.643 153.012C237.409 154.244 237.432 155.509 237.712 156.73C237.992 157.952 238.523 159.105 239.272 160.12C240.022 161.135 240.974 161.991 242.072 162.636C243.17 163.28 244.391 163.7 245.66 163.871C246.93 164.041 248.222 163.958 249.458 163.626C250.695 163.295 251.85 162.722 252.854 161.942C253.858 161.163 254.69 160.192 255.3 159.09C263.056 146.071 272.274 133.936 282.783 122.911C283.933 121.525 284.508 119.768 284.395 117.988L284.395 117.476C284.368 116.814 284.25 116.159 284.047 115.528C284.062 115.368 284.062 115.208 284.047 115.049C283.765 114.294 283.338 113.598 282.789 112.999C272.304 102.032 263.103 89.9559 255.356 76.9949C254.768 75.86 253.945 74.8562 252.941 74.0462C251.938 73.2362 250.773 72.6373 249.521 72.287C248.269 71.9366 246.956 71.8424 245.664 72.0101C244.372 72.1778 243.13 72.6039 242.013 73.2618C240.897 73.9196 239.931 74.7951 239.176 75.8335C238.42 76.872 237.892 78.0511 237.624 79.2973C237.356 80.5435 237.353 81.8299 237.617 83.0764C237.88 84.3228 238.404 85.5025 239.155 86.5417C243.944 93.4048 249.26 99.9022 255.057 105.978C255.979 106.941 256.902 107.867 257.825 108.794C258.44 109.411 259.055 110.029 259.67 110.657L182.719 109.65Z" fill="url(#paint1_linear_2168_390)"/>
<defs>
<linearGradient id="paint0_linear_2168_390" x1="184.412" y1="20.7265" x2="134.238" y2="207.978" gradientUnits="userSpaceOnUse">
<stop stop-color="#A3C3FF"/>
<stop offset="1" stop-color="#A3C3FF" stop-opacity="0"/>
</linearGradient>
<linearGradient id="paint1_linear_2168_390" x1="184.412" y1="20.7265" x2="134.238" y2="207.978" gradientUnits="userSpaceOnUse">
<stop stop-color="#A3C3FF"/>
<stop offset="1" stop-color="#A3C3FF" stop-opacity="0"/>
</linearGradient>
</defs>
</svg>
