<svg width="327" height="102" viewBox="0 0 327 102" fill="none" xmlns="http://www.w3.org/2000/svg">
<line x1="1.12109" y1="87.4524" x2="325.159" y2="87.4524" stroke="#5B24B2"/>
<path d="M1 87.0159L325.999 0.906583" stroke="#5B24B2"/>
<path d="M260.015 60.6826V51.0026C260.015 50.7759 260.015 50.5359 260.015 50.2826C260.029 50.0159 260.042 49.7426 260.055 49.4626C259.602 49.9026 259.075 50.2893 258.475 50.6226C257.875 50.9426 257.262 51.1759 256.635 51.3226L256.215 49.8626C256.455 49.8359 256.755 49.7493 257.115 49.6026C257.489 49.4426 257.875 49.2493 258.275 49.0226C258.689 48.7826 259.069 48.5293 259.415 48.2626C259.762 47.9959 260.029 47.7359 260.215 47.4826H261.615V60.6826H260.015ZM268.788 60.8826C267.615 60.8826 266.668 60.616 265.948 60.0826C265.242 59.5493 264.695 58.8093 264.308 57.8626L265.868 57.0426C266.082 57.736 266.408 58.3026 266.848 58.7426C267.302 59.1693 267.962 59.3826 268.828 59.3826C269.442 59.3826 269.962 59.2693 270.388 59.0426C270.828 58.816 271.168 58.496 271.408 58.0826C271.648 57.656 271.768 57.1493 271.768 56.5626C271.768 55.936 271.655 55.416 271.428 55.0026C271.215 54.576 270.902 54.256 270.488 54.0426C270.075 53.8293 269.568 53.7226 268.968 53.7226C268.542 53.7226 268.142 53.7693 267.768 53.8626C267.408 53.9426 267.082 54.076 266.788 54.2626C266.495 54.4493 266.242 54.696 266.028 55.0026L264.628 54.7426L265.408 47.4826H272.828V48.9826H266.768L266.248 53.1426L266.208 53.3226H266.248C266.568 52.9893 266.975 52.7226 267.468 52.5226C267.975 52.3226 268.575 52.2226 269.268 52.2226C270.108 52.2226 270.835 52.4026 271.448 52.7626C272.075 53.1093 272.562 53.6026 272.908 54.2426C273.255 54.8826 273.428 55.6293 273.428 56.4826C273.428 57.1626 273.315 57.776 273.088 58.3226C272.862 58.8693 272.542 59.336 272.128 59.7226C271.715 60.096 271.222 60.3826 270.648 60.5826C270.088 60.7826 269.468 60.8826 268.788 60.8826ZM260.455 76.8826C259.802 76.8826 259.215 76.7426 258.695 76.4626C258.189 76.1693 257.789 75.776 257.495 75.2826C257.202 74.7893 257.055 74.2226 257.055 73.5826C257.055 72.9426 257.202 72.3759 257.495 71.8826C257.789 71.376 258.189 70.9826 258.695 70.7026C259.215 70.4226 259.802 70.2826 260.455 70.2826C261.122 70.2826 261.709 70.4226 262.215 70.7026C262.722 70.9826 263.122 71.376 263.415 71.8826C263.709 72.3759 263.855 72.9426 263.855 73.5826C263.855 74.2226 263.709 74.7893 263.415 75.2826C263.122 75.776 262.722 76.1693 262.215 76.4626C261.709 76.7426 261.122 76.8826 260.455 76.8826ZM260.455 75.5826C261.042 75.5826 261.522 75.3959 261.895 75.0226C262.269 74.636 262.455 74.156 262.455 73.5826C262.455 72.996 262.269 72.516 261.895 72.1426C261.522 71.7693 261.042 71.5826 260.455 71.5826C259.882 71.5826 259.402 71.7693 259.015 72.1426C258.642 72.516 258.455 72.996 258.455 73.5826C258.455 74.156 258.642 74.636 259.015 75.0226C259.402 75.3959 259.882 75.5826 260.455 75.5826Z" fill="#5B24B2"/>
<path d="M276.934 13.8903C282.828 17.7661 287.789 22.9 291.461 28.9227C295.133 34.9454 297.425 41.7072 298.171 48.7215C298.917 55.7358 298.099 62.8282 295.776 69.4886C293.453 76.149 289.682 82.2117 284.736 87.2405" stroke="#5B24B2"/>
</svg>
