<svg width="339" height="115" viewBox="0 0 339 115" fill="none" xmlns="http://www.w3.org/2000/svg">
<path d="M1.13262 68.7978H16.9305C16.9305 68.7978 16.9305 68.9778 16.9305 69.0806C17.0771 69.7495 17.3891 70.3707 17.8379 70.8874C18.2867 71.4041 18.858 71.7997 19.4993 72.0378C20.3622 72.4188 21.2823 72.6535 22.2222 72.7322C23.5069 72.9379 24.8162 72.9379 26.101 72.7322C27.0061 72.5535 27.8745 72.2231 28.6698 71.755C29.625 71.1047 30.3839 70.2047 30.8639 69.1529C31.344 68.1011 31.5268 66.9377 31.3926 65.7891C31.3926 63.2176 31.3926 60.8776 31.3926 58.4089C31.4054 58.2893 31.4054 58.1686 31.3926 58.0489C30.9816 58.0489 30.9816 58.0489 30.8275 58.2803C30.4765 59.0893 30.0371 59.8568 29.5174 60.569C28.3021 62.0667 26.7296 63.234 24.945 63.9634C23.463 64.5882 21.8958 64.9869 20.2956 65.1462C19.2443 65.2361 18.1873 65.2361 17.136 65.1462C13.3823 65.0173 9.77377 63.6627 6.86095 61.289C5.1808 59.861 3.80117 58.1128 2.80232 56.146C1.79786 54.2096 1.10435 52.1269 0.7473 49.9744C0.200439 46.9384 0.0107672 43.8487 0.182169 40.7685C0.25895 38.1178 0.646932 35.4853 1.33811 32.9254C2.04985 30.416 3.20713 28.0555 4.75456 25.9567C6.96592 22.9429 10.1521 20.7893 13.7709 19.8622C16.5169 19.0837 19.4248 19.0837 22.1708 19.8622C24.0094 20.3848 25.7084 21.3116 27.1438 22.575C28.5792 23.8384 29.7148 25.4066 30.4679 27.1653C30.4679 27.371 30.6477 27.5767 30.7504 27.7567C30.8532 27.9367 30.9046 27.7567 31.0073 27.7567C31.1101 27.7567 31.0073 27.7567 31.0073 27.6024C31.0201 27.4226 31.0201 27.2422 31.0073 27.0624V20.6594C30.994 20.4367 30.994 20.2135 31.0073 19.9908H46.8052C47.0107 19.9908 47.1905 19.9908 47.3703 19.9908C47.5502 19.9908 47.3703 20.3765 47.3703 20.6079V65.7891C47.4031 68.0714 46.975 70.3367 46.1116 72.4493C44.8118 75.4779 42.6268 78.0418 39.8439 79.8038C35.8363 82.2257 31.2904 83.613 26.6147 83.841C24.7924 83.9439 22.9657 83.9439 21.1433 83.841C17.5226 83.7493 13.9507 82.9818 10.6113 81.5781C8.43336 80.6792 6.45888 79.3498 4.80595 77.6694C2.65522 75.5072 1.27425 72.6972 0.875736 69.6721C0.914467 69.3688 1.00118 69.0737 1.13262 68.7978ZM16.9562 42.8257C16.9592 44.3119 17.1141 45.794 17.4186 47.2486C17.7345 48.7429 18.3941 50.1429 19.3451 51.3373C20.0963 52.2596 21.1224 52.9174 22.2735 53.2145C22.7944 53.346 23.329 53.415 23.8662 53.4202C24.8423 53.4945 25.8217 53.3268 26.7177 52.9321C27.6137 52.5375 28.3989 51.9279 29.0037 51.1573C29.3383 50.76 29.631 50.3291 29.8771 49.8716C30.4724 48.7818 30.8805 47.5996 31.0844 46.3743C31.5085 43.9758 31.5085 41.5213 31.0844 39.1227C30.8686 37.7766 30.4164 36.4794 29.7486 35.2912C29.1891 34.2187 28.3305 33.3319 27.2771 32.7385C26.2238 32.145 25.021 31.8705 23.8148 31.9482C22.9697 31.9582 22.1368 32.1519 21.3739 32.516C20.611 32.8801 19.9363 33.4059 19.3965 34.0569C18.5638 35.0442 17.9586 36.2032 17.6241 37.4512C17.1579 39.2039 16.9332 41.0121 16.9562 42.8257Z" fill="#43003C"/>
<path d="M138.355 19.9135C139.151 19.9135 154.281 19.9135 154.795 19.9135C154.795 20.1449 154.795 20.3764 154.795 20.6078V65.609C154.815 67.5719 154.52 69.5253 153.921 71.3948C152.944 74.3625 151.101 76.9689 148.63 78.8779C146.417 80.5795 143.896 81.8369 141.206 82.5808C139.325 83.1255 137.399 83.5041 135.452 83.7123C133.158 83.965 130.846 84.0252 128.542 83.8923C125.162 83.807 121.823 83.1281 118.678 81.8865C116.457 81.0112 114.419 79.7293 112.667 78.1064C110.277 75.8699 108.742 72.8688 108.326 69.6205C108.326 69.3376 108.326 69.0548 108.326 68.7719H108.583H124.149C124.156 68.8832 124.156 68.9949 124.149 69.1062C124.28 69.6975 124.542 70.2518 124.915 70.7281C125.289 71.2043 125.764 71.5904 126.307 71.8577C127.115 72.2556 127.983 72.5164 128.876 72.6291C130.103 72.8078 131.348 72.8078 132.575 72.6291C133.893 72.5021 135.161 72.0613 136.274 71.3434C137.047 70.8304 137.647 70.0953 137.995 69.2348C138.297 68.5314 138.488 67.7853 138.56 67.0233C138.56 66.509 138.56 65.9947 138.56 65.4804V58.5631C138.574 58.3747 138.574 58.1857 138.56 57.9973C138.149 57.9973 138.149 57.9973 138.021 58.1516L137.584 59.0774C136.481 61.0748 134.772 62.6689 132.703 63.6289C130.065 64.8321 127.171 65.3622 124.278 65.1718C120.529 65.0613 116.92 63.7245 114.003 61.366C112.335 59.9323 110.965 58.185 109.97 56.223C108.909 54.2174 108.172 52.0563 107.786 49.82C107.231 46.5771 107.058 43.2801 107.273 39.9969C107.376 37.7312 107.712 35.4822 108.275 33.2853C109.11 29.9239 110.78 26.8281 113.129 24.285C114.982 22.298 117.319 20.827 119.911 20.0164C122.119 19.2838 124.455 19.0211 126.77 19.2449C129.381 19.463 131.868 20.4569 133.911 22.0993C135.597 23.4771 136.928 25.2412 137.79 27.2423C137.832 27.3991 137.901 27.5471 137.995 27.6794C137.995 27.6794 138.149 27.6794 138.226 27.6794C138.303 27.6794 138.226 27.6794 138.226 27.4994C138.24 27.3196 138.24 27.1391 138.226 26.9594V20.6078C138.256 20.3742 138.299 20.1424 138.355 19.9135ZM138.56 42.8255C138.577 41.222 138.387 39.6231 137.995 38.0683C137.669 36.6826 137.047 35.3842 136.171 34.2624C135.476 33.3887 134.557 32.7194 133.512 32.3256C132.468 31.9318 131.336 31.828 130.237 32.0252C129.432 32.1541 128.662 32.4492 127.977 32.8919C127.291 33.3346 126.705 33.9152 126.256 34.5967C125.587 35.5235 125.083 36.5587 124.766 37.6568C124.388 39.05 124.172 40.4825 124.124 41.9255C124.029 43.7272 124.167 45.5337 124.535 47.2999C124.798 48.6613 125.35 49.9503 126.153 51.08C126.92 52.2043 128.071 53.0091 129.39 53.3429C129.929 53.4786 130.479 53.5647 131.034 53.6001C132.078 53.6693 133.122 53.4692 134.066 53.0189C135.011 52.5687 135.824 51.8834 136.428 51.0286C137.088 50.1191 137.584 49.1008 137.892 48.0199C138.389 46.3338 138.631 44.5831 138.612 42.8255H138.56Z" fill="#43003C"/>
<path d="M297.076 27.9109V27.6538V5.33322C297.063 5.10196 297.063 4.87017 297.076 4.63892C297.667 4.63892 313.002 4.63892 313.49 4.63892C313.49 5.10179 313.49 65.0433 313.49 65.6862H297.281C297.127 65.4548 297.281 65.2491 297.281 65.0176C297.281 62.9861 297.281 60.9289 297.281 58.8975V58.2803C297.076 58.2803 296.973 58.2803 296.896 58.2803C296.843 58.3695 296.8 58.4644 296.768 58.5632C295.899 60.5382 294.543 62.2592 292.826 63.5639C291.109 64.8686 289.089 65.7141 286.955 66.0205C283.697 66.6128 280.337 66.2082 277.313 64.8595C274.288 63.5108 271.74 61.2807 270.001 58.4603C268.499 56.0997 267.437 53.4859 266.867 50.7458C266.201 47.2997 265.968 43.7838 266.174 40.2798C266.277 37.614 266.709 34.9712 267.458 32.4111C268.175 30.0497 269.296 27.831 270.772 25.8538C272.785 23.1234 275.608 21.0987 278.838 20.0679C281.054 19.3362 283.399 19.0735 285.722 19.2964C288.369 19.5184 290.887 20.5407 292.94 22.2279C294.562 23.5852 295.846 25.3021 296.691 27.2424L296.922 27.7309L297.076 27.9109ZM297.513 42.7999C297.567 41.2587 297.402 39.7177 297.025 38.2226C296.728 36.907 296.169 35.6649 295.381 34.5711C294.639 33.5087 293.584 32.7046 292.364 32.2713C291.143 31.8379 289.818 31.7969 288.573 32.1539C287.777 32.3403 287.028 32.6902 286.373 33.1816C285.719 33.6729 285.173 34.2949 284.772 35.0083C284.142 36.0302 283.69 37.152 283.436 38.3255C282.858 41.1852 282.858 44.1317 283.436 46.9914C283.671 48.2953 284.151 49.543 284.849 50.6687C285.34 51.49 286.013 52.1879 286.815 52.7088C287.618 53.2298 288.529 53.56 289.478 53.6742C290.428 53.7883 291.391 53.6834 292.294 53.3675C293.197 53.0516 294.015 52.5331 294.687 51.8516C295.642 50.8274 296.345 49.5949 296.742 48.2515C297.343 46.4978 297.639 44.6538 297.615 42.7999H297.513Z" fill="#43003C"/>
<path d="M212.848 19.9392C213.361 19.9392 228.517 19.9392 229.262 19.9392C229.262 20.0678 229.262 20.1964 229.262 20.3249C229.275 20.5219 229.275 20.7194 229.262 20.9164V45.1913C229.223 46.1952 229.327 47.1995 229.57 48.1742C229.709 48.7138 229.898 49.2391 230.135 49.7428C230.539 50.6099 231.161 51.3572 231.94 51.9116C232.719 52.466 233.629 52.8086 234.579 52.9058C235.675 53.0733 236.792 53.0208 237.867 52.7515C238.912 52.4855 239.865 51.9409 240.625 51.1756C241.385 50.4103 241.923 49.453 242.183 48.4057C242.433 47.572 242.555 46.7047 242.543 45.8342V20.1192H259.085C259.097 20.2389 259.097 20.3595 259.085 20.4792V65.5833H243.673H243.519C243.519 65.0432 243.519 64.4775 243.519 63.8861V57.1745C243.056 57.1745 243.082 57.1745 242.928 57.3802C242.774 57.5859 242.465 58.5631 242.157 59.1288C241.332 60.7082 240.193 62.1022 238.811 63.2253C237.428 64.3485 235.831 65.1771 234.117 65.6604C231.826 66.3288 229.425 66.5385 227.053 66.2776C224.263 66.0525 221.594 65.0454 219.349 63.3718C217.105 61.6982 215.377 59.4257 214.363 56.8145C213.599 54.938 213.148 52.9486 213.027 50.9257C213.027 50.0257 213.027 49.1257 213.027 48.3542V20.6335C212.848 20.4021 212.848 20.1706 212.848 19.9392Z" fill="#43003C"/>
<path d="M205.138 65.7633H189.726C189.649 65.547 189.649 65.311 189.726 65.0947V59.4374C189.546 59.2831 189.417 59.4374 189.34 59.4374C189.246 59.5686 189.16 59.7061 189.083 59.8488C187.908 61.9159 186.183 63.6162 184.1 64.7604C182.652 65.5051 181.089 66.0006 179.476 66.2261C178.014 66.4445 176.535 66.522 175.058 66.4576C172.552 66.4232 170.082 65.8533 167.814 64.7861C166.136 64.0029 164.678 62.8154 163.571 61.3301C162.464 59.8447 161.742 58.1077 161.469 56.2745C161.006 53.8099 161.085 51.2738 161.7 48.8428C162.403 46.0264 164.123 43.5709 166.53 41.9512C168.242 40.7753 170.146 39.9052 172.155 39.3797C174.238 38.8645 176.36 38.529 178.5 38.3769C180.658 38.2564 182.804 37.9814 184.922 37.554C185.747 37.3872 186.543 37.1014 187.285 36.7054C187.597 36.5419 187.872 36.316 188.093 36.0417C188.314 35.7675 188.476 35.4507 188.57 35.1111C188.767 34.433 188.741 33.7095 188.496 33.0473C188.251 32.3851 187.799 31.8195 187.208 31.4338C186.713 31.0929 186.154 30.8566 185.564 30.7395C184.155 30.4043 182.681 30.4576 181.3 30.8938C180.527 31.1048 179.83 31.5308 179.288 32.1225C178.747 32.7142 178.385 33.4473 178.243 34.2367C178.209 34.3933 178.166 34.5478 178.115 34.6996H163.088C163.01 34.4483 163.01 34.1795 163.088 33.9282C163.362 31.5119 164.203 29.1949 165.543 27.166C166.882 25.1371 168.681 23.4539 170.794 22.2536C173.083 20.9519 175.59 20.0803 178.192 19.6821C180.332 19.3353 182.498 19.1804 184.665 19.2192C188.313 19.234 191.927 19.9226 195.326 21.2507C197.6 22.157 199.664 23.5226 201.388 25.2622C203.33 27.2047 204.599 29.7192 205.01 32.4367C205.092 33.0849 205.135 33.7376 205.138 34.391V65.7633ZM188.724 45.757L188.184 45.9371C186.446 46.5393 184.658 46.9867 182.841 47.2742C181.853 47.3931 180.88 47.6173 179.939 47.9428C179.109 48.2462 178.361 48.7393 177.755 49.3829C177.287 49.8944 176.956 50.5169 176.794 51.1917C176.632 51.8665 176.645 52.5714 176.83 53.2401C176.972 53.8394 177.266 54.3915 177.685 54.8424C178.104 55.2933 178.633 55.6273 179.219 55.8116H179.451C181.148 56.3012 182.962 56.1922 184.588 55.503C185.875 55.0742 186.983 54.2311 187.74 53.1053C188.498 51.9796 188.862 50.6345 188.775 49.28C188.775 48.3285 188.775 47.3771 188.775 46.3999C188.672 46.2199 188.647 46.0142 188.647 45.757H188.724Z" fill="#43003C"/>
<path d="M101.953 42.9798C101.991 46.2124 101.451 49.4258 100.361 52.4686C99.2436 55.6776 97.3498 58.5596 94.8486 60.8571C92.3474 63.1545 89.3165 64.796 86.0269 65.6347C84.3503 66.1081 82.6281 66.4012 80.8894 66.509C78.915 66.6761 76.93 66.6761 74.9556 66.509C71.6792 66.3033 68.4796 65.4282 65.5539 63.9375C60.9826 61.4543 57.5219 57.3283 55.8697 52.3915C55.1798 50.4039 54.7313 48.3404 54.5339 46.2456C54.4054 44.5337 54.4054 42.8145 54.5339 41.1026C54.6942 36.6944 56.0627 32.4154 58.4898 28.7337C60.953 25.1453 64.5001 22.4416 68.6107 21.0192C70.5335 20.3205 72.5352 19.8628 74.5702 19.6563C76.0202 19.4974 77.4787 19.4287 78.9372 19.4506C82.1323 19.4545 85.3003 20.0382 88.2874 21.1735C91.1799 22.2441 93.7923 23.9573 95.9279 26.1843C98.0636 28.4113 99.667 31.0942 100.617 34.031C101.281 35.9412 101.695 37.9291 101.851 39.9454C101.851 40.8969 101.902 41.9255 101.953 42.9798ZM85.0765 42.8255C85.1602 40.8483 84.9348 38.8701 84.4086 36.9625C84.0551 35.6466 83.4439 34.4141 82.6105 33.3367C82.081 32.6514 81.3925 32.1058 80.6046 31.7473C79.8168 31.3888 78.9534 31.2282 78.0895 31.2795C76.694 31.31 75.3623 31.8708 74.3647 32.8481C73.4246 33.8082 72.7133 34.9686 72.2841 36.2425C71.7012 37.9499 71.3807 39.736 71.3336 41.5398C71.2438 42.8239 71.2438 44.1128 71.3336 45.397C71.4443 46.9132 71.782 48.4042 72.3354 49.82C72.7599 51.0165 73.4543 52.0989 74.3647 52.9829C74.954 53.5431 75.6585 53.9676 76.4289 54.2265C77.1992 54.4855 78.0168 54.5727 78.8244 54.4821C79.632 54.3914 80.41 54.1251 81.1039 53.7018C81.7979 53.2785 82.391 52.7084 82.8417 52.0315C83.5466 51.0125 84.0763 49.8825 84.4086 48.6885C84.9115 46.7765 85.1365 44.8018 85.0765 42.8255Z" fill="#43003C"/>
<path d="M338.23 65.7376H321.867C321.867 65.5576 321.867 65.3519 321.867 65.1461C321.867 50.1629 321.867 35.1797 321.867 20.1964H338.076H338.205C338.205 20.1964 338.205 20.3764 338.205 20.4793L338.23 65.7376Z" fill="#43003C"/>
<path d="M330.242 15.0791C328.946 15.1275 327.656 14.874 326.475 14.3385C325.294 13.803 324.253 13.0002 323.434 11.9933C322.388 10.7224 321.816 9.12702 321.816 7.48036C321.816 5.8337 322.388 4.23828 323.434 2.96739C324.359 1.86074 325.557 1.01518 326.908 0.514519C328.26 0.0138534 329.719 -0.124548 331.141 0.113027C333.139 0.364029 334.972 1.35473 336.278 2.89024C337.411 4.18073 338.035 5.83976 338.035 7.55751C338.035 9.27526 337.411 10.9343 336.278 12.2248C335.006 13.7092 333.249 14.6934 331.32 15.002L330.242 15.0791Z" fill="#43003C"/>
<path d="M5.65127 114.905C4.35312 114.962 3.07465 114.572 2.02932 113.799C1.06193 113.005 0.354937 111.939 0 110.739L3.41646 109.916C3.49851 110.407 3.76498 110.849 4.1614 111.15C4.53416 111.471 5.006 111.652 5.49715 111.664C5.85479 111.659 6.20632 111.571 6.52466 111.407C6.70995 111.324 6.87617 111.203 7.01312 111.053C7.15007 110.902 7.25483 110.725 7.32097 110.533C7.4424 110.249 7.50362 109.942 7.50078 109.633C7.50078 109.273 7.50078 108.862 7.50078 108.399V96.1069H11.0457V108.399C11.0457 108.99 11.0457 109.504 11.0457 109.916C11.0989 110.326 11.0989 110.74 11.0457 111.15C10.9553 111.567 10.7992 111.966 10.5833 112.333C10.1125 113.176 9.40758 113.864 8.55398 114.313C7.64338 114.727 6.65102 114.929 5.65127 114.905Z" fill="#43003C"/>
<path d="M14.6406 114.519V96.1069H26.6368V99.3727H18.1085V103.307H25.1212V106.547H18.1085V111.279H26.6368V114.519H14.6406Z" fill="#43003C"/>
<path d="M33.7295 114.519V99.3727H27.8984V96.1069H42.9771V99.3727H37.1974V114.519H33.7295Z" fill="#43003C"/>
<path d="M44.2852 114.519V114.107L53.019 99.3727H45.0301V96.1069H59.0812V96.5441L50.3988 111.253H58.7216V114.519H44.2852Z" fill="#43003C"/>
<path d="M67.1972 114.519V99.3727H61.2891V96.1069H76.3677V99.3727H70.665V114.519H67.1972Z" fill="#43003C"/>
<path d="M82.3281 114.519V96.1069H93.5793V99.6042H85.873V103.59H92.1151V107.061H85.8216V114.519H82.3281Z" fill="#43003C"/>
<path d="M94.0938 114.519L99.8221 96.1069H104.96L110.56 114.519H106.989L101.851 98.2927H102.519L97.5873 114.519H94.0938ZM97.4588 110.687V107.447H107.169V110.687H97.4588ZM98.0753 94.1783V91.0925H101.132V94.1783H98.0753ZM103.495 94.1783V91.0925H106.552V94.1783H103.495Z" fill="#43003C"/>
<path d="M112.664 114.519V96.1069H116.183L124.172 108.399V96.1069H127.717V114.519H124.172L116.183 102.253V114.519H112.664Z" fill="#43003C"/>
<path d="M138.585 114.905C137.459 114.911 136.343 114.701 135.297 114.287C134.25 113.873 133.298 113.252 132.497 112.462C131.663 111.6 131.016 110.576 130.596 109.453C130.11 108.128 129.875 106.724 129.902 105.313C129.854 103.526 130.261 101.756 131.084 100.17C131.801 98.8076 132.887 97.6756 134.218 96.9041C135.549 96.1495 137.055 95.7593 138.585 95.7726C140.589 95.6588 142.57 96.2501 144.185 97.4441C145.593 98.6413 146.554 100.283 146.907 102.098L143.337 102.613C143.054 101.618 142.493 100.726 141.719 100.041C140.903 99.3713 139.87 99.0237 138.816 99.0641C137.794 99.0053 136.78 99.2659 135.913 99.8099C135.12 100.352 134.511 101.124 134.166 102.021C133.758 103.088 133.557 104.222 133.576 105.364C133.554 106.506 133.755 107.642 134.166 108.707C134.518 109.594 135.126 110.355 135.913 110.893C136.785 111.43 137.792 111.707 138.816 111.69C139.557 111.718 140.295 111.577 140.974 111.279C141.631 110.975 142.197 110.505 142.618 109.916C143.095 109.195 143.411 108.379 143.542 107.524H140.64V104.953H147.267C147.267 104.953 147.267 105.236 147.267 105.519C147.267 105.801 147.267 105.981 147.267 106.007C147.3 107.641 146.929 109.257 146.188 110.713C145.501 112.043 144.45 113.149 143.157 113.902C141.749 114.635 140.171 114.981 138.585 114.905Z" fill="#43003C"/>
<path d="M153.356 114.519V99.3727H147.551V96.1069H162.629V99.3727H156.824V114.519H153.356Z" fill="#43003C"/>
<path d="M168.508 114.519V96.1069H175.366C175.794 96.0806 176.223 96.0806 176.651 96.1069C178.038 96.2397 179.353 96.7861 180.427 97.6755C181.472 98.5362 182.277 99.6522 182.764 100.916C183.861 103.682 183.861 106.764 182.764 109.53C182.277 110.794 181.472 111.91 180.427 112.77C179.347 113.649 178.035 114.194 176.651 114.339C176.24 114.339 175.803 114.339 175.366 114.339H168.508V114.519ZM172.027 111.253H175.392C175.742 111.295 176.095 111.295 176.445 111.253C177.214 111.114 177.913 110.714 178.423 110.122C178.941 109.508 179.318 108.788 179.528 108.013C179.787 107.181 179.917 106.313 179.913 105.441C179.914 104.57 179.784 103.703 179.528 102.87C179.306 102.089 178.911 101.368 178.372 100.761C177.866 100.199 177.189 99.8197 176.445 99.6813C176.095 99.6515 175.743 99.6515 175.392 99.6813H172.027V111.253Z" fill="#43003C"/>
<path d="M184.594 114.519L190.219 96.1069H195.357L200.982 114.519H197.438L192.428 98.2927H193.096L188.164 114.519H184.594ZM187.959 110.687V107.447H197.669V110.687H187.959Z" fill="#43003C"/>
<path d="M209.511 114.905C208.249 114.93 206.997 114.685 205.838 114.185C204.767 113.745 203.832 113.031 203.124 112.115C202.416 111.198 201.961 110.112 201.805 108.965L205.427 108.425C205.637 109.408 206.205 110.279 207.019 110.867C207.813 111.434 208.767 111.731 209.742 111.716C210.309 111.721 210.873 111.634 211.412 111.459C211.905 111.299 212.353 111.026 212.722 110.662C212.89 110.494 213.023 110.293 213.111 110.072C213.2 109.851 213.242 109.614 213.236 109.376C213.262 109.188 213.262 108.998 213.236 108.81C213.171 108.632 213.076 108.466 212.953 108.322C212.794 108.152 212.612 108.005 212.414 107.885C212.137 107.731 211.844 107.61 211.54 107.525L206.762 106.11C206.334 105.991 205.914 105.845 205.504 105.673C205.01 105.482 204.551 105.213 204.142 104.876C203.681 104.496 203.305 104.022 203.038 103.487C202.698 102.792 202.539 102.023 202.575 101.25C202.534 100.147 202.859 99.0622 203.5 98.1643C204.173 97.3313 205.061 96.6996 206.069 96.3385C207.171 95.9358 208.337 95.7355 209.511 95.7471C210.681 95.7551 211.84 95.9818 212.927 96.4156C213.919 96.806 214.801 97.4327 215.496 98.2414C216.189 99.0921 216.689 100.084 216.96 101.147L213.184 101.79C213.074 101.235 212.816 100.72 212.439 100.299C212.084 99.8817 211.635 99.5556 211.129 99.3471C210.625 99.1332 210.084 99.0196 209.537 99.0129C209.013 98.9848 208.488 99.0636 207.995 99.2443C207.552 99.3759 207.153 99.6246 206.839 99.9643C206.69 100.107 206.572 100.278 206.492 100.469C206.413 100.659 206.374 100.864 206.377 101.07C206.369 101.249 206.396 101.427 206.458 101.595C206.52 101.763 206.615 101.917 206.737 102.047C207.008 102.316 207.331 102.526 207.687 102.664C208.054 102.82 208.432 102.949 208.817 103.05L212.028 103.924C212.491 104.053 213.03 104.207 213.595 104.413C214.185 104.637 214.745 104.931 215.265 105.287C215.806 105.679 216.26 106.178 216.601 106.753C216.962 107.469 217.139 108.265 217.115 109.067C217.141 109.967 216.919 110.857 216.472 111.639C216.08 112.372 215.516 112.998 214.828 113.465C214.102 113.962 213.293 114.328 212.439 114.545C211.488 114.816 210.5 114.937 209.511 114.905Z" fill="#43003C"/>
<path d="M224.559 114.519V96.1069H228.026V111.279H235.964V114.519H224.559Z" fill="#43003C"/>
<path d="M237.867 114.519V96.1069H249.889V99.3727H241.335V103.307H248.348V106.547H241.335V111.279H249.889V114.519H237.867Z" fill="#43003C"/>
<path d="M252.691 114.519V96.1069H260.064C261.172 96.0624 262.269 96.3392 263.223 96.9041C263.999 97.3716 264.616 98.0614 264.996 98.8842C265.364 99.6276 265.558 100.446 265.561 101.276C265.598 102.184 265.355 103.081 264.867 103.847C264.429 104.526 263.75 105.013 262.966 105.21V104.593C263.998 104.768 264.92 105.34 265.535 106.187C266.098 107.003 266.395 107.973 266.383 108.964C266.397 109.964 266.195 110.955 265.792 111.87C265.38 112.689 264.737 113.368 263.943 113.825C262.974 114.32 261.895 114.559 260.809 114.519H252.691ZM256.211 103.307H260.012C260.365 103.31 260.715 103.24 261.04 103.101C261.348 102.968 261.608 102.744 261.785 102.459C261.975 102.122 262.064 101.738 262.042 101.353C262.053 100.834 261.869 100.329 261.528 99.9385C261.329 99.7426 261.092 99.5909 260.831 99.4934C260.569 99.3959 260.291 99.3548 260.012 99.3727H256.211V103.307ZM256.211 111.253H260.475C260.911 111.26 261.342 111.163 261.733 110.97C262.095 110.77 262.397 110.477 262.607 110.122C262.818 109.726 262.929 109.284 262.929 108.836C262.929 108.387 262.818 107.946 262.607 107.55C262.424 107.213 262.148 106.936 261.811 106.753C261.391 106.535 260.922 106.428 260.449 106.444H256.185L256.211 111.253Z" fill="#43003C"/>
<path d="M268.719 114.519V96.1069H280.715V99.3727H272.187V103.307H279.174V106.547H272.187V111.279H280.715V114.519H268.719Z" fill="#43003C"/>
<path d="M283.516 114.519V96.1069H287.061L295.049 108.399V96.1069H298.569V114.519H295.049L287.061 102.253V114.519H283.516Z" fill="#43003C"/>
<path d="M305.477 114.519L311.102 96.1069H316.24L321.865 114.519H318.295L313.286 98.2927H313.953L309.021 114.519H305.477ZM308.842 110.687V107.447H318.552V110.687H308.842Z" fill="#43003C"/>
<path d="M323.945 114.519V96.1069H327.465L335.453 108.399V96.1069H338.998V114.519H335.453L327.465 102.253V114.519H323.945Z" fill="#43003C"/>
</svg>
