<svg width="417" height="78" viewBox="0 0 417 78" fill="none" xmlns="http://www.w3.org/2000/svg">
<g clip-path="url(#clip0_2116_1762)">
<path d="M396.379 25.9313L416.149 24.2673V62.8305C416.137 67.3918 416.422 71.9493 417.002 76.4753H396.379V25.9313Z" fill="#5B24B2"/>
<path d="M293.676 63.2607C300.451 63.2607 303.135 55.0794 303.135 44.3882V19.4143H322.792V62.8447C322.778 67.4019 323.068 71.9551 323.659 76.4756H303.135V65.1743C300.011 72.8426 294.614 77.9732 286.589 77.9732C273.266 77.9732 268.125 67.3791 268.125 57.1039V19.4143H287.896V54.2474C287.881 60.6399 290.665 63.2607 293.676 63.2607Z" fill="#5B24B2"/>
<path d="M329.668 47.9512C329.668 30.3267 339.34 17.9437 353.188 17.9437C358.784 17.9437 364.153 21.2995 367.704 26.86V1.48401H387.474V62.844C387.462 67.4007 387.747 71.9535 388.326 76.475H367.704V68.155C364.053 74.3395 358.457 77.8616 352.549 77.8616C338.474 77.9448 329.668 66.4078 329.668 47.9512ZM358.884 62.22C363.826 62.22 367.704 56.1325 367.704 49.74V45.0253C367.704 39.0488 363.443 33.6963 358.884 33.6963C353.728 33.6963 350.504 39.3539 350.504 47.9651C350.504 56.5763 353.728 62.22 358.884 62.22Z" fill="#5B24B2"/>
<path d="M102.604 17.943C86.6538 17.943 75.6181 29.1889 74.1978 44.5115L105.444 44.9414C104.819 44.3035 104.195 43.6934 103.57 43.0417C101.214 40.575 99.0538 37.9374 97.1072 35.1515C96.8019 34.7297 96.589 34.2509 96.4817 33.7451C96.3744 33.2394 96.3751 32.7174 96.4836 32.2119C96.5922 31.7064 96.8063 31.2281 97.1127 30.807C97.419 30.3859 97.811 30.031 98.2642 29.7644C98.7173 29.4978 99.2219 29.3253 99.7463 29.2576C100.271 29.1899 100.804 29.2285 101.312 29.371C101.821 29.5134 102.294 29.7567 102.702 30.0857C103.11 30.4146 103.444 30.8221 103.683 31.2827C106.833 36.5434 110.572 41.4455 114.833 45.8982C115.056 46.1412 115.229 46.4236 115.344 46.7302C115.35 46.7948 115.35 46.8598 115.344 46.9243C115.427 47.1805 115.474 47.4463 115.486 47.7147C115.486 47.7147 115.486 47.7147 115.486 47.8257V47.9227C115.532 48.6448 115.299 49.3575 114.833 49.9195C110.569 54.3896 106.829 59.3104 103.683 64.5905C103.436 65.0375 103.098 65.431 102.691 65.7471C102.283 66.0632 101.814 66.2953 101.313 66.4294C100.811 66.5636 100.286 66.5969 99.7704 66.5274C99.2548 66.458 98.7591 66.2872 98.3131 66.0254C97.867 65.7635 97.48 65.4161 97.1755 65.0041C96.8709 64.5921 96.6551 64.1241 96.541 63.6283C96.427 63.1325 96.4171 62.6194 96.512 62.1198C96.6069 61.6202 96.8045 61.1446 97.093 60.7217C99.5775 57.2296 102.367 53.954 105.43 50.9318L74.1836 51.3617C75.6039 66.6843 86.4976 77.9302 102.59 77.9302C119.633 77.9302 131.166 65.0342 131.166 47.8257C131.166 30.6171 119.69 17.943 102.604 17.943Z" fill="#5B24B2"/>
<path d="M68.1744 35.7754H34.9252V51.7082H50.5485L50.449 52.1381C49.8098 55.0913 48.1438 57.7378 45.7337 59.6283C43.3235 61.5189 40.3176 62.5371 37.2261 62.5103C31.1046 62.5103 22.5118 57.3797 22.5118 40.1711C22.5118 23.3925 29.7127 15.4191 37.4533 15.4191C44.64 15.4191 49.0572 20.7855 50.5769 30.3258L69.0408 22.0058C64.4674 6.93274 52.7925 -0.0976624 37.3965 -0.000595763C13.8621 0.110338 0 18.0261 0 40.2127C0 62.7322 16.3334 77.9301 34.9252 77.9301C43.1913 77.9301 48.7731 73.6314 51.7841 66.5039V76.4741H68.9698C68.3899 71.948 68.1053 67.3906 68.1176 62.8293L68.1744 35.7754Z" fill="#5B24B2"/>
<path d="M204.028 35.7775H170.821V51.7103H186.444L186.345 52.1401C185.703 55.0922 184.037 57.7371 181.627 59.6272C179.217 61.5174 176.213 62.5366 173.122 62.5124C167.001 62.5124 158.408 57.3817 158.408 40.1732C158.408 23.3945 165.609 15.4212 173.335 15.4212C180.536 15.4212 184.939 20.7876 186.473 30.3279L204.937 22.0079C200.378 6.93481 188.703 -0.0955872 173.278 0.00147943C149.772 0.112413 135.91 18.0281 135.91 40.2148C135.91 62.7759 152.244 77.9737 170.821 77.9737C179.101 77.9737 184.683 73.6751 187.694 66.5476V76.5177H204.88C204.3 71.9917 204.015 67.4342 204.028 62.8729V35.7775Z" fill="#5B24B2"/>
<path d="M405.893 19.2207C411.87 19.2207 416.716 14.9181 416.716 9.61058C416.716 4.30307 411.87 0.000488281 405.893 0.000488281C399.916 0.000488281 395.07 4.30307 395.07 9.61058C395.07 14.9181 399.916 19.2207 405.893 19.2207Z" fill="#5B24B2"/>
<path d="M260.684 76.4507C260.11 71.9798 259.909 69.0269 259.915 64.5211V40.6011C259.915 26.9702 253.581 17.943 236.168 17.943C224.464 17.943 214.679 23.4897 207.762 32.6278L222.575 40.2129C225.544 34.8049 229.251 31.7681 233.938 31.7681C237.588 31.7681 239.619 34.1809 239.946 39.2145C215.346 41.9878 209.012 53.2753 209.012 62.3995C209.012 71.5238 214.92 77.9163 225.331 77.9163C234.037 77.9163 238.653 73.5206 240.954 67.5302L242.559 76.4507H260.684ZM232.731 62.2193C232.257 62.2501 231.782 62.1815 231.337 62.018C230.893 61.8545 230.49 61.6 230.154 61.2715C229.819 60.943 229.56 60.5482 229.395 60.1137C229.229 59.6792 229.161 59.2151 229.194 58.7526C229.194 54.9809 233.597 52.2491 240.045 50.9873C239.932 58.6417 236.494 62.2193 232.731 62.2193Z" fill="#5B24B2"/>
</g>
<defs>
<clipPath id="clip0_2116_1762">
<rect width="417" height="78" fill="white"/>
</clipPath>
</defs>
</svg>
