<svg width="433" height="889" viewBox="0 0 433 889" fill="none" xmlns="http://www.w3.org/2000/svg">
<path d="M431.984 286.36H425.502C424.938 286.36 424.484 286.815 424.484 287.379V391.8C424.484 392.364 424.938 392.819 425.502 392.819H431.984C432.548 392.819 433.002 392.364 433.002 391.8V287.379C433.002 286.815 432.548 286.36 431.984 286.36Z" fill="#6C635B"/>
<path d="M432.041 286.757H425.445C424.913 286.757 424.484 287.186 424.484 287.72V391.459C424.484 391.993 424.912 392.423 425.445 392.423H432.041C432.573 392.423 433.002 391.993 433.002 391.459V287.72C433.002 287.186 432.574 286.757 432.041 286.757Z" fill="url(#paint0_linear_2235_1803)"/>
<path d="M7.49933 241.28H1.01796C0.454038 241.28 0 241.735 0 242.299V304.39C0 304.955 0.4539 305.409 1.01796 305.409H7.49933C8.06325 305.409 8.51729 304.955 8.51729 304.39V242.299C8.51729 241.735 8.06339 241.28 7.49933 241.28Z" fill="#6C635B"/>
<path d="M7.557 241.677H0.960359C0.428295 241.677 0 242.107 0 242.64V304.05C0 304.584 0.428111 305.013 0.960359 305.013H7.557C8.08902 305.013 8.51729 304.584 8.51729 304.05V242.64C8.51729 242.107 8.0892 241.677 7.557 241.677Z" fill="url(#paint1_linear_2235_1803)"/>
<path d="M7.49933 172.414H1.01796C0.454038 172.414 0 172.868 0 173.433V209.554C0 210.118 0.4539 210.573 1.01796 210.573H7.49933C8.06325 210.573 8.51729 210.118 8.51729 209.554V173.433C8.51729 172.868 8.06339 172.414 7.49933 172.414Z" fill="#6C635B"/>
<path d="M7.557 172.81H0.960359C0.428295 172.81 0 173.24 0 173.773V209.213C0 209.746 0.428111 210.176 0.960359 210.176H7.557C8.08902 210.176 8.51729 209.747 8.51729 209.213V173.773C8.51729 173.24 8.0892 172.81 7.557 172.81Z" fill="url(#paint2_linear_2235_1803)"/>
<path d="M7.49933 327.861H1.01796C0.454038 327.861 0 328.316 0 328.88V390.972C0 391.536 0.4539 391.991 1.01796 391.991H7.49933C8.06325 391.991 8.51729 391.536 8.51729 390.972V328.88C8.51729 328.316 8.06339 327.861 7.49933 327.861Z" fill="#6C635B"/>
<path d="M7.557 328.258H0.960359C0.428295 328.258 0 328.688 0 329.222V390.631C0 391.165 0.428111 391.595 0.960359 391.595H7.557C8.08902 391.595 8.51729 391.165 8.51729 390.631V329.222C8.51729 328.688 8.0892 328.258 7.557 328.258Z" fill="url(#paint3_linear_2235_1803)"/>
<path fill-rule="evenodd" clip-rule="evenodd" d="M74.486 0H358.514C398.245 0 430.453 32.2415 430.453 72.0134V816.987C430.453 856.759 398.245 889 358.514 889H74.486C34.7551 889 2.54688 856.759 2.54688 816.987V72.0134C2.54688 32.2415 34.7551 0 74.486 0ZM76 17C43.9675 17 18 42.9675 18 75V814C18 846.033 43.9675 872 76 872H357C389.033 872 415 846.032 415 814V75C415 42.9675 389.033 17 357 17H76Z" fill="#6C635B"/>
<g filter="url(#filter0_f_2235_1803)">
<path fill-rule="evenodd" clip-rule="evenodd" d="M75.6202 2.80493H357.381C396.438 2.80493 428.099 34.4991 428.099 73.5957V815.404C428.099 854.501 396.438 886.195 357.381 886.195H75.6202C36.5638 886.195 4.90234 854.501 4.90234 815.404V73.5957C4.90234 34.4991 36.5638 2.80493 75.6202 2.80493ZM74 13.0001C41.9675 13.0001 16 38.9675 16 71V818C16 850.033 41.9675 876 74 876H359C391.033 876 417 850.033 417 818V71.0001C417 38.9675 391.033 13.0001 359 13.0001H74Z" fill="#DAD5C5"/>
</g>
<path fill-rule="evenodd" clip-rule="evenodd" d="M14 99.9674V93.9949H2.54688V99.9674H14ZM14 789.033V795.005H2.54688V789.033H14ZM94.0318 879V888.999H99.9981V879H94.0318ZM419 795.005H430.452V789.033H419V795.005ZM419 99.9674H430.452V93.9949H419V99.9674ZM338.965 10V0.000976562H332.998V10H338.965Z" fill="#3D342C" fill-opacity="0.295364"/>
<path fill-rule="evenodd" clip-rule="evenodd" d="M76.7165 5.67212H356.286C394.009 5.67212 424.589 36.2837 424.589 74.045V814.955C424.589 852.716 394.009 883.328 356.286 883.328H76.7165C38.9941 883.328 8.41406 852.716 8.41406 814.955V74.045C8.41406 36.2837 38.9941 5.67212 76.7165 5.67212ZM76 16.9999C43.9675 16.9999 18 42.9674 18 75V814C18 846.032 43.9675 872 76 872H357C389.033 872 415 846.032 415 814V74.9999C415 42.9674 389.033 16.9999 357 16.9999H76Z" fill="#151515"/>
<path fill-rule="evenodd" clip-rule="evenodd" d="M79.3783 10.0308H353.624C389.663 10.0308 418.877 39.2758 418.877 75.3514V813.649C418.877 849.724 389.663 878.969 353.624 878.969H79.3783C43.3399 878.969 14.125 849.724 14.125 813.649V75.3514C14.125 39.2758 43.3399 10.0308 79.3783 10.0308ZM76 16.9999C43.9675 16.9999 18 42.9674 18 75V814C18 846.032 43.9675 872 76 872H357C389.033 872 415 846.032 415 814V74.9999C415 42.9674 389.033 16.9999 357 16.9999H76Z" fill="black"/>
<path d="M260.457 27.0718H172.542C162.246 27.0718 153.898 35.4275 153.898 45.7348C153.898 56.0421 162.246 64.3978 172.542 64.3978H260.457C270.754 64.3978 279.101 56.0421 279.101 45.7348C279.101 35.4275 270.754 27.0718 260.457 27.0718Z" fill="black"/>
<path d="M259.966 56.0477C265.656 56.0477 270.268 51.4305 270.268 45.7348C270.268 40.0392 265.656 35.422 259.966 35.422C254.277 35.422 249.664 40.0392 249.664 45.7348C249.664 51.4305 254.277 56.0477 259.966 56.0477Z" fill="#0A0A0A"/>
<path d="M259.968 52.0955C263.477 52.0955 266.322 49.2477 266.322 45.7348C266.322 42.2218 263.477 39.374 259.968 39.374C256.458 39.374 253.613 42.2218 253.613 45.7348C253.613 49.2477 256.458 52.0955 259.968 52.0955Z" fill="#0C0E11"/>
<path d="M259.967 50.5809C262.641 50.5809 264.808 48.4111 264.808 45.7346C264.808 43.058 262.641 40.8882 259.967 40.8882C257.293 40.8882 255.125 43.058 255.125 45.7346C255.125 48.4111 257.293 50.5809 259.967 50.5809Z" fill="#12171E"/>
<g filter="url(#filter1_f_2235_1803)">
<path fill-rule="evenodd" clip-rule="evenodd" d="M256.634 42.4923C256.059 42.5528 255.244 43.43 255.183 45.154C255.123 46.8781 255.878 47.8158 256.301 47.8158C256.724 47.8158 258.477 45.3053 256.634 42.4923Z" fill="#425A72" fill-opacity="0.299338"/>
</g>
<g filter="url(#filter2_f_2235_1803)">
<path fill-rule="evenodd" clip-rule="evenodd" d="M260.756 41.8884C259.85 42.1674 259.676 43.6317 259.711 44.4685C259.746 45.3053 260.93 47.5019 262.358 47.0137C263.786 46.5256 264.03 44.7126 263.438 43.4923C262.846 42.272 261.766 41.4003 260.756 41.8884Z" fill="#425A72" fill-opacity="0.299338"/>
</g>
<path d="M167.559 5.67212C172.571 5.67212 172.441 6.86884 173.479 8.22675C174.236 9.21716 175.211 9.53265 177.131 9.53265H255.868C257.787 9.53265 258.76 9.21716 259.517 8.22675C260.555 6.86884 260.427 5.67212 265.44 5.67212H167.559Z" fill="url(#paint4_linear_2235_1803)"/>
<defs>
<filter id="filter0_f_2235_1803" x="3.56235" y="1.46494" width="425.875" height="886.07" filterUnits="userSpaceOnUse" color-interpolation-filters="sRGB">
<feFlood flood-opacity="0" result="BackgroundImageFix"/>
<feBlend mode="normal" in="SourceGraphic" in2="BackgroundImageFix" result="shape"/>
<feGaussianBlur stdDeviation="0.669995" result="effect1_foregroundBlur_2235_1803"/>
</filter>
<filter id="filter1_f_2235_1803" x="254.88" y="42.1922" width="2.88138" height="5.92361" filterUnits="userSpaceOnUse" color-interpolation-filters="sRGB">
<feFlood flood-opacity="0" result="BackgroundImageFix"/>
<feBlend mode="normal" in="SourceGraphic" in2="BackgroundImageFix" result="shape"/>
<feGaussianBlur stdDeviation="0.150032" result="effect1_foregroundBlur_2235_1803"/>
</filter>
<filter id="filter2_f_2235_1803" x="259.407" y="41.4504" width="4.63138" height="5.93338" filterUnits="userSpaceOnUse" color-interpolation-filters="sRGB">
<feFlood flood-opacity="0" result="BackgroundImageFix"/>
<feBlend mode="normal" in="SourceGraphic" in2="BackgroundImageFix" result="shape"/>
<feGaussianBlur stdDeviation="0.150032" result="effect1_foregroundBlur_2235_1803"/>
</filter>
<linearGradient id="paint0_linear_2235_1803" x1="433.002" y1="286.916" x2="433.002" y2="392.149" gradientUnits="userSpaceOnUse">
<stop stop-color="#DAD5C5"/>
<stop offset="0.124105" stop-color="#BCB6A8"/>
<stop offset="0.764916" stop-color="#9B9388"/>
<stop offset="0.985317" stop-color="#80786E"/>
<stop offset="1" stop-color="#B9B3A5"/>
</linearGradient>
<linearGradient id="paint1_linear_2235_1803" x1="8.51729" y1="241.837" x2="8.51729" y2="304.815" gradientUnits="userSpaceOnUse">
<stop stop-color="#DAD5C5"/>
<stop offset="0.124105" stop-color="#BCB6A8"/>
<stop offset="0.764916" stop-color="#9B9388"/>
<stop offset="0.985317" stop-color="#80786E"/>
<stop offset="1" stop-color="#B9B3A5"/>
</linearGradient>
<linearGradient id="paint2_linear_2235_1803" x1="8.51729" y1="172.97" x2="8.51729" y2="209.981" gradientUnits="userSpaceOnUse">
<stop stop-color="#DAD5C5"/>
<stop offset="0.124105" stop-color="#BCB6A8"/>
<stop offset="0.764916" stop-color="#9B9388"/>
<stop offset="0.985317" stop-color="#80786E"/>
<stop offset="1" stop-color="#B9B3A5"/>
</linearGradient>
<linearGradient id="paint3_linear_2235_1803" x1="8.51729" y1="328.418" x2="8.51729" y2="391.396" gradientUnits="userSpaceOnUse">
<stop stop-color="#DAD5C5"/>
<stop offset="0.124105" stop-color="#BCB6A8"/>
<stop offset="0.764916" stop-color="#9B9388"/>
<stop offset="0.985317" stop-color="#80786E"/>
<stop offset="1" stop-color="#B9B3A5"/>
</linearGradient>
<linearGradient id="paint4_linear_2235_1803" x1="177.201" y1="5.67212" x2="177.201" y2="9.53265" gradientUnits="userSpaceOnUse">
<stop/>
<stop offset="1" stop-color="#212121"/>
</linearGradient>
</defs>
</svg>
