<svg width="324" height="191" viewBox="0 0 324 191" fill="none" xmlns="http://www.w3.org/2000/svg">
<path d="M86.2713 87.6846H168.403L168.262 153.99C168.232 165.169 168.935 176.339 170.367 187.432H127.916V162.996C120.478 180.465 106.69 191 86.2713 191C40.3465 191 0 153.752 0 98.5599C0 44.1834 34.2419 0.274312 92.3759 0.00242918C130.407 -0.235468 159.246 16.9951 170.543 53.9371L124.934 74.3284C121.18 50.9464 110.269 37.7941 92.5163 37.7941C73.3955 37.7941 55.608 57.3357 55.608 98.4579C55.608 140.634 76.8337 153.208 91.9549 153.208C99.5916 153.274 107.017 150.778 112.97 146.145C118.924 141.511 123.039 135.025 124.618 127.787L124.864 126.734H86.2713V87.6846Z" fill="#A3C3FF"/>
<path d="M183.278 109.095C186.787 71.5409 214.047 43.9788 253.446 43.9788C295.652 43.9788 324 75.0414 324 117.217C324 159.393 295.512 190.999 253.411 190.999C213.661 190.999 186.752 163.437 183.243 125.883L260.428 124.83C252.861 132.237 245.971 140.265 239.834 148.824C239.121 149.86 238.633 151.026 238.398 152.25C238.164 153.475 238.188 154.732 238.47 155.947C238.752 157.162 239.285 158.309 240.037 159.319C240.79 160.329 241.746 161.18 242.847 161.822C243.949 162.464 245.174 162.883 246.447 163.053C247.721 163.223 249.017 163.141 250.257 162.813C251.497 162.484 252.655 161.915 253.661 161.14C254.668 160.366 255.502 159.401 256.113 158.305C263.883 145.365 273.121 133.305 283.654 122.349C284.806 120.971 285.382 119.225 285.267 117.455V116.945C285.239 116.287 285.121 115.636 284.917 115.008C284.931 114.85 284.931 114.691 284.917 114.532C284.633 113.781 284.205 113.089 283.654 112.493C273.129 101.58 263.892 89.566 256.113 76.6727C255.521 75.5438 254.696 74.545 253.689 73.7389C252.681 72.9327 251.513 72.3364 250.257 71.9872C249 71.638 247.683 71.5434 246.388 71.7093C245.092 71.8752 243.846 72.298 242.727 72.9514C241.607 73.6048 240.639 74.4747 239.882 75.5067C239.126 76.5388 238.597 77.711 238.328 78.9499C238.06 80.1889 238.059 81.4681 238.324 82.7077C238.589 83.9473 239.115 85.1207 239.869 86.1546C244.677 92.9824 250.014 99.4468 255.832 105.492C256.758 106.451 257.684 107.372 258.611 108.294C259.228 108.909 259.846 109.523 260.463 110.148L183.278 109.095Z" fill="#A3C3FF"/>
</svg>
