<svg width="40" height="40" viewBox="0 0 40 40" fill="none" xmlns="http://www.w3.org/2000/svg">
    <g clip-path="url(#sf0lotckoa)">
        <path d="M0 0v40h40V0H0zm1.268 1.268h17.914L1.268 24.614V1.268zm18.57 37.464H1.268V27.116h18.57v11.616zm0-12.885H1.924L19.838 2.502v23.345zm18.894 12.885H21.107V27.116h17.625v11.616zm0-12.885H21.107V1.268h17.625v24.58zm-13.69-5.537c.355.393.758.74 1.199 1.033a5.68 5.68 0 0 0 3.271.997c.721 0 1.437-.12 2.117-.359a5.58 5.58 0 0 0 1.75-1.032 5.03 5.03 0 0 0 1.242-1.662 5.17 5.17 0 0 0 .472-2.248 5.03 5.03 0 0 0-.455-2.187 4.645 4.645 0 0 0-1.198-1.53 5.178 5.178 0 0 0-1.653-.875 6.035 6.035 0 0 0-1.619-.324l4.444-5.493v-.56h-9.43v1.286h7.182l-4.374 5.432v.534h1.321a4.89 4.89 0 0 1 3.245.98 3.386 3.386 0 0 1 1.129 2.685 4.304 4.304 0 0 1-.306 1.644 3.584 3.584 0 0 1-.875 1.25 3.89 3.89 0 0 1-1.303.823c-.532.2-1.095.301-1.662.297a4.486 4.486 0 0 1-2.642-.822 4.774 4.774 0 0 1-.927-.874 8.949 8.949 0 0 1-.726-.963v-.07l-1.041.753.044.07c.234.425.5.831.796 1.216z" fill="#202020"/>
    </g>
    <defs>
        <clipPath id="sf0lotckoa">
            <path fill="#fff" d="M0 0h40v40H0z"/>
        </clipPath>
    </defs>
</svg>
