<svg width="48" height="47" viewBox="0 0 48 47" fill="none" xmlns="http://www.w3.org/2000/svg">
    <path fill-rule="evenodd" clip-rule="evenodd" d="M23.747 1.36H1.99v29.02L23.747 1.36zM1.63 30.86l-.024.032.024.018V46h45V1h-45v29.86zm22.68-29.5v29.46h21.96V1.36h-21.96zm21.96 29.82h-21.96v14.46h21.96V31.18zm-22.32 14.46V31.18H1.99v14.46h21.96zM2.11 30.82 23.95 1.69v29.13H2.11zm37.573-11.064c0 .524-.08 1.028-.242 1.511-.16.47-.41.893-.745 1.27-.323.362-.746.658-1.27.886-.51.215-1.121.323-1.833.323-.914 0-1.726-.209-2.438-.625a4.037 4.037 0 0 1-1.572-1.652l.423-.182c.296.618.766 1.108 1.41 1.471.645.363 1.37.558 2.177.585.59.013 1.115-.074 1.572-.262.456-.188.839-.444 1.148-.766a3.2 3.2 0 0 0 .685-1.169c.161-.443.242-.913.242-1.41 0-.618-.134-1.149-.403-1.592a3.346 3.346 0 0 0-.987-1.088 4.076 4.076 0 0 0-1.33-.645 5.128 5.128 0 0 0-1.37-.201h-.444v-.403h.444c.43 0 .852-.06 1.269-.182a3.48 3.48 0 0 0 1.148-.604c.35-.269.632-.611.847-1.028.215-.416.322-.92.322-1.511 0-.47-.08-.893-.242-1.27a2.846 2.846 0 0 0-.665-.987 2.968 2.968 0 0 0-1.007-.624 3.332 3.332 0 0 0-1.23-.222c-.59 0-1.154.128-1.692.383-.537.255-.96.618-1.27 1.088l-.362-.242c.35-.497.806-.887 1.37-1.169.578-.295 1.23-.443 1.955-.443.51 0 .98.08 1.41.242.444.161.82.396 1.129.705.322.296.57.658.745 1.088.188.43.282.914.282 1.451 0 .403-.06.8-.181 1.189a2.981 2.981 0 0 1-.524 1.027 3.306 3.306 0 0 1-.947.806c-.376.229-.826.383-1.35.464v.04c.605.094 1.128.262 1.572.504.443.242.806.53 1.088.866.295.336.51.712.645 1.129a3.6 3.6 0 0 1 .221 1.249z" fill="#F8F8F8"/>
    <path d="M1.989 1.36v-.5h-.5v.5h.5zm21.758 0 .4.3.6-.8h-1v.5zM1.99 30.38h-.5v1.501l.9-1.2-.4-.3zm-.384.512-.4-.3-.3.4.4.3.3-.4zm.024-.031.4.3.1-.134v-.166h-.5zm0 .049h.5v-.25l-.2-.15-.3.4zm0 15.09h-.5v.5h.5V46zm45 0v.5h.5V46h-.5zm0-14.82v-.5h-.5v.5h.5zm0 0v.5h.5v-.5h-.5zm0-.36h.5v-.5h-.5v.5zm0 0h-.5v.5h.5v-.5zm0-29.82h.5V.5h-.5V1zm-45 0V.5h-.5V1h.5zm22.68.36v-.5h-.5v.5h.5zm0 29.46h-.5v.5h.5v-.5zm21.96 0v.5h.5v-.5h-.5zm0-29.46h.5v-.5h-.5v.5zm0 29.82h.5v-.5h-.5v.5zm-21.96 0v-.5h-.5v.5h.5zm0 14.46h-.5v.5h.5v-.5zm21.96 0v.5h.5v-.5h-.5zm-22.32 0v.5h.5v-.5h-.5zm0-14.46h.5v-.5h-.5v.5zm-21.96 0v-.5h-.5v.5h.5zm0 14.46h-.5v.5h.5v-.5zm21.96-43.95h.5V.19l-.9 1.2.4.3zM2.11 30.82l-.4-.3-.6.8h1v-.5zm21.84 0v.5h.5v-.5h-.5zm15.491-9.553.473.162.002-.004-.475-.158zm-.745 1.27-.373-.333.373.333zm-1.27.886.194.461.006-.003-.2-.458zm-4.271-.302-.256.43.003.002.253-.432zm-1.572-1.652-.197-.46-.491.21.243.477.445-.227zm.423-.182.451-.215-.207-.433-.44.189.196.46zm1.41 1.471-.245.436.246-.436zm2.177.585-.017.5h.005l.012-.5zm2.72-1.028.361.346.007-.008-.368-.338zm.685-1.169-.47-.17-.004.012.474.158zm-.161-3.002-.434.25.006.01.428-.26zm-.987-1.088-.296.403.009.006.287-.41zm-1.33-.645.134-.482-.134.482zm-1.814-.201h-.5v.5h.5v-.5zm0-.403v-.5h-.5v.5h.5zm1.713-.182.14.48.01-.003-.15-.477zm1.148-.604-.305-.397-.007.006.312.39zm.927-3.809-.462.192.003.005.46-.197zm-1.672-1.611-.183.465.006.002.177-.467zm-2.922.16.215.452-.215-.451zm-1.27 1.089-.276.416.418.28.277-.422-.418-.274zm-.362-.242-.409-.287-.295.419.427.284.277-.416zm1.37-1.169.224.448.004-.002-.228-.446zm3.365-.201-.175.468.004.002.171-.47zm1.129.705-.354.354.008.007.008.008.338-.369zm.745 1.088-.463.188.005.013.458-.2zm.1 2.64-.477-.148-.003.01.48.138zm-.523 1.027.394.309-.394-.309zm-.947.806-.253-.431-.007.004.26.427zm-1.35.464-.076-.494-.424.065v.429h.5zm0 .04h-.5v.428l.423.066.077-.494zm1.572.504-.24.439.24-.44zm1.088.866-.383.322.007.009.376-.33zm.645 1.129-.476.153.003.01.003.009.47-.172zM1.989 1.86h21.758v-1H1.99v1zm.5 28.52V1.36h-1v29.02h1zm-.1.3L24.147 1.66l-.8-.6L1.589 30.08l.8.6zm-.383.512.023-.031-.8-.6-.024.031.8.6zm-.077-.683-.024-.017-.6.8.024.018.6-.8zM2.129 46V30.91h-1V46h1zm21.82-.5H1.63v1h22.32v-1zm.36 0h-.36v1h.36v-1zm22.32 0h-22.32v1h22.32v-1zm-.5-14.32V46h1V31.18h-1zm.5-.5v1-1zm-.5.14v.36h1v-.36h-1zm.5.5v-1 1zM46.129 1v29.82h1V1h-1zm-21.82.5h22.32v-1h-22.32v1zm-.36 0h.36v-1h-.36v1zm-22.32 0h22.32v-1H1.63v1zm.5 29.36V1h-1v29.86h1zm21.68-29.5v29.46h1V1.36h-1zm.5 29.96h21.96v-1h-21.96v1zM45.77 1.36v29.46h1V1.36h-1zm-21.46.5h21.96v-1h-21.96v1zm21.96 28.82h-21.96v1h21.96v-1zm-22.46.5v14.46h1V31.18h-1zm22.46 13.96h-21.96v1h21.96v-1zm-.5-13.96v14.46h1V31.18h-1zm-21.32 14.46V31.18h-1v14.46h1zm-.5-14.96H1.99v1h21.96v-1zM2.49 45.64V31.18h-1v14.46h1zm21.46-.5H1.99v1h21.96v-1zm-.4-43.75L1.71 30.52l.8.6L24.35 1.99l-.8-.6zm.9 29.43V1.69h-1v29.13h1zm-22.34.5h21.84v-1H2.11v1zm37.806-9.895a5.246 5.246 0 0 0 .267-1.67h-1c0 .473-.072.923-.216 1.354l.949.316zm-.847 1.445c.38-.425.662-.907.845-1.44l-.946-.325c-.139.406-.353.771-.645 1.099l.746.666zm-1.443 1.011c.579-.252 1.065-.587 1.444-1.012l-.748-.665c-.266.3-.626.556-1.095.76l.4.918zm-2.033.365c.76 0 1.44-.115 2.027-.362l-.388-.922c-.434.183-.976.284-1.64.284v1zm-2.69-.694c.796.466 1.697.694 2.69.694v-1c-.835 0-1.559-.19-2.186-.557l-.505.863zm-1.765-1.856a4.536 4.536 0 0 0 1.76 1.854l.513-.859a3.537 3.537 0 0 1-1.382-1.45l-.891.455zm.671-.868-.423.181.394.92.423-.182-.394-.92zm1.853 1.494c-.563-.316-.957-.733-1.205-1.25l-.902.431c.344.718.89 1.282 1.616 1.691l.49-.872zm1.947.52c-.733-.024-1.378-.2-1.947-.52l-.49.872c.72.405 1.525.619 2.404.648l.033-1zm1.365-.224c-.381.157-.834.237-1.37.225l-.023 1c.647.014 1.242-.081 1.774-.3l-.38-.925zm.978-.649a2.815 2.815 0 0 1-.978.65l.38.924a3.813 3.813 0 0 0 1.32-.882l-.722-.692zm.572-.98a2.699 2.699 0 0 1-.579.987l.736.678c.358-.39.622-.841.791-1.35l-.948-.316zm.216-1.253c0 .442-.072.854-.212 1.24l.94.341c.182-.5.272-1.03.272-1.581h-1zm-.33-1.333c.212.351.33.789.33 1.333h1c0-.692-.151-1.316-.475-1.851l-.856.518zm-.847-.938c.34.239.62.546.84.928l.867-.498a3.845 3.845 0 0 0-1.134-1.249l-.573.82zm-1.177-.572c.425.118.814.306 1.168.566l.591-.806a4.573 4.573 0 0 0-1.491-.724l-.268.964zm-1.236-.183c.377 0 .789.059 1.236.183l.268-.964a5.624 5.624 0 0 0-1.505-.22v1zm-.444 0h.444v-1h-.444v1zm-.5-.903v.403h1v-.403h-1zm.944-.5h-.444v1h.444v-1zm1.13-.162a4.03 4.03 0 0 1-1.13.162v1c.477 0 .947-.068 1.408-.201l-.279-.96zm.975-.515a2.98 2.98 0 0 1-.985.518l.298.954a3.982 3.982 0 0 0 1.312-.69l-.625-.782zm.714-.866c-.183.355-.419.64-.706.86l.61.793c.41-.316.739-.717.985-1.194l-.889-.46zm.267-1.282c0 .532-.097.952-.267 1.282l.889.459c.26-.504.378-1.09.378-1.741h-1zm-.201-1.072c.13.305.201.66.201 1.072h1c0-.528-.09-1.02-.282-1.466l-.92.393zm-.55-.823c.227.217.41.486.547.817l.924-.383a3.343 3.343 0 0 0-.782-1.158l-.69.724zm-.84-.519c.331.126.609.3.84.52l.69-.725a3.467 3.467 0 0 0-1.176-.73l-.354.935zm-1.052-.19c.387 0 .734.065 1.046.188l.366-.93a3.831 3.831 0 0 0-1.412-.257v1zm-1.478.335c.47-.223.961-.334 1.478-.334v-1c-.666 0-1.303.144-1.907.431l.429.903zm-1.066.911c.255-.389.606-.692 1.066-.91l-.43-.904a3.545 3.545 0 0 0-1.472 1.265l.836.55zm-1.058-.1.363.242.554-.832-.362-.242-.555.832zm1.424-2.032a4.124 4.124 0 0 0-1.556 1.329l.818.575c.3-.427.692-.763 1.185-1.01l-.447-.894zm2.178-.496c-.795 0-1.526.163-2.182.498l.455.89c.5-.255 1.071-.388 1.727-.388v-1zm1.586.274a4.486 4.486 0 0 0-1.586-.274v1c.457 0 .867.072 1.235.21l.35-.936zm1.306.82a3.54 3.54 0 0 0-1.31-.822l-.343.94c.38.138.693.335.946.589l.707-.707zm.855 1.253c-.2-.494-.49-.92-.87-1.268l-.676.737c.264.242.471.542.62.907l.926-.376zm.32 1.639c0-.596-.105-1.15-.325-1.651l-.916.4c.157.359.24.773.24 1.251h1zm-.205 1.337c.136-.437.204-.883.204-1.337h-1c0 .352-.052.698-.159 1.04l.955.297zm-.607 1.188c.281-.36.485-.76.61-1.199l-.96-.275a2.48 2.48 0 0 1-.438.857l.788.617zm-1.088.929a3.804 3.804 0 0 0 1.088-.93l-.788-.616a2.806 2.806 0 0 1-.806.683l.506.863zm-1.527.526c.576-.089 1.091-.261 1.534-.53l-.52-.855c-.31.188-.694.324-1.166.397l.152.988zm.424-.454v-.04h-1v.04h1zm1.311.065c-.503-.275-1.084-.458-1.734-.559l-.154.988c.56.087 1.026.24 1.41.449l.478-.878zm1.232.984a4.234 4.234 0 0 0-1.232-.984l-.479.878c.397.216.708.467.945.749l.766-.643zm.737 1.296a3.664 3.664 0 0 0-.745-1.305l-.75.66c.25.286.43.602.544.952l.951-.307zm.246 1.403c0-.489-.084-.963-.252-1.422l-.939.345c.128.348.191.706.191 1.077h1z" fill="#fff"/>
</svg>
