<svg width="40" height="40" viewBox="0 0 40 40" fill="none" xmlns="http://www.w3.org/2000/svg">
    <path fill-rule="evenodd" clip-rule="evenodd" d="M19.207 0H0v25.023L19.207 0zm.373 2.507L1.669 25.843h17.913V2.507zM21.405 40V27.666H40V40H21.404zM0 40V27.666h19.58V40H0zM21.404 0v25.843h18.597V0H21.404zm2.753 19.134-.09-.146 1.366-1.003.165.247c.232.342.485.67.756.984.266.32.573.605.912.848.364.254.763.454 1.185.592.47.16.963.237 1.458.228a4.637 4.637 0 0 0 1.669-.291 3.874 3.874 0 0 0 1.303-.82c.367-.354.655-.779.848-1.25a4.228 4.228 0 0 0 .364-1.631 3.345 3.345 0 0 0-1.12-2.662 4.84 4.84 0 0 0-3.255-.985h-1.559v-.82l4.348-5.415h-7.292V5.296H35.46v.838l-4.467 5.47c.463.067.918.18 1.358.338a5.95 5.95 0 0 1 1.778.984c.544.455.985 1.02 1.294 1.66.333.731.495 1.53.474 2.333a5.468 5.468 0 0 1-1.823 4.202 6.134 6.134 0 0 1-1.923 1.122 6.919 6.919 0 0 1-2.26.373 5.889 5.889 0 0 1-1.933-.291 6.309 6.309 0 0 1-2.835-1.887 8.946 8.946 0 0 1-.967-1.304z" fill="url(#eecv8lm7ka)"/>
    <defs>
        <radialGradient id="eecv8lm7ka" cx="0" cy="0" r="1" gradientUnits="userSpaceOnUse" gradientTransform="rotate(44.999) scale(56.5686)">
            <stop stop-color="#7000FF"/>
            <stop offset="1" stop-color="#0FF"/>
        </radialGradient>
    </defs>
</svg>
