<svg width="845" height="98" viewBox="0 0 845 98" fill="none" xmlns="http://www.w3.org/2000/svg">
    <path d="m4.575 97.408 11.008-29.056H.223l5.12-11.648h14.72l5.76-14.72H9.695l3.712-10.88h16.512L39.39 6.4h10.368l-9.6 24.704h17.024l9.6-24.704h10.24L67.55 31.104h14.464l-3.712 10.88H63.455l-5.76 14.72h16.384L68.83 68.352H53.215L42.207 97.408H31.839l11.136-29.056H25.95L14.815 97.408H4.575zM30.43 56.704h16.896l5.76-14.72H36.19l-5.76 14.72zM142.956 96l-33.152-47.488L142.956 6.4h14.72l-34.048 41.856L158.06 96h-15.104zm-46.592 0V6.4h12.16V96h-12.16zM166.432 96V33.28h8.96l2.304 12.032-4.48-1.92c4.224-4.693 8.341-7.765 12.352-9.216 4.053-1.45 8-2.176 11.84-2.176 9.173 0 15.722 2.645 19.648 7.936 3.968 5.29 5.952 12.459 5.952 21.504V96h-11.52V61.44c0-6.656-1.238-11.52-3.712-14.592-2.475-3.072-6.699-4.608-12.672-4.608-4.224 0-8.107.939-11.648 2.816-3.499 1.835-5.803 4.779-6.912 8.832l1.408-7.04V96h-11.52zM237.932 96V33.28h11.52V96h-11.52zm0-76.8V6.4h11.52v12.8h-11.52zM286.689 97.28c-3.968 0-7.147-.725-9.536-2.176-2.39-1.45-4.139-3.307-5.248-5.568a17.014 17.014 0 0 1-1.6-7.232V42.24h-10.752l1.024-8.96h9.728V17.792l11.52-1.152v16.64h16.512v8.96h-16.512v33.024c0 4.01.234 6.912.704 8.704.469 1.792 1.621 2.923 3.456 3.392 1.877.47 4.885.704 9.024.704h2.944l-.896 9.216h-10.368zM329.814 97.28c-3.968 0-7.147-.725-9.536-2.176-2.39-1.45-4.139-3.307-5.248-5.568a17.014 17.014 0 0 1-1.6-7.232V42.24h-10.752l1.024-8.96h9.728V17.792l11.52-1.152v16.64h16.512v8.96H324.95v33.024c0 4.01.234 6.912.704 8.704.469 1.792 1.621 2.923 3.456 3.392 1.877.47 4.885.704 9.024.704h2.944l-.896 9.216h-10.368zM380.887 97.28c-7.382 0-13.59-1.515-18.624-4.544-5.035-3.03-8.854-7.04-11.456-12.032-2.56-5.035-3.84-10.56-3.84-16.576 0-5.845 1.194-11.2 3.584-16.064 2.432-4.864 5.93-8.747 10.496-11.648 4.608-2.944 10.154-4.416 16.64-4.416 5.205 0 9.834 1.045 13.888 3.136 4.096 2.048 7.296 5.056 9.6 9.024 2.346 3.925 3.52 8.704 3.52 14.336 0 .896-.043 1.877-.128 2.944a21.845 21.845 0 0 1-.384 3.2h-45.44c.554 5.803 1.941 10.325 4.16 13.568 2.218 3.243 5.013 5.525 8.384 6.848 3.37 1.323 7.04 1.984 11.008 1.984 2.901 0 5.93-.299 9.088-.896a39.159 39.159 0 0 0 8.96-2.816l1.536 9.088c-2.432 1.067-5.398 2.155-8.896 3.264-3.499 1.067-7.531 1.6-12.096 1.6zm-21.12-40.576h33.024c0-2.944-.555-5.504-1.664-7.68-1.11-2.176-2.795-3.84-5.056-4.992-2.262-1.195-5.142-1.792-8.64-1.792-5.12 0-9.067 1.28-11.84 3.84-2.731 2.517-4.672 6.059-5.824 10.624zM441.139 97.28c-5.334 0-10.155-1.45-14.464-4.352-4.31-2.901-7.744-6.805-10.304-11.712-2.518-4.907-3.776-10.39-3.776-16.448 0-5.76 1.152-11.136 3.456-16.128 2.346-4.992 5.653-9.003 9.92-12.032 4.266-3.072 9.322-4.608 15.168-4.608 4.181 0 8.213.917 12.096 2.752 3.925 1.792 7.104 4.8 9.536 9.024l-2.432 1.664V0h11.52v96h-10.24l-2.176-13.312 2.944 2.048c-1.835 4.139-4.715 7.275-8.64 9.408-3.926 2.09-8.128 3.136-12.608 3.136zm2.048-10.24c2.901 0 5.76-.747 8.576-2.24 2.858-1.493 5.205-3.861 7.04-7.104 1.877-3.285 2.816-7.595 2.816-12.928 0-4.95-.939-9.088-2.816-12.416-1.835-3.37-4.182-5.888-7.04-7.552-2.816-1.707-5.675-2.56-8.576-2.56-3.926 0-7.296.981-10.112 2.944s-4.971 4.65-6.464 8.064c-1.494 3.37-2.24 7.21-2.24 11.52 0 4.053.746 7.765 2.24 11.136 1.493 3.37 3.648 6.08 6.464 8.128 2.816 2.005 6.186 3.008 10.112 3.008zM528.3 97.792c-8.704 0-16.47-1.899-23.296-5.696-6.784-3.84-12.139-9.237-16.064-16.192-3.883-6.997-5.824-15.232-5.824-24.704 0-9.472 1.962-17.685 5.888-24.64 3.968-6.997 9.386-12.395 16.256-16.192 6.912-3.84 14.762-5.76 23.552-5.76 4.565 0 8.917.49 13.056 1.472 4.138.981 7.765 2.24 10.88 3.776l-1.28 11.264c-3.2-1.536-6.72-2.837-10.56-3.904-3.84-1.067-7.915-1.6-12.224-1.6-7.04 0-12.95 1.6-17.728 4.8-4.779 3.157-8.406 7.424-10.88 12.8-2.432 5.376-3.648 11.37-3.648 17.984 0 6.613 1.194 12.608 3.584 17.984 2.432 5.376 6.016 9.664 10.752 12.864 4.778 3.157 10.666 4.736 17.664 4.736 4.437 0 8.533-.47 12.288-1.408 3.797-.981 7.381-2.304 10.752-3.968l1.28 11.264c-3.2 1.45-6.806 2.667-10.816 3.648-4.011.981-8.555 1.472-13.632 1.472zM580.935 97.28c-4.054 0-7.275-.725-9.664-2.176-2.347-1.493-4.032-3.392-5.056-5.696a17.616 17.616 0 0 1-1.536-7.232V0h11.52v75.52c0 3.584.234 6.272.704 8.064.469 1.792 1.408 2.987 2.816 3.584 1.45.597 3.648.896 6.592.896l-1.664 9.216h-3.712zM621.824 97.28c-6.571 0-12.182-1.45-16.832-4.352-4.608-2.944-8.15-6.87-10.624-11.776-2.432-4.95-3.648-10.453-3.648-16.512 0-6.059 1.216-11.541 3.648-16.448 2.474-4.95 6.016-8.875 10.624-11.776 4.65-2.944 10.261-4.416 16.832-4.416 6.528 0 12.117 1.472 16.768 4.416 4.65 2.901 8.192 6.827 10.624 11.776 2.474 4.907 3.712 10.39 3.712 16.448 0 6.059-1.238 11.563-3.712 16.512-2.432 4.907-5.974 8.832-10.624 11.776-4.651 2.901-10.24 4.352-16.768 4.352zm0-10.24c6.229 0 11.008-1.963 14.336-5.888 3.328-3.968 4.992-9.472 4.992-16.512 0-7.04-1.664-12.523-4.992-16.448-3.328-3.968-8.107-5.952-14.336-5.952-6.187 0-10.966 1.984-14.336 5.952-3.328 3.925-4.992 9.408-4.992 16.448 0 7.04 1.664 12.544 4.992 16.512 3.37 3.925 8.149 5.888 14.336 5.888zM687.335 97.28c-4.907 0-9.088-.981-12.544-2.944-3.456-2.005-6.102-5.035-7.936-9.088-1.792-4.053-2.688-9.216-2.688-15.488V33.28h11.52v33.28c0 6.656 1.13 11.733 3.392 15.232 2.304 3.499 6.037 5.248 11.2 5.248 3.541 0 6.826-.853 9.856-2.56 3.029-1.707 5.12-4.437 6.272-8.192l-1.664 6.272V33.28h11.52V96h-10.24l-2.304-12.288 3.072 2.048c-2.091 3.883-4.651 6.784-7.68 8.704-2.987 1.877-6.912 2.816-11.776 2.816zM756.764 97.28c-5.334 0-10.155-1.45-14.464-4.352-4.31-2.901-7.744-6.805-10.304-11.712-2.518-4.907-3.776-10.39-3.776-16.448 0-5.76 1.152-11.136 3.456-16.128 2.346-4.992 5.653-9.003 9.92-12.032 4.266-3.072 9.322-4.608 15.168-4.608 4.181 0 8.213.917 12.096 2.752 3.925 1.792 7.104 4.8 9.536 9.024l-2.432 1.664V0h11.52v96h-10.24l-2.176-13.312 2.944 2.048c-1.835 4.139-4.715 7.275-8.64 9.408-3.926 2.09-8.128 3.136-12.608 3.136zm2.048-10.24c2.901 0 5.76-.747 8.576-2.24 2.858-1.493 5.205-3.861 7.04-7.104 1.877-3.285 2.816-7.595 2.816-12.928 0-4.95-.939-9.088-2.816-12.416-1.835-3.37-4.182-5.888-7.04-7.552-2.816-1.707-5.675-2.56-8.576-2.56-3.926 0-7.296.981-10.112 2.944s-4.971 4.65-6.464 8.064c-1.494 3.37-2.24 7.21-2.24 11.52 0 4.053.746 7.765 2.24 11.136 1.493 3.37 3.648 6.08 6.464 8.128 2.816 2.005 6.186 3.008 10.112 3.008zM820.724 97.28c-5.547 0-10.155-.661-13.824-1.984-3.627-1.323-6.187-2.496-7.68-3.52l1.408-11.136c1.365 1.195 3.776 2.56 7.232 4.096 3.456 1.536 7.573 2.304 12.352 2.304 4.053 0 7.146-.683 9.28-2.048 2.176-1.365 3.264-3.285 3.264-5.76 0-2.176-.704-3.925-2.112-5.248-1.366-1.365-3.03-2.432-4.992-3.2-1.92-.81-3.734-1.45-5.44-1.92a97.228 97.228 0 0 1-8.896-2.88c-3.03-1.195-5.59-2.965-7.68-5.312-2.091-2.347-3.136-5.632-3.136-9.856 0-3.2.768-6.23 2.304-9.088 1.536-2.901 4.032-5.248 7.488-7.04 3.456-1.792 8.042-2.688 13.76-2.688 4.181 0 7.573.448 10.176 1.344 2.645.853 4.928 1.77 6.848 2.752l-1.408 10.496c-1.835-1.536-3.968-2.837-6.4-3.904-2.432-1.067-5.419-1.6-8.96-1.6-3.584 0-6.507.683-8.768 2.048-2.262 1.323-3.392 3.456-3.392 6.4 0 2.944 1.194 5.035 3.584 6.272 2.432 1.237 6.101 2.603 11.008 4.096 1.536.427 3.306 1.045 5.312 1.856 2.048.81 4.032 1.899 5.952 3.264 1.92 1.365 3.498 3.157 4.736 5.376 1.28 2.176 1.92 4.907 1.92 8.192 0 2.773-.662 5.61-1.984 8.512-1.323 2.859-3.712 5.27-7.168 7.232-3.456 1.963-8.384 2.944-14.784 2.944z" fill="#6D6E71"/>
</svg>
