<svg width="160" height="160" viewBox="0 0 160 160" fill="none" xmlns="http://www.w3.org/2000/svg">
    <path fill="#E0E0E0" d="M0 0h160v160H0z"/>
    <path d="M131.551 100.481c-.013-1.056-1.761-58.24-25.04-65.31-14.07-4.273-19.434 2.148-21.009 7.575-1.575 5.426-.882 12.165 6.224 13.13-.63 10.806 14.543 2.122 14.543 2.122 1.581 8.71-5.525 28.36-5.525 28.36 2.395 4.056 3.522 7.568 3.966 10.441.246 1.59-2.022 2.069-2.44.518-2.405-8.94-6.424-13.725-14.948-16.545-8.553-2.83-18.051 1.416-18.051 1.416-3.333-8.877-8.169-14.05-15.285-16.211-7.116-2.162-21.05.514-24.056 13.441-4.11 17.669 13.405 35.597 41.589 42.514 20.831 5.112 49.632 5.162 54.324 2.719 3.715-1.934 4.303-2.656 4.682-10.578.144-2.963 1.111-5.733 1.026-13.592zm-75.552-6.462-3.398 5.019-11.305-11.781L45.39 80l7.224 10.174 4.391-6.833 10.364 23.642L56 94.019z" fill="#202020"/>
</svg>
