<svg width="160" height="160" viewBox="0 0 160 160" fill="none" xmlns="http://www.w3.org/2000/svg">
    <path fill="#202020" d="M0 0h160v160H0z"/>
    <path d="M56.604 56.373h46.792a31.443 31.443 0 0 1-.633-1.117 7.584 7.584 0 0 0-.737-1.116l12.646-12.76-6.323-6.38-12.857 12.866-1.423-.957a15.16 15.16 0 0 0-1.633-.957l-.211-.106a23.467 23.467 0 0 0-5.744-2.286A25.987 25.987 0 0 0 80 42.762c-2.248 0-4.409.266-6.481.798a24.67 24.67 0 0 0-5.955 2.392l.211-.106a20.3 20.3 0 0 0-1.686.957c-.562.354-1.089.709-1.58 1.063L51.65 35l-6.323 6.38 12.646 12.76a7.654 7.654 0 0 0-.737 1.116c-.211.39-.422.762-.633 1.117zm-4.637 9.038H35v9.145h10.433a85.515 85.515 0 0 0-.369 3.296 37.921 37.921 0 0 0 0 6.911c.106 1.135.229 2.269.37 3.403H35v9.038h12.436c0 .142.017.248.052.32.035.07.053.141.053.212a42.895 42.895 0 0 0 1.423 3.722 56.487 56.487 0 0 0 1.739 3.615c.07.142.158.301.263.478.105.178.228.373.369.585l-10.433 10.527 6.323 6.38 9.485-9.57a28.524 28.524 0 0 0 4.215 4.041 44.933 44.933 0 0 0 4.848 3.296h.21a34.598 34.598 0 0 0 3.268 1.542c1.124.461 2.283.833 3.477 1.116.422.142.879.248 1.37.319.492.071.949.142 1.37.213V97.204h9.064V124c.562-.071 1.071-.16 1.528-.266.456-.106.93-.195 1.422-.266h-.21a42.629 42.629 0 0 0 3.583-1.169 27.325 27.325 0 0 0 3.267-1.489h-.106a19.221 19.221 0 0 0 3.057-1.808 79.164 79.164 0 0 0 2.95-2.233 34.342 34.342 0 0 0 1.687-1.595 34.538 34.538 0 0 0 1.58-1.701l9.485 9.57 6.323-6.38-10.433-10.527c.141-.212.264-.407.369-.585.105-.177.193-.336.263-.478a56.17 56.17 0 0 0 1.739-3.615 43.026 43.026 0 0 0 1.423-3.722c0-.07.018-.142.053-.213a.75.75 0 0 0 .052-.319H125v-9.038h-10.433c.14-1.134.263-2.268.369-3.403a38.062 38.062 0 0 0 0-6.911 115.491 115.491 0 0 0-.369-3.403H125v-9.038H51.967z" fill="#CF0"/>
</svg>
