<svg width="550" height="200" viewBox="0 0 550 200" fill="none" xmlns="http://www.w3.org/2000/svg">
    <path fill="#CF0" d="M275 0v100H0V0z"/>
    <path d="m49.471 46.96-.912 4.32h3.312v1.92h-3.72L47.119 58h-2.088l1.032-4.8h-5.04L39.991 58h-2.088l1.032-4.8h-3.768v-1.92h4.176l.912-4.32h-3.72v-1.92h4.128l1.032-4.8h2.088l-1.032 4.8h5.04l1.032-4.8h2.088l-1.032 4.8h3.336v1.92h-3.744zm-2.088 0h-5.04l-.912 4.32h5.04l.912-4.32zm8.18 2.664c0-1.632.368-3.096 1.104-4.392.736-1.312 1.736-2.336 3-3.072 1.28-.736 2.696-1.104 4.248-1.104 1.824 0 3.416.44 4.776 1.32 1.36.88 2.352 2.128 2.976 3.744h-2.616c-.464-1.008-1.136-1.784-2.016-2.328-.864-.544-1.904-.816-3.12-.816-1.168 0-2.216.272-3.144.816-.928.544-1.656 1.32-2.184 2.328-.528.992-.792 2.16-.792 3.504 0 1.328.264 2.496.792 3.504.528.992 1.256 1.76 2.184 2.304.928.544 1.976.816 3.144.816 1.216 0 2.256-.264 3.12-.792.88-.544 1.552-1.32 2.016-2.328h2.616c-.624 1.6-1.616 2.84-2.976 3.72-1.36.864-2.952 1.296-4.776 1.296-1.552 0-2.968-.36-4.248-1.08a8.07 8.07 0 0 1-3-3.048c-.736-1.296-1.104-2.76-1.104-4.392zm18.54 0c0-1.632.367-3.096 1.103-4.392.736-1.312 1.736-2.336 3-3.072 1.28-.736 2.696-1.104 4.248-1.104 1.824 0 3.416.44 4.776 1.32 1.36.88 2.352 2.128 2.976 3.744H87.59c-.464-1.008-1.136-1.784-2.016-2.328-.864-.544-1.904-.816-3.12-.816-1.168 0-2.216.272-3.144.816-.928.544-1.656 1.32-2.184 2.328-.528.992-.792 2.16-.792 3.504 0 1.328.264 2.496.792 3.504.528.992 1.256 1.76 2.184 2.304.928.544 1.976.816 3.144.816 1.216 0 2.256-.264 3.12-.792.88-.544 1.552-1.32 2.016-2.328h2.616c-.624 1.6-1.616 2.84-2.976 3.72-1.36.864-2.952 1.296-4.776 1.296-1.552 0-2.968-.36-4.248-1.08a8.07 8.07 0 0 1-3-3.048c-.736-1.296-1.104-2.76-1.104-4.392zm28.81-8.352v1.776h-7.272v5.64h5.904v1.776h-5.904V58h-2.184V41.272h9.456zm12.094 0v1.776h-7.272v5.64h5.904v1.776h-5.904V58h-2.184V41.272h9.456zm2.278 7.872c0-2.752.448-4.896 1.344-6.432.896-1.552 2.464-2.328 4.704-2.328 2.224 0 3.784.776 4.68 2.328.896 1.536 1.344 3.68 1.344 6.432 0 2.8-.448 4.976-1.344 6.528-.896 1.552-2.456 2.328-4.68 2.328-2.24 0-3.808-.776-4.704-2.328-.896-1.552-1.344-3.728-1.344-6.528zm9.912 0c0-1.392-.096-2.568-.288-3.528-.176-.976-.552-1.76-1.128-2.352-.56-.592-1.376-.888-2.448-.888-1.088 0-1.92.296-2.496.888-.56.592-.936 1.376-1.128 2.352-.176.96-.264 2.136-.264 3.528 0 1.44.088 2.648.264 3.624.192.976.568 1.76 1.128 2.352.576.592 1.408.888 2.496.888 1.072 0 1.888-.296 2.448-.888.576-.592.952-1.376 1.128-2.352.192-.976.288-2.184.288-3.624zm5.158 0c0-2.752.448-4.896 1.344-6.432.896-1.552 2.464-2.328 4.704-2.328 2.224 0 3.784.776 4.68 2.328.896 1.536 1.344 3.68 1.344 6.432 0 2.8-.448 4.976-1.344 6.528-.896 1.552-2.456 2.328-4.68 2.328-2.24 0-3.808-.776-4.704-2.328-.896-1.552-1.344-3.728-1.344-6.528zm9.912 0c0-1.392-.096-2.568-.288-3.528-.176-.976-.552-1.76-1.128-2.352-.56-.592-1.376-.888-2.448-.888-1.088 0-1.92.296-2.496.888-.56.592-.936 1.376-1.128 2.352-.176.96-.264 2.136-.264 3.528 0 1.44.088 2.648.264 3.624.192.976.568 1.76 1.128 2.352.576.592 1.408.888 2.496.888 1.072 0 1.888-.296 2.448-.888.576-.592.952-1.376 1.128-2.352.192-.976.288-2.184.288-3.624z" fill="#000"/>
    <path fill="gray" d="M275 100v100H0V100z"/>
    <path d="m49.471 146.96-.912 4.32h3.312v1.92h-3.72l-1.032 4.8h-2.088l1.032-4.8h-5.04l-1.032 4.8h-2.088l1.032-4.8h-3.768v-1.92h4.176l.912-4.32h-3.72v-1.92h4.128l1.032-4.8h2.088l-1.032 4.8h5.04l1.032-4.8h2.088l-1.032 4.8h3.336v1.92h-3.744zm-2.088 0h-5.04l-.912 4.32h5.04l.912-4.32zm11.804 2.016c-.896-.352-1.584-.864-2.064-1.536s-.72-1.488-.72-2.448c0-.864.216-1.64.648-2.328.432-.704 1.072-1.256 1.92-1.656.864-.416 1.904-.624 3.12-.624 1.216 0 2.248.208 3.096.624.864.4 1.512.952 1.944 1.656.448.688.672 1.464.672 2.328 0 .928-.248 1.744-.744 2.448-.496.688-1.176 1.2-2.04 1.536.992.304 1.776.84 2.352 1.608.592.752.888 1.664.888 2.736 0 1.04-.256 1.952-.768 2.736-.512.768-1.24 1.368-2.184 1.8-.928.416-2 .624-3.216.624-1.216 0-2.288-.208-3.216-.624-.912-.432-1.624-1.032-2.136-1.8-.512-.784-.768-1.696-.768-2.736 0-1.072.288-1.992.864-2.76.576-.768 1.36-1.296 2.352-1.584zm6.504-3.72c0-.976-.32-1.728-.96-2.256-.64-.528-1.52-.792-2.64-.792-1.104 0-1.976.264-2.616.792-.64.528-.96 1.288-.96 2.28 0 .896.328 1.616.984 2.16.672.544 1.536.816 2.592.816 1.072 0 1.936-.272 2.592-.816.672-.56 1.008-1.288 1.008-2.184zm-3.6 4.68c-1.184 0-2.152.28-2.904.84-.752.544-1.128 1.368-1.128 2.472 0 1.024.36 1.848 1.08 2.472.736.624 1.72.936 2.952.936s2.208-.312 2.928-.936c.72-.624 1.08-1.448 1.08-2.472 0-1.072-.368-1.888-1.104-2.448-.736-.576-1.704-.864-2.904-.864zm9.069-.792c0-2.752.448-4.896 1.344-6.432.896-1.552 2.464-2.328 4.704-2.328 2.224 0 3.784.776 4.68 2.328.896 1.536 1.344 3.68 1.344 6.432 0 2.8-.448 4.976-1.344 6.528-.896 1.552-2.456 2.328-4.68 2.328-2.24 0-3.808-.776-4.704-2.328-.896-1.552-1.344-3.728-1.344-6.528zm9.912 0c0-1.392-.096-2.568-.288-3.528-.176-.976-.552-1.76-1.128-2.352-.56-.592-1.376-.888-2.448-.888-1.088 0-1.92.296-2.496.888-.56.592-.936 1.376-1.128 2.352-.176.96-.264 2.136-.264 3.528 0 1.44.088 2.648.264 3.624.192.976.568 1.76 1.128 2.352.576.592 1.408.888 2.496.888 1.072 0 1.888-.296 2.448-.888.576-.592.952-1.376 1.128-2.352.192-.976.288-2.184.288-3.624zm8.326-.168c-.896-.352-1.584-.864-2.064-1.536s-.72-1.488-.72-2.448c0-.864.216-1.64.648-2.328.432-.704 1.072-1.256 1.92-1.656.864-.416 1.904-.624 3.12-.624 1.216 0 2.248.208 3.096.624.864.4 1.512.952 1.944 1.656.448.688.672 1.464.672 2.328 0 .928-.248 1.744-.744 2.448-.496.688-1.176 1.2-2.04 1.536.992.304 1.776.84 2.352 1.608.592.752.888 1.664.888 2.736 0 1.04-.256 1.952-.768 2.736-.512.768-1.24 1.368-2.184 1.8-.928.416-2 .624-3.216.624-1.216 0-2.288-.208-3.216-.624-.912-.432-1.624-1.032-2.136-1.8-.512-.784-.768-1.696-.768-2.736 0-1.072.288-1.992.864-2.76.576-.768 1.36-1.296 2.352-1.584zm6.504-3.72c0-.976-.32-1.728-.96-2.256-.64-.528-1.52-.792-2.64-.792-1.104 0-1.976.264-2.616.792-.64.528-.96 1.288-.96 2.28 0 .896.328 1.616.984 2.16.672.544 1.536.816 2.592.816 1.072 0 1.936-.272 2.592-.816.672-.56 1.008-1.288 1.008-2.184zm-3.6 4.68c-1.184 0-2.152.28-2.904.84-.752.544-1.128 1.368-1.128 2.472 0 1.024.36 1.848 1.08 2.472.736.624 1.72.936 2.952.936s2.208-.312 2.928-.936c.72-.624 1.08-1.448 1.08-2.472 0-1.072-.368-1.888-1.104-2.448-.736-.576-1.704-.864-2.904-.864zm9.069-.792c0-2.752.448-4.896 1.344-6.432.896-1.552 2.464-2.328 4.704-2.328 2.224 0 3.784.776 4.68 2.328.896 1.536 1.344 3.68 1.344 6.432 0 2.8-.448 4.976-1.344 6.528-.896 1.552-2.456 2.328-4.68 2.328-2.24 0-3.808-.776-4.704-2.328-.896-1.552-1.344-3.728-1.344-6.528zm9.912 0c0-1.392-.096-2.568-.288-3.528-.176-.976-.552-1.76-1.128-2.352-.56-.592-1.376-.888-2.448-.888-1.088 0-1.92.296-2.496.888-.56.592-.936 1.376-1.128 2.352-.176.96-.264 2.136-.264 3.528 0 1.44.088 2.648.264 3.624.192.976.568 1.76 1.128 2.352.576.592 1.408.888 2.496.888 1.072 0 1.888-.296 2.448-.888.576-.592.952-1.376 1.128-2.352.192-.976.288-2.184.288-3.624zm8.326-.168c-.896-.352-1.584-.864-2.064-1.536s-.72-1.488-.72-2.448c0-.864.216-1.64.648-2.328.432-.704 1.072-1.256 1.92-1.656.864-.416 1.904-.624 3.12-.624 1.216 0 2.248.208 3.096.624.864.4 1.512.952 1.944 1.656.448.688.672 1.464.672 2.328 0 .928-.248 1.744-.744 2.448-.496.688-1.176 1.2-2.04 1.536.992.304 1.776.84 2.352 1.608.592.752.888 1.664.888 2.736 0 1.04-.256 1.952-.768 2.736-.512.768-1.24 1.368-2.184 1.8-.928.416-2 .624-3.216.624-1.216 0-2.288-.208-3.216-.624-.912-.432-1.624-1.032-2.136-1.8-.512-.784-.768-1.696-.768-2.736 0-1.072.288-1.992.864-2.76.576-.768 1.36-1.296 2.352-1.584zm6.504-3.72c0-.976-.32-1.728-.96-2.256-.64-.528-1.52-.792-2.64-.792-1.104 0-1.976.264-2.616.792-.64.528-.96 1.288-.96 2.28 0 .896.328 1.616.984 2.16.672.544 1.536.816 2.592.816 1.072 0 1.936-.272 2.592-.816.672-.56 1.008-1.288 1.008-2.184zm-3.6 4.68c-1.184 0-2.152.28-2.904.84-.752.544-1.128 1.368-1.128 2.472 0 1.024.36 1.848 1.08 2.472.736.624 1.72.936 2.952.936s2.208-.312 2.928-.936c.72-.624 1.08-1.448 1.08-2.472 0-1.072-.368-1.888-1.104-2.448-.736-.576-1.704-.864-2.904-.864zm9.069-.792c0-2.752.448-4.896 1.344-6.432.896-1.552 2.464-2.328 4.704-2.328 2.224 0 3.784.776 4.68 2.328.896 1.536 1.344 3.68 1.344 6.432 0 2.8-.448 4.976-1.344 6.528-.896 1.552-2.456 2.328-4.68 2.328-2.24 0-3.808-.776-4.704-2.328-.896-1.552-1.344-3.728-1.344-6.528zm9.912 0c0-1.392-.096-2.568-.288-3.528-.176-.976-.552-1.76-1.128-2.352-.56-.592-1.376-.888-2.448-.888-1.088 0-1.92.296-2.496.888-.56.592-.936 1.376-1.128 2.352-.176.96-.264 2.136-.264 3.528 0 1.44.088 2.648.264 3.624.192.976.568 1.76 1.128 2.352.576.592 1.408.888 2.496.888 1.072 0 1.888-.296 2.448-.888.576-.592.952-1.376 1.128-2.352.192-.976.288-2.184.288-3.624z" fill="#000"/>
    <path fill="#ECECEC" d="M550 0v100H275V0z"/>
    <path d="m324.471 46.96-.912 4.32h3.312v1.92h-3.72l-1.032 4.8h-2.088l1.032-4.8h-5.04l-1.032 4.8h-2.088l1.032-4.8h-3.768v-1.92h4.176l.912-4.32h-3.72v-1.92h4.128l1.032-4.8h2.088l-1.032 4.8h5.04l1.032-4.8h2.088l-1.032 4.8h3.336v1.92h-3.744zm-2.088 0h-5.04l-.912 4.32h5.04l.912-4.32zm11.18-3.912v5.592h6.096v1.8h-6.096v5.76h6.816V58h-9V41.248h9v1.8h-6.816zm9.305 6.576c0-1.632.368-3.096 1.104-4.392.736-1.312 1.736-2.336 3-3.072 1.28-.736 2.696-1.104 4.248-1.104 1.824 0 3.416.44 4.776 1.32 1.36.88 2.352 2.128 2.976 3.744h-2.616c-.464-1.008-1.136-1.784-2.016-2.328-.864-.544-1.904-.816-3.12-.816-1.168 0-2.216.272-3.144.816-.928.544-1.656 1.32-2.184 2.328-.528.992-.792 2.16-.792 3.504 0 1.328.264 2.496.792 3.504.528.992 1.256 1.76 2.184 2.304.928.544 1.976.816 3.144.816 1.216 0 2.256-.264 3.12-.792.88-.544 1.552-1.32 2.016-2.328h2.616c-.624 1.6-1.616 2.84-2.976 3.72-1.36.864-2.952 1.296-4.776 1.296-1.552 0-2.968-.36-4.248-1.08a8.07 8.07 0 0 1-3-3.048c-.736-1.296-1.104-2.76-1.104-4.392zm21.539-6.576v5.592h6.096v1.8h-6.096v5.76h6.816V58h-9V41.248h9v1.8h-6.816zm9.305 6.576c0-1.632.368-3.096 1.104-4.392.736-1.312 1.736-2.336 3-3.072 1.28-.736 2.696-1.104 4.248-1.104 1.824 0 3.416.44 4.776 1.32 1.36.88 2.352 2.128 2.976 3.744H387.2c-.464-1.008-1.136-1.784-2.016-2.328-.864-.544-1.904-.816-3.12-.816-1.168 0-2.216.272-3.144.816-.928.544-1.656 1.32-2.184 2.328-.528.992-.792 2.16-.792 3.504 0 1.328.264 2.496.792 3.504.528.992 1.256 1.76 2.184 2.304.928.544 1.976.816 3.144.816 1.216 0 2.256-.264 3.12-.792.88-.544 1.552-1.32 2.016-2.328h2.616c-.624 1.6-1.616 2.84-2.976 3.72-1.36.864-2.952 1.296-4.776 1.296-1.552 0-2.968-.36-4.248-1.08a8.07 8.07 0 0 1-3-3.048c-.736-1.296-1.104-2.76-1.104-4.392zm21.539-6.576v5.592h6.096v1.8h-6.096v5.76h6.816V58h-9V41.248h9v1.8h-6.816zm9.304 6.576c0-1.632.368-3.096 1.104-4.392.736-1.312 1.736-2.336 3-3.072 1.28-.736 2.696-1.104 4.248-1.104 1.824 0 3.416.44 4.776 1.32 1.36.88 2.352 2.128 2.976 3.744h-2.616c-.464-1.008-1.136-1.784-2.016-2.328-.864-.544-1.904-.816-3.12-.816-1.168 0-2.216.272-3.144.816-.928.544-1.656 1.32-2.184 2.328-.528.992-.792 2.16-.792 3.504 0 1.328.264 2.496.792 3.504.528.992 1.256 1.76 2.184 2.304.928.544 1.976.816 3.144.816 1.216 0 2.256-.264 3.12-.792.88-.544 1.552-1.32 2.016-2.328h2.616c-.624 1.6-1.616 2.84-2.976 3.72-1.36.864-2.952 1.296-4.776 1.296-1.552 0-2.968-.36-4.248-1.08a8.07 8.07 0 0 1-3-3.048c-.736-1.296-1.104-2.76-1.104-4.392z" fill="#000"/>
    <path d="M550 100v100H275V100h275z" fill="#202020"/>
    <path d="m324.471 148.312-.912 4.32h3.312v1.92h-3.72l-1.032 4.8h-2.088l1.032-4.8h-5.04l-1.032 4.8h-2.088l1.032-4.8h-3.768v-1.92h4.176l.912-4.32h-3.72v-1.92h4.128l1.032-4.8h2.088l-1.032 4.8h5.04l1.032-4.8h2.088l-1.032 4.8h3.336v1.92h-3.744zm-2.088 0h-5.04l-.912 4.32h5.04l.912-4.32zm8.372 9.288c2.032-1.632 3.624-2.968 4.776-4.008 1.152-1.056 2.12-2.152 2.904-3.288.8-1.152 1.2-2.28 1.2-3.384 0-1.04-.256-1.856-.768-2.448-.496-.608-1.304-.912-2.424-.912-1.088 0-1.936.344-2.544 1.032-.592.672-.912 1.576-.96 2.712h-2.112c.064-1.792.608-3.176 1.632-4.152s2.344-1.464 3.96-1.464c1.648 0 2.952.456 3.912 1.368.976.912 1.464 2.168 1.464 3.768 0 1.328-.4 2.624-1.2 3.888a17.127 17.127 0 0 1-2.688 3.312c-1.008.944-2.296 2.048-3.864 3.312h8.256v1.824h-11.544v-1.56zm14.069-7.104c0-2.752.448-4.896 1.344-6.432.896-1.552 2.464-2.328 4.704-2.328 2.224 0 3.784.776 4.68 2.328.896 1.536 1.344 3.68 1.344 6.432 0 2.8-.448 4.976-1.344 6.528-.896 1.552-2.456 2.328-4.68 2.328-2.24 0-3.808-.776-4.704-2.328-.896-1.552-1.344-3.728-1.344-6.528zm9.912 0c0-1.392-.096-2.568-.288-3.528-.176-.976-.552-1.76-1.128-2.352-.56-.592-1.376-.888-2.448-.888-1.088 0-1.92.296-2.496.888-.56.592-.936 1.376-1.128 2.352-.176.96-.264 2.136-.264 3.528 0 1.44.088 2.648.264 3.624.192.976.568 1.76 1.128 2.352.576.592 1.408.888 2.496.888 1.072 0 1.888-.296 2.448-.888.576-.592.952-1.376 1.128-2.352.192-.976.288-2.184.288-3.624zm4.894 7.104c2.032-1.632 3.624-2.968 4.776-4.008 1.152-1.056 2.12-2.152 2.904-3.288.8-1.152 1.2-2.28 1.2-3.384 0-1.04-.256-1.856-.768-2.448-.496-.608-1.304-.912-2.424-.912-1.088 0-1.936.344-2.544 1.032-.592.672-.912 1.576-.96 2.712h-2.112c.064-1.792.608-3.176 1.632-4.152s2.344-1.464 3.96-1.464c1.648 0 2.952.456 3.912 1.368.976.912 1.464 2.168 1.464 3.768 0 1.328-.4 2.624-1.2 3.888a17.127 17.127 0 0 1-2.688 3.312c-1.008.944-2.296 2.048-3.864 3.312h8.256v1.824H359.63v-1.56zm14.069-7.104c0-2.752.448-4.896 1.344-6.432.896-1.552 2.464-2.328 4.704-2.328 2.224 0 3.784.776 4.68 2.328.896 1.536 1.344 3.68 1.344 6.432 0 2.8-.448 4.976-1.344 6.528-.896 1.552-2.456 2.328-4.68 2.328-2.24 0-3.808-.776-4.704-2.328-.896-1.552-1.344-3.728-1.344-6.528zm9.912 0c0-1.392-.096-2.568-.288-3.528-.176-.976-.552-1.76-1.128-2.352-.56-.592-1.376-.888-2.448-.888-1.088 0-1.92.296-2.496.888-.56.592-.936 1.376-1.128 2.352-.176.96-.264 2.136-.264 3.528 0 1.44.088 2.648.264 3.624.192.976.568 1.76 1.128 2.352.576.592 1.408.888 2.496.888 1.072 0 1.888-.296 2.448-.888.576-.592.952-1.376 1.128-2.352.192-.976.288-2.184.288-3.624zm4.894 7.104c2.032-1.632 3.624-2.968 4.776-4.008 1.152-1.056 2.12-2.152 2.904-3.288.8-1.152 1.2-2.28 1.2-3.384 0-1.04-.256-1.856-.768-2.448-.496-.608-1.304-.912-2.424-.912-1.088 0-1.936.344-2.544 1.032-.592.672-.912 1.576-.96 2.712h-2.112c.064-1.792.608-3.176 1.632-4.152s2.344-1.464 3.96-1.464c1.648 0 2.952.456 3.912 1.368.976.912 1.464 2.168 1.464 3.768 0 1.328-.4 2.624-1.2 3.888a17.127 17.127 0 0 1-2.688 3.312c-1.008.944-2.296 2.048-3.864 3.312h8.256v1.824h-11.544v-1.56zm14.069-7.104c0-2.752.448-4.896 1.344-6.432.896-1.552 2.464-2.328 4.704-2.328 2.224 0 3.784.776 4.68 2.328.896 1.536 1.344 3.68 1.344 6.432 0 2.8-.448 4.976-1.344 6.528-.896 1.552-2.456 2.328-4.68 2.328-2.24 0-3.808-.776-4.704-2.328-.896-1.552-1.344-3.728-1.344-6.528zm9.912 0c0-1.392-.096-2.568-.288-3.528-.176-.976-.552-1.76-1.128-2.352-.56-.592-1.376-.888-2.448-.888-1.088 0-1.92.296-2.496.888-.56.592-.936 1.376-1.128 2.352-.176.96-.264 2.136-.264 3.528 0 1.44.088 2.648.264 3.624.192.976.568 1.76 1.128 2.352.576.592 1.408.888 2.496.888 1.072 0 1.888-.296 2.448-.888.576-.592.952-1.376 1.128-2.352.192-.976.288-2.184.288-3.624z" fill="#ECECEC"/>
</svg>
