<svg width="292" height="292" viewBox="0 0 292 292" fill="none" xmlns="http://www.w3.org/2000/svg">
    <path fill="#CF0" d="M146 0v146H0V0z"/>
    <path fill="#ECECEC" d="M292 0v146H146V0z"/>
    <path fill="gray" d="M146 146v146H0V146z"/>
    <path fill="#202020" d="M292 146v146H146V146zM34.96 80l2.386-14.545h1.421L36.381 80h-1.42zm-6.62-4.034.228-1.42H39.42l-.227 1.42H28.341zM29.847 80l2.387-14.545h1.42L31.267 80h-1.42zm-.653-9.09.227-1.421h10.853l-.228 1.42H29.193zM54.083 70h-1.761a3.66 3.66 0 0 0-1.485-2.301 3.979 3.979 0 0 0-1.214-.596 4.85 4.85 0 0 0-1.392-.2c-.88 0-1.679.223-2.394.668-.71.445-1.276 1.101-1.697 1.968-.417.866-.625 1.929-.625 3.189 0 1.259.208 2.322.625 3.188.421.867.987 1.523 1.697 1.968a4.437 4.437 0 0 0 2.394.667c.483 0 .947-.066 1.392-.198.445-.133.85-.33 1.214-.59a3.73 3.73 0 0 0 1.484-2.308h1.762a5.868 5.868 0 0 1-.724 1.996 5.455 5.455 0 0 1-1.307 1.498 5.722 5.722 0 0 1-1.755.93 6.538 6.538 0 0 1-2.066.32c-1.24 0-2.344-.303-3.31-.909-.966-.606-1.726-1.468-2.28-2.585-.554-1.118-.83-2.444-.83-3.977 0-1.535.276-2.86.83-3.978.554-1.117 1.314-1.979 2.28-2.585.966-.606 2.07-.91 3.31-.91.734 0 1.423.107 2.066.32a5.638 5.638 0 0 1 1.755.938c.52.407.956.904 1.307 1.491.35.583.591 1.248.724 1.996zM68.634 70h-1.762a3.66 3.66 0 0 0-1.484-2.301 3.98 3.98 0 0 0-1.214-.596 4.85 4.85 0 0 0-1.393-.2c-.88 0-1.678.223-2.393.668-.71.445-1.276 1.101-1.697 1.968-.417.866-.625 1.929-.625 3.189 0 1.259.208 2.322.625 3.188.421.867.987 1.523 1.697 1.968a4.437 4.437 0 0 0 2.394.667c.483 0 .947-.066 1.392-.198.445-.133.85-.33 1.214-.59a3.73 3.73 0 0 0 1.484-2.308h1.762a5.87 5.87 0 0 1-.725 1.996 5.454 5.454 0 0 1-1.306 1.498 5.72 5.72 0 0 1-1.755.93 6.538 6.538 0 0 1-2.066.32c-1.241 0-2.344-.303-3.31-.909-.966-.606-1.726-1.468-2.28-2.585-.554-1.118-.83-2.444-.83-3.977 0-1.535.276-2.86.83-3.978.554-1.117 1.314-1.979 2.28-2.585.966-.606 2.069-.91 3.31-.91.733 0 1.422.107 2.066.32a5.637 5.637 0 0 1 1.755.938c.52.407.956.904 1.306 1.491.35.583.592 1.248.725 1.996zM71.48 80V65.455h8.722v1.562h-6.96v4.915h6.306v1.563h-6.307V80H71.48zM83.218 80V65.455h8.722v1.562h-6.96v4.915h6.306v1.563H84.98V80h-1.762zM99.445 80.199c-1.07 0-1.981-.291-2.734-.873-.753-.588-1.328-1.438-1.726-2.55-.398-1.118-.597-2.467-.597-4.048 0-1.572.2-2.915.597-4.027.403-1.118.98-1.97 1.733-2.557.757-.592 1.667-.888 2.727-.888 1.061 0 1.968.296 2.72.888.758.587 1.336 1.439 1.733 2.556.403 1.113.604 2.456.604 4.028 0 1.58-.199 2.93-.597 4.048-.397 1.112-.973 1.962-1.725 2.55-.753.582-1.665.873-2.735.873zm0-1.563c1.061 0 1.885-.51 2.472-1.533s.88-2.482.88-4.375c0-1.26-.134-2.332-.404-3.218-.265-.885-.649-1.56-1.151-2.024-.497-.464-1.096-.696-1.797-.696-1.05 0-1.872.518-2.464 1.555-.592 1.032-.888 2.493-.888 4.383 0 1.259.132 2.329.398 3.21.265.88.646 1.55 1.143 2.01.502.459 1.106.689 1.811.689zM111.945 80.199c-1.07 0-1.981-.291-2.734-.873-.753-.588-1.328-1.438-1.726-2.55-.398-1.118-.597-2.467-.597-4.048 0-1.572.199-2.915.597-4.027.402-1.118.98-1.97 1.733-2.557.758-.592 1.667-.888 2.727-.888 1.061 0 1.968.296 2.72.888.758.587 1.336 1.439 1.733 2.556.403 1.113.604 2.456.604 4.028 0 1.58-.199 2.93-.597 4.048-.397 1.112-.973 1.962-1.725 2.55-.753.582-1.665.873-2.735.873zm0-1.563c1.061 0 1.885-.51 2.472-1.533s.88-2.482.88-4.375c0-1.26-.134-2.332-.404-3.218-.265-.885-.649-1.56-1.151-2.024-.497-.464-1.096-.696-1.797-.696-1.051 0-1.872.518-2.464 1.555-.592 1.032-.888 2.493-.888 4.383 0 1.259.133 2.329.398 3.21.265.88.646 1.55 1.143 2.01.502.459 1.106.689 1.811.689z"/>
    <path d="m35.96 226 2.386-14.545h1.421L37.381 226h-1.42zm-6.62-4.034.228-1.42H40.42l-.227 1.42H29.341zM30.847 226l2.387-14.545h1.42L32.267 226h-1.42zm-.653-9.091.227-1.42h10.853l-.228 1.42H30.193zM47.782 226.199c-.975 0-1.837-.173-2.585-.518-.744-.351-1.324-.831-1.74-1.442-.417-.616-.623-1.316-.618-2.102a3.868 3.868 0 0 1 .362-1.705 3.706 3.706 0 0 1 1.008-1.314c.431-.355.912-.58 1.442-.675v-.085a2.806 2.806 0 0 1-1.662-1.172c-.412-.606-.615-1.295-.61-2.067-.005-.738.182-1.399.56-1.981.38-.582.9-1.042 1.563-1.378.668-.336 1.428-.504 2.28-.504.843 0 1.596.168 2.258.504a3.953 3.953 0 0 1 1.563 1.378c.383.582.578 1.243.582 1.981a3.603 3.603 0 0 1-.632 2.067 2.803 2.803 0 0 1-1.64 1.172v.085c.525.095.999.32 1.42.675.421.35.758.788 1.009 1.314.25.521.378 1.089.383 1.705a3.675 3.675 0 0 1-.64 2.102c-.416.611-.996 1.091-1.74 1.442-.738.345-1.593.518-2.563.518zm0-1.562c.658 0 1.226-.107 1.704-.32.479-.213.848-.514 1.108-.902.26-.388.393-.843.398-1.364a2.619 2.619 0 0 0-.426-1.456 2.898 2.898 0 0 0-1.144-.994c-.478-.241-1.025-.362-1.64-.362-.62 0-1.174.121-1.662.362a2.897 2.897 0 0 0-1.143.994c-.275.422-.41.907-.405 1.456-.005.521.12.976.376 1.364.26.388.632.689 1.115.902.483.213 1.056.32 1.719.32zm0-6.904c.52 0 .982-.104 1.385-.312.407-.209.727-.5.959-.874.232-.374.35-.812.355-1.314-.005-.492-.121-.921-.348-1.285a2.255 2.255 0 0 0-.945-.853c-.402-.203-.871-.305-1.406-.305-.545 0-1.02.102-1.428.305a2.2 2.2 0 0 0-.944.853c-.223.364-.332.793-.327 1.285-.005.502.107.94.334 1.314.232.374.551.665.959.874.407.208.876.312 1.406.312zM60.191 226.199c-1.07 0-1.981-.291-2.734-.874-.753-.587-1.328-1.437-1.726-2.549-.398-1.118-.596-2.467-.596-4.049 0-1.572.198-2.914.596-4.027.403-1.117.98-1.969 1.733-2.556.758-.592 1.667-.888 2.727-.888 1.06 0 1.968.296 2.72.888.758.587 1.336 1.439 1.733 2.556.403 1.113.604 2.455.604 4.027 0 1.582-.199 2.931-.597 4.049-.397 1.112-.972 1.962-1.725 2.549-.753.583-1.665.874-2.735.874zm0-1.562c1.06 0 1.885-.512 2.472-1.535.587-1.022.88-2.481.88-4.375 0-1.259-.134-2.331-.404-3.217-.265-.885-.649-1.56-1.15-2.024-.498-.464-1.097-.696-1.798-.696-1.05 0-1.872.518-2.464 1.555-.592 1.033-.888 2.493-.888 4.382 0 1.26.133 2.33.398 3.211.265.88.646 1.55 1.143 2.01.502.459 1.106.689 1.811.689zM72.606 226.199c-.975 0-1.837-.173-2.585-.518-.743-.351-1.323-.831-1.74-1.442-.417-.616-.623-1.316-.618-2.102a3.868 3.868 0 0 1 .362-1.705 3.706 3.706 0 0 1 1.009-1.314c.43-.355.911-.58 1.441-.675v-.085a2.806 2.806 0 0 1-1.661-1.172c-.412-.606-.616-1.295-.611-2.067-.005-.738.182-1.399.56-1.981.38-.582.9-1.042 1.563-1.378.668-.336 1.428-.504 2.28-.504.843 0 1.596.168 2.259.504a3.953 3.953 0 0 1 1.562 1.378c.384.582.578 1.243.582 1.981a3.602 3.602 0 0 1-.632 2.067 2.802 2.802 0 0 1-1.64 1.172v.085c.525.095.999.32 1.42.675.422.35.758.788 1.009 1.314a3.95 3.95 0 0 1 .383 1.705 3.675 3.675 0 0 1-.639 2.102c-.417.611-.997 1.091-1.74 1.442-.739.345-1.593.518-2.564.518zm0-1.562c.658 0 1.226-.107 1.705-.32.478-.213.847-.514 1.108-.902.26-.388.393-.843.397-1.364a2.619 2.619 0 0 0-.426-1.456 2.898 2.898 0 0 0-1.143-.994c-.478-.241-1.025-.362-1.64-.362-.621 0-1.175.121-1.663.362a2.897 2.897 0 0 0-1.143.994c-.275.422-.41.907-.405 1.456-.005.521.12.976.376 1.364.26.388.632.689 1.115.902.483.213 1.056.32 1.72.32zm0-6.904c.52 0 .983-.104 1.385-.312.407-.209.727-.5.959-.874.232-.374.35-.812.355-1.314-.005-.492-.12-.921-.348-1.285a2.255 2.255 0 0 0-.945-.853c-.402-.203-.87-.305-1.406-.305-.544 0-1.02.102-1.427.305a2.201 2.201 0 0 0-.945.853c-.223.364-.331.793-.327 1.285-.004.502.107.94.334 1.314.232.374.552.665.959.874.407.208.876.312 1.406.312zM85.016 226.199c-1.07 0-1.982-.291-2.735-.874-.753-.587-1.328-1.437-1.726-2.549-.397-1.118-.596-2.467-.596-4.049 0-1.572.199-2.914.596-4.027.403-1.117.98-1.969 1.733-2.556.758-.592 1.667-.888 2.728-.888 1.06 0 1.967.296 2.72.888.757.587 1.335 1.439 1.733 2.556.402 1.113.603 2.455.603 4.027 0 1.582-.198 2.931-.596 4.049-.398 1.112-.973 1.962-1.726 2.549-.753.583-1.664.874-2.734.874zm0-1.562c1.06 0 1.884-.512 2.471-1.535.587-1.022.88-2.481.88-4.375 0-1.259-.134-2.331-.404-3.217-.265-.885-.649-1.56-1.15-2.024-.498-.464-1.097-.696-1.797-.696-1.052 0-1.873.518-2.465 1.555-.592 1.033-.888 2.493-.888 4.382 0 1.26.133 2.33.398 3.211.265.88.646 1.55 1.143 2.01.502.459 1.106.689 1.812.689zM97.43 226.199c-.975 0-1.837-.173-2.585-.518-.743-.351-1.323-.831-1.74-1.442-.417-.616-.623-1.316-.618-2.102a3.868 3.868 0 0 1 .362-1.705 3.707 3.707 0 0 1 1.009-1.314c.43-.355.911-.58 1.442-.675v-.085a2.806 2.806 0 0 1-1.662-1.172c-.412-.606-.616-1.295-.611-2.067-.005-.738.182-1.399.561-1.981.379-.582.9-1.042 1.563-1.378.667-.336 1.427-.504 2.28-.504.842 0 1.595.168 2.258.504a3.945 3.945 0 0 1 1.562 1.378c.384.582.578 1.243.583 1.981a3.609 3.609 0 0 1-.632 2.067 2.803 2.803 0 0 1-1.641 1.172v.085c.526.095.999.32 1.42.675.422.35.758.788 1.009 1.314.251.521.379 1.089.383 1.705a3.664 3.664 0 0 1-.639 2.102c-.416.611-.996 1.091-1.74 1.442-.738.345-1.593.518-2.564.518zm0-1.562c.658 0 1.227-.107 1.705-.32.478-.213.847-.514 1.108-.902.26-.388.393-.843.398-1.364a2.616 2.616 0 0 0-.427-1.456 2.894 2.894 0 0 0-1.143-.994c-.478-.241-1.025-.362-1.64-.362-.621 0-1.175.121-1.663.362a2.898 2.898 0 0 0-1.143.994c-.275.422-.41.907-.405 1.456-.005.521.12.976.377 1.364.26.388.632.689 1.115.902.483.213 1.055.32 1.718.32zm0-6.904c.521 0 .983-.104 1.385-.312.407-.209.727-.5.96-.874.231-.374.349-.812.354-1.314-.005-.492-.121-.921-.348-1.285a2.256 2.256 0 0 0-.944-.853c-.403-.203-.872-.305-1.407-.305-.544 0-1.02.102-1.427.305a2.201 2.201 0 0 0-.945.853c-.222.364-.331.793-.327 1.285-.004.502.107.94.334 1.314.232.374.552.665.96.874.406.208.875.312 1.405.312zM109.84 226.199c-1.07 0-1.982-.291-2.735-.874-.752-.587-1.328-1.437-1.725-2.549-.398-1.118-.597-2.467-.597-4.049 0-1.572.199-2.914.597-4.027.402-1.117.98-1.969 1.732-2.556.758-.592 1.667-.888 2.728-.888 1.06 0 1.967.296 2.72.888.757.587 1.335 1.439 1.733 2.556.402 1.113.604 2.455.604 4.027 0 1.582-.199 2.931-.597 4.049-.398 1.112-.973 1.962-1.726 2.549-.753.583-1.664.874-2.734.874zm0-1.562c1.06 0 1.884-.512 2.471-1.535.587-1.022.881-2.481.881-4.375 0-1.259-.135-2.331-.405-3.217-.265-.885-.648-1.56-1.15-2.024a2.541 2.541 0 0 0-1.797-.696c-1.051 0-1.873.518-2.465 1.555-.592 1.033-.888 2.493-.888 4.382 0 1.26.133 2.33.398 3.211.265.88.647 1.55 1.144 2.01.502.459 1.105.689 1.811.689z" fill="#F8F8F8"/>
    <path d="m179.96 80 2.387-14.545h1.42L181.381 80h-1.421zm-6.619-4.034.227-1.42h10.852l-.227 1.42h-10.852zM174.847 80l2.386-14.545h1.42L176.267 80h-1.42zm-.654-9.09.227-1.421h10.853l-.228 1.42h-10.852zM187.378 80V65.455h8.779v1.562h-7.017v4.915h6.562v1.563h-6.562v4.943h7.131V80h-8.893zM211.036 70h-1.761a3.665 3.665 0 0 0-1.485-2.301 3.97 3.97 0 0 0-1.214-.596 4.849 4.849 0 0 0-1.392-.2c-.881 0-1.679.223-2.394.668-.71.445-1.276 1.101-1.697 1.968-.417.866-.625 1.929-.625 3.189 0 1.259.208 2.322.625 3.188.421.867.987 1.523 1.697 1.968a4.438 4.438 0 0 0 2.394.667c.483 0 .947-.066 1.392-.198.445-.133.85-.33 1.214-.59.37-.265.682-.59.938-.973.26-.388.443-.833.547-1.335h1.761a5.864 5.864 0 0 1-.724 1.996 5.463 5.463 0 0 1-1.307 1.498 5.73 5.73 0 0 1-1.754.93 6.54 6.54 0 0 1-2.067.32c-1.241 0-2.344-.303-3.31-.909-.966-.606-1.726-1.468-2.28-2.585-.554-1.118-.831-2.444-.831-3.977 0-1.535.277-2.86.831-3.978.554-1.117 1.314-1.979 2.28-2.585.966-.606 2.069-.91 3.31-.91a6.54 6.54 0 0 1 2.067.32 5.646 5.646 0 0 1 1.754.938c.521.407.956.904 1.307 1.491.35.583.592 1.248.724 1.996zM213.882 80V65.455h8.779v1.562h-7.017v4.915h6.562v1.563h-6.562v4.943h7.13V80h-8.892zM237.54 70h-1.761a3.665 3.665 0 0 0-1.485-2.301 3.97 3.97 0 0 0-1.214-.596 4.849 4.849 0 0 0-1.392-.2c-.881 0-1.679.223-2.394.668-.71.445-1.276 1.101-1.697 1.968-.417.866-.625 1.929-.625 3.189 0 1.259.208 2.322.625 3.188.421.867.987 1.523 1.697 1.968a4.438 4.438 0 0 0 2.394.667c.483 0 .947-.066 1.392-.198.445-.133.85-.33 1.214-.59.37-.265.682-.59.938-.973.26-.388.443-.833.547-1.335h1.761a5.885 5.885 0 0 1-.724 1.996 5.463 5.463 0 0 1-1.307 1.498 5.73 5.73 0 0 1-1.754.93 6.54 6.54 0 0 1-2.067.32c-1.241 0-2.344-.303-3.31-.909-.966-.606-1.726-1.468-2.28-2.585-.554-1.118-.831-2.444-.831-3.977 0-1.535.277-2.86.831-3.978.554-1.117 1.314-1.979 2.28-2.585.966-.606 2.069-.91 3.31-.91a6.54 6.54 0 0 1 2.067.32 5.646 5.646 0 0 1 1.754.938c.521.407.956.904 1.307 1.491.35.583.591 1.248.724 1.996zM240.386 80V65.455h8.779v1.562h-7.017v4.915h6.562v1.563h-6.562v4.943h7.13V80h-8.892zM264.044 70h-1.761a3.683 3.683 0 0 0-1.485-2.301 3.97 3.97 0 0 0-1.214-.596 4.849 4.849 0 0 0-1.392-.2c-.881 0-1.679.223-2.394.668-.71.445-1.276 1.101-1.697 1.968-.417.866-.625 1.929-.625 3.189 0 1.259.208 2.322.625 3.188.421.867.987 1.523 1.697 1.968a4.438 4.438 0 0 0 2.394.667c.483 0 .947-.066 1.392-.198.445-.133.85-.33 1.214-.59.37-.265.682-.59.938-.973.26-.388.442-.833.547-1.335h1.761a5.885 5.885 0 0 1-.724 1.996 5.463 5.463 0 0 1-1.307 1.498 5.723 5.723 0 0 1-1.755.93 6.533 6.533 0 0 1-2.066.32c-1.241 0-2.344-.303-3.31-.909-.966-.606-1.726-1.468-2.28-2.585-.554-1.118-.831-2.444-.831-3.977 0-1.535.277-2.86.831-3.978.554-1.117 1.314-1.979 2.28-2.585.966-.606 2.069-.91 3.31-.91.734 0 1.422.107 2.066.32a5.64 5.64 0 0 1 1.755.938c.521.407.956.904 1.307 1.491.35.583.591 1.248.724 1.996z" fill="#202020"/>
    <path d="m182.96 226 2.387-14.545h1.42L184.381 226h-1.421zm-6.619-4.034.227-1.42h10.852l-.227 1.42h-10.852zm1.506 4.034 2.386-14.545h1.42L179.267 226h-1.42zm-.654-9.091.227-1.42h10.853l-.228 1.42h-10.852zM190.123 226v-1.278l4.801-5.256a33.368 33.368 0 0 0 1.392-1.605c.365-.459.634-.89.81-1.293.18-.407.27-.833.27-1.278 0-.511-.124-.954-.37-1.328a2.399 2.399 0 0 0-.994-.867 3.234 3.234 0 0 0-1.421-.305c-.558 0-1.046.116-1.463.348a2.39 2.39 0 0 0-.958.959c-.223.412-.334.895-.334 1.449h-1.676c0-.853.196-1.601.589-2.245a4.088 4.088 0 0 1 1.605-1.505c.682-.36 1.447-.54 2.294-.54.853 0 1.608.18 2.266.54a4.051 4.051 0 0 1 1.548 1.456c.374.61.561 1.29.561 2.038 0 .535-.097 1.058-.291 1.57-.189.506-.521 1.072-.994 1.697-.469.62-1.12 1.378-1.953 2.273l-3.267 3.494v.114h6.761V226h-9.176zM206.976 226.199c-1.07 0-1.981-.291-2.734-.874-.753-.587-1.328-1.437-1.726-2.549-.397-1.118-.596-2.467-.596-4.049 0-1.572.199-2.914.596-4.027.403-1.117.98-1.969 1.733-2.556.758-.592 1.667-.888 2.727-.888 1.061 0 1.968.296 2.721.888.757.587 1.335 1.439 1.733 2.556.402 1.113.603 2.455.603 4.027 0 1.582-.199 2.931-.596 4.049-.398 1.112-.973 1.962-1.726 2.549-.753.583-1.664.874-2.735.874zm0-1.562c1.061 0 1.885-.512 2.472-1.535.587-1.022.881-2.481.881-4.375 0-1.259-.135-2.331-.405-3.217-.265-.885-.649-1.56-1.151-2.024-.497-.464-1.096-.696-1.797-.696-1.051 0-1.872.518-2.464 1.555-.592 1.033-.888 2.493-.888 4.382 0 1.26.133 2.33.398 3.211.265.88.646 1.55 1.143 2.01.502.459 1.106.689 1.811.689zM214.732 226v-1.278l4.801-5.256a32.276 32.276 0 0 0 1.392-1.605c.365-.459.635-.89.81-1.293.18-.407.27-.833.27-1.278 0-.511-.123-.954-.369-1.328a2.402 2.402 0 0 0-.995-.867 3.23 3.23 0 0 0-1.42-.305c-.559 0-1.047.116-1.463.348a2.393 2.393 0 0 0-.959.959c-.223.412-.334.895-.334 1.449h-1.676c0-.853.196-1.601.589-2.245a4.084 4.084 0 0 1 1.606-1.505c.681-.36 1.446-.54 2.294-.54.852 0 1.607.18 2.265.54a4.061 4.061 0 0 1 1.549 1.456c.374.61.561 1.29.561 2.038 0 .535-.097 1.058-.292 1.57-.189.506-.52 1.072-.994 1.697-.469.62-1.12 1.378-1.953 2.273l-3.267 3.494v.114h6.761V226h-9.176zM231.586 226.199c-1.07 0-1.982-.291-2.735-.874-.752-.587-1.328-1.437-1.725-2.549-.398-1.118-.597-2.467-.597-4.049 0-1.572.199-2.914.597-4.027.402-1.117.98-1.969 1.733-2.556.757-.592 1.666-.888 2.727-.888 1.06 0 1.967.296 2.72.888.758.587 1.335 1.439 1.733 2.556.402 1.113.604 2.455.604 4.027 0 1.582-.199 2.931-.597 4.049-.398 1.112-.973 1.962-1.726 2.549-.753.583-1.664.874-2.734.874zm0-1.562c1.06 0 1.884-.512 2.471-1.535.588-1.022.881-2.481.881-4.375 0-1.259-.135-2.331-.405-3.217-.265-.885-.648-1.56-1.15-2.024-.497-.464-1.096-.696-1.797-.696-1.051 0-1.873.518-2.465 1.555-.591 1.033-.887 2.493-.887 4.382 0 1.26.132 2.33.397 3.211.265.88.647 1.55 1.144 2.01.502.459 1.105.689 1.811.689zM239.342 226v-1.278l4.801-5.256a33.368 33.368 0 0 0 1.392-1.605c.364-.459.634-.89.809-1.293.18-.407.27-.833.27-1.278 0-.511-.123-.954-.369-1.328a2.405 2.405 0 0 0-.994-.867 3.234 3.234 0 0 0-1.421-.305c-.559 0-1.046.116-1.463.348a2.399 2.399 0 0 0-.959.959c-.222.412-.334.895-.334 1.449h-1.676c0-.853.197-1.601.59-2.245a4.088 4.088 0 0 1 1.605-1.505c.682-.36 1.446-.54 2.294-.54.852 0 1.607.18 2.266.54a4.051 4.051 0 0 1 1.548 1.456c.374.61.561 1.29.561 2.038 0 .535-.097 1.058-.291 1.57-.19.506-.521 1.072-.995 1.697-.468.62-1.119 1.378-1.953 2.273l-3.267 3.494v.114h6.762V226h-9.176zM256.195 226.199c-1.07 0-1.981-.291-2.734-.874-.753-.587-1.328-1.437-1.726-2.549-.398-1.118-.597-2.467-.597-4.049 0-1.572.199-2.914.597-4.027.402-1.117.98-1.969 1.733-2.556.758-.592 1.667-.888 2.727-.888 1.061 0 1.968.296 2.72.888.758.587 1.336 1.439 1.733 2.556.403 1.113.604 2.455.604 4.027 0 1.582-.199 2.931-.597 4.049-.397 1.112-.973 1.962-1.725 2.549-.753.583-1.665.874-2.735.874zm0-1.562c1.061 0 1.885-.512 2.472-1.535.587-1.022.88-2.481.88-4.375 0-1.259-.134-2.331-.404-3.217-.265-.885-.649-1.56-1.151-2.024-.497-.464-1.096-.696-1.797-.696-1.051 0-1.872.518-2.464 1.555-.592 1.033-.888 2.493-.888 4.382 0 1.26.133 2.33.398 3.211.265.88.646 1.55 1.143 2.01.502.459 1.106.689 1.811.689z" fill="#ECECEC"/>
</svg>
