<svg width="507" height="347" viewBox="0 0 507 347" fill="none" xmlns="http://www.w3.org/2000/svg">
    <path d="M4.232 39h20.562c11.73 0 19.872-6.716 19.872-16.882 0-10.212-7.682-15.778-19.688-15.778H4.232V39zm9.292-6.302V12.642h10.028c6.67 0 11.27 3.266 11.27 9.66 0 6.532-4.232 10.396-11.224 10.396H13.524zm34.693-20.102H57.6V5.558h-9.384v7.038zM48.493 39h8.878V16h-8.878v23zm30.333.874c10.074 0 14.766-2.944 14.766-8.188 0-4.186-2.714-6.302-9.476-6.854l-10.12-.782c-2.3-.184-3.22-.69-3.22-1.794 0-1.38 1.886-1.978 5.934-1.978 5.934 0 9.706.966 12.834 3.174l3.542-4.186c-3.634-2.806-8.832-4.14-15.594-4.14-9.844 0-14.858 2.53-14.858 7.59 0 4.232 3.082 6.486 9.752 7.084l9.936.828c2.346.184 3.082.69 3.082 1.84 0 1.518-1.656 2.162-5.75 2.162-7.13 0-11.408-1.518-14.398-4.232l-4.278 4.048c3.726 3.588 9.476 5.428 17.848 5.428zm19.127 8.096h8.878V35.366c2.392 2.714 6.532 4.508 11.73 4.508 8.648 0 14.766-5.014 14.766-12.558 0-7.268-5.75-12.19-14.49-12.19-5.06 0-9.568 1.61-12.144 4.876V16h-8.74v31.97zm17.526-13.8c-5.29 0-8.832-2.622-8.832-6.67v-.414c0-3.772 3.68-6.302 8.97-6.302 5.29 0 8.464 2.53 8.464 6.532 0 4.232-3.22 6.854-8.602 6.854zm30.912-28.52h-8.878V39h8.878V5.65zm16.661 34.224c6.348 0 10.81-1.84 12.604-5.106 0 1.38.138 3.128.322 4.232h8.878c-.276-1.84-.414-3.956-.414-7.176v-6.302c0-6.854-4.738-10.396-15.502-10.396-9.292 0-15.824 3.404-16.744 8.74h9.476c.506-2.3 3.128-3.634 7.268-3.634 4.048 0 6.532 1.334 6.532 3.864v.552l-11.96.69c-4.784.276-7.268.966-9.016 2.024-1.932 1.196-2.944 3.036-2.944 5.244 0 4.692 4.186 7.268 11.5 7.268zm3.358-4.968c-3.634 0-5.658-.966-5.658-2.852 0-1.794 1.426-2.622 5.612-2.944l9.2-.644v.782c0 3.45-3.726 5.658-9.154 5.658zm25.908 13.8c7.222 0 11.362-2.53 14.72-8.556L220.378 16h-9.522l-6.992 13.846c-.506 1.104-.736 1.564-1.104 2.484h-.138c-.368-.92-.598-1.38-1.196-2.622L194.204 16h-9.936l13.984 23.138-.138.276c-1.242 1.702-4.37 2.53-7.222 2.53-1.288 0-2.806-.138-4.094-.322v6.624c1.518.368 4.094.46 5.52.46zm40.388-27.14h6.808v8.372c0 6.67 4.278 9.706 12.19 9.706 3.174 0 5.612-.414 7.038-1.058v-6.21a18.928 18.928 0 0 1-4.738.598c-3.772 0-5.612-1.472-5.612-4.738v-6.67h10.35V16h-10.35V7.49l-8.878 3.128V16h-6.808v5.566zm36.005 27.14c7.222 0 11.362-2.53 14.72-8.556L296.771 16h-9.522l-6.992 13.846c-.506 1.104-.736 1.564-1.104 2.484h-.138c-.368-.92-.598-1.38-1.196-2.622L270.597 16h-9.936l13.984 23.138-.138.276c-1.242 1.702-4.37 2.53-7.222 2.53-1.288 0-2.806-.138-4.094-.322v6.624c1.518.368 4.094.46 5.52.46zm30.701-.736h8.878V35.366c2.392 2.714 6.532 4.508 11.73 4.508 8.648 0 14.766-5.014 14.766-12.558 0-7.268-5.75-12.19-14.49-12.19-5.06 0-9.568 1.61-12.144 4.876V16h-8.74v31.97zm17.526-13.8c-5.29 0-8.832-2.622-8.832-6.67v-.414c0-3.772 3.68-6.302 8.97-6.302 5.29 0 8.464 2.53 8.464 6.532 0 4.232-3.22 6.854-8.602 6.854zm54.617-6.026c0-8.142-6.256-13.018-17.112-13.018-10.35 0-17.066 4.6-17.066 12.466 0 7.728 6.486 12.282 17.296 12.282 7.406 0 12.788-2.162 16.008-6.026l-6.808-2.944c-1.702 2.116-5.014 3.404-8.832 3.404-5.198 0-8.418-1.794-9.108-4.876h25.622v-1.288zm-25.668-3.312c.552-2.99 3.634-4.922 8.51-4.922 4.83 0 8.234 2.024 8.326 4.922h-16.836zm51.5-8.832h-10.074v-.782c0-2.944 1.38-4.002 5.106-4.002 1.748 0 3.174.092 4.968.46V5.742a31.682 31.682 0 0 0-5.75-.552c-8.924 0-13.248 3.22-13.248 9.936V16h-7.038v5.566h7.038V39h8.924V21.566h10.074V16zm11.844 23.874c6.348 0 10.81-1.84 12.604-5.106 0 1.38.138 3.128.322 4.232h8.878c-.276-1.84-.414-3.956-.414-7.176v-6.302c0-6.854-4.738-10.396-15.502-10.396-9.292 0-15.824 3.404-16.744 8.74h9.476c.506-2.3 3.128-3.634 7.268-3.634 4.048 0 6.532 1.334 6.532 3.864v.552l-11.96.69c-4.784.276-7.268.966-9.016 2.024-1.932 1.196-2.944 3.036-2.944 5.244 0 4.692 4.186 7.268 11.5 7.268zm3.358-4.968c-3.634 0-5.658-.966-5.658-2.852 0-1.794 1.426-2.622 5.612-2.944l9.2-.644v.782c0 3.45-3.726 5.658-9.154 5.658zm39.283 4.968c9.108 0 15.64-3.404 17.112-8.924l-9.338-1.334c-.92 2.806-3.634 4.278-7.958 4.278-4.968 0-8.28-2.576-8.28-6.532 0-3.91 3.174-6.348 8.28-6.348 4.232 0 6.992 1.564 7.912 4.278l9.384-1.196c-1.518-5.75-7.728-8.97-17.02-8.97-11.04 0-17.756 4.646-17.756 12.282s6.808 12.466 17.664 12.466zm53.868-11.73c0-8.142-6.256-13.018-17.112-13.018-10.35 0-17.066 4.6-17.066 12.466 0 7.728 6.486 12.282 17.296 12.282 7.406 0 12.788-2.162 16.008-6.026l-6.808-2.944c-1.702 2.116-5.014 3.404-8.832 3.404-5.198 0-8.418-1.794-9.108-4.876h25.622v-1.288zm-25.668-3.312c.552-2.99 3.634-4.922 8.51-4.922 4.83 0 8.234 2.024 8.326 4.922h-16.836zM10.152 132.72c.36-.216.72-.072 1.08-.144 1.152.072 2.232 0 3.384-.144 1.44-.144 2.808-.72 4.248-.72.216.072.36-.072.576-.144.648-.216 1.224-.36 1.728-.648.72.144 1.296-.216 2.088-.432 1.728-.432 3.384-1.368 5.04-2.232.432-.216.792-.504 1.224-.72 1.728-.72 3.312-1.728 4.824-2.88l1.44-1.08a196.684 196.684 0 0 0 3.744-3.384c1.512-1.44 2.448-3.096 3.744-4.68 0-.432.36-.72.648-1.08.216-.216.36-.432.576-.72.648-1.08 1.296-2.088 1.872-3.24.72-1.512 1.512-3.024 2.088-4.536.288-1.224.792-2.304.792-3.528 0-.144.072-.216.216-.216.216-1.728.288-3.456.504-5.256-.072 0-.144 0-.144-.072-.072-.144-.072-.288-.072-.36.144-.936 0-1.728-.432-2.592-.36-.936-.72-1.872-1.152-2.808-.864-1.512-1.584-2.952-2.592-4.464-.792-1.296-1.8-2.52-2.88-3.456-2.376-1.944-4.968-3.384-7.848-4.248a23.836 23.836 0 0 0-3.024-.864c-1.08-.216-2.16-.432-3.168-.504-.072 0-.216-.072-.216-.216-.504 0-1.008-.144-1.512-.144-.072.288-.36.216-.504.144-1.584-.288-3.096 0-4.608-.072-.144-.072-.288 0-.432.072-.576.072-1.08.216-1.512.216-1.296 0-2.448.288-3.672.432-.072.072-.216.072-.288.144-.792.576-1.656.576-2.448.576-.36 0-.72.072-1.08.288-.864.504-1.728.72-2.664 1.008-2.016.72-3.888 1.8-5.544 3.096-1.224 1.008-2.088 2.16-2.808 3.528-.216.504-.504 1.08-.288 1.656 0 .288-.072.576.072.864.216 1.08.576 2.088 1.368 2.952a43.988 43.988 0 0 1 2.592 2.592c.504.36 1.08.792 1.512 1.224.288.144.576.36.864.576.144.072.288 0 .36-.072 0-.072 0-.144-.072-.144-.36-.432-.648-.864-.864-1.44 0-.432-.288-.72-.576-1.008-.288-.288-.504-.576-.72-.864-.36-.288-.36-.648-.144-1.008.432-.792.792-1.512 1.44-2.232.144-.216.288-.576.504-.648.576-.216 1.008-.648 1.368-1.008.504-.504 1.152-.72 1.656-1.152a18.177 18.177 0 0 1 3.384-1.584c1.08-.432 2.304-.864 3.672-1.08 1.44-.36 2.808-.72 4.248-.864 1.152-.072 2.232-.072 3.312-.36 1.008.144 1.944-.072 2.952.072l4.464.288c.792.072 1.512.072 2.16.504 1.224.288 2.448.648 3.6 1.008a24.36 24.36 0 0 1 7.056 3.96c.288.216.432.504.648.864.288.792.432 1.656.432 2.52 0 .864-.144 1.8-.288 2.736 0 1.08-.144 2.16-.432 3.024a40.343 40.343 0 0 1-1.224 3.528 70.585 70.585 0 0 1-2.232 4.68l-.504.936c-1.296 1.728-2.304 3.528-3.672 5.04-1.44 1.8-2.952 3.456-4.68 4.824-.576.432-1.152.936-1.728 1.44-.864.576-1.584 1.296-2.52 1.8-1.08.648-2.088 1.368-3.24 1.872-1.08.504-1.944 1.08-3.024 1.584-.216.072-.432.216-.72.288-.432.144-.936.288-1.44.504-1.008.432-2.016.72-3.024.936l-1.656.36c-.864.36-1.8.36-2.736.648h-.36c-.144 0-.216-.144-.216-.216-.072-.144-.072-.288 0-.36.432-1.296.72-2.448 1.152-3.6.576-1.584.792-3.096 1.44-4.608.072-.072.072-.144.072-.216.216-1.08.792-1.944.936-2.952v-.144c.432-.864.648-1.8 1.008-2.592.36-1.152.72-2.376 1.152-3.528.36-.864.576-1.8 1.008-2.736.144-.504.288-.936.36-1.44.144-.504.144-.936.504-1.296.144-.144.144-.288.144-.504l.576-1.728c.36-1.152.648-2.376.864-3.528.216-1.224.576-2.448.648-3.672 0-.216.144-.36.288-.576.144-1.08.072-2.016-.72-2.736l-.36-.432c-.144-.432-.432-.936-.792-1.224-.144-.144-.288-.288-.504-.216-.36-.072-.432-.216-.504-.432l-.576-1.008c-.072-.072-.144-.072-.216-.072-.072-.072-.216-.072-.216 0-.288 1.08-.792 2.232-.864 3.384-.072 1.008-.504 1.872-.576 2.88 0 0-.072.072-.072.144-.216.72-.36 1.44-.504 2.16-.144.576-.36 1.08-.432 1.656-.576 1.584-1.08 3.24-1.728 4.68-.72 1.872-1.44 3.6-2.016 5.544-.288.936-.792 1.872-1.008 2.808-.576 1.728-1.224 3.384-1.728 5.184-.504.864-.72 1.944-1.008 2.88-.432 1.224-.864 2.448-1.152 3.744l-.792 2.448-.432 1.944c0 .36 0 .72-.288.936-.288.144-.576.216-.936.288-.216 0-.432 0-.72-.144-.936 0-1.872 0-2.88-.144h-.576c-.864.216-.936.432-.792 1.224l.216.72c0 .36.216.576.504.792l1.08 1.152 1.368 1.368a.55.55 0 0 0 .36.144c1.008.144 1.944.216 2.88.216.432-.288.792.144 1.224 0 .36-.072.792 0 1.224 0l.864.072zm51.42-46.512c.793.288.073-1.656.433-2.16.576-1.008 1.08-1.512 1.728-2.448.216-.288.432-.648.576-.936.216-.36.36-.72.648-1.08.288-.216.504-.576.648-.864a2.524 2.524 0 0 0-.432-1.008c-.576-.648-1.08-1.368-1.584-2.088-.144-.288-.432-.648-.792-.792-.432-.144-.648-.432-.864-.792-.072-.144-.288-.144-.432 0a39.773 39.773 0 0 0-1.512 1.8c-1.008 1.296-1.872 2.736-2.736 4.104-.144.288-.288.576-.36.936-.216.72-.216 1.44.36 2.088.576.72 1.296 1.368 2.016 1.944.216.144.504.288.792.36.144.072 1.44 1.008 1.512.936zm-8.135 47.808c1.224.288 2.376.216 3.384-.72a36.225 36.225 0 0 1 1.728-1.368c.648-.432.792-.936 1.296-1.512.792-1.008 1.296-1.944 2.016-3.096.576-.864.72-1.656 1.224-2.52.36-.504.648-1.08.792-1.656.144-.432.36-.792.648-1.152.216-.288.504-.648.576-.936.216-.792.648-1.368 1.152-1.944.648-.864.504-1.728.936-2.736.144-.36.144-.72.504-.864.288-.288.504-.864.648-1.368.072-.288-.072-.648-.36-.72-.576-.144-.648-.36-1.008-.72-.648-.504-1.296-1.008-2.016-1.44-.288-.216-.648-.36-1.008-.504-.144-.072-.288 0-.432.144-.432.576-.504 1.296-1.008 1.872-1.008 1.8-1.584 3.384-2.592 5.4-.432.792-.936 1.44-1.08 2.376 0 .216-.144.504-.36.576-.36.216-.504.504-.648.792-.288.432-.432.936-.72 1.368-.792 1.296-1.44 2.376-2.376 3.528a9.813 9.813 0 0 1-1.728 1.728h-.216c-.072-.072-.072-.144-.072-.216 0-1.152.432-2.304.576-3.456.144-.936.504-1.872.648-2.808.072-.72.288-1.44.504-2.16.072-.216.216-.504.216-.792 0-.792.576-1.584.792-2.304.216-1.152.504-2.232.72-3.384.072-.504.216-.936.36-1.44.216-.864.504-1.656.648-2.52l1.08-4.104c.288-1.008.504-2.16.72-3.24.216-1.08.792-2.16.72-3.312 0 0 0-.072.072-.144.36-.792.504-1.656.72-2.52.072-.288 0-.504-.144-.792-.36-.504-.936-.864-1.368-1.368a6.984 6.984 0 0 0-1.368-1.224c-.576-.36-1.08-.72-1.512-1.296-.144-.072-.504-.072-.576.144l-.216 1.152-.432 1.44c-.216.648-.216 1.296-.36 1.944-.288 1.152-.72 2.232-.936 3.384-.288 1.656-.936 3.312-1.368 4.968-.648 2.52-1.512 5.04-2.16 7.632-.792 3.024-1.8 6.048-2.52 9.072-.216.72-.432 1.44-.36 2.232.072.144 0 .216 0 .36-.288 1.152-.432 2.376-.432 3.744v1.152c.144 1.728 1.224 3.312 2.808 3.96a55.99 55.99 0 0 0 3.168 1.152l.72.216zm20.353.864c.216 0 .432-.072.648-.144.36-.144.72-.216 1.08-.288.36-.072.648-.216.936-.36 1.152-.576 2.16-1.224 2.952-2.304l.576-.72c.216-.216.432-.648.576-1.008.432-.864.864-1.584 1.152-2.52.072-.432.144-.72.144-1.152-.072-.288.072-.504.216-.72.144-.288.36-.504.36-.792 0-.504 0-.864.144-1.296.072-.144.072-.288 0-.36-.144-.36-.144-.648-.144-1.08-.072-.936 0-1.8-.144-2.808-.144-.432-.216-1.08-.216-1.656.072-.576-.072-1.296-.144-1.8-.216-1.008-.072-1.152.792-1.296h.648c1.008 0 1.872.144 2.808.432l2.088.432c.144.072.216.072.216-.072 0-.072-.072-.144-.144-.216-.216-.216-.576-.36-.864-.576-.288-.288-.36-.648-.72-.864-.864-.648-1.728-1.224-2.664-1.872a.778.778 0 0 0-.504-.216c-.576-.072-1.512-.648-2.448-.648-.36 0-.504-.144-.648-.504-.288-1.224-.72-2.808-.864-4.032l-.432-2.952-.216-1.44c-.072-.504-.288-.936-.216-1.368 0-.432 0-.864-.072-1.296 0-.36-.072-.648 0-.936.072-.504 0-.936-.072-1.44 0-.144 0-.288.072-.432.432-1.224 1.368-3.744 1.944-4.896l.216-.576c.144-.504.072-.864-.288-1.152-.36-.288-.72-.576-1.008-.936-.648-.792-2.088-1.728-2.952-2.232-1.152-.72-1.368-.72-2.16.36-.216.288-.432.72-.648 1.08-.576 1.008-.648 1.8-.936 2.88-.288 1.008.072 2.232 0 2.592-.216.504-.648.936-.936 1.368-.504.936-1.008 1.656-1.584 2.664-.36.648-.72 1.296-1.08 2.16-.36.792-.864 1.728-1.368 2.52-.36.648-.72 1.224-1.08 1.944-.36.792-.792 1.656-1.224 2.448-.576 1.152-1.8 3.384-2.376 4.608-.216.504-.144.936.144 1.368.216.432.504.576.864.792l2.088 1.08c.144.144.216.216.288.36a6.492 6.492 0 0 1-.72.648c-1.224 1.008-1.512 1.224-2.592 2.448-.144.216-.36.36-.576.576-.144.144-.216.144-.288.288-.648 1.08-1.368 1.944-1.728 3.24-.144.504-.288.648-.288 1.512 0 .792.288 2.592.576 3.528.144.432.36.792.504 1.152.504 1.368 1.008 2.592 2.016 3.6s2.088 1.512 3.456 1.872l4.176.864c.864.216 1.8.072 2.664.144zm-4.032-21.672c-.072.072-.144 0-.144-.072-.072-.072.072-.36.072-.432.36-.72.576-1.512 1.008-2.16.432-.72.648-1.296.72-2.088 0-.144.072-.288.216-.432.36-.144.504-.504.72-.792.648-1.296 1.512-3.384 2.232-4.608 0-.072.144-.144.216-.144.072.072.072.432.072.504.432 2.232.936 5.256 1.44 7.488.072.072.072.144.072.288s-.072.432-.216.432c-.72.072-1.296.216-1.944.288-1.08.216-2.088.576-2.88.936-.432.144-1.008.432-1.584.792zm-1.224 18.936c-.216-.144-.432-.36-.504-.648l-.792-1.512c-.072-.216-.216-.432-.36-.648a1.39 1.39 0 0 1-.216-.72c0-.216-.072-.36-.072-.504-.288-1.296-.36-2.448-.072-3.672l.144-.792c.072-.216.144-.504.36-.648.504-.288.792-.792 1.08-1.296.36-.432.72-.792 1.152-1.152.288-.216.504-.432.792-.72 1.872-1.8 4.032-3.024 6.408-4.104.072-.072.144-.072.216-.072l.288.216v4.752c-.072 1.08-.216 1.944-.504 2.88-.504 1.512-.864 2.592-1.656 4.032-.792 1.44-1.944 2.88-3.456 3.816-.576.288-1.296.576-2.016.72-.216 0-.504.216-.792.072zm14.967 13.896c.288.144.432.072.576-.144.072-.216.216-.504.36-.792.504-1.296.864-2.592 1.224-3.888.576-2.088 1.224-4.104 1.8-6.192.144-.504.432-1.008.504-1.512l1.224-3.888c.144-.36.216-.792.648-.792.288-.144.36.288.648.36.36.288.72.504 1.152.576 1.152.576 2.376 1.008 3.672 1.512.864.36 1.728.288 2.808.216.792-.072 2.16-.432 2.808-.792.36-.216.792-.36 1.008-.792.144-.216.288-.504.576-.576 1.008-.576 1.584-1.44 2.016-2.448.288-.576.504-1.08.936-1.584.36-.576.72-1.152.864-1.728l.432-.936c.216-.36.288-.792.432-1.152.144-.504.144-1.08.504-1.512.36-.504.648-1.152.792-1.8.648-1.656 1.368-3.384 1.8-5.112.288-1.152 1.152-3.744 1.44-4.896.144-.432-.072-1.008-.504-1.44-.072-.072 0-.216.072-.288.576-.288.72-.72.72-1.296 0-.216 0-.36.072-.504.288-.648.216-1.296.504-1.944.072-.288-.36-.576-.432-.864-.144-.504-.072-1.008-.144-1.44-.072-.504 0-.936-.216-1.44-.216-.72-.72-1.224-1.296-1.656-1.584-1.152-3.312-2.16-4.968-3.24-.864-.432-1.728-.288-2.376.216-.864.648-1.584 1.296-2.52 1.872-.144 0-.216.144-.36.288l-3.024 4.104c-.144.144-.288.36-.504.36a1.652 1.652 0 0 1-.072-1.008c.144-.432.288-.864.36-1.296.36-.792.648-1.656.576-2.52l.216-.504c.504-.576.72-1.368.936-2.088.072-.216-.072-.36-.216-.432-.72-.576-1.368-1.008-2.088-1.512a1.769 1.769 0 0 0-1.08-.36c-.216 0-.36-.072-.576-.216-.288-.216-.504-.72-.864-1.008-.288-.216-.72-.144-.864.144-.144.504-.432 1.08-.432 1.656 0 .36-.072.648-.36.936-.072.072-.144.288-.144.432-.288.792-.576 1.44-.648 2.232a8.182 8.182 0 0 1-.432 1.8c-.576 1.512-.72 2.952-1.152 4.392-.216.792-.288 1.584-.504 2.376-.432 1.512-.72 2.952-1.224 4.536-.432 1.368-.648 2.808-1.08 4.104-.144.648-.36 1.296-.432 1.944-.072.72-.216 1.368-.576 2.016-.144.288-.216.648-.36 1.008-.432 1.224-.72 2.448-1.152 3.528-.72 1.728-1.224 3.384-1.8 5.184-.648 2.088-1.872 6.336-2.232 8.496-.288 1.44-.72 2.952-1.152 4.392-.288.936-.504 1.8-.864 2.664-.504 1.224-.072 1.656.864 2.448.144.144.36.216.504.288a31.665 31.665 0 0 0 3.6 1.512zm10.296-18.504c-.288.144-.504 0-.576-.288-.072-.576-.288-1.152-.216-1.8l.072-.648c0-.288-.072-.504-.432-.72-.216-.072-.36-.288-.648-.432-.288-.144-.36-.36-.36-.792l.144-.432.216-1.008c.072-.288.144-.576.36-.648.36-.216.504-.576.648-.936.432-1.224 1.008-2.304 1.44-3.456.144-.36.432-.72.432-1.152 0-.144.072-.288.144-.432.288-.504.576-1.008.936-1.44.504-.576.864-1.296 1.224-2.016.432-.936 1.728-3.168 2.376-4.032l2.304-2.88.216-.432c.288-.576.648-1.08 1.152-1.44.36-.288.648-.576.792-.936.072-.216.216-.36.432-.36.576-.36 1.008-.936 1.656-1.296 0-.072.144-.072.216 0 0 0 0 .144-.072.216-.072.72.288 1.44.144 2.16-.216.936-.504 1.8-.648 2.664-.144.792 0 1.368-.288 2.16-.864 2.448-2.016 6.552-3.168 9.072-.36.792-.72 1.584-.936 2.376-.432 1.008-.864 2.088-1.512 3.024v.144c-.576 1.728-1.728 2.952-3.024 4.176-.648.72-2.088 1.224-2.88 1.512-.072.072-.072.072-.144.072zm25.791 7.56h.432c1.224.072 2.16-.504 2.952-1.368l1.296-1.656c.288-.432.648-.72.72-1.296.072-.288.36-.576.504-.792l.504-.648 2.232-4.392c.216-.36.432-.72.504-1.08.216-.576.504-1.008.792-1.44.432-.648.792-2.088 1.296-2.952 0-.288 0-.648.288-.936.504-.36.72-.936.864-1.44.216-.936.648-1.728 1.08-2.52.144-.144.216-.36.288-.504.144-.432.144-.576-.216-.792-.36-.216-.72-.432-1.152-.648-1.152-.576-1.8-1.08-2.952-1.584-.504-.288-.72-.216-1.008.288-.216.36-.36.72-.576 1.152a8.581 8.581 0 0 0-.576 1.44l-.648 1.512c-.288.648-.504 1.296-.792 1.944-.216.576-.864 2.016-1.44 2.376l-.216.288c-.288.576-.36 1.08-.648 1.656-.216.432-.792.864-.792 1.44a2.367 2.367 0 0 1-.504 1.152c-.576.648-1.008 1.44-1.368 2.16-.792 1.44-1.512 2.736-2.664 3.888-.144.144-.216.432-.432.432-.36-.072-.216-.432-.216-.648v-1.008c.072-1.008 0-2.016.144-3.024.144-.792.072-1.584.288-2.376.288-1.008.288-2.088.648-3.096.072-.216.072-.432.144-.648l.216-1.152c.072-.36.144-.792.288-1.08.216-.432 0-.792.144-1.224.288-.72.432-1.512.576-2.304.288-.936.576-1.872.504-2.88 0-.216 0-.432.144-.576.36-.504.36-1.08.504-1.656.072-.432.072-.792.288-1.152 0-.216.072-.36.072-.504.072-.936.936-1.8.864-2.808 0-.072.144-.216.144-.36.36-1.512 1.224-2.592 1.656-4.176.072-.288-.144-.504.072-.792.432-.792.576-1.728.792-2.592.072-.36.216-.72.216-1.08 0-.36.288-.792.432-1.152.072-.072.144-.144.144-.216.288-1.296.864-2.592 1.296-3.816.648-3.528.936-5.04 1.296-6.48.288-1.224.144-2.448.432-3.6.072-.288-.648-1.08-.576-1.368 0-.288-.072-.576-.288-.792-.36-.288-.72-.504-.936-.792-.792-1.08-1.872-1.728-2.88-2.592-.144-.144-.288-.216-.504-.36h-.216c-.432.144-.72.648-.576 1.08.072.288.288.576.144.864-.216.432-.216.936-.36 1.44-.72 2.52-3.456 14.544-4.248 17.136-.648 2.088-1.152 4.248-1.656 6.408-.36 1.584-.792 3.096-1.08 4.608-.216 1.296-.648 2.52-.864 3.816-.216 1.008-.576 2.016-.792 3.024-.216 1.08-.504 2.088-.72 3.096-.216 1.296-.504 2.52-.72 3.816-.432 1.728-.792 3.456-.792 5.256 0 .576-.288 1.152-.216 1.8.072.648.216 1.296.216 2.016-.072 1.152.36 2.16 1.08 3.024.648.792 1.368 1.44 2.304 1.8 1.296.432 2.16.792 3.456 1.152a3.585 3.585 0 0 0 1.368.288zm14.133-1.224c1.008.432 1.944.36 2.88-.216.144-.144.36-.288.576-.432.504-.432 1.008-.792 1.44-1.368.144-.144.36-.36.576-.504.432-.216.72-.576 1.08-.936.216-.288.36-.576.576-.792.432 0 .576.432.936.576.216.072.432.216.648.36.72.36 1.44.648 2.088 1.008.864.432 1.224.864 2.16 1.08.936.216 1.872.216 2.808-.216 1.08-.504 1.944-1.368 2.808-2.16.864-.936 1.44-2.088 2.232-3.024.36-.936.72-1.584 1.152-2.448.36-.576.72-1.08 1.008-1.728l.936-1.728a19.57 19.57 0 0 0 .792-1.8c.144-.504.36-1.008.576-1.512.216-.72 1.224-2.592 1.44-3.24.144-.432 0-.72-.36-1.008-1.224-.72-2.376-1.512-3.6-2.232-.288-.216-.576-.288-.864-.432-.144-.072-.288 0-.432.072-.36.432-.504.864-.648 1.368-.72 1.584-1.8 3.168-2.736 5.976-.432 1.296-1.368 2.448-1.728 3.6-.504.792-1.08 1.44-1.584 2.232-.936 1.512-1.656 2.808-3.096 3.816-.072.072-.072.072-.144.072-.072.072-.216-.072-.288-.144 0-1.152.144-2.304.072-3.456 0-.144.072-.288.144-.432.072-.36.216-.72.288-1.08.072-.936.216-1.8.288-2.736.144-1.296.432-2.52.864-3.744.288-.72.504-1.584.648-2.376.216-1.296 1.008-3.528 1.728-4.68 0-.072 0-.072.072-.144.144-.36.072-.72-.216-1.008l-1.296-1.008c-.72-.648-1.44-1.224-2.304-1.656-.216-.072-.432-.216-.648-.36-.504-.36-.648-.288-.936.216-.072.144-.216.288-.216.432-.504 1.368-1.368 3.816-1.728 5.256-.144.936-.576 1.656-.936 2.592-.36.864-.648 1.728-.936 2.664-.504 1.224-.864 2.52-1.368 3.744-.288.864-.72 1.728-1.152 2.592l-1.512 2.376c-1.008 1.512-2.304 2.736-3.672 3.96-.216.216-.576.648-.864.504-.504-.144-.36-.72-.432-1.08-.072-.144-.072-.288 0-.504 0-.864-.072-1.8.144-2.664.144-.936.144-1.944.36-2.88a53.695 53.695 0 0 1 1.08-4.896c.216-.936.576-1.728.576-2.664 0-.144.144-.288.216-.504.36-.864.792-1.728 1.08-2.736.072-.504.288-1.008.504-1.512.504-.936 1.008-1.872 1.368-2.88.144-.432.36-.864.648-1.224.216-.216.288-.504.432-.72.216-.432.36-.864.648-1.224l.504-.648a156.362 156.362 0 0 1 2.376-3.6l.36-.432c.864-.792 1.728-1.656 2.592-2.52.36-.36.864-.648 1.296-.864.792-.432 1.512-.648 2.376-.504.216 0 .288.144.288.288.072.576-.144 1.08-.288 1.584l-.648 1.728c-.216.504-.144.864.072 1.296.144.216.36.36.504.576.648.648 1.44 1.08 2.304 1.44.36.072.576.288.792.576.144.144.288.36.504.504.072.144.288.144.36 0 .144-.216.216-.432.36-.576.792-1.08.936-2.376 1.008-3.744v-.504c-.216-1.08-.576-1.8-1.368-2.592-1.08-1.08-2.088-2.16-3.24-3.24-1.08-1.008-2.304-1.872-3.888-1.872a.55.55 0 0 1-.36-.144c-.936-.072-1.728-.072-2.592.288-1.224.432-2.16 1.224-3.024 2.088-1.008.936-1.944 1.944-2.736 3.024-.36.504-.72 1.008-1.08 1.584-.864 1.44-2.016 2.808-2.592 4.464-.072.216-.216.36-.288.576a5.716 5.716 0 0 0-.936 1.872c-.216.504-.432 1.008-.72 1.584-.936 2.304-1.8 4.68-2.448 7.128-.216 1.008-.576 2.088-.792 3.096-.216.864-.36 1.8-.504 2.664-.216.936-.288 1.872-.504 2.808-.144.36-.072.792.072 1.224.216.504.072.864-.36 1.152v.288c.144 0 .216.144.216.216-.072.936.216 1.8.576 2.664a7.522 7.522 0 0 0 3.024 3.816c1.44.936 3.024 1.656 4.608 2.304zm28.294 24.264c.36 0 .72-.072 1.08-.144 1.368-.288 2.448-.936 3.456-1.872a11.322 11.322 0 0 0 2.16-2.736l.648-.864c.432-.504.864-.936 1.008-1.584.144-.936.576-1.656 1.08-2.448.288-.432.576-.864.648-1.368.144-.72.432-1.368.72-2.088s.432-1.512.648-2.232c.144-.36-.072-.72.144-1.08.36-.432.216-1.008.432-1.512-.216-.936.144-1.8.36-2.664.144-.432.216-.792.216-1.224 0-.36 0-.72.072-1.008.216-1.152.288-2.304.504-3.456.072-.792.072-1.656.216-2.448.288-1.512.648-2.952.792-4.536 0-.288.144-.576.432-.792.504-.432 1.008-.864 1.584-1.224 1.008-.72 2.088-1.368 3.024-2.16.936-.792 1.368-1.152 2.232-2.016.288-.288.72-.792 1.008-1.008 1.008-.72 1.008-1.368 1.872-2.304a17.316 17.316 0 0 0 1.512-1.728c.216-.36 1.08-.936 1.872-1.944.072-.216-.072-.432-.216-.504-.72-.504-.576-.288-1.224-.864-.072 0-.144 0-.216-.072-.864-.36-2.088-.792-2.88-1.296-.288-.144-.576.144-.648.432 0 .216-.864.936-.864 1.152-.288.648-1.152 1.872-1.728 1.944-.576.792-1.008.792-1.656 1.512-.72.648-1.728 1.8-2.16 2.088-.072.144-.216.216-.36.288-.072.072-.144.072-.216 0-.072 0-.072-.144-.072-.216.072-.648.36-1.944.504-2.592.216-.576.144-1.296.288-1.872.144-.576.216-1.08.288-1.584l.216-1.584c-.288-.648.288-1.008.288-1.584 0-.144.072-.288.072-.504.072-.504.216-1.08.144-1.584-.144-.576.072-1.008.144-1.584 0-.576.144-1.224.144-1.8-.072-.792.072-1.512.072-2.232 0-.288.144-.576.144-.864.072-.864-.144-1.512-1.008-1.944l-.72-.432c-.936-.72-1.872-1.368-2.808-2.016-.216-.144-.432-.216-.576-.216-.288-.144-.576-.072-.792.144-.36.288-.576.72-.72 1.152-.288.936-.72 1.728-1.152 2.592l-1.08 2.232-2.376 4.968-.216.432c-.432.504-.72 1.08-.936 1.728-.216.432-.504.792-.72 1.152-.648.432-1.008 2.16-1.368 2.736l-1.152 1.584c-.36.504-.792.864-1.08 1.368-.216.288-.36.504-.648.72-.288.216-.504.504-.72.864-.36.504-.864.864-1.44 1.152 0 0-.144-.072-.144-.144 0-.288-.072-.648.072-.936.216-.432.216-.936.216-1.368-.072-.504.36-.792.432-1.296 0-.288 0-.576.072-.864.36-.936.432-1.872.504-3.96 0-.432-.072-.864.504-1.008.144-.288.36-.504.432-.72.36-1.08.72-2.088.936-3.096.144-.576.36-1.152.432-1.656.072-.648.36-1.224.504-1.8l.216-.72c.288-.864.216-1.8.648-2.592.072-.144.072-.432.072-.648 0-.144-.072-.288-.216-.432-.144-.144-.288-.288-.432-.36-.648-.288-1.152-.72-1.656-1.08-.432-.216-.648-.864-1.296-.576-.072 0-.216-.144-.288-.216-1.224-.864-1.368-.936-1.872.648-.072.144-.144.288-.144.432-.864 3.456-1.872 6.84-2.952 10.224-.504 1.8-1.08 4.68-1.512 6.48-.144.36-.144.792-.216 1.224-.144.864-.288 1.728-.36 2.52a.459.459 0 0 0 0 .432c.216.576.144 1.224.144 1.8 0 1.8.936 3.024 2.448 3.816.936.504 2.016.792 3.096 1.224.288.144.648.288 1.008.36.936.216 1.8.288 2.592-.36l.432-.216c1.152-.576 2.016-1.512 2.808-2.448.288-.432.648-.72 1.008-1.152.432-.432 1.296-1.944 1.656-2.52.432-.864.792-1.584 1.296-2.376.288-.36.576-.792 1.08-1.008.072.144.072.216.072.36l-.216 1.296c-.216.648-.216 1.224-.288 1.872-.288 1.296-.576 2.52-.72 3.888-.072.648-.288 1.296-.432 1.944-.072.288-.144.504-.432.72-.864.648-1.728 1.368-2.592 2.088-.72.648-1.44 1.296-2.232 1.944-1.152 1.08-2.376 2.088-3.528 3.096-.72.648-1.368 1.368-2.016 2.016-.504.432-.936.864-1.368 1.296-.576.504-1.008 1.08-1.584 1.584a45.564 45.564 0 0 0-3.384 4.032c-.144.216-.432.504-.504.792-.216.936-.864 1.656-1.368 2.448-.504.72-.792 1.584-1.152 2.376.072.576-.216 1.08-.432 1.656-.072.36-.144.72-.144 1.08v2.664c0 .72.216 1.44.432 2.16.864 2.808 2.88 4.68 5.472 5.904.216.144.432.216.72.216.792.216 1.584.288 2.448.288.216 0 .432 0 .576.072.936.288 1.944.072 2.88.144zm-3.384-2.592c-.36.216-.576.216-.864-.144-.36-.576-.792-1.08-1.008-1.656-.432-1.08-.792-2.088-.792-3.24-.072-.576-.072-1.08-.216-1.584a2.78 2.78 0 0 1 .216-1.512c.216-.432.36-.864.432-1.368.36-1.584 1.08-2.952 1.944-4.248l.576-1.08c.288-.432.504-.792.792-1.152l2.88-3.096c.288-.36.648-.648.72-1.152a.31.31 0 0 1 .288-.288c.432 0 .648-.288.864-.504.432-.36.792-.72 1.152-1.08 1.08-.936 2.088-1.944 3.168-2.88.072.216.144.288.144.432-.36 1.8-.504 3.6-.792 5.4-.144 1.224-.432 2.376-.72 3.6-.072.504-.288.936-.432 1.44-.36 1.008-.648 2.088-1.008 3.168-.504 1.584-1.296 3.168-2.016 4.68-.504 1.008-1.224 1.944-1.872 2.88-.504.648-1.08 1.296-1.584 1.872-.576.648-1.152 1.08-1.872 1.512zm45.461-21.672c.936.288 1.872.072 2.664-.432.72-.432 1.08-1.152 1.872-1.44.072 0 .072-.072.072-.072.216-.576.792-.864 1.152-1.296.72-.864 1.296-1.728 1.944-2.736.72-1.008 1.44-1.944 1.872-3.168.36-.792.648-1.584 1.296-2.232.144-.072.216-.216.288-.288l1.656-3.096a49.907 49.907 0 0 1 1.944-3.312 36.844 36.844 0 0 0 1.584-2.88c.288-.504.144-.72-.432-.864l-.288-.216c-.576.072-.864-.144-1.224-.504-.504-.432-.792-.72-1.44-.936a.818.818 0 0 0-.576-.216c-.36-.072-.72-.072-1.08-.288-.072 0-.288.072-.36.144-.072 0-.144.144-.216.288l-1.728 2.952c-.504.72-1.008 1.44-1.224 2.304-.216.216-.288.576-.504.792-.648 1.008-1.296 1.872-1.8 2.88-.72 1.224-1.44 2.52-2.16 3.816-.36.576-.864 1.296-1.152 2.016-.072.072-.144.288-.216.36-.648.432-.936 1.008-1.44 1.584-.504.792-1.224 1.512-1.944 2.088-.072.072-.216.072-.288.144-.216-.576-.288-1.224-.216-1.8l.216-3.24c-.072-.504 0-.936.072-1.368.144-.864.288-1.8.576-2.664.216-.72.288-1.44.36-2.088.144-.648.144-1.368.432-2.016.36-1.296.792-2.664 1.08-3.96 0-.216.072-.36.144-.576.288-.504.432-1.008.504-1.584 0-.216 0-.36.072-.576.288-.72.504-1.44.576-2.232.072-.288.144-.504.144-.72.216-1.008.72-1.944.648-2.952 0-.216.072-.432.144-.648l.72-1.944.36-1.152.432-1.368c.216-.504.504-1.512.576-1.944 0-.576.216-.72.36-1.224.072-.216.216-.432.504-.432.936 0 1.872.072 2.952-.288.144.072.36 0 .504 0 .504-.144 1.08-.288 1.584-.216 1.152.144 2.232-.144 3.312-.576.216-.144.432-.36.72-.432.216-.216.36-.504.36-.792a.756.756 0 0 0-.36-.648c-.432-.576-1.08-.936-1.656-1.44-.648-.504-1.368-.864-2.088-1.224-.432-.144-.72-.216-1.08.072-.72.36-1.44.72-2.16 1.008-.216.072-.432.072-.72.072-.144 0-.288-.216-.288-.36.288-.648.36-1.296.432-1.944.072-.144.144-.288.144-.432.648-1.296.648-2.232.936-3.6.144-.864.072-.144.288-1.008.216-.792.288-1.584.504-2.304 0-.288-.072-.504-.216-.72-.288-.216-.576-.576-1.008-.648-.432-.648-1.152-.936-1.872-1.224-.288-.072-.432-.288-.648-.432-.432-.36-.72-.792-1.296-.792-.288.432-.36.936-.504 1.44v.36c-.216.792-.36 1.512-.504 2.232l-.36 1.008c-.288.864-.576 1.584-.648 2.448-.504 1.368-.504 2.376-1.008 3.672-.216.432-.288.936-.432 1.44l-.36 1.008c-.072.288-.288.432-.576.432-.792.144-1.656.216-2.448.288-1.008 0-.792.144-1.8.072-.864-.144-1.08-.072-1.944-.216-.36 0-.792.072-1.152.216-.216.072-.216.288-.216.432.072.216.072.36.216.576.36.288.72.648 1.008.864.936.576 1.296.864 2.232 1.368.432.216.864.288 1.296.288.936 0 .576.072 1.512.144.288 0 .432.216.288.504-.504 1.08-.864 2.664-1.224 3.744-.504 1.872-1.08 3.744-1.512 5.616-.216.72-.504 1.368-.432 2.088a.546.546 0 0 1-.144.288c-.432 1.08-.576 2.232-.864 3.456a7.311 7.311 0 0 0-.432 1.8c0 .288-.072.504-.216.792-.504 1.152-.648 2.448-1.008 3.672-.216.576-.288 1.224-.36 1.8-.216 1.008-.288 2.088-.432 3.096-.288 1.512-.216 3.024-.216 4.536 0 .144 0 .288.072.36.144 1.224.72 2.448 1.224 3.528.72 1.44 1.872 2.448 3.456 2.808 1.08.216 2.088.504 3.168.864zm18.111 24.264c.36 0 .72-.072 1.08-.144 1.368-.288 2.448-.936 3.456-1.872a11.322 11.322 0 0 0 2.16-2.736l.648-.864c.432-.504.864-.936 1.008-1.584.144-.936.576-1.656 1.08-2.448.288-.432.576-.864.648-1.368.144-.72.432-1.368.72-2.088s.432-1.512.648-2.232c.144-.36-.072-.72.144-1.08.36-.432.216-1.008.432-1.512-.216-.936.144-1.8.36-2.664.144-.432.216-.792.216-1.224 0-.36 0-.72.072-1.008.216-1.152.288-2.304.504-3.456.072-.792.072-1.656.216-2.448.288-1.512.648-2.952.792-4.536 0-.288.144-.576.432-.792.504-.432 1.008-.864 1.584-1.224 1.008-.72 2.088-1.368 3.024-2.16.936-.792 1.368-1.152 2.232-2.016.288-.288.72-.792 1.008-1.008 1.008-.72 1.008-1.368 1.872-2.304a17.316 17.316 0 0 0 1.512-1.728c.216-.36 1.08-.936 1.872-1.944.072-.216-.072-.432-.216-.504-.72-.504-.576-.288-1.224-.864-.072 0-.144 0-.216-.072-.864-.36-2.088-.792-2.88-1.296-.288-.144-.576.144-.648.432 0 .216-.864.936-.864 1.152-.288.648-1.152 1.872-1.728 1.944-.576.792-1.008.792-1.656 1.512-.72.648-1.728 1.8-2.16 2.088-.072.144-.216.216-.36.288-.072.072-.144.072-.216 0-.072 0-.072-.144-.072-.216.072-.648.36-1.944.504-2.592.216-.576.144-1.296.288-1.872.144-.576.216-1.08.288-1.584l.216-1.584c-.288-.648.288-1.008.288-1.584 0-.144.072-.288.072-.504.072-.504.216-1.08.144-1.584-.144-.576.072-1.008.144-1.584 0-.576.144-1.224.144-1.8-.072-.792.072-1.512.072-2.232 0-.288.144-.576.144-.864.072-.864-.144-1.512-1.008-1.944l-.72-.432c-.936-.72-1.872-1.368-2.808-2.016-.216-.144-.432-.216-.576-.216-.288-.144-.576-.072-.792.144-.36.288-.576.72-.72 1.152-.288.936-.72 1.728-1.152 2.592l-1.08 2.232-2.376 4.968-.216.432c-.432.504-.72 1.08-.936 1.728-.216.432-.504.792-.72 1.152-.648.432-1.008 2.16-1.368 2.736l-1.152 1.584c-.36.504-.792.864-1.08 1.368-.216.288-.36.504-.648.72-.288.216-.504.504-.72.864-.36.504-.864.864-1.44 1.152 0 0-.144-.072-.144-.144 0-.288-.072-.648.072-.936.216-.432.216-.936.216-1.368-.072-.504.36-.792.432-1.296 0-.288 0-.576.072-.864.36-.936.432-1.872.504-3.96 0-.432-.072-.864.504-1.008.144-.288.36-.504.432-.72.36-1.08.72-2.088.936-3.096.144-.576.36-1.152.432-1.656.072-.648.36-1.224.504-1.8l.216-.72c.288-.864.216-1.8.648-2.592.072-.144.072-.432.072-.648 0-.144-.072-.288-.216-.432-.144-.144-.288-.288-.432-.36-.648-.288-1.152-.72-1.656-1.08-.432-.216-.648-.864-1.296-.576-.072 0-.216-.144-.288-.216-1.224-.864-1.368-.936-1.872.648-.072.144-.144.288-.144.432-.864 3.456-1.872 6.84-2.952 10.224-.504 1.8-1.08 4.68-1.512 6.48-.144.36-.144.792-.216 1.224-.144.864-.288 1.728-.36 2.52a.459.459 0 0 0 0 .432c.216.576.144 1.224.144 1.8 0 1.8.936 3.024 2.448 3.816.936.504 2.016.792 3.096 1.224.288.144.648.288 1.008.36.936.216 1.8.288 2.592-.36l.432-.216c1.152-.576 2.016-1.512 2.808-2.448.288-.432.648-.72 1.008-1.152.432-.432 1.296-1.944 1.656-2.52.432-.864.792-1.584 1.296-2.376.288-.36.576-.792 1.08-1.008.072.144.072.216.072.36l-.216 1.296c-.216.648-.216 1.224-.288 1.872-.288 1.296-.576 2.52-.72 3.888-.072.648-.288 1.296-.432 1.944-.072.288-.144.504-.432.72-.864.648-1.728 1.368-2.592 2.088-.72.648-1.44 1.296-2.232 1.944-1.152 1.08-2.376 2.088-3.528 3.096-.72.648-1.368 1.368-2.016 2.016-.504.432-.936.864-1.368 1.296-.576.504-1.008 1.08-1.584 1.584a45.564 45.564 0 0 0-3.384 4.032c-.144.216-.432.504-.504.792-.216.936-.864 1.656-1.368 2.448-.504.72-.792 1.584-1.152 2.376.072.576-.216 1.08-.432 1.656-.072.36-.144.72-.144 1.08v2.664c0 .72.216 1.44.432 2.16.864 2.808 2.88 4.68 5.472 5.904.216.144.432.216.72.216.792.216 1.584.288 2.448.288.216 0 .432 0 .576.072.936.288 1.944.072 2.88.144zm-3.384-2.592c-.36.216-.576.216-.864-.144-.36-.576-.792-1.08-1.008-1.656-.432-1.08-.792-2.088-.792-3.24-.072-.576-.072-1.08-.216-1.584a2.78 2.78 0 0 1 .216-1.512c.216-.432.36-.864.432-1.368.36-1.584 1.08-2.952 1.944-4.248l.576-1.08c.288-.432.504-.792.792-1.152l2.88-3.096c.288-.36.648-.648.72-1.152a.31.31 0 0 1 .288-.288c.432 0 .648-.288.864-.504.432-.36.792-.72 1.152-1.08 1.08-.936 2.088-1.944 3.168-2.88.072.216.144.288.144.432-.36 1.8-.504 3.6-.792 5.4-.144 1.224-.432 2.376-.72 3.6-.072.504-.288.936-.432 1.44-.36 1.008-.648 2.088-1.008 3.168-.504 1.584-1.296 3.168-2.016 4.68-.504 1.008-1.224 1.944-1.872 2.88-.504.648-1.08 1.296-1.584 1.872-.576.648-1.152 1.08-1.872 1.512zm21.69-9.504c.288.144.432.072.576-.144.072-.216.216-.504.36-.792.504-1.296.864-2.592 1.224-3.888.576-2.088 1.224-4.104 1.8-6.192.144-.504.432-1.008.504-1.512l1.224-3.888c.144-.36.216-.792.648-.792.288-.144.36.288.648.36.36.288.72.504 1.152.576 1.152.576 2.376 1.008 3.672 1.512.864.36 1.728.288 2.808.216.792-.072 2.16-.432 2.808-.792.36-.216.792-.36 1.008-.792.144-.216.288-.504.576-.576 1.008-.576 1.584-1.44 2.016-2.448.288-.576.504-1.08.936-1.584.36-.576.72-1.152.864-1.728l.432-.936c.216-.36.288-.792.432-1.152.144-.504.144-1.08.504-1.512.36-.504.648-1.152.792-1.8.648-1.656 1.368-3.384 1.8-5.112.288-1.152 1.152-3.744 1.44-4.896.144-.432-.072-1.008-.504-1.44-.072-.072 0-.216.072-.288.576-.288.72-.72.72-1.296 0-.216 0-.36.072-.504.288-.648.216-1.296.504-1.944.072-.288-.36-.576-.432-.864-.144-.504-.072-1.008-.144-1.44-.072-.504 0-.936-.216-1.44-.216-.72-.72-1.224-1.296-1.656-1.584-1.152-3.312-2.16-4.968-3.24-.864-.432-1.728-.288-2.376.216-.864.648-1.584 1.296-2.52 1.872-.144 0-.216.144-.36.288l-3.024 4.104c-.144.144-.288.36-.504.36a1.652 1.652 0 0 1-.072-1.008c.144-.432.288-.864.36-1.296.36-.792.648-1.656.576-2.52l.216-.504c.504-.576.72-1.368.936-2.088.072-.216-.072-.36-.216-.432-.72-.576-1.368-1.008-2.088-1.512a1.769 1.769 0 0 0-1.08-.36c-.216 0-.36-.072-.576-.216-.288-.216-.504-.72-.864-1.008-.288-.216-.72-.144-.864.144-.144.504-.432 1.08-.432 1.656 0 .36-.072.648-.36.936-.072.072-.144.288-.144.432-.288.792-.576 1.44-.648 2.232a8.182 8.182 0 0 1-.432 1.8c-.576 1.512-.72 2.952-1.152 4.392-.216.792-.288 1.584-.504 2.376-.432 1.512-.72 2.952-1.224 4.536-.432 1.368-.648 2.808-1.08 4.104-.144.648-.36 1.296-.432 1.944-.072.72-.216 1.368-.576 2.016-.144.288-.216.648-.36 1.008-.432 1.224-.72 2.448-1.152 3.528-.72 1.728-1.224 3.384-1.8 5.184-.648 2.088-1.872 6.336-2.232 8.496-.288 1.44-.72 2.952-1.152 4.392-.288.936-.504 1.8-.864 2.664-.504 1.224-.072 1.656.864 2.448.144.144.36.216.504.288a31.665 31.665 0 0 0 3.6 1.512zm10.296-18.504c-.288.144-.504 0-.576-.288-.072-.576-.288-1.152-.216-1.8l.072-.648c0-.288-.072-.504-.432-.72-.216-.072-.36-.288-.648-.432-.288-.144-.36-.36-.36-.792l.144-.432.216-1.008c.072-.288.144-.576.36-.648.36-.216.504-.576.648-.936.432-1.224 1.008-2.304 1.44-3.456.144-.36.432-.72.432-1.152 0-.144.072-.288.144-.432.288-.504.576-1.008.936-1.44.504-.576.864-1.296 1.224-2.016.432-.936 1.728-3.168 2.376-4.032l2.304-2.88.216-.432c.288-.576.648-1.08 1.152-1.44.36-.288.648-.576.792-.936.072-.216.216-.36.432-.36.576-.36 1.008-.936 1.656-1.296 0-.072.144-.072.216 0 0 0 0 .144-.072.216-.072.72.288 1.44.144 2.16-.216.936-.504 1.8-.648 2.664-.144.792 0 1.368-.288 2.16-.864 2.448-2.016 6.552-3.168 9.072-.36.792-.72 1.584-.936 2.376-.432 1.008-.864 2.088-1.512 3.024v.144c-.576 1.728-1.728 2.952-3.024 4.176-.648.72-2.088 1.224-2.88 1.512-.072.072-.072.072-.144.072zm27.591 5.832c.576.072 1.224.144 1.8-.072 1.08-.288 2.16-.72 3.024-1.44 1.584-1.224 2.952-2.592 4.392-4.032.144-.072.288-.216.288-.36 0-.504.216-.792.576-1.008.216-.144.216-.504.36-.648.216-.216.504-.216.792-.36.288-.216.504-.432.792-.72.864-.864 1.368-1.872 2.232-2.808.648-.576.864-1.152 1.224-1.944a10.965 10.965 0 0 0 2.232-3.168l.216-.288a3.02 3.02 0 0 0 .648-1.008c.216-.432.216-.792.504-1.08.144-.072.288-.504.504-.648.36-.36.432-.936.792-1.368.216-.288.216-.36 0-.504-.36-.288-.504-.504-.936-.72-.648-.432-.792-.576-1.368-.936-.432-.288-.864-.504-1.224-.864-.144-.144-.288-.288-.504-.36-.36-.288-.504-.288-.792.072-.648.936-1.368 2.088-2.016 2.952-.864 1.152-1.584 2.088-2.448 3.312-.288.504-.576.936-.936 1.296-.72.72-1.008 1.44-1.584 2.16-.648.792-1.296 1.44-1.944 2.16-.576.72-1.008 1.44-1.656 2.088a34.775 34.775 0 0 1-2.304 2.304c-.792.648-1.512 1.296-2.16 2.016-.288.216-.504.432-.792.576l-1.08.648c-.576.288-1.08.576-1.728.72-1.296.36-1.512.216-1.656-1.08-.072-.792 0-1.584 0-2.376v-1.296c-.072-.864.144-1.656.288-2.52.216-.792.36-1.584.432-2.304 0-.792.144-1.584.36-2.304.216-.432.216-.936.36-1.368.072-.36.216-.792.36-1.152 0-.144.216-.144.288-.144.216.072.36.216.576.288 1.152.648 2.304 1.296 3.528 1.8.288.072.504.072.72-.072.576-.432 1.152-.792 1.584-1.368a.65.65 0 0 1 .432-.432c.648-.36 1.08-1.008 1.584-1.512.648-.72 1.152-1.44 1.728-2.16.288-.36.72-.72.864-1.224.144-.288.432-.648.648-.936.36-.432.576-.936.864-1.44.36-.864.72-1.728 1.224-2.448.576-.864.648-1.944 1.08-2.88.072-1.08.504-2.16 0-3.312v-.216c0-1.008-.432-1.728-1.224-2.376-1.224-.936-2.376-2.016-3.6-3.024-.576-.432-1.08-.864-1.728-1.152-1.008-.36-2.016-.576-3.024-.144-1.224.504-2.088 1.44-3.024 2.304l-.144.216a54.569 54.569 0 0 1-1.8 2.52c-.144.216-.36.432-.36.648 0 .504-.288.792-.576 1.152-.216.216-.36.432-.504.72-.792 1.872-1.8 3.744-2.448 5.688-.576 1.512-1.224 3.024-1.512 4.68 0 .144-.072.36-.144.504-.432.864-.648 1.872-.864 2.808-.072.504-.216 1.08-.144 1.584 0 .288-.072.576-.144.864-.216.504-.36 1.08-.504 1.656-.144.504-.144 1.08-.216 1.584-.288 1.008-.216 2.016-.36 3.096-.144.648-.072 1.296-.072 1.944 0 .864.144 1.728.432 2.592.216.576.576 1.08.864 1.584a5.805 5.805 0 0 0 2.448 2.304c1.296.72 2.736 1.368 4.104 2.016.72.36 1.584.504 2.376.72zm-2.016-21.24c-.072-.072.072-.504.144-.576.216-.576.432-1.08.504-1.512.288-.792.432-1.512.72-2.16.216-.576.576-1.152.792-1.8.936-2.16 2.16-4.104 3.312-6.048.792-1.296 1.872-2.304 3.168-3.168h.144c.072 0 .144-.072.216 0 .072 0 .216.288.216.288-.144 1.8-.432 3.744-1.368 5.256-.432.72-.792 1.368-1.152 2.088-.504 1.08-1.08 2.16-1.8 3.096l-.432.648c-.864 1.512-2.448 2.376-3.744 3.6 0 0 0 .072-.072.072-.144.072-.504.36-.648.216zm15.02 35.136c.576 0 1.152 0 1.728-.216 1.08-.36 2.232-.648 3.024-1.584.072-.144.216-.216.432-.288.864-.504 1.8-1.008 2.304-1.944.144-.36.432-.648.72-.864.432-.36.72-.936 1.008-1.368.144-.216.072-.36-.072-.648-.36-.36-.216-.576.216-.72.072-.072.216-.072.36-.144.576-.216 1.08-.648 1.008-1.368 0-.432.216-.792.504-1.08.288-.576.72-1.152.936-1.8a9.871 9.871 0 0 0 .576-2.52c0-.864 0-1.728.36-2.592.288-1.512.216-3.096.144-4.68l-.072-.36c-.216-1.008-.432-2.088-.864-3.096-.072-.144-.216-.288 0-.432.144-.072.36 0 .432.144.144.072.288.144.504.144.864.144 1.368-.072 2.52-.36 1.728-.432 1.8-.72 3.384-1.44.432-.144 1.728-1.008 2.088-1.368.648-.576 1.296-1.368 2.016-1.944.864-1.008 1.368-2.088 1.656-3.312v-.36c-.288-.216-.504-.504-.792-.72-.288-.216-.288-.216-.504-.504l-.36-.144c-.36-.288-.144-.432-.576-.576-.216-.072-.288-.36-.504-.504l-.72-.288c-.072 0-.216-.144-.36-.216 0 .144-.072.216-.144.36-.864 1.8-2.16 3.384-3.744 4.536-1.512 1.08-2.448 1.8-4.32 2.376l-1.8.432c-.288-.072-.432-.072-.576-.288-.288-.432-.576-.792-.936-1.008-.792-.72-1.512-1.512-2.376-2.232-.216-.144-.216-.36-.144-.648.36-.576.432-1.152.576-1.656.288-.792.72-2.304 1.08-3.024.36-.936 1.008-1.296 1.368-2.232.144-.36.432-.792.576-1.08.144-.36.864-1.08 1.008-1.512.288-1.656 1.224-2.16 1.584-3.24.288-.792 1.368-2.232 1.512-2.952l1.512-3.744c1.08-2.736 1.008-3.6 1.944-6.408.288-1.08.36-2.88.72-4.032.144-.432.144-1.584 0-2.16-.072-.36-.504-.72-.576-.936l-.144-.288c-.576-.72-1.008-1.368-1.512-2.016-.144-.216-.36-.36-.576-.504-.36-.288-.72-.576-1.008-1.08l-.288-.36c-.144-.144-.288-.072-.36 0-.36.72-.792 1.44-1.008 2.16-.072.648-.216 1.296-.504 1.872-.288.72-.576 1.368-.792 2.088-.36 1.44-1.08 2.808-1.44 4.248-.648 1.368-1.152 2.952-1.656 4.32-.792 1.944-1.44 3.96-2.088 5.832-.936 2.448-1.728 4.824-2.664 7.272-.072.36-.072.72-.144 1.008-.072.432-.432.72-.576 1.152-.936 2.088-1.512 4.248-2.304 6.408-.504 1.44-.936 2.952-1.44 4.32a115.605 115.605 0 0 1-2.592 6.984c0 .216-.144.432-.144.648.216.216.072.432 0 .648-.648.792-.936 1.8-1.224 2.664-.576 1.512-1.08 2.952-1.728 4.464-.432 1.008-1.008 2.16-1.44 3.24-.36 1.008-.864 1.944-1.296 2.952-.36.936-.792 1.8-1.224 2.736-.36.576-.144 1.152.216 1.656.432.576.792.936 1.368 1.296.864.432 1.8.936 2.592 1.44.504.144 1.008.432 1.512.576 1.296.504 2.736.72 4.104.864zm-3.096-4.176c-.144.072-.288 0-.216-.144v-.216c.072-.216.072-.504.216-.72.648-1.368 1.224-2.88 1.8-4.32.36-.792.504-1.584 1.008-2.304.072-.864.648-1.584.936-2.376.36-1.44.936-2.808 1.368-4.248.432-1.152.864-2.304 1.224-3.528.216-.36.504-.864.432-1.368 0-.072 0-.216.072-.36.504-.864.648-1.8 1.008-2.664.36-.864.576-1.728.864-2.52l.288-.864c.072-.144.288-.216.432-.072.36.36.648.72.864 1.224.36 1.368.648 2.664.648 4.104.072 1.008 0 2.088-.072 2.88l-.144 1.584c.072.432-.216.864-.072 1.296-.432 1.224-.504 2.448-.936 3.6a28.623 28.623 0 0 1-2.736 5.328c-.36.936-1.224 1.584-1.8 2.52-.072.144-.216.216-.432.36l-1.368 1.152c-.072.072-.144.144-.288.144-1.008.432-1.944 1.152-3.096 1.512zm28.018-9.216c1.008.432 1.944.36 2.88-.216.144-.144.36-.288.576-.432.504-.432 1.008-.792 1.44-1.368.144-.144.36-.36.576-.504.432-.216.72-.576 1.08-.936.216-.288.36-.576.576-.792.432 0 .576.432.936.576.216.072.432.216.648.36.72.36 1.44.648 2.088 1.008.864.432 1.224.864 2.16 1.08.936.216 1.872.216 2.808-.216 1.08-.504 1.944-1.368 2.808-2.16.864-.936 1.44-2.088 2.232-3.024.36-.936.72-1.584 1.152-2.448.36-.576.72-1.08 1.008-1.728l.936-1.728a19.57 19.57 0 0 0 .792-1.8c.144-.504.36-1.008.576-1.512.216-.72 1.224-2.592 1.44-3.24.144-.432 0-.72-.36-1.008-1.224-.72-2.376-1.512-3.6-2.232-.288-.216-.576-.288-.864-.432-.144-.072-.288 0-.432.072-.36.432-.504.864-.648 1.368-.72 1.584-1.8 3.168-2.736 5.976-.432 1.296-1.368 2.448-1.728 3.6-.504.792-1.08 1.44-1.584 2.232-.936 1.512-1.656 2.808-3.096 3.816-.072.072-.072.072-.144.072-.072.072-.216-.072-.288-.144 0-1.152.144-2.304.072-3.456 0-.144.072-.288.144-.432.072-.36.216-.72.288-1.08.072-.936.216-1.8.288-2.736.144-1.296.432-2.52.864-3.744.288-.72.504-1.584.648-2.376.216-1.296 1.008-3.528 1.728-4.68 0-.072 0-.072.072-.144.144-.36.072-.72-.216-1.008l-1.296-1.008c-.72-.648-1.44-1.224-2.304-1.656-.216-.072-.432-.216-.648-.36-.504-.36-.648-.288-.936.216-.072.144-.216.288-.216.432-.504 1.368-1.368 3.816-1.728 5.256-.144.936-.576 1.656-.936 2.592-.36.864-.648 1.728-.936 2.664-.504 1.224-.864 2.52-1.368 3.744-.288.864-.72 1.728-1.152 2.592l-1.512 2.376c-1.008 1.512-2.304 2.736-3.672 3.96-.216.216-.576.648-.864.504-.504-.144-.36-.72-.432-1.08-.072-.144-.072-.288 0-.504 0-.864-.072-1.8.144-2.664.144-.936.144-1.944.36-2.88a53.695 53.695 0 0 1 1.08-4.896c.216-.936.576-1.728.576-2.664 0-.144.144-.288.216-.504.36-.864.792-1.728 1.08-2.736.072-.504.288-1.008.504-1.512.504-.936 1.008-1.872 1.368-2.88.144-.432.36-.864.648-1.224.216-.216.288-.504.432-.72.216-.432.36-.864.648-1.224l.504-.648a156.362 156.362 0 0 1 2.376-3.6l.36-.432c.864-.792 1.728-1.656 2.592-2.52.36-.36.864-.648 1.296-.864.792-.432 1.512-.648 2.376-.504.216 0 .288.144.288.288.072.576-.144 1.08-.288 1.584l-.648 1.728c-.216.504-.144.864.072 1.296.144.216.36.36.504.576.648.648 1.44 1.08 2.304 1.44.36.072.576.288.792.576.144.144.288.36.504.504.072.144.288.144.36 0 .144-.216.216-.432.36-.576.792-1.08.936-2.376 1.008-3.744v-.504c-.216-1.08-.576-1.8-1.368-2.592-1.08-1.08-2.088-2.16-3.24-3.24-1.08-1.008-2.304-1.872-3.888-1.872a.55.55 0 0 1-.36-.144c-.936-.072-1.728-.072-2.592.288-1.224.432-2.16 1.224-3.024 2.088-1.008.936-1.944 1.944-2.736 3.024-.36.504-.72 1.008-1.08 1.584-.864 1.44-2.016 2.808-2.592 4.464-.072.216-.216.36-.288.576a5.716 5.716 0 0 0-.936 1.872c-.216.504-.432 1.008-.72 1.584-.936 2.304-1.8 4.68-2.448 7.128-.216 1.008-.576 2.088-.792 3.096-.216.864-.36 1.8-.504 2.664-.216.936-.288 1.872-.504 2.808-.144.36-.072.792.072 1.224.216.504.072.864-.36 1.152v.288c.144 0 .216.144.216.216-.072.936.216 1.8.576 2.664a7.522 7.522 0 0 0 3.024 3.816c1.44.936 3.024 1.656 4.608 2.304zm32.173-.576c.504 0 1.08-.072 1.512-.288 1.08-.504 2.232-.864 3.312-1.44 1.368-.72 2.592-1.8 3.816-2.808.792-.648 1.584-1.296 2.16-2.16.072-.072.144-.216.288-.288.432-.288.792-.72 1.08-1.152l2.16-2.592 1.656-1.872c.144-.072.216-.216.288-.36.432-.648.864-1.296 1.368-1.944.432-1.296 1.152-2.448 1.944-3.528.216-.36.144-.72-.216-.936-.216-.072-.432-.216-.576-.216-.504.072-.792-.216-1.008-.576-.216-.432-.216-.432-.576-.648-.216-.144-.36-.36-.576-.504-.504-.288-.936-.648-1.44-.936-.216-.216-.432-.144-.648.144-1.296 1.8-2.592 3.6-3.744 5.544l-3.456 4.248c-.36.648-.72 1.224-1.44 1.512-.144.072-.288.288-.432.432l-1.656 1.656c-1.728 1.584-3.528 3.024-5.688 3.96-.864.36-1.656.72-2.592.936-.864.216-1.08.144-1.944.144-.288-.072-.504-.216-.576-.432-.216-.648-.504-1.296-.576-1.944-.144-1.584-.072-3.24.072-4.824.072-.432.216-.864.072-1.368-.072-.072 0-.216 0-.36.36-.576.432-1.296.504-1.224.216-.864.288-1.728.72-2.52.36-.864 1.008-3.096 1.224-3.456.432-.72.72-1.296 1.008-2.016.216-.36.216-.864.432-1.296.216-.432.576-.792.864-1.152.288-.36.36-.864.648-1.224.576-.792 1.008-1.656 1.44-2.592.288-.648.576-1.224 1.152-1.728.144-.144.216-.36.288-.504.792-1.08 1.656-2.088 2.304-3.24.144-.216.288-.432.504-.576l1.08-1.008c.504-.576 1.152-1.008 1.8-1.512l.288-.216h.216c.432.072.36.504.36.72-.216 1.8-.36 3.384-1.296 5.04-.216.288-.936 1.872-1.152 2.16-.72 1.584-1.656 1.8-1.296 2.376.288.288.792.648 1.152.864.36.216 1.224 0 1.08.648.72.36 1.224.72 1.944 1.08.288.144.576.072.72-.216.504-.432.72-.864 1.008-1.296.36-.504.648-1.008.936-1.512.576-1.296 1.224-2.592 1.512-3.888.288-1.296.648-3.312.576-4.752 0-.72-.288-1.368-.72-1.872-.216-.288-.36-.504-.648-.648-.432-.288-.792-.648-1.152-1.08-.864-.792-1.8-1.512-2.664-2.232-.216-.216-.576-.36-.864-.504-.288-.216-.648-.288-.936-.072-.288.144-.648-.216-.936.072h-.216c-.576-.36-1.008-.072-1.44.144-.648.36-1.296.792-1.872 1.152-.144.144-.288.216-.36.36l-1.08 1.224c-.288.432-.648.864-1.152 1.152-.144.072-.288.216-.432.432-.648.864-1.44 1.728-2.016 2.664-.576 1.008-1.224 2.016-1.872 3.096-.288.432-.576.864-.792 1.368-.72 1.296-1.512 2.592-2.16 3.888-.576 1.008-1.224 2.016-1.368 3.168a.55.55 0 0 1-.144.36c-1.008 1.44-.936 2.232-1.512 3.888-.144.432-.072.864-.216 1.224-.36.504-.432 1.152-.576 1.728-.432 1.8-.576 2.952-.576 4.824.072.792 0 1.656.144 2.448.648 2.592 2.016 4.68 4.32 5.976 1.368.792 2.88 1.44 4.392 2.088 1.512.72 2.52.936 4.248.792zm22.01.072c.576.072 1.224.144 1.8-.072 1.08-.288 2.16-.72 3.024-1.44 1.584-1.224 2.952-2.592 4.392-4.032.144-.072.288-.216.288-.36 0-.504.216-.792.576-1.008.216-.144.216-.504.36-.648.216-.216.504-.216.792-.36.288-.216.504-.432.792-.72.864-.864 1.368-1.872 2.232-2.808.648-.576.864-1.152 1.224-1.944a10.965 10.965 0 0 0 2.232-3.168l.216-.288a3.02 3.02 0 0 0 .648-1.008c.216-.432.216-.792.504-1.08.144-.072.288-.504.504-.648.36-.36.432-.936.792-1.368.216-.288.216-.36 0-.504-.36-.288-.504-.504-.936-.72-.648-.432-.792-.576-1.368-.936-.432-.288-.864-.504-1.224-.864-.144-.144-.288-.288-.504-.36-.36-.288-.504-.288-.792.072-.648.936-1.368 2.088-2.016 2.952-.864 1.152-1.584 2.088-2.448 3.312-.288.504-.576.936-.936 1.296-.72.72-1.008 1.44-1.584 2.16-.648.792-1.296 1.44-1.944 2.16-.576.72-1.008 1.44-1.656 2.088a34.775 34.775 0 0 1-2.304 2.304c-.792.648-1.512 1.296-2.16 2.016-.288.216-.504.432-.792.576l-1.08.648c-.576.288-1.08.576-1.728.72-1.296.36-1.512.216-1.656-1.08-.072-.792 0-1.584 0-2.376v-1.296c-.072-.864.144-1.656.288-2.52.216-.792.36-1.584.432-2.304 0-.792.144-1.584.36-2.304.216-.432.216-.936.36-1.368.072-.36.216-.792.36-1.152 0-.144.216-.144.288-.144.216.072.36.216.576.288 1.152.648 2.304 1.296 3.528 1.8.288.072.504.072.72-.072.576-.432 1.152-.792 1.584-1.368a.65.65 0 0 1 .432-.432c.648-.36 1.08-1.008 1.584-1.512.648-.72 1.152-1.44 1.728-2.16.288-.36.72-.72.864-1.224.144-.288.432-.648.648-.936.36-.432.576-.936.864-1.44.36-.864.72-1.728 1.224-2.448.576-.864.648-1.944 1.08-2.88.072-1.08.504-2.16 0-3.312v-.216c0-1.008-.432-1.728-1.224-2.376-1.224-.936-2.376-2.016-3.6-3.024-.576-.432-1.08-.864-1.728-1.152-1.008-.36-2.016-.576-3.024-.144-1.224.504-2.088 1.44-3.024 2.304l-.144.216a54.569 54.569 0 0 1-1.8 2.52c-.144.216-.36.432-.36.648 0 .504-.288.792-.576 1.152-.216.216-.36.432-.504.72-.792 1.872-1.8 3.744-2.448 5.688-.576 1.512-1.224 3.024-1.512 4.68 0 .144-.072.36-.144.504-.432.864-.648 1.872-.864 2.808-.072.504-.216 1.08-.144 1.584 0 .288-.072.576-.144.864-.216.504-.36 1.08-.504 1.656-.144.504-.144 1.08-.216 1.584-.288 1.008-.216 2.016-.36 3.096-.144.648-.072 1.296-.072 1.944 0 .864.144 1.728.432 2.592.216.576.576 1.08.864 1.584a5.805 5.805 0 0 0 2.448 2.304c1.296.72 2.736 1.368 4.104 2.016.72.36 1.584.504 2.376.72zm-2.016-21.24c-.072-.072.072-.504.144-.576.216-.576.432-1.08.504-1.512.288-.792.432-1.512.72-2.16.216-.576.576-1.152.792-1.8.936-2.16 2.16-4.104 3.312-6.048.792-1.296 1.872-2.304 3.168-3.168h.144c.072 0 .144-.072.216 0 .072 0 .216.288.216.288-.144 1.8-.432 3.744-1.368 5.256-.432.72-.792 1.368-1.152 2.088-.504 1.08-1.08 2.16-1.8 3.096l-.432.648c-.864 1.512-2.448 2.376-3.744 3.6 0 0 0 .072-.072.072-.144.072-.504.36-.648.216zM13.602 210H2.312v-30.545h11.275c3.113 0 5.792.611 8.04 1.834 2.257 1.213 3.997 2.963 5.22 5.25 1.223 2.277 1.834 5.001 1.834 8.173 0 3.182-.611 5.917-1.834 8.203-1.213 2.287-2.949 4.042-5.206 5.265-2.257 1.213-4.936 1.82-8.039 1.82zm-3.907-6.294h3.624c1.71 0 3.157-.288 4.34-.865 1.193-.587 2.093-1.536 2.7-2.849.616-1.322.924-3.082.924-5.28 0-2.197-.308-3.947-.924-5.25-.617-1.312-1.527-2.257-2.73-2.833-1.193-.587-2.665-.88-4.415-.88h-3.52v17.957zM32.15 210v-22.909h7.294V210H32.15zm3.655-25.579c-1.025 0-1.904-.338-2.64-1.014-.736-.686-1.104-1.511-1.104-2.476 0-.954.368-1.77 1.104-2.446.736-.686 1.615-1.029 2.64-1.029 1.034 0 1.914.343 2.64 1.029.735.676 1.103 1.492 1.103 2.446 0 .965-.368 1.79-1.103 2.476-.726.676-1.606 1.014-2.64 1.014zm27.442 9.665-6.697.179a2.5 2.5 0 0 0-.567-1.268 3.048 3.048 0 0 0-1.208-.88c-.487-.219-1.054-.328-1.7-.328-.845 0-1.566.169-2.163.507-.586.338-.875.796-.865 1.372-.01.448.17.836.537 1.164.378.328 1.05.591 2.014.79l4.414.835c2.287.438 3.988 1.164 5.101 2.178 1.124 1.014 1.69 2.356 1.7 4.027-.01 1.571-.477 2.938-1.401 4.101-.915 1.164-2.168 2.069-3.759 2.715-1.59.636-3.41.955-5.459.955-3.271 0-5.851-.672-7.74-2.014-1.88-1.352-2.954-3.162-3.222-5.429l7.204-.179c.159.835.571 1.472 1.238 1.909.666.438 1.516.656 2.55.656.935 0 1.695-.174 2.282-.522.587-.348.885-.81.895-1.387-.01-.517-.239-.929-.686-1.238-.448-.318-1.149-.566-2.103-.745l-3.997-.761c-2.297-.418-4.008-1.188-5.131-2.312-1.124-1.133-1.68-2.575-1.67-4.325-.01-1.531.397-2.839 1.223-3.923.825-1.093 1.998-1.929 3.52-2.505 1.52-.577 3.315-.865 5.384-.865 3.102 0 5.548.651 7.338 1.953 1.79 1.293 2.779 3.073 2.968 5.34zm3.317 24.505v-31.5h7.219v3.922h.224A7.998 7.998 0 0 1 75.275 189c.557-.646 1.263-1.173 2.118-1.581.865-.418 1.9-.626 3.103-.626 1.59 0 3.077.417 4.46 1.252 1.391.836 2.515 2.123 3.37 3.863.855 1.74 1.283 3.958 1.283 6.652 0 2.596-.413 4.768-1.238 6.518-.816 1.75-1.92 3.063-3.311 3.938-1.383.875-2.919 1.312-4.61 1.312-1.153 0-2.152-.189-2.997-.567a6.517 6.517 0 0 1-2.133-1.491 7.17 7.17 0 0 1-1.312-1.984h-.15v12.305h-7.293zm7.144-20.046c0 1.233.165 2.307.493 3.222.338.915.82 1.626 1.446 2.133.637.497 1.397.746 2.282.746.895 0 1.656-.249 2.282-.746.627-.507 1.099-1.218 1.417-2.133.328-.915.492-1.989.492-3.222 0-1.233-.164-2.301-.492-3.206-.318-.905-.79-1.606-1.417-2.103-.616-.497-1.377-.746-2.282-.746-.895 0-1.655.244-2.282.731-.626.487-1.108 1.183-1.446 2.088-.328.905-.493 1.984-.493 3.236zm26.175-19.09V210H92.59v-30.545h7.293zm10.26 30.933c-1.462 0-2.759-.244-3.893-.731-1.123-.497-2.013-1.243-2.669-2.237-.647-1.005-.97-2.262-.97-3.774 0-1.272.224-2.346.671-3.221a5.739 5.739 0 0 1 1.85-2.133c.785-.547 1.69-.96 2.714-1.238a17.706 17.706 0 0 1 3.281-.582c1.303-.119 2.352-.243 3.148-.373.795-.139 1.372-.333 1.73-.581.368-.259.551-.622.551-1.089v-.075c0-.765-.263-1.357-.79-1.774-.527-.418-1.238-.627-2.133-.627-.964 0-1.74.209-2.327.627-.586.417-.959.994-1.118 1.73l-6.727-.239a7.952 7.952 0 0 1 1.537-3.729c.835-1.103 1.978-1.968 3.43-2.595 1.462-.636 3.217-.954 5.265-.954 1.461 0 2.809.174 4.042.522 1.233.338 2.307.835 3.221 1.491a6.742 6.742 0 0 1 2.118 2.386c.507.945.761 2.024.761 3.237V210h-6.861v-3.192h-.179a6.508 6.508 0 0 1-1.566 1.969 6.23 6.23 0 0 1-2.222 1.208c-.845.269-1.8.403-2.864.403zm2.252-4.773c.786 0 1.492-.159 2.118-.477a3.901 3.901 0 0 0 1.521-1.313c.378-.566.567-1.223.567-1.968v-2.178a4.335 4.335 0 0 1-.76.298c-.289.09-.607.174-.955.254-.348.079-.706.149-1.074.209-.368.059-.721.114-1.059.164-.686.109-1.273.278-1.76.507-.477.228-.845.527-1.103.895-.249.358-.373.785-.373 1.282 0 .756.268 1.333.805 1.73.547.398 1.238.597 2.073.597zm18.699 12.976c-.875 0-1.701-.07-2.476-.209-.776-.129-1.442-.303-1.999-.522l1.611-5.295c.716.239 1.362.378 1.939.418.587.04 1.089-.055 1.506-.283.428-.219.756-.612.985-1.179l.283-.686-8.143-23.744h7.636l4.221 16.347h.238l4.281-16.347h7.681l-8.636 25.101c-.417 1.253-1.009 2.357-1.774 3.312-.756.964-1.736 1.72-2.939 2.267-1.193.546-2.664.82-4.414.82zm40.834-31.5v5.369h-14.452v-5.369h14.452zm-11.425-5.489h7.294v21.194c0 .448.069.811.209 1.089.149.268.362.462.641.582.278.109.611.164.999.164.279 0 .572-.025.88-.075.318-.06.557-.109.716-.149l1.104 5.265c-.348.099-.84.224-1.477.373-.626.149-1.377.243-2.252.283-1.71.08-3.177-.119-4.4-.596-1.213-.488-2.143-1.243-2.789-2.268-.636-1.024-.944-2.311-.925-3.862v-22zm18.766 36.989c-.875 0-1.7-.07-2.476-.209-.776-.129-1.442-.303-1.999-.522l1.611-5.295c.716.239 1.362.378 1.939.418.587.04 1.089-.055 1.507-.283.427-.219.755-.612.984-1.179l.283-.686-8.143-23.744h7.636l4.221 16.347h.239l4.28-16.347h7.681l-8.635 25.101c-.418 1.253-1.009 2.357-1.775 3.312-.756.964-1.735 1.72-2.938 2.267-1.194.546-2.665.82-4.415.82zm19.72 0v-31.5h7.219v3.922h.223A8.016 8.016 0 0 1 207.7 189c.557-.646 1.263-1.173 2.118-1.581.865-.418 1.899-.626 3.102-.626 1.591 0 3.078.417 4.46 1.252 1.392.836 2.515 2.123 3.371 3.863.855 1.74 1.282 3.958 1.282 6.652 0 2.596-.412 4.768-1.238 6.518-.815 1.75-1.919 3.063-3.311 3.938-1.382.875-2.918 1.312-4.608 1.312-1.154 0-2.153-.189-2.998-.567a6.523 6.523 0 0 1-2.133-1.491 7.186 7.186 0 0 1-1.313-1.984h-.149v12.305h-7.293zm7.144-20.046c0 1.233.164 2.307.492 3.222.338.915.821 1.626 1.447 2.133.636.497 1.397.746 2.282.746.895 0 1.656-.249 2.282-.746.626-.507 1.099-1.218 1.417-2.133.328-.915.492-1.989.492-3.222 0-1.233-.164-2.301-.492-3.206-.318-.905-.791-1.606-1.417-2.103-.617-.497-1.377-.746-2.282-.746-.895 0-1.656.244-2.282.731-.626.487-1.109 1.183-1.447 2.088-.328.905-.492 1.984-.492 3.236zm29.59 11.888c-2.396 0-4.465-.473-6.205-1.417a9.805 9.805 0 0 1-3.997-4.072c-.924-1.77-1.387-3.873-1.387-6.309 0-2.367.468-4.435 1.402-6.205.935-1.779 2.252-3.162 3.953-4.146 1.7-.994 3.703-1.491 6.01-1.491 1.631 0 3.122.253 4.475.76a9.627 9.627 0 0 1 3.505 2.252c.984.995 1.75 2.223 2.297 3.684.546 1.452.82 3.118.82 4.997v1.819h-19.911v-4.235h13.125c-.01-.776-.194-1.467-.552-2.074a3.747 3.747 0 0 0-1.477-1.416c-.616-.348-1.327-.522-2.133-.522-.815 0-1.546.183-2.192.551a4.065 4.065 0 0 0-1.536 1.477c-.378.616-.577 1.317-.597 2.103v4.31c0 .935.184 1.755.552 2.461.368.696.89 1.238 1.566 1.626.676.388 1.482.582 2.416.582a5.45 5.45 0 0 0 1.76-.269 3.75 3.75 0 0 0 1.357-.79c.378-.348.662-.776.851-1.283l6.696.194c-.278 1.501-.89 2.809-1.834 3.922-.935 1.104-2.163 1.964-3.684 2.581-1.522.606-3.281.91-5.28.91zm26.778-23.342v5.369h-14.735v-5.369h14.735zM250.839 210v-24.072c0-1.77.333-3.237.999-4.4.667-1.174 1.591-2.049 2.774-2.625 1.184-.587 2.551-.88 4.102-.88 1.014 0 1.969.079 2.864.238.904.15 1.576.284 2.013.403l-1.163 5.34a5.979 5.979 0 0 0-.985-.224 6.84 6.84 0 0 0-1.073-.09c-.856 0-1.442.189-1.76.567-.319.378-.478.895-.478 1.551V210h-7.293zm19.888.388c-1.462 0-2.759-.244-3.893-.731a6.067 6.067 0 0 1-2.67-2.237c-.646-1.005-.969-2.262-.969-3.774 0-1.272.224-2.346.671-3.221a5.736 5.736 0 0 1 1.849-2.133c.786-.547 1.691-.96 2.715-1.238a17.706 17.706 0 0 1 3.281-.582c1.303-.119 2.352-.243 3.147-.373.796-.139 1.372-.333 1.73-.581.368-.259.552-.622.552-1.089v-.075c0-.765-.263-1.357-.79-1.774-.527-.418-1.238-.627-2.133-.627-.965 0-1.74.209-2.327.627-.586.417-.959.994-1.118 1.73l-6.727-.239a7.96 7.96 0 0 1 1.536-3.729c.835-1.103 1.979-1.968 3.431-2.595 1.461-.636 3.216-.954 5.265-.954 1.461 0 2.808.174 4.041.522 1.233.338 2.307.835 3.222 1.491a6.742 6.742 0 0 1 2.118 2.386c.507.945.761 2.024.761 3.237V210h-6.861v-3.192h-.179a6.508 6.508 0 0 1-1.566 1.969 6.234 6.234 0 0 1-2.223 1.208c-.845.269-1.799.403-2.863.403zm2.252-4.773c.785 0 1.491-.159 2.118-.477a3.915 3.915 0 0 0 1.521-1.313c.378-.566.567-1.223.567-1.968v-2.178a4.317 4.317 0 0 1-.761.298c-.288.09-.606.174-.954.254-.348.079-.706.149-1.074.209-.368.059-.721.114-1.059.164-.686.109-1.273.278-1.76.507-.477.228-.845.527-1.104.895-.248.358-.373.785-.373 1.282 0 .756.269 1.333.806 1.73.547.398 1.238.597 2.073.597zm25.753 4.818c-2.416 0-4.489-.498-6.219-1.492a10.084 10.084 0 0 1-3.968-4.146c-.925-1.78-1.387-3.838-1.387-6.175 0-2.347.462-4.405 1.387-6.175.935-1.78 2.262-3.167 3.982-4.161 1.731-.994 3.794-1.491 6.19-1.491 2.118 0 3.962.382 5.533 1.148 1.581.766 2.814 1.849 3.699 3.251.895 1.393 1.368 3.028 1.417 4.907h-6.816c-.139-1.173-.537-2.093-1.193-2.759-.646-.666-1.491-.999-2.536-.999-.845 0-1.585.239-2.222.716-.636.467-1.133 1.163-1.491 2.088-.348.915-.522 2.048-.522 3.4 0 1.353.174 2.496.522 3.431.358.925.855 1.626 1.491 2.103.637.467 1.377.701 2.222.701.677 0 1.273-.144 1.79-.433.527-.288.96-.711 1.298-1.267.338-.567.552-1.253.641-2.059h6.816c-.069 1.89-.542 3.54-1.417 4.952-.865 1.412-2.083 2.511-3.654 3.296-1.561.776-3.415 1.164-5.563 1.164zm24.235 0c-2.396 0-4.464-.473-6.204-1.417a9.8 9.8 0 0 1-3.997-4.072c-.925-1.77-1.387-3.873-1.387-6.309 0-2.367.467-4.435 1.402-6.205.934-1.779 2.252-3.162 3.952-4.146 1.7-.994 3.704-1.491 6.011-1.491 1.63 0 3.122.253 4.474.76a9.62 9.62 0 0 1 3.505 2.252c.985.995 1.75 2.223 2.297 3.684.547 1.452.82 3.118.82 4.997v1.819h-19.911v-4.235h13.125c-.01-.776-.194-1.467-.552-2.074a3.751 3.751 0 0 0-1.476-1.416c-.617-.348-1.328-.522-2.133-.522-.815 0-1.546.183-2.193.551a4.065 4.065 0 0 0-1.536 1.477c-.378.616-.577 1.317-.596 2.103v4.31c0 .935.184 1.755.551 2.461.368.696.89 1.238 1.567 1.626.676.388 1.481.582 2.416.582a5.45 5.45 0 0 0 1.76-.269 3.758 3.758 0 0 0 1.357-.79c.378-.348.661-.776.85-1.283l6.697.194c-.279 1.501-.89 2.809-1.835 3.922-.934 1.104-2.162 1.964-3.684 2.581-1.521.606-3.281.91-5.28.91zM11.454 278H2.582v-26.182h9.052c2.599 0 4.832.524 6.698 1.573 1.875 1.039 3.316 2.535 4.321 4.487 1.006 1.952 1.509 4.287 1.509 7.006 0 2.727-.507 5.071-1.521 7.031-1.006 1.96-2.46 3.464-4.36 4.513-1.892 1.048-4.167 1.572-6.826 1.572zm-4.129-4.104h3.9c1.823 0 3.345-.332 4.563-.997 1.22-.673 2.135-1.675 2.749-3.004.614-1.338.92-3.009.92-5.011 0-2.003-.306-3.665-.92-4.986-.614-1.33-1.521-2.323-2.723-2.979-1.193-.665-2.676-.997-4.449-.997h-4.04v17.974zM27.744 278v-19.636h4.628V278h-4.628zm2.326-22.423a2.699 2.699 0 0 1-1.892-.729c-.528-.494-.792-1.087-.792-1.777 0-.699.264-1.291.792-1.777a2.675 2.675 0 0 1 1.892-.741c.742 0 1.373.247 1.892.741.529.486.793 1.078.793 1.777 0 .69-.264 1.283-.793 1.777-.52.486-1.15.729-1.892.729zm21.86 7.977-4.218.46a3.4 3.4 0 0 0-.627-1.202c-.29-.374-.682-.677-1.176-.907-.494-.23-1.1-.345-1.815-.345-.963 0-1.773.208-2.43.626-.647.418-.967.959-.958 1.624-.009.571.2 1.035.626 1.393.435.358 1.15.652 2.148.882l3.35.716c1.858.401 3.238 1.036 4.142 1.905.911.869 1.372 2.007 1.38 3.413-.008 1.236-.37 2.327-1.086 3.273-.708.938-1.692 1.67-2.953 2.199-1.262.528-2.71.793-4.347.793-2.404 0-4.338-.503-5.804-1.509-1.466-1.014-2.34-2.425-2.62-4.232l4.512-.434c.204.886.64 1.555 1.304 2.007.665.452 1.53.677 2.595.677 1.1 0 1.982-.225 2.646-.677.674-.452 1.01-1.01 1.01-1.675 0-.562-.217-1.027-.652-1.393-.426-.367-1.09-.648-1.994-.844l-3.35-.703c-1.883-.392-3.276-1.053-4.18-1.982-.903-.937-1.35-2.122-1.342-3.554-.009-1.21.32-2.258.984-3.145.674-.894 1.607-1.585 2.8-2.071 1.202-.494 2.587-.741 4.155-.741 2.301 0 4.112.49 5.433 1.47 1.33.98 2.152 2.306 2.467 3.976zm3.518 21.81v-27H60v3.247h.269a8.53 8.53 0 0 1 1.01-1.522c.434-.545 1.023-1.009 1.764-1.393.741-.392 1.688-.588 2.838-.588 1.517 0 2.885.388 4.104 1.163 1.227.767 2.199 1.905 2.915 3.414.724 1.5 1.086 3.341 1.086 5.522 0 2.157-.353 3.989-1.06 5.498-.708 1.508-1.671 2.659-2.89 3.451-1.219.793-2.6 1.189-4.142 1.189-1.125 0-2.058-.187-2.8-.562-.741-.375-1.338-.827-1.79-1.355a8.753 8.753 0 0 1-1.035-1.522h-.192v10.458h-4.628zm4.539-17.182c0 1.27.179 2.382.537 3.336.366.955.89 1.701 1.572 2.238.69.528 1.526.792 2.506.792 1.022 0 1.879-.272 2.57-.818.69-.554 1.21-1.308 1.559-2.263.358-.963.537-2.058.537-3.285 0-1.219-.175-2.301-.524-3.247-.35-.946-.87-1.688-1.56-2.225-.69-.537-1.551-.805-2.582-.805-.989 0-1.828.26-2.519.78-.69.52-1.214 1.248-1.572 2.186-.35.937-.524 2.041-.524 3.311zm21.87-16.364V278h-4.629v-26.182h4.628zm9.689 26.578c-1.245 0-2.366-.221-3.363-.664a5.49 5.49 0 0 1-2.352-1.995c-.57-.878-.856-1.96-.856-3.247 0-1.108.204-2.024.613-2.749a4.753 4.753 0 0 1 1.675-1.738 8.45 8.45 0 0 1 2.39-.985c.895-.23 1.82-.396 2.775-.498 1.15-.119 2.084-.226 2.8-.32.715-.102 1.235-.255 1.56-.46.332-.213.498-.541.498-.984v-.077c0-.963-.286-1.709-.857-2.237-.57-.529-1.393-.793-2.467-.793-1.134 0-2.033.247-2.698.742-.656.494-1.1 1.078-1.33 1.751l-4.32-.614c.34-1.193.903-2.19 1.687-2.991.784-.81 1.743-1.415 2.877-1.815 1.133-.41 2.386-.614 3.758-.614.946 0 1.888.111 2.825.332a7.946 7.946 0 0 1 2.57 1.1c.776.503 1.398 1.189 1.867 2.058.477.869.715 1.956.715 3.26V278h-4.448v-2.697h-.154a5.666 5.666 0 0 1-1.189 1.534c-.502.468-1.138.848-1.904 1.137-.759.282-1.65.422-2.672.422zm1.201-3.4c.93 0 1.735-.184 2.416-.55.682-.375 1.207-.869 1.573-1.483a3.78 3.78 0 0 0 .562-2.007v-2.314c-.144.119-.392.23-.741.332-.34.103-.725.192-1.15.269-.427.077-.849.145-1.266.204l-1.087.154a8.099 8.099 0 0 0-1.854.46c-.545.213-.975.511-1.29.895-.316.375-.474.861-.474 1.457 0 .853.311 1.496.933 1.931.623.434 1.415.652 2.378.652zm15.273 10.368c-.63 0-1.214-.051-1.751-.154-.529-.094-.951-.204-1.266-.332l1.074-3.605c.673.196 1.274.29 1.803.281a2.214 2.214 0 0 0 1.393-.499c.409-.315.754-.843 1.036-1.585l.396-1.061-7.121-20.045h4.909l4.526 14.829h.204l4.539-14.829h4.922l-7.863 22.014c-.366 1.04-.852 1.93-1.457 2.672a5.927 5.927 0 0 1-2.224 1.713c-.87.4-1.91.601-3.12.601zm35.161-27v3.579h-11.288v-3.579h11.288zm-8.501-4.705h4.627v18.435c0 .622.094 1.099.282 1.432.196.323.451.545.767.664.315.12.665.179 1.048.179.29 0 .554-.021.793-.064.247-.042.434-.081.562-.115l.78 3.618a10.33 10.33 0 0 1-1.061.281c-.452.103-1.006.162-1.662.179-1.159.035-2.203-.14-3.132-.524a4.876 4.876 0 0 1-2.212-1.815c-.537-.818-.801-1.841-.792-3.068v-19.202zm14.528 31.705a9.311 9.311 0 0 1-1.752-.154c-.528-.094-.95-.204-1.265-.332l1.074-3.605c.673.196 1.274.29 1.802.281a2.215 2.215 0 0 0 1.394-.499c.409-.315.754-.843 1.035-1.585l.397-1.061-7.121-20.045h4.909l4.525 14.829h.205l4.538-14.829h4.922l-7.862 22.014c-.366 1.04-.852 1.93-1.457 2.672a5.93 5.93 0 0 1-2.225 1.713c-.869.4-1.909.601-3.119.601zm17.146 0v-27h4.551v3.247h.268a8.59 8.59 0 0 1 1.01-1.522c.435-.545 1.023-1.009 1.764-1.393.742-.392 1.688-.588 2.838-.588 1.517 0 2.885.388 4.104 1.163 1.227.767 2.199 1.905 2.915 3.414.724 1.5 1.087 3.341 1.087 5.522 0 2.157-.354 3.989-1.062 5.498-.707 1.508-1.67 2.659-2.889 3.451-1.218.793-2.599 1.189-4.142 1.189-1.125 0-2.058-.187-2.799-.562-.742-.375-1.339-.827-1.79-1.355-.443-.537-.789-1.044-1.036-1.522h-.192v10.458h-4.627zm4.538-17.182c0 1.27.179 2.382.537 3.336.366.955.891 1.701 1.572 2.238.691.528 1.526.792 2.506.792 1.023 0 1.879-.272 2.57-.818.69-.554 1.21-1.308 1.559-2.263.358-.963.537-2.058.537-3.285 0-1.219-.174-2.301-.524-3.247-.349-.946-.869-1.688-1.56-2.225-.69-.537-1.551-.805-2.582-.805-.989 0-1.828.26-2.518.78-.691.52-1.215 1.248-1.573 2.186-.349.937-.524 2.041-.524 3.311zm25.935 10.202c-1.969 0-3.669-.41-5.101-1.228-1.423-.826-2.519-1.994-3.286-3.503-.767-1.517-1.15-3.302-1.15-5.356 0-2.02.383-3.793 1.15-5.318.776-1.534 1.858-2.728 3.248-3.58 1.389-.861 3.021-1.291 4.896-1.291 1.21 0 2.352.196 3.426.588a7.753 7.753 0 0 1 2.864 1.79c.835.809 1.491 1.841 1.968 3.094.478 1.244.716 2.727.716 4.448v1.419h-16.095v-3.119h11.659c-.008-.886-.2-1.675-.575-2.365a4.179 4.179 0 0 0-1.572-1.649c-.665-.401-1.441-.601-2.327-.601-.946 0-1.777.23-2.493.69a4.766 4.766 0 0 0-1.675 1.79 5.159 5.159 0 0 0-.601 2.416v2.723c0 1.142.209 2.123.627 2.941.417.809 1.001 1.432 1.751 1.866.75.426 1.628.639 2.634.639.673 0 1.282-.093 1.828-.281a4.063 4.063 0 0 0 1.419-.856c.4-.375.703-.84.908-1.394l4.321.486a6.737 6.737 0 0 1-1.56 2.991c-.759.844-1.73 1.5-2.915 1.969-1.185.46-2.54.691-4.065.691zm21.872-20.02v3.579h-11.607v-3.579h11.607zM209.994 278v-21.49c0-1.321.272-2.421.818-3.298a5.177 5.177 0 0 1 2.224-1.969c.929-.435 1.96-.652 3.094-.652.801 0 1.513.064 2.135.192.622.128 1.082.243 1.381.345l-.921 3.579a8.354 8.354 0 0 0-.741-.179 4.504 4.504 0 0 0-.998-.102c-.86 0-1.47.209-1.828.627-.349.409-.524.997-.524 1.764V278h-4.64zm16.592.396c-1.244 0-2.365-.221-3.362-.664a5.49 5.49 0 0 1-2.352-1.995c-.571-.878-.857-1.96-.857-3.247 0-1.108.205-2.024.614-2.749a4.748 4.748 0 0 1 1.675-1.738 8.446 8.446 0 0 1 2.39-.985c.895-.23 1.82-.396 2.774-.498a106.38 106.38 0 0 0 2.8-.32c.716-.102 1.236-.255 1.56-.46.332-.213.498-.541.498-.984v-.077c0-.963-.285-1.709-.856-2.237-.571-.529-1.394-.793-2.467-.793-1.134 0-2.033.247-2.698.742-.656.494-1.099 1.078-1.329 1.751l-4.321-.614c.34-1.193.903-2.19 1.687-2.991.784-.81 1.743-1.415 2.876-1.815 1.134-.41 2.387-.614 3.759-.614.946 0 1.888.111 2.825.332a7.947 7.947 0 0 1 2.57 1.1c.775.503 1.398 1.189 1.866 2.058.478.869.716 1.956.716 3.26V278h-4.449v-2.697h-.153a5.67 5.67 0 0 1-1.189 1.534c-.503.468-1.138.848-1.905 1.137-.758.282-1.649.422-2.672.422zm1.202-3.4c.929 0 1.734-.184 2.416-.55.682-.375 1.206-.869 1.573-1.483a3.779 3.779 0 0 0 .562-2.007v-2.314c-.145.119-.392.23-.741.332-.341.103-.725.192-1.151.269a33.5 33.5 0 0 1-1.265.204l-1.087.154a8.112 8.112 0 0 0-1.854.46c-.545.213-.976.511-1.291.895-.315.375-.473.861-.473 1.457 0 .853.311 1.496.933 1.931.622.434 1.415.652 2.378.652zm21.665 3.388c-1.96 0-3.643-.431-5.05-1.292-1.397-.86-2.476-2.049-3.234-3.566-.75-1.526-1.125-3.282-1.125-5.267 0-1.995.383-3.755 1.151-5.28.767-1.534 1.849-2.728 3.247-3.58 1.406-.861 3.068-1.291 4.985-1.291 1.594 0 3.005.294 4.232.882 1.236.58 2.22 1.402 2.953 2.467.733 1.057 1.151 2.293 1.253 3.708h-4.423c-.179-.946-.605-1.735-1.279-2.365-.665-.639-1.555-.959-2.672-.959-.946 0-1.777.256-2.493.767-.715.503-1.274 1.227-1.674 2.173-.392.946-.588 2.08-.588 3.401 0 1.338.196 2.488.588 3.452.392.954.942 1.691 1.649 2.211.716.512 1.555.767 2.518.767.682 0 1.292-.128 1.829-.383a3.684 3.684 0 0 0 1.367-1.138c.367-.494.618-1.095.755-1.803h4.423c-.111 1.39-.52 2.621-1.227 3.695-.708 1.065-1.671 1.901-2.89 2.506-1.218.596-2.65.895-4.295.895zm20.185 0c-1.969 0-3.669-.41-5.101-1.228-1.423-.826-2.518-1.994-3.285-3.503-.767-1.517-1.151-3.302-1.151-5.356 0-2.02.384-3.793 1.151-5.318.775-1.534 1.858-2.728 3.247-3.58 1.389-.861 3.021-1.291 4.896-1.291 1.211 0 2.353.196 3.426.588a7.745 7.745 0 0 1 2.864 1.79c.835.809 1.492 1.841 1.969 3.094.477 1.244.716 2.727.716 4.448v1.419h-16.095v-3.119h11.659c-.009-.886-.201-1.675-.576-2.365a4.179 4.179 0 0 0-1.572-1.649c-.665-.401-1.44-.601-2.327-.601-.946 0-1.777.23-2.493.69a4.756 4.756 0 0 0-1.674 1.79 5.147 5.147 0 0 0-.601 2.416v2.723c0 1.142.209 2.123.626 2.941.418.809 1.002 1.432 1.752 1.866.75.426 1.627.639 2.633.639.673 0 1.283-.093 1.828-.281a4.045 4.045 0 0 0 1.419-.856 3.57 3.57 0 0 0 .908-1.394l4.321.486a6.737 6.737 0 0 1-1.56 2.991c-.758.844-1.73 1.5-2.914 1.969-1.185.46-2.54.691-4.066.691zM9.375 340H2.642v-21.818h7.031c2.117 0 3.928.437 5.434 1.31 1.505.867 2.66 2.113 3.462 3.74.802 1.619 1.204 3.558 1.204 5.816 0 2.273-.405 4.23-1.215 5.87-.81 1.634-1.988 2.891-3.537 3.772-1.548.873-3.43 1.31-5.646 1.31zm-4.09-2.344h3.92c1.803 0 3.299-.348 4.485-1.044 1.186-.696 2.07-1.687 2.652-2.972.583-1.286.874-2.816.874-4.592 0-1.761-.288-3.277-.863-4.549-.575-1.278-1.435-2.258-2.578-2.94-1.144-.689-2.568-1.033-4.272-1.033H5.284v17.13zM23.263 340v-16.364h2.514V340h-2.514zm1.278-19.091c-.49 0-.913-.167-1.268-.501a1.607 1.607 0 0 1-.522-1.203c0-.469.174-.87.522-1.204a1.787 1.787 0 0 1 1.268-.501c.49 0 .91.167 1.257.501.355.334.533.735.533 1.204 0 .468-.178.87-.533 1.203a1.75 1.75 0 0 1-1.257.501zm16.832 6.392-2.259.639a4.2 4.2 0 0 0-.628-1.097c-.27-.362-.64-.66-1.108-.895-.47-.234-1.07-.351-1.8-.351-1.002 0-1.837.23-2.504.692-.66.455-.991 1.033-.991 1.737 0 .625.227 1.118.682 1.48.454.363 1.165.664 2.13.906l2.43.597c1.462.355 2.553.898 3.27 1.629.717.725 1.076 1.659 1.076 2.802 0 .938-.27 1.776-.81 2.515-.532.738-1.278 1.321-2.237 1.747-.959.426-2.074.639-3.345.639-1.67 0-3.05-.362-4.144-1.087-1.094-.724-1.787-1.782-2.078-3.174l2.387-.597c.227.881.657 1.541 1.289 1.981.639.441 1.474.661 2.503.661 1.172 0 2.103-.249 2.791-.746.697-.504 1.044-1.108 1.044-1.811 0-.568-.198-1.044-.596-1.427-.398-.391-1.009-.682-1.832-.874l-2.728-.639c-1.498-.355-2.6-.906-3.302-1.651-.696-.753-1.044-1.694-1.044-2.824 0-.923.259-1.74.777-2.45.526-.71 1.24-1.268 2.142-1.672.909-.405 1.939-.608 3.09-.608 1.618 0 2.89.355 3.813 1.066.93.71 1.591 1.647 1.982 2.812zm3.483 18.835v-22.5h2.429v2.6h.298c.184-.284.44-.647.767-1.087.334-.447.81-.845 1.428-1.193.624-.355 1.47-.533 2.535-.533 1.378 0 2.592.345 3.644 1.034 1.05.689 1.87 1.665 2.46 2.929.59 1.265.885 2.756.885 4.475 0 1.733-.295 3.235-.885 4.506-.59 1.264-1.406 2.245-2.45 2.941-1.044.688-2.248 1.033-3.611 1.033-1.051 0-1.893-.174-2.525-.522-.632-.355-1.119-.757-1.46-1.204a16.05 16.05 0 0 1-.788-1.129h-.213v8.65h-2.514zm2.471-14.318c0 1.236.181 2.326.543 3.271.363.937.892 1.672 1.588 2.205.696.526 1.548.788 2.557.788 1.05 0 1.928-.277 2.631-.831.71-.561 1.243-1.314 1.598-2.258.362-.952.543-2.01.543-3.175 0-1.15-.177-2.187-.532-3.111-.348-.93-.877-1.665-1.588-2.205-.703-.547-1.587-.82-2.652-.82-1.023 0-1.882.259-2.578.778-.697.511-1.222 1.228-1.577 2.152-.355.916-.533 1.985-.533 3.206zm17.724-13.636V340h-2.514v-21.818h2.514zm8.82 22.202c-1.037 0-1.978-.196-2.823-.586a4.846 4.846 0 0 1-2.013-1.716c-.498-.752-.746-1.662-.746-2.727 0-.937.185-1.697.554-2.28a3.916 3.916 0 0 1 1.48-1.385 7.796 7.796 0 0 1 2.046-.745c.753-.171 1.51-.306 2.27-.405.994-.128 1.8-.224 2.418-.288.625-.071 1.08-.188 1.363-.351.291-.164.437-.448.437-.853v-.085c0-1.051-.288-1.868-.863-2.45-.568-.583-1.43-.874-2.589-.874-1.2 0-2.14.263-2.823.789-.681.525-1.16 1.086-1.438 1.683l-2.386-.852c.426-.995.994-1.769 1.704-2.323a6.388 6.388 0 0 1 2.344-1.172 9.743 9.743 0 0 1 2.514-.341c.526 0 1.13.064 1.811.192a5.811 5.811 0 0 1 1.992.756c.647.384 1.183.963 1.61 1.737.425.774.638 1.811.638 3.111V340h-2.514v-2.216h-.128c-.17.355-.454.735-.852 1.14-.398.405-.927.749-1.587 1.033-.66.284-1.467.427-2.419.427zm.384-2.259c.994 0 1.832-.195 2.514-.586.689-.391 1.208-.895 1.556-1.513a3.853 3.853 0 0 0 .532-1.949v-2.301c-.106.127-.34.245-.703.351-.355.1-.767.188-1.236.266-.461.071-.912.135-1.353.192-.433.05-.785.093-1.055.128a9.567 9.567 0 0 0-1.832.416c-.56.184-1.016.465-1.364.841-.34.369-.51.874-.51 1.513 0 .874.322 1.534.969 1.981.653.441 1.48.661 2.482.661zm12.139 8.011a5.51 5.51 0 0 1-1.14-.106c-.334-.064-.565-.128-.693-.192l.64-2.216c.61.156 1.15.213 1.619.171.469-.043.884-.253 1.246-.629.37-.369.707-.969 1.012-1.8l.47-1.279-6.052-16.449h2.727l4.517 13.04h.17l4.518-13.04h2.727l-6.946 18.75c-.313.846-.7 1.545-1.161 2.099a4.356 4.356 0 0 1-1.609 1.247c-.604.269-1.285.404-2.045.404zm29.434-22.5v2.131h-8.481v-2.131h8.481zm-6.009-3.92h2.514v15.596c0 .711.103 1.243.309 1.599.213.348.483.582.81.703.334.113.685.17 1.055.17.277 0 .504-.014.681-.043a46.2 46.2 0 0 0 .426-.085l.512 2.259a5.153 5.153 0 0 1-.714.192c-.305.071-.692.106-1.161.106-.71 0-1.406-.153-2.088-.458a4.14 4.14 0 0 1-1.683-1.396c-.441-.625-.661-1.413-.661-2.365v-16.278zm10.81 26.42c-.426 0-.806-.035-1.14-.106-.334-.064-.565-.128-.693-.192l.64-2.216c.61.156 1.15.213 1.619.171.469-.043.884-.253 1.246-.629.37-.369.707-.969 1.012-1.8l.469-1.279-6.051-16.449h2.727l4.517 13.04h.171l4.517-13.04h2.727l-6.946 18.75c-.312.846-.699 1.545-1.161 2.099a4.357 4.357 0 0 1-1.609 1.247c-.603.269-1.285.404-2.045.404zm14.48 0v-22.5h2.429v2.6h.298c.185-.284.44-.647.767-1.087.334-.447.81-.845 1.428-1.193.625-.355 1.47-.533 2.535-.533 1.378 0 2.592.345 3.644 1.034 1.051.689 1.871 1.665 2.461 2.929.589 1.265.884 2.756.884 4.475 0 1.733-.295 3.235-.884 4.506-.59 1.264-1.407 2.245-2.451 2.941-1.044.688-2.248 1.033-3.611 1.033-1.051 0-1.893-.174-2.525-.522-.632-.355-1.119-.757-1.46-1.204a16.132 16.132 0 0 1-.788-1.129h-.213v8.65h-2.514zm2.471-14.318c0 1.236.181 2.326.544 3.271.362.937.891 1.672 1.587 2.205.696.526 1.548.788 2.557.788 1.051 0 1.928-.277 2.631-.831.71-.561 1.243-1.314 1.598-2.258.362-.952.544-2.01.544-3.175 0-1.15-.178-2.187-.533-3.111-.348-.93-.877-1.665-1.587-2.205-.704-.547-1.588-.82-2.653-.82-1.023 0-1.882.259-2.578.778-.696.511-1.222 1.228-1.577 2.152-.355.916-.533 1.985-.533 3.206zm22.071 8.523c-1.577 0-2.937-.348-4.08-1.044-1.137-.703-2.014-1.683-2.632-2.94-.611-1.265-.916-2.735-.916-4.411 0-1.676.305-3.153.916-4.432.618-1.285 1.477-2.287 2.578-3.004 1.108-.724 2.401-1.087 3.878-1.087.852 0 1.694.142 2.525.426a6.272 6.272 0 0 1 2.269 1.385c.682.632 1.225 1.471 1.63 2.515.405 1.044.607 2.329.607 3.856v1.065h-12.613v-2.173h10.057c0-.923-.185-1.747-.554-2.471a4.178 4.178 0 0 0-1.556-1.716c-.667-.419-1.456-.628-2.365-.628-1.001 0-1.868.248-2.599.746a4.905 4.905 0 0 0-1.673 1.917 5.633 5.633 0 0 0-.586 2.536v1.449c0 1.235.213 2.283.639 3.142.434.853 1.034 1.502 1.801 1.95.767.44 1.658.66 2.674.66.66 0 1.257-.092 1.79-.277a3.811 3.811 0 0 0 1.395-.852c.391-.383.693-.859.906-1.427l2.429.681a5.399 5.399 0 0 1-1.289 2.174c-.604.618-1.35 1.101-2.238 1.449-.887.34-1.885.511-2.993.511zm17.287-16.705v2.131h-8.821v-2.131h8.821zM170.76 340v-18.622c0-.938.22-1.719.66-2.344a4.09 4.09 0 0 1 1.716-1.406 5.412 5.412 0 0 1 2.226-.469c.618 0 1.122.05 1.513.149.391.1.682.192.874.277l-.725 2.174a11.727 11.727 0 0 0-.533-.16c-.22-.064-.511-.096-.873-.096-.831 0-1.431.209-1.801.628-.362.419-.543 1.034-.543 1.843V340h-2.514zm13.449.384c-1.037 0-1.978-.196-2.823-.586a4.854 4.854 0 0 1-2.014-1.716c-.497-.752-.745-1.662-.745-2.727 0-.937.184-1.697.554-2.28a3.918 3.918 0 0 1 1.48-1.385 7.8 7.8 0 0 1 2.046-.745 24.57 24.57 0 0 1 2.269-.405c.994-.128 1.801-.224 2.418-.288.625-.071 1.08-.188 1.364-.351.291-.164.437-.448.437-.853v-.085c0-1.051-.288-1.868-.863-2.45-.568-.583-1.431-.874-2.589-.874-1.2 0-2.141.263-2.823.789-.682.525-1.161 1.086-1.438 1.683l-2.387-.852c.427-.995.995-1.769 1.705-2.323a6.387 6.387 0 0 1 2.344-1.172 9.739 9.739 0 0 1 2.514-.341c.525 0 1.129.064 1.811.192a5.808 5.808 0 0 1 1.992.756c.646.384 1.183.963 1.609 1.737.426.774.639 1.811.639 3.111V340h-2.514v-2.216h-.128c-.17.355-.455.735-.852 1.14-.398.405-.927.749-1.588 1.033-.66.284-1.466.427-2.418.427zm.384-2.259c.994 0 1.832-.195 2.514-.586.689-.391 1.207-.895 1.555-1.513a3.854 3.854 0 0 0 .533-1.949v-2.301c-.107.127-.341.245-.703.351-.355.1-.767.188-1.236.266a57.79 57.79 0 0 1-1.353.192c-.433.05-.785.093-1.055.128a9.57 9.57 0 0 0-1.832.416c-.561.184-1.016.465-1.364.841-.341.369-.511.874-.511 1.513 0 .874.323 1.534.969 1.981.654.441 1.481.661 2.483.661zm17.753 2.216c-1.534 0-2.855-.362-3.963-1.087-1.108-.724-1.961-1.722-2.557-2.993-.597-1.272-.895-2.724-.895-4.358 0-1.662.305-3.128.916-4.399.618-1.279 1.477-2.277 2.578-2.994 1.108-.724 2.401-1.087 3.878-1.087 1.151 0 2.188.213 3.111.639a5.964 5.964 0 0 1 2.269 1.79c.59.767.955 1.662 1.097 2.685h-2.514c-.192-.746-.618-1.406-1.278-1.982-.654-.582-1.534-.873-2.642-.873-.98 0-1.84.255-2.578.767-.732.504-1.304 1.218-1.716 2.141-.404.916-.607 1.992-.607 3.228 0 1.264.199 2.365.597 3.303.405.937.973 1.665 1.704 2.184.739.518 1.605.777 2.6.777.653 0 1.246-.113 1.779-.341a3.652 3.652 0 0 0 1.353-.98c.369-.426.632-.937.788-1.534h2.514a5.822 5.822 0 0 1-1.054 2.61c-.554.767-1.289 1.378-2.206 1.833-.909.447-1.967.671-3.174.671zm16.371 0c-1.577 0-2.937-.348-4.081-1.044-1.136-.703-2.013-1.683-2.631-2.94-.611-1.265-.916-2.735-.916-4.411 0-1.676.305-3.153.916-4.432.618-1.285 1.477-2.287 2.578-3.004 1.108-.724 2.401-1.087 3.878-1.087.852 0 1.694.142 2.525.426a6.272 6.272 0 0 1 2.269 1.385c.682.632 1.225 1.471 1.63 2.515.405 1.044.607 2.329.607 3.856v1.065h-12.613v-2.173h10.056c0-.923-.184-1.747-.554-2.471a4.169 4.169 0 0 0-1.555-1.716c-.668-.419-1.456-.628-2.365-.628-1.001 0-1.868.248-2.599.746a4.905 4.905 0 0 0-1.673 1.917 5.633 5.633 0 0 0-.586 2.536v1.449c0 1.235.213 2.283.639 3.142.433.853 1.034 1.502 1.801 1.95.767.44 1.658.66 2.674.66.66 0 1.257-.092 1.789-.277a3.815 3.815 0 0 0 1.396-.852c.391-.383.692-.859.906-1.427l2.429.681a5.39 5.39 0 0 1-1.29 2.174c-.603.618-1.349 1.101-2.237 1.449-.888.34-1.885.511-2.993.511z" fill="#202020"/>
</svg>
