<svg width="363" height="341" viewBox="0 0 363 341" fill="none" xmlns="http://www.w3.org/2000/svg">
    <path d="M192.519 7.038h-9.384V0h9.384v7.038zM192.289 33.442h-8.878v-23h8.878v23z" fill="#202020"/>
    <path fill-rule="evenodd" clip-rule="evenodd" d="M151.943 28.934c-2.484 3.404-6.67 5.382-12.282 5.382-8.464 0-14.444-5.06-14.444-12.512 0-7.268 5.98-12.236 14.812-12.236 5.244 0 8.97 1.426 11.684 4.278V.092h8.878v33.35h-8.648v-4.508zm-17.48-7.084c0 4.14 3.312 6.762 8.556 6.762 5.152 0 8.878-2.622 8.878-6.44v-.552c0-3.818-3.726-6.44-9.062-6.44-5.198 0-8.372 2.576-8.372 6.67z" fill="#202020"/>
    <path d="M38.12.782h9.338v32.66H38.12V20.148H18.524v13.294H9.232V.782h9.292v12.88H38.12V.782z" fill="#202020"/>
    <path fill-rule="evenodd" clip-rule="evenodd" d="M68.924 9.568c10.856 0 17.112 4.876 17.112 13.018v1.288H60.414c.69 3.082 3.91 4.876 9.108 4.876 3.818 0 7.13-1.288 8.832-3.404l6.808 2.944c-3.22 3.864-8.602 6.026-16.008 6.026-10.81 0-17.296-4.554-17.296-12.282 0-7.866 6.716-12.466 17.066-12.466zm-.046 4.784c-4.876 0-7.958 1.932-8.51 4.922h16.836c-.092-2.898-3.496-4.922-8.326-4.922zM100.24 34.316c6.348 0 10.81-1.84 12.604-5.106 0 1.38.138 3.128.322 4.232h8.878c-.276-1.84-.414-3.956-.414-7.176v-6.302c0-6.854-4.738-10.396-15.502-10.396-9.292 0-15.824 3.404-16.744 8.74h9.476c.506-2.3 3.128-3.634 7.268-3.634 4.048 0 6.532 1.334 6.532 3.864v.552l-11.96.69c-4.784.276-7.268.966-9.016 2.024C89.752 23 88.74 24.84 88.74 27.048c0 4.692 4.186 7.268 11.5 7.268zm3.358-4.968c-3.634 0-5.658-.966-5.658-2.852 0-1.794 1.426-2.622 5.612-2.944l9.2-.644v.782c0 3.45-3.726 5.658-9.154 5.658z" fill="#202020"/>
    <path d="M176.548.092h-8.878v33.35h8.878V.092zM198.932 33.442h8.878v-9.476c0-5.152 3.082-8.05 8.464-8.05 5.152 0 7.59 2.622 7.59 7.958v9.568h8.878V22.54c0-8.51-4.508-12.972-12.88-12.972-5.796 0-10.074 2.162-12.236 6.21v-5.336h-8.694v23z" fill="#202020"/>
    <path fill-rule="evenodd" clip-rule="evenodd" d="M253.334 9.568c10.856 0 17.112 4.876 17.112 13.018v1.288h-25.622c.69 3.082 3.91 4.876 9.108 4.876 3.818 0 7.13-1.288 8.832-3.404l6.808 2.944c-3.22 3.864-8.602 6.026-16.008 6.026-10.81 0-17.296-4.554-17.296-12.282 0-7.866 6.716-12.466 17.066-12.466zm-.046 4.784c-4.876 0-7.958 1.932-8.51 4.922h16.836c-.092-2.898-3.496-4.922-8.326-4.922z" fill="#202020"/>
    <path d="M299.12 33.442h9.016V1.472h-7.774c-1.471 3.634-4.968 5.75-9.844 5.75h-1.288v7.452h2.254c3.22 0 6.118-.874 7.636-2.576v21.344z" fill="#202020"/>
    <path fill-rule="evenodd" clip-rule="evenodd" d="M31.351 131.77c.576.216 1.152.144 1.656-.072.144-.072.288-.144.216-.216-.066-.233-.04-.465-.015-.698.03-.271.06-.543-.057-.814-.036-.144-.036-.306-.036-.468 0-.162 0-.324-.036-.468-.018-.237-.032-.479-.045-.722-.04-.716-.081-1.441-.243-2.086-.024-.173-.04-.354-.057-.538-.032-.353-.064-.715-.159-1.046-.216-.576-.432-1.152-.216-1.8-.168-.463-.164-.925-.16-1.373.002-.319.004-.632-.056-.931-.145-.483-.16-.965-.176-1.47a12.851 12.851 0 0 0-.04-.762v-3.528c0-.504 0-1.008-.144-1.512-.036-.252.036-.504.108-.756.072-.252.144-.504.108-.756 0-.288 0-.576-.144-.864-.144-.36-.144-.72-.072-1.08.24-.48.23-.96.22-1.44a13.828 13.828 0 0 1-.004-.288c.036-.36.036-.72.036-1.08 0-.36 0-.72.036-1.08.24-1.44.23-2.88.22-4.32a124.42 124.42 0 0 1-.004-.864c0-.864 0-1.8.144-2.808a19.64 19.64 0 0 0 .216-2.952c0-.158-.003-.316-.005-.474-.012-.637-.024-1.282.15-1.974.086-.432.094-.864.103-1.296.006-.288.011-.576.04-.864 0-.226-.04-.452-.077-.668a3.374 3.374 0 0 1-.067-.556c0-.262.106-.497.221-.754.075-.167.154-.343.211-.542.023-.18.053-.369.083-.56.065-.416.133-.845.133-1.24 0-.214.014-.432.027-.652.04-.67.082-1.362-.243-2.012-.288-.648-.072-1.152.144-1.656a.66.66 0 0 1 .207-.22c.031-.025.06-.046.081-.068.216-.432.36-.792.36-1.296-.072-.576 0-1.08.144-1.656.144-.912.224-1.824.304-2.736.04-.456.08-.912.128-1.368 0-.216 0-.504.072-.792.216-.36 0-.576-.216-.792l-1.8-1.8c-.432-.432-.936-.792-1.44-1.152-.36-.216-.72-.432-1.08-.72-.144-.144-.432-.072-.504.072-.089.165-.18.33-.272.497-.429.776-.871 1.578-1.168 2.527l-.216.432c-.329.777-.645 1.555-.96 2.328-.442 1.087-.88 2.163-1.344 3.216-.724 1.396-1.336 2.755-1.944 4.104-.239.529-.476 1.056-.72 1.584-.649 1.448-1.437 2.931-2.243 4.449l-.001.002-.001.002c-.356.67-.715 1.345-1.067 2.027a33.652 33.652 0 0 0-1.656 3.672c-.503 1.385-1.172 2.715-1.862 4.086l-.298.594-.432.864c-.243.54-.527 1.101-.809 1.659-.47.929-.937 1.851-1.207 2.661-.389 1.131-.882 2.072-1.36 2.983-.495.945-.974 1.858-1.304 2.921-.144.36-.504.576-.936.432-.36-.072-.72-.144-1.08-.144-1.152 0-2.304 0-3.528-.216-.32-.049-.631-.124-.94-.198-.595-.142-1.18-.282-1.796-.234-.105 0-.21-.039-.344-.088a4.708 4.708 0 0 0-.16-.056c-.128-.032-.257-.093-.392-.157a2.315 2.315 0 0 0-.544-.203.546.546 0 0 0-.288.144c-.072 0-.072.144 0 .216.216.72.864 1.296 1.512 1.656.212.117.423.237.635.356 1.088.615 2.192 1.238 3.397 1.66.864.216 1.728.432 2.736.72l-1.512 3.96-3.024 6.768c-.504 1.08-.216 1.872.792 2.448 1.066.627 2.187.981 3.647 1.442l.673.214c.072 0 .144 0 .216.072.216 0 .432 0 .648-.216.072-.072-.036-.162-.144-.252-.108-.09-.216-.18-.144-.252.115-.253.23-.498.342-.738.24-.513.47-1.004.666-1.494.216-.504.432-1.008.504-1.512 0-.27.122-.54.243-.81.04-.09.081-.18.117-.27.39-.065.487-.365.608-.74l.04-.124 1.368-3.312c.072-.144.072-.36 0-.576-.072-.144 0-.288.144-.432.648-.648 1.008-1.44 1.296-2.304l.432-1.08a.486.486 0 0 1 .432-.288h.792c.386 0 .786.004 1.197.007h.002c2.12.021 4.515.043 6.505-.439.199-.05.397-.031.571-.015.08.008.154.015.221.015.288 0 .504.144.504.432v2.592c0 .792 0 1.512.072 2.16.096.576.135 1.152.174 1.728.05.72.098 1.44.258 2.16.072.396.108.792.144 1.188.036.396.072.792.144 1.188.144 1.008.288 2.16.36 3.24.216 1.224.648 2.088 1.872 2.52.648.216 1.512.504 2.16.792zM17.96 109.882c-.216.072-.36-.144-.216-.36.036-.108.09-.198.144-.288.054-.09.108-.18.144-.288.107-.961.53-1.764.948-2.554.145-.276.29-.551.42-.83l.084-.131c.625-.97 1.297-2.013 1.572-3.253l.216-.432c.576-.767.924-1.648 1.297-2.592l.143-.36c.203-.527.565-1.03.92-1.525.276-.383.547-.761.736-1.14.072-.143.144-.36.072-.575-.072-.144 0-.216.072-.288.648-.504.864-1.152.864-1.872 0-.432.072-.72.432-.864.432-.288.648-.72.864-1.224l.041-.084.02-.04c.128-.266.287-.594.66-1.028-.029.34-.035.645-.04.931-.01.442-.017.835-.105 1.229-.086.474-.095.975-.103 1.47-.006.331-.012.66-.04.978 0 .576 0 1.152-.217 1.728-.036.252-.036.504-.036.774s0 .558-.036.882c0 .432 0 .864-.144 1.368-.072.144-.072.36-.072.576v2.952c-.02.188-.03.382-.038.581-.022.485-.045.996-.25 1.507-.049.146-.031.326-.015.494.008.079.015.156.015.226 0 .432 0 .936-.072 1.368 0 .113.015.242.03.375.044.373.091.781-.174.993-.36.216-.792.288-1.296.36-.683.109-1.45.219-2.245.332h-.004l-.001.001c-1.296.184-2.666.38-3.87.603h-.72zM47.846 127.738c.504 0 1.08-.072 1.512-.288.446-.209.905-.392 1.366-.577.654-.262 1.312-.526 1.946-.863 1.189-.626 2.27-1.524 3.336-2.411.16-.133.32-.266.48-.397.792-.648 1.584-1.296 2.16-2.16a.86.86 0 0 0 .067-.081.655.655 0 0 1 .22-.207c.42-.28.773-.697 1.057-1.117.714 2.243 2.03 4.053 4.106 5.221 1.368.792 2.88 1.44 4.392 2.088 1.512.72 2.52.936 4.248.792.504 0 1.08-.072 1.512-.288.447-.209.905-.392 1.366-.577h.001c.654-.262 1.312-.526 1.945-.863 1.19-.626 2.27-1.524 3.337-2.411.16-.133.32-.266.48-.397.791-.648 1.583-1.296 2.16-2.16a.875.875 0 0 0 .066-.081.653.653 0 0 1 .221-.207c.31-.207.583-.488.82-.79.071.407.175.814.31 1.222.157.416.388.795.613 1.163v.001c.087.141.172.28.252.42a5.805 5.805 0 0 0 2.448 2.304c1.043.579 2.18 1.112 3.297 1.636l.807.38c.53.265 1.14.413 1.74.559.214.052.427.104.636.161.576.072 1.224.144 1.8-.072 1.08-.288 2.16-.72 3.024-1.44 1.584-1.224 2.952-2.592 4.392-4.032.144-.072.288-.216.288-.36 0-.388.127-.647.35-.845l-.11.458a49.972 49.972 0 0 0-.539 2.403c-.288 1.152-.072 1.728.864 2.448l.648.432 3.024 1.512c.03 0 .072.012.121.027.07.02.155.045.239.045.216.072.36.072.504-.144l.504-.864c.108-.288.234-.576.36-.864.126-.288.252-.576.36-.864a40.562 40.562 0 0 1 2.376-5.472l.432-.864a1.068 1.068 0 0 0 0-.936c-.144-.144-.072-.36.144-.36.432 0 .72-.216.936-.576l.864-1.512c.432-.912.992-1.76 1.552-2.608.28-.424.56-.848.824-1.28a59.83 59.83 0 0 1 1.524-2.325l.001-.001c.342-.505.68-1.003.995-1.49.025-.034.051-.068.078-.101.199-.257.409-.526.282-.907.288-.216.576-.432.72-.792.108-.216.288-.396.468-.576.18-.18.36-.36.468-.576.207-.466.525-.857.848-1.254.127-.156.254-.312.376-.474l2.376-3.168c.288-.432.576-.792.936-1.152.072-.144.216-.36.432-.36.072.432-.144.792-.36 1.152-.254.407-.437.85-.624 1.304-.077.188-.156.378-.24.568l-.163.36-.062.137c-.57 1.26-1.121 2.478-1.503 3.751-.099.23-.167.445-.233.652-.079.246-.154.481-.271.716-.432.792-.648 1.584-.864 2.376l-.01.031-.007.022a1.57 1.57 0 0 0-.02.064l-.035.115c-.048.16-.096.32-.144.416-.346.518-.507 1.037-.668 1.555-.04.13-.081.259-.124.389a104.096 104.096 0 0 0-1.44 4.392 17.496 17.496 0 0 0-.576 3.384c-.086.734-.095 1.493-.104 2.248a30.642 30.642 0 0 1-.04 1.496c0 .36.144.648.288.936.288.504.576.936 1.08 1.224l.504.297c1.074.636 2.202 1.303 3.384 1.863.936.36 1.944.432 2.88-.144l.072-.072c.896-.422 1.637-1.113 2.366-1.792v-.001c.267-.249.532-.496.802-.727.377-.269.673-.578.979-.898.103-.108.208-.217.317-.326a37.635 37.635 0 0 1 1.656-1.8c.504-.576 1.008-1.152 1.512-1.8.048-.072.088-.144.128-.216.08-.144.16-.288.304-.432.27-.245.523-.516.765-.803 0 .232.002.463.004.695.002.252.004.504.004.756 0 .144 0 .288.072.36.142 1.21.707 2.421 1.207 3.492l.017.036c.72 1.44 1.872 2.448 3.456 2.808 1.08.216 2.088.504 3.168.864.936.288 1.872.072 2.664-.432.308-.185.551-.423.789-.657.319-.313.63-.619 1.083-.783.072 0 .072-.072.072-.072.139-.371.428-.623.712-.87.156-.137.312-.273.44-.426.72-.864 1.296-1.728 1.944-2.736l.204-.285c.65-.903 1.277-1.775 1.668-2.883l.154-.345c.297-.674.588-1.333 1.142-1.887.1-.05.166-.136.22-.207a.874.874 0 0 1 .068-.081l1.656-3.096a49.907 49.907 0 0 1 1.944-3.312 36.844 36.844 0 0 0 1.584-2.88c.288-.504.144-.72-.432-.864l-.288-.216c-.576.072-.864-.144-1.224-.504l-.146-.126c-.419-.363-.711-.616-1.294-.81a.818.818 0 0 0-.576-.216 5.065 5.065 0 0 0-.27-.045c-.27-.041-.54-.081-.81-.243-.072 0-.288.072-.36.144-.072 0-.144.144-.216.288l-1.728 2.952c-.504.72-1.008 1.44-1.224 2.304-.108.108-.18.252-.252.396-.072.144-.144.288-.252.396-.185.288-.37.564-.552.835l-.001.001c-.454.678-.887 1.324-1.247 2.044-.72 1.224-1.44 2.52-2.16 3.816-.069.11-.144.226-.221.346l-.001.001c-.324.506-.698 1.087-.93 1.669-.036.036-.072.108-.108.18-.036.072-.072.144-.108.18-.444.296-.719.659-1.01 1.043-.134.177-.271.359-.43.541-.504.792-1.224 1.512-1.944 2.088-.036.036-.09.054-.144.072a.362.362 0 0 0-.144.072 3.884 3.884 0 0 1-.216-1.8l.216-3.24c-.072-.504 0-.936.072-1.368l.031-.185c.134-.812.277-1.677.545-2.479.205-.682.28-1.365.349-1.986l.011-.102c.049-.221.081-.45.114-.682.063-.448.128-.907.318-1.334.104-.375.214-.755.325-1.138l.004-.016.001-.002c.271-.937.546-1.889.75-2.804 0-.171.045-.297.099-.449l.045-.127c.288-.504.432-1.008.504-1.584 0-.216 0-.36.072-.576.288-.72.504-1.44.576-2.232l.025-.1.019-.072c.055-.206.1-.377.1-.548.074-.345.181-.681.288-1.014.205-.642.407-1.275.36-1.938 0-.216.072-.432.144-.648l.72-1.944.36-1.152.432-1.368c.216-.504.504-1.512.576-1.944 0-.367.087-.558.188-.779.058-.126.12-.262.172-.445.072-.216.216-.432.504-.432l.4.003c.805.008 1.626.017 2.552-.291.098.049.23.03.35.015.055-.008.108-.015.154-.015.504-.144 1.08-.288 1.584-.216 1.152.144 2.232-.144 3.312-.576.057-.039.115-.082.174-.127.162-.122.335-.252.546-.305.216-.216.36-.504.36-.792a.756.756 0 0 0-.36-.648c-.284-.378-.66-.663-1.049-.957-.203-.154-.409-.31-.607-.483-.648-.504-1.368-.864-2.088-1.224-.432-.144-.72-.216-1.08.072-.72.36-1.44.72-2.16 1.008-.216.072-.432.072-.72.072-.144 0-.288-.216-.288-.36.288-.648.36-1.296.432-1.944.072-.144.144-.288.144-.432.474-.949.601-1.704.748-2.578.054-.32.111-.656.188-1.022.075-.449.091-.47.12-.508.027-.035.064-.085.168-.5.103-.379.173-.757.242-1.128.076-.405.149-.8.262-1.176 0-.288-.072-.504-.216-.72a3.734 3.734 0 0 1-.225-.189c-.221-.194-.462-.406-.783-.46-.432-.647-1.152-.935-1.872-1.223-.192-.048-.32-.16-.448-.272a1.947 1.947 0 0 0-.2-.16 5.565 5.565 0 0 1-.278-.252c-.3-.283-.573-.54-1.018-.54-.22.33-.314.703-.411 1.085a9.78 9.78 0 0 1-.093.355v.36c-.216.792-.36 1.512-.504 2.232l-.36 1.008-.135.396c-.238.697-.452 1.323-.513 2.052-.248.672-.374 1.256-.497 1.831-.129.596-.255 1.181-.511 1.84-.149.3-.23.633-.313.976-.037.154-.075.31-.119.465l-.36 1.008c-.072.288-.288.432-.576.432-.731.133-1.524.204-2.265.271l-.183.017c-.453 0-.658.029-.839.054-.222.032-.406.057-.961.018a8.771 8.771 0 0 0-.972-.108 8.771 8.771 0 0 1-.972-.108c-.36 0-.792.072-1.152.216-.216.072-.216.288-.216.432.021.064.036.122.051.178.034.13.064.246.165.398.171.137.342.29.505.436.181.161.352.314.503.428.328.202.586.369.822.522.438.282.802.519 1.41.846.432.216.864.288 1.296.288.526 0 .643.022.81.055.131.026.292.057.702.089.288 0 .432.216.288.504-.335.718-.607 1.66-.857 2.528l-.001.001v.002c-.126.436-.246.852-.366 1.213a163.24 163.24 0 0 1-.52 1.872c-.352 1.248-.704 2.496-.992 3.744-.043.142-.088.281-.133.419l-.001.002v.001c-.182.559-.356 1.089-.298 1.666a.546.546 0 0 1-.144.288 8.148 8.148 0 0 0-.261.767c-.143.049-.252.194-.44.457a14.71 14.71 0 0 0-.389.676c-.209.38-.422.766-.691 1.124-.691.998-1.32 2.057-1.954 3.123-.555.934-1.113 1.873-1.718 2.781-.324.471-.635.965-.95 1.465v.001l-.001.001c-.454.721-.915 1.452-1.425 2.133-.432.504-.792.936-1.008 1.584-.072.144-.144.216-.288.36-.216.144-.36.288-.576.504l-1.944 2.16-1.44 1.584c-.432.504-.864 1.008-1.44 1.296-.048.048-.096.032-.144.016-.024-.008-.048-.016-.072-.016l-.072-.072c0-.468.112-.897.229-1.344.045-.172.091-.348.131-.528l.061-.203.062-.2c.172-.566.336-1.102.453-1.685.055-.382.192-.764.318-1.114.04-.112.079-.221.114-.326.216-.36.36-.648.504-1.008.216-.72.432-1.44.72-2.088a49.87 49.87 0 0 0 .728-1.87c.273-.734.544-1.459.856-2.162.202-.439.373-.909.542-1.374.192-.527.381-1.047.61-1.506.117-.253.228-.512.34-.771.302-.7.608-1.407 1.028-2.037.158-.238.273-.497.392-.766.098-.22.198-.447.328-.674.072-.216.216-.504.36-.792.36-.576.648-1.224.864-1.872.144-.432.288-.864.576-1.224.72-1.08 1.296-2.232 1.584-3.528.069-.23.16-.46.252-.692.196-.495.396-1.001.396-1.54 0-.072.144-.216.216-.288.288-.432.288-.936.288-1.44 0-.36-.144-.576-.288-.792-1.296-1.296-2.664-2.52-4.032-3.744-.504-.504-1.008-.504-1.512 0-.526.473-1.089.869-1.664 1.273-.212.149-.426.3-.64.455a15.64 15.64 0 0 0-2.088 1.728c-.056.056-.113.115-.171.176-.236.248-.49.514-.837.688a1.84 1.84 0 0 0-.365.35l-.024.028-.032.036-.015.017-.015.016a52.788 52.788 0 0 1-1.101 1.13c-.818.824-1.63 1.641-2.336 2.599-.196.245-.409.49-.625.739-.417.48-.843.97-1.175 1.493-.447.69-.94 1.313-1.44 1.944a33.4 33.4 0 0 0-1.152 1.512c-.058.057-.092.115-.127.173-.052.086-.103.172-.233.259-.072-.432-.072-.936.072-1.368.36-1.008.648-2.088.936-3.168l.218-.945c.4-1.719.532-2.289.718-4.455.025-.076.042-.161.059-.25.031-.16.064-.33.157-.47.163-.381.203-.803.244-1.235.013-.14.026-.28.044-.421 0-.288-.072-.576-.288-.792-.333-.292-.618-.631-.896-.963-.203-.242-.404-.48-.616-.693-.216-.288-.432-.504-.648-.72-.288-.216-.576-.432-1.008-.432-.216 0-.432-.072-.504-.288-.12-.18-.24-.11-.36-.04-.024.014-.048.028-.072.04-.144.144-.288.288-.288.504-.216.864-.36 1.728-.504 2.592-.144.648-.27 1.296-.396 1.944a74.311 74.311 0 0 1-.396 1.944c-.077.257-.145.524-.214.793-.123.484-.249.976-.434 1.439-.216.864-.504 1.728-.792 2.592l-1.08 3.6a66.445 66.445 0 0 1-1.277 3.836c-.223.325-.454.673-.687 1.024-.427.642-.86 1.295-1.265 1.836l-.514.683c-.65.863-1.247 1.655-1.934 2.629-.288.504-.576.936-.936 1.296-.432.432-.709.864-.985 1.296-.185.288-.369.576-.599.864-.432.528-.864.992-1.296 1.456-.216.232-.432.464-.648.704-.201.251-.385.502-.566.75-.338.463-.668.916-1.09 1.338a34.775 34.775 0 0 1-2.304 2.304c-.792.648-1.512 1.296-2.16 2.016-.09.067-.172.134-.251.198a2.967 2.967 0 0 1-.541.378l-1.08.648-.246.124c-.479.244-.928.473-1.482.596-1.296.36-1.512.216-1.656-1.08-.048-.528-.032-1.056-.016-1.584.008-.264.016-.528.016-.792v-1.296c-.056-.673.062-1.303.185-1.956.035-.186.07-.373.103-.564.216-.792.36-1.584.432-2.304 0-.792.144-1.584.36-2.304.128-.256.18-.538.231-.815.025-.133.05-.265.082-.392.282-.467.59-.918.91-1.356l.073.043c.09.054.18.108.288.144 1.152.648 2.304 1.296 3.528 1.8.288.072.504.072.72-.072.105-.079.21-.156.315-.232.467-.339.916-.666 1.269-1.136a.65.65 0 0 1 .432-.432c.455-.253.804-.648 1.145-1.036.145-.164.289-.326.439-.476.432-.48.8-.96 1.168-1.44.184-.24.368-.48.56-.72.073-.092.157-.185.242-.279.248-.275.515-.57.622-.945.12-.241.342-.533.538-.791l.05-.066.06-.079c.258-.31.442-.657.631-1.014.075-.141.151-.283.233-.426.36-.864.72-1.728 1.224-2.448.337-.506.501-1.085.666-1.666.117-.413.234-.826.414-1.214.02-.298.067-.595.114-.894.125-.786.251-1.583-.114-2.418v-.216c0-1.008-.432-1.728-1.224-2.376-.742-.567-1.456-1.187-2.177-1.811l-.002-.002a72.269 72.269 0 0 0-1.421-1.211l-.303-.23c-.458-.352-.893-.686-1.425-.922-1.008-.36-2.016-.576-3.024-.144-1.036.426-1.814 1.162-2.597 1.902v.001c-.142.134-.284.268-.427.4l-.144.217a54.569 54.569 0 0 1-1.8 2.52 3.65 3.65 0 0 1-.117.162c-.122.162-.243.324-.243.486 0 .447-.227.724-.48 1.033l-.096.119c-.216.216-.36.432-.504.72-.281.663-.589 1.327-.898 1.993-.564 1.215-1.132 2.44-1.55 3.695-.085.223-.172.446-.259.67-.5 1.291-1.008 2.598-1.253 4.01 0 .144-.072.36-.144.504-.344.688-.552 1.468-.73 2.23-.891 1.259-1.76 2.54-2.56 3.89l-3.457 4.248c-.36.648-.72 1.224-1.44 1.512-.096.048-.192.16-.288.272a2.886 2.886 0 0 1-.144.16l-1.656 1.656c-1.728 1.584-3.528 3.024-5.688 3.96l-.331.139c-.74.311-1.446.609-2.26.797-.673.168-.953.162-1.45.15a22.478 22.478 0 0 0-.495-.006c-.288-.072-.504-.216-.576-.432-.054-.162-.112-.324-.17-.486-.176-.486-.352-.972-.406-1.458-.144-1.584-.072-3.24.072-4.824.014-.083.03-.166.047-.25.07-.351.141-.711.025-1.118-.046-.047-.033-.123-.017-.21.008-.048.017-.099.017-.15.213-.341.325-.733.396-.98.05-.171.079-.274.108-.244.06-.24.109-.48.157-.718.127-.62.251-1.23.563-1.802.16-.382.375-1.031.584-1.668.1-.141.2-.281.302-.42.139-.233.158-.465.058-.659.118-.341.217-.605.28-.709.432-.72.72-1.296 1.008-2.016.112-.187.166-.412.222-.645.052-.218.106-.443.21-.651.16-.32.399-.6.629-.871.08-.094.16-.188.235-.281.144-.18.234-.396.324-.612.09-.216.18-.432.324-.612.576-.792 1.008-1.656 1.44-2.592.288-.648.576-1.224 1.152-1.728.11-.11.178-.262.236-.392a5.929 5.929 0 0 1 .052-.112c.22-.301.447-.596.672-.89l.005-.007c.583-.76 1.16-1.514 1.627-2.343.144-.216.288-.432.504-.576l1.08-1.008c.392-.448.872-.81 1.37-1.185.142-.107.286-.215.43-.327l.288-.216h.216c.382.063.37.408.362.637l-.002.083-.036.3c-.198 1.677-.376 3.176-1.26 4.74-.108.144-.342.612-.576 1.08-.234.468-.468.936-.576 1.08-.335.737-.717 1.178-.994 1.497-.317.366-.494.571-.302.879.288.288.792.648 1.152.864.12.072.296.096.472.12.352.048.704.096.608.528.36.18.666.36.972.54.306.18.612.36.972.54.288.144.576.072.72-.216.403-.346.622-.691.841-1.037l.038-.059.045-.072.084-.128c.36-.504.648-1.008.936-1.512.096-.216.194-.432.292-.648.49-1.08.98-2.16 1.22-3.24.288-1.296.648-3.312.576-4.752 0-.72-.288-1.368-.72-1.872l-.054-.072c-.188-.252-.33-.444-.594-.576-.432-.288-.792-.648-1.152-1.08-.597-.547-1.227-1.06-1.845-1.562h-.001c-.277-.225-.55-.448-.818-.67-.174-.174-.44-.301-.688-.419l-.176-.085c-.288-.216-.648-.288-.936-.072-.125.063-.264.03-.405-.004-.183-.043-.368-.087-.53.076H77.2c-.524-.328-.928-.12-1.322.084l-.072.036-.046.024c-.475.264-.95.567-1.398.852-.162.103-.32.204-.474.3-.05.05-.102.093-.15.132a.73.73 0 0 0-.21.228l-1.08 1.224c-.288.432-.648.864-1.152 1.152-.144.072-.288.216-.432.432-.223.297-.463.595-.706.895-.462.572-.932 1.155-1.31 1.769a67.87 67.87 0 0 1-1.135 1.888c-.243.395-.49.796-.737 1.208-.288.432-.576.864-.792 1.368-.24.431-.487.863-.735 1.295-.497.865-.993 1.729-1.425 2.593l-.19.33c-.521.9-1.05 1.812-1.178 2.838a.55.55 0 0 1-.144.36 6.3 6.3 0 0 0-.973 2.049c-1.007 1.411-1.994 2.841-2.894 4.359l-3.456 4.248c-.36.648-.72 1.224-1.44 1.512-.096.048-.192.16-.288.272a2.886 2.886 0 0 1-.143.16l-1.657 1.656c-1.727 1.584-3.528 3.024-5.688 3.96l-.328.138-.003.001c-.74.311-1.446.609-2.26.797-.672.168-.953.162-1.45.15a22.47 22.47 0 0 0-.495-.006c-.287-.072-.503-.216-.575-.432a20.395 20.395 0 0 0-.172-.486c-.175-.486-.35-.972-.404-1.458-.145-1.584-.072-3.24.072-4.824.013-.083.03-.166.046-.25.07-.351.142-.711.025-1.118-.046-.047-.032-.123-.017-.21.008-.048.017-.099.017-.15.213-.341.326-.733.397-.98.049-.171.078-.274.108-.244.06-.24.108-.48.157-.718.126-.62.25-1.23.563-1.802.168-.405.4-1.11.621-1.782.25-.763.488-1.483.602-1.674.432-.72.72-1.296 1.008-2.016.112-.187.166-.412.222-.645.052-.218.106-.443.21-.651.16-.32.4-.6.63-.871.08-.094.16-.188.234-.281.145-.18.235-.396.325-.612.09-.216.18-.432.324-.612.576-.792 1.008-1.656 1.44-2.592.287-.648.575-1.224 1.151-1.728.11-.11.178-.262.236-.392l.028-.06.012-.026.012-.026c.221-.302.448-.598.674-.892l.002-.003.001-.002c.583-.76 1.161-1.514 1.627-2.343.145-.216.288-.432.505-.576l1.08-1.008c.392-.448.87-.81 1.37-1.185.142-.107.286-.215.43-.327l.287-.216h.216c.382.063.37.408.362.637a2.33 2.33 0 0 0-.002.083l-.035.3c-.2 1.677-.377 3.176-1.26 4.74-.108.144-.343.612-.577 1.08-.233.468-.468.936-.576 1.08-.335.737-.717 1.178-.993 1.497-.317.366-.495.571-.303.879.288.288.792.648 1.152.864.12.072.297.096.473.12.351.048.703.096.607.528.36.18.666.36.972.54.307.18.613.36.973.54.287.144.575.072.72-.216.403-.346.621-.691.84-1.037.055-.086.11-.173.168-.259.36-.504.647-1.008.935-1.512.096-.216.194-.432.293-.648.49-1.08.98-2.16 1.22-3.24.288-1.296.648-3.312.576-4.752 0-.72-.288-1.368-.72-1.872l-.054-.072c-.188-.252-.331-.444-.594-.576-.433-.288-.793-.648-1.153-1.08-.596-.547-1.227-1.06-1.845-1.562-.277-.225-.551-.448-.819-.67-.173-.174-.44-.301-.687-.419a9.872 9.872 0 0 1-.176-.085c-.289-.216-.649-.288-.937-.072-.125.063-.264.03-.405-.004-.182-.043-.368-.087-.53.076h-.217c-.523-.328-.928-.12-1.322.084l-.062.032-.055.028c-.476.264-.951.567-1.398.852l-.474.3a2.02 2.02 0 0 1-.15.132c-.087.072-.164.135-.21.228l-1.08 1.224c-.288.432-.648.864-1.152 1.152-.145.072-.288.216-.432.432-.224.297-.464.595-.707.895-.461.572-.932 1.155-1.31 1.769-.356.624-.74 1.247-1.135 1.888-.243.395-.49.796-.736 1.208-.288.432-.576.864-.792 1.368-.24.432-.489.864-.737 1.296-.496.864-.992 1.728-1.424 2.592l-.19.329v.001c-.521.9-1.05 1.812-1.177 2.838a.55.55 0 0 1-.145.36c-.69.987-.874 1.669-1.107 2.534-.106.397-.223.833-.405 1.354-.07.213-.089.426-.107.63-.018.21-.035.411-.108.594-.283.395-.388.879-.49 1.348-.028.128-.056.256-.087.38-.431 1.8-.575 2.952-.575 4.824.028.317.034.646.04.977.008.496.017.996.104 1.471.647 2.592 2.015 4.68 4.32 5.976 1.367.792 2.88 1.44 4.391 2.088 1.512.72 2.52.936 4.248.792zM92.73 106.57c-.072-.072.072-.504.144-.576.041-.111.083-.219.123-.324.17-.443.322-.839.38-1.188.123-.337.22-.661.312-.972.125-.42.243-.816.409-1.188.096-.257.22-.514.349-.777.16-.327.323-.664.443-1.023.798-1.842 1.806-3.527 2.8-5.19l.512-.858c.792-1.296 1.872-2.304 3.168-3.168h.144a.145.145 0 0 0 .035-.005l.022-.006.015-.005c.048-.016.096-.032.144.016.072 0 .216.288.216.288-.144 1.8-.432 3.744-1.368 5.256-.432.72-.792 1.368-1.152 2.088-.504 1.08-1.08 2.16-1.8 3.096l-.432.648c-.583 1.02-1.493 1.745-2.422 2.484-.448.357-.9.717-1.322 1.116 0 0 0 .072-.072.072-.031.015-.072.041-.119.07-.17.106-.416.259-.53.146zm34.621-7.92c.072.144 0 .144-.072.144l.072-.144zm-9.864 1.944-.072.072v.072c0-.072 0-.072.072-.144zM178.286 127.882c-.792.504-1.728.72-2.664.432a25.896 25.896 0 0 0-3.168-.864c-1.584-.36-2.736-1.368-3.456-2.808l-.016-.036c-.5-1.071-1.065-2.282-1.208-3.492-.072-.072-.072-.216-.072-.36 0-.252-.002-.504-.004-.756-.01-1.26-.02-2.52.22-3.78.05-.348.091-.705.133-1.064.078-.681.158-1.372.299-2.032l.012-.096c.069-.552.144-1.16.348-1.704.134-.455.238-.92.342-1.384.175-.784.35-1.565.666-2.288.144-.288.216-.504.216-.792a7.311 7.311 0 0 1 .432-1.8c.087-.367.16-.727.232-1.08.168-.828.33-1.62.632-2.376a.546.546 0 0 0 .144-.288c-.057-.577.116-1.107.298-1.665l.001-.002v-.002c.045-.137.091-.277.133-.42.288-1.247.64-2.495.992-3.743.176-.624.352-1.248.52-1.872.12-.36.241-.777.366-1.212v-.001l.001-.001v-.002c.251-.868.522-1.81.857-2.528.144-.288 0-.504-.288-.504a5.284 5.284 0 0 1-.701-.089c-.168-.032-.284-.055-.811-.055-.432 0-.864-.072-1.296-.288a18.044 18.044 0 0 1-1.409-.846c-.237-.153-.494-.32-.823-.522a8.129 8.129 0 0 1-.502-.428c-.164-.146-.335-.3-.506-.436-.101-.152-.131-.268-.165-.398a2.178 2.178 0 0 0-.051-.178c0-.144 0-.36.216-.432.36-.144.792-.216 1.152-.216.432.072.702.09.972.108.27.018.54.036.972.108.556.04.74.014.961-.018.181-.025.387-.054.839-.054l.183-.017c.741-.067 1.534-.138 2.265-.271.288 0 .504-.144.576-.432l.36-1.008c.045-.156.082-.311.119-.465.083-.343.164-.676.313-.975.257-.66.383-1.245.511-1.84.124-.576.25-1.16.497-1.832.061-.729.275-1.355.514-2.052l.134-.396.36-1.008c.144-.72.288-1.44.504-2.232v-.36a9.68 9.68 0 0 0 .093-.353l.001-.001c.096-.383.19-.756.41-1.086.445 0 .718.257 1.018.54.089.084.18.17.278.252.072.048.136.104.2.16.128.112.256.224.448.272.72.288 1.44.576 1.872 1.224.321.053.562.265.783.46.077.067.151.132.225.188.144.216.216.432.216.72-.112.376-.186.771-.261 1.176-.069.37-.139.75-.243 1.128-.104.415-.141.465-.167.5-.029.038-.046.06-.121.508-.077.366-.133.702-.187 1.022-.147.873-.274 1.63-.749 2.578 0 .144-.072.288-.144.432-.072.648-.144 1.296-.432 1.944 0 .144.144.36.288.36.288 0 .504 0 .72-.072.72-.288 1.44-.648 2.16-1.008.36-.288.648-.216 1.08-.072.72.36 1.44.72 2.088 1.224.198.173.405.329.608.483.388.294.765.579 1.048.957.216.144.36.36.36.648 0 .288-.144.576-.36.792-.211.053-.383.183-.546.305-.059.045-.116.088-.174.127-1.08.432-2.16.72-3.312.576-.504-.072-1.08.072-1.584.216a2.035 2.035 0 0 0-.153.015c-.12.016-.252.034-.351-.015-.926.308-1.746.3-2.551.29l-.187-.001-.11-.001h-.104c-.288 0-.432.216-.504.432-.052.183-.114.319-.171.445-.101.22-.189.412-.189.779-.072.432-.36 1.44-.576 1.944l-.432 1.368-.36 1.152-.72 1.944c-.072.216-.144.432-.144.648.048.663-.154 1.296-.36 1.938-.106.333-.214.669-.288 1.014 0 .171-.045.342-.099.548l-.045.172c-.072.792-.288 1.512-.576 2.232-.072.216-.072.36-.072.576-.072.576-.216 1.08-.504 1.584l-.044.127a1.23 1.23 0 0 0-.1.449c-.203.915-.478 1.867-.749 2.803l-.001.003-.005.016c-.111.383-.221.763-.325 1.138-.189.427-.254.885-.317 1.334a9.145 9.145 0 0 1-.115.682l-.011.102c-.069.621-.144 1.304-.349 1.986-.267.802-.41 1.667-.545 2.479l-.031.185c-.072.432-.144.864-.072 1.368l-.216 3.24c-.072.576 0 1.224.216 1.8.036-.036.09-.054.144-.072a.362.362 0 0 0 .144-.072c.72-.576 1.44-1.296 1.944-2.088a9.7 9.7 0 0 0 .431-.541c.291-.384.566-.747 1.009-1.043a.787.787 0 0 0 .108-.18c.036-.072.072-.144.108-.18.233-.582.606-1.163.931-1.669.077-.12.152-.236.221-.347.72-1.296 1.44-2.592 2.16-3.816.36-.72.793-1.366 1.247-2.043.182-.272.368-.549.553-.837.108-.108.18-.252.252-.396.072-.144.144-.288.252-.396.216-.864.72-1.584 1.224-2.304l1.728-2.952c.072-.144.144-.288.216-.288a.576.576 0 0 1 .191-.103c.094-.415.192-.857.292-1.312.324-1.466.675-3.053.996-4.201 1.08-3.384 2.088-6.768 2.952-10.224 0-.144.072-.288.144-.432.504-1.584.648-1.512 1.872-.648.072.072.216.216.288.216.44-.196.681.04.925.28.116.112.232.226.371.296.112.08.225.164.338.249.398.296.814.607 1.318.83.144.073.288.217.432.36.144.145.216.289.216.433 0 .216 0 .504-.072.648-.253.464-.333.978-.414 1.498-.057.367-.115.737-.234 1.094l-.216.72c-.054.215-.128.43-.203.65-.126.367-.256.744-.301 1.15-.045.317-.148.663-.253 1.02-.062.21-.126.423-.179.636-.185.863-.475 1.725-.781 2.633l-.084.251-.071.212c-.039.117-.12.234-.209.362-.075.109-.157.226-.223.358-.518.129-.512.492-.505.878l.001.13c-.072 2.088-.144 3.024-.504 3.96-.072.288-.072.576-.072.864-.031.219-.13.397-.227.57-.125.225-.245.441-.205.726 0 .432 0 .936-.216 1.368-.109.218-.094.477-.08.715.004.077.008.151.008.221 0 .072.144.144.144.144.576-.288 1.08-.648 1.44-1.152.216-.36.432-.648.72-.864.255-.192.397-.383.577-.624l.055-.074.016-.022c.166-.291.38-.534.601-.784.161-.183.327-.371.479-.584l1.152-1.584c.128-.205.256-.556.398-.943.255-.699.553-1.515.97-1.793.081-.135.172-.269.265-.407.156-.232.32-.475.455-.745.216-.648.504-1.224.936-1.728l.216-.432 2.376-4.968 1.08-2.232.096-.191.09-.178c.367-.726.72-1.422.966-2.223.144-.432.36-.864.72-1.152.216-.216.504-.288.792-.144.144 0 .36.072.576.216.936.648 1.872 1.296 2.808 2.016l.72.432c.864.432 1.08 1.08 1.008 1.944 0 .144-.036.288-.072.432a1.808 1.808 0 0 0-.072.432c0 .283-.022.567-.045.855-.035.443-.07.897-.027 1.377 0 .288-.036.594-.072.9-.036.306-.072.612-.072.9a5.351 5.351 0 0 1-.093.502c-.078.355-.15.684-.051 1.082.056.39-.018.822-.087 1.231l-.03.181a5.55 5.55 0 0 0-.027.172c0 .119-.022.216-.041.303-.016.071-.031.136-.031.201 0 .233-.094.43-.187.625-.137.289-.272.573-.101.959l-.216 1.584a14.895 14.895 0 0 1-.288 1.584 5.008 5.008 0 0 0-.106.803c-.029.368-.059.741-.182 1.069-.144.648-.432 1.944-.504 2.592 0 .072 0 .216.072.216.072.072.144.072.216 0 .144-.072.288-.144.36-.288.245-.164.675-.605 1.133-1.074.35-.359.716-.734 1.027-1.014.292-.325.54-.503.778-.673.289-.208.562-.404.878-.839.576-.072 1.44-1.296 1.728-1.944 0-.108.216-.342.432-.576.216-.234.432-.468.432-.576a.688.688 0 0 1 .296-.414c.048-.175.1-.349.154-.522.297-.932.518-1.814.739-2.69.154-.613.307-1.224.485-1.846.108-.396.18-.792.252-1.188.072-.397.144-.792.252-1.188.177-.589.305-1.178.435-1.771.187-.859.377-1.728.717-2.621.216-.576.36-1.224.432-1.8.06-.66.27-1.22.505-1.847l.001-.001.001-.002.001-.005.14-.377c0-.144.072-.36.144-.432.288-.288.36-.576.36-.936 0-.408.145-.816.28-1.199.056-.157.11-.31.152-.457.144-.288.576-.36.864-.144.187.149.334.356.474.55.129.182.251.354.39.458.216.144.36.216.576.216.432 0 .792.144 1.08.36l.403.28c.566.393 1.102.765 1.685 1.232.144.072.288.216.216.432l-.037.124c-.205.686-.424 1.42-.899 1.964l-.216.504c.072.864-.216 1.728-.576 2.52-.072.432-.216.864-.36 1.296-.072.288-.072.648.072 1.008.174 0 .301-.14.419-.27.029-.03.057-.062.085-.09l3.024-4.104c.039-.039.072-.077.103-.113.085-.098.152-.175.257-.175.637-.392 1.174-.818 1.725-1.254.258-.204.519-.411.795-.618.648-.504 1.512-.648 2.376-.216.552.36 1.112.712 1.672 1.064 1.12.704 2.24 1.408 3.296 2.176.576.432 1.08.936 1.296 1.656.145.337.16.642.176.959.008.155.016.314.04.48.029.175.035.361.041.554.008.286.017.586.103.887.03.12.123.24.215.36.13.168.259.336.217.504-.144.324-.198.648-.252.972-.054.324-.108.648-.252.972-.072.144-.072.288-.072.504 0 .576-.144 1.008-.72 1.296-.072.072-.144.216-.072.288.432.432.648 1.008.504 1.44-.144.576-.432 1.512-.72 2.448v.001c-.288.936-.576 1.871-.72 2.447-.375 1.501-.967 3.001-1.541 4.455l-.259.657a5.088 5.088 0 0 1-.792 1.8c-.256.307-.33.686-.403 1.061-.03.153-.059.305-.101.451a4.97 4.97 0 0 0-.138.412c-.077.251-.156.51-.294.74l-.432.936c-.144.576-.504 1.152-.864 1.728-.369.431-.581.862-.814 1.337l-.052.106a9.222 9.222 0 0 1-.07.141c-.432 1.008-1.008 1.872-2.016 2.448-.247.062-.389.283-.515.482l-.017.027-.044.067c-.169.339-.472.501-.769.659a5.035 5.035 0 0 0-.239.133c-.648.36-2.016.72-2.808.792l-.104.007c-1.032.069-1.868.125-2.704-.223a95.273 95.273 0 0 0-.792-.304c-1.005-.384-1.965-.751-2.88-1.208-.432-.072-.792-.288-1.152-.576-.122-.031-.205-.126-.283-.215-.105-.12-.199-.228-.365-.145-.363 0-.472.305-.583.616-.021.059-.042.118-.065.176l-1.224 3.888c-.043.302-.164.605-.285.907a6.384 6.384 0 0 0-.219.605c-.288 1.044-.594 2.07-.9 3.096-.306 1.026-.612 2.052-.9 3.096-.36 1.296-.72 2.592-1.224 3.888-.144.288-.288.576-.36.792-.144.216-.288.288-.576.144a31.665 31.665 0 0 1-3.6-1.512c-.034-.017-.072-.034-.112-.052-.13-.058-.282-.126-.392-.236-.936-.792-1.368-1.224-.864-2.448.266-.639.454-1.277.65-1.945.069-.236.139-.475.214-.719.432-1.44.864-2.952 1.152-4.392.36-2.16 1.584-6.408 2.232-8.496l.202-.634.002-.005v-.001l.001-.002c.495-1.556.962-3.022 1.595-4.542.094-.234.18-.474.263-.72l-.317.269-.108.091c-.624.528-1.312.992-2 1.456-.344.232-.688.464-1.024.704-.576.36-1.08.792-1.584 1.224-.288.216-.432.504-.432.792-.106 1.17-.33 2.262-.557 3.362-.079.389-.16.779-.235 1.174-.095.523-.127 1.077-.159 1.622-.016.28-.032.557-.057.826-.108.576-.18 1.152-.252 1.728-.072.576-.144 1.152-.252 1.728-.072.288-.072.648-.072 1.008 0 .432-.072.792-.216 1.224-.042.168-.089.336-.137.504-.197.699-.397 1.406-.223 2.16-.089.208-.117.43-.144.648-.039.308-.077.611-.288.864-.118.196-.107.393-.096.589.009.163.018.327-.048.491-.077.257-.145.524-.214.793-.123.484-.249.976-.434 1.439l-.124.308c-.244.6-.473 1.164-.596 1.78-.072.504-.36.936-.648 1.368-.504.792-.936 1.512-1.08 2.448-.127.572-.479.976-.857 1.41l-.075.087-.042.047-.034.04-.648.864a11.322 11.322 0 0 1-2.16 2.736c-1.008.936-2.088 1.584-3.456 1.872-.36.072-.72.144-1.08.144a9.485 9.485 0 0 0-1.04-.003c-.617.021-1.243.042-1.84-.141-.144-.072-.36-.072-.576-.072-.864 0-1.656-.072-2.448-.288-.288 0-.504-.072-.72-.216-2.592-1.224-4.608-3.096-5.472-5.904-.216-.72-.432-1.44-.432-2.16v-2.664c0-.36.072-.72.144-1.08.044-.118.092-.233.138-.347l.001-.001.001-.002c.18-.438.349-.849.292-1.306.097-.214.189-.433.282-.653.249-.595.502-1.198.87-1.723.126-.198.261-.392.396-.585.405-.581.81-1.161.972-1.863.051-.205.212-.41.352-.589a5.32 5.32 0 0 0 .13-.171l.013-.019.009-.013a45.564 45.564 0 0 1 3.384-4.032c.288-.252.54-.522.791-.791l.001-.001c.252-.27.504-.54.792-.792.432-.432.864-.864 1.368-1.296.214-.214.427-.435.643-.659.44-.456.89-.923 1.373-1.357.364-.319.735-.637 1.109-.958l.001-.001a74.058 74.058 0 0 0 2.418-2.137c.791-.647 1.51-1.294 2.229-1.941l.003-.003c.864-.72 1.728-1.44 2.592-2.088.288-.216.36-.432.432-.72.048-.216.104-.432.16-.648.112-.432.224-.864.272-1.296.132-1.254.385-2.386.648-3.564l.072-.324c.017-.155.03-.305.043-.454.042-.473.081-.925.245-1.418l.216-1.296c0-.144 0-.216-.072-.36-.44.188-.715.541-.969.867a8.676 8.676 0 0 1-.111.141c-.504.792-.864 1.512-1.296 2.376-.076.121-.175.285-.287.472l-.002.004-.003.005-.001.001c-.419.695-1.024 1.699-1.363 2.038-.142.171-.285.32-.423.463a4.927 4.927 0 0 0-.585.689c-.792.936-1.656 1.872-2.808 2.448l-.432.216c-.792.648-1.656.576-2.592.36a4.163 4.163 0 0 1-1.008-.36c-.378-.152-.757-.285-1.129-.417-.69-.244-1.359-.48-1.967-.807a6.11 6.11 0 0 1-.721-.443l-1.046 1.955c-.021.022-.043.05-.067.081-.055.071-.12.157-.221.207-.553.554-.844 1.213-1.142 1.887-.051.115-.101.23-.154.345-.391 1.108-1.018 1.98-1.667 2.883l-.002.002-.203.283c-.648 1.008-1.224 1.872-1.944 2.736a3.954 3.954 0 0 1-.44.426c-.284.247-.572.499-.712.87 0 0 0 .072-.072.072-.452.164-.764.47-1.082.783-.239.234-.481.472-.79.657zm12.063 22.104c-.36.216-.576.216-.864-.144a12.66 12.66 0 0 0-.352-.526c-.258-.374-.508-.735-.656-1.13-.432-1.08-.792-2.088-.792-3.24a15.95 15.95 0 0 1-.053-.522c-.033-.37-.064-.716-.163-1.062a2.78 2.78 0 0 1 .216-1.512c.216-.432.36-.864.432-1.368.36-1.584 1.08-2.952 1.944-4.248l.576-1.08.208-.316v-.001l.002-.003.001-.002c.194-.296.368-.563.581-.83l2.88-3.096c.064-.08.131-.156.198-.231.235-.267.466-.528.522-.921a.31.31 0 0 1 .288-.288c.379 0 .592-.222.784-.422l.08-.082c.432-.36.792-.72 1.152-1.08a60.08 60.08 0 0 0 1.584-1.44 60.08 60.08 0 0 1 1.584-1.44c.028.082.055.144.079.196a.537.537 0 0 1 .065.236c-.216 1.08-.354 2.16-.492 3.24-.092.72-.185 1.44-.3 2.16-.13 1.106-.378 2.154-.637 3.25l-.083.35c-.045.319-.149.609-.255.906v.002l-.001.001a8.929 8.929 0 0 0-.176.531c-.204.57-.384 1.164-.568 1.768-.141.462-.284.931-.44 1.4-.446 1.401-1.117 2.803-1.765 4.154l-.251.526c-.397.794-.928 1.543-1.452 2.283-.141.199-.282.398-.42.597-.448.576-.952 1.151-1.413 1.677l-.001.001-.001.001-.169.193c-.576.648-1.152 1.08-1.872 1.512zm31.41-28.296c.072.288.288.432.576.288.031 0 .048 0 .064-.006a.098.098 0 0 0 .036-.024.74.74 0 0 0 .044-.042l.089-.033c.807-.292 2.167-.785 2.791-1.479 1.296-1.224 2.448-2.448 3.024-4.176v-.144c.584-.843.992-1.802 1.383-2.721l.129-.303c.216-.792.576-1.584.936-2.376.779-1.704 1.558-4.133 2.248-6.284.331-1.03.641-1.996.92-2.788.174-.477.19-.876.208-1.291.011-.274.023-.555.08-.87.088-.528.23-1.057.377-1.602.093-.345.187-.698.271-1.061.078-.388.009-.776-.059-1.163-.059-.333-.118-.665-.085-.997.072-.072.072-.216.072-.216-.072-.072-.216-.072-.216 0-.352.195-.64.454-.922.708-.237.213-.47.423-.734.588-.216 0-.36.144-.432.36-.144.36-.432.648-.792.936-.504.36-.864.864-1.152 1.44l-.216.432-2.304 2.88c-.648.864-1.944 3.096-2.376 4.032-.36.72-.72 1.44-1.224 2.016-.36.432-.648.936-.936 1.44-.072.144-.144.288-.144.432 0 .299-.138.564-.271.819-.059.112-.117.222-.161.333a27.328 27.328 0 0 1-.656 1.557l-.001.002c-.272.613-.549 1.234-.783 1.897-.144.36-.288.72-.648.936-.216.072-.288.36-.36.648l-.216 1.008-.144.432c0 .432.072.648.36.792.139.069.245.156.341.235.103.084.196.16.307.197.36.216.432.432.432.72l-.072.648c-.049.439.035.845.116 1.24l.001.003c.038.187.076.372.099.557zM249.926 127.81c.576.072 1.224.144 1.8-.072 1.08-.288 2.16-.72 3.024-1.44 1.446-1.117 2.711-2.354 4.016-3.656l-.094.248-.143.381-.171.459c-.399 1.071-.791 2.124-1.259 3.216-.178.415-.38.854-.587 1.303v.001c-.295.641-.599 1.301-.853 1.936-.226.632-.508 1.236-.794 1.847l-.001.003-.001.001c-.169.362-.34.726-.5 1.101-.273.709-.587 1.377-.911 2.066l-.006.012-.307.658c-.36.576-.144 1.152.216 1.656.432.576.792.936 1.368 1.296.864.432 1.8.936 2.592 1.44.252.072.504.18.756.288.252.108.504.216.756.288 1.296.504 2.736.72 4.104.864.576 0 1.152 0 1.728-.216l.361-.118c.97-.314 1.959-.634 2.663-1.466.072-.144.216-.216.432-.288l.15-.087c.82-.477 1.679-.975 2.154-1.857.144-.36.432-.648.72-.864.327-.273.572-.669.796-1.033.072-.117.142-.23.212-.335.144-.216.072-.36-.072-.648-.36-.36-.216-.576.216-.72.04-.041.103-.058.176-.079.058-.016.121-.034.184-.065.576-.216 1.08-.648 1.008-1.368 0-.432.216-.792.504-1.08.103-.206.224-.412.347-.621.222-.376.45-.763.589-1.179a9.871 9.871 0 0 0 .576-2.52c0-.864 0-1.728.36-2.592.288-1.512.216-3.096.144-4.68l-.072-.36-.041-.189c-.203-.953-.418-1.962-.823-2.907l-.011-.021a1.32 1.32 0 0 0-.029-.051c-.07-.12-.14-.24.04-.36.144-.072.36 0 .432.144.144.072.288.144.504.144.708.118 1.174-.006 1.954-.213.172-.046.358-.095.566-.147a9.67 9.67 0 0 0 1.222-.377c-.057.366-.12.731-.204 1.097-.144.36-.072.792.072 1.224.216.504.072.864-.36 1.152v.288c.144 0 .216.144.216.216-.072.936.216 1.8.576 2.664a7.522 7.522 0 0 0 3.024 3.816c1.44.936 3.024 1.656 4.608 2.304 1.008.432 1.944.36 2.88-.216.144-.144.36-.288.576-.432.104-.09.209-.176.313-.262.397-.329.784-.65 1.127-1.106.144-.144.36-.36.576-.504.344-.172.597-.436.868-.718a14.2 14.2 0 0 1 .212-.218c.081-.109.152-.217.221-.322.114-.173.22-.336.355-.47.254 0 .409.149.566.302.11.106.222.215.37.274.216.072.432.216.648.36.293.146.585.281.873.413.421.193.83.381 1.215.595.306.153.549.306.776.449.415.262.78.491 1.384.631.936.216 1.872.216 2.808-.216.957-.447 1.744-1.176 2.512-1.887l.296-.273c.471-.511.857-1.085 1.238-1.654.235-.35.469-.699.72-1.028a8.395 8.395 0 0 0 2.998 2.826c1.368.792 2.88 1.44 4.392 2.088 1.512.72 2.52.936 4.248.792.504 0 1.08-.072 1.512-.288.447-.209.906-.393 1.368-.577.653-.262 1.311-.526 1.944-.863 1.19-.626 2.27-1.524 3.336-2.411l.148-.123.332-.274c.792-.648 1.584-1.296 2.16-2.16a.74.74 0 0 0 .067-.081.66.66 0 0 1 .221-.207c.31-.207.584-.488.819-.79.072.407.176.814.312 1.222.156.416.387.795.613 1.164.086.141.171.28.251.42a5.805 5.805 0 0 0 2.448 2.304c1.043.58 2.18 1.113 3.298 1.637l.297.139.509.24c.53.265 1.139.413 1.74.559.214.052.428.104.636.161.576.072 1.224.144 1.8-.072 1.08-.288 2.16-.72 3.024-1.44 1.584-1.224 2.952-2.592 4.392-4.032.144-.072.288-.216.288-.36 0-.504.216-.792.576-1.008.123-.082.176-.235.225-.377.038-.108.073-.209.135-.271.134-.135.297-.186.47-.24a2.05 2.05 0 0 0 .322-.12c.288-.216.504-.432.792-.72.457-.458.814-.956 1.176-1.462.322-.449.649-.906 1.056-1.346.584-.52.817-1.039 1.121-1.717l.004-.008.059-.132.04-.087a10.965 10.965 0 0 0 2.232-3.168l.216-.288a3.02 3.02 0 0 0 .648-1.008c.082-.165.133-.319.181-.463.077-.233.145-.439.323-.617.067-.034.135-.147.21-.272.085-.142.179-.3.294-.376.188-.188.297-.435.41-.689.103-.233.21-.473.382-.679.216-.288.216-.36 0-.504a5.566 5.566 0 0 1-.298-.259c-.185-.168-.346-.315-.638-.461-.284-.19-.471-.324-.64-.445l-.002-.001c-.216-.154-.404-.289-.726-.49-.12-.08-.239-.154-.357-.227-.308-.192-.607-.377-.867-.637-.144-.144-.288-.288-.504-.36-.36-.288-.504-.288-.792.072-.243.35-.496.731-.751 1.116-.427.642-.86 1.295-1.265 1.836l-.513.682a97.115 97.115 0 0 0-1.935 2.63c-.288.504-.576.936-.936 1.296-.432.432-.709.864-.985 1.296-.185.288-.369.576-.599.864-.432.528-.864.992-1.296 1.456-.216.232-.432.464-.648.704-.201.251-.385.502-.566.751-.338.462-.669.915-1.09 1.337a34.775 34.775 0 0 1-2.304 2.304c-.792.648-1.512 1.296-2.16 2.016a7.367 7.367 0 0 0-.251.198 2.977 2.977 0 0 1-.541.378l-1.08.648-.127.063-.119.061c-.479.244-.928.473-1.482.596-1.296.36-1.512.216-1.656-1.08-.048-.528-.032-1.056-.016-1.583.008-.264.016-.529.016-.793v-1.296c-.056-.673.062-1.303.186-1.956.035-.186.07-.373.102-.564.216-.792.36-1.584.432-2.304 0-.792.144-1.584.36-2.304.128-.256.18-.538.231-.814.025-.133.049-.266.082-.393.282-.467.59-.918.911-1.356l.07.042.002.001c.09.054.18.108.288.144 1.152.648 2.304 1.296 3.528 1.8.288.072.504.072.72-.072.105-.079.211-.156.316-.232.466-.34.915-.666 1.268-1.136a.65.65 0 0 1 .432-.432c.455-.253.804-.648 1.146-1.036.071-.081.143-.162.215-.241.073-.081.147-.16.223-.235.432-.48.8-.96 1.168-1.44.184-.24.368-.48.56-.72.074-.092.157-.185.242-.279.248-.275.515-.57.622-.945.12-.242.342-.533.538-.791l.069-.091.041-.054c.258-.31.442-.657.632-1.014.074-.141.15-.284.232-.426.36-.864.72-1.728 1.224-2.448.337-.506.501-1.085.666-1.666.117-.413.235-.826.414-1.214.02-.298.067-.595.114-.894.125-.787.251-1.583-.114-2.418v-.216c0-1.008-.432-1.728-1.224-2.376-.742-.567-1.456-1.187-2.177-1.811l-.001-.001c-.469-.407-.94-.815-1.422-1.212l-.14-.106-.111-.085-.052-.04c-.458-.35-.893-.685-1.425-.921-1.008-.36-2.016-.576-3.024-.144-1.036.426-1.814 1.163-2.597 1.903-.142.134-.284.268-.427.4l-.144.217a54.569 54.569 0 0 1-1.8 2.52l-.049.07-.042.056-.026.036c-.122.162-.243.324-.243.486 0 .447-.227.724-.479 1.033l-.048.058-.033.04-.016.02c-.216.217-.36.433-.504.72-.281.664-.589 1.328-.898 1.995-.564 1.214-1.132 2.439-1.55 3.694-.085.223-.172.446-.259.67-.501 1.291-1.008 2.599-1.253 4.01 0 .144-.072.36-.144.504-.344.688-.552 1.468-.731 2.23-.89 1.259-1.76 2.54-2.56 3.89l-3.456 4.248c-.36.648-.72 1.224-1.44 1.512-.096.048-.192.16-.288.272a2.886 2.886 0 0 1-.144.16l-1.656 1.656c-1.728 1.584-3.528 3.024-5.688 3.96l-.331.139c-.74.311-1.446.609-2.261.797-.672.168-.952.162-1.45.15a87.65 87.65 0 0 0-.494-.006c-.288-.072-.504-.216-.576-.432a18.76 18.76 0 0 0-.171-.486c-.175-.486-.351-.972-.405-1.458-.144-1.584-.072-3.24.072-4.824.014-.083.031-.166.047-.25.07-.351.141-.711.025-1.118-.046-.047-.033-.123-.017-.21.008-.048.017-.099.017-.15.213-.341.325-.733.396-.98.049-.171.079-.274.108-.244.06-.24.109-.48.157-.718.127-.62.251-1.23.563-1.802.169-.405.401-1.11.622-1.782l.001-.003c.25-.761.486-1.48.601-1.671.432-.72.72-1.296 1.008-2.016.112-.187.166-.412.222-.645.052-.218.106-.443.21-.651.16-.32.399-.6.629-.87.081-.095.16-.189.235-.282.144-.18.234-.396.324-.612.09-.216.18-.432.324-.612.576-.792 1.008-1.656 1.44-2.592.288-.648.576-1.224 1.152-1.728.11-.11.178-.262.236-.392.018-.04.035-.078.052-.112.221-.302.448-.598.674-.893l.003-.004c.583-.76 1.161-1.514 1.627-2.343.144-.216.288-.432.504-.576l1.08-1.008c.392-.448.872-.81 1.37-1.185.143-.107.286-.215.43-.327l.288-.216h.216c.382.063.37.408.362.637l-.002.083-.033.278-.003.022c-.198 1.677-.376 3.176-1.26 4.74-.108.144-.342.612-.576 1.08v.001c-.234.468-.468.935-.576 1.079-.335.737-.717 1.178-.994 1.497-.317.366-.494.571-.302.879.288.288.792.648 1.152.864.12.072.296.096.472.12.352.048.704.096.608.528.36.18.666.36.972.54.306.18.612.36.972.54.288.144.576.072.72-.216.403-.346.622-.691.841-1.037l.046-.073.032-.05.04-.061.049-.075c.36-.504.648-1.008.936-1.512.096-.216.194-.432.292-.648.49-1.08.98-2.16 1.22-3.24.288-1.296.648-3.312.576-4.752 0-.72-.288-1.368-.72-1.872l-.054-.072c-.187-.252-.33-.444-.594-.576-.432-.288-.792-.648-1.152-1.08a40.651 40.651 0 0 0-1.845-1.562c-.277-.225-.552-.447-.819-.67-.174-.174-.44-.301-.688-.419h-.002c-.059-.03-.118-.057-.174-.085-.288-.216-.648-.288-.936-.072-.125.063-.264.03-.405-.004-.183-.043-.368-.087-.531.076h-.216c-.524-.328-.928-.12-1.322.084l-.06.03-.058.03c-.475.264-.951.567-1.398.851-.162.104-.32.205-.474.3a1.984 1.984 0 0 1-.15.133.737.737 0 0 0-.21.228l-1.08 1.224c-.288.432-.648.864-1.152 1.152-.144.072-.288.216-.432.432-.223.297-.463.594-.705.894l-.001.001c-.462.572-.932 1.155-1.31 1.769-.356.623-.74 1.247-1.135 1.888l-.002.003c-.242.394-.489.794-.735 1.205-.288.432-.576.864-.792 1.368-.24.432-.488.864-.736 1.296-.496.864-.992 1.728-1.424 2.592-.061.108-.124.215-.186.323l-.004.007c-.521.9-1.05 1.812-1.178 2.838a.55.55 0 0 1-.144.36 6.861 6.861 0 0 0-.572.964c-.302.399-.435.803-.568 1.268-.226.497-.487.994-.768 1.528-.615 1.17-1.326 2.521-1.968 4.448-.218.653-.563 1.269-.899 1.867-.33.589-.65 1.161-.829 1.733-.252.396-.522.756-.792 1.116-.27.36-.54.72-.792 1.116l-.232.376-.003.005c-.829 1.349-1.543 2.512-2.861 3.435-.072.072-.072.072-.144.072-.072.072-.216-.072-.288-.144 0-.461.023-.922.046-1.383.035-.691.069-1.382.026-2.073 0-.144.072-.288.144-.432.036-.18.09-.36.144-.54.054-.18.108-.36.144-.54.036-.468.09-.918.144-1.368.054-.45.108-.9.144-1.368.144-1.296.432-2.52.864-3.744.288-.72.504-1.584.648-2.376.216-1.296 1.008-3.528 1.728-4.68 0-.072 0-.072.072-.144.144-.36.072-.72-.216-1.008l-1.296-1.008c-.72-.648-1.44-1.224-2.304-1.656-.216-.072-.432-.216-.648-.36-.504-.36-.648-.288-.936.216a.99.99 0 0 1-.044.076l-.019.029-.025.039c-.064.096-.128.192-.128.288-.504 1.368-1.368 3.816-1.728 5.256-.1.652-.34 1.199-.598 1.787l-.001.001c-.112.256-.228.52-.337.804-.36.864-.648 1.728-.936 2.664a33.117 33.117 0 0 0-.684 1.872c-.216.63-.432 1.26-.684 1.872-.288.864-.72 1.728-1.152 2.592l-1.512 2.376c-1.008 1.512-2.304 2.736-3.672 3.96l-.039.039-.043.045c-.218.225-.528.547-.782.42-.377-.108-.391-.457-.405-.777a4.004 4.004 0 0 0-.02-.266l-.003-.014-.002-.01-.002-.013c-.072-.144-.072-.288 0-.504l-.002-.236-.004-.285c-.011-.711-.023-1.45.15-2.143.058-.378.093-.767.128-1.159.051-.579.103-1.163.232-1.721a53.695 53.695 0 0 1 1.08-4.896c.068-.297.151-.578.232-.855.148-.504.291-.99.332-1.514a7.94 7.94 0 0 0 .716-1.928c.218-.507.428-1.034.592-1.607.072-.504.288-1.008.504-1.512.504-.936 1.008-1.872 1.368-2.88.144-.432.36-.864.648-1.224.135-.135.214-.299.289-.455.045-.094.089-.184.143-.265.062-.125.119-.25.174-.372l.001-.002c.136-.303.268-.594.473-.85l.504-.648a156.362 156.362 0 0 1 2.376-3.6l.36-.432c.864-.792 1.727-1.656 2.591-2.52h.001c.36-.36.864-.648 1.296-.864.792-.432 1.512-.648 2.376-.504.216 0 .288.144.288.288.058.467-.073.888-.202 1.299l-.018.059-.019.062a2.15 2.15 0 0 0-.023.075l-.026.089-.648 1.728c-.216.504-.144.864.072 1.296.072.108.162.198.252.288.09.09.18.18.252.288.648.648 1.44 1.08 2.304 1.44.36.072.576.288.792.576.046.045.091.098.139.154.103.12.217.251.365.35.072.144.288.144.36 0 .057-.085.102-.17.145-.25.067-.125.128-.239.215-.326.792-1.08.936-2.376 1.008-3.744v-.504c-.216-1.08-.576-1.8-1.368-2.592-.359-.359-.709-.717-1.06-1.076l-.004-.004c-.704-.72-1.408-1.44-2.176-2.16-1.08-1.008-2.304-1.872-3.888-1.872a.55.55 0 0 1-.36-.144c-.936-.072-1.728-.072-2.592.288-1.224.432-2.16 1.224-3.024 2.088-1.008.936-1.944 1.944-2.736 3.024h-.001c-.359.504-.719 1.008-1.079 1.584-.262.437-.551.867-.842 1.301l-.002.003c-.667.994-1.347 2.007-1.748 3.16-.036.108-.09.198-.144.288-.054.09-.108.18-.144.288a5.716 5.716 0 0 0-.936 1.872c-.216.504-.432 1.008-.72 1.584-.936 2.304-1.8 4.68-2.448 7.128l-.054.239a11.348 11.348 0 0 1-1.577 1.31l-.017.012c-1.359.974-2.292 1.642-4.05 2.183l-1.8.432a3.755 3.755 0 0 0-.118-.028l-.004-.001c-.21-.048-.332-.076-.454-.259-.288-.432-.576-.792-.936-1.008a33.886 33.886 0 0 1-.931-.891c-.461-.452-.927-.91-1.445-1.341-.216-.144-.216-.36-.144-.648.274-.44.381-.879.481-1.286l.011-.046.024-.096c.019-.078.039-.154.06-.228.094-.259.204-.596.321-.956l.001-.002c.241-.74.516-1.582.758-2.066.18-.468.432-.792.684-1.116.252-.324.504-.648.684-1.116.09-.226.237-.479.369-.708l.001-.001c.078-.136.152-.264.206-.371.066-.165.252-.404.448-.657.234-.301.482-.62.56-.855.172-.99.575-1.568.949-2.103.252-.361.49-.703.635-1.137.128-.352.413-.833.702-1.321.361-.61.73-1.231.81-1.631l1.512-3.744c.613-1.555.855-2.505 1.121-3.551.202-.795.419-1.645.823-2.857.131-.49.217-1.13.306-1.789v-.003c.107-.792.218-1.612.414-2.24.144-.432.144-1.584 0-2.16-.043-.214-.213-.428-.359-.612-.1-.125-.188-.237-.217-.324l-.144-.288c-.319-.4-.595-.776-.862-1.144l-.002-.002-.002-.003h-.001l-.003-.005-.002-.002-.001-.002v-.001c-.212-.29-.419-.574-.639-.857-.144-.216-.36-.36-.576-.504-.36-.288-.72-.576-1.008-1.08l-.288-.36c-.144-.144-.288-.072-.36 0-.09.18-.184.36-.279.539-.284.54-.567 1.08-.729 1.62-.072.649-.216 1.297-.504 1.873l-.194.476c-.22.54-.431 1.054-.598 1.612-.18.72-.45 1.422-.72 2.124-.27.702-.54 1.404-.72 2.124-.481 1.016-.883 2.15-1.264 3.227-.133.374-.262.74-.392 1.093-.614 1.505-1.141 3.054-1.648 4.546h-.001c-.147.435-.293.864-.439 1.286-.468 1.224-.9 2.43-1.332 3.636-.432 1.206-.864 2.412-1.332 3.636-.034.17-.052.339-.069.5v.006c-.019.18-.037.35-.075.502-.04.238-.167.433-.298.632-.106.162-.214.326-.278.52a31.916 31.916 0 0 0-1.06 2.747c-.241.348-.491.725-.744 1.105-.426.642-.859 1.295-1.265 1.836l-.513.682c-.65.863-1.247 1.655-1.935 2.63-.288.504-.576.936-.936 1.296-.432.432-.708.864-.985 1.296-.184.288-.368.576-.599.864-.432.528-.864.992-1.296 1.456-.216.232-.432.464-.648.704-.201.251-.384.502-.565.75-.338.463-.669.916-1.091 1.338a34.775 34.775 0 0 1-2.304 2.304c-.792.648-1.512 1.296-2.16 2.016a8.506 8.506 0 0 0-.251.198 2.943 2.943 0 0 1-.541.378l-1.08.648-.102.051-.143.073c-.479.244-.928.473-1.483.596-1.296.36-1.512.216-1.656-1.08-.048-.528-.032-1.056-.016-1.584.008-.264.016-.528.016-.792v-1.296c-.056-.673.063-1.303.186-1.956.035-.186.071-.373.102-.564.216-.792.36-1.584.432-2.304 0-.792.144-1.584.36-2.304.129-.256.181-.538.232-.815.035-.19.07-.378.128-.553.072-.36.216-.792.36-1.152 0-.144.216-.144.288-.144.108.036.198.09.288.144.09.054.18.108.288.144 1.152.648 2.304 1.296 3.528 1.8.288.072.504.072.72-.072l.316-.232c.466-.339.916-.666 1.268-1.136a.65.65 0 0 1 .432-.432c.456-.253.804-.648 1.146-1.036.145-.164.288-.326.438-.476.432-.48.8-.96 1.168-1.44.184-.24.368-.48.56-.72.074-.092.157-.185.243-.279.248-.275.514-.57.621-.945.121-.242.343-.533.539-.791l.052-.07.057-.075c.258-.31.442-.657.632-1.014l.001-.001c.074-.141.15-.283.231-.425.36-.864.72-1.728 1.224-2.448.337-.506.502-1.085.667-1.666.117-.413.234-.826.413-1.214.02-.298.067-.595.115-.894.124-.787.251-1.583-.115-2.418v-.216c0-1.008-.432-1.728-1.224-2.376-.741-.567-1.456-1.187-2.176-1.811a72.526 72.526 0 0 0-1.424-1.213 6.775 6.775 0 0 0-.094-.071l-.202-.155-.003-.002-.003-.003c-.458-.35-.893-.685-1.426-.921-1.008-.36-2.016-.576-3.024-.144-1.036.426-1.814 1.162-2.596 1.902a45.26 45.26 0 0 1-.428.402l-.144.216a54.569 54.569 0 0 1-1.8 2.52 2.316 2.316 0 0 1-.06.086l-.023.031-.034.045c-.121.162-.243.324-.243.486 0 .447-.226.724-.479 1.033h-.001l-.096.119c-.216.216-.36.432-.504.72-.28.663-.588 1.326-.897 1.993-.564 1.214-1.132 2.44-1.551 3.695l-.258.67c-.501 1.291-1.008 2.598-1.254 4.01 0 .144-.072.36-.144.504-.405.81-.62 1.747-.823 2.632l-.041.176c-.016.114-.036.231-.056.351v.001c-.07.409-.143.842-.088 1.232 0 .288-.072.576-.144.864-.216.504-.36 1.08-.504 1.656-.094.331-.127.693-.158 1.046-.017.184-.033.365-.058.538-.181.635-.22 1.269-.259 1.922v.002c-.024.383-.047.773-.101 1.172-.108.486-.094.972-.081 1.458l.003.103a12.688 12.688 0 0 1 .006.383c0 .864.144 1.728.432 2.592.157.416.388.795.613 1.163l.001.001v.001c.086.141.171.28.25.419a5.805 5.805 0 0 0 2.448 2.304c1.044.579 2.181 1.113 3.298 1.636l.005.003.007.003.417.196.227.106.15.072c.531.265 1.14.413 1.741.559.214.052.427.104.635.161zm-2.016-21.24c-.072-.072.072-.504.144-.576l.124-.324v-.001c.17-.443.322-.838.38-1.187.123-.337.219-.661.312-.972.125-.42.243-.816.408-1.188.097-.257.221-.514.349-.777.16-.327.324-.664.443-1.023.799-1.842 1.806-3.527 2.8-5.189.172-.287.343-.573.512-.86.792-1.295 1.872-2.303 3.168-3.167h.144c.024 0 .048-.008.072-.016.048-.016.096-.032.144.016.072 0 .216.288.216.288-.144 1.8-.432 3.744-1.368 5.256-.432.72-.792 1.368-1.152 2.088-.504 1.08-1.08 2.16-1.8 3.096l-.432.648c-.582 1.02-1.493 1.745-2.421 2.484-.448.357-.901.717-1.323 1.116 0 0 0 .072-.072.072a1.1 1.1 0 0 0-.118.07c-.171.106-.417.259-.53.146zm11.709 30.816c-.072.144.072.216.216.144.685-.214 1.293-.555 1.885-.888.405-.226.802-.449 1.211-.624.144 0 .216-.072.288-.144l1.368-1.152.108-.071c.157-.101.265-.171.324-.289.239-.389.529-.729.811-1.06.396-.465.779-.913.989-1.46a28.623 28.623 0 0 0 2.736-5.328c.22-.588.347-1.195.476-1.81.123-.591.248-1.191.46-1.79-.079-.236-.029-.472.021-.707.042-.197.084-.393.051-.589l.144-1.584c.072-.792.144-1.872.072-2.88 0-1.44-.288-2.736-.648-4.104-.216-.504-.504-.864-.864-1.224-.144-.144-.36-.072-.432.072l-.288.864c-.114.314-.217.64-.323.972a18.002 18.002 0 0 1-.541 1.548c-.138.332-.245.674-.352 1.019-.172.553-.346 1.113-.656 1.645-.072.144-.072.288-.072.36.072.504-.216 1.008-.432 1.368-.36 1.224-.792 2.376-1.224 3.528a41.887 41.887 0 0 1-.583 1.754c-.287.826-.574 1.647-.785 2.494-.104.285-.245.561-.386.837-.252.492-.504.986-.55 1.539-.323.461-.498.952-.677 1.454l-.001.001c-.1.281-.201.565-.33.849l-.313.787c-.474 1.195-.956 2.412-1.487 3.533-.093.14-.126.31-.157.471a2.115 2.115 0 0 1-.059.249v.216zm80.401-30.816c-.072-.072.072-.504.144-.576l.03-.08.016-.042.051-.134.021-.054.003-.009.002-.005.001-.002c.17-.442.322-.838.38-1.186.122-.337.218-.66.311-.971v-.001c.125-.42.243-.816.409-1.188a9.05 9.05 0 0 1 .349-.777c.159-.327.323-.664.443-1.023.798-1.842 1.806-3.528 2.8-5.19l.512-.858c.792-1.296 1.872-2.304 3.168-3.168h.144l.015-.001a.27.27 0 0 0 .034-.008l.023-.007c.048-.016.096-.032.144.016.072 0 .216.288.216.288-.144 1.8-.432 3.744-1.368 5.256-.432.72-.792 1.368-1.152 2.088-.504 1.08-1.08 2.16-1.8 3.096l-.432.648c-.583 1.02-1.493 1.745-2.422 2.484-.448.357-.9.717-1.322 1.116 0 0 0 .072-.072.072-.015.007-.032.017-.051.028a1.947 1.947 0 0 0-.038.023l-.03.019c-.17.106-.416.259-.529.146z" fill="#202020"/>
    <path d="M123.247 181.533h7.294v22.909h-7.294v-22.909zM126.901 178.863c-1.024 0-1.904-.338-2.64-1.014-.735-.686-1.103-1.511-1.103-2.476 0-.954.368-1.77 1.103-2.446.736-.686 1.616-1.029 2.64-1.029 1.034 0 1.914.343 2.64 1.029.736.676 1.104 1.492 1.104 2.446 0 .965-.368 1.79-1.104 2.476-.726.676-1.606 1.014-2.64 1.014zM7.313 204.442v-30.545h7.382v12.259h12.037v-12.259h7.367v30.545h-7.367v-12.275H14.694v12.275H7.312z" fill="#202020"/>
    <path fill-rule="evenodd" clip-rule="evenodd" d="M48.6 204.875c-2.397 0-4.465-.473-6.205-1.417a9.803 9.803 0 0 1-3.997-4.072c-.925-1.77-1.388-3.873-1.388-6.309 0-2.367.468-4.435 1.403-6.205.934-1.779 2.252-3.162 3.952-4.146 1.7-.994 3.704-1.491 6.01-1.491 1.631 0 3.123.253 4.475.76a9.62 9.62 0 0 1 3.505 2.252c.984.995 1.75 2.223 2.297 3.684.547 1.452.82 3.118.82 4.997v1.819H44.2v.194c0 .935.184 1.755.552 2.461.368.696.89 1.238 1.566 1.626.676.388 1.482.582 2.416.582.647 0 1.234-.09 1.76-.269.527-.179.98-.442 1.358-.79.377-.348.66-.776.85-1.283l6.697.194c-.279 1.501-.89 2.809-1.835 3.922-.935 1.104-2.163 1.964-3.684 2.581-1.521.606-3.281.91-5.28.91zm-3.804-16.347a4.116 4.116 0 0 0-.592 1.984h8.482c-.01-.776-.194-1.467-.552-2.074a3.75 3.75 0 0 0-1.477-1.416c-.616-.348-1.327-.522-2.132-.522-.816 0-1.547.183-2.193.551a4.063 4.063 0 0 0-1.536 1.477zM64.922 204.099c1.134.487 2.432.731 3.893.731 1.064 0 2.019-.134 2.864-.403a6.233 6.233 0 0 0 2.222-1.208 6.498 6.498 0 0 0 1.566-1.969h.18v3.192h6.86v-15.571c0-1.213-.254-2.292-.76-3.237a6.744 6.744 0 0 0-2.119-2.386c-.914-.656-1.988-1.153-3.221-1.491-1.233-.348-2.58-.522-4.042-.522-2.048 0-3.803.318-5.265.954-1.452.627-2.595 1.492-3.43 2.595a7.957 7.957 0 0 0-1.537 3.729l6.727.239c.159-.736.532-1.313 1.119-1.73.586-.418 1.362-.627 2.326-.627.895 0 1.606.209 2.133.627.527.417.79 1.009.79 1.774v.075c0 .467-.183.83-.551 1.089-.358.248-.935.442-1.73.581-.796.13-1.845.254-3.147.373-1.164.1-2.257.294-3.282.582-1.024.278-1.929.691-2.714 1.238a5.737 5.737 0 0 0-1.85 2.133c-.447.875-.67 1.949-.67 3.221 0 1.512.322 2.769.969 3.774.656.994 1.546 1.74 2.67 2.237zm8.263-4.519c-.626.318-1.332.477-2.118.477-.835 0-1.526-.199-2.073-.597-.537-.397-.805-.974-.805-1.73 0-.497.124-.924.373-1.282.258-.368.626-.667 1.103-.895.488-.229 1.074-.398 1.76-.507.338-.05.691-.105 1.06-.164.367-.06.725-.13 1.073-.209.348-.08.666-.164.955-.254.298-.089.551-.189.76-.298v2.178c0 .745-.189 1.402-.566 1.968a3.912 3.912 0 0 1-1.522 1.313zM94.494 204.77c-1.69 0-3.227-.437-4.609-1.312-1.382-.875-2.486-2.188-3.311-3.938-.825-1.75-1.238-3.922-1.238-6.518 0-2.694.428-4.912 1.283-6.652.855-1.74 1.973-3.027 3.356-3.863a8.576 8.576 0 0 1 4.489-1.252c1.203 0 2.232.208 3.087.626.855.408 1.561.935 2.118 1.581.557.646.98 1.317 1.268 2.013h.149v-11.558h7.293v30.545h-7.218v-3.714h-.224a7.17 7.17 0 0 1-1.313 1.984c-.566.616-1.277 1.114-2.132 1.491-.846.378-1.845.567-2.998.567zm2.535-5.682c.885 0 1.64-.249 2.267-.746.627-.507 1.109-1.218 1.447-2.133.338-.915.507-1.989.507-3.222 0-1.252-.169-2.331-.507-3.236-.328-.905-.81-1.601-1.447-2.088-.626-.487-1.382-.731-2.267-.731-.905 0-1.67.249-2.297.746-.626.497-1.103 1.198-1.431 2.103-.319.905-.478 1.973-.478 3.206 0 1.233.164 2.307.492 3.222.329.915.8 1.626 1.417 2.133.627.497 1.392.746 2.297.746z" fill="#202020"/>
    <path d="M119.445 204.442v-30.545h-7.293v30.545h7.293zM141.636 204.442v-13.065c.01-.875.169-1.621.477-2.238a3.366 3.366 0 0 1 1.343-1.416c.586-.339 1.263-.508 2.028-.508 1.154 0 2.053.358 2.7 1.074.656.716.979 1.711.969 2.983v13.17h7.294V189.84c.009-1.72-.319-3.221-.985-4.504-.656-1.292-1.581-2.297-2.774-3.013-1.183-.725-2.58-1.088-4.191-1.088-1.69 0-3.147.402-4.37 1.208-1.223.795-2.088 1.894-2.595 3.296h-.254v-4.206h-6.935v22.909h7.293z" fill="#202020"/>
    <path fill-rule="evenodd" clip-rule="evenodd" d="M170.831 204.875c-2.397 0-4.465-.473-6.205-1.417a9.805 9.805 0 0 1-3.997-4.072c-.925-1.77-1.387-3.873-1.387-6.309 0-2.367.467-4.435 1.402-6.205.935-1.779 2.252-3.162 3.952-4.146 1.701-.994 3.704-1.491 6.011-1.491 1.631 0 3.122.253 4.474.76a9.61 9.61 0 0 1 3.505 2.252c.985.995 1.75 2.223 2.297 3.684.547 1.452.821 3.118.821 4.997v1.819h-15.273v.194c0 .935.184 1.755.552 2.461.368.696.89 1.238 1.566 1.626.676.388 1.481.582 2.416.582a5.45 5.45 0 0 0 1.76-.269 3.758 3.758 0 0 0 1.357-.79c.378-.348.661-.776.85-1.283l6.697.194c-.278 1.501-.89 2.809-1.834 3.922-.935 1.104-2.163 1.964-3.684 2.581-1.522.606-3.282.91-5.28.91zm-3.804-16.347a4.12 4.12 0 0 0-.592 1.984h8.482c-.01-.776-.193-1.467-.551-2.074a3.754 3.754 0 0 0-1.477-1.416c-.616-.348-1.327-.522-2.133-.522-.815 0-1.546.183-2.192.551a4.06 4.06 0 0 0-1.537 1.477z" fill="#202020"/>
    <path d="M192.712 199.132v5.31h22.611v-5.951h-12.379v-.194l3.654-3.371c2.217-1.929 3.928-3.584 5.131-4.966 1.213-1.382 2.053-2.645 2.52-3.789a9.06 9.06 0 0 0 .701-3.46c0-1.829-.472-3.435-1.417-4.817-.934-1.392-2.257-2.476-3.967-3.252-1.71-.775-3.724-1.163-6.04-1.163-2.248 0-4.221.413-5.922 1.238-1.69.815-3.002 1.979-3.937 3.49-.935 1.511-1.402 3.306-1.402 5.384h6.995c0-.925.174-1.71.522-2.356a3.614 3.614 0 0 1 1.491-1.477c.637-.348 1.378-.522 2.223-.522.835 0 1.576.164 2.222.492a3.705 3.705 0 0 1 1.521 1.402c.368.597.552 1.318.552 2.163 0 .756-.154 1.457-.462 2.103-.308.636-.756 1.273-1.342 1.909a36.885 36.885 0 0 1-2.133 2.073l-11.142 9.754zM165.728 252.806h4.627v19.636h-4.627v-19.636zM168.054 250.019a2.7 2.7 0 0 1-1.892-.729c-.528-.494-.792-1.087-.792-1.777 0-.699.264-1.291.792-1.777a2.676 2.676 0 0 1 1.892-.741c.742 0 1.372.247 1.892.741.529.486.793 1.078.793 1.777 0 .69-.264 1.283-.793 1.777-.52.486-1.15.729-1.892.729zM20.303 250.85c.886.622 1.39 1.491 1.508 2.608h4.564c-.025-1.475-.439-2.779-1.24-3.912-.8-1.142-1.905-2.033-3.31-2.672-1.398-.648-3.026-.972-4.884-.972-1.833 0-3.473.324-4.922.972-1.449.639-2.595 1.538-3.44 2.697-.834 1.159-1.252 2.51-1.252 4.053 0 1.875.622 3.379 1.867 4.513 1.252 1.125 2.957 1.964 5.113 2.518l2.979.767c.937.239 1.755.512 2.454.818.708.299 1.258.674 1.65 1.125.392.444.592 1.006.6 1.688-.008.75-.234 1.406-.677 1.969-.443.554-1.057.988-1.841 1.304-.776.306-1.679.46-2.71.46-.989 0-1.884-.149-2.685-.448-.793-.298-1.436-.75-1.93-1.355-.495-.605-.776-1.363-.844-2.275H6.637c.068 1.738.52 3.213 1.355 4.423.844 1.21 2.011 2.131 3.503 2.761 1.5.631 3.268.946 5.305.946 2.097 0 3.882-.323 5.357-.971 1.483-.656 2.616-1.564 3.4-2.723.784-1.168 1.176-2.519 1.176-4.053 0-1.133-.213-2.122-.639-2.966a6.58 6.58 0 0 0-1.739-2.16 10.034 10.034 0 0 0-2.467-1.483 16.9 16.9 0 0 0-2.85-.933l-2.455-.614a15.706 15.706 0 0 1-1.598-.473 7.371 7.371 0 0 1-1.445-.69 3.406 3.406 0 0 1-1.035-1.023c-.248-.401-.371-.874-.371-1.419.008-.656.2-1.24.575-1.752.375-.511.916-.916 1.624-1.214.707-.298 1.555-.447 2.544-.447 1.406 0 2.548.311 3.426.933zM42.553 252.806v11.378c0 .997-.21 1.828-.627 2.492-.409.657-.933 1.151-1.572 1.483-.64.333-1.3.499-1.982.499-1.108 0-2.002-.366-2.684-1.099-.682-.733-1.023-1.722-1.023-2.966v-11.787h-4.628v12.503c0 1.568.277 2.906.831 4.014.554 1.099 1.321 1.939 2.301 2.518.989.571 2.127.857 3.414.857 1.474 0 2.714-.35 3.72-1.049 1.014-.698 1.743-1.598 2.186-2.697h.204v3.49h4.488v-19.636h-4.628z" fill="#202020"/>
    <path fill-rule="evenodd" clip-rule="evenodd" d="M51.424 272.442V246.26h4.628v9.793h.192a8.494 8.494 0 0 1 1.01-1.521c.434-.546 1.022-1.01 1.764-1.394.741-.392 1.687-.588 2.838-.588 1.517 0 2.885.388 4.104 1.163 1.227.767 2.198 1.905 2.914 3.414.725 1.5 1.087 3.341 1.087 5.522 0 2.157-.354 3.989-1.061 5.498-.708 1.508-1.67 2.659-2.89 3.451-1.218.793-2.599 1.189-4.141 1.189-1.125 0-2.059-.187-2.8-.562-.742-.375-1.338-.827-1.79-1.355a8.753 8.753 0 0 1-1.035-1.522h-.269v3.094h-4.551zm4.538-9.818c0 1.27.18 2.382.537 3.337.367.954.89 1.7 1.573 2.237.69.528 1.525.792 2.505.792 1.023 0 1.88-.272 2.57-.818.69-.554 1.21-1.308 1.56-2.263.358-.963.537-2.058.537-3.285 0-1.219-.175-2.301-.525-3.247-.349-.946-.869-1.688-1.56-2.225-.69-.537-1.55-.805-2.582-.805-.988 0-1.828.26-2.518.78-.69.52-1.215 1.248-1.572 2.186-.35.937-.525 2.041-.525 3.311z" fill="#202020"/>
    <path d="M77.803 272.442v-11.506c0-.946.179-1.751.537-2.416a3.753 3.753 0 0 1 1.508-1.521c.648-.358 1.381-.537 2.2-.537 1.218 0 2.164.371 2.837 1.112.682.733 1.023 1.76 1.023 3.081v11.787h4.628v-12.503c0-1.585-.281-2.927-.844-4.027-.554-1.099-1.338-1.934-2.352-2.505-1.014-.571-2.203-.857-3.567-.857-1.5 0-2.736.324-3.707.972-.963.639-1.675 1.512-2.135 2.62h-.23v-9.882h-4.526v26.182h4.628z" fill="#202020"/>
    <path fill-rule="evenodd" clip-rule="evenodd" d="M103.227 272.826c-1.969 0-3.67-.409-5.101-1.228-1.424-.826-2.519-1.994-3.286-3.503-.767-1.517-1.15-3.302-1.15-5.356 0-2.02.383-3.793 1.15-5.318.776-1.534 1.858-2.728 3.247-3.58 1.39-.861 3.022-1.291 4.897-1.291 1.21 0 2.352.196 3.426.588a7.74 7.74 0 0 1 2.863 1.79c.836.81 1.492 1.841 1.969 3.094.477 1.244.716 2.727.716 4.448v1.42H98.28c.013 1.092.222 2.034.626 2.825.417.809 1 1.432 1.751 1.866.75.426 1.628.639 2.633.639a5.59 5.59 0 0 0 1.829-.281 4.063 4.063 0 0 0 1.419-.856c.4-.375.703-.84.907-1.394l4.321.486a6.734 6.734 0 0 1-1.559 2.992c-.759.843-1.73 1.5-2.915 1.968-1.185.46-2.54.691-4.065.691zm-4.347-14.191a5.096 5.096 0 0 0-.591 2.135h9.233c-.009-.886-.2-1.675-.575-2.365a4.181 4.181 0 0 0-1.573-1.649c-.665-.401-1.44-.601-2.326-.601-.946 0-1.777.23-2.493.69a4.76 4.76 0 0 0-1.675 1.79zM117.442 272.174c.997.443 2.117.664 3.362.664 1.022 0 1.913-.14 2.672-.421.767-.29 1.402-.67 1.904-1.138a5.65 5.65 0 0 0 1.189-1.534h.154v2.697h4.449V259.3c0-1.304-.239-2.391-.716-3.26-.469-.869-1.091-1.555-1.867-2.058a7.941 7.941 0 0 0-2.569-1.1 12.285 12.285 0 0 0-2.826-.332c-1.372 0-2.625.205-3.758.614-1.134.4-2.092 1.005-2.877 1.815-.784.801-1.346 1.798-1.687 2.991l4.321.614c.23-.673.673-1.257 1.33-1.751.664-.495 1.563-.742 2.697-.742 1.074 0 1.896.264 2.467.793.571.528.857 1.274.857 2.237v.077c0 .443-.166.771-.499.984-.324.205-.844.358-1.559.46-.716.094-1.65.201-2.8.32a19.27 19.27 0 0 0-2.774.499 8.41 8.41 0 0 0-2.391.984 4.751 4.751 0 0 0-1.675 1.739c-.409.724-.613 1.64-.613 2.748 0 1.287.285 2.369.856 3.247a5.492 5.492 0 0 0 2.353 1.995zm6.98-3.286c-.682.367-1.488.55-2.417.55-.963 0-1.755-.218-2.377-.652-.623-.435-.934-1.078-.934-1.931 0-.596.158-1.082.473-1.457.316-.383.746-.682 1.292-.895a8.09 8.09 0 0 1 1.853-.46l.783-.11.304-.043c.418-.06.839-.128 1.266-.205.426-.077.809-.166 1.15-.268.35-.103.597-.214.742-.333v2.314c0 .724-.188 1.394-.563 2.007-.366.614-.891 1.108-1.572 1.483zM142.392 272.787c-1.543 0-2.923-.396-4.142-1.189-1.219-.792-2.182-1.943-2.889-3.451-.708-1.509-1.061-3.341-1.061-5.498 0-2.181.358-4.022 1.074-5.522.724-1.509 1.7-2.647 2.927-3.414 1.227-.775 2.595-1.163 4.104-1.163 1.15 0 2.096.196 2.838.588.741.384 1.329.848 1.764 1.394a8.495 8.495 0 0 1 1.01 1.521h.192v-9.793h4.64v26.182h-4.551v-3.094h-.281c-.239.478-.584.985-1.036 1.522-.451.528-1.048.98-1.789 1.355-.742.375-1.675.562-2.8.562zm1.291-3.797c.98 0 1.816-.264 2.506-.792.69-.537 1.214-1.283 1.572-2.237.358-.955.537-2.067.537-3.337s-.179-2.374-.537-3.311c-.349-.938-.869-1.666-1.559-2.186-.682-.52-1.522-.78-2.519-.78-1.031 0-1.892.268-2.582.805-.691.537-1.21 1.279-1.56 2.225-.349.946-.524 2.028-.524 3.247 0 1.227.175 2.322.524 3.285.358.955.882 1.709 1.573 2.263.698.546 1.555.818 2.569.818z" fill="#202020"/>
    <path d="M161.689 272.442V246.26h-4.628v26.182h4.628zM174.394 272.442h4.628v-11.506c0-.946.175-1.751.524-2.416a3.719 3.719 0 0 1 1.47-1.521c.631-.358 1.351-.537 2.161-.537 1.193 0 2.126.371 2.8 1.112.681.742 1.022 1.769 1.022 3.081v11.787h4.628v-12.503c.009-1.568-.268-2.902-.831-4.001-.554-1.1-1.338-1.939-2.352-2.519-1.006-.579-2.186-.869-3.541-.869-1.466 0-2.698.324-3.695.972a5.607 5.607 0 0 0-2.16 2.62h-.23v-3.336h-4.424v19.636z" fill="#202020"/>
    <path fill-rule="evenodd" clip-rule="evenodd" d="M204.305 272.826c-1.969 0-3.669-.409-5.101-1.228-1.423-.826-2.518-1.994-3.285-3.503-.767-1.517-1.151-3.302-1.151-5.356 0-2.02.384-3.793 1.151-5.318.775-1.534 1.858-2.728 3.247-3.58 1.389-.861 3.021-1.291 4.896-1.291 1.21 0 2.352.196 3.426.588a7.745 7.745 0 0 1 2.864 1.79c.835.81 1.491 1.841 1.969 3.094.477 1.244.715 2.727.715 4.448v1.42h-13.678c.014 1.092.222 2.034.626 2.825.418.809 1.001 1.432 1.751 1.866.75.426 1.628.639 2.634.639.673 0 1.283-.093 1.828-.281a4.063 4.063 0 0 0 1.419-.856 3.57 3.57 0 0 0 .908-1.394l4.321.486a6.746 6.746 0 0 1-1.56 2.992c-.758.843-1.73 1.5-2.915 1.968-1.184.46-2.539.691-4.065.691zm-4.347-14.191a5.1 5.1 0 0 0-.591 2.135h9.233c-.008-.886-.2-1.675-.575-2.365a4.185 4.185 0 0 0-1.572-1.649c-.665-.401-1.441-.601-2.327-.601-.946 0-1.777.23-2.493.69a4.766 4.766 0 0 0-1.675 1.79zM7.643 334.442v-21.818h7.372c1.711 0 3.11.308 4.197.926 1.094.611 1.904 1.439 2.43 2.483.525 1.044.788 2.208.788 3.494 0 1.285-.263 2.454-.789 3.505-.518 1.051-1.32 1.889-2.407 2.514-1.087.618-2.48.927-4.177.927h-4.772v7.969H7.643zm7.33-10.313h-4.688v-9.162h4.645c1.186 0 2.137.199 2.855.597.717.39 1.235.93 1.555 1.619.327.689.49 1.47.49 2.344 0 .874-.163 1.658-.49 2.354-.32.689-.834 1.236-1.545 1.641-.71.405-1.651.607-2.823.607zM30.56 334.825c-1.037 0-1.978-.195-2.823-.586a4.838 4.838 0 0 1-2.014-1.715c-.497-.753-.745-1.662-.745-2.727 0-.938.184-1.698.554-2.28a3.915 3.915 0 0 1 1.48-1.385 7.8 7.8 0 0 1 2.046-.746 24.91 24.91 0 0 1 2.269-.404c.994-.128 1.8-.224 2.418-.288.625-.071 1.08-.188 1.364-.352.291-.163.437-.447.437-.852v-.085c0-1.051-.288-1.868-.863-2.451-.568-.582-1.431-.873-2.589-.873-1.2 0-2.141.263-2.823.788-.682.526-1.161 1.087-1.438 1.684l-2.387-.853c.426-.994.995-1.768 1.705-2.322a6.387 6.387 0 0 1 2.344-1.172 9.743 9.743 0 0 1 2.514-.341c.525 0 1.13.064 1.81.192a5.811 5.811 0 0 1 1.993.756c.646.384 1.183.963 1.609 1.737.426.774.639 1.811.639 3.11v10.782h-2.514v-2.216h-.128c-.17.355-.455.735-.852 1.14-.398.405-.927.749-1.588 1.033-.66.284-1.466.426-2.418.426zm.384-2.258c.994 0 1.832-.196 2.514-.586.689-.391 1.207-.895 1.555-1.513a3.857 3.857 0 0 0 .533-1.95v-2.301c-.107.128-.341.245-.703.352-.356.099-.767.188-1.236.266-.462.071-.913.135-1.353.192-.433.05-.785.092-1.055.128a9.646 9.646 0 0 0-1.832.415c-.561.185-1.016.465-1.364.842-.34.369-.511.873-.511 1.513 0 .873.323 1.534.97 1.981.653.441 1.48.661 2.482.661z" fill="#202020"/>
    <path d="M42.049 318.078v16.364h2.514v-10.355c0-.739.178-1.396.533-1.971a3.775 3.775 0 0 1 1.47-1.364c.625-.334 1.335-.501 2.13-.501.335 0 .65.025.949.075.305.043.5.075.586.096v-2.557a9.293 9.293 0 0 0-.629-.032 28.609 28.609 0 0 0-.692-.011c-.98 0-1.861.253-2.642.757-.782.504-1.321 1.161-1.62 1.971h-.17v-2.472h-2.43z" fill="#202020"/>
    <path fill-rule="evenodd" clip-rule="evenodd" d="M57.426 334.825c-1.037 0-1.978-.195-2.823-.586a4.838 4.838 0 0 1-2.013-1.715c-.497-.753-.746-1.662-.746-2.727 0-.938.185-1.698.554-2.28a3.915 3.915 0 0 1 1.48-1.385 7.799 7.799 0 0 1 2.046-.746c.753-.17 1.51-.305 2.27-.404.994-.128 1.8-.224 2.418-.288.625-.071 1.08-.188 1.363-.352.292-.163.437-.447.437-.852v-.085c0-1.051-.288-1.868-.863-2.451-.568-.582-1.43-.873-2.588-.873-1.2 0-2.142.263-2.824.788-.681.526-1.16 1.087-1.438 1.684l-2.386-.853c.426-.994.994-1.768 1.704-2.322a6.387 6.387 0 0 1 2.344-1.172 9.744 9.744 0 0 1 2.514-.341c.526 0 1.13.064 1.811.192a5.811 5.811 0 0 1 1.992.756c.647.384 1.183.963 1.61 1.737.425.774.638 1.811.638 3.11v10.782h-2.514v-2.216h-.128c-.17.355-.454.735-.852 1.14-.398.405-.927.749-1.587 1.033-.66.284-1.467.426-2.419.426zm.384-2.258c.994 0 1.832-.196 2.514-.586.689-.391 1.208-.895 1.556-1.513a3.857 3.857 0 0 0 .532-1.95v-2.301c-.106.128-.34.245-.703.352-.355.099-.767.188-1.236.266-.461.071-.912.135-1.353.192-.433.05-.784.092-1.054.128a9.646 9.646 0 0 0-1.833.415c-.56.185-1.015.465-1.363.842-.341.369-.512.873-.512 1.513 0 .873.323 1.534.97 1.981.653.441 1.48.661 2.482.661zM72.388 340.45c.874.313 1.918.469 3.132.469 1.307 0 2.493-.21 3.559-.629 1.072-.411 1.924-1.061 2.556-1.949.64-.881.96-2.024.96-3.431v-16.832h-2.43v2.6h-.255a16.718 16.718 0 0 0-.789-1.087c-.334-.448-.816-.845-1.449-1.193-.625-.355-1.47-.533-2.535-.533-1.378 0-2.592.344-3.644 1.033-1.05.682-1.871 1.648-2.46 2.898-.59 1.243-.885 2.703-.885 4.379 0 1.704.302 3.153.906 4.346.61 1.193 1.438 2.103 2.482 2.728 1.051.625 2.237.937 3.558.937 1.066 0 1.91-.167 2.536-.501.632-.341 1.115-.728 1.449-1.161.34-.44.603-.81.788-1.108h.213v3.324c0 1.364-.43 2.365-1.289 3.004-.86.639-1.95.959-3.27.959-.988 0-1.787-.146-2.398-.437-.603-.284-1.08-.621-1.427-1.012a15.546 15.546 0 0 1-.863-1.023l-2.003 1.407c.341.568.8 1.101 1.374 1.598.583.504 1.31.909 2.184 1.214zm5.604-9.215c-.696.462-1.548.693-2.557.693-1.05 0-1.932-.246-2.642-.736-.703-.497-1.236-1.179-1.598-2.045-.355-.874-.532-1.879-.532-3.015 0-1.108.174-2.116.522-3.025.355-.91.884-1.634 1.587-2.174.71-.54 1.598-.809 2.663-.809 1.023 0 1.882.255 2.578.767.696.511 1.222 1.218 1.577 2.12.355.902.533 1.942.533 3.121 0 1.207-.181 2.244-.544 3.111-.362.866-.89 1.53-1.587 1.992z" fill="#202020"/>
    <path d="M86.597 334.442v-16.364h2.429v2.472h.17c.298-.81.838-1.467 1.62-1.971.78-.504 1.661-.757 2.641-.757.185 0 .416.004.693.011.277.007.486.018.628.032v2.557a7.801 7.801 0 0 0-.586-.096 5.735 5.735 0 0 0-.948-.075c-.795 0-1.505.167-2.13.501a3.775 3.775 0 0 0-1.47 1.364c-.356.575-.533 1.232-.533 1.971v10.355h-2.514z" fill="#202020"/>
    <path fill-rule="evenodd" clip-rule="evenodd" d="M99.15 334.239c.846.391 1.787.586 2.824.586.952 0 1.758-.142 2.418-.426.661-.284 1.19-.628 1.588-1.033.397-.405.682-.785.852-1.14h.128v2.216h2.514V323.66c0-1.299-.213-2.336-.639-3.11-.426-.774-.963-1.353-1.609-1.737a5.808 5.808 0 0 0-1.992-.756 9.956 9.956 0 0 0-1.811-.192c-.824 0-1.662.114-2.514.341a6.39 6.39 0 0 0-2.344 1.172c-.71.554-1.278 1.328-1.705 2.322l2.387.853c.277-.597.756-1.158 1.438-1.684.682-.525 1.623-.788 2.823-.788 1.158 0 2.021.291 2.589.873.575.583.863 1.4.863 2.451v.085c0 .405-.146.689-.437.852-.284.164-.739.281-1.364.352-.617.064-1.424.16-2.418.288-.76.099-1.516.234-2.269.404a7.799 7.799 0 0 0-2.045.746 3.916 3.916 0 0 0-1.481 1.385c-.37.582-.554 1.342-.554 2.28 0 1.065.248 1.974.745 2.727a4.837 4.837 0 0 0 2.014 1.715zm5.722-2.258c-.682.39-1.52.586-2.514.586-1.002 0-1.829-.22-2.483-.661-.646-.447-.97-1.108-.97-1.981 0-.64.171-1.144.512-1.513.348-.377.803-.657 1.364-.842a9.645 9.645 0 0 1 1.832-.415c.27-.036.622-.078 1.055-.128.44-.057.891-.121 1.353-.192a11.93 11.93 0 0 0 1.236-.266c.362-.107.596-.224.703-.352v2.301c0 .682-.178 1.332-.533 1.95-.348.618-.866 1.122-1.555 1.513zM113.463 340.578v-22.5h2.429v2.6h.298c.185-.285.441-.647.767-1.087.334-.448.81-.845 1.428-1.193.625-.355 1.47-.533 2.535-.533 1.378 0 2.593.344 3.644 1.033 1.051.689 1.871 1.666 2.461 2.93.589 1.264.884 2.756.884 4.475 0 1.732-.295 3.235-.884 4.506-.59 1.264-1.406 2.244-2.45 2.94-1.045.689-2.248 1.034-3.612 1.034-1.051 0-1.893-.174-2.525-.522-.632-.356-1.118-.757-1.459-1.204a16.443 16.443 0 0 1-.789-1.129h-.213v8.65h-2.514zm2.472-14.318c0 1.236.181 2.326.543 3.27.362.938.891 1.673 1.587 2.206.696.525 1.549.788 2.557.788 1.051 0 1.928-.277 2.631-.831.711-.561 1.243-1.314 1.598-2.258.363-.952.544-2.01.544-3.175 0-1.151-.178-2.188-.533-3.111-.348-.93-.877-1.665-1.587-2.205-.703-.547-1.588-.82-2.653-.82-1.023 0-1.882.259-2.578.777-.696.512-1.222 1.229-1.577 2.152-.355.916-.532 1.985-.532 3.207z" fill="#202020"/>
    <path d="M133.658 334.442v-9.844c0-.952.185-1.761.554-2.429a3.812 3.812 0 0 1 1.535-1.523c.653-.348 1.392-.522 2.215-.522 1.187 0 2.113.358 2.781 1.076.675.71 1.012 1.715 1.012 3.014v10.228h2.514v-10.398c0-1.406-.234-2.564-.703-3.473-.462-.916-1.111-1.594-1.949-2.035-.839-.447-1.815-.671-2.93-.671-1.286 0-2.315.252-3.09.756a4.627 4.627 0 0 0-1.725 2.014h-.214v-8.011h-2.514v21.818h2.514z" fill="#202020"/>
</svg>
