<svg width="600" height="283" viewBox="0 0 600 283" fill="none" xmlns="http://www.w3.org/2000/svg">
    <path d="M178.625 208.483c-28.938 2.004-75.937 3.317-83.243-.395-4.082-1.219 2.267-25.082 6.048-28.338 1.338-1.153 3.731-1.274 15.372 1.213 8.803 1.881 62.283-.988 69.335-1.12 1.513-.027 12.447-.11 23.865-.09 36.444.063 103.397-1.689 109.776-1.691 7.471-.006 50.846.414 68.43-.936 9.267-.711 11.2-.409 20.102-.429 13.576-.027 92.081-2.772 97.641-2.715.941.011 4.025.302 4.979-.044 1.217-.439 34.999-4.452 37.077-2.012 2.808 3.294-1.995 22.675-6.056 27.1-2.092 2.282-9.541.527-18.379 1.14-10.12.702-80.488 2.476-117.609 3.06 0 0-28.792 2.971-34.539 1.582-2.259-.547-15.204-.179-20.529.044-3.013.129-159.053 2.717-172.27 3.631z" fill="#CF0"/>
    <path d="M162.986 147.906a25.345 25.345 0 0 0-1.62-3.052c-.379-.667-.762-1.337-1.239-2.004l-29.922-46.56h-10.478v66.786h9.908v-51.614c.288.763.954 2.003 1.62 3.055.378.667.759 1.337 1.239 2.004l29.919 46.558h10.478v-60.108h-9.905v44.935zm42.226-33.488c-12.48 0-25.247 8.68-25.247 24.997 0 16.507 12.767 24.998 25.247 24.998 12.485 0 25.25-8.491 25.25-24.998 0-16.314-12.767-24.997-25.25-24.997zm0 41.026c-8.291 0-15.339-6.39-15.339-16.026 0-9.635 7.048-16.032 15.339-16.032s15.342 6.394 15.342 16.032-7.051 16.026-15.342 16.026zm42.045-31.676v-8.013h-9.722v47.321h9.722v-24.901c0-8.398 4.861-14.599 11.814-14.599 1.242 0 2.481.192 3.717.571l1.618-9.254c-1.239-.288-2.284-.475-3.523-.475-6.481 0-11.054 3.72-13.626 9.35zm38.094 31.866c-4.573 0-6.478-2.292-6.478-6.967v-25.091h10.574v-7.821h-10.574v-12.784h-9.722v47.417c0 10.78 6.29 14.025 13.53 14.025 2.764 0 5.239-.475 7.052-1.145l-.859-8.205c-1.047.285-2.475.571-3.523.571zm37.223-41.216c-6.862 0-12.864 3.624-16.389 9.254V96.289h-9.722v66.787h9.722v-24.997c0-8.873 6.001-14.695 12.959-14.695 6.479 0 10.479 3.818 10.479 10.689v29.003h9.721v-31.962c0-10.876-7.624-16.696-16.77-16.696zm53.51 0c-7.336 0-13.817 3.912-16.77 8.587v-7.25h-9.722v71.152h9.722v-30.315c3.049 4.862 9.05 7.821 15.91 7.821 12.674 0 22.678-9.735 22.678-24.998.003-15.647-10.001-24.997-21.818-24.997zm-2.335 41.026c-8.099 0-14.673-6.486-14.673-16.026 0-9.539 6.574-16.032 14.673-16.032 8.098 0 14.673 6.49 14.673 16.032s-6.575 16.026-14.673 16.026zm40.465-31.676v-8.013h-9.721v47.321h9.721v-24.901c0-8.398 4.861-14.599 11.814-14.599 1.242 0 2.481.192 3.717.571l1.621-9.254c-1.242-.288-2.29-.475-3.526-.475-6.481 0-11.054 3.72-13.626 9.35zm22.265 39.308h9.722v-47.321h-9.722v47.321zm-.669-55.815h11.054V96.289H435.81v10.972zm73.118 7.157c-6.481 0-11.454 2.229-15.224 7.942-1.999-5.202-6.308-7.942-12.79-7.942-5.716 0-10.958 2.729-13.91 7.692v-6.355h-9.722v47.321h9.722v-26.049c0-9.446 4.956-14.025 10.67-14.025 5.239 0 7.816 3.723 7.816 9.065v31.006h9.716v-26.049c0-9.921 4.669-14.025 10.388-14.025 5.716 0 8.195 3.339 8.195 8.777v31.294h9.716v-34.627c-.003-8.397-5.524-14.025-14.577-14.025z" fill="#202020"/>
    <path d="M316.534 9.614c.358.003.716.071 1.074.205.358.133.685.355.98.665.296.306.533.726.712 1.257.179.531.269 1.197.269 1.998 0 .776-.074 1.465-.222 2.067-.145.6-.355 1.105-.631 1.517a2.79 2.79 0 0 1-.997.938c-.389.213-.829.32-1.321.32-.489 0-.925-.097-1.308-.29a2.572 2.572 0 0 1-.938-.814 2.838 2.838 0 0 1-.464-1.215h1.04c.093.4.28.732.558.993.281.259.652.388 1.112.388.673 0 1.205-.294 1.594-.882.392-.588.588-1.42.588-2.493h-.068a2.67 2.67 0 0 1-.567.618 2.503 2.503 0 0 1-1.581.54c-.5 0-.959-.123-1.376-.37a2.813 2.813 0 0 1-.998-1.027c-.247-.437-.37-.937-.37-1.5 0-.534.119-1.023.358-1.466a2.762 2.762 0 0 1 1.014-1.065c.437-.264.952-.392 1.542-.384zm0 .938c-.357 0-.68.09-.967.268-.284.176-.51.415-.677.716-.165.299-.248.63-.248.993 0 .364.08.695.239.993.162.296.382.531.661.707.281.174.6.26.958.26.27 0 .522-.052.755-.157a1.95 1.95 0 0 0 .609-.44c.176-.187.314-.398.413-.634a1.95 1.95 0 0 0-.098-1.704 1.961 1.961 0 0 0-.673-.725 1.744 1.744 0 0 0-.972-.277zm8.03-.818 2.25 3.63h.068l2.25-3.63h1.245l-2.745 4.363 2.745 4.364h-1.245l-2.25-3.563h-.068l-2.25 3.563h-1.244l2.812-4.364-2.812-4.363h1.244zM203.99 273.96l2.25 3.631h.068l2.25-3.631h1.245l-2.745 4.364 2.745 4.364h-1.245l-2.25-3.563h-.068l-2.25 3.563h-1.244l2.812-4.364-2.812-4.364h1.244zM27.373 233.562l2.25 3.63h.068l2.25-3.63h1.244l-2.744 4.363 2.744 4.364h-1.244l-2.25-3.562h-.068l-2.25 3.562h-1.244l2.812-4.364-2.812-4.363h1.244zM27.373 49.331l2.25 3.631h.068l2.25-3.63h1.244l-2.744 4.363 2.744 4.364h-1.244l-2.25-3.563h-.068l-2.25 3.563h-1.244l2.812-4.364-2.812-4.364h1.244zM66.672 10.546l2.25 3.63h.068l2.25-3.63h1.244L69.74 14.91l2.744 4.363H71.24l-2.25-3.562h-.068l-2.25 3.562h-1.245l2.813-4.363-2.813-4.364h1.245zM575.543 3.273l2.25 3.63h.068l2.25-3.63h1.244l-2.744 4.363L581.355 12h-1.244l-2.25-3.563h-.068L575.543 12h-1.244l2.812-4.364-2.812-4.363h1.244zM.903 148.555v-.767l2.881-3.154c.338-.369.617-.69.835-.963a3.56 3.56 0 0 0 .486-.775c.108-.245.162-.5.162-.767 0-.307-.074-.573-.222-.797a1.433 1.433 0 0 0-.596-.52 1.936 1.936 0 0 0-.852-.183c-.336 0-.628.069-.878.208a1.438 1.438 0 0 0-.576.576c-.133.247-.2.537-.2.869H.937c0-.511.118-.96.354-1.347a2.46 2.46 0 0 1 .963-.903c.41-.216.868-.324 1.377-.324.511 0 .964.108 1.36.324.394.216.704.507.928.874.224.366.337.774.337 1.223 0 .321-.059.634-.175.941-.114.304-.313.644-.597 1.019-.28.372-.671.826-1.171 1.363l-1.96 2.097v.068h4.056v.938H.903zm10.611-4.091v-3.708h-.042l-1.142.759v-.903l1.184-.785h.887v4.637h-.887zm-.431 4.091 6-8.728h.972l-6 8.728h-.972zm4.31-.836v-.698l2.233-3.103h.614v.972h-.375l-1.551 2.097v.017h3.068v.715h-3.989zm2.49.836v-1.057l.016-.307v-3.273h.835v4.637h-.852zm6.076-8.728 2.25 3.631h.068l2.25-3.631h1.244l-2.744 4.364 2.744 4.364h-1.244l-2.25-3.563h-.068l-2.25 3.563h-1.244l2.812-4.364-2.812-4.364h1.244z" fill="gray"/>
    <path stroke="gray" stroke-width=".806" stroke-dasharray="4.03 4.03" d="M43.95 31.11h50v229.48h-50zM549.599 31.11h50v229.48h-50z"/>
    <path stroke="gray" stroke-width=".806" stroke-dasharray="4.03 4.03" d="M599.597 210.489v50.099H43.952v-50.099zM599.597 31.11v50.1H43.952v-50.1z"/>
    <path d="M179.836 81.61v179.38M230.645 81.61v179.38" stroke="gray" stroke-width=".403" stroke-dasharray="4.03 4.03"/>
    <path d="M334.807 239.827a5.664 5.664 0 0 1-1.2 1.94c-.52.533-1.134.94-1.84 1.22-.694.28-1.454.42-2.28.42-1.254 0-2.34-.273-3.26-.82-.907-.56-1.614-1.347-2.12-2.36-.494-1.013-.74-2.22-.74-3.62s.246-2.607.74-3.62c.506-1.013 1.213-1.793 2.12-2.34.92-.56 1.993-.84 3.22-.84.853 0 1.613.12 2.28.36a4.347 4.347 0 0 1 1.7 1.04 4.86 4.86 0 0 1 1.14 1.68l-1.58.74c-.294-.76-.72-1.333-1.28-1.72-.547-.4-1.26-.6-2.14-.6-.894 0-1.68.213-2.36.64-.68.413-1.214 1.013-1.6 1.8-.374.787-.56 1.74-.56 2.86 0 1.107.18 2.06.54 2.86.36.787.873 1.393 1.54 1.82.666.413 1.453.62 2.36.62.88 0 1.646-.22 2.3-.66.653-.453 1.126-1.127 1.42-2.02l1.6.6zm4.671 1.88h7.56v1.5h-9.16v-13.2h1.6v11.7zm10.353 1.5v-13.2h9.26v1.5h-7.66v4.26h5.96v1.5h-5.96v4.44h7.96v1.5h-9.56zm23.274 0h-1.7l-1.4-3.66h-5.98l-1.4 3.66h-1.68l5.14-13.2h1.9l5.12 13.2zm-8.5-5.16h4.82l-2.42-6.5-2.4 6.5zm16.183-8.04c1.347 0 2.427.347 3.24 1.04.813.693 1.22 1.633 1.22 2.82 0 1.187-.413 2.113-1.24 2.78-.813.653-1.893.98-3.24.98l-.14.1h-3.24v5.48h-1.6v-13.2h5zm-.02 6.22c.947 0 1.647-.193 2.1-.58.467-.4.7-.993.7-1.78s-.233-1.373-.7-1.76c-.453-.4-1.153-.6-2.1-.6h-3.38v4.72h3.38zm.92.32 4.36 6.66h-1.9l-3.8-5.78 1.34-.88zm18.457-6.74c1.16 0 2.16.24 3 .72.84.467 1.54 1.16 2.1 2.08l-1.34 1.04c-.493-.853-1.053-1.453-1.68-1.8-.613-.36-1.36-.54-2.24-.54-.707 0-1.293.1-1.76.3-.453.2-.787.467-1 .8a1.94 1.94 0 0 0-.32 1.1c0 .467.147.88.44 1.24.293.347.88.62 1.76.82l2.86.64c1.267.28 2.147.707 2.64 1.28.507.56.76 1.26.76 2.1 0 .747-.213 1.413-.64 2-.413.573-1 1.02-1.76 1.34-.76.32-1.653.48-2.68.48-.96 0-1.807-.127-2.54-.38a6.168 6.168 0 0 1-1.86-1.06 6.074 6.074 0 0 1-1.28-1.48l1.4-1.14c.253.507.58.953.98 1.34.4.387.88.687 1.44.9.573.213 1.227.32 1.96.32.68 0 1.267-.08 1.76-.24.507-.173.893-.42 1.16-.74.267-.333.4-.733.4-1.2 0-.427-.14-.807-.42-1.14-.28-.347-.807-.607-1.58-.78l-3.1-.7c-.813-.187-1.473-.44-1.98-.76-.493-.333-.853-.72-1.08-1.16a3.39 3.39 0 0 1-.32-1.46c0-.707.193-1.353.58-1.94.4-.6.967-1.08 1.7-1.44.747-.36 1.627-.54 2.64-.54zm13.233.2c.893 0 1.666.167 2.32.5.666.32 1.186.78 1.56 1.38.373.6.56 1.313.56 2.14 0 .827-.187 1.54-.56 2.14a3.793 3.793 0 0 1-1.56 1.4c-.654.32-1.427.48-2.32.48h-3.06v5.16h-1.6v-13.2h4.66zm-.24 6.54c1.04 0 1.8-.213 2.28-.64.48-.44.72-1.067.72-1.88 0-.827-.24-1.453-.72-1.88-.48-.427-1.24-.64-2.28-.64h-2.82v5.04h2.82zm17.35 6.66h-1.7l-1.4-3.66h-5.98l-1.4 3.66h-1.68l5.14-13.2h1.9l5.12 13.2zm-8.5-5.16h4.82l-2.42-6.5-2.4 6.5zm21.373 1.78a5.664 5.664 0 0 1-1.2 1.94 5.23 5.23 0 0 1-1.84 1.22c-.693.28-1.453.42-2.28.42-1.253 0-2.34-.273-3.26-.82-.906-.56-1.613-1.347-2.12-2.36-.493-1.013-.74-2.22-.74-3.62s.247-2.607.74-3.62c.507-1.013 1.214-1.793 2.12-2.34.92-.56 1.994-.84 3.22-.84.854 0 1.614.12 2.28.36a4.333 4.333 0 0 1 1.7 1.04 4.86 4.86 0 0 1 1.14 1.68l-1.58.74c-.293-.76-.72-1.333-1.28-1.72-.546-.4-1.26-.6-2.14-.6-.893 0-1.68.213-2.36.64-.68.413-1.213 1.013-1.6 1.8-.373.787-.56 1.74-.56 2.86 0 1.107.18 2.06.54 2.86.36.787.874 1.393 1.54 1.82.667.413 1.454.62 2.36.62.88 0 1.647-.22 2.3-.66.654-.453 1.127-1.127 1.42-2.02l1.6.6zm3.071 3.38v-13.2h9.26v1.5h-7.66v4.26h5.96v1.5h-5.96v4.44h7.96v1.5h-9.56z" fill="gray"/>
</svg>
