<svg width="686" height="172" viewBox="0 0 686 172" fill="none" xmlns="http://www.w3.org/2000/svg">
    <path d="M127.555 169.049c-43.65 3.019-114.544 4.996-125.565-.596-6.157-1.836 3.42-37.792 9.123-42.698 2.018-1.737 5.628-1.919 23.188 1.828 13.278 2.834 93.948-1.489 104.585-1.687 2.282-.042 18.775-.166 35.999-.137 54.972.095 155.963-2.544 165.587-2.548 11.269-.008 76.695.625 103.22-1.41 13.978-1.071 16.893-.616 30.321-.645 20.479-.042 138.897-4.178 147.284-4.091 1.418.016 6.07.455 7.51-.066 1.836-.662 52.793-6.709 55.927-3.032 4.235 4.963-3.01 34.165-9.135 40.832-3.155 3.438-14.391.795-27.724 1.717-15.264 1.059-121.408 3.731-177.402 4.612 0 0-43.43 4.475-52.098 2.382-3.408-.823-22.935-.269-30.966.066-4.545.195-239.918 4.095-259.854 5.473z" fill="#CF0"/>
    <path d="M103.964 77.773c-.434-1.005-1.439-3.02-2.444-4.6-.571-1.005-1.15-2.014-1.87-3.019L54.518 0H38.71v100.63h14.945V22.86c.435 1.15 1.44 3.02 2.444 4.604.571 1.006 1.146 2.015 1.87 3.02l45.13 70.15h15.805V10.067h-14.941v67.706zm63.694-50.457c-18.825 0-38.083 13.078-38.083 37.664 0 24.87 19.258 37.664 38.083 37.664 18.833 0 38.087-12.793 38.087-37.664 0-24.582-19.258-37.665-38.087-37.665zm0 61.815c-12.506 0-23.138-9.629-23.138-24.147 0-14.518 10.632-24.155 23.138-24.155 12.505 0 23.142 9.633 23.142 24.155 0 14.522-10.637 24.147-23.142 24.147zm63.421-47.728V29.33h-14.664v71.3h14.664V63.11c0-12.652 7.332-21.996 17.82-21.996 1.873 0 3.742.29 5.607.86l2.44-13.943c-1.869-.434-3.445-.715-5.314-.715-9.776 0-16.674 5.604-20.553 14.087zm57.462 48.013c-6.898 0-9.772-3.453-9.772-10.497V41.114h15.95V29.33h-15.95V10.068h-14.664v71.444c0 16.243 9.486 21.132 20.408 21.132 4.168 0 7.903-.716 10.636-1.725l-1.294-12.363c-1.58.43-3.734.86-5.314.86zm56.147-62.1c-10.351 0-19.404 5.46-24.722 13.943V0h-14.664v100.63h14.664V62.965c0-13.368 9.052-22.14 19.548-22.14 9.772 0 15.806 5.753 15.806 16.106v43.699h14.664V52.472c0-16.388-11.501-25.157-25.296-25.157zm80.715 0c-11.066 0-20.843 5.894-25.296 12.938V29.33h-14.665v107.206h14.665V90.86c4.598 7.325 13.651 11.784 23.998 11.784 19.118 0 34.208-14.667 34.208-37.664.004-23.577-15.086-37.665-32.91-37.665zM421.88 89.13c-12.216 0-22.133-9.774-22.133-24.147s9.917-24.155 22.133-24.155 22.132 9.777 22.132 24.155c0 14.377-9.916 24.147-22.132 24.147zm61.039-47.728V29.33h-14.665v71.3h14.665V63.11c0-12.652 7.332-21.996 17.819-21.996 1.874 0 3.743.29 5.608.86l2.444-13.943c-1.873-.434-3.453-.715-5.318-.715-9.776 0-16.674 5.604-20.553 14.087zm33.583 59.227h14.665v-71.3h-14.665v71.3zm-1.009-84.098h16.675V0h-16.675v16.532zm110.293 10.784c-9.777 0-17.278 3.358-22.965 11.966-3.014-7.839-9.515-11.966-19.291-11.966-8.623 0-16.53 4.11-20.984 11.59V29.33h-14.664v71.3h14.664V61.381c0-14.232 7.477-21.132 16.096-21.132 7.902 0 11.79 5.61 11.79 13.658v46.719h14.656V61.377c0-14.948 7.042-21.132 15.669-21.132 8.622 0 12.361 5.03 12.361 13.224v47.152h14.656V48.447c-.005-12.652-8.333-21.132-21.988-21.132z" fill="#fff"/>
</svg>
