<svg width="45" height="45" viewBox="0 0 45 45" fill="none" xmlns="http://www.w3.org/2000/svg">
<path d="M12.5 0C5.5975 0 0 5.5975 0 12.5V32.5C0 39.4025 5.5975 45 12.5 45H32.5C39.4025 45 45 39.4025 45 32.5V12.5C45 5.5975 39.4025 0 32.5 0H12.5ZM37.5 5C38.88 5 40 6.12 40 7.5C40 8.88 38.88 10 37.5 10C36.12 10 35 8.88 35 7.5C35 6.12 36.12 5 37.5 5ZM22.5 10C29.4025 10 35 15.5975 35 22.5C35 29.4025 29.4025 35 22.5 35C15.5975 35 10 29.4025 10 22.5C10 15.5975 15.5975 10 22.5 10ZM22.5 15C20.5109 15 18.6032 15.7902 17.1967 17.1967C15.7902 18.6032 15 20.5109 15 22.5C15 24.4891 15.7902 26.3968 17.1967 27.8033C18.6032 29.2098 20.5109 30 22.5 30C24.4891 30 26.3968 29.2098 27.8033 27.8033C29.2098 26.3968 30 24.4891 30 22.5C30 20.5109 29.2098 18.6032 27.8033 17.1967C26.3968 15.7902 24.4891 15 22.5 15Z" fill="#CCFF00"/>
</svg>
