<svg width="45" height="45" viewBox="0 0 45 45" fill="none" xmlns="http://www.w3.org/2000/svg">
<path d="M40 0H5C2.2375 0 0 2.2375 0 5V40C0 42.7625 2.2375 45 5 45H40C42.7625 45 45 42.7625 45 40V5C45 2.2375 42.7625 0 40 0ZM15 35H8.6925V17.5H15V35ZM11.735 14.2925C9.8075 14.2925 8.52 13.0075 8.52 11.2925C8.52 9.5775 9.805 8.2925 11.9475 8.2925C13.875 8.2925 15.1625 9.5775 15.1625 11.2925C15.1625 13.0075 13.8775 14.2925 11.735 14.2925ZM37.5 35H31.395V25.435C31.395 22.79 29.7675 22.18 29.1575 22.18C28.5475 22.18 26.5125 22.5875 26.5125 25.435C26.5125 25.8425 26.5125 35 26.5125 35H20.205V17.5H26.5125V19.9425C27.325 18.5175 28.9525 17.5 32.005 17.5C35.0575 17.5 37.5 19.9425 37.5 25.435V35Z" fill="#CCFF00"/>
</svg>
