<svg width="593" height="541" viewBox="0 0 593 541" fill="none" xmlns="http://www.w3.org/2000/svg">
    <path d="M138.555 98.722c.64 6.708-3.934 9.088-6.501 13.187-6.892 10.909-17.874 16.442-27.624 23.578-1.842-1.957-4.173-4.274-6.302-2.058-3.158 3.31-4.729 7.568-1.154 12.507l-5.878 6.702c-7.806-4.107-6.036 5.739-9.892 7.448-1.706 7.045-9.411 10.973-7.533 19.793l-.293-.14c-13.855 12.276-17.01 31.433-24.245 47.946 1.764 3.441.197 6.116-1.004 8.902-3.752 4.231-7.348-4.332-10.655-1.347-5.943 5.404 3.703 7.409 3.393 11.762-.126 1.588-.252 3.176-.354 4.712-5.653 3.323-5.466 8.673-1.938 13.717 4.022 5.786 2.551 8.38-2.41 10.829-7.057 3.541-11.468 11.323-10.99 18.523.363 5.879-1.673 11.689.19 17.396 1.939 5.806-2.875 10.417-.057 16.897 1.746 4.003 1.975 10.704-1.46 15.149 11.684 4.183-2.538 8.36.973 13.966 3.46 5.455 7.056 14.017 6.753 18.88-.769 12.31 7.05 17.437 13.026 24.536 1.329 1.649 2.834 1.86 4.372.82.91 1.004 1.867 2.032 2.8 2.984.783.628 1.205 1.399 1.217 2.42-1.299.774-2.901 2.481-1.75 3.474 2.524 2.283 4.14-.242 5.695-1.972 3.216 1.409 8.066-2.234 9.643 1.878 3.283 8.73 11.274 6.269 16.269 10.428-.234 4.579-1.283 9.91 6.06 7.964 1.286.17 2.548.265 3.834.436.074.098.124.249.247.371.072-.029.096-.081.168-.11 1.419 1.058 2.814 2.167 4.281 3.248.604-2.12-.82-3.56-1.856-5.069.024-.052.073-.029.096-.081l10.154 3.896-.024.052c-2.313 1.051-5.418 2.802-4.659 5.319 1.135 3.648 4.078.552 6.235.631.994.031 1.884-.495 2.85-.795 7.243 9.543 6.857-.086 8.947-3.526.973.338 1.769.021 2.268-.819 2.835 3.953 5.8 2.642 8.808.973 5.466 10.849 16.402 11.442 24.851 16.616 5.387 4.473 9.979 1.531 14.678-.599.725-.161 1.374-.548 2.025-.808 2.424.016 4.896.055 3.025 5.5-1.286 3.76 3.327 6.406 5.952 8.99 4.001.198 7.962-.826 12.058 1.129 3.656 1.745 7.044 1.334 9.596-1.948.739.986 1.455 2.025 2.194 3.012 1.458.316 2.916.631 4.35.999 3.297 7.912 10.252-1.825 12.838 3.466 3.855 7.989 9.446 5.46 13.425 3.873 5.136-2.048 8.711.926 12.923 2.493-1.941 1.799-3.661 3.767-2.894 7.049 1.306 1.7 2.588 3.453 3.893 5.154 9.049 2.799 8.405-10.059 13.905-10.16 6.082-.076 12.24 2.167 17.443-2.385 8.542-.93 17.129-2.219 23.814 7.247 1.134 1.556 3.592 2.412 5.514 3.013 5.812 1.697 7.78-1.864 5.928-10.481 1.318-1.209 2.661-2.343 3.979-3.552.83.523 1.59 1.203 2.326 1.934 4.377 5.132 9.499 5.866 15.052 4.207 2.887-5.595 5.383-11.503 9.763-15.941 2.676 2.863 6.283 6.422 8.775 2.224 2.42-4.169 8.362-3.805 9.093-9.35 0 0-.049-.024-.025-.076 1.444 1.133 2.85 1.17 4.243.187 4.267-1.829 8.357-2.222 13.064.215 4.292 2.176 8.998.555 9.496-4.214.803-7.54 6.23-7.612 10.379-7.216 4.1.373 6.711-.156 8.876-3.369 1.864-2.153.767-4.578-.062-6.939 1.27-1.232 2.513-2.54 3.783-3.772-1.232-1.602-2.489-3.28-3.72-4.882.631.048 1.261.095 1.914-.037 1.327-.444 2.458-1.108 3.587-1.9.074.098.099.174.173.272-.143 2.151.832 2.616 2.523 2.155 1.07-5.51 5.908-8.209 8.96-12.203 1.68-1.353 3.26-2.88 4.521-4.75.469-1.298.791-2.665.846-4.097 2.09-3.439 6.609-.585 8.974-3.323 2.541-2.21 5.888-3.971 4.423-8.727 1.342-1.261 1.493-2.774.502-4.515 4.941-4.106 7.046 3.427 10.88 3.863.816-.625 1.56-1.221 2.376-1.845-1.268-4.535-.466-8.273 2.843-11.13 1.942-1.672 3.03-3.815 2.461-6.749l-.815-1.213-1.126-.917c-.692-3.056.567-5.054 2.73-6.557 2.604 2.891 5.177 3.232 7.788.738 2.976 13.338 2.976 13.338 11.4 8.739 1.391-1.238 2.757-2.424 4.147-3.662a62.5 62.5 0 0 1 2.161 2.299c1.457.188 2.864.353 4.321.541.792-.572 1.585-1.145 2.401-1.769-.568-.842-1.014-1.689-1.293-2.646-1.508-6.361-5.464-10.721-10.618-14.006-.017-1.402-.011-2.857-.029-4.26 4.942-4.107 1.894-7.59-1.494-11.109-1.351-1.469-2.784-1.709-4.346-.616a7.907 7.907 0 0 1-2.244.767 14.908 14.908 0 0 0-2.107-1.894c-1.331-1.776-2.661-3.552-4.041-5.352.79-.827 1.604-1.579 2.394-2.407 4.2 2.64 8.252 4.954 8.759-2.981.379-.706.856-1.366 1.383-1.875 1.487-1.192 1.832-2.739.984-4.665 1.499-2.263.906-3.18-1.705-2.652l-.049-.023c-1.257-1.677-2.49-3.407-3.746-5.084.354-.782.756-1.541 1.159-2.3 2.121-.889 4.062-2.688 6.63-.764 1.732 4.819 3.536 9.611 5.268 14.431-1.367 1.185-1.59 2.727-.767 4.578l.023-.053c-1.55 9.846 4.637 8.489 10.014 8.267.775-.01 1.401-.346 1.926-.982 2.056 5.545 5.142 10.124 10.48 12.609.587 2.371 1.174 4.743 1.809 7.138l-.313.168-.183 8.66-.235.648-1.991-2.281c-1.205-1.399-2.663-1.715-4.232-1.26l-.074-.099c-2.098-1.128-2.963-.527-2.544 1.955l-.022.18c-3.433 2.608-5.471 6.326-6.8 10.572.714.911 1.452 1.771 2.166 2.682a6.887 6.887 0 0 0 1.728 2.6c-1.264 5.545 1.358 7.874 6.162 8.393 3.415 1.756 7.662-1.604 10.698 2.824 1.269.733 2.211.485 2.875-.719.025.075.122.122.148.197 1.354 1.724 2.677 2.863 3.806.106 7.226-1.558 3.402-6.996 2.646-11.351.718-.671 1.363-1.441 2.008-2.211 2.272-.436 4.594-.849 6.866-1.286l.044-.359c.832.651 1.617 1.406 2.495 1.824 2.876 1.374 3.443 7.983 7.892 5.226 2.741-1.734 1.092-5.69 1.249-8.658.037-.997-.195-2.058-.305-3.125-3.073-9.454-5.283-9.811-12.6-1.895-1.681 1.226-3.363 2.452-5.067 3.73-1.425-1.568-2.778-3.164-4.203-4.732-.565-2.551-1.081-5.079-1.645-7.631l2.453-7.386c1.223-1.001 2.495-1.978 3.695-2.927 2.782-4.313-.573-7.119-2.792-10.206-.671.566-1.319 1.081-1.991 1.648-2.315-1.042-4.606-2.136-6.873-3.154-2.51-1.135-4.46-.101-6.333 1.287-.918.196-1.761.617-2.431 1.312-2.01-3.812-1.83-8.797-5.934-11.517-3.692-4.551 1.134-10.107-2.508-14.635.453-.608.759-1.286.992-2.062.379-4.636.732-9.348 1.111-13.985-.275-2.667-1.007-4.981-3.946-5.56-2.175-1.482-5.648-2.062-3.761-6.232.972-1.755 1.92-3.457 2.843-5.235 2.831-2.325 5.458-1.579 7.965 1.266.023-.052.072-.029.096-.081.04 1.351.13 2.725.269 4.122.231 1.061.583 2.117 1.104 3.063-.049 3.906.779 8.104 5.204 7.365 2.999-.47 1.137-4.085.138-6.463-.048-.023-.121.005-.169-.018a6.892 6.892 0 0 1 2.333-1.358c.469.668 1.057 1.202 1.669 1.684 2.998 1.368 9.067.271 5.033 7.22-1.258 2.125-2.343 4.523-1.726 7.353.472.922.92 1.897 1.344 2.923-.452.608-.857 1.239-1.309 1.847-.84.677-1.608 1.325-2.447 2.001 1.771 2.114 3.754 3.758 6.508 3.044 1.491 2.993-.156 8.99 6.198 7.396l-.142.312c.692 1.091 1.359 2.107 2.051 3.198.648-.515 1.345-1.006 1.993-1.521 3.774 1.485 7.37 2.187 10.235-1.263 1.513-1.116 1.857-2.663 1.058-4.565.871-.092 1.717-.258 2.537-.628 1.431.113 2.911.249 4.342.362 4.693 3.254 7.492 2.308 7.684-3.749.041-2.579-.405-5.264-.606-7.832.89-2.491-.155-4.637-1.537-6.692-1.326-1.393-2.76-1.761-4.377-1.202l.049.024c-2.664-1.843-5.577-2.219-8.483-2.085-1.406-.037-2.837-.15-4.243-.187-.689-.836-1.427-1.695-2.116-2.531.744-.596 1.511-1.244 2.158-1.886.844-2.259 1.737-4.495 2.558-6.702.744-.596 1.537-1.168 2.329-1.741 2.678 1.025 5.749 4.329 7.878 2.113 1.316-1.337-2.015-4.195-3.446-6.272a17.517 17.517 0 0 1-1.634-2.809l-.408.376c.022-.179.044-.359.041-.614.146.07.22.168.367.238 1.376-.421 3.639-1.622 3.959-1.152 5.269 6.699 7.645 2.889 10.081-1.97.922-1.906 1.87-3.608 1.381-5.933-1.652-2.247-3.655-3.583-6.269-3.31-2.608-1.181-4.679-.141-6.574 1.426-2.804-7.297-10.693-4.407-14.727-9.249-.732-4.279 2.897-2.864 4.628-3.939 5.698-5.647-2.383-6.525-3.514-9.791.915-.45 1.903-.929 2.818-1.38 3.11.597 4.424-.867 4.141-4.172.077-1.611.008-3.292.231-4.834 1.61-10.894-.218-13.668-9.717-13.639-2.496.013-4.908.89-7.325 1.384-2.727.917-5.431 1.781-7.892-1.295.476-.66.953-1.32 1.478-1.957-.713-.784-1.112-1.735-1.199-2.854.854-1.494.642-2.99-.418-4.446.174-1.565.397-3.107.572-4.671.868-.347 1.345-1.007 1.381-2.004.888-.653 1.8-1.359 2.689-2.012-1.564-2.965 2.456-7.131-1.102-8.702-4.288-1.921-3.613 3.662-5.161 5.903l.024-.052c-2.743-2.324-4.663-.832-6.481 1.089-.794.445-1.587 1.018-2.307 1.561l-1.008-1.178-.625-1.503-1.252.67c-.025-.075-.099-.174-.124-.249.483-.15.893-.271 1.376-.421a962.252 962.252 0 0 1-.151-8.312c3.059.446 5.772.346 5.546-4.135 1.405-2.055 2.078-4.459 1.875-7.155.767-.648 1.558-1.348 2.325-1.996 1.433.24 2.817.457 4.273.646 2.122 1.076 4.267 2.1 6.389 3.176a58.245 58.245 0 0 1 2.28-1.764c2.021.775 3.912.79 4.169-1.876.173-1.693-1.127-3.011-2.633-3.222-1.87-.322-3.757-.082-5.624-.149-.77.392-1.49.936-2.088 1.602-1.768-1.858-3.653-3.456-6.187-2.574-1.9-2.745-3.849-5.513-5.749-8.258.079-5.414-3.564-11.907-6.59-11.64-9.515.719-11.846-7.493-16.613-12.811-2.137 1.579-4.298 3.209-6.435 4.788-.238.394-.209.724-.326 1.112-.048-.023-.072.029-.121.006l.447-1.118c-.01-2.73.029-5.437.02-8.167-1.579-2.275-3.393-3.902-6.172-3.263-2.89-.556-5.732-1.089-8.623-1.644-1.282-1.753-2.563-3.506-3.894-5.282a22.91 22.91 0 0 1-.176-4.458l-.024.052c-.47-.795-.94-1.59-1.266-2.443-.618-4.922-2.347-9.487-6.642-11.917-2.318-1.297-3.616-2.36-4.209-3.277.782-1.465 1.54-2.878 2.272-4.367 1.155-.716 2.358-1.41 3.026-2.232.61-1.61.978-3.21-.157-4.892-1.057.763-2.163 1.503-3.243 2.318-5.14-8.031-18.071-13.127-27.484-19.838 1.145-1.482 1.824-3.376 1.719-6.026 4.533-3.73 5.722-7.536-1.173-10.51-2.972-1.293-3.796-3.271-4.026-6.17-3.15 1.983-5.932 4.331-8.566 6.877-1.419-3.023-2.91-6.016-5.143-8.287-2.847-2.88-9.64-5.425-12.862-7.344.023-.052.096-.08.119-.133 4.77-4.252 9.588-8.48 14.358-12.732-.544-.894-1.28-1.625-2.158-2.044a23.567 23.567 0 0 0-1.942-2.259c6.2-8.069-3.126-11.697-5.449-17.306-4.694 4.478-1.254 8.275 1.773 12.065.4.952.944 1.845 1.656 2.63.593.916 1.21 1.78 1.922 2.565-2.167 1.12-4.524 2.53-6.806.237-9.569-9.512-9.943-.563-11.559 5.891-.907 3.054 2.237 8.421-3.551 8.764-4.916.252-1.625-4.008-2.883-5.813-2.416-3.308-4.304-1.23-6.273.238l-.311 4.225c-3.561 2.104-6.3 5.93-11.081 5.36-3.866-1.022-6.984-.419-8.606 3.688-2.634 2.546-6.197 2.43-9.412 3.113-.403.759-.928 1.395-1.552 1.858-1.17 1.407-1.392 3.076-.641 4.955l.217-.087c1.112 1.736 1.958 3.534 1.305 5.631-4.007-.708-5.899 1.114-5.505 5.485-.502.585-.955 1.193-1.457 1.777-5.259-3.968-6.582-12.967-14.466-13.624l-.005-.383c-2.845-2.753-1.947-8.536-7.683-9.88.312 5.6.572 10.922.88 16.267-1.536 1.168-3.073 2.337-4.56 3.528-4.155 1.06-5.295-10.704-10.758-3.74-4.757-.624-7.493 3.458-11.304 4.935-2.71-1.61-6.011-2.045-7.772-5.358 2.53-1.138 5.085-2.2 7.542-3.435 3.612-1.826 4.546-4.676 2.074-8.645-.183-1.038.025-1.89.621-2.683 0 0 1.382.09 1.359.142 1.004-3.007 1.306-6.032.224-9.274-1.579-2.275-3.418-3.977-6.197-3.339-1.692 2.298-3.028 5.907-6.523 1.577-3.051-3.739-6.198-7.396-9.25-11.134-2.875-1.246-6.07-2.962-8.064.397-2.493 4.198.423 6.794 3.699 9.118.709.53 1.04 1.764 1.512 2.687.586.407 1.244.657 1.876.832.101.302.225.551.398.824.008 2.603.016 5.205.048 7.756-.801-.065-1.578-.183-2.377-.12-1.911.292-3.674.782-4.251 3.105.612 2.447 1.249 4.97 1.861 7.417a6.82 6.82 0 0 1 .88 2.511c-1.196 1.331-2.391 2.662-3.561 4.069-1.967 1.596-3.323 3.675-3.481 6.515-.503.457-.884 1.036-1.142 1.737-1.403-1.748-2.855-3.518-4.306-5.289.772-2.23.43-4.358-2.069-4.6-2.377-.248-2.736 2.117-2.855 4.215.067 1.553.184 3.13.275 4.632-3.955 3.5-8.165 2.06-12.555-.162-4.828-2.432-5.869 1.572-7.306 4.88l-.171-.146c-1.406-2.002-2.813-4.005-4.17-5.984-.33-1.235-.612-2.447-.942-3.682-1.51-6.49-6.839-6.244-10.618-6.146-4.215.143-3.077 3.919-1.151 6.867 1.196.634 2.391 1.268 3.563 1.954.269.191.538.383.902.494.024 3.878-3.156 5.402-4.771 8.054-3.131 3.513-7.68 4.004-11.731 5.62-1.433-.24-2.842-.533-4.226-.75-5.047-2.473-8.463-6.322-9.918-12.278-.255-1.009-2.501-2.334-3.615-2.232-2.057.222-3.757 1.883-3.022 4.452.735 2.57 2.171 5.03 3.292 7.53l.002.127c-4.064.596-9.158.193-4.608 7.563.669 1.143-.85 3.713-1.311 5.649-6.014 1.63-5.733-8.949-9.712-7.362-4.123 1.645-7.979 5.319-10.687 9.73-.903 1.471-3.298 1.786-4.984 2.63-3.482-1.346-7.036-2.662-10.518-4.008-4.159-1.16-8.444-.861-7.972 3.992zm315.953 279.814c-.024.052-.096.081-.143.185l-.252-.754c.197.221.247.371.395.569zm1.306-13.892c.072-.029.096-.081.168-.11l.024-.052c.074.099.124.249.222.296-.17-.018-.316-.088-.414-.134zm15.368-15.357c1.305-.264 2.686-.302 3.994-.311-.242 1.976.412 3.936 1.793 5.863.343.291.637.558.98.848-.159.875-.269 1.774-.427 2.649.014 1.147.004 2.347.044 3.57-.796.318-1.543.658-2.263 1.202-.214.341-.379.706-.593 1.048 1.19-5.644-.397-10.521-4.302-14.731.266-.063.508-.074.774-.138zm-26.248 5.599a23.788 23.788 0 0 1-2.125 2.599c.022-.18.019-.435.041-.614.042-.487.231-.904.371-1.344.505-.33 1.06-.509 1.713-.641zm-110.267 91.44c.049.023.074.098.123.122-.17-.018-.363.016-.485.022l.362-.144zm138.859-122.922c-.095.081-.143.186-.215.214-.025-.075-.123-.121-.148-.197l.363-.017zm39.561-51.79c-.074-.099-.171-.145-.245-.244.041-.614.105-1.281.146-1.895.198.348.255 1.009.099 2.139zM280.265 473.791c.001.127-.071.156-.069.284-.779-.245-2.797-.765-5.326-1.465 1.608-1.324 3.32-1.965 5.395 1.181zm-16.578-4.111c-1.604-.385-2.941-.707-3.889-.969 1.498-.299 2.739.103 3.889.969zm215.174-204.706c.072-.029.144-.058.193-.035l-.118.261-.075-.226zm-6.813 5.622c-.022.179-.069.283-.091.463l-.049-.023c.046-.232.043-.487.043-.487.025.075.025.075.097.047zM240.297 457.564c-.023.052.025.075.002.128.023-.053.023-.053-.002-.128zm226.154-208.402-.096.081.026.075c-.049-.023-.049-.023-.074-.099l.023-.052-.025-.075-.072.029c-.318-.215-.589-.535-.788-1.01.321.47.64.812 1.006 1.051zm-26.065.741c.048.023.048.023 0 0l-.095.209c-.025-.076-.001-.128-.026-.203.048.023.048.023.121-.006zm40.482-47.801c.026.076.074.099.1.174l-.195-.093c.047-.104.047-.104.095-.081zm.007-44.43c.121-.006.219.041.34.035-.047.105-.046.232-.068.412-.099-.174-.221-.296-.272-.447zm-15.282-13c-.214.342-.502.585-.813.88.239-.267.501-.585.813-.88zm-27.463-2.461c.049.024.026.076.026.076.023-.052-.026-.076-.026-.076zM85.818 420.966c-.049-.023-.049-.023 0 0zM276.165 76.432c-.024.052-.023.052.002.128-.073.029-.121.005-.194.034.073-.029.096-.08.192-.162zm-97.7 29.996c-.048-.023-.072.029-.144.058.023-.052.047-.105.022-.18.048.023.074.099.122.122zm11.562-13.497c-.072.03-.096.081-.168.11-.025-.075-.051-.15-.027-.203l.195.093zM446.85 444.985c-2.482-2.77-5.755-4.839-9.314-2.608-2.022 3.028-1.693 6.101.451 8.962 2.513 3.355 5.172 2.85 7.688.565 2.086-1.857 3.166-4.638 1.175-6.919zm-20.952 39.883c6.591 5.872 10.022 10.869 17.39 12.928-2.379-10.073-7.306-12.678-17.39-12.928zm103.473-49.044c-5.773-.475-7.641 3.261-7.252 9.215 4.87 1.944 8.912 1.528 10.365-4.434.553-2.271-.832-4.58-3.113-4.781zm-217.919 71.109c-1.131-1.3-2.662-1.587-4.868.275-.643 2.863-4.435 5.87-.814 10.577 1.035 1.382 2.737 1.814 3.635-.039 1.655-3.267 6.471-5.785 2.047-10.813zm-103.549-19.575c-1.032-3.091-3.858-4.314-6.148-3.315-5.23 2.257-1.901 6.952-.122 11.668 2.318-2.633 8.359-2.095 6.27-8.353zm70.25 23.329c-4.049-.221-5.883 2.39-7.792 4.774-.931 1.141-1.706 3.116.101 4.232 1.074.64 3.062.701 4.072.042 2.67-1.578 4.873-3.695 3.619-9.048zM343.999 8.41c-1.462 5.197 3.939 12.782-3.632 15.887-3.554-1.316-5.136.084-4.822 3.974.251 6.522 2.937 12.114 9.193 12.438 5.675.3 2.633-6.603 4.142-9.939l-.012-1.02c4.233-2.543 8.171-5.48 11.247-9.527-.349-.8-.65-1.578-.999-2.378-2.44-9.151-7.52-12.337-15.117-9.435zM447.865 483.88c2.197-.662 2.875-2.684 2.288-5.056-.587-2.372-2.249-3.546-4.621-3.283-2.096.964-2.263 3.166-1.994 5.323.35 2.766 2.179 3.702 4.327 3.016zm-345.344.141c-.636-2.395-2.25-3.546-4.646-3.359-2.169.993-2.214 3.19-1.897 5.37.373 2.713 2.155 3.754 4.352 3.092 2.318-.669 2.801-2.784 2.191-5.103zm-85.44-212.625c-.744-1.369-1.895-2.362-3.54-2.133-1.939 1.927-1.93 4.529-1.22 7.15.711 2.622 2.852 3.263 4.58 1.933 2.208-1.735 1.447-4.507.18-6.95zM551.32 419.679c1.284 1.88 3.092 3.124 5.085 1.603 1.728-1.33 2.14-3.288 1.022-5.534-1.549-1.817-3.305-2.655-5.228-1.418-1.851 1.209-2.359 3.248-.879 5.349zM379.258.584c-2.477 1.543-2.246 4.57-.739 6.873 1.927 2.949 4.383 1.712 6.572.412 1.675 2.194 3.656 3.583 6.342 3.28l3.812 2.581c-.431-1.537-.813-3.05-1.268-4.535.651-8.12-5.836-3.61-8.386-5.968-1.723-2.217-3.76-4.267-6.333-2.643zm80.632 468.12c-1.286 1.795-1.015 4.079.943 5.648 1.346 1.086 2.942.834 4.02-.236 1.629-1.505 1.896-3.405.149-5.571-1.737-1.272-3.755-1.792-5.112.159zM233.872 42.679c1.762 1.348 3.765.72 5.248-.855 1.722-1.84 1.332-3.991-.527-5.386-1.787-1.423-3.743-.899-6.417 2.389-.215.214-.237 2.358 1.696 3.852zm257.451 408.576c1.39.727 2.994 1.113 3.749-.555.896-1.981.652-4.063-1.592-5.261-1.39-.727-2.82-.712-4.064.596-.291 1.953-.338 4.022 1.907 5.22zM120.875 477c-5.933 4.204-1.868 7.666 1.52 11.184 5.74-4.169 1.651-7.578-1.52-11.184zm225.674-.726c.779 2.21 2.416 3.309 4.465 2.449 1.615-.687 1.448-2.415.921-3.871-.803-2.285-2.438-3.128-2.655-3.042-3.691 1.344-3.209 3.032-2.731 4.464zM328.473 24.641c-4.079-4.482-7.133-2.58-9.899 1.043 4.37 6.46 7.241 3.52 9.899-1.043zm254.514 296.757c-2.193 1.045-2.216 3.062-1.516 4.791 1.334 2.031 2.867 2.573 4.216 1.949 2.169-.993 2.41-3.097 1.147-5.284-.867-1.491-2.426-2.109-3.847-1.456zm-14.788 3.463c1.321 1.011 2.702.973 3.829.053 1.249-.925 1.859-2.535.271-3.611-1.002-.668-2.771-.689-3.88-.204-1.445.705-1.352 2.334-.22 3.762zM328.645 38.541l.006.51c1.422 9.173 3.137 10.626 9.748 8.33l.728.095c-.5-7.148-2.669-12.05-10.482-8.934zm28.271 458.845c-1.203-1.271-2.532-.955-2.245-1.198-2.341 2.686-2.393 4.372-1.408 5.603 1.156 1.376 2.552.648 3.508-.417 1.052-1.146 1.373-2.641.145-3.988zm197.3-149.092c1.203 1.272 2.735 1.686 3.883.459 1.124-1.174.742-2.688 1.061-2.345-2.823-2.933-4.424-3.063-5.55-2.016-1.222 1.128-.523 2.729.606 3.902zm-126.689 84.234c-2.634-3.349-5.383-4.218-8.401-1.348-1.082.688-2.141 1.324-3.174 2.035-.536 3.674.148 6.092 4.399 4.952 2.968-1.055 5.393-2.877 7.176-5.639zm87.583 21.842c-.276-.702-1.57-1.51-2.15-1.407-1.474.374-1.966 1.724-.906 3.181.418.517 1.532.414 2.334.607.305-.805.995-1.807.722-2.381zm-48.255-29.881c-2.191 7.068.195 11.884 5.931 15.192.931-5.07 1.749-9.497 2.566-13.924-2.597-4.219-5.398-5.366-8.497-1.268zm62.123-88.813c1.439-1.214 2.951-2.458 4.39-3.672-1.233-1.73-2.467-3.46-3.651-5.166-2.836-3.952-5.697-7.98-10.643-4.256-1.511-.722-3.088-.904-3.966.642-.332.602-.092 2.301.422 2.737 2.033 1.794 3.713.441 5.297-.831 2.049 1.105 4.17 2.181 6.22 3.286-.838 2.769.45 5.032 1.931 7.26zm-97.862 175.262c.252.754 1.571 1.638 2.249 1.581 1.645-.229 2.233-1.66 1.22-3.221-.371-.621-1.631-.588-2.458-.856-.377.834-1.238 1.818-1.011 2.496zm130.645-152.196c.505-.33.44-1.628.648-2.48-.806-.448-1.738-1.4-2.366-1.193-.604.156-1.387 1.493-1.281 2.177.36 1.694 1.678 2.45 2.999 1.496zM129.882 503.738c.288 5.652 2.454 6.369 6.171 3.263-1.532-2.379-3.392-3.901-6.171-3.263zm246.001-16.693c-.53-1.711-1.92-2.438-3.263-1.305-.48.405-.318 1.75-.428 2.649.829.395 1.881 1.215 2.46.984.7-.237 1.458-1.65 1.231-2.328zM1.229 278.916c-.604.155-1.363 1.441-1.209 2.148.311 1.67 1.604 2.351 2.902 1.449.504-.33.416-1.576.624-2.428-.805-.447-1.762-1.348-2.317-1.169zm563.094 59.751c1.474-.374 1.966-1.724.906-3.181-.37-.493-1.532-.414-2.334-.607-.256.829-.923 1.778-.673 2.405.299.649 1.521 1.486 2.101 1.383zm22.637-34.959c-.395-.569-1.51-.594-2.337-.862-.378.834-1.142 1.737-.915 2.416.226.678 1.473 1.591 2.102 1.51 1.524-.223 2.065-1.549 1.15-3.064zM370.267 536.42c-1.101-.843-2.043-.595-2.269.691-.11.899.291 1.977.497 2.963.821-.242 2.081-.274 2.34-.848.307-.677-.29-1.849-.568-2.806zm-202.724-51.975c-.588-.534-1.723-.252-2.621-.364-.812 1.008-.631 1.918.612 2.448.438.209 1.02.233 1.479.136 1.159-.335 1.51-1.371.53-2.22zm408.275-223.326c.494.743 1.837 1.574 2.367 1.32 1.326-.572 2.302-1.944.684-3.477-.588-.534-1.772-.276-2.694-.335-.087.846-.678 2.022-.357 2.492zM455.711 432.608c1.45-.322 2.258-1.584.882-3.129-.516-.563-1.727-.507-2.577-.723-.257.828-.922 1.905-.65 2.352.494.743 1.693 1.632 2.345 1.5zm105.813-30.37c.252.754 1.573 1.765 2.105 1.639 1.522-.351 1.818-1.922 1.025-3.314-.297-.522-1.485-.519-2.263-.764-.257.829-1.068 1.836-.867 2.439zm29.853-119.774c.453-.608.807-1.39 1.186-2.097-.414-.134-1.073-.512-1.216-.326-.502.584-.783 1.337-1.162 2.044.413.134 1.072.512 1.192.379zM55.693 432.384c-.175-.401-.782-.5-1.197-.762-.214.342-.67.695-.618.973.03.458.353 1.183.695 1.346 1.315.501 1.791-.159 1.12-1.557zm255.89-392.035c.247.371.805.447 1.244.657-.006-.51-.036-.968-.043-1.478l-1.316-.629c.03.458-.083 1.102.115 1.45zm249.651 346.284c.62 1.12 1.299 1.191 1.7.305.118-.261-.228-.806-.403-1.207a62.23 62.23 0 0 0-1.192-.378c-.018.434-.254.956-.105 1.28zM172.27 468.89c-.636-.43-1.088 2.143-.802 3.738.445-1.246 4.026-1.692.802-3.738zm-.802 3.738-.071.156.049.023c.024-.052.047-.104.022-.179zM19.197 223.093c-.338.092-.793.572-.764.903-.035 1.124.6 1.427 1.56.745.264-.191.233-.777.3-1.188-.39-.186-.807-.575-1.096-.46zM495.38 430.627c.175.4.759.552 1.174.813.214-.341.67-.694.618-.972-.079-.481-.403-1.207-.695-1.346-1.292-.553-1.745.055-1.097 1.505zm-14.592-17.932s.049.024.025.076l.024-.052c.023-.053-.049-.024-.049-.024zm4.088 5.248c.006-1.455-.636-2.395-1.949-2.769a45.546 45.546 0 0 1-2.041-2.432c-1.068 3.8.094 5.686 3.99 5.201zm-70.53 61.664c-.362.144-.865.601-.86.984-.01 1.2.649 1.578 1.657.791.265-.191.257-.828.348-1.292-.318-.215-.807-.575-1.145-.483zm-29.39 6.254c.571 1.097 1.299 1.191 1.7.305.118-.261-.228-.807-.403-1.207a70.648 70.648 0 0 0-1.192-.379c-.019.435-.254.956-.105 1.281zM158.885 90.742c.173.273.778.245 1.192.38.018-.436.278-1.009.105-1.282-.173-.272-.779-.245-1.192-.379-.068.412-.278 1.009-.105 1.281zm85.184-23.039c.439.21.93.697 1.317.629 1.064-.126 1.344-1.007.795-2.283.942-2.213.566-3.216-1.893-2.235-1.222 1.128-1.497 2.391-.219 3.89zm-66.235 408.281c-.147-.198-.462-.158-.898-.112-1.116-.153-2.256-.253-3.373-.406a69.905 69.905 0 0 1 1.826 2.646c-.711 1.309-1.422 2.618-2.06 3.898 2.938.451 6.223 1.576 6.722-3.194.723-2.253.08-3.321-2.217-2.832zm-4.343-.489.048.023c-.048-.023-.025-.075-.073-.099l.025.076zm0 0 .023-.052s-.048-.024-.072.028l.049.024zm-2.094-2.711.074.099.024-.052c-.025-.076-.098-.047-.098-.047zm2.02 2.612c-.64-.813-1.306-1.701-1.946-2.513-.895 2.108-.206 2.944 1.946 2.513zm387.89-237.368c-.767.648-1.535 1.296-2.375 1.973.666.888 1.331 1.776 2.02 2.612.102-1.536.253-3.049.355-4.585zm-85.062-115.717c-.796 2.282-.08 3.321 2.217 2.96 2.193.92 3.105.214 2.468-2.308.7-2.202.009-3.165-2.191-2.758l.002.128c-.768.648-1.535 1.296-2.326 1.995.023-.052-.17-.017-.17-.017zm-7.527-24.637.607.1c2.101 1.383 2.969 1.036 2.087-1.73l.039-.742c-2.044-.722-2.955.11-2.733 2.372zm-17.276-33.095c.718-.67 1.486-1.318 2.181-1.937-1.809-1.244-3.981-4.436-5.641-1.553-1.211 2.021 2.352 2.138 3.46 3.49zm113.114 148.188c.914-.578 1.804-1.104 2.669-1.705-6.764-6.145-6.764-6.145-12.529-.086 3.122 3.582 6.76-.006 9.86 1.791zm-.362 13.772c-1.533 1.423-3.092 2.771-4.625 4.194 3.995 1.654 5.454.132 4.625-4.194zm-9.448 19.83c1.277-.594 2.482-1.16 3.759-1.755-1.702-.432-4.001-2.164-3.759 1.755zm3.784-1.68c.024-.052-.049-.023-.049-.023l.049.023zm-36.929 66.675c.049.023.074.099.123.122 0 0 .023-.052.072-.029-.049-.023-.049-.023-.074-.098-.072.028-.121.005-.121.005zm-3.405-.991c-.354.782 1.957 1.441 3.405.991-1.124-.79-1.919-4.275-3.405-.991zm-57.744 80.445s-.049-.024-.025-.076l.025.076c-.072.028-.072.028 0 0zm6.805 7.495c2.19.665.36-4.202 1.571-6.223 1.178-2.733.011-5.002-1.592-7.225-.742.723-1.533 1.423-2.275 2.147-1.512 1.243-2.974 2.51-4.485 3.753 2.214 2.706 4.179 6.749 6.781 7.548zm12.301-10.545c.018-.562-1.33-1.776-1.79-1.678-2.297.361-2.516 2.285-2.077 4.459 1.446-.704 3.877-.051 3.867-2.781zm-3.89 2.833c.023-.052.023-.052 0 0-.049-.023-.049-.023-.121.006.023-.052.121-.006.121-.006zm-8.457-5.811-.024.052.049.023-.025-.075zm-.26-1.392c-.096.081.181.91.309 1.415.662-1.332.558-1.889-.309-1.415zm-108.01-350.36c-1.313 1.59-1.433 3.689.118 5.634 1.889 1.852 3.652 1.363 5.185-.06 1.749-1.638 1.433-3.69-.212-5.427-1.622-1.788-3.659-1.873-5.091-.148zm114.087 81.969-.47-.795-.426.811.896-.016zm55.483 85.181-.096.081c.025.075.002.127.051.151l.045-.232zm6.285 2.62c.478-.533.703-1.947.38-2.544-.991-1.741-2.537-1.338-3.961-.941-.845.294-1.664.664-2.532 1.01.711.656 1.398 1.365 2.181 1.992 1.272.988 2.738 1.941 3.932.483zm-6.236-2.597.003.255.217-.086c-.146-.07-.195-.093-.22-.169z" fill="#CF0"/>
</svg>
