<svg width="160" height="160" viewBox="0 0 160 160" fill="none" xmlns="http://www.w3.org/2000/svg">
    <path fill="#E0E0E0" d="M0 0h160v160H0z"/>
    <path d="M95.158 67.627c0-6.387-2.299-12.511-6.391-17.027-4.093-4.516-9.643-7.053-15.43-7.053-5.789 0-11.34 2.537-15.432 7.053-4.092 4.516-6.391 10.64-6.391 17.027h43.644zM77.1 30h-9.03v10.535h9.03v-2.107c-1.662 0-3.01-1.415-3.01-3.16 0-1.746 1.348-3.161 3.01-3.161V30zM47 72.787c0-1.188.975-2.15 2.177-2.15h20.686v5.375c0 1.78 1.462 3.225 3.266 3.225s3.266-1.444 3.266-3.225v-5.375h4.355v9.675c0 1.78 1.463 3.225 3.266 3.225 1.804 0 3.266-1.444 3.266-3.225v-9.675h8.71c1.203 0 2.178.962 2.178 2.15 0 1.187-.975 2.15-2.178 2.15h-1.088v51.599h1.088c1.203 0 2.178.963 2.178 2.15 0 1.188-.975 2.15-2.178 2.15H49.177c-1.202 0-2.177-.962-2.177-2.15 0-1.187.975-2.15 2.177-2.15h1.09v-51.6h-1.09c-1.202 0-2.177-.962-2.177-2.15z" fill="#202020"/>
    <path fill-rule="evenodd" clip-rule="evenodd" d="M80.118 33.991c-.066-.55.386-1.045 1.01-1.103l2.57-.24c.624-.059 1.183.34 1.249.892.066.55-.386 1.045-1.01 1.103l-2.57.24c-.624.059-1.183-.34-1.25-.892zm7.71-.72c-.067-.551.385-1.045 1.01-1.104l5.139-.48c.624-.058 1.183.341 1.25.892.065.551-.387 1.045-1.011 1.103l-5.14.48c-.623.06-1.183-.34-1.249-.891zm10.278-.961c-.066-.551.387-1.045 1.01-1.103l5.14-.48c.624-.06 1.183.34 1.249.891.066.551-.386 1.045-1.01 1.104l-5.14.48c-.623.058-1.183-.341-1.249-.892zm10.28-.96c-.066-.552.386-1.046 1.01-1.104l2.57-.24c.623-.059 1.183.34 1.249.892.066.55-.387 1.045-1.01 1.103l-2.57.24c-.624.059-1.183-.34-1.249-.892zm-28.268 5.194c.066-.551.625-.95 1.249-.892l2.57.24c.624.058 1.076.552 1.01 1.103-.066.551-.625.95-1.25.892l-2.57-.24c-.623-.058-1.075-.552-1.01-1.103zm7.71.72c.065-.55.624-.95 1.248-.892l5.14.48c.624.059 1.076.553 1.01 1.104-.066.55-.625.95-1.25.892l-5.139-.48c-.624-.059-1.076-.553-1.01-1.104zm10.278.961c.066-.551.626-.95 1.25-.892l5.139.48c.624.058 1.076.552 1.01 1.104-.066.55-.625.95-1.249.892l-5.14-.48c-.623-.059-1.076-.553-1.01-1.104zm10.28.96c.066-.55.625-.95 1.249-.891l2.57.24c.624.058 1.076.552 1.01 1.103-.066.551-.626.95-1.249.892l-2.57-.24c-.624-.058-1.076-.552-1.01-1.103z" fill="#202020"/>
</svg>
