<svg width="1360" height="720" viewBox="0 0 1360 720" fill="none" xmlns="http://www.w3.org/2000/svg">
    <path fill="#F8F8F8" d="M0 0h1360v720H0z"/>
    <path d="M222.633 338.023c40.225 0 63.076-13.781 63.076-38.526 0-20.515-12.678-29.599-43.355-32.731l-30.521-3.132c-14.243-1.41-18.782-4.072-18.782-10.806 0-7.674 9.234-11.746 26.451-11.746 21.287 0 37.251 6.578 45.39 17.697l20.035-16.757C270.997 226.361 249.084 219 221.067 219c-38.034 0-59.633 13.155-59.633 35.237 0 20.516 13.304 30.539 40.382 33.515l34.121 3.758c13.147 1.41 17.843 4.229 17.843 11.12 0 8.77-9.391 12.998-29.582 12.998-22.695 0-39.756-8.926-48.99-21.925l-22.539 15.818c11.426 17.54 37.095 28.502 69.964 28.502zM353.878 337.084c36.625 0 60.729-16.601 60.729-42.128 0-25.528-24.104-42.128-60.729-42.128-36.469 0-60.573 16.6-60.573 42.128 0 25.527 24.104 42.128 60.573 42.128zm0-19.263c-17.53 0-29.269-8.927-29.269-22.865 0-13.938 11.739-22.865 29.269-22.865 17.686 0 29.269 8.927 29.269 22.865 0 13.938-11.583 22.865-29.269 22.865zM428.321 359.949c19.095-2.506 25.512-14.408 25.512-27.877v-26.154h-30.678v28.19h15.809v.783c0 6.735-3.6 11.433-13.617 13.312l2.974 11.746zM534.055 334.108h30.208v-32.731c0-17.384 10.486-27.407 28.016-27.407 17.53 0 26.608 9.71 26.608 28.19v31.948h30.208v-35.237c0-29.599-15.964-46.2-44.451-46.2-18.469 0-33.182 7.204-40.381 19.89v-51.995h-30.208v113.542zM721.646 337.084c36.626 0 60.729-16.601 60.729-42.128 0-25.528-24.103-42.128-60.729-42.128-36.468 0-60.572 16.6-60.572 42.128 0 25.527 24.104 42.128 60.572 42.128zm0-19.263c-17.53 0-29.268-8.927-29.268-22.865 0-13.938 11.738-22.865 29.268-22.865 17.687 0 29.269 8.927 29.269 22.865 0 13.938-11.582 22.865-29.269 22.865zM795.874 364.647h30.208v-42.911c8.139 9.24 22.226 15.348 39.912 15.348 29.425 0 50.242-17.071 50.242-42.755 0-24.744-19.564-41.501-49.303-41.501-17.217 0-32.556 5.481-41.321 16.6v-13.625h-29.738v108.844zm59.633-46.983c-17.999 0-30.051-8.927-30.051-22.708v-1.41c0-12.842 12.521-21.455 30.521-21.455 17.999 0 28.799 8.613 28.799 22.238 0 14.408-10.956 23.335-29.269 23.335zM1040.58 337.084c36.62 0 60.73-16.601 60.73-42.128 0-25.528-24.11-42.128-60.73-42.128-36.47 0-60.576 16.6-60.576 42.128 0 25.527 24.106 42.128 60.576 42.128zm0-19.263c-17.53 0-29.27-8.927-29.27-22.865 0-13.938 11.74-22.865 29.27-22.865 17.68 0 29.27 8.927 29.27 22.865 0 13.938-11.59 22.865-29.27 22.865zM1114.8 334.108h30.21v-32.261c0-17.541 10.49-27.407 28.8-27.407 17.53 0 25.83 8.927 25.83 27.093v32.575h30.2v-37.116c0-28.973-15.33-44.164-43.82-44.164-19.72 0-34.28 7.36-41.63 21.142v-18.167h-29.59v78.305zM222.326 494.314c30.208 0 50.712-17.384 50.712-42.911 0-24.588-19.721-41.345-48.833-41.345-17.844 0-32.4 5.638-41.321 15.817v-48.079h-30.208v113.542h27.077l2.348-13.468c7.983 10.023 22.226 16.444 40.225 16.444zm-10.173-19.263c-18.313 0-30.365-9.084-30.365-22.709v-1.566c0-12.685 12.678-21.455 30.834-21.455 17.687 0 28.956 8.613 28.956 22.238 0 14.252-11.582 23.492-29.425 23.492zM342.407 494.314c36.626 0 60.729-16.601 60.729-42.128 0-25.528-24.103-42.128-60.729-42.128-36.468 0-60.572 16.6-60.572 42.128 0 25.527 24.104 42.128 60.572 42.128zm0-19.263c-17.53 0-29.268-8.927-29.268-22.865 0-13.939 11.738-22.865 29.268-22.865 17.687 0 29.269 8.926 29.269 22.865 0 13.938-11.582 22.865-29.269 22.865zM451.043 494.314c21.6 0 36.782-6.265 42.886-17.384 0 4.698.47 10.65 1.096 14.408h30.208c-.939-6.264-1.409-13.468-1.409-24.431v-21.456c0-23.334-16.121-35.393-52.747-35.393-31.616 0-53.842 11.589-56.972 29.756h32.243c1.721-7.831 10.643-12.373 24.729-12.373 13.774 0 22.226 4.542 22.226 13.156v1.879l-40.695 2.349c-16.278.94-24.73 3.289-30.677 6.891-6.574 4.072-10.017 10.336-10.017 17.853 0 15.975 14.243 24.745 39.129 24.745zm11.426-16.914c-12.365 0-19.252-3.289-19.252-9.71 0-6.108 4.852-8.927 19.096-10.023l31.303-2.192v2.662c0 11.746-12.678 19.263-31.147 19.263zM571.407 436.211v-23.178h-26.452v78.305h30.208v-25.371c0-9.24 2.505-17.227 8.296-22.551 4.539-4.542 11.738-7.205 21.443-7.205 4.539 0 8.295.47 12.521 1.253V411.78c-3.287-.469-5.635-.783-10.33-.783-18.156 0-31.304 9.867-35.686 25.214zM668.559 494.314c19.096 0 33.339-6.734 41.791-18.324v15.348h29.425V377.796h-30.208v46.826c-9.235-9.709-21.912-14.564-39.756-14.564-30.051 0-50.398 16.913-50.398 41.658 0 25.371 20.347 42.598 49.146 42.598zm11.426-19.42c-17.843 0-29.112-8.927-29.112-23.021 0-13.939 10.8-22.709 28.486-22.709 18.156 0 30.834 8.927 30.834 21.925v1.88c0 12.998-12.678 21.925-30.208 21.925zM769.339 454.222h25.982l4.226-76.426h-34.434l4.226 76.426zm30.051 12.685h-34.277v24.431h34.277v-24.431z" fill="#202020"/>
    <path d="M176.823 475.216c146.29-6.198 292.677-9.947 439.104-10.89 35.327-.257 70.652-.275 105.922-.174 2.145 2.816 5.265 4.621 8.935 3.862a11684.67 11684.67 0 0 1 19.487-3.851c13.387-2.625 6.574-22.356-4.751-22.408-157.639-.72-315.29 1.605-472.849 7.035-44.77 1.527-89.541 3.352-134.259 5.357-13.108.596-6.9 22.951 4.751 22.407 8.038-.381 16.075-.643 24.112-.964l9.548-.374zM968.221 423.186c-.684-.562-1.743-.668-2.219-1.251-1.409-1.541-3.193-2.625-5.164-3.481-.643-.147-1.119-.729-1.576-1.104-.891-.542-1.763-.877-2.862-1.398-1.723-.461-1.91-.233-2.806 1.324-.876 1.764-1.524 3.716-2.608 5.5-3.21 5.77-5.735 12.102-8.925 18.079-1.96 3.549-3.671 7.493-5.838 11.062-1.104 1.577-2.02 2.926-2.46 4.857-.167.436-.355.664-.729 1.12-.583.477-.957.933-1.52 1.618l-4.998 6.784-3.706 4.979c-1.104 1.576-2.208 3.153-3.788 4.147-.188.228-.416.041-.623.061l-.228-.187c-.183-1.871.277-3.594.51-5.505.419-2.14.859-4.071 1.072-6.19.065-1.475.546-2.991.839-4.278.522-1.1.856-1.972 1.169-3.052.42-2.139.84-4.279 1.488-6.23 1.275-4.112 2.135-8.182 3.431-12.086.982-2.823 1.507-6.022 2.51-8.638.982-2.824 1.735-5.835 3.153-8.492.709-1.328.982-2.823 1.67-4.359.147-.644.481-1.516.815-2.388.876-1.764 1.524-3.716 1.964-5.648.293-1.287.587-2.575 1.316-3.695 1.772-3.321 3.108-6.809 3.573-10.631.42-2.139 1.463-4.339 1.239-6.625-.02-.208.355-.665.542-.893.709-1.328.567-2.783.424-4.237-.101-1.04-.578-1.622-1.054-2.205-4.105-3.375-8.397-6.521-12.688-9.668-1.597-1.312-3.051-1.17-4.362.428-1.894 2.073-4.036 3.752-6.159 5.638-1.934 1.658-3.849 3.524-5.535 5.578-.749.912-1.478 2.033-2.664 2.778-.582.477-.936 1.141-1.311 1.598-2.978 3.858-6.204 7.321-8.725 11.554-1.458 2.241-3.332 4.523-4.562 6.951-1.939 3.757-4.355 6.931-6.502 10.708-.374.456-.334.872-.916 1.349-.33-1.227-.472-2.682-.179-3.969.754-3.011 1.28-6.21 1.806-9.409.95-7.436 1.264-8.516 1.175-15.851.147-.643.065-1.475.42-2.139.481-1.516.318-3.178.363-4.861-.081-.831-.37-1.642-1.054-2.205-1.804-1.292-3.233-3.04-4.83-4.352-.704-.771-1.388-1.333-2.072-1.896-.892-.542-1.784-1.084-3.03-.962-.623.061-1.266-.085-1.535-.689-.477-.582-.851-.126-1.246.122-.375.457-.75.913-.689 1.537-.379 2.554-.55 5.089-.722 7.624-.465 3.822-.722 7.623-1.187 11.446-.419 2.139-.611 4.465-1.239 6.625-.379 2.555-.966 5.13-1.553 7.705l-2.099 10.696a188.92 188.92 0 0 1-3.101 13.312c-.293 1.288.037 2.515-.257 3.802-.293 1.288-1.23 2.429-1.544 3.508-1.341 5.587-3.117 11.006-3.835 16.531.041.416-.126.852-.273 1.496-1.674 6.458-3.537 13.145-4.34 19.937-.424 4.238-1.243 8.724-1.647 13.17-.506 3.407.28 5.008 3.183 6.822l1.992 1.064 9.15 3.51c.208-.021.643.146 1.059.106.643.146 1.059.106 1.413-.558l1.21-2.637c.46-1.723 1.128-3.467 1.589-5.191 1.341-5.586 3.117-11.005 5.309-16.465l1.002-2.616a3.1 3.1 0 0 0-.264-2.702c-.456-.375-.31-1.019.314-1.08 1.246-.122 2.016-.827 2.537-1.927l2.065-4.608c1.483-4.132 3.838-7.929 5.757-11.894 1.918-3.964 4.253-7.969 6.192-11.726.541-.892 1.291-1.805.753-3.011.77-.705 1.54-1.41 1.854-2.49.501-1.308 1.873-2.281 2.375-3.589.647-1.952 1.959-3.549 3.043-5.334l5.959-9.815c.709-1.328 1.438-2.449 2.375-3.59.167-.436.521-1.1 1.144-1.161.33 1.227-.191 2.327-.713 3.427-.876 1.764-1.316 3.696-1.964 5.647-1.462 4.34-2.945 8.472-3.785 12.75-.481 1.516-.566 2.783-1.067 4.091-1.023 2.408-1.423 4.755-1.822 7.102-.147.644-.273 1.496-.44 1.932-1.063 1.992-1.296 3.903-1.736 5.835-1.047 4.298-2.074 8.805-2.914 13.083-.526 3.199-.823 6.585-.706 9.931-.07 3.573.504 7.294.642 10.847.102 1.039.598 1.83 1.095 2.62.973 1.374 1.926 2.539 3.461 3.228 3.734 1.732 7.697 3.652 11.826 5.136 2.802.775 5.73.698 8.267-1.229l.187-.228c3.369-2.009 5.764-5.39 8.428-8.169 1.352-1.182 2.268-2.53 3.393-3.899 1.291-1.805 2.769-3.838 4.268-5.663 1.292-1.805 2.583-3.61 3.854-5.623.354-.664.501-1.308 1.063-1.993 2.081-2.302 3.686-5.186 5.291-8.071 1.064-1.992 1.899-4.172 2.962-6.165.045-1.683.982-2.824 2.126-3.985.542-.892 1.104-1.576 1.438-2.448 1.919-3.965 4.066-7.742 5.133-11.833.167-.436.355-.664.542-.892 1.854-2.49 2.835-5.313 2.946-8.471l.501-1.308c.187-.229.354-.665.334-.872a2.508 2.508 0 0 0-1.14-.938zm-51.115-14.506c.248.395.04.416-.167.436l.167-.436zm-28.093 8.626.187-.228c-.187.228-.187.228-.167.436l-.02-.208z" fill="#CF0"/>
    <path d="m1015.68 408.468-7.2-4.961c-.7-.77-1.62-1.52-2.49-1.854-1.53-.689-2.09-2.103-2.65-3.517-.25-.395-.08-.831.13-.852 1.39-.766 1.71-1.845 2-3.133.44-1.931.28-3.594.32-5.277l-.34-3.533c-.29-2.909-1.78-5.281-4.04-6.948-1.616-1.52-3.273-3.456-5.305-4.935-2.093-2.103-4.373-3.978-6.861-5.833-2.716-2.041-5.831-1.736-8.764.439-.187.228-.375.456-.77.705-3.181 1.78-5.221 4.498-7.014 7.611-.729 1.12-1.21 2.636-1.959 3.549-3.267 3.047-4.79 6.763-6.75 10.312-2.982 5.957-5.133 11.832-7.243 18.124-1.276 4.111-2.987 8.055-3.391 12.501-1.209 2.636-1.568 5.399-2.363 7.994-1.65 4.568-2.636 9.49-3.643 14.205-.273 1.495-.298 3.386-.778 4.902-.799 4.694-.56 9.286-.528 13.899-.302 5.484 1.64 10.33 5.182 14.389 1.698 2.351 3.771 4.246 6.405 5.457 5.249 2.213 10.914 4.386 16.289 5.748.644.147 1.287.294 1.91.233 1.474.065 2.741.151 4.402-.012 1.662-.163 3.096-.513 4.529-.863.623-.061 1.226-.33 1.849-.391 4.615-2.13 8.504-5.239 11.461-9.305 1.292-1.805 2.152-3.777 3.442-5.582.71-1.328 1.41-2.657 1.92-3.965 1.06-4.091 3.42-7.888 4.26-12.167-.02-.207.16-.435.14-.643 1.09-1.785 1.53-3.716 1.95-5.856.56-2.783 1.11-5.773 2.11-8.389.36-.664.28-1.496.42-2.14.69-3.634 1.14-7.664 1.85-11.091.48-1.516.53-3.199.39-4.653-.15-1.455-.08-2.93.42-4.238.79-2.596 1.42-4.755.97-7.229-.04-.415.13-.851.31-1.08.15-.643-.12-1.246-.57-1.621zm-26.04-21.789s.021.208-.187.229l.187-.229zm9.975 16.228-2.943 17.073c-.167.436-.354.664-.313 1.08-.616 6.564-2.707 13.063-4.402 19.314-.733 3.219-1.882 6.479-2.803 9.926-.693 3.634-2.298 6.519-3.883 9.612-1.584 3.092-3.189 5.977-5.043 8.467-2.04 2.717-4.557 4.852-7.303 6.799-1.56 1.202-3.596 1.821-5.445 2.212-2.036.619-3.054.929-3.547-1.96-.517-.999-.598-1.83-.305-3.118-.015-2.306-.467-4.78-.483-7.086-.407-4.156.079-7.771.751-11.613.4-2.347.799-4.694.991-7.021.187-.228.146-.644.334-.872.916-1.349.774-2.803 1.047-4.299.294-1.287 1.002-2.616.652-4.05l1.883-6.479c.354-.664.709-1.328.648-1.951-.265-2.702 1.214-4.735 2.049-6.915 1.023-2.408 1.63-4.776 2.465-6.955.481-1.516.754-3.012 1.67-4.36.73-1.121-.244-2.494.921-3.447.978-.726 1.251-2.221 1.565-3.301.668-1.744 2-3.133 2.252-4.836-.02-.208.188-.229.168-.436 3.038-3.235 4.916-7.615 7.934-11.058.188-.228.603-.269.79-.497.31 1.019-.232 1.911-.794 2.595-.668 1.744-.339 2.971.427 4.365.497.79 1.201 1.56 2.093 2.102 2.26 1.667 4.748 3.522 7.215 5.168l.664.355c.664.355.912.75.745 1.186zM1141.28 409.594l-.89-.542c-1.64.37-2.54-.172-3.68-1.109-1.57-1.105-2.48-1.854-4.42-2.295-.45-.375-1.09-.522-1.72-.461-1.06-.106-2.09-.004-3.19-.526-.21.021-.81.289-1 .518-.21.02-.38.456-.54.892l-4.16 9.009c-1.25 2.22-2.5 4.441-2.88 6.996-.56.684-.66 1.744-1.23 2.428-1.58 3.093-3.21 5.77-4.38 8.822-1.73 3.736-3.44 7.68-5.15 11.624-.87 1.765-2.12 3.985-2.75 6.145-.19.228-.34.872-.52 1.1-1.75 1.43-2.42 3.174-3.71 4.979-1.23 2.428-3.1 4.71-5.02 6.576-.19.228-.6.269-.79.497-.78-1.602-1.18-3.452-1.13-5.135l-.29-9.413c-.35-1.434-.27-2.701-.18-3.969.17-2.534.32-5.276.91-7.852.42-2.139.42-4.237.45-6.128.23-1.911.03-3.989.67-5.941.68-3.843 1.54-7.913 2-11.735-.06-.624.11-1.06.25-1.704.69-1.536.97-3.031 1.01-4.714-.06-.624-.1-1.039.05-1.683.62-2.16 1.04-4.299 1.03-6.605.12-.852.27-1.496.21-2.119.34-2.971 1.53-5.815 1.04-8.704-.07-.623.08-1.267.23-1.911l1.53-5.814.71-3.427.86-4.071c.48-1.516 1.03-4.506 1.11-5.774-.16-1.662.42-2.139.69-3.634.15-.644.51-1.308 1.34-1.39 2.7-.264 5.42-.321 8.43-1.665.44.167 1.04-.102 1.45-.142 1.42-.558 3.04-1.137 4.51-1.071 3.37.09 6.4-1.047 9.39-2.599.59-.476 1.15-1.161 1.96-1.45.56-.684.9-1.556.81-2.388-.08-.831-.55-1.414-1.22-1.768-1.41-1.541-3.38-2.397-5.18-3.689-2.01-1.272-4.19-2.107-6.37-2.943-1.29-.293-2.14-.42-3.09.513-1.98 1.243-3.96 2.485-5.95 3.52-.6.269-1.23.33-2.06.411-.41.041-.89-.542-.93-.958.65-1.951.67-3.842.7-5.733.16-.436.33-.872.29-1.287 1.5-3.924 1.24-6.626 1.68-10.656.18-2.534.17-.436.55-2.991.4-2.347.38-4.653.8-6.792-.08-.832-.35-1.435-.82-2.018-.89-.542-1.83-1.499-3.09-1.585-1.43-1.749-3.59-2.376-5.75-3.004-.85-.127-1.33-.709-1.99-1.064-1.35-.917-2.3-2.083-3.96-1.92-.71 1.328-.78 2.803-1.05 4.299l.1 1.039c-.4 2.347-.61 4.466-.82 6.585l-.76 3.011c-.58 2.575-1.21 4.735-1.17 7.249-1.07 4.091-.79 7-1.87 10.884-.51 1.307-.57 2.783-.84 4.278l-.76 3.011c-.17.436-1.15 5.358-2.01 9.429-.67-.355-1.31-.501-1.6-1.312-.04-.416-.49-.791-.93-.958-.91-.75-1.8-1.292-2.7-1.834l-4.91-3.086c-.46-.374-.91-.749-1.33-.709-2.53-.171-5.08-.551-7.72.337-4.45 1.695-7.47 5.137-10.47 8.788-.27 1.495-1.46 2.241-2.16 3.569-1.15 1.161-2.11 2.094-3.02 3.443-.88 1.764-3.55 6.641-4.86 8.239-.72-.978-.36-5.84-.42-6.463-.12-1.247-.6-1.83-1.3-2.6-1.14-.937-1.56-.897-2.72-2.042-.72-.978-1.8-1.292-2.9-1.814-1.08-.314-1.97-.856-2.89-1.606-.7-.77-1.76-.876-2.65-1.418-.85-.127-1.25.122-1.81.806-.56.685-.69 1.537-.81 2.388-.64 6.357-1.3 12.506-2.56 18.923-.44 1.932-1.1 3.676-1.13 5.566-.31 1.08-.4 2.347-.92 3.448-.84 2.179-1.46 4.339-1.03 6.605.1 1.039-.42 2.139-.96 3.031-.46 1.724-1.15 3.26-1.41 4.963-.58 2.575-.96 5.13-1.34 7.685l-.4 2.347c-1.17 3.052-1.69 6.251-2.24 9.242l-3.07 15.826c-.5 3.406-1.42 6.853-1.28 10.407-1.11 3.675-1.27 10.614-1.53 14.416l-.45 6.129c-.19 2.326 1.45 4.054 3.44 5.118.66.355 1.74.669 2.82.983 2.55.379 4.94 1.194 7.49 1.574 3.64.693 4.17 1.899 5.16-3.023.32-3.178.8-6.793 1.54-10.012 1.52-5.814 2.31-14.913 3.59-21.123.31-1.08.61-2.367 1.15-3.26.5-1.308 1-2.616 1.28-4.111.37-2.555 1.42-4.755 1.82-7.102 1.27-2.013 1.27-4.112 1.5-6.023.13-.851.28-1.495.84-2.179 2-3.134 2.88-6.997 4.4-10.713 1.96-3.548 3.28-7.244 5.22-11.001 1.46-2.241 2.48-4.649 3.73-6.869l1.81-2.906c.32-1.079 1.48-2.033 2.19-3.361.35-.664.92-1.349.61-2.367-.13-1.247-.15-1.455.89-1.557 1.44-.35 2.17-1.47 2.92-2.383 1.1-1.577 1.79-3.113 2.89-4.69.92-1.348 1.77-3.321 3.11-4.71 1.54-1.409 3.07-2.819 4.2-4.188 1.69-2.054 3.41-3.691 5.62-4.746 1.18-.746 2.84-.909 4.73-.884-.29 1.288-.4 2.347-.58 2.575-1.15 3.26-1.75 7.934-2.48 11.153-.92 5.545-2.06 11.112-2.77 16.637-.42 2.139-1.07 4.091-.66 6.149.02.208-.15.644-.34.872-.94 3.239-1.03 6.605-1.51 10.219a21.486 21.486 0 0 0-.74 5.318c.08.831-.07 1.475-.4 2.347-1.13 3.467-1.18 7.249-1.87 10.883-.46 1.724-.49 3.615-.53 5.298-.34 2.97-.24 6.108-.37 9.058-.41 4.445.23 8.789.66 13.154.04.415.08.831.3 1.018.77 3.493 2.77 6.863 4.53 9.838 2.28 3.973 6.11 6.744 10.76 7.128 3.18.319 6.17.865 9.39 1.599 2.78.567 5.42-.321 7.56-2 1.95-1.45 2.79-3.63 4.99-4.685.21-.02.19-.228.19-.228.46-1.724 2.04-2.718 2.96-4.066 1.83-2.697 3.25-5.354 4.83-8.447 1.8-3.113 3.61-6.018 4.51-9.673.81-2.387 1.42-4.755 3.11-6.808.39-.249.56-.685.75-.913l3.9-9.404c1.36-3.28 3.09-7.016 4.67-10.109 1.4-2.864 2.59-5.708 3.76-8.76.69-1.536.21-2.119-1.49-2.372z" fill="#CF0"/>
    <path d="M1130.19 473.203c1.06.106 1.85-.391 1.96-1.45.31-1.08.4-2.347.92-3.447.25-1.704.71-3.427 1.17-5.151.07-1.475.53-3.198 1.24-4.527 1.54-3.508 2.63-7.391 4.15-11.107l3.2-8.076 3.42-7.888c.17-.436.56-.685.73-1.121 1.48-4.131 4.48-7.782 5.09-12.248-.04-.416.13-.852.5-1.308.55-.892 1.07-1.992 2.23-2.946.98-.725 1.69-2.053 1.75-3.528.07-1.475.8-2.596 1.76-3.529.58-.476.93-1.141 1.29-1.805.52-1.1 1.25-2.22 2.18-3.361 1.09-1.785 2.83-3.215 3.48-5.166.65-1.952 1.75-3.529 2.63-5.293.58-.477 1.35-1.182 1.89-2.074.71-1.328 1.88-2.282 1.92-3.965-.04-.415.13-.851.94-1.14.81-.29 1.16-.954 1.52-1.618.17-.436.56-.684.75-.912.41-.041.12-.852.77-.705.25.395.27.603.29.811l-1.28 4.111c-.48 1.516-1.17 3.052-1.67 4.36-.06 1.475-.75 3.011-1.23 4.527l-4.71 16.196c-.17.436-.15.644-.11 1.06-.27 3.594-1.44 6.646-1.95 10.052-.25 1.703-.96 3.032-1 4.715l-1.98 11.943c-.42 2.139-.82 4.486-.6 6.772.25 2.494.06 4.821.3 7.314.08.832.16 1.663.45 2.474 1.63 3.826 4.06 7.156 8.6 8.599l12.06 3.225c4.07.861 6.91-.048 9.31-3.429-.02-.208.19-.229.37-.457.28-1.495 1.27-2.012 2.73-2.155.41-.041.81-.289.98-.725.77-.705 1.74-1.43 2.04-2.718.29-1.287-.23-2.286 1.23-2.428.62-.061 1.18-.746 1.76-1.222 1.34-1.39 2.23-2.946 3.11-4.71.87-1.765 1.79-3.113 2.69-4.67l3.25-5.353c.87-1.765 2.37-3.59 2.79-5.729-.02-.208.19-.228.17-.436 1.81-2.905 6.48-13.014 8.78-17.435.56-.685 1.12-1.369 1.46-2.241.66-1.744.38-2.555-1.39-3.431-.89-.542-1.74-.669-3.01-.755-1.45.143-2.14-.42-2.92-2.021-.25-.395-.5-.791-.93-.958-1.99-1.064-3.99-2.128-6.16-2.963-.46-.375-.86-.127-1.25.122-.38.456-.75.912-.92 1.348-1.08 1.785-2.4 5.481-3.9 7.306-.58.477-4.44 8.198-4.79 8.862-.71 1.328-1.21 2.636-1.71 3.944-.92 1.349-1.44 2.449-2.17 3.569-2.83 5.314-5.69 10.419-8.98 15.357-1.65 2.469-2.92 4.482-4.4 6.515-.56.685-1.14 1.161-1.72 1.638-.29-.811-.37-1.642-.45-2.474.21-2.118.42-4.237.84-6.377.29-1.287.81-2.387.69-3.634.07-3.574.99-7.021 1.27-10.615.03-1.891.47-3.822.93-5.546.85-1.972 1.5-3.924 1.5-6.022.42-2.139 1.53-3.716 1.97-5.647.16-.436.14-.644.1-1.06.24-1.911.9-3.655 1.57-5.399.34-.872.44-1.931.98-2.824 1.63-2.676 1.91-6.27 2.64-9.489 1.04-2.201 1.44-4.548 2.67-6.976.84-2.18 1.65-4.568 1.84-6.894l1.39-5.171c.92-3.447 1.42-6.854.66-10.346.17-.436-.1-1.039-.33-1.227-.74-1.186-1.47-2.164-2.8-2.873-.7-.77-1.59-1.312-2.5-2.062-3.2-2.625-6.31-4.418-9.27-6.856-1.14-.937-2.22-1.251-3.82-.465-1.98 1.243-3.76 2.257-5.06 4.062-1.89 2.074-4.03 3.752-5.24 6.389-.36.664-.94 1.141-1.52 1.617-3.62 3.712-7.68 7.256-9.95 11.885l-.56.684c-.75.913-1.48 2.034-1.57 3.301-.15.644-.5 1.308-1.08 1.784-1.23.33-2.14 1.679-2.67 2.779-2.1 4.193-5.44 10.814-7.79 14.611-.19.228-.4.249-.61.269l-.22-.187c.08-1.268.3-5.485.61-6.565.65-1.952.67-3.842.89-5.961.46-3.822 1.32-7.893 1.79-11.715.27-1.496.13-2.95.42-4.238.9-3.655 1.57-7.497 2.04-11.319.42-2.14.42-4.238 1.05-6.398.5-1.308-.24-2.494.46-3.822-.45-.375-.72-.978-1.18-1.353-.22-.187-.24-.395-.06-.623.38-.457.77-.705.94-1.141.86-1.972 1.92-3.965 2.09-6.499l.4-2.347c.51-3.407 1.43-6.854 2.16-10.073.63-2.16.84-4.278 1.26-6.418.33-.872.25-1.703-.64-2.245-2.07-1.895-3.75-4.039-6.01-5.706-1.64-1.728-3.84-2.771-5.47-4.499-.94-.958-2.37-.608-2.66.68-.13.852-.23 1.911-.57 2.783l-5.48 29.701c-.93 5.545-1.4 11.466-2.74 17.052l.04.416c-.35 2.763-.88 5.961-1.43 8.952-.84 4.279-1.49 8.329-2.14 12.379l-1.96 12.151c-1.2 7.041-2.17 14.27-3.34 21.519-1.08 6.189-2.54 12.627-3.59 19.025-.3 1.287.03 2.514-.28 3.594-.07 1.475-.82 2.387-1.11 3.675-.34 2.971-.68 5.941-1.22 8.932l-.77 7.208-1.63 6.874-.44 4.03c-.51 1.308.01 2.306.92 3.056 1.14.938 2.28 1.875 3.36 2.189 3.03.962 6.06 1.924 9.05 2.471l2.55.379z" fill="#CF0"/>
</svg>
