<svg width="600" height="544" viewBox="0 0 600 544" fill="none" xmlns="http://www.w3.org/2000/svg">
    <path d="M139.598 21.558h5.06V24h-8.14V8.644h3.08v12.914zm12.43 2.64c-1.174 0-2.23-.257-3.168-.77a5.77 5.77 0 0 1-2.222-2.222c-.528-.953-.792-2.053-.792-3.3 0-1.247.271-2.347.814-3.3a5.725 5.725 0 0 1 2.266-2.2c.953-.528 2.016-.792 3.19-.792 1.173 0 2.236.264 3.19.792a5.588 5.588 0 0 1 2.244 2.2c.557.953.836 2.053.836 3.3 0 1.247-.286 2.347-.858 3.3a5.85 5.85 0 0 1-2.288 2.222c-.954.513-2.024.77-3.212.77zm0-2.684c.557 0 1.078-.132 1.562-.396.498-.279.894-.69 1.188-1.232.293-.543.44-1.203.44-1.98 0-1.159-.308-2.046-.924-2.662-.602-.63-1.342-.946-2.222-.946-.88 0-1.621.315-2.222.946-.587.616-.88 1.503-.88 2.662s.286 2.053.858 2.684c.586.616 1.32.924 2.2.924zm11.697-7.81a4.357 4.357 0 0 1 1.54-1.518c.645-.367 1.379-.55 2.2-.55v3.234h-.814c-.968 0-1.701.227-2.2.682-.484.455-.726 1.247-.726 2.376V24h-3.08V11.812h3.08v1.892zm17.144 3.938c0 .44-.029.836-.088 1.188h-8.91c.074.88.382 1.57.924 2.068.543.499 1.21.748 2.002.748 1.144 0 1.958-.491 2.442-1.474h3.322c-.352 1.173-1.026 2.141-2.024 2.904-.997.748-2.222 1.122-3.674 1.122-1.173 0-2.229-.257-3.168-.77a5.668 5.668 0 0 1-2.178-2.222c-.513-.953-.77-2.053-.77-3.3 0-1.261.257-2.369.77-3.322a5.377 5.377 0 0 1 2.156-2.2c.924-.513 1.988-.77 3.19-.77 1.159 0 2.193.25 3.102.748a5.156 5.156 0 0 1 2.134 2.134c.514.91.77 1.958.77 3.146zm-3.19-.88c-.014-.792-.3-1.423-.858-1.892-.557-.484-1.239-.726-2.046-.726-.762 0-1.408.235-1.936.704-.513.455-.828 1.093-.946 1.914h5.786zm20.575-5.126c1.496 0 2.698.462 3.608 1.386.924.91 1.386 2.185 1.386 3.828V24h-3.08v-6.732c0-.953-.242-1.68-.726-2.178-.484-.513-1.144-.77-1.98-.77-.836 0-1.504.257-2.002.77-.484.499-.726 1.225-.726 2.178V24h-3.08v-6.732c0-.953-.242-1.68-.726-2.178-.484-.513-1.144-.77-1.98-.77-.851 0-1.526.257-2.024.77-.484.499-.726 1.225-.726 2.178V24h-3.08V11.812h3.08v1.474a4.12 4.12 0 0 1 1.518-1.21c.63-.293 1.32-.44 2.068-.44.953 0 1.804.205 2.552.616a4.172 4.172 0 0 1 1.738 1.716c.396-.704.968-1.269 1.716-1.694a4.976 4.976 0 0 1 2.464-.638zm16.239-2.992V24h-3.08V8.644h3.08zm6.123 4.928c.396-.557.938-1.02 1.628-1.386.704-.381 1.503-.572 2.398-.572 1.041 0 1.98.257 2.816.77.85.513 1.518 1.247 2.002 2.2.498.939.748 2.031.748 3.278 0 1.247-.25 2.354-.748 3.322-.484.953-1.152 1.694-2.002 2.222-.836.528-1.775.792-2.816.792-.895 0-1.687-.183-2.376-.55a5.1 5.1 0 0 1-1.65-1.386v7.546h-3.08V11.812h3.08v1.76zm6.446 4.29c0-.733-.154-1.364-.462-1.892a3.018 3.018 0 0 0-1.188-1.232 3.119 3.119 0 0 0-1.584-.418c-.558 0-1.086.147-1.584.44-.484.279-.88.69-1.188 1.232-.294.543-.44 1.18-.44 1.914 0 .733.146 1.371.44 1.914.308.543.704.96 1.188 1.254a3.195 3.195 0 0 0 1.584.418 3 3 0 0 0 1.584-.44 3.17 3.17 0 0 0 1.188-1.254c.308-.543.462-1.188.462-1.936zm10.048 6.336c-.998 0-1.892-.176-2.684-.528-.792-.367-1.423-.858-1.892-1.474a3.748 3.748 0 0 1-.748-2.046h3.102c.058.47.286.858.682 1.166.41.308.916.462 1.518.462.586 0 1.041-.117 1.364-.352.337-.235.506-.535.506-.902 0-.396-.206-.69-.616-.88-.396-.205-1.034-.425-1.914-.66-.91-.22-1.658-.447-2.244-.682a3.986 3.986 0 0 1-1.496-1.078c-.411-.484-.616-1.137-.616-1.958 0-.675.19-1.29.572-1.848.396-.557.953-.997 1.672-1.32.733-.323 1.591-.484 2.574-.484 1.452 0 2.61.367 3.476 1.1.865.719 1.342 1.694 1.43 2.926h-2.948c-.044-.484-.25-.865-.616-1.144-.352-.293-.829-.44-1.43-.44-.558 0-.99.103-1.298.308a.987.987 0 0 0-.44.858c0 .41.205.726.616.946.41.205 1.048.418 1.914.638.88.22 1.606.447 2.178.682a3.72 3.72 0 0 1 1.474 1.1c.425.484.645 1.13.66 1.936 0 .704-.198 1.335-.594 1.892-.382.557-.939.997-1.672 1.32-.719.308-1.562.462-2.53.462zm18.83-12.386V24h-3.102v-1.54a4.144 4.144 0 0 1-1.562 1.254c-.631.293-1.32.44-2.068.44-.953 0-1.797-.198-2.53-.594a4.423 4.423 0 0 1-1.738-1.782c-.411-.792-.616-1.73-.616-2.816v-7.15h3.08v6.71c0 .968.242 1.716.726 2.244.484.513 1.144.77 1.98.77.851 0 1.518-.257 2.002-.77.484-.528.726-1.276.726-2.244v-6.71h3.102zm18.175-.176c1.496 0 2.699.462 3.608 1.386.924.91 1.386 2.185 1.386 3.828V24h-3.08v-6.732c0-.953-.242-1.68-.726-2.178-.484-.513-1.144-.77-1.98-.77-.836 0-1.503.257-2.002.77-.484.499-.726 1.225-.726 2.178V24h-3.08v-6.732c0-.953-.242-1.68-.726-2.178-.484-.513-1.144-.77-1.98-.77-.851 0-1.525.257-2.024.77-.484.499-.726 1.225-.726 2.178V24h-3.08V11.812h3.08v1.474a4.12 4.12 0 0 1 1.518-1.21 4.844 4.844 0 0 1 2.068-.44c.953 0 1.804.205 2.552.616a4.172 4.172 0 0 1 1.738 1.716c.396-.704.968-1.269 1.716-1.694a4.979 4.979 0 0 1 2.464-.638zm18.527-2.992c1.613 0 3.029.315 4.246.946 1.232.63 2.178 1.533 2.838 2.706.675 1.159 1.012 2.508 1.012 4.048s-.337 2.89-1.012 4.048c-.66 1.144-1.606 2.031-2.838 2.662-1.217.63-2.633.946-4.246.946h-5.368V8.644h5.368zm-.11 12.738c1.613 0 2.86-.44 3.74-1.32.88-.88 1.32-2.12 1.32-3.718 0-1.599-.44-2.845-1.32-3.74-.88-.91-2.127-1.364-3.74-1.364h-2.178v10.142h2.178zm15.923 2.816c-1.173 0-2.229-.257-3.168-.77a5.783 5.783 0 0 1-2.222-2.222c-.528-.953-.792-2.053-.792-3.3 0-1.247.272-2.347.814-3.3a5.738 5.738 0 0 1 2.266-2.2c.954-.528 2.017-.792 3.19-.792 1.174 0 2.237.264 3.19.792a5.575 5.575 0 0 1 2.244 2.2c.558.953.836 2.053.836 3.3 0 1.247-.286 2.347-.858 3.3a5.844 5.844 0 0 1-2.288 2.222c-.953.513-2.024.77-3.212.77zm0-2.684a3.21 3.21 0 0 0 1.562-.396c.499-.279.895-.69 1.188-1.232.294-.543.44-1.203.44-1.98 0-1.159-.308-2.046-.924-2.662-.601-.63-1.342-.946-2.222-.946-.88 0-1.62.315-2.222.946-.586.616-.88 1.503-.88 2.662s.286 2.053.858 2.684c.587.616 1.32.924 2.2.924zM320.153 7.72V24h-3.08V7.72h3.08zm8.455 16.478c-1.174 0-2.23-.257-3.168-.77a5.77 5.77 0 0 1-2.222-2.222c-.528-.953-.792-2.053-.792-3.3 0-1.247.271-2.347.814-3.3a5.725 5.725 0 0 1 2.266-2.2c.953-.528 2.016-.792 3.19-.792 1.173 0 2.236.264 3.19.792a5.588 5.588 0 0 1 2.244 2.2c.557.953.836 2.053.836 3.3 0 1.247-.286 2.347-.858 3.3a5.85 5.85 0 0 1-2.288 2.222c-.954.513-2.024.77-3.212.77zm0-2.684c.557 0 1.078-.132 1.562-.396.498-.279.894-.69 1.188-1.232.293-.543.44-1.203.44-1.98 0-1.159-.308-2.046-.924-2.662-.602-.63-1.342-.946-2.222-.946-.88 0-1.621.315-2.222.946-.587.616-.88 1.503-.88 2.662s.286 2.053.858 2.684c.586.616 1.32.924 2.2.924zm11.697-7.81a4.357 4.357 0 0 1 1.54-1.518c.645-.367 1.379-.55 2.2-.55v3.234h-.814c-.968 0-1.701.227-2.2.682-.484.455-.726 1.247-.726 2.376V24h-3.08V11.812h3.08v1.892zM4.598 186.558h5.06V189h-8.14v-15.356h3.08v12.914zm12.43 2.64c-1.174 0-2.23-.257-3.168-.77a5.778 5.778 0 0 1-2.222-2.222c-.528-.953-.792-2.053-.792-3.3 0-1.247.271-2.347.814-3.3a5.73 5.73 0 0 1 2.266-2.2c.953-.528 2.016-.792 3.19-.792 1.173 0 2.236.264 3.19.792a5.584 5.584 0 0 1 2.244 2.2c.557.953.836 2.053.836 3.3 0 1.247-.286 2.347-.858 3.3a5.849 5.849 0 0 1-2.288 2.222c-.954.513-2.024.77-3.212.77zm0-2.684c.557 0 1.078-.132 1.562-.396a3.011 3.011 0 0 0 1.188-1.232c.293-.543.44-1.203.44-1.98 0-1.159-.308-2.046-.924-2.662-.602-.631-1.342-.946-2.222-.946-.88 0-1.621.315-2.222.946-.587.616-.88 1.503-.88 2.662s.286 2.053.858 2.684c.586.616 1.32.924 2.2.924zm11.697-7.81a4.364 4.364 0 0 1 1.54-1.518c.645-.367 1.379-.55 2.2-.55v3.234h-.814c-.968 0-1.701.227-2.2.682-.484.455-.726 1.247-.726 2.376V189h-3.08v-12.188h3.08v1.892zm17.145 3.938c0 .44-.03.836-.088 1.188h-8.91c.073.88.38 1.569.923 2.068.543.499 1.21.748 2.002.748 1.145 0 1.959-.491 2.443-1.474h3.322c-.352 1.173-1.027 2.141-2.024 2.904-.998.748-2.222 1.122-3.674 1.122-1.174 0-2.23-.257-3.168-.77a5.67 5.67 0 0 1-2.178-2.222c-.514-.953-.77-2.053-.77-3.3 0-1.261.256-2.369.77-3.322a5.372 5.372 0 0 1 2.155-2.2c.924-.513 1.988-.77 3.19-.77 1.16 0 2.193.249 3.102.748a5.162 5.162 0 0 1 2.134 2.134c.514.909.77 1.958.77 3.146zm-3.19-.88c-.015-.792-.301-1.423-.858-1.892-.558-.484-1.24-.726-2.047-.726-.762 0-1.407.235-1.935.704-.514.455-.83 1.093-.947 1.914h5.786zm20.574-5.126c1.496 0 2.698.462 3.608 1.386.924.909 1.386 2.185 1.386 3.828V189h-3.08v-6.732c0-.953-.242-1.679-.726-2.178-.484-.513-1.144-.77-1.98-.77-.836 0-1.504.257-2.002.77-.484.499-.726 1.225-.726 2.178V189h-3.08v-6.732c0-.953-.242-1.679-.726-2.178-.484-.513-1.144-.77-1.98-.77-.851 0-1.526.257-2.024.77-.484.499-.726 1.225-.726 2.178V189h-3.08v-12.188h3.08v1.474a4.12 4.12 0 0 1 1.518-1.21c.63-.293 1.32-.44 2.068-.44.953 0 1.804.205 2.552.616a4.17 4.17 0 0 1 1.738 1.716c.396-.704.968-1.269 1.716-1.694a4.981 4.981 0 0 1 2.464-.638zm16.239-2.992V189h-3.08v-15.356h3.08zm6.123 4.928c.396-.557.938-1.019 1.628-1.386.704-.381 1.503-.572 2.398-.572 1.04 0 1.98.257 2.816.77.85.513 1.518 1.247 2.002 2.2.498.939.748 2.031.748 3.278 0 1.247-.25 2.354-.748 3.322-.484.953-1.152 1.694-2.002 2.222-.836.528-1.775.792-2.816.792-.895 0-1.687-.183-2.376-.55a5.115 5.115 0 0 1-1.65-1.386v7.546h-3.08v-17.996h3.08v1.76zm6.446 4.29c0-.733-.154-1.364-.462-1.892a3.011 3.011 0 0 0-1.188-1.232 3.116 3.116 0 0 0-1.584-.418c-.558 0-1.086.147-1.584.44-.484.279-.88.689-1.188 1.232-.294.543-.44 1.181-.44 1.914 0 .733.146 1.371.44 1.914.308.543.704.961 1.188 1.254a3.195 3.195 0 0 0 1.584.418c.572 0 1.1-.147 1.584-.44a3.159 3.159 0 0 0 1.188-1.254c.308-.543.462-1.188.462-1.936zm10.048 6.336c-.998 0-1.892-.176-2.684-.528-.792-.367-1.423-.858-1.892-1.474a3.751 3.751 0 0 1-.748-2.046h3.102c.058.469.286.858.682 1.166.41.308.916.462 1.518.462.586 0 1.041-.117 1.364-.352.337-.235.506-.535.506-.902 0-.396-.206-.689-.616-.88-.396-.205-1.034-.425-1.914-.66-.91-.22-1.658-.447-2.244-.682a3.993 3.993 0 0 1-1.496-1.078c-.41-.484-.616-1.137-.616-1.958a3.2 3.2 0 0 1 .572-1.848c.396-.557.953-.997 1.672-1.32.733-.323 1.591-.484 2.574-.484 1.452 0 2.61.367 3.476 1.1.865.719 1.342 1.694 1.43 2.926h-2.948c-.044-.484-.25-.865-.616-1.144-.352-.293-.829-.44-1.43-.44-.558 0-.99.103-1.298.308a.987.987 0 0 0-.44.858c0 .411.205.726.616.946.41.205 1.048.418 1.914.638.88.22 1.606.447 2.178.682a3.72 3.72 0 0 1 1.474 1.1c.425.484.645 1.129.66 1.936 0 .704-.198 1.335-.594 1.892-.382.557-.939.997-1.672 1.32-.719.308-1.562.462-2.53.462zm18.83-12.386V189h-3.102v-1.54a4.144 4.144 0 0 1-1.562 1.254c-.631.293-1.32.44-2.068.44-.953 0-1.797-.198-2.53-.594a4.427 4.427 0 0 1-1.738-1.782c-.411-.792-.616-1.731-.616-2.816v-7.15h3.08v6.71c0 .968.242 1.716.726 2.244.484.513 1.144.77 1.98.77.851 0 1.518-.257 2.002-.77.484-.528.726-1.276.726-2.244v-6.71h3.102zm18.175-.176c1.496 0 2.699.462 3.608 1.386.924.909 1.386 2.185 1.386 3.828V189h-3.08v-6.732c0-.953-.242-1.679-.726-2.178-.484-.513-1.144-.77-1.98-.77-.836 0-1.503.257-2.002.77-.484.499-.726 1.225-.726 2.178V189h-3.08v-6.732c0-.953-.242-1.679-.726-2.178-.484-.513-1.144-.77-1.98-.77-.851 0-1.525.257-2.024.77-.484.499-.726 1.225-.726 2.178V189h-3.08v-12.188h3.08v1.474a4.12 4.12 0 0 1 1.518-1.21 4.849 4.849 0 0 1 2.068-.44c.953 0 1.804.205 2.552.616a4.172 4.172 0 0 1 1.738 1.716c.396-.704.968-1.269 1.716-1.694a4.982 4.982 0 0 1 2.464-.638zm18.527-2.992c1.613 0 3.029.315 4.246.946 1.232.631 2.178 1.533 2.838 2.706.675 1.159 1.012 2.508 1.012 4.048s-.337 2.889-1.012 4.048c-.66 1.144-1.606 2.031-2.838 2.662-1.217.631-2.633.946-4.246.946h-5.368v-15.356h5.368zm-.11 12.738c1.613 0 2.86-.44 3.74-1.32.88-.88 1.32-2.119 1.32-3.718 0-1.599-.44-2.845-1.32-3.74-.88-.909-2.127-1.364-3.74-1.364h-2.178v10.142h2.178zm15.923 2.816c-1.173 0-2.229-.257-3.168-.77a5.785 5.785 0 0 1-2.222-2.222c-.528-.953-.792-2.053-.792-3.3 0-1.247.272-2.347.814-3.3a5.738 5.738 0 0 1 2.266-2.2c.954-.528 2.017-.792 3.19-.792 1.174 0 2.237.264 3.19.792a5.575 5.575 0 0 1 2.244 2.2c.558.953.836 2.053.836 3.3 0 1.247-.286 2.347-.858 3.3a5.846 5.846 0 0 1-2.288 2.222c-.953.513-2.024.77-3.212.77zm0-2.684a3.21 3.21 0 0 0 1.562-.396 3.006 3.006 0 0 0 1.188-1.232c.294-.543.44-1.203.44-1.98 0-1.159-.308-2.046-.924-2.662-.601-.631-1.342-.946-2.222-.946-.88 0-1.62.315-2.222.946-.586.616-.88 1.503-.88 2.662s.286 2.053.858 2.684c.587.616 1.32.924 2.2.924zm11.698-13.794V189h-3.08v-16.28h3.08zm8.455 16.478c-1.174 0-2.23-.257-3.168-.77a5.772 5.772 0 0 1-2.222-2.222c-.528-.953-.792-2.053-.792-3.3 0-1.247.271-2.347.814-3.3a5.725 5.725 0 0 1 2.266-2.2c.953-.528 2.016-.792 3.19-.792 1.173 0 2.236.264 3.19.792a5.588 5.588 0 0 1 2.244 2.2c.557.953.836 2.053.836 3.3 0 1.247-.286 2.347-.858 3.3a5.853 5.853 0 0 1-2.288 2.222c-.954.513-2.024.77-3.212.77zm0-2.684c.557 0 1.078-.132 1.562-.396a3.018 3.018 0 0 0 1.188-1.232c.293-.543.44-1.203.44-1.98 0-1.159-.308-2.046-.924-2.662-.602-.631-1.342-.946-2.222-.946-.88 0-1.621.315-2.222.946-.587.616-.88 1.503-.88 2.662s.286 2.053.858 2.684c.586.616 1.32.924 2.2.924zm11.697-7.81a4.362 4.362 0 0 1 1.54-1.518c.645-.367 1.379-.55 2.2-.55v3.234h-.814c-.968 0-1.701.227-2.2.682-.484.455-.726 1.247-.726 2.376V189h-3.08v-12.188h3.08v1.892zM274.598 186.558h5.06V189h-8.14v-15.356h3.08v12.914zm12.43 2.64c-1.174 0-2.23-.257-3.168-.77a5.772 5.772 0 0 1-2.222-2.222c-.528-.953-.792-2.053-.792-3.3 0-1.247.271-2.347.814-3.3a5.725 5.725 0 0 1 2.266-2.2c.953-.528 2.016-.792 3.19-.792 1.173 0 2.236.264 3.19.792a5.588 5.588 0 0 1 2.244 2.2c.557.953.836 2.053.836 3.3 0 1.247-.286 2.347-.858 3.3a5.853 5.853 0 0 1-2.288 2.222c-.954.513-2.024.77-3.212.77zm0-2.684c.557 0 1.078-.132 1.562-.396a3.018 3.018 0 0 0 1.188-1.232c.293-.543.44-1.203.44-1.98 0-1.159-.308-2.046-.924-2.662-.602-.631-1.342-.946-2.222-.946-.88 0-1.621.315-2.222.946-.587.616-.88 1.503-.88 2.662s.286 2.053.858 2.684c.586.616 1.32.924 2.2.924zm11.697-7.81a4.362 4.362 0 0 1 1.54-1.518c.645-.367 1.379-.55 2.2-.55v3.234h-.814c-.968 0-1.701.227-2.2.682-.484.455-.726 1.247-.726 2.376V189h-3.08v-12.188h3.08v1.892zm17.144 3.938c0 .44-.029.836-.088 1.188h-8.91c.074.88.382 1.569.924 2.068.543.499 1.21.748 2.002.748 1.144 0 1.958-.491 2.442-1.474h3.322c-.352 1.173-1.026 2.141-2.024 2.904-.997.748-2.222 1.122-3.674 1.122-1.173 0-2.229-.257-3.168-.77a5.67 5.67 0 0 1-2.178-2.222c-.513-.953-.77-2.053-.77-3.3 0-1.261.257-2.369.77-3.322a5.377 5.377 0 0 1 2.156-2.2c.924-.513 1.988-.77 3.19-.77 1.159 0 2.193.249 3.102.748a5.158 5.158 0 0 1 2.134 2.134c.514.909.77 1.958.77 3.146zm-3.19-.88c-.014-.792-.3-1.423-.858-1.892-.557-.484-1.239-.726-2.046-.726-.762 0-1.408.235-1.936.704-.513.455-.828 1.093-.946 1.914h5.786zm20.575-5.126c1.496 0 2.698.462 3.608 1.386.924.909 1.386 2.185 1.386 3.828V189h-3.08v-6.732c0-.953-.242-1.679-.726-2.178-.484-.513-1.144-.77-1.98-.77-.836 0-1.504.257-2.002.77-.484.499-.726 1.225-.726 2.178V189h-3.08v-6.732c0-.953-.242-1.679-.726-2.178-.484-.513-1.144-.77-1.98-.77-.851 0-1.526.257-2.024.77-.484.499-.726 1.225-.726 2.178V189h-3.08v-12.188h3.08v1.474a4.12 4.12 0 0 1 1.518-1.21c.63-.293 1.32-.44 2.068-.44.953 0 1.804.205 2.552.616a4.172 4.172 0 0 1 1.738 1.716c.396-.704.968-1.269 1.716-1.694a4.98 4.98 0 0 1 2.464-.638zm16.239-2.992V189h-3.08v-15.356h3.08zm6.123 4.928c.396-.557.938-1.019 1.628-1.386.704-.381 1.503-.572 2.398-.572 1.041 0 1.98.257 2.816.77.85.513 1.518 1.247 2.002 2.2.498.939.748 2.031.748 3.278 0 1.247-.25 2.354-.748 3.322-.484.953-1.152 1.694-2.002 2.222-.836.528-1.775.792-2.816.792-.895 0-1.687-.183-2.376-.55a5.108 5.108 0 0 1-1.65-1.386v7.546h-3.08v-17.996h3.08v1.76zm6.446 4.29c0-.733-.154-1.364-.462-1.892a3.018 3.018 0 0 0-1.188-1.232 3.116 3.116 0 0 0-1.584-.418c-.558 0-1.086.147-1.584.44-.484.279-.88.689-1.188 1.232-.294.543-.44 1.181-.44 1.914 0 .733.146 1.371.44 1.914.308.543.704.961 1.188 1.254a3.191 3.191 0 0 0 1.584.418c.572 0 1.1-.147 1.584-.44a3.167 3.167 0 0 0 1.188-1.254c.308-.543.462-1.188.462-1.936zm10.048 6.336c-.998 0-1.892-.176-2.684-.528-.792-.367-1.423-.858-1.892-1.474a3.748 3.748 0 0 1-.748-2.046h3.102c.058.469.286.858.682 1.166.41.308.916.462 1.518.462.586 0 1.041-.117 1.364-.352.337-.235.506-.535.506-.902 0-.396-.206-.689-.616-.88-.396-.205-1.034-.425-1.914-.66-.91-.22-1.658-.447-2.244-.682a3.99 3.99 0 0 1-1.496-1.078c-.411-.484-.616-1.137-.616-1.958 0-.675.19-1.291.572-1.848.396-.557.953-.997 1.672-1.32.733-.323 1.591-.484 2.574-.484 1.452 0 2.61.367 3.476 1.1.865.719 1.342 1.694 1.43 2.926h-2.948c-.044-.484-.25-.865-.616-1.144-.352-.293-.829-.44-1.43-.44-.558 0-.99.103-1.298.308a.987.987 0 0 0-.44.858c0 .411.205.726.616.946.41.205 1.048.418 1.914.638.88.22 1.606.447 2.178.682a3.72 3.72 0 0 1 1.474 1.1c.425.484.645 1.129.66 1.936 0 .704-.198 1.335-.594 1.892-.382.557-.939.997-1.672 1.32-.719.308-1.562.462-2.53.462zm18.83-12.386V189h-3.102v-1.54a4.144 4.144 0 0 1-1.562 1.254c-.631.293-1.32.44-2.068.44-.953 0-1.797-.198-2.53-.594a4.427 4.427 0 0 1-1.738-1.782c-.411-.792-.616-1.731-.616-2.816v-7.15h3.08v6.71c0 .968.242 1.716.726 2.244.484.513 1.144.77 1.98.77.851 0 1.518-.257 2.002-.77.484-.528.726-1.276.726-2.244v-6.71h3.102zm18.175-.176c1.496 0 2.699.462 3.608 1.386.924.909 1.386 2.185 1.386 3.828V189h-3.08v-6.732c0-.953-.242-1.679-.726-2.178-.484-.513-1.144-.77-1.98-.77-.836 0-1.503.257-2.002.77-.484.499-.726 1.225-.726 2.178V189h-3.08v-6.732c0-.953-.242-1.679-.726-2.178-.484-.513-1.144-.77-1.98-.77-.851 0-1.525.257-2.024.77-.484.499-.726 1.225-.726 2.178V189h-3.08v-12.188h3.08v1.474a4.12 4.12 0 0 1 1.518-1.21 4.849 4.849 0 0 1 2.068-.44c.953 0 1.804.205 2.552.616a4.172 4.172 0 0 1 1.738 1.716c.396-.704.968-1.269 1.716-1.694a4.982 4.982 0 0 1 2.464-.638zm18.527-2.992c1.613 0 3.029.315 4.246.946 1.232.631 2.178 1.533 2.838 2.706.675 1.159 1.012 2.508 1.012 4.048s-.337 2.889-1.012 4.048c-.66 1.144-1.606 2.031-2.838 2.662-1.217.631-2.633.946-4.246.946h-5.368v-15.356h5.368zm-.11 12.738c1.613 0 2.86-.44 3.74-1.32.88-.88 1.32-2.119 1.32-3.718 0-1.599-.44-2.845-1.32-3.74-.88-.909-2.127-1.364-3.74-1.364h-2.178v10.142h2.178zm15.923 2.816c-1.173 0-2.229-.257-3.168-.77a5.785 5.785 0 0 1-2.222-2.222c-.528-.953-.792-2.053-.792-3.3 0-1.247.272-2.347.814-3.3a5.738 5.738 0 0 1 2.266-2.2c.954-.528 2.017-.792 3.19-.792 1.174 0 2.237.264 3.19.792a5.575 5.575 0 0 1 2.244 2.2c.558.953.836 2.053.836 3.3 0 1.247-.286 2.347-.858 3.3a5.846 5.846 0 0 1-2.288 2.222c-.953.513-2.024.77-3.212.77zm0-2.684a3.21 3.21 0 0 0 1.562-.396 3.006 3.006 0 0 0 1.188-1.232c.294-.543.44-1.203.44-1.98 0-1.159-.308-2.046-.924-2.662-.601-.631-1.342-.946-2.222-.946-.88 0-1.62.315-2.222.946-.586.616-.88 1.503-.88 2.662s.286 2.053.858 2.684c.587.616 1.32.924 2.2.924zm11.698-13.794V189h-3.08v-16.28h3.08zm8.455 16.478c-1.174 0-2.23-.257-3.168-.77a5.772 5.772 0 0 1-2.222-2.222c-.528-.953-.792-2.053-.792-3.3 0-1.247.271-2.347.814-3.3a5.725 5.725 0 0 1 2.266-2.2c.953-.528 2.016-.792 3.19-.792 1.173 0 2.236.264 3.19.792a5.588 5.588 0 0 1 2.244 2.2c.557.953.836 2.053.836 3.3 0 1.247-.286 2.347-.858 3.3a5.853 5.853 0 0 1-2.288 2.222c-.954.513-2.024.77-3.212.77zm0-2.684c.557 0 1.078-.132 1.562-.396a3.018 3.018 0 0 0 1.188-1.232c.293-.543.44-1.203.44-1.98 0-1.159-.308-2.046-.924-2.662-.602-.631-1.342-.946-2.222-.946-.88 0-1.621.315-2.222.946-.587.616-.88 1.503-.88 2.662s.286 2.053.858 2.684c.586.616 1.32.924 2.2.924zm11.697-7.81a4.362 4.362 0 0 1 1.54-1.518c.645-.367 1.379-.55 2.2-.55v3.234h-.814c-.968 0-1.701.227-2.2.682-.484.455-.726 1.247-.726 2.376V189h-3.08v-12.188h3.08v1.892zM394.598 351.558h5.06V354h-8.14v-15.356h3.08v12.914zm12.43 2.64c-1.174 0-2.23-.257-3.168-.77a5.772 5.772 0 0 1-2.222-2.222c-.528-.953-.792-2.053-.792-3.3 0-1.247.271-2.347.814-3.3a5.725 5.725 0 0 1 2.266-2.2c.953-.528 2.016-.792 3.19-.792 1.173 0 2.236.264 3.19.792a5.588 5.588 0 0 1 2.244 2.2c.557.953.836 2.053.836 3.3 0 1.247-.286 2.347-.858 3.3a5.853 5.853 0 0 1-2.288 2.222c-.954.513-2.024.77-3.212.77zm0-2.684c.557 0 1.078-.132 1.562-.396a3.018 3.018 0 0 0 1.188-1.232c.293-.543.44-1.203.44-1.98 0-1.159-.308-2.046-.924-2.662-.602-.631-1.342-.946-2.222-.946-.88 0-1.621.315-2.222.946-.587.616-.88 1.503-.88 2.662s.286 2.053.858 2.684c.586.616 1.32.924 2.2.924zm11.697-7.81a4.362 4.362 0 0 1 1.54-1.518c.645-.367 1.379-.55 2.2-.55v3.234h-.814c-.968 0-1.701.227-2.2.682-.484.455-.726 1.247-.726 2.376V354h-3.08v-12.188h3.08v1.892zm17.144 3.938c0 .44-.029.836-.088 1.188h-8.91c.074.88.382 1.569.924 2.068.543.499 1.21.748 2.002.748 1.144 0 1.958-.491 2.442-1.474h3.322c-.352 1.173-1.026 2.141-2.024 2.904-.997.748-2.222 1.122-3.674 1.122-1.173 0-2.229-.257-3.168-.77a5.67 5.67 0 0 1-2.178-2.222c-.513-.953-.77-2.053-.77-3.3 0-1.261.257-2.369.77-3.322a5.377 5.377 0 0 1 2.156-2.2c.924-.513 1.988-.77 3.19-.77 1.159 0 2.193.249 3.102.748a5.158 5.158 0 0 1 2.134 2.134c.514.909.77 1.958.77 3.146zm-3.19-.88c-.014-.792-.3-1.423-.858-1.892-.557-.484-1.239-.726-2.046-.726-.762 0-1.408.235-1.936.704-.513.455-.828 1.093-.946 1.914h5.786zm20.575-5.126c1.496 0 2.698.462 3.608 1.386.924.909 1.386 2.185 1.386 3.828V354h-3.08v-6.732c0-.953-.242-1.679-.726-2.178-.484-.513-1.144-.77-1.98-.77-.836 0-1.504.257-2.002.77-.484.499-.726 1.225-.726 2.178V354h-3.08v-6.732c0-.953-.242-1.679-.726-2.178-.484-.513-1.144-.77-1.98-.77-.851 0-1.526.257-2.024.77-.484.499-.726 1.225-.726 2.178V354h-3.08v-12.188h3.08v1.474a4.12 4.12 0 0 1 1.518-1.21c.63-.293 1.32-.44 2.068-.44.953 0 1.804.205 2.552.616a4.172 4.172 0 0 1 1.738 1.716c.396-.704.968-1.269 1.716-1.694a4.98 4.98 0 0 1 2.464-.638zm16.239-2.992V354h-3.08v-15.356h3.08zm6.123 4.928c.396-.557.938-1.019 1.628-1.386.704-.381 1.503-.572 2.398-.572 1.041 0 1.98.257 2.816.77.85.513 1.518 1.247 2.002 2.2.498.939.748 2.031.748 3.278 0 1.247-.25 2.354-.748 3.322-.484.953-1.152 1.694-2.002 2.222-.836.528-1.775.792-2.816.792-.895 0-1.687-.183-2.376-.55a5.108 5.108 0 0 1-1.65-1.386v7.546h-3.08v-17.996h3.08v1.76zm6.446 4.29c0-.733-.154-1.364-.462-1.892a3.018 3.018 0 0 0-1.188-1.232 3.116 3.116 0 0 0-1.584-.418c-.558 0-1.086.147-1.584.44-.484.279-.88.689-1.188 1.232-.294.543-.44 1.181-.44 1.914 0 .733.146 1.371.44 1.914.308.543.704.961 1.188 1.254a3.191 3.191 0 0 0 1.584.418c.572 0 1.1-.147 1.584-.44a3.167 3.167 0 0 0 1.188-1.254c.308-.543.462-1.188.462-1.936zm10.048 6.336c-.998 0-1.892-.176-2.684-.528-.792-.367-1.423-.858-1.892-1.474a3.748 3.748 0 0 1-.748-2.046h3.102c.058.469.286.858.682 1.166.41.308.916.462 1.518.462.586 0 1.041-.117 1.364-.352.337-.235.506-.535.506-.902 0-.396-.206-.689-.616-.88-.396-.205-1.034-.425-1.914-.66-.91-.22-1.658-.447-2.244-.682a3.99 3.99 0 0 1-1.496-1.078c-.411-.484-.616-1.137-.616-1.958 0-.675.19-1.291.572-1.848.396-.557.953-.997 1.672-1.32.733-.323 1.591-.484 2.574-.484 1.452 0 2.61.367 3.476 1.1.865.719 1.342 1.694 1.43 2.926h-2.948c-.044-.484-.25-.865-.616-1.144-.352-.293-.829-.44-1.43-.44-.558 0-.99.103-1.298.308a.987.987 0 0 0-.44.858c0 .411.205.726.616.946.41.205 1.048.418 1.914.638.88.22 1.606.447 2.178.682a3.72 3.72 0 0 1 1.474 1.1c.425.484.645 1.129.66 1.936 0 .704-.198 1.335-.594 1.892-.382.557-.939.997-1.672 1.32-.719.308-1.562.462-2.53.462zm18.83-12.386V354h-3.102v-1.54a4.144 4.144 0 0 1-1.562 1.254c-.631.293-1.32.44-2.068.44-.953 0-1.797-.198-2.53-.594a4.427 4.427 0 0 1-1.738-1.782c-.411-.792-.616-1.731-.616-2.816v-7.15h3.08v6.71c0 .968.242 1.716.726 2.244.484.513 1.144.77 1.98.77.851 0 1.518-.257 2.002-.77.484-.528.726-1.276.726-2.244v-6.71h3.102zm18.175-.176c1.496 0 2.699.462 3.608 1.386.924.909 1.386 2.185 1.386 3.828V354h-3.08v-6.732c0-.953-.242-1.679-.726-2.178-.484-.513-1.144-.77-1.98-.77-.836 0-1.503.257-2.002.77-.484.499-.726 1.225-.726 2.178V354h-3.08v-6.732c0-.953-.242-1.679-.726-2.178-.484-.513-1.144-.77-1.98-.77-.851 0-1.525.257-2.024.77-.484.499-.726 1.225-.726 2.178V354h-3.08v-12.188h3.08v1.474a4.12 4.12 0 0 1 1.518-1.21 4.849 4.849 0 0 1 2.068-.44c.953 0 1.804.205 2.552.616a4.172 4.172 0 0 1 1.738 1.716c.396-.704.968-1.269 1.716-1.694a4.982 4.982 0 0 1 2.464-.638zm18.527-2.992c1.613 0 3.029.315 4.246.946 1.232.631 2.178 1.533 2.838 2.706.675 1.159 1.012 2.508 1.012 4.048s-.337 2.889-1.012 4.048c-.66 1.144-1.606 2.031-2.838 2.662-1.217.631-2.633.946-4.246.946h-5.368v-15.356h5.368zm-.11 12.738c1.613 0 2.86-.44 3.74-1.32.88-.88 1.32-2.119 1.32-3.718 0-1.599-.44-2.845-1.32-3.74-.88-.909-2.127-1.364-3.74-1.364h-2.178v10.142h2.178zm15.923 2.816c-1.173 0-2.229-.257-3.168-.77a5.785 5.785 0 0 1-2.222-2.222c-.528-.953-.792-2.053-.792-3.3 0-1.247.272-2.347.814-3.3a5.738 5.738 0 0 1 2.266-2.2c.954-.528 2.017-.792 3.19-.792 1.174 0 2.237.264 3.19.792a5.575 5.575 0 0 1 2.244 2.2c.558.953.836 2.053.836 3.3 0 1.247-.286 2.347-.858 3.3a5.846 5.846 0 0 1-2.288 2.222c-.953.513-2.024.77-3.212.77zm0-2.684a3.21 3.21 0 0 0 1.562-.396 3.006 3.006 0 0 0 1.188-1.232c.294-.543.44-1.203.44-1.98 0-1.159-.308-2.046-.924-2.662-.601-.631-1.342-.946-2.222-.946-.88 0-1.62.315-2.222.946-.586.616-.88 1.503-.88 2.662s.286 2.053.858 2.684c.587.616 1.32.924 2.2.924zm11.698-13.794V354h-3.08v-16.28h3.08zm8.455 16.478c-1.174 0-2.23-.257-3.168-.77a5.772 5.772 0 0 1-2.222-2.222c-.528-.953-.792-2.053-.792-3.3 0-1.247.271-2.347.814-3.3a5.725 5.725 0 0 1 2.266-2.2c.953-.528 2.016-.792 3.19-.792 1.173 0 2.236.264 3.19.792a5.588 5.588 0 0 1 2.244 2.2c.557.953.836 2.053.836 3.3 0 1.247-.286 2.347-.858 3.3a5.853 5.853 0 0 1-2.288 2.222c-.954.513-2.024.77-3.212.77zm0-2.684c.557 0 1.078-.132 1.562-.396a3.018 3.018 0 0 0 1.188-1.232c.293-.543.44-1.203.44-1.98 0-1.159-.308-2.046-.924-2.662-.602-.631-1.342-.946-2.222-.946-.88 0-1.621.315-2.222.946-.587.616-.88 1.503-.88 2.662s.286 2.053.858 2.684c.586.616 1.32.924 2.2.924zm11.697-7.81a4.362 4.362 0 0 1 1.54-1.518c.645-.367 1.379-.55 2.2-.55v3.234h-.814c-.968 0-1.701.227-2.2.682-.484.455-.726 1.247-.726 2.376V354h-3.08v-12.188h3.08v1.892zM259.598 532.558h5.06V535h-8.14v-15.356h3.08v12.914zm12.43 2.64c-1.174 0-2.23-.257-3.168-.77a5.772 5.772 0 0 1-2.222-2.222c-.528-.953-.792-2.053-.792-3.3 0-1.247.271-2.347.814-3.3a5.725 5.725 0 0 1 2.266-2.2c.953-.528 2.016-.792 3.19-.792 1.173 0 2.236.264 3.19.792a5.588 5.588 0 0 1 2.244 2.2c.557.953.836 2.053.836 3.3 0 1.247-.286 2.347-.858 3.3a5.853 5.853 0 0 1-2.288 2.222c-.954.513-2.024.77-3.212.77zm0-2.684c.557 0 1.078-.132 1.562-.396a3.018 3.018 0 0 0 1.188-1.232c.293-.543.44-1.203.44-1.98 0-1.159-.308-2.046-.924-2.662-.602-.631-1.342-.946-2.222-.946-.88 0-1.621.315-2.222.946-.587.616-.88 1.503-.88 2.662s.286 2.053.858 2.684c.586.616 1.32.924 2.2.924zm11.697-7.81a4.362 4.362 0 0 1 1.54-1.518c.645-.367 1.379-.55 2.2-.55v3.234h-.814c-.968 0-1.701.227-2.2.682-.484.455-.726 1.247-.726 2.376V535h-3.08v-12.188h3.08v1.892zm17.144 3.938c0 .44-.029.836-.088 1.188h-8.91c.074.88.382 1.569.924 2.068.543.499 1.21.748 2.002.748 1.144 0 1.958-.491 2.442-1.474h3.322c-.352 1.173-1.026 2.141-2.024 2.904-.997.748-2.222 1.122-3.674 1.122-1.173 0-2.229-.257-3.168-.77a5.67 5.67 0 0 1-2.178-2.222c-.513-.953-.77-2.053-.77-3.3 0-1.261.257-2.369.77-3.322a5.377 5.377 0 0 1 2.156-2.2c.924-.513 1.988-.77 3.19-.77 1.159 0 2.193.249 3.102.748a5.158 5.158 0 0 1 2.134 2.134c.514.909.77 1.958.77 3.146zm-3.19-.88c-.014-.792-.3-1.423-.858-1.892-.557-.484-1.239-.726-2.046-.726-.762 0-1.408.235-1.936.704-.513.455-.828 1.093-.946 1.914h5.786zm20.575-5.126c1.496 0 2.698.462 3.608 1.386.924.909 1.386 2.185 1.386 3.828V535h-3.08v-6.732c0-.953-.242-1.679-.726-2.178-.484-.513-1.144-.77-1.98-.77-.836 0-1.504.257-2.002.77-.484.499-.726 1.225-.726 2.178V535h-3.08v-6.732c0-.953-.242-1.679-.726-2.178-.484-.513-1.144-.77-1.98-.77-.851 0-1.526.257-2.024.77-.484.499-.726 1.225-.726 2.178V535h-3.08v-12.188h3.08v1.474a4.12 4.12 0 0 1 1.518-1.21c.63-.293 1.32-.44 2.068-.44.953 0 1.804.205 2.552.616a4.172 4.172 0 0 1 1.738 1.716c.396-.704.968-1.269 1.716-1.694a4.98 4.98 0 0 1 2.464-.638zm16.239-2.992V535h-3.08v-15.356h3.08zm6.123 4.928c.396-.557.938-1.019 1.628-1.386.704-.381 1.503-.572 2.398-.572 1.041 0 1.98.257 2.816.77.85.513 1.518 1.247 2.002 2.2.498.939.748 2.031.748 3.278 0 1.247-.25 2.354-.748 3.322-.484.953-1.152 1.694-2.002 2.222-.836.528-1.775.792-2.816.792-.895 0-1.687-.183-2.376-.55a5.108 5.108 0 0 1-1.65-1.386v7.546h-3.08v-17.996h3.08v1.76zm6.446 4.29c0-.733-.154-1.364-.462-1.892a3.018 3.018 0 0 0-1.188-1.232 3.116 3.116 0 0 0-1.584-.418c-.558 0-1.086.147-1.584.44-.484.279-.88.689-1.188 1.232-.294.543-.44 1.181-.44 1.914 0 .733.146 1.371.44 1.914.308.543.704.961 1.188 1.254a3.191 3.191 0 0 0 1.584.418c.572 0 1.1-.147 1.584-.44a3.167 3.167 0 0 0 1.188-1.254c.308-.543.462-1.188.462-1.936zm10.048 6.336c-.998 0-1.892-.176-2.684-.528-.792-.367-1.423-.858-1.892-1.474a3.748 3.748 0 0 1-.748-2.046h3.102c.058.469.286.858.682 1.166.41.308.916.462 1.518.462.586 0 1.041-.117 1.364-.352.337-.235.506-.535.506-.902 0-.396-.206-.689-.616-.88-.396-.205-1.034-.425-1.914-.66-.91-.22-1.658-.447-2.244-.682a3.99 3.99 0 0 1-1.496-1.078c-.411-.484-.616-1.137-.616-1.958 0-.675.19-1.291.572-1.848.396-.557.953-.997 1.672-1.32.733-.323 1.591-.484 2.574-.484 1.452 0 2.61.367 3.476 1.1.865.719 1.342 1.694 1.43 2.926h-2.948c-.044-.484-.25-.865-.616-1.144-.352-.293-.829-.44-1.43-.44-.558 0-.99.103-1.298.308a.987.987 0 0 0-.44.858c0 .411.205.726.616.946.41.205 1.048.418 1.914.638.88.22 1.606.447 2.178.682a3.72 3.72 0 0 1 1.474 1.1c.425.484.645 1.129.66 1.936 0 .704-.198 1.335-.594 1.892-.382.557-.939.997-1.672 1.32-.719.308-1.562.462-2.53.462zm18.83-12.386V535h-3.102v-1.54a4.144 4.144 0 0 1-1.562 1.254c-.631.293-1.32.44-2.068.44-.953 0-1.797-.198-2.53-.594a4.427 4.427 0 0 1-1.738-1.782c-.411-.792-.616-1.731-.616-2.816v-7.15h3.08v6.71c0 .968.242 1.716.726 2.244.484.513 1.144.77 1.98.77.851 0 1.518-.257 2.002-.77.484-.528.726-1.276.726-2.244v-6.71h3.102zm18.175-.176c1.496 0 2.699.462 3.608 1.386.924.909 1.386 2.185 1.386 3.828V535h-3.08v-6.732c0-.953-.242-1.679-.726-2.178-.484-.513-1.144-.77-1.98-.77-.836 0-1.503.257-2.002.77-.484.499-.726 1.225-.726 2.178V535h-3.08v-6.732c0-.953-.242-1.679-.726-2.178-.484-.513-1.144-.77-1.98-.77-.851 0-1.525.257-2.024.77-.484.499-.726 1.225-.726 2.178V535h-3.08v-12.188h3.08v1.474a4.12 4.12 0 0 1 1.518-1.21 4.849 4.849 0 0 1 2.068-.44c.953 0 1.804.205 2.552.616a4.172 4.172 0 0 1 1.738 1.716c.396-.704.968-1.269 1.716-1.694a4.982 4.982 0 0 1 2.464-.638zm18.527-2.992c1.613 0 3.029.315 4.246.946 1.232.631 2.178 1.533 2.838 2.706.675 1.159 1.012 2.508 1.012 4.048s-.337 2.889-1.012 4.048c-.66 1.144-1.606 2.031-2.838 2.662-1.217.631-2.633.946-4.246.946h-5.368v-15.356h5.368zm-.11 12.738c1.613 0 2.86-.44 3.74-1.32.88-.88 1.32-2.119 1.32-3.718 0-1.599-.44-2.845-1.32-3.74-.88-.909-2.127-1.364-3.74-1.364h-2.178v10.142h2.178zm15.923 2.816c-1.173 0-2.229-.257-3.168-.77a5.785 5.785 0 0 1-2.222-2.222c-.528-.953-.792-2.053-.792-3.3 0-1.247.272-2.347.814-3.3a5.738 5.738 0 0 1 2.266-2.2c.954-.528 2.017-.792 3.19-.792 1.174 0 2.237.264 3.19.792a5.575 5.575 0 0 1 2.244 2.2c.558.953.836 2.053.836 3.3 0 1.247-.286 2.347-.858 3.3a5.846 5.846 0 0 1-2.288 2.222c-.953.513-2.024.77-3.212.77zm0-2.684a3.21 3.21 0 0 0 1.562-.396 3.006 3.006 0 0 0 1.188-1.232c.294-.543.44-1.203.44-1.98 0-1.159-.308-2.046-.924-2.662-.601-.631-1.342-.946-2.222-.946-.88 0-1.62.315-2.222.946-.586.616-.88 1.503-.88 2.662s.286 2.053.858 2.684c.587.616 1.32.924 2.2.924zm11.698-13.794V535h-3.08v-16.28h3.08zm8.455 16.478c-1.174 0-2.23-.257-3.168-.77a5.772 5.772 0 0 1-2.222-2.222c-.528-.953-.792-2.053-.792-3.3 0-1.247.271-2.347.814-3.3a5.725 5.725 0 0 1 2.266-2.2c.953-.528 2.016-.792 3.19-.792 1.173 0 2.236.264 3.19.792a5.588 5.588 0 0 1 2.244 2.2c.557.953.836 2.053.836 3.3 0 1.247-.286 2.347-.858 3.3a5.853 5.853 0 0 1-2.288 2.222c-.954.513-2.024.77-3.212.77zm0-2.684c.557 0 1.078-.132 1.562-.396a3.018 3.018 0 0 0 1.188-1.232c.293-.543.44-1.203.44-1.98 0-1.159-.308-2.046-.924-2.662-.602-.631-1.342-.946-2.222-.946-.88 0-1.621.315-2.222.946-.587.616-.88 1.503-.88 2.662s.286 2.053.858 2.684c.586.616 1.32.924 2.2.924zm11.697-7.81a4.362 4.362 0 0 1 1.54-1.518c.645-.367 1.379-.55 2.2-.55v3.234h-.814c-.968 0-1.701.227-2.2.682-.484.455-.726 1.247-.726 2.376V535h-3.08v-12.188h3.08v1.892zM4.598 351.558h5.06V354h-8.14v-15.356h3.08v12.914zm12.43 2.64c-1.174 0-2.23-.257-3.168-.77a5.778 5.778 0 0 1-2.222-2.222c-.528-.953-.792-2.053-.792-3.3 0-1.247.271-2.347.814-3.3a5.73 5.73 0 0 1 2.266-2.2c.953-.528 2.016-.792 3.19-.792 1.173 0 2.236.264 3.19.792a5.584 5.584 0 0 1 2.244 2.2c.557.953.836 2.053.836 3.3 0 1.247-.286 2.347-.858 3.3a5.849 5.849 0 0 1-2.288 2.222c-.954.513-2.024.77-3.212.77zm0-2.684c.557 0 1.078-.132 1.562-.396a3.011 3.011 0 0 0 1.188-1.232c.293-.543.44-1.203.44-1.98 0-1.159-.308-2.046-.924-2.662-.602-.631-1.342-.946-2.222-.946-.88 0-1.621.315-2.222.946-.587.616-.88 1.503-.88 2.662s.286 2.053.858 2.684c.586.616 1.32.924 2.2.924zm11.697-7.81a4.364 4.364 0 0 1 1.54-1.518c.645-.367 1.379-.55 2.2-.55v3.234h-.814c-.968 0-1.701.227-2.2.682-.484.455-.726 1.247-.726 2.376V354h-3.08v-12.188h3.08v1.892zm17.145 3.938c0 .44-.03.836-.088 1.188h-8.91c.073.88.38 1.569.923 2.068.543.499 1.21.748 2.002.748 1.145 0 1.959-.491 2.443-1.474h3.322c-.352 1.173-1.027 2.141-2.024 2.904-.998.748-2.222 1.122-3.674 1.122-1.174 0-2.23-.257-3.168-.77a5.67 5.67 0 0 1-2.178-2.222c-.514-.953-.77-2.053-.77-3.3 0-1.261.256-2.369.77-3.322a5.372 5.372 0 0 1 2.155-2.2c.924-.513 1.988-.77 3.19-.77 1.16 0 2.193.249 3.102.748a5.162 5.162 0 0 1 2.134 2.134c.514.909.77 1.958.77 3.146zm-3.19-.88c-.015-.792-.301-1.423-.858-1.892-.558-.484-1.24-.726-2.047-.726-.762 0-1.407.235-1.935.704-.514.455-.83 1.093-.947 1.914h5.786zm20.574-5.126c1.496 0 2.698.462 3.608 1.386.924.909 1.386 2.185 1.386 3.828V354h-3.08v-6.732c0-.953-.242-1.679-.726-2.178-.484-.513-1.144-.77-1.98-.77-.836 0-1.504.257-2.002.77-.484.499-.726 1.225-.726 2.178V354h-3.08v-6.732c0-.953-.242-1.679-.726-2.178-.484-.513-1.144-.77-1.98-.77-.851 0-1.526.257-2.024.77-.484.499-.726 1.225-.726 2.178V354h-3.08v-12.188h3.08v1.474a4.12 4.12 0 0 1 1.518-1.21c.63-.293 1.32-.44 2.068-.44.953 0 1.804.205 2.552.616a4.17 4.17 0 0 1 1.738 1.716c.396-.704.968-1.269 1.716-1.694a4.981 4.981 0 0 1 2.464-.638zm16.239-2.992V354h-3.08v-15.356h3.08zm6.123 4.928c.396-.557.938-1.019 1.628-1.386.704-.381 1.503-.572 2.398-.572 1.04 0 1.98.257 2.816.77.85.513 1.518 1.247 2.002 2.2.498.939.748 2.031.748 3.278 0 1.247-.25 2.354-.748 3.322-.484.953-1.152 1.694-2.002 2.222-.836.528-1.775.792-2.816.792-.895 0-1.687-.183-2.376-.55a5.115 5.115 0 0 1-1.65-1.386v7.546h-3.08v-17.996h3.08v1.76zm6.446 4.29c0-.733-.154-1.364-.462-1.892a3.011 3.011 0 0 0-1.188-1.232 3.116 3.116 0 0 0-1.584-.418c-.558 0-1.086.147-1.584.44-.484.279-.88.689-1.188 1.232-.294.543-.44 1.181-.44 1.914 0 .733.146 1.371.44 1.914.308.543.704.961 1.188 1.254a3.195 3.195 0 0 0 1.584.418c.572 0 1.1-.147 1.584-.44a3.159 3.159 0 0 0 1.188-1.254c.308-.543.462-1.188.462-1.936zm10.048 6.336c-.998 0-1.892-.176-2.684-.528-.792-.367-1.423-.858-1.892-1.474a3.751 3.751 0 0 1-.748-2.046h3.102c.058.469.286.858.682 1.166.41.308.916.462 1.518.462.586 0 1.041-.117 1.364-.352.337-.235.506-.535.506-.902 0-.396-.206-.689-.616-.88-.396-.205-1.034-.425-1.914-.66-.91-.22-1.658-.447-2.244-.682a3.993 3.993 0 0 1-1.496-1.078c-.41-.484-.616-1.137-.616-1.958a3.2 3.2 0 0 1 .572-1.848c.396-.557.953-.997 1.672-1.32.733-.323 1.591-.484 2.574-.484 1.452 0 2.61.367 3.476 1.1.865.719 1.342 1.694 1.43 2.926h-2.948c-.044-.484-.25-.865-.616-1.144-.352-.293-.829-.44-1.43-.44-.558 0-.99.103-1.298.308a.987.987 0 0 0-.44.858c0 .411.205.726.616.946.41.205 1.048.418 1.914.638.88.22 1.606.447 2.178.682a3.72 3.72 0 0 1 1.474 1.1c.425.484.645 1.129.66 1.936 0 .704-.198 1.335-.594 1.892-.382.557-.939.997-1.672 1.32-.719.308-1.562.462-2.53.462zm18.83-12.386V354h-3.102v-1.54a4.144 4.144 0 0 1-1.562 1.254c-.631.293-1.32.44-2.068.44-.953 0-1.797-.198-2.53-.594a4.427 4.427 0 0 1-1.738-1.782c-.411-.792-.616-1.731-.616-2.816v-7.15h3.08v6.71c0 .968.242 1.716.726 2.244.484.513 1.144.77 1.98.77.851 0 1.518-.257 2.002-.77.484-.528.726-1.276.726-2.244v-6.71h3.102zm18.175-.176c1.496 0 2.699.462 3.608 1.386.924.909 1.386 2.185 1.386 3.828V354h-3.08v-6.732c0-.953-.242-1.679-.726-2.178-.484-.513-1.144-.77-1.98-.77-.836 0-1.503.257-2.002.77-.484.499-.726 1.225-.726 2.178V354h-3.08v-6.732c0-.953-.242-1.679-.726-2.178-.484-.513-1.144-.77-1.98-.77-.851 0-1.525.257-2.024.77-.484.499-.726 1.225-.726 2.178V354h-3.08v-12.188h3.08v1.474a4.12 4.12 0 0 1 1.518-1.21 4.849 4.849 0 0 1 2.068-.44c.953 0 1.804.205 2.552.616a4.172 4.172 0 0 1 1.738 1.716c.396-.704.968-1.269 1.716-1.694a4.982 4.982 0 0 1 2.464-.638zm18.527-2.992c1.613 0 3.029.315 4.246.946 1.232.631 2.178 1.533 2.838 2.706.675 1.159 1.012 2.508 1.012 4.048s-.337 2.889-1.012 4.048c-.66 1.144-1.606 2.031-2.838 2.662-1.217.631-2.633.946-4.246.946h-5.368v-15.356h5.368zm-.11 12.738c1.613 0 2.86-.44 3.74-1.32.88-.88 1.32-2.119 1.32-3.718 0-1.599-.44-2.845-1.32-3.74-.88-.909-2.127-1.364-3.74-1.364h-2.178v10.142h2.178zm15.923 2.816c-1.173 0-2.229-.257-3.168-.77a5.785 5.785 0 0 1-2.222-2.222c-.528-.953-.792-2.053-.792-3.3 0-1.247.272-2.347.814-3.3a5.738 5.738 0 0 1 2.266-2.2c.954-.528 2.017-.792 3.19-.792 1.174 0 2.237.264 3.19.792a5.575 5.575 0 0 1 2.244 2.2c.558.953.836 2.053.836 3.3 0 1.247-.286 2.347-.858 3.3a5.846 5.846 0 0 1-2.288 2.222c-.953.513-2.024.77-3.212.77zm0-2.684a3.21 3.21 0 0 0 1.562-.396 3.006 3.006 0 0 0 1.188-1.232c.294-.543.44-1.203.44-1.98 0-1.159-.308-2.046-.924-2.662-.601-.631-1.342-.946-2.222-.946-.88 0-1.62.315-2.222.946-.586.616-.88 1.503-.88 2.662s.286 2.053.858 2.684c.587.616 1.32.924 2.2.924zm11.698-13.794V354h-3.08v-16.28h3.08zm8.455 16.478c-1.174 0-2.23-.257-3.168-.77a5.772 5.772 0 0 1-2.222-2.222c-.528-.953-.792-2.053-.792-3.3 0-1.247.271-2.347.814-3.3a5.725 5.725 0 0 1 2.266-2.2c.953-.528 2.016-.792 3.19-.792 1.173 0 2.236.264 3.19.792a5.588 5.588 0 0 1 2.244 2.2c.557.953.836 2.053.836 3.3 0 1.247-.286 2.347-.858 3.3a5.853 5.853 0 0 1-2.288 2.222c-.954.513-2.024.77-3.212.77zm0-2.684c.557 0 1.078-.132 1.562-.396a3.018 3.018 0 0 0 1.188-1.232c.293-.543.44-1.203.44-1.98 0-1.159-.308-2.046-.924-2.662-.602-.631-1.342-.946-2.222-.946-.88 0-1.621.315-2.222.946-.587.616-.88 1.503-.88 2.662s.286 2.053.858 2.684c.586.616 1.32.924 2.2.924zm11.697-7.81a4.362 4.362 0 0 1 1.54-1.518c.645-.367 1.379-.55 2.2-.55v3.234h-.814c-.968 0-1.701.227-2.2.682-.484.455-.726 1.247-.726 2.376V354h-3.08v-12.188h3.08v1.892z" fill="#ECECEC"/>
    <path d="M300 138.356V124c0-8.837-7.163-16-16-16h-88c-8.837 0-16 7.163-16 16v14.356M240 108V60.535" stroke="#CF0" stroke-width="1.5" stroke-linecap="round" stroke-dasharray="4 4"/>
    <path d="m300.72 139.547 3.127-5.031c.375-.603.019-1.38-.628-1.5a.656.656 0 0 0-.338.043L300 134.098l-2.881-1.039a.656.656 0 0 0-.338-.043c-.638.118-.996.877-.641 1.479l2.963 5.032a.937.937 0 0 0 1.617.02zM180.72 139.547l3.127-5.031c.375-.603.019-1.38-.628-1.5a.656.656 0 0 0-.338.043L180 134.098l-2.881-1.039a.656.656 0 0 0-.338-.043c-.638.118-.996.877-.641 1.479l2.963 5.032a.937.937 0 0 0 1.617.02z" fill="#CF0"/>
    <path d="M240 55.5a2.5 2.5 0 1 1 0 5 2.5 2.5 0 0 1 0-5z" stroke="#CF0" stroke-width="3"/>
    <path d="M375 224.687v30.876c0 8.837 7.163 16 16 16h88c8.837 0 16 7.164 16 16v30.876" stroke="#CF0" stroke-width="1.5" stroke-linecap="round" stroke-dasharray="4 4"/>
    <path d="m495.72 319.255 3.127-5.032c.375-.603.019-1.38-.628-1.5a.656.656 0 0 0-.338.043L495 313.805l-2.881-1.039a.656.656 0 0 0-.338-.043c-.638.118-.996.877-.641 1.479l2.963 5.032a.938.938 0 0 0 1.617.021z" fill="#CF0"/>
    <path d="M375 220.5a2.5 2.5 0 1 1 0 5 2.5 2.5 0 0 1 0-5z" stroke="#CF0" stroke-width="3"/>
    <path d="M495 389.687v30.876c0 8.837-7.163 16-16 16h-88c-8.837 0-16 7.164-16 16v30.876" stroke="#CF0" stroke-width="1.5" stroke-linecap="round" stroke-dasharray="4 4"/>
    <path d="m374.28 484.255-3.127-5.032c-.375-.603-.019-1.38.628-1.5a.656.656 0 0 1 .338.043l2.881 1.039 2.881-1.039a.656.656 0 0 1 .338-.043c.638.118.996.877.641 1.479l-2.963 5.032a.938.938 0 0 1-1.617.021z" fill="#CF0"/>
    <path d="M495 385.5a2.5 2.5 0 1 0 0 5 2.5 2.5 0 0 0 0-5z" stroke="#CF0" stroke-width="3"/>
    <path d="M105 225.461V302.5" stroke="#CF0" stroke-width="1.5" stroke-linecap="round" stroke-dasharray="4 4"/>
    <path d="m105.72 304.547 3.127-5.031c.375-.603.019-1.38-.628-1.5a.656.656 0 0 0-.338.043L105 299.098l-2.881-1.039a.656.656 0 0 0-.338-.043c-.638.118-.996.877-.641 1.479l2.963 5.032a.937.937 0 0 0 1.617.02z" fill="#CF0"/>
    <path d="M105 220.5a2.5 2.5 0 1 1 0 5 2.5 2.5 0 0 1 0-5z" fill="#202020" stroke="#CF0" stroke-width="3"/>
    <path d="M104.932 389.418v121.581c0 8.837 7.163 16 16 16h102.414" stroke="#CF0" stroke-width="1.5" stroke-linecap="round" stroke-dasharray="4 4"/>
    <path d="m224.547 527.72-5.031 3.127c-.603.375-1.38.019-1.5-.628a.656.656 0 0 1 .043-.338l1.039-2.881-1.039-2.881a.656.656 0 0 1-.043-.338c.118-.638.877-.996 1.479-.641l5.032 2.963a.937.937 0 0 1 .02 1.617z" fill="#CF0"/>
    <path d="M105 385.5a2.5 2.5 0 1 0 0 5 2.5 2.5 0 0 0 0-5z" fill="#202020" stroke="#CF0" stroke-width="3"/>
</svg>
