<svg width="479" height="532" viewBox="0 0 479 532" fill="none" xmlns="http://www.w3.org/2000/svg">
    <path d="M120.812 16V0h2.899v6.773h7.414V0h2.906v16h-2.906V9.203h-7.414V16h-2.899zM142.293 16.234c-1.172 0-2.188-.257-3.047-.773a5.255 5.255 0 0 1-2-2.164c-.469-.927-.703-2.01-.703-3.25 0-1.24.234-2.326.703-3.258.474-.932 1.141-1.656 2-2.172.859-.515 1.875-.773 3.047-.773 1.172 0 2.187.258 3.047.773.859.516 1.523 1.24 1.992 2.172.474.932.711 2.018.711 3.258 0 1.24-.237 2.323-.711 3.25a5.204 5.204 0 0 1-1.992 2.164c-.86.516-1.875.773-3.047.773zm.016-2.265c.635 0 1.166-.175 1.593-.524.427-.354.745-.828.953-1.422.214-.593.321-1.255.321-1.984 0-.734-.107-1.398-.321-1.992-.208-.6-.526-1.076-.953-1.43-.427-.354-.958-.531-1.593-.531-.651 0-1.193.177-1.625.531-.427.354-.748.83-.961 1.43-.209.594-.313 1.258-.313 1.992 0 .73.104 1.39.313 1.984.213.594.534 1.068.961 1.422.432.35.974.524 1.625.524zM150.443 16V4h2.703v2.04h.141c.25-.688.664-1.225 1.242-1.61.578-.39 1.269-.586 2.071-.586.812 0 1.497.198 2.054.594.563.39.959.924 1.188 1.601h.125a3.273 3.273 0 0 1 1.344-1.594c.635-.4 1.388-.601 2.257-.601 1.105 0 2.006.349 2.703 1.047.698.698 1.047 1.716 1.047 3.054V16h-2.836V8.383c0-.745-.197-1.29-.593-1.633-.396-.349-.881-.523-1.453-.523-.683 0-1.217.213-1.602.64-.38.422-.57.972-.57 1.649V16h-2.774V8.266c0-.62-.187-1.115-.562-1.485-.37-.37-.854-.554-1.453-.554-.407 0-.776.104-1.11.312a2.183 2.183 0 0 0-.797.867c-.198.37-.297.802-.297 1.297V16h-2.828zM175.5 16.234c-1.203 0-2.242-.25-3.117-.75a5.08 5.08 0 0 1-2.008-2.14c-.469-.927-.703-2.018-.703-3.274 0-1.234.234-2.317.703-3.25.474-.937 1.135-1.666 1.984-2.187.849-.526 1.847-.79 2.993-.79.739 0 1.437.12 2.093.36a4.726 4.726 0 0 1 1.75 1.094c.511.495.912 1.125 1.203 1.89.292.76.438 1.667.438 2.72v.866H171V8.867h7.125c-.005-.541-.122-1.023-.352-1.445a2.551 2.551 0 0 0-.961-1.008c-.406-.245-.88-.367-1.421-.367-.578 0-1.086.14-1.524.422-.437.276-.778.64-1.023 1.093a3.14 3.14 0 0 0-.367 1.477v1.664c0 .698.127 1.297.382 1.797.256.495.612.875 1.071 1.14.458.261.994.391 1.609.391.412 0 .784-.057 1.117-.172.334-.12.623-.294.867-.523.245-.23.43-.513.555-.852l2.641.297a4.128 4.128 0 0 1-.953 1.828c-.464.516-1.058.917-1.782 1.204-.724.28-1.552.421-2.484.421zM188.686 20.5V4h2.781v1.984h.164c.146-.291.351-.601.617-.93.266-.333.625-.617 1.078-.85.453-.24 1.031-.36 1.735-.36.927 0 1.763.237 2.507.71.75.47 1.344 1.165 1.782 2.087.442.916.664 2.041.664 3.375 0 1.317-.216 2.437-.649 3.359-.432.922-1.021 1.625-1.765 2.11-.745.484-1.589.726-2.532.726-.687 0-1.257-.115-1.711-.344a3.479 3.479 0 0 1-1.093-.828 5.357 5.357 0 0 1-.633-.93h-.117V20.5h-2.828zm2.773-10.5c0 .776.109 1.456.328 2.04.224.582.544 1.038.961 1.366.422.323.932.485 1.531.485.625 0 1.149-.167 1.571-.5.421-.339.739-.8.953-1.383.218-.589.328-1.258.328-2.008 0-.745-.107-1.406-.32-1.984-.214-.579-.532-1.032-.954-1.36-.421-.328-.947-.492-1.578-.492-.604 0-1.117.159-1.539.477-.422.317-.742.763-.961 1.336-.213.572-.32 1.247-.32 2.023zM205.889 16.242c-.761 0-1.446-.135-2.055-.406a3.36 3.36 0 0 1-1.438-1.219c-.348-.536-.523-1.198-.523-1.984 0-.677.125-1.237.375-1.68.25-.443.591-.797 1.023-1.062a5.18 5.18 0 0 1 1.461-.602c.547-.14 1.112-.242 1.696-.305a67.146 67.146 0 0 0 1.711-.195c.437-.062.755-.156.953-.281.203-.13.304-.33.304-.602V7.86c0-.588-.174-1.044-.523-1.367-.349-.323-.852-.484-1.508-.484-.692 0-1.242.15-1.648.453-.401.302-.672.659-.813 1.07l-2.64-.375c.208-.729.552-1.338 1.031-1.828a4.483 4.483 0 0 1 1.758-1.11c.692-.25 1.458-.374 2.297-.374.578 0 1.153.067 1.726.203.573.135 1.097.36 1.57.672.474.307.855.726 1.141 1.258.292.53.438 1.195.438 1.992V16h-2.719v-1.648h-.094a3.464 3.464 0 0 1-.726.937 3.505 3.505 0 0 1-1.165.695c-.463.172-1.007.258-1.632.258zm.734-2.078c.568 0 1.06-.112 1.477-.336.416-.229.737-.531.961-.906a2.31 2.31 0 0 0 .343-1.227v-1.414c-.088.073-.239.14-.453.203a6.399 6.399 0 0 1-.703.164c-.26.047-.518.089-.773.125l-.664.094c-.422.057-.8.151-1.133.281-.334.13-.597.313-.789.547-.193.23-.289.526-.289.89 0 .522.19.915.57 1.18.38.266.865.4 1.453.4zM220.287 20.75c-1.016 0-1.888-.138-2.617-.414-.729-.27-1.315-.635-1.758-1.094a3.785 3.785 0 0 1-.922-1.523l2.547-.617c.115.234.281.466.5.695.219.234.513.427.883.578.375.156.846.234 1.414.234.802 0 1.466-.195 1.992-.586.526-.385.789-1.02.789-1.906v-2.273h-.14c-.146.291-.36.59-.641.898-.276.307-.643.565-1.102.774-.453.208-1.023.312-1.711.312-.921 0-1.757-.216-2.507-.648-.745-.438-1.339-1.089-1.782-1.953-.437-.87-.656-1.959-.656-3.266 0-1.318.219-2.43.656-3.336.443-.911 1.039-1.602 1.789-2.07a4.598 4.598 0 0 1 2.508-.711c.703 0 1.282.12 1.735.36.458.234.823.517 1.093.85.271.329.477.639.618.93h.156V4h2.789v12.195c0 1.026-.245 1.875-.734 2.547-.49.672-1.159 1.175-2.008 1.508-.849.333-1.813.5-2.891.5zm.024-7.14c.599 0 1.109-.146 1.531-.438.422-.292.742-.711.961-1.258.218-.547.328-1.203.328-1.969 0-.755-.11-1.416-.328-1.984-.214-.568-.532-1.008-.953-1.32-.417-.318-.93-.477-1.539-.477-.631 0-1.157.164-1.579.492-.421.328-.739.779-.953 1.352-.213.568-.32 1.213-.32 1.937 0 .735.107 1.378.32 1.93.219.547.539.974.961 1.281.427.302.951.453 1.571.453zM234.131 16.234c-1.203 0-2.242-.25-3.117-.75a5.08 5.08 0 0 1-2.008-2.14c-.469-.927-.703-2.018-.703-3.274 0-1.234.234-2.317.703-3.25.474-.937 1.135-1.666 1.984-2.187.849-.526 1.847-.79 2.992-.79.74 0 1.438.12 2.094.36a4.726 4.726 0 0 1 1.75 1.094c.511.495.912 1.125 1.203 1.89.292.76.438 1.667.438 2.72v.866h-9.836V8.867h7.125a3.042 3.042 0 0 0-.352-1.445 2.551 2.551 0 0 0-.961-1.008c-.406-.245-.88-.367-1.422-.367-.578 0-1.085.14-1.523.422-.437.276-.779.64-1.023 1.093-.24.448-.362.94-.368 1.477v1.664c0 .698.128 1.297.383 1.797.255.495.612.875 1.071 1.14.458.261.994.391 1.609.391a3.42 3.42 0 0 0 1.117-.172c.333-.12.623-.294.867-.523.245-.23.43-.513.555-.852l2.641.297a4.12 4.12 0 0 1-.954 1.828c-.463.516-1.057.917-1.781 1.204-.724.28-1.552.421-2.484.421zM9.273 169.398c-.072-.682-.38-1.213-.921-1.593-.537-.381-1.235-.571-2.094-.571-.604 0-1.123.092-1.555.274-.432.182-.763.429-.992.742-.23.313-.346.669-.352 1.07 0 .334.076.623.227.868.156.244.367.453.633.625.265.166.56.307.883.421.322.115.648.211.976.289l1.5.375a10.33 10.33 0 0 1 1.742.571 6.108 6.108 0 0 1 1.508.906c.448.365.802.805 1.063 1.32.26.516.39 1.12.39 1.813 0 .937-.24 1.763-.719 2.476-.479.709-1.171 1.263-2.078 1.664-.9.396-1.992.594-3.273.594-1.245 0-2.326-.193-3.242-.578-.912-.385-1.625-.948-2.14-1.687-.511-.74-.787-1.641-.829-2.704h2.852c.041.558.213 1.021.515 1.391.302.37.696.646 1.18.828a4.68 4.68 0 0 0 1.64.274c.63 0 1.183-.094 1.657-.282.479-.192.854-.458 1.125-.796.27-.344.409-.745.414-1.204-.005-.416-.128-.76-.367-1.031-.24-.276-.576-.505-1.008-.687a9.571 9.571 0 0 0-1.5-.5l-1.82-.469c-1.318-.339-2.36-.852-3.125-1.539-.76-.693-1.141-1.612-1.141-2.758 0-.943.255-1.768.766-2.477.515-.708 1.216-1.257 2.101-1.648.885-.396 1.888-.594 3.008-.594 1.135 0 2.13.198 2.984.594.86.391 1.534.935 2.024 1.633.49.693.742 1.489.758 2.39h-2.79zM20.053 181.234c-1.203 0-2.242-.25-3.117-.75a5.077 5.077 0 0 1-2.008-2.14c-.469-.927-.703-2.018-.703-3.274 0-1.234.234-2.317.703-3.25.474-.937 1.135-1.666 1.984-2.187.85-.526 1.847-.789 2.992-.789.74 0 1.438.12 2.094.359a4.725 4.725 0 0 1 1.75 1.094c.51.495.912 1.125 1.203 1.891.292.76.438 1.666.438 2.718v.867h-9.836v-1.906h7.125a3.044 3.044 0 0 0-.352-1.445 2.559 2.559 0 0 0-.96-1.008c-.407-.245-.881-.367-1.423-.367-.578 0-1.086.141-1.523.422-.438.276-.779.64-1.024 1.093a3.15 3.15 0 0 0-.367 1.477v1.664c0 .698.128 1.297.383 1.797.255.495.612.875 1.07 1.141.459.26.995.39 1.61.39a3.41 3.41 0 0 0 1.117-.172 2.47 2.47 0 0 0 .867-.523c.245-.229.43-.513.555-.852l2.64.297a4.112 4.112 0 0 1-.953 1.828c-.463.516-1.057.917-1.78 1.203-.725.282-1.553.422-2.485.422zM27.781 181v-12h2.742v2h.125c.22-.693.594-1.227 1.125-1.602a3.098 3.098 0 0 1 1.836-.57c.157 0 .331.008.524.024.198.01.362.028.492.054v2.602a2.997 2.997 0 0 0-.57-.11 5.313 5.313 0 0 0-.742-.054c-.516 0-.98.112-1.391.336a2.45 2.45 0 0 0-.961.914c-.234.39-.352.841-.352 1.351V181h-2.828zM47.588 169l-4.273 12H40.19l-4.274-12h3.016l2.758 8.914h.125L44.58 169h3.008zM49.545 181v-12h2.828v12h-2.828zm1.422-13.703c-.448 0-.834-.149-1.157-.445a1.438 1.438 0 0 1-.484-1.086c0-.427.162-.789.484-1.086a1.635 1.635 0 0 1 1.157-.453c.453 0 .838.151 1.156.453.323.297.484.659.484 1.086 0 .421-.161.783-.484 1.086a1.635 1.635 0 0 1-1.156.445zM60.516 181.234c-1.198 0-2.227-.263-3.086-.789a5.268 5.268 0 0 1-1.977-2.179c-.458-.933-.687-2.006-.687-3.219 0-1.219.234-2.294.703-3.227.468-.937 1.13-1.666 1.984-2.187.86-.526 1.875-.789 3.047-.789.974 0 1.836.179 2.586.539a4.417 4.417 0 0 1 1.805 1.508c.447.645.703 1.401.765 2.265h-2.703a2.583 2.583 0 0 0-.781-1.445c-.406-.391-.95-.586-1.633-.586-.578 0-1.086.156-1.523.469-.438.307-.779.75-1.024 1.328-.24.578-.36 1.271-.36 2.078 0 .818.12 1.521.36 2.109.24.584.576 1.034 1.008 1.352.438.312.95.469 1.54.469.416 0 .788-.078 1.116-.235.334-.161.612-.393.836-.695.224-.302.378-.669.461-1.102h2.703c-.068.849-.318 1.602-.75 2.258a4.444 4.444 0 0 1-1.765 1.532c-.745.364-1.62.546-2.625.546zM73.291 181.234c-1.203 0-2.242-.25-3.117-.75a5.076 5.076 0 0 1-2.008-2.14c-.469-.927-.703-2.018-.703-3.274 0-1.234.234-2.317.703-3.25.474-.937 1.135-1.666 1.984-2.187.85-.526 1.847-.789 2.993-.789.74 0 1.437.12 2.093.359a4.725 4.725 0 0 1 1.75 1.094c.51.495.912 1.125 1.203 1.891.292.76.438 1.666.438 2.718v.867h-9.836v-1.906h7.125a3.044 3.044 0 0 0-.352-1.445 2.559 2.559 0 0 0-.96-1.008c-.407-.245-.88-.367-1.422-.367-.579 0-1.086.141-1.524.422-.437.276-.778.64-1.023 1.093a3.15 3.15 0 0 0-.367 1.477v1.664c0 .698.127 1.297.382 1.797.256.495.612.875 1.07 1.141.459.26.996.39 1.61.39.412 0 .784-.057 1.117-.172a2.47 2.47 0 0 0 .867-.523c.245-.229.43-.513.555-.852l2.64.297a4.111 4.111 0 0 1-.952 1.828c-.464.516-1.058.917-1.782 1.203-.724.282-1.552.422-2.484.422zM90.504 172.172l-2.578.281c-.073-.26-.2-.505-.383-.734a1.907 1.907 0 0 0-.719-.555c-.302-.141-.672-.211-1.11-.211-.588 0-1.082.128-1.483.383-.396.255-.592.586-.587.992a1.04 1.04 0 0 0 .383.852c.266.218.704.398 1.313.539l2.047.437c1.135.245 1.979.633 2.531 1.164.557.532.838 1.227.844 2.086a3.263 3.263 0 0 1-.664 2c-.433.573-1.034 1.021-1.805 1.344-.77.323-1.656.484-2.656.484-1.469 0-2.651-.307-3.547-.922-.896-.619-1.43-1.481-1.602-2.585l2.758-.266c.125.542.39.95.797 1.227.406.276.935.414 1.586.414.672 0 1.21-.138 1.617-.414.412-.277.617-.618.617-1.024 0-.344-.132-.628-.398-.852-.26-.223-.667-.395-1.219-.515l-2.047-.43c-1.15-.239-2.002-.643-2.555-1.211-.552-.573-.825-1.297-.82-2.172-.005-.739.195-1.38.602-1.922.411-.546.982-.968 1.71-1.265.735-.302 1.581-.453 2.54-.453 1.406 0 2.513.299 3.32.898.813.599 1.315 1.409 1.508 2.43zM288.094 170.398h-2.922a3.63 3.63 0 0 0-.461-1.273 3.425 3.425 0 0 0-.836-.953 3.468 3.468 0 0 0-1.141-.586 4.46 4.46 0 0 0-1.367-.203c-.87 0-1.64.219-2.312.656-.672.432-1.198 1.068-1.578 1.906-.381.834-.571 1.852-.571 3.055 0 1.224.19 2.255.571 3.094.385.833.911 1.463 1.578 1.89.672.422 1.44.633 2.304.633.48 0 .927-.062 1.344-.187.422-.131.8-.321 1.133-.571.338-.25.622-.557.852-.921.234-.365.395-.782.484-1.25l2.922.015a6.318 6.318 0 0 1-.711 2.141 6.328 6.328 0 0 1-1.414 1.765 6.528 6.528 0 0 1-2.047 1.188c-.781.281-1.649.422-2.602.422-1.406 0-2.661-.326-3.765-.977s-1.974-1.591-2.61-2.82c-.635-1.229-.953-2.703-.953-4.422 0-1.724.32-3.198.961-4.422.641-1.229 1.513-2.169 2.617-2.82 1.104-.651 2.354-.977 3.75-.977.891 0 1.719.125 2.485.375a6.36 6.36 0 0 1 2.047 1.102 5.86 5.86 0 0 1 1.476 1.765c.391.693.646 1.485.766 2.375zM294.076 181.242c-.76 0-1.445-.135-2.055-.406a3.348 3.348 0 0 1-1.437-1.219c-.349-.536-.523-1.198-.523-1.984 0-.677.125-1.237.375-1.68.25-.443.591-.797 1.023-1.062a5.133 5.133 0 0 1 1.461-.602 11.906 11.906 0 0 1 1.695-.305 68.568 68.568 0 0 0 1.711-.195c.438-.062.755-.156.953-.281.203-.13.305-.331.305-.602v-.047c0-.588-.174-1.044-.523-1.367-.349-.323-.852-.484-1.508-.484-.693 0-1.242.151-1.649.453-.401.302-.672.659-.812 1.07l-2.641-.375c.209-.729.552-1.338 1.031-1.828a4.497 4.497 0 0 1 1.758-1.109c.693-.25 1.459-.375 2.297-.375.578 0 1.154.067 1.727.203a4.836 4.836 0 0 1 1.57.672c.474.307.854.726 1.141 1.258.291.531.437 1.195.437 1.992V181h-2.719v-1.648h-.093a3.455 3.455 0 0 1-.727.937 3.478 3.478 0 0 1-1.164.695c-.464.172-1.008.258-1.633.258zm.735-2.078c.567 0 1.059-.112 1.476-.336a2.48 2.48 0 0 0 .961-.906c.229-.375.344-.784.344-1.227v-1.414c-.089.073-.24.141-.453.203a6.164 6.164 0 0 1-.703.164c-.261.047-.519.089-.774.125l-.664.094a4.943 4.943 0 0 0-1.133.281 1.896 1.896 0 0 0-.789.547c-.193.229-.289.526-.289.891 0 .521.19.914.57 1.18.381.265.865.398 1.454.398zM303.256 181v-12h2.742v2h.125c.219-.693.594-1.227 1.125-1.602a3.098 3.098 0 0 1 1.836-.57c.156 0 .331.008.523.024.198.01.362.028.493.054v2.602a3 3 0 0 0-.571-.11 5.304 5.304 0 0 0-.742-.054c-.516 0-.979.112-1.391.336a2.447 2.447 0 0 0-.96.914c-.235.39-.352.841-.352 1.351V181h-2.828zM316.797 181.234c-1.203 0-2.242-.25-3.117-.75a5.076 5.076 0 0 1-2.008-2.14c-.469-.927-.703-2.018-.703-3.274 0-1.234.234-2.317.703-3.25.474-.937 1.135-1.666 1.984-2.187.849-.526 1.847-.789 2.992-.789.74 0 1.438.12 2.094.359a4.72 4.72 0 0 1 1.75 1.094c.511.495.912 1.125 1.203 1.891.292.76.438 1.666.438 2.718v.867h-9.836v-1.906h7.125a3.043 3.043 0 0 0-.352-1.445 2.554 2.554 0 0 0-.961-1.008c-.406-.245-.88-.367-1.421-.367-.579 0-1.086.141-1.524.422-.437.276-.779.64-1.023 1.094-.24.447-.362.94-.368 1.476v1.664c0 .698.128 1.297.383 1.797a2.73 2.73 0 0 0 1.071 1.141c.458.26.994.39 1.609.39a3.41 3.41 0 0 0 1.117-.172c.333-.119.623-.294.867-.523.245-.229.43-.513.555-.852l2.641.297a4.114 4.114 0 0 1-.954 1.828c-.463.516-1.057.917-1.781 1.203-.724.282-1.552.422-2.484.422zM329.838 181.234c-1.203 0-2.242-.25-3.117-.75a5.076 5.076 0 0 1-2.008-2.14c-.469-.927-.703-2.018-.703-3.274 0-1.234.234-2.317.703-3.25.474-.937 1.135-1.666 1.984-2.187.849-.526 1.847-.789 2.992-.789.74 0 1.438.12 2.094.359a4.72 4.72 0 0 1 1.75 1.094c.511.495.912 1.125 1.203 1.891.292.76.438 1.666.438 2.718v.867h-9.836v-1.906h7.125a3.043 3.043 0 0 0-.352-1.445 2.554 2.554 0 0 0-.961-1.008c-.406-.245-.88-.367-1.421-.367-.579 0-1.086.141-1.524.422-.437.276-.779.64-1.023 1.094-.24.447-.362.94-.368 1.476v1.664c0 .698.128 1.297.383 1.797a2.73 2.73 0 0 0 1.071 1.141c.458.26.994.39 1.609.39a3.41 3.41 0 0 0 1.117-.172c.333-.119.623-.294.867-.523.245-.229.43-.513.555-.852l2.641.297a4.122 4.122 0 0 1-.953 1.828c-.464.516-1.058.917-1.782 1.203-.724.282-1.552.422-2.484.422zM337.566 181v-12h2.743v2h.125c.218-.693.593-1.227 1.125-1.602a3.096 3.096 0 0 1 1.836-.57c.156 0 .33.008.523.024.198.01.362.028.492.054v2.602a3.003 3.003 0 0 0-.57-.11 5.315 5.315 0 0 0-.742-.054c-.516 0-.98.112-1.391.336a2.45 2.45 0 0 0-.961.914c-.234.39-.351.841-.351 1.351V181h-2.829zM355.773 172.172l-2.578.281c-.073-.26-.2-.505-.383-.734a1.904 1.904 0 0 0-.718-.555c-.302-.141-.672-.211-1.11-.211-.588 0-1.083.128-1.484.383-.396.255-.591.586-.586.992-.005.349.122.633.383.852.266.218.703.398 1.312.539l2.047.437c1.136.245 1.979.633 2.532 1.164.557.532.838 1.227.843 2.086a3.259 3.259 0 0 1-.664 2c-.432.573-1.034 1.021-1.805 1.344-.77.323-1.656.484-2.656.484-1.469 0-2.651-.307-3.547-.922-.895-.619-1.429-1.481-1.601-2.585l2.758-.266c.125.542.39.95.796 1.227.407.276.935.414 1.586.414.672 0 1.211-.138 1.618-.414.411-.277.617-.618.617-1.024 0-.344-.133-.628-.399-.852-.26-.223-.666-.395-1.218-.515l-2.047-.43c-1.151-.239-2.003-.643-2.555-1.211-.552-.573-.825-1.297-.82-2.172-.005-.739.195-1.38.601-1.922.412-.546.982-.968 1.711-1.265.735-.302 1.581-.453 2.539-.453 1.407 0 2.513.299 3.321.898.812.599 1.315 1.409 1.507 2.43zM392.398 351v-16h6.125c1.157 0 2.118.182 2.883.547.771.359 1.347.851 1.727 1.476.385.625.578 1.334.578 2.125 0 .651-.125 1.209-.375 1.672-.25.459-.586.831-1.008 1.117a4.255 4.255 0 0 1-1.414.618v.156a3.471 3.471 0 0 1 1.633.523c.526.313.956.756 1.289 1.328.333.573.5 1.266.5 2.079 0 .828-.201 1.573-.602 2.234-.401.656-1.005 1.174-1.812 1.555-.807.38-1.823.57-3.047.57h-6.477zm2.899-2.422h3.117c1.052 0 1.81-.2 2.274-.601.468-.407.703-.928.703-1.563a2.394 2.394 0 0 0-1.352-2.187c-.432-.224-.948-.336-1.547-.336h-3.195v4.687zm0-6.773h2.867c.5 0 .951-.091 1.352-.274.401-.187.716-.45.945-.789.234-.344.351-.75.351-1.219 0-.619-.218-1.13-.656-1.531-.432-.401-1.075-.601-1.929-.601h-2.93v4.414zM412.045 351.234c-1.203 0-2.242-.25-3.117-.75a5.076 5.076 0 0 1-2.008-2.14c-.469-.927-.703-2.018-.703-3.274 0-1.234.234-2.317.703-3.25.474-.937 1.135-1.666 1.984-2.187.849-.526 1.847-.789 2.992-.789.74 0 1.438.12 2.094.359a4.72 4.72 0 0 1 1.75 1.094c.511.495.912 1.125 1.203 1.891.292.76.438 1.666.438 2.718v.867h-9.836v-1.906h7.125a3.031 3.031 0 0 0-.352-1.445 2.554 2.554 0 0 0-.961-1.008c-.406-.245-.88-.367-1.421-.367-.579 0-1.086.141-1.524.422-.437.276-.779.64-1.023 1.093-.24.448-.362.941-.368 1.477v1.664c0 .698.128 1.297.383 1.797.256.495.612.875 1.071 1.141.458.26.994.39 1.609.39a3.41 3.41 0 0 0 1.117-.172c.334-.119.623-.294.867-.523.245-.229.43-.513.555-.852l2.641.297a4.122 4.122 0 0 1-.953 1.828c-.464.516-1.058.917-1.782 1.203-.724.282-1.552.422-2.484.422zM422.602 343.969V351h-2.829v-12h2.704v2.039h.14a3.42 3.42 0 0 1 1.321-1.601c.609-.396 1.361-.594 2.257-.594.828 0 1.55.177 2.164.531a3.58 3.58 0 0 1 1.438 1.539c.344.672.513 1.487.508 2.445V351h-2.828v-7.203c0-.802-.209-1.43-.625-1.883-.412-.453-.982-.68-1.711-.68-.495 0-.935.11-1.321.329-.38.213-.679.523-.898.929-.214.406-.32.899-.32 1.477zM438.492 351.234c-1.203 0-2.242-.25-3.117-.75a5.076 5.076 0 0 1-2.008-2.14c-.469-.927-.703-2.018-.703-3.274 0-1.234.234-2.317.703-3.25.474-.937 1.136-1.666 1.985-2.187.849-.526 1.846-.789 2.992-.789.739 0 1.437.12 2.094.359a4.735 4.735 0 0 1 1.75 1.094c.51.495.911 1.125 1.203 1.891.291.76.437 1.666.437 2.718v.867h-9.836v-1.906h7.125a3.042 3.042 0 0 0-.351-1.445 2.568 2.568 0 0 0-.961-1.008c-.407-.245-.881-.367-1.422-.367-.578 0-1.086.141-1.524.422a2.91 2.91 0 0 0-1.023 1.093c-.24.448-.362.941-.367 1.477v1.664c0 .698.127 1.297.383 1.797.255.495.612.875 1.07 1.141.458.26.995.39 1.609.39.412 0 .784-.057 1.117-.172.334-.119.623-.294.868-.523.244-.229.429-.513.554-.852l2.641.297a4.112 4.112 0 0 1-.953 1.828c-.464.516-1.057.917-1.781 1.203-.724.282-1.553.422-2.485.422zM452.299 339v2.188h-7.094V339h7.094zm-5.32 12v-13.133c0-.807.166-1.479.5-2.015a3.159 3.159 0 0 1 1.359-1.204 4.417 4.417 0 0 1 1.891-.398c.489 0 .924.039 1.304.117.38.078.662.149.844.211l-.563 2.188a4.751 4.751 0 0 0-.453-.11 2.776 2.776 0 0 0-.609-.062c-.526 0-.898.127-1.117.383-.214.25-.321.609-.321 1.078V351h-2.835zM454.514 351v-12h2.828v12h-2.828zm1.422-13.703c-.448 0-.834-.149-1.157-.445a1.438 1.438 0 0 1-.484-1.086c0-.427.161-.789.484-1.086a1.636 1.636 0 0 1 1.157-.453c.453 0 .838.151 1.156.453.323.297.484.659.484 1.086 0 .421-.161.783-.484 1.086a1.636 1.636 0 0 1-1.156.445zM466.242 339v2.188h-6.898V339h6.898zm-5.195-2.875h2.828v11.266c0 .38.057.672.172.875.12.198.276.333.469.406.192.073.406.109.64.109.177 0 .339-.013.485-.039.151-.026.265-.049.343-.07l.477 2.211a6.421 6.421 0 0 1-.649.172 5.312 5.312 0 0 1-1.015.109c-.708.021-1.346-.086-1.914-.32a2.984 2.984 0 0 1-1.352-1.11c-.328-.5-.489-1.125-.484-1.875v-11.734zM477.92 342.172l-2.578.281a2.079 2.079 0 0 0-.383-.734 1.908 1.908 0 0 0-.719-.555c-.302-.141-.672-.211-1.109-.211-.589 0-1.083.128-1.485.383-.395.255-.591.586-.585.992-.006.349.122.633.382.852.266.218.703.398 1.313.539l2.047.437c1.135.245 1.979.633 2.531 1.164.557.532.839 1.227.844 2.086a3.265 3.265 0 0 1-.664 2c-.433.573-1.034 1.021-1.805 1.344-.771.323-1.656.484-2.656.484-1.469 0-2.651-.307-3.547-.922-.896-.619-1.43-1.481-1.602-2.585l2.758-.266c.125.542.391.95.797 1.227.406.276.935.414 1.586.414.672 0 1.211-.138 1.617-.414.412-.277.617-.618.617-1.024 0-.344-.133-.628-.398-.852-.261-.223-.667-.395-1.219-.515l-2.047-.43c-1.151-.239-2.002-.643-2.554-1.211-.553-.573-.826-1.297-.821-2.172-.005-.739.196-1.38.602-1.922.411-.546.982-.968 1.711-1.265.734-.302 1.58-.453 2.539-.453 1.406 0 2.513.299 3.32.898.813.599 1.315 1.409 1.508 2.43zM197.398 527v-16h6.125c1.157 0 2.118.182 2.883.547.771.359 1.347.851 1.727 1.476.385.625.578 1.334.578 2.125 0 .651-.125 1.209-.375 1.672-.25.459-.586.831-1.008 1.117a4.255 4.255 0 0 1-1.414.618v.156a3.471 3.471 0 0 1 1.633.523c.526.313.956.756 1.289 1.328.333.573.5 1.266.5 2.079 0 .828-.201 1.573-.602 2.234-.401.656-1.005 1.174-1.812 1.555-.807.38-1.823.57-3.047.57h-6.477zm2.899-2.422h3.117c1.052 0 1.81-.2 2.274-.601.468-.407.703-.928.703-1.563a2.394 2.394 0 0 0-1.352-2.187c-.432-.224-.948-.336-1.547-.336h-3.195v4.687zm0-6.773h2.867c.5 0 .951-.091 1.352-.274.401-.187.716-.45.945-.789.234-.344.351-.75.351-1.219 0-.619-.218-1.13-.656-1.531-.432-.401-1.075-.601-1.929-.601h-2.93v4.414zM216.967 527.234c-1.172 0-2.188-.257-3.047-.773a5.258 5.258 0 0 1-2-2.164c-.469-.927-.703-2.011-.703-3.25 0-1.24.234-2.326.703-3.258.474-.932 1.141-1.656 2-2.172.859-.515 1.875-.773 3.047-.773 1.172 0 2.187.258 3.047.773.859.516 1.523 1.24 1.992 2.172.474.932.711 2.018.711 3.258 0 1.239-.237 2.323-.711 3.25a5.207 5.207 0 0 1-1.992 2.164c-.86.516-1.875.773-3.047.773zm.015-2.265c.636 0 1.167-.175 1.594-.524.427-.354.745-.828.953-1.422.214-.593.321-1.255.321-1.984 0-.734-.107-1.398-.321-1.992-.208-.599-.526-1.076-.953-1.43-.427-.354-.958-.531-1.594-.531-.651 0-1.192.177-1.625.531-.427.354-.747.831-.961 1.43-.208.594-.312 1.258-.312 1.992 0 .729.104 1.391.312 1.984.214.594.534 1.068.961 1.422.433.349.974.524 1.625.524zM230.352 527.234c-1.172 0-2.188-.257-3.047-.773a5.251 5.251 0 0 1-2-2.164c-.469-.927-.703-2.011-.703-3.25 0-1.24.234-2.326.703-3.258.474-.932 1.14-1.656 2-2.172.859-.515 1.875-.773 3.047-.773 1.171 0 2.187.258 3.046.773.86.516 1.524 1.24 1.993 2.172.474.932.711 2.018.711 3.258 0 1.239-.237 2.323-.711 3.25a5.202 5.202 0 0 1-1.993 2.164c-.859.516-1.875.773-3.046.773zm.015-2.265c.636 0 1.167-.175 1.594-.524.427-.354.745-.828.953-1.422.214-.593.32-1.255.32-1.984 0-.734-.106-1.398-.32-1.992-.208-.599-.526-1.076-.953-1.43-.427-.354-.958-.531-1.594-.531-.651 0-1.193.177-1.625.531-.427.354-.747.831-.961 1.43-.208.594-.312 1.258-.312 1.992 0 .729.104 1.391.312 1.984.214.594.534 1.068.961 1.422.432.349.974.524 1.625.524zM241.08 523.234l-.008-3.414h.453l4.313-4.82h3.305l-5.305 5.906h-.586l-2.172 2.328zM238.502 527v-16h2.828v16h-2.828zm7.531 0-3.906-5.461 1.906-1.992 5.383 7.453h-3.383zM259.938 527.242c-.761 0-1.446-.135-2.055-.406a3.351 3.351 0 0 1-1.438-1.219c-.349-.536-.523-1.198-.523-1.984 0-.677.125-1.237.375-1.68.25-.443.591-.797 1.023-1.062.433-.266.92-.467 1.461-.602a11.895 11.895 0 0 1 1.696-.305 69.125 69.125 0 0 0 1.711-.195c.437-.062.755-.156.953-.281.203-.13.304-.331.304-.602v-.047c0-.588-.174-1.044-.523-1.367-.349-.323-.852-.484-1.508-.484-.693 0-1.242.151-1.648.453-.401.302-.672.659-.813 1.07l-2.641-.375c.209-.729.553-1.338 1.032-1.828a4.483 4.483 0 0 1 1.758-1.109c.692-.25 1.458-.375 2.296-.375.579 0 1.154.067 1.727.203a4.836 4.836 0 0 1 1.57.672c.474.307.854.726 1.141 1.258.292.531.437 1.195.437 1.992V527h-2.718v-1.648h-.094a3.455 3.455 0 0 1-.727.937 3.478 3.478 0 0 1-1.164.695c-.463.172-1.008.258-1.632.258zm.734-2.078c.568 0 1.06-.112 1.476-.336a2.48 2.48 0 0 0 .961-.906c.23-.375.344-.784.344-1.227v-1.414c-.088.073-.239.141-.453.203a6.114 6.114 0 0 1-.703.164c-.261.047-.518.089-.774.125l-.664.094a4.934 4.934 0 0 0-1.132.281 1.883 1.883 0 0 0-.789.547c-.193.229-.29.526-.29.891 0 .521.191.914.571 1.18.38.265.864.398 1.453.398zM274.699 511h3.547l4.75 11.594h.188l4.75-11.594h3.546v16h-2.781v-10.992h-.148l-4.422 10.945h-2.078l-4.422-10.969h-.149V527h-2.781v-16zM299.824 527.234c-1.203 0-2.242-.25-3.117-.75a5.076 5.076 0 0 1-2.008-2.14c-.469-.927-.703-2.018-.703-3.274 0-1.234.234-2.317.703-3.25.474-.937 1.136-1.666 1.985-2.187.849-.526 1.846-.789 2.992-.789.739 0 1.437.12 2.094.359a4.735 4.735 0 0 1 1.75 1.094c.51.495.911 1.125 1.203 1.891.291.76.437 1.666.437 2.718v.867h-9.836v-1.906h7.125a3.042 3.042 0 0 0-.351-1.445 2.568 2.568 0 0 0-.961-1.008c-.407-.245-.88-.367-1.422-.367-.578 0-1.086.141-1.524.422a2.91 2.91 0 0 0-1.023 1.093c-.24.448-.362.941-.367 1.477v1.664c0 .698.127 1.297.383 1.797.255.495.612.875 1.07 1.141.458.26.995.39 1.609.39.412 0 .784-.057 1.117-.172.334-.119.623-.294.868-.523.244-.229.429-.513.554-.852l2.641.297a4.112 4.112 0 0 1-.953 1.828c-.464.516-1.057.917-1.781 1.203-.724.282-1.552.422-2.485.422zM312.865 527.234c-1.203 0-2.242-.25-3.117-.75a5.076 5.076 0 0 1-2.008-2.14c-.469-.927-.703-2.018-.703-3.274 0-1.234.234-2.317.703-3.25.474-.937 1.136-1.666 1.985-2.187.849-.526 1.846-.789 2.992-.789.739 0 1.437.12 2.094.359a4.735 4.735 0 0 1 1.75 1.094c.51.495.911 1.125 1.203 1.891.291.76.437 1.666.437 2.718v.867h-9.836v-1.906h7.125a3.042 3.042 0 0 0-.351-1.445 2.56 2.56 0 0 0-.961-1.008c-.407-.245-.88-.367-1.422-.367-.578 0-1.086.141-1.524.422a2.91 2.91 0 0 0-1.023 1.093c-.24.448-.362.941-.367 1.477v1.664c0 .698.127 1.297.383 1.797.255.495.612.875 1.07 1.141.458.26.995.39 1.609.39.412 0 .784-.057 1.117-.172.334-.119.623-.294.868-.523.244-.229.429-.513.554-.852l2.641.297a4.112 4.112 0 0 1-.953 1.828c-.464.516-1.057.917-1.781 1.203-.724.282-1.552.422-2.485.422zM326.586 515v2.188h-6.898V515h6.898zm-5.195-2.875h2.828v11.266c0 .38.057.672.172.875a.925.925 0 0 0 .468.406 1.8 1.8 0 0 0 .641.109c.177 0 .339-.013.484-.039.151-.026.266-.049.344-.07l.477 2.211a6.496 6.496 0 0 1-.649.172 5.312 5.312 0 0 1-1.015.109c-.709.021-1.347-.086-1.914-.32a2.98 2.98 0 0 1-1.352-1.11c-.328-.5-.49-1.125-.484-1.875v-11.734zM328.951 527v-12h2.828v12h-2.828zm1.422-13.703c-.448 0-.833-.149-1.156-.445-.323-.303-.485-.665-.485-1.086 0-.427.162-.789.485-1.086a1.634 1.634 0 0 1 1.156-.453c.453 0 .839.151 1.156.453.323.297.485.659.485 1.086 0 .421-.162.783-.485 1.086a1.634 1.634 0 0 1-1.156.445zM337.516 519.969V527h-2.828v-12h2.703v2.039h.14a3.42 3.42 0 0 1 1.321-1.601c.609-.396 1.362-.594 2.257-.594.828 0 1.55.177 2.164.531a3.58 3.58 0 0 1 1.438 1.539c.344.672.513 1.487.508 2.445V527h-2.828v-7.203c0-.802-.209-1.43-.625-1.883-.412-.453-.982-.68-1.711-.68-.495 0-.935.11-1.321.329-.38.213-.679.523-.898.929-.214.406-.32.899-.32 1.477zM353.312 531.75c-1.015 0-1.888-.138-2.617-.414-.729-.271-1.315-.635-1.757-1.094a3.783 3.783 0 0 1-.922-1.523l2.546-.617c.115.234.282.466.5.695.219.234.514.427.883.578.375.156.847.234 1.414.234.802 0 1.467-.195 1.993-.586.526-.385.789-1.02.789-1.906v-2.273H356a4.005 4.005 0 0 1-.641.898c-.276.307-.643.565-1.101.774-.453.208-1.024.312-1.711.312-.922 0-1.758-.216-2.508-.648-.745-.438-1.338-1.089-1.781-1.953-.438-.87-.656-1.959-.656-3.266 0-1.318.218-2.43.656-3.336.443-.911 1.039-1.602 1.789-2.07a4.598 4.598 0 0 1 2.508-.711c.703 0 1.281.12 1.734.359.458.234.823.518 1.094.852.271.328.476.638.617.929h.156V515h2.789v12.195c0 1.026-.244 1.875-.734 2.547-.49.672-1.159 1.175-2.008 1.508-.849.333-1.812.5-2.891.5zm.024-7.141c.599 0 1.109-.145 1.531-.437.422-.292.742-.711.961-1.258.219-.547.328-1.203.328-1.969 0-.755-.109-1.416-.328-1.984-.213-.568-.531-1.008-.953-1.32-.417-.318-.93-.477-1.539-.477-.63 0-1.156.164-1.578.492-.422.328-.74.779-.953 1.352-.214.568-.321 1.213-.321 1.937 0 .735.107 1.378.321 1.93.218.547.539.974.961 1.281.427.302.95.453 1.57.453zM3.645 351v-16h6c1.229 0 2.26.229 3.093.688.839.458 1.472 1.088 1.899 1.89.432.797.648 1.703.648 2.719 0 1.026-.216 1.937-.648 2.734-.433.797-1.07 1.425-1.914 1.883-.844.453-1.883.68-3.118.68H5.63v-2.383h3.586c.719 0 1.307-.125 1.765-.375.459-.25.797-.594 1.016-1.031.224-.438.336-.94.336-1.508 0-.568-.112-1.068-.336-1.5a2.286 2.286 0 0 0-1.023-1.008c-.459-.245-1.05-.367-1.774-.367H6.543V351H3.645zM17.678 351v-12h2.742v2h.125c.219-.693.594-1.227 1.125-1.602a3.098 3.098 0 0 1 1.836-.57c.156 0 .33.008.523.024.198.01.362.028.492.054v2.602a2.997 2.997 0 0 0-.57-.11 5.313 5.313 0 0 0-.742-.054c-.516 0-.98.112-1.39.336a2.45 2.45 0 0 0-.962.914c-.234.39-.351.841-.351 1.351V351h-2.828zM31.14 351.234c-1.171 0-2.187-.257-3.046-.773a5.254 5.254 0 0 1-2-2.164c-.469-.927-.703-2.011-.703-3.25 0-1.24.234-2.326.703-3.258.474-.932 1.14-1.656 2-2.172.86-.515 1.875-.773 3.047-.773 1.172 0 2.187.258 3.047.773.859.516 1.523 1.24 1.992 2.172.474.932.71 2.018.71 3.258 0 1.239-.236 2.323-.71 3.25a5.203 5.203 0 0 1-1.992 2.164c-.86.516-1.876.773-3.047.773zm.016-2.265c.636 0 1.167-.175 1.594-.524.427-.354.745-.828.953-1.422.214-.593.32-1.255.32-1.984 0-.734-.106-1.398-.32-1.992-.208-.599-.526-1.076-.953-1.43-.427-.354-.958-.531-1.594-.531-.65 0-1.192.177-1.625.531-.427.354-.747.831-.96 1.43-.209.594-.313 1.258-.313 1.992 0 .729.104 1.391.312 1.984.214.594.534 1.068.961 1.422.433.349.974.524 1.625.524zM39.291 339h2.828v12.688c0 .864-.164 1.578-.492 2.14a3.02 3.02 0 0 1-1.422 1.258c-.62.276-1.372.414-2.258.414-.104 0-.2-.003-.289-.008-.088 0-.185-.002-.289-.008v-2.304c.078.005.149.008.211.008.063.005.128.007.195.007.542 0 .93-.132 1.165-.398.234-.261.351-.643.351-1.149V339zm1.406-1.703c-.453 0-.84-.149-1.164-.445a1.449 1.449 0 0 1-.476-1.086c0-.427.158-.789.476-1.086.323-.302.711-.453 1.164-.453.448 0 .831.151 1.149.453.323.297.484.659.484 1.086 0 .421-.161.783-.484 1.086-.318.296-.7.445-1.149.445zM50.34 351.234c-1.203 0-2.242-.25-3.117-.75a5.076 5.076 0 0 1-2.008-2.14c-.469-.927-.703-2.018-.703-3.274 0-1.234.234-2.317.703-3.25.474-.937 1.135-1.666 1.984-2.187.85-.526 1.847-.789 2.992-.789.74 0 1.438.12 2.094.359a4.726 4.726 0 0 1 1.75 1.094c.51.495.912 1.125 1.203 1.891.292.76.438 1.666.438 2.718v.867H45.84v-1.906h7.125a3.044 3.044 0 0 0-.352-1.445 2.559 2.559 0 0 0-.96-1.008c-.407-.245-.88-.367-1.422-.367-.579 0-1.087.141-1.524.422-.438.276-.779.64-1.023 1.093a3.15 3.15 0 0 0-.368 1.477v1.664c0 .698.128 1.297.383 1.797.255.495.612.875 1.07 1.141.459.26.995.39 1.61.39a3.41 3.41 0 0 0 1.117-.172 2.47 2.47 0 0 0 .867-.523c.245-.229.43-.513.555-.852l2.64.297a4.112 4.112 0 0 1-.953 1.828c-.463.516-1.057.917-1.78 1.203-.725.282-1.553.422-2.485.422zM63.303 351.234c-1.198 0-2.227-.263-3.086-.789a5.268 5.268 0 0 1-1.977-2.179c-.458-.933-.687-2.006-.687-3.219 0-1.219.234-2.294.703-3.227.469-.937 1.13-1.666 1.984-2.187.86-.526 1.875-.789 3.047-.789.974 0 1.836.179 2.586.539a4.417 4.417 0 0 1 1.805 1.508c.448.645.703 1.401.765 2.265H65.74a2.582 2.582 0 0 0-.781-1.445c-.406-.391-.95-.586-1.633-.586-.578 0-1.086.156-1.523.469-.438.307-.779.75-1.024 1.328-.24.578-.36 1.271-.36 2.078 0 .818.12 1.521.36 2.109.24.584.576 1.034 1.008 1.352.438.312.95.469 1.54.469.416 0 .788-.078 1.116-.235.334-.161.612-.393.836-.695.224-.302.378-.669.461-1.102h2.703c-.067.849-.317 1.602-.75 2.258a4.445 4.445 0 0 1-1.765 1.532c-.745.364-1.62.546-2.625.546zM76.758 339v2.188h-6.899V339h6.899zm-5.195-2.875h2.828v11.266c0 .38.057.672.171.875.12.198.276.333.47.406.192.073.406.109.64.109.177 0 .338-.013.484-.039.151-.026.266-.049.344-.07l.477 2.211a6.464 6.464 0 0 1-.649.172 5.319 5.319 0 0 1-1.016.109c-.708.021-1.346-.086-1.914-.32a2.981 2.981 0 0 1-1.351-1.11c-.328-.5-.49-1.125-.484-1.875v-11.734zM88.436 342.172l-2.579.281c-.073-.26-.2-.505-.382-.734a1.908 1.908 0 0 0-.72-.555c-.301-.141-.671-.211-1.108-.211-.59 0-1.084.128-1.485.383-.396.255-.591.586-.586.992a1.04 1.04 0 0 0 .383.852c.266.218.703.398 1.313.539l2.046.437c1.136.245 1.98.633 2.532 1.164.557.532.838 1.227.843 2.086a3.263 3.263 0 0 1-.664 2c-.432.573-1.034 1.021-1.804 1.344-.771.323-1.657.484-2.657.484-1.468 0-2.65-.307-3.546-.922-.896-.619-1.43-1.481-1.602-2.585l2.758-.266c.125.542.39.95.797 1.227.406.276.934.414 1.586.414.671 0 1.21-.138 1.617-.414.411-.277.617-.618.617-1.024 0-.344-.133-.628-.398-.852-.26-.223-.667-.395-1.22-.515l-2.046-.43c-1.151-.239-2.003-.643-2.555-1.211-.552-.573-.825-1.297-.82-2.172-.005-.739.195-1.38.601-1.922.412-.546.982-.968 1.711-1.265.735-.302 1.581-.453 2.54-.453 1.406 0 2.512.299 3.32.898.812.599 1.315 1.409 1.508 2.43z" fill="#F8F8F8"/>
    <path d="M240.82 132.356V118c0-8.837-7.163-16-16-16h-88c-8.836 0-16 7.163-16 16v14.356M180.82 102V54.535" stroke="#CF0" stroke-width="1.5" stroke-linecap="round" stroke-dasharray="4 4"/>
    <path d="m241.54 133.547 3.128-5.031c.374-.603.018-1.38-.628-1.5a.658.658 0 0 0-.339.043l-2.881 1.039-2.881-1.039a.655.655 0 0 0-.338-.043c-.638.118-.996.877-.64 1.479l2.963 5.032a.936.936 0 0 0 1.616.02zM121.54 133.547l3.128-5.031c.374-.603.018-1.38-.628-1.5a.658.658 0 0 0-.339.043l-2.881 1.039-2.881-1.039a.655.655 0 0 0-.338-.043c-.638.118-.996.877-.64 1.479l2.963 5.032a.936.936 0 0 0 1.616.02z" fill="#CF0"/>
    <path d="M180.82 49.5a2.5 2.5 0 1 1 0 5 2.5 2.5 0 0 1 0-5z" stroke="#CF0" stroke-width="3"/>
    <path d="M315.82 218.687v30.875c0 8.837 7.164 16 16 16h88c8.837 0 16 7.164 16 16v30.876" stroke="#CF0" stroke-width="1.5" stroke-linecap="round" stroke-dasharray="4 4"/>
    <path d="m436.54 313.253 3.128-5.032c.374-.603.018-1.38-.628-1.5a.649.649 0 0 0-.339.044l-2.881 1.038-2.881-1.038a.645.645 0 0 0-.338-.044c-.638.119-.996.877-.64 1.48l2.963 5.032a.937.937 0 0 0 1.616.02z" fill="#CF0"/>
    <path d="M315.82 214.5a2.5 2.5 0 1 1 0 5 2.5 2.5 0 0 1 0-5z" stroke="#CF0" stroke-width="3"/>
    <path d="M435.82 383.687v30.875c0 8.837-7.163 16-16 16h-88c-8.836 0-16 7.164-16 16v30.876" stroke="#CF0" stroke-width="1.5" stroke-linecap="round" stroke-dasharray="4 4"/>
    <path d="m315.101 478.253-3.128-5.032c-.375-.603-.019-1.38.628-1.5a.645.645 0 0 1 .338.044l2.881 1.038 2.881-1.038a.649.649 0 0 1 .339-.044c.637.119.995.877.64 1.48l-2.963 5.032a.937.937 0 0 1-1.616.02z" fill="#CF0"/>
    <path d="M435.82 379.5a2.5 2.5 0 1 0 0 5 2.5 2.5 0 0 0 0-5z" stroke="#CF0" stroke-width="3"/>
    <path d="M45.82 219.461V296.5" stroke="#CF0" stroke-width="1.5" stroke-linecap="round" stroke-dasharray="4 4"/>
    <path d="m46.54 298.547 3.128-5.031c.374-.603.019-1.38-.628-1.5a.656.656 0 0 0-.339.043l-2.88 1.039-2.882-1.039a.656.656 0 0 0-.338-.043c-.638.118-.995.877-.64 1.479l2.963 5.032a.937.937 0 0 0 1.616.02z" fill="#CF0"/>
    <path d="M45.82 214.5a2.5 2.5 0 1 1 0 5 2.5 2.5 0 0 1 0-5z" fill="#F8F8F8" stroke="#CF0" stroke-width="3"/>
    <path d="M45.752 383.419V505c0 8.837 7.163 16 16 16h102.415" stroke="#CF0" stroke-width="1.5" stroke-linecap="round" stroke-dasharray="4 4"/>
    <path d="m165.368 521.72-5.032 3.127c-.603.375-1.38.019-1.5-.628a.646.646 0 0 1 .044-.338l1.038-2.881-1.038-2.881a.646.646 0 0 1-.044-.338c.119-.638.877-.996 1.48-.641l5.032 2.963a.938.938 0 0 1 .02 1.617z" fill="#CF0"/>
    <path d="M45.82 379.5a2.5 2.5 0 1 0 0 5 2.5 2.5 0 0 0 0-5z" fill="#F8F8F8" stroke="#CF0" stroke-width="3"/>
</svg>
