<svg width="23" height="26" viewBox="0 0 23 26" fill="none" xmlns="http://www.w3.org/2000/svg">
<g id="Flag" clip-path="url(#clip0_1665_2596)">
<path id="Vector" fill-rule="evenodd" clip-rule="evenodd" d="M11.6847 25.6522H12.1274L11.9853 19.7419L12.3918 19.3897C14.2289 19.6105 15.8746 19.8097 17.7091 20.0351L17.2443 18.4193C17.2095 18.2813 17.2136 18.136 17.2559 18.0002C17.2983 17.8645 17.3773 17.744 17.4836 17.6528L22.8185 13.0824L21.7128 12.5336C21.2267 12.3506 21.3647 12.0639 21.5374 11.3706L22.3511 8.24796L19.2553 8.93468C18.9513 8.98324 18.7509 8.78054 18.7068 8.58785L18.3052 7.1173L15.8555 10.0114C15.5074 10.4738 14.8029 10.4738 15.0228 9.4029L16.069 3.54033L14.6657 4.30837C14.2704 4.53959 13.8782 4.57812 13.656 4.16308L11.6847 0.347961L9.71216 4.16308C9.49266 4.57735 9.09741 4.53997 8.70441 4.30914L7.30216 3.54033L8.34917 9.40213C8.56605 10.475 7.86306 10.475 7.51343 10.0114L5.06379 7.1173L4.66405 8.58708C4.61656 8.77977 4.4195 8.98208 4.11549 8.93391L1.01895 8.24796L1.8315 11.3694C2.00688 12.0631 2.14337 12.3502 1.65875 12.534L0.550781 13.0824L5.8857 17.6509C5.99339 17.7413 6.07367 17.8616 6.11702 17.9976C6.16036 18.1336 6.16495 18.2795 6.13025 18.4181L5.66246 20.0351C7.49735 19.8097 9.14266 19.6112 10.9798 19.3897L11.3863 19.7419L11.2453 25.6522H11.6847Z" fill="#FF0043"/>
</g>
<defs>
<clipPath id="clip0_1665_2596">
<rect width="22.2678" height="25.3043" fill="white" transform="translate(0.550781 0.347839)"/>
</clipPath>
</defs>
</svg>
