<svg width="321" height="41" viewBox="0 0 321 41" fill="none" xmlns="http://www.w3.org/2000/svg">
<path d="M63.2287 0.000488281H7.17305L5.67824 8.41321H44.2425L1.52596 32.3104L0 40.8855H56.0557L57.5505 32.4728H19.3548L61.7028 8.5756L63.2287 0.000488281ZM62.5177 40.8855L115.2 40.8226L116.876 31.3622H75.9451L77.1233 24.652H115.153L116.648 16.234H78.5506L79.7185 9.54993H120.644L122.378 0.000488281H69.6336L62.5177 40.8855ZM186.598 40.8855L239.28 40.8226L240.956 31.3622H200.031L201.172 24.652H239.218L240.712 16.234H202.631L203.794 9.54993H244.725L246.453 0.000488281H193.714L186.598 40.8855ZM158.274 0.000488281H129.842L128.181 9.54993H173.056L169.231 31.3622H136.153L139.215 13.6358L127.049 16.0769L122.726 40.9117L150.997 40.8488C178.299 40.8488 179.492 40.0893 182.913 20.4194C184.537 11.0533 185.056 6.34932 182.809 3.65683C180.1 0.340978 173.248 0.000488281 158.274 0.000488281ZM306.054 2.65107C304.18 0.398598 299.856 0.000488281 291.458 0.000488281H253.984L252.308 9.54993H295.637L293.586 21.3676H262.014L263.358 13.6044L251.166 16.0507L246.806 40.8855H258.562L260.337 30.9327H291.931L290.213 40.8855H301.912L302.431 37.7949C304.092 28.1983 302.856 27.4911 299.872 25.7887L299.104 25.3487L299.908 24.9872C303.412 23.4157 305.27 21.5718 306.334 15.3487C307.507 8.74323 307.803 4.76211 306.054 2.65107Z" fill="white"/>
<path d="M317.487 5.00843C317.697 4.89414 317.876 4.72844 318.006 4.52651C318.144 4.30192 318.214 4.04165 318.208 3.77743C318.217 3.5186 318.148 3.26321 318.011 3.04406C317.88 2.85039 317.701 2.69499 317.492 2.59357C317.3 2.49301 317.086 2.44089 316.869 2.44166H314.84V6.70564H315.582V5.17082H316.739L317.534 6.7004H318.359L317.456 5.00319L317.487 5.00843ZM315.603 3.02311H316.641C316.828 3.02119 317.011 3.08198 317.16 3.19597C317.241 3.2677 317.304 3.35782 317.344 3.45892C317.383 3.56001 317.399 3.66918 317.388 3.77743C317.395 3.88846 317.378 3.99966 317.339 4.10355C317.299 4.20745 317.238 4.30165 317.16 4.37983C317.019 4.51343 316.834 4.58831 316.641 4.58937H315.603V3.02311Z" fill="white"/>
<path d="M320.649 2.82937C320.182 1.71693 319.306 0.830645 318.204 0.356886C317.063 -0.118962 315.781 -0.118962 314.639 0.356886C314.094 0.591096 313.599 0.929004 313.18 1.35216C312.759 1.77492 312.424 2.27675 312.194 2.82937C311.958 3.39834 311.836 4.00914 311.836 4.62611C311.836 5.24308 311.958 5.85387 312.194 6.42285C312.424 6.97547 312.759 7.4773 313.18 7.90005C313.599 8.32164 314.094 8.65779 314.639 8.89009C315.203 9.12853 315.809 9.25132 316.422 9.25132C317.034 9.25132 317.64 9.12853 318.204 8.89009C319.307 8.42036 320.184 7.53518 320.649 6.42285C321.119 5.27199 321.119 3.98022 320.649 2.82937ZM319.647 6.49618C319.319 7.05809 318.855 7.5267 318.298 7.85815C317.728 8.19106 317.08 8.36636 316.422 8.36636C315.763 8.36636 315.116 8.19106 314.545 7.85815C313.987 7.52817 313.523 7.05923 313.196 6.49618C312.866 5.92062 312.692 5.26745 312.692 4.60254C312.692 3.93762 312.866 3.28445 313.196 2.70889C313.526 2.1481 313.99 1.67981 314.545 1.34693C315.116 1.01401 315.763 0.838712 316.422 0.838712C317.08 0.838712 317.728 1.01401 318.298 1.34693C318.853 1.68122 319.316 2.14919 319.647 2.70889C319.977 3.28445 320.151 3.93762 320.151 4.60254C320.151 5.26745 319.977 5.92062 319.647 6.49618Z" fill="white"/>
</svg>
