<svg width="217" height="216" viewBox="0 0 217 216" fill="none" xmlns="http://www.w3.org/2000/svg">
<g id="Group 808">
<path id="Vector" d="M64.1385 214L2.04297 151.904V64.0956L64.1385 2H151.947L214.043 64.0956V151.904L151.947 214H64.1385Z" fill="white" stroke="black" stroke-width="4" stroke-miterlimit="10"/>
<path id="Vector_2" d="M147.486 12.7767H68.6007L12.8203 68.5571V147.443L68.6007 203.223H147.486L203.267 147.443V68.5571L147.486 12.7767Z" fill="#FF0043"/>
<path id="Vector_3" d="M39.6384 138.972C36.7366 135.37 35.2976 130.807 35.6079 126.191V122.247H45.8027V127.01C45.8027 131.45 47.6778 133.67 51.4066 133.67C52.1761 133.722 52.9476 133.604 53.6665 133.325C54.3854 133.046 55.034 132.612 55.5664 132.054C56.6486 130.533 57.153 128.676 56.9889 126.816C57.0487 124.148 56.3699 121.515 55.0276 119.208C53.0091 116.234 50.5614 113.576 47.7641 111.319C44.1018 108.3 40.9568 104.704 38.453 100.672C36.6437 97.3726 35.7297 93.6572 35.8019 89.8951C35.5144 85.3208 36.9873 80.8097 39.9186 77.2863C41.482 75.7368 43.3572 74.5376 45.4196 73.7684C47.482 72.9992 49.6845 72.6775 51.8808 72.8248C54.0422 72.6693 56.2115 72.988 58.2368 73.7587C60.2621 74.5294 62.0945 75.7333 63.6059 77.2863C66.471 80.9138 67.8846 85.4772 67.5717 90.0891V92.9342H57.3769V89.3994C57.5121 87.5663 57.0012 85.7438 55.9328 84.2481C55.431 83.6922 54.8093 83.2577 54.1147 82.9777C53.4202 82.6976 52.671 82.5792 51.9239 82.6316C48.3244 82.6316 46.5355 84.7869 46.5355 89.2054C46.5267 91.6696 47.2222 94.085 48.54 96.1672C50.6182 99.1209 53.1076 101.763 55.9328 104.013C59.6456 107.03 62.7975 110.678 65.2439 114.789C67.0084 118.28 67.8822 122.152 67.7872 126.062C68.098 130.745 66.6103 135.37 63.6274 138.994C62.0465 140.565 60.1476 141.78 58.0584 142.557C55.9692 143.334 53.7379 143.655 51.5144 143.499C49.3247 143.654 47.1277 143.329 45.0765 142.547C43.0254 141.765 41.1695 140.545 39.6384 138.972Z" fill="white"/>
<path id="Vector_4" d="M82.3743 83.6231H71.0156V73.8162H104.445V83.6231H93.1726V142.464H82.3959L82.3743 83.6231Z" fill="white"/>
<path id="Vector_5" d="M112.68 138.929C109.692 135.382 108.186 130.82 108.477 126.191V90.089C108.202 85.4886 109.707 80.9587 112.68 77.4371C114.273 75.8448 116.186 74.61 118.293 73.8147C120.401 73.0194 122.653 72.6819 124.901 72.8247C127.131 72.696 129.363 73.0405 131.45 73.8354C133.538 74.6303 135.434 75.8578 137.014 77.4371C140.008 80.9807 141.514 85.5457 141.217 90.1752V126.191C141.507 130.82 140.002 135.382 137.014 138.929C135.425 140.49 133.525 141.699 131.438 142.475C129.351 143.251 127.123 143.578 124.901 143.434C122.661 143.592 120.413 143.272 118.306 142.496C116.199 141.719 114.281 140.503 112.68 138.929ZM130.44 126.859V89.3993C130.44 84.8946 128.565 82.6315 124.857 82.6315C121.15 82.6315 119.254 84.8946 119.254 89.3993V126.859C119.254 131.385 121.129 133.627 124.857 133.627C128.586 133.627 130.44 131.321 130.44 126.859Z" fill="white"/>
<path id="Vector_6" d="M148.477 73.8162H164.361C166.563 73.6502 168.775 73.9482 170.854 74.6907C172.933 75.4332 174.833 76.6039 176.431 78.1269C179.333 81.6784 180.767 86.2045 180.44 90.7788V97.5466C180.767 102.121 179.333 106.647 176.431 110.198C174.833 111.721 172.933 112.892 170.854 113.635C168.775 114.377 166.563 114.675 164.361 114.509H159.253V142.529H148.477V73.8162ZM164.361 104.702C165.084 104.765 165.812 104.673 166.496 104.431C167.18 104.189 167.804 103.804 168.327 103.301C169.354 101.847 169.828 100.074 169.664 98.3009V90.0891C169.828 88.3163 169.354 86.5433 168.327 85.0887C167.81 84.5743 167.188 84.1772 166.504 83.9243C165.82 83.6714 165.089 83.5686 164.361 83.623H159.253V104.702H164.361Z" fill="white"/>
</g>
</svg>
