<svg width="210" height="212" viewBox="0 0 210 212" fill="none" xmlns="http://www.w3.org/2000/svg">
<g id="Group 806">
<path id="Vector" d="M210 66.5763V145.397C209.999 148.27 208.868 151.025 206.857 153.058L151.647 208.814C150.649 209.823 149.464 210.624 148.159 211.171C146.855 211.718 145.456 211.999 144.043 212H65.9567C63.1102 211.986 60.3836 210.841 58.367 208.814L48.9638 199.39L12.466 162.454L3.15689 153.058C2.05852 151.955 1.21457 150.622 0.685194 149.153C0.226681 147.955 -0.00568185 146.681 0.000105501 145.397V66.5763C0.000759017 65.1504 0.279906 63.7386 0.821577 62.4218C1.36325 61.1049 2.15682 59.9087 3.15689 58.9017L58.367 3.17288C60.3808 1.14243 63.1104 0.00133154 65.9567 0L144.043 0C146.829 0.00781491 149.505 1.1007 151.512 3.05085L151.647 3.17288L160.969 12.6644L197.467 49.478L206.87 58.9695C207.948 60.0649 208.777 61.3834 209.301 62.8339C209.758 64.028 209.995 65.2963 210 66.5763Z" fill="#FF0043"/>
<path id="Vector_2" d="M161 12.8615L12.76 162L3.46731 152.648C2.37089 151.551 1.52844 150.224 1 148.762L147.819 1C149.218 1.51172 150.493 2.31664 151.56 3.3615L161 12.8615Z" fill="#F8EA21"/>
<path id="Vector_3" d="M210 62.3326L62.2717 211C60.8339 210.468 59.5272 209.63 58.4412 208.543L49 199.107L198.104 49L207.545 58.5039C208.627 59.5876 209.465 60.8935 210 62.3326Z" fill="#F8EA21"/>
<path id="Vector_4" d="M12 162.243L48.7544 199L198 49.7301L161.273 13L12 162.243Z" fill="#101010"/>
</g>
</svg>
