<svg width="352" height="270" viewBox="0 0 352 270" fill="none" xmlns="http://www.w3.org/2000/svg">
<path d="M13.9517 226.455H16.1534V236.021C16.1534 237.039 15.9143 237.941 15.4361 238.727C14.9579 239.509 14.2855 240.124 13.419 240.574C12.5526 241.019 11.5369 241.241 10.3722 241.241C9.21212 241.241 8.19886 241.019 7.33239 240.574C6.46591 240.124 5.79356 239.509 5.31534 238.727C4.83712 237.941 4.59801 237.039 4.59801 236.021V226.455H6.79261V235.844C6.79261 236.502 6.93703 237.087 7.22585 237.598C7.51941 238.109 7.93371 238.512 8.46875 238.805C9.00379 239.094 9.63826 239.239 10.3722 239.239C11.1108 239.239 11.7476 239.094 12.2827 238.805C12.8224 238.512 13.2344 238.109 13.5185 237.598C13.8073 237.087 13.9517 236.502 13.9517 235.844V226.455ZM20.3441 241V226.455H22.5387V239.111H29.1296V241H20.3441ZM30.0213 228.344V226.455H41.2784V228.344H36.7401V241H34.5526V228.344H30.0213ZM46.9606 226.455V241H44.766V226.455H46.9606ZM51.1566 226.455H53.82L58.4506 237.761H58.6211L63.2518 226.455H65.9151V241H63.8271V230.474H63.6921L59.4023 240.979H57.6694L53.3796 230.467H53.2447V241H51.1566V226.455ZM71.3345 241H69.005L74.2393 226.455H76.7749L82.0092 241H79.6797L75.5675 229.097H75.4538L71.3345 241ZM71.7251 235.304H79.282V237.151H71.7251V235.304ZM82.6737 228.344V226.455H93.9308V228.344H89.3924V241H87.2049V228.344H82.6737ZM97.4183 241V226.455H106.538V228.344H99.6129V232.776H106.062V234.658H99.6129V239.111H106.623V241H97.4183ZM118.033 226.455L122.082 238.301H122.245L126.293 226.455H128.665L123.431 241H120.896L115.661 226.455H118.033ZM131.766 241V226.455H140.885V228.344H133.961V232.776H140.409V234.658H133.961V239.111H140.971V241H131.766ZM144.817 241V226.455H147.011V232.776H154.263V226.455H156.464V241H154.263V234.658H147.011V241H144.817ZM162.855 226.455V241H160.661V226.455H162.855ZM179.132 231.185H176.916C176.831 230.711 176.672 230.295 176.44 229.935C176.208 229.575 175.924 229.269 175.588 229.018C175.252 228.768 174.875 228.578 174.459 228.45C174.047 228.322 173.609 228.259 173.145 228.259C172.307 228.259 171.556 228.469 170.893 228.891C170.235 229.312 169.714 229.93 169.331 230.744C168.952 231.559 168.763 232.553 168.763 233.727C168.763 234.911 168.952 235.91 169.331 236.724C169.714 237.539 170.238 238.154 170.901 238.571C171.563 238.988 172.309 239.196 173.138 239.196C173.597 239.196 174.033 239.134 174.445 239.011C174.861 238.884 175.238 238.696 175.574 238.45C175.91 238.204 176.194 237.903 176.426 237.548C176.663 237.188 176.826 236.777 176.916 236.312L179.132 236.32C179.014 237.035 178.784 237.693 178.443 238.294C178.107 238.891 177.674 239.407 177.143 239.842C176.618 240.273 176.017 240.607 175.339 240.844C174.662 241.08 173.924 241.199 173.124 241.199C171.864 241.199 170.742 240.901 169.757 240.304C168.772 239.703 167.996 238.843 167.428 237.726C166.864 236.608 166.582 235.276 166.582 233.727C166.582 232.174 166.866 230.841 167.435 229.729C168.003 228.611 168.779 227.754 169.764 227.158C170.749 226.556 171.869 226.256 173.124 226.256C173.895 226.256 174.615 226.367 175.283 226.589C175.955 226.807 176.559 227.129 177.094 227.555C177.629 227.977 178.071 228.493 178.422 229.104C178.772 229.71 179.009 230.403 179.132 231.185ZM182.758 241V226.455H184.953V239.111H191.544V241H182.758ZM195.047 241V226.455H204.167V228.344H197.242V232.776H203.691V234.658H197.242V239.111H204.252V241H195.047ZM213.674 228.344V226.455H224.931V228.344H220.392V241H218.205V228.344H213.674ZM228.418 241V226.455H230.613V232.776H237.864V226.455H240.066V241H237.864V234.658H230.613V241H228.418ZM244.262 241V226.455H253.381V228.344H246.457V232.776H252.906V234.658H246.457V239.111H253.467V241H244.262ZM257.313 241V226.455H266.333V228.344H259.507V232.776H265.686V234.658H259.507V241H257.313ZM269.314 228.344V226.455H280.571V228.344H276.033V241H273.846V228.344H269.314ZM4.59801 269V254.455H9.78267C10.9143 254.455 11.8518 254.661 12.5952 255.072C13.3385 255.484 13.8949 256.048 14.2642 256.763C14.6335 257.473 14.8182 258.273 14.8182 259.163C14.8182 260.058 14.6312 260.863 14.2571 261.578C13.8878 262.288 13.3291 262.852 12.581 263.268C11.8376 263.68 10.9025 263.886 9.77557 263.886H6.21023V262.026H9.5767C10.2917 262.026 10.8717 261.902 11.3168 261.656C11.7618 261.405 12.0885 261.064 12.2969 260.634C12.5052 260.203 12.6094 259.713 12.6094 259.163C12.6094 258.614 12.5052 258.126 12.2969 257.7C12.0885 257.274 11.7595 256.94 11.3097 256.699C10.8646 256.457 10.2775 256.337 9.5483 256.337H6.79261V269H4.59801ZM18.391 269V254.455H23.5756C24.7025 254.455 25.6377 254.649 26.381 255.037C27.1291 255.425 27.6879 255.963 28.0572 256.649C28.4265 257.331 28.6112 258.119 28.6112 259.014C28.6112 259.904 28.4241 260.688 28.0501 261.365C27.6808 262.037 27.122 262.561 26.3739 262.935C25.6306 263.309 24.6954 263.496 23.5685 263.496H19.641V261.607H23.3697C24.0799 261.607 24.6576 261.505 25.1026 261.301C25.5524 261.098 25.8815 260.802 26.0898 260.413C26.2982 260.025 26.4023 259.559 26.4023 259.014C26.4023 258.465 26.2958 257.989 26.0827 257.587C25.8744 257.184 25.5453 256.876 25.0955 256.663C24.6504 256.446 24.0657 256.337 23.3413 256.337H20.5856V269H18.391ZM25.5714 262.438L29.1651 269H26.6651L23.1424 262.438H25.5714ZM44.9165 261.727C44.9165 263.28 44.6325 264.616 44.0643 265.733C43.4961 266.846 42.7172 267.703 41.7276 268.304C40.7428 268.901 39.623 269.199 38.3683 269.199C37.1088 269.199 35.9843 268.901 34.9947 268.304C34.0098 267.703 33.2333 266.843 32.6651 265.726C32.0969 264.608 31.8129 263.276 31.8129 261.727C31.8129 260.174 32.0969 258.841 32.6651 257.729C33.2333 256.611 34.0098 255.754 34.9947 255.158C35.9843 254.556 37.1088 254.256 38.3683 254.256C39.623 254.256 40.7428 254.556 41.7276 255.158C42.7172 255.754 43.4961 256.611 44.0643 257.729C44.6325 258.841 44.9165 260.174 44.9165 261.727ZM42.7433 261.727C42.7433 260.544 42.5515 259.547 42.168 258.737C41.7892 257.923 41.2683 257.307 40.6055 256.891C39.9473 256.469 39.2016 256.259 38.3683 256.259C37.5302 256.259 36.7821 256.469 36.1239 256.891C35.4658 257.307 34.945 257.923 34.5614 258.737C34.1826 259.547 33.9933 260.544 33.9933 261.727C33.9933 262.911 34.1826 263.91 34.5614 264.724C34.945 265.534 35.4658 266.15 36.1239 266.571C36.7821 266.988 37.5302 267.196 38.3683 267.196C39.2016 267.196 39.9473 266.988 40.6055 266.571C41.2683 266.15 41.7892 265.534 42.168 264.724C42.5515 263.91 42.7433 262.911 42.7433 261.727ZM47.3104 256.344V254.455H58.5675V256.344H54.0291V269H51.8416V256.344H47.3104ZM62.055 269V254.455H71.1744V256.344H64.2496V260.776H70.6985V262.658H64.2496V267.111H71.2596V269H62.055ZM87.1868 259.185H84.9709C84.8857 258.711 84.727 258.295 84.495 257.935C84.263 257.575 83.9789 257.269 83.6428 257.018C83.3066 256.768 82.9302 256.578 82.5135 256.45C82.1016 256.322 81.6636 256.259 81.1996 256.259C80.3615 256.259 79.611 256.469 78.9482 256.891C78.29 257.312 77.7692 257.93 77.3857 258.744C77.0069 259.559 76.8175 260.553 76.8175 261.727C76.8175 262.911 77.0069 263.91 77.3857 264.724C77.7692 265.539 78.2924 266.154 78.9553 266.571C79.6181 266.988 80.3639 267.196 81.1925 267.196C81.6518 267.196 82.0874 267.134 82.4993 267.011C82.916 266.884 83.2924 266.696 83.6286 266.45C83.9647 266.204 84.2488 265.903 84.4808 265.548C84.7176 265.188 84.8809 264.777 84.9709 264.312L87.1868 264.32C87.0684 265.035 86.8388 265.693 86.4979 266.294C86.1617 266.891 85.7285 267.407 85.1982 267.842C84.6726 268.273 84.0713 268.607 83.3942 268.844C82.7171 269.08 81.9785 269.199 81.1783 269.199C79.9188 269.199 78.7966 268.901 77.8118 268.304C76.8269 267.703 76.0504 266.843 75.4822 265.726C74.9188 264.608 74.6371 263.276 74.6371 261.727C74.6371 260.174 74.9212 258.841 75.4893 257.729C76.0575 256.611 76.834 255.754 77.8189 255.158C78.8037 254.556 79.9235 254.256 81.1783 254.256C81.95 254.256 82.6697 254.367 83.3374 254.589C84.0097 254.807 84.6134 255.129 85.1484 255.555C85.6835 255.977 86.1262 256.493 86.4766 257.104C86.8269 257.71 87.0637 258.403 87.1868 259.185ZM90.0955 256.344V254.455H101.353V256.344H96.8143V269H94.6268V256.344H90.0955ZM107.035 254.455V269H104.84V254.455H107.035ZM123.866 261.727C123.866 263.28 123.582 264.616 123.013 265.733C122.445 266.846 121.666 267.703 120.677 268.304C119.692 268.901 118.572 269.199 117.317 269.199C116.058 269.199 114.933 268.901 113.944 268.304C112.959 267.703 112.183 266.843 111.614 265.726C111.046 264.608 110.762 263.276 110.762 261.727C110.762 260.174 111.046 258.841 111.614 257.729C112.183 256.611 112.959 255.754 113.944 255.158C114.933 254.556 116.058 254.256 117.317 254.256C118.572 254.256 119.692 254.556 120.677 255.158C121.666 255.754 122.445 256.611 123.013 257.729C123.582 258.841 123.866 260.174 123.866 261.727ZM121.692 261.727C121.692 260.544 121.501 259.547 121.117 258.737C120.738 257.923 120.218 257.307 119.555 256.891C118.897 256.469 118.151 256.259 117.317 256.259C116.479 256.259 115.731 256.469 115.073 256.891C114.415 257.307 113.894 257.923 113.511 258.737C113.132 259.547 112.942 260.544 112.942 261.727C112.942 262.911 113.132 263.91 113.511 264.724C113.894 265.534 114.415 266.15 115.073 266.571C115.731 266.988 116.479 267.196 117.317 267.196C118.151 267.196 118.897 266.988 119.555 266.571C120.218 266.15 120.738 265.534 121.117 264.724C121.501 263.91 121.692 262.911 121.692 261.727ZM139.342 254.455V269H137.325L129.931 258.332H129.797V269H127.602V254.455H129.633L137.034 265.136H137.169V254.455H139.342Z" fill="white"/>
<path d="M37.3 11.8C35.15 11.8 31.3 11.8 28.85 11.8C29.6 7.45 27.65 6.45 22.4 6.45C17.15 6.45 14.9 7.45 14.4 10.05C13.9 12.9 15.3 13.95 20.95 15.05C32.95 17.35 36.6 19.2 35.4 26.1C33.9 34.6 29.55 36.85 17.05 36.85C3.7 36.85 1.25 34.4 2.85 25.2C5 25.2 9.45 25.2 11.9 25.2C11.15 29.65 12.95 30.6 18.15 30.6C23.35 30.6 25.7 29.65 26.15 26.95C26.75 23.7 24.85 22.9 19.65 21.95C8.55 20 4.45 18.55 5.8 10.9C7.2 3.05 11 0.199999 23.5 0.199999C36.1 0.199999 38.85 2.95 37.3 11.8ZM40.6645 1.05H75.3145L74.2145 7.45H61.4145L56.4145 36H47.5145L52.5645 7.45H39.5645L40.6645 1.05ZM106.644 7.45H84.8941L83.4941 15.6H104.044L102.994 21.35H82.4441L80.9941 29.65H102.694L101.594 36H70.9441L77.0941 1.05H107.744L106.644 7.45ZM140.531 7.45H118.781L117.381 15.6H137.931L136.881 21.35H116.331L114.881 29.65H136.581L135.481 36H104.831L110.981 1.05H141.631L140.531 7.45ZM148.718 29.65H170.218L169.118 36H138.718L144.868 1.05H153.718L148.718 29.65ZM37.3 66.8C35.15 66.8 31.3 66.8 28.85 66.8C29.6 62.45 27.65 61.45 22.4 61.45C17.15 61.45 14.9 62.45 14.4 65.05C13.9 67.9 15.3 68.95 20.95 70.05C32.95 72.35 36.6 74.2 35.4 81.1C33.9 89.6 29.55 91.85 17.05 91.85C3.7 91.85 1.25 89.4 2.85 80.2C5 80.2 9.45 80.2 11.9 80.2C11.15 84.65 12.95 85.6 18.15 85.6C23.35 85.6 25.7 84.65 26.15 81.95C26.75 78.7 24.85 77.9 19.65 76.95C8.55 75 4.45 73.55 5.8 65.9C7.2 58.05 11 55.2 23.5 55.2C36.1 55.2 38.85 57.95 37.3 66.8ZM40.6645 56.05H75.3145L74.2145 62.45H61.4145L56.4145 91H47.5145L52.5645 62.45H39.5645L40.6645 56.05ZM106.944 69.3C105.694 76.45 103.744 79.8 99.8441 81.35L103.244 91H93.3941L90.6441 82.55C90.2941 82.55 89.9941 82.55 89.6441 82.55H81.2941L79.7941 91H70.9441L77.0941 56.05H94.2941C105.644 56.05 109.044 57.55 106.944 69.3ZM84.8441 62.45L82.4941 75.6H89.7441C94.3941 75.6 97.0941 75 98.0941 69.3C99.0941 63.55 96.7441 62.45 92.0941 62.45H84.8441ZM142.093 62.45H120.343L118.943 70.6H139.493L138.443 76.35H117.893L116.443 84.65H138.143L137.043 91H106.393L112.543 56.05H143.193L142.093 62.45ZM172.13 56.05H180.48L174.33 91H166.08L152.58 68.45L148.63 91H140.28L146.43 56.05H154.68L168.18 78.6L172.13 56.05ZM199.715 61.45C193.365 61.45 191.265 65 189.765 73.55C188.265 82.05 188.615 85.6 195.465 85.6C202.315 85.6 203.765 82.65 204.715 77.05H195.065L196.065 71.35H214.865C214.715 72.15 214.715 72.3 214.565 73.2C212.415 85.25 209.615 91.85 194.365 91.85C179.115 91.85 178.565 85.6 180.665 73.55C182.815 61.45 185.365 55.2 200.815 55.2C216.315 55.2 215.915 61.45 215.715 65.95H206.265C206.215 63.65 205.415 61.45 199.715 61.45ZM218.545 56.05H253.195L252.095 62.45H239.295L234.295 91H225.395L230.445 62.45H217.445L218.545 56.05ZM279.225 56.05H288.125L281.925 91H273.075L275.675 76.4H260.275L257.675 91H248.825L254.975 56.05H263.825L261.275 70.7H276.675L279.225 56.05ZM286.381 83.35H296.331L294.981 91H284.981L286.381 83.35Z" fill="white"/>
<path d="M41.6 111.05L40.7 116.15L14.5 139.65H36.55L35.4 146V146.05L0.45 146L1.25 141.5L27.45 117.45H5.5L6.6 111.05H41.6ZM73.734 117.45H51.984L50.584 125.6H71.134L70.084 131.35H49.534L48.084 139.65H69.784L68.684 146H38.034L44.184 111.05H74.834L73.734 117.45ZM91.2707 111.05C106.521 111.05 112.721 111 109.671 128.55C106.571 146.05 100.371 146 85.1207 146H71.9207L78.0707 111.05H91.2707ZM100.621 128.55C102.471 118.15 100.621 117.45 93.6707 117.45H85.9707L82.0707 139.65H89.7707C96.6707 139.65 98.7707 138.9 100.621 128.55ZM145.463 117.45H123.713L122.313 125.6H142.863L141.813 131.35H121.263L119.813 139.65H141.513L140.413 146H109.762L115.913 111.05H146.563L145.463 117.45ZM179.649 124.3C178.399 131.45 176.449 134.8 172.549 136.35L175.949 146H166.099L163.349 137.55C162.999 137.55 162.699 137.55 162.349 137.55H153.999L152.499 146H143.649L149.799 111.05H166.999C178.349 111.05 181.749 112.55 179.649 124.3ZM157.549 117.45L155.199 130.6H162.449C167.099 130.6 169.799 130 170.799 124.3C171.799 118.55 169.449 117.45 164.799 117.45H157.549ZM39.15 177.3H29.9C30.25 173.15 28.75 171.45 23.35 171.45C17.95 171.45 15.1 173.6 13.35 183.55C11.6 193.45 13.4 195.6 19.1 195.6C24.75 195.6 26.75 193.65 27.75 189.75H36.95C35.65 197.1 33.2 201.85 18 201.85C2.75 201.85 1.9 197.1 4.3 183.55C6.65 170.3 9.5 165.2 24.45 165.2C39.4 165.2 40.35 170.6 39.15 177.3ZM61.1363 165.2C77.1363 165.2 78.0363 169.25 75.5363 183.55C72.9863 197.85 70.7863 201.85 54.6863 201.85C38.5363 201.85 37.7863 197.8 40.2863 183.55C42.8363 169.25 45.1363 165.2 61.1363 165.2ZM65.0363 183.55C66.4863 175.5 67.1863 171.45 60.0363 171.45C52.8863 171.45 52.1863 175.45 50.7863 183.55C49.3363 191.6 48.6363 195.6 55.7863 195.6C62.9363 195.6 63.6363 191.6 65.0363 183.55ZM107.677 166.05H116.027L109.877 201H101.627L88.127 178.45L84.177 201H75.827L81.977 166.05H90.227L103.727 188.6L107.677 166.05ZM148.162 172.45H127.862L126.412 180.7H144.212L143.212 186.4H125.412L122.812 201H113.962L120.112 166.05H149.262L148.162 172.45ZM151.557 166.05H160.407L154.257 201H145.407L151.557 166.05ZM177.696 166.05C192.946 166.05 199.146 166 196.096 183.55C192.996 201.05 186.796 201 171.546 201H158.346L164.496 166.05H177.696ZM187.046 183.55C188.896 173.15 187.046 172.45 180.096 172.45H172.396L168.496 194.65H176.196C183.096 194.65 185.196 193.9 187.046 183.55ZM231.888 172.45H210.138L208.738 180.6H229.288L228.238 186.35H207.688L206.238 194.65H227.938L226.838 201H196.188L202.338 166.05H232.988L231.888 172.45ZM261.925 166.05H270.275L264.125 201H255.875L242.375 178.45L238.425 201H230.075L236.225 166.05H244.475L257.975 188.6L261.925 166.05ZM305.41 177.3H296.16C296.51 173.15 295.01 171.45 289.61 171.45C284.21 171.45 281.36 173.6 279.61 183.55C277.86 193.45 279.66 195.6 285.36 195.6C291.01 195.6 293.01 193.65 294.01 189.75H303.21C301.91 197.1 299.46 201.85 284.26 201.85C269.01 201.85 268.16 197.1 270.56 183.55C272.91 170.3 275.76 165.2 290.71 165.2C305.66 165.2 306.61 170.6 305.41 177.3ZM339.896 172.45H318.146L316.746 180.6H337.296L336.246 186.35H315.696L314.246 194.65H335.946L334.846 201H304.196L310.346 166.05H340.996L339.896 172.45ZM338.383 193.35H348.333L346.983 201H336.983L338.383 193.35Z" fill="#F8EA21"/>
</svg>
