<svg width="402" height="78" viewBox="0 0 402 78" fill="none" xmlns="http://www.w3.org/2000/svg">
<g clip-path="url(#clip0_1655_1747)">
<path d="M156.692 19.4889H103.346L101.923 27.4876H138.623L97.9717 50.2088L96.5195 58.3619H149.865L151.288 50.3632H114.939L155.239 27.642L156.692 19.4889ZM156.015 58.3619L206.15 58.3021L207.745 49.3073H168.793L169.914 42.9272H206.106L207.528 34.9235H171.273L172.384 28.5684H211.332L212.981 19.4889H162.787L156.015 58.3619ZM274.097 58.3619L324.232 58.3021L325.827 49.3073H286.88L287.967 42.9272H324.173L325.595 34.9235H289.355L290.461 28.5684H329.413L331.058 19.4889H280.869L274.097 58.3619ZM247.142 19.4889H220.084L218.504 28.5684H261.21L257.569 49.3073H226.091L229.005 32.4532L217.427 34.7741L213.312 58.3868L240.217 58.327C266.199 58.327 267.335 57.6048 270.59 38.903C272.136 29.9978 272.63 25.5253 270.491 22.9653C267.913 19.8126 261.393 19.4889 247.142 19.4889ZM387.778 22.009C385.995 19.8674 381.88 19.4889 373.888 19.4889H338.225L336.63 28.5684H377.864L375.913 39.8044H345.867L347.146 32.4233L335.543 34.7492L331.394 58.3619H342.582L344.271 48.8989H374.337L372.703 58.3619H383.836L384.33 55.4234C385.911 46.2991 384.735 45.6267 381.895 44.008L381.164 43.5896L381.929 43.246C385.263 41.7518 387.032 39.9987 388.044 34.0818C389.161 27.8014 389.442 24.0162 387.778 22.009Z" fill="#101010"/>
<path d="M398.66 24.2503C398.86 24.1416 399.03 23.9841 399.154 23.7921C399.285 23.5785 399.352 23.3311 399.346 23.0799C399.354 22.8338 399.289 22.5909 399.159 22.3826C399.034 22.1984 398.864 22.0507 398.665 21.9543C398.482 21.8586 398.278 21.8091 398.072 21.8098H396.141V25.864H396.847V24.4047H397.948L398.704 25.859H399.49L398.63 24.2453L398.66 24.2503ZM396.867 22.3627H397.855C398.033 22.3608 398.206 22.4186 398.349 22.527C398.426 22.5952 398.486 22.6809 398.523 22.777C398.561 22.8731 398.576 22.9769 398.566 23.0799C398.572 23.1854 398.556 23.2911 398.519 23.3899C398.481 23.4887 398.423 23.5783 398.349 23.6526C398.215 23.7796 398.038 23.8508 397.855 23.8518H396.867V22.3627Z" fill="#101010"/>
<path d="M401.665 22.1784C401.22 21.1207 400.386 20.278 399.338 19.8276C398.251 19.3752 397.031 19.3752 395.945 19.8276C395.426 20.0503 394.955 20.3716 394.557 20.7739C394.156 21.1759 393.837 21.653 393.618 22.1784C393.393 22.7194 393.277 23.3001 393.277 23.8867C393.277 24.4733 393.393 25.0541 393.618 25.5951C393.837 26.1205 394.156 26.5976 394.557 26.9996C394.955 27.4004 395.426 27.72 395.945 27.9409C396.482 28.1676 397.059 28.2843 397.641 28.2843C398.224 28.2843 398.801 28.1676 399.338 27.9409C400.387 27.4943 401.222 26.6526 401.665 25.5951C402.112 24.5008 402.112 23.2726 401.665 22.1784ZM400.711 25.6648C400.399 26.199 399.957 26.6446 399.427 26.9597C398.884 27.2763 398.268 27.4429 397.641 27.4429C397.014 27.4429 396.398 27.2763 395.856 26.9597C395.325 26.646 394.883 26.2001 394.572 25.6648C394.258 25.1175 394.092 24.4965 394.092 23.8643C394.092 23.2321 394.258 22.6111 394.572 22.0639C394.885 21.5307 395.327 21.0854 395.856 20.7689C396.398 20.4524 397.014 20.2857 397.641 20.2857C398.268 20.2857 398.884 20.4524 399.427 20.7689C399.955 21.0868 400.396 21.5317 400.711 22.0639C401.025 22.6111 401.19 23.2321 401.19 23.8643C401.19 24.4965 401.025 25.1175 400.711 25.6648Z" fill="#101010"/>
<path d="M77.2181 24.4544V53.4062C77.2176 54.4615 76.8019 55.4735 76.0622 56.2202L55.7612 76.7001C55.3944 77.0709 54.9586 77.3651 54.4789 77.5659C53.9992 77.7668 53.4849 77.8703 52.9655 77.8705H24.2526C23.2059 77.8655 22.2033 77.445 21.4618 76.7001L18.0042 73.2386L4.58382 59.6717L1.1608 56.2202C0.756928 55.8152 0.446604 55.3255 0.251949 54.7858C0.0833518 54.3458 -0.00208924 53.8779 3.87934e-05 53.4062V24.4544C0.000279094 23.9306 0.102923 23.4121 0.302098 22.9284C0.501274 22.4447 0.793073 22.0053 1.1608 21.6354L21.4618 1.16544C22.2023 0.41963 23.206 0.000489092 24.2526 0L52.9655 0C53.9899 0.00287052 54.9737 0.404304 55.7118 1.12062L55.7612 1.16544L59.1892 4.65181L72.6096 18.1739L76.0672 21.6603C76.4635 22.0627 76.7685 22.547 76.9612 23.0798C77.1291 23.5184 77.2162 23.9842 77.2181 24.4544Z" fill="#FF0043"/>
<path d="M59.1872 4.62691L4.58187 59.6717L1.15885 56.2202C0.754978 55.8152 0.444655 55.3255 0.25 54.7858L54.3317 0.249023C54.8471 0.437892 55.3169 0.734977 55.7099 1.12062L59.1872 4.62691Z" fill="#F8EA21"/>
<path d="M76.9658 23.0648L22.8643 77.6016C22.3377 77.4065 21.8592 77.099 21.4615 76.7001L18.0039 73.2386L72.6092 18.174L76.0668 21.6603C76.4632 22.0579 76.7698 22.5369 76.9658 23.0648Z" fill="#F8EA21"/>
<path d="M4.58203 59.6716L18.0271 73.2286L72.6226 18.1739L59.1874 4.62683L4.58203 59.6716Z" fill="#101010"/>
<path d="M101.556 75.5098H101.467L99.1208 68.0789H96.8438L100.193 77.8606H102.835L106.199 68.0789H103.927L101.556 75.5098ZM114.66 73.8214H118.809V72.1181H114.66V69.7872H119.145V68.0789H112.62V77.8606H119.175V76.1573H114.67L114.66 73.8214ZM132.264 72.1181H128.1V68.0789H126.051V77.8606H128.1V73.8214H132.264V77.8606H134.309V68.0789H132.264V72.1181ZM141.269 77.8606H143.319V68.0789H141.269V77.8606ZM153.361 70.1508C153.75 69.8967 154.206 69.7666 154.67 69.7773C154.933 69.7745 155.195 69.8149 155.445 69.8968C155.677 69.9658 155.895 70.0772 156.087 70.2255C156.272 70.3742 156.425 70.5588 156.537 70.7684C156.66 70.9915 156.739 71.2369 156.769 71.4906H158.843C158.788 70.9685 158.635 70.4616 158.394 69.9964C158.166 69.5668 157.855 69.1874 157.48 68.8808C157.1 68.5715 156.666 68.3352 156.201 68.1835C155.695 68.0204 155.166 67.9397 154.635 67.9444C153.829 67.9327 153.035 68.1372 152.333 68.5371C151.641 68.9386 151.078 69.5336 150.713 70.2504C150.292 71.0924 150.087 72.0272 150.115 72.9698C150.088 73.9116 150.291 74.8458 150.708 75.6891C151.069 76.4052 151.629 77.0004 152.318 77.4024C153.016 77.7989 153.805 78.0033 154.605 77.9951C155.176 78.0041 155.743 77.9079 156.28 77.7112C156.751 77.5355 157.185 77.2719 157.559 76.9343C157.908 76.6189 158.197 76.2427 158.414 75.8236C158.623 75.4196 158.758 74.981 158.814 74.5287H156.739C156.699 74.775 156.614 75.0115 156.487 75.2259C156.366 75.4193 156.21 75.5882 156.028 75.724C155.839 75.8679 155.627 75.9774 155.401 76.0477C155.154 76.1211 154.897 76.158 154.64 76.1573C154.176 76.172 153.719 76.0415 153.332 75.7838C152.944 75.5261 152.646 75.1537 152.476 74.7179C152.065 73.5929 152.065 72.3566 152.476 71.2316C152.659 70.7912 152.967 70.4151 153.361 70.1508ZM167.626 68.0789H165.576V77.8606H171.785V76.1573H167.626V68.0789ZM180.468 73.8214H184.617V72.1181H180.468V69.7872H184.953V68.0789H178.413V77.8606H184.968V76.1573H180.463L180.468 73.8214ZM206.751 73.164C206.476 72.9223 206.166 72.7242 205.832 72.5763C205.457 72.41 205.067 72.2815 204.666 72.1928L203.792 71.9836C203.592 71.9358 203.394 71.8776 203.199 71.8093C203.026 71.7471 202.86 71.6653 202.706 71.5653C202.571 71.4773 202.457 71.3619 202.37 71.2266C202.287 71.0889 202.249 70.9288 202.261 70.7684C202.258 70.5654 202.322 70.3673 202.444 70.2056C202.58 70.0285 202.763 69.8938 202.972 69.8171C203.242 69.7159 203.529 69.6685 203.817 69.6776C204.231 69.6541 204.642 69.7659 204.988 69.9964C205.129 70.1007 205.247 70.235 205.332 70.3898C205.418 70.5446 205.469 70.7163 205.481 70.8929H207.457C207.456 70.345 207.295 69.8095 206.993 69.3539C206.676 68.8982 206.24 68.5397 205.733 68.318C205.139 68.0572 204.495 67.9298 203.847 67.9444C203.197 67.9329 202.552 68.0602 201.955 68.318C201.433 68.5387 200.979 68.8964 200.641 69.3539C200.312 69.8035 200.139 70.3493 200.147 70.9078C200.131 71.2299 200.186 71.5516 200.308 71.8496C200.43 72.1476 200.616 72.4146 200.853 72.6311C201.411 73.1019 202.077 73.4254 202.789 73.5724L203.847 73.8414C204.153 73.9118 204.454 74.0067 204.745 74.1253C204.958 74.2093 205.148 74.3404 205.304 74.5088C205.433 74.6627 205.502 74.8596 205.496 75.0616C205.497 75.2897 205.421 75.5112 205.279 75.6891C205.122 75.8826 204.915 76.029 204.681 76.1125C204.393 76.2219 204.086 76.2743 203.777 76.2669C203.452 76.2722 203.129 76.2164 202.824 76.1025C202.56 76.0018 202.33 75.8294 202.157 75.6045C201.982 75.3659 201.884 75.0791 201.876 74.7827H199.9C199.889 75.4096 200.061 76.026 200.394 76.5558C200.733 77.0405 201.205 77.4145 201.752 77.6315C202.402 77.8855 203.095 78.009 203.792 77.9951C204.485 78.0142 205.174 77.8905 205.817 77.6315C206.334 77.4329 206.782 77.0867 207.107 76.6354C207.41 76.1756 207.569 75.6339 207.561 75.0815C207.563 74.7079 207.487 74.3381 207.339 73.9958C207.201 73.6795 206.999 73.3961 206.746 73.164H206.751ZM216.812 68.0789L213.464 77.8606H215.662L216.378 75.6294H219.88L220.601 77.8606H222.769L219.43 68.0789H216.812ZM216.901 74.0157L218.092 70.3151H218.171L219.361 74.0157H216.901ZM229.25 77.8606H231.3V73.8214H235.251V72.1181H231.3V69.7872H235.671V68.0789H229.25V77.8606ZM244.37 73.8214H248.519V72.1181H244.37V69.7872H248.855V68.0789H242.295V77.8606H248.845V76.1573H244.345L244.37 73.8214ZM255.384 69.7872H258.348V77.8606H260.378V69.7872H263.342V68.0789H255.37L255.384 69.7872ZM273.972 72.2775H273.878L271.665 68.064H269.368L272.905 74.3892V77.8457H274.94V74.3892L278.481 68.064H276.184L273.972 72.2775ZM295.275 73.8065H299.424V72.1181H295.275V69.7872H299.76V68.0789H293.201V77.8606H299.755V76.1573H295.251L295.275 73.8065ZM314.9 68.064H312.583L310.607 71.4009H310.533L308.557 68.064H306.246L309.209 72.9548L306.172 77.8457H308.523L310.499 74.5088H310.573L312.548 77.8457H314.905L311.882 72.9548L314.9 68.064ZM327.164 68.4873C326.583 68.1911 325.938 68.0456 325.287 68.064H321.459V77.8457H323.509V74.708H325.233C325.892 74.7292 326.547 74.5873 327.139 74.2946C327.647 74.0372 328.066 73.6332 328.345 73.1341C328.628 72.6073 328.771 72.0152 328.76 71.4158C328.773 70.816 328.633 70.2227 328.355 69.6926C328.075 69.1838 327.652 68.7697 327.139 68.5022L327.164 68.4873ZM326.458 72.2327C326.327 72.4795 326.126 72.6809 325.88 72.8104C325.573 72.9621 325.233 73.034 324.892 73.0196H323.484V69.7573H324.867C325.208 69.7442 325.546 69.8125 325.855 69.9566C326.101 70.084 326.303 70.2837 326.433 70.5293C326.567 70.7926 326.633 71.0854 326.626 71.381C326.634 71.6815 326.567 71.9792 326.433 72.2476L326.458 72.2327ZM337.418 73.8065H341.568V72.1181H337.418V69.7872H341.903V68.0789H335.339V77.8606H341.894V76.1573H337.394L337.418 73.8065ZM354.484 74.0057C354.983 73.7789 355.403 73.4058 355.689 72.9349C355.976 72.4257 356.12 71.847 356.104 71.2615C356.12 70.6718 355.979 70.0886 355.694 69.5731C355.419 69.0901 355.006 68.7015 354.509 68.4574C353.922 68.1821 353.279 68.0474 352.632 68.064H348.804V77.8457H350.854V74.3593H352.335L354.173 77.8457H356.435L354.375 74.0406L354.484 74.0057ZM353.803 72.0683C353.668 72.2944 353.463 72.4694 353.22 72.5663C352.904 72.6829 352.568 72.737 352.232 72.7257H350.839V69.7673H352.222C352.56 69.7542 352.896 69.8136 353.21 69.9416C353.453 70.0392 353.657 70.2141 353.793 70.4397C353.928 70.6916 353.994 70.9752 353.985 71.2615C353.993 71.5494 353.921 71.8339 353.778 72.0832L353.803 72.0683ZM362.451 69.7723H365.415V77.8457H367.44V69.7872H370.404V68.0789H362.427L362.451 69.7723ZM384.145 73.9659C384.003 73.6528 383.796 73.3743 383.538 73.1491C383.264 72.9055 382.954 72.7072 382.619 72.5614C382.246 72.3943 381.857 72.2658 381.458 72.1779L380.584 71.9687C380.382 71.9208 380.183 71.8627 379.986 71.7944C379.813 71.7326 379.647 71.6507 379.492 71.5503C379.357 71.4638 379.242 71.3481 379.157 71.2116C379.075 71.0735 379.035 70.9141 379.043 70.7534C379.042 70.5509 379.106 70.3535 379.226 70.1906C379.364 70.0158 379.547 69.8816 379.754 69.8022C380.026 69.7014 380.314 69.6541 380.604 69.6627C381.018 69.6391 381.428 69.7509 381.774 69.9815C381.916 70.0858 382.034 70.22 382.119 70.3748C382.205 70.5297 382.256 70.7013 382.268 70.878H384.244C384.248 70.3293 384.086 69.7926 383.78 69.339C383.465 68.8828 383.031 68.524 382.525 68.303C381.931 68.0423 381.287 67.9148 380.638 67.9295C379.987 67.9185 379.341 68.0457 378.742 68.303C378.221 68.5238 377.769 68.8816 377.433 69.339C377.113 69.7917 376.948 70.3372 376.963 70.8929C376.947 71.215 377.002 71.5366 377.124 71.8347C377.247 72.1327 377.433 72.3996 377.67 72.6162C378.228 73.087 378.893 73.4105 379.606 73.5575L380.663 73.8264C380.968 73.896 381.267 73.9909 381.557 74.1103C381.771 74.1918 381.962 74.3232 382.115 74.4938C382.245 74.6477 382.314 74.8447 382.308 75.0466C382.31 75.2741 382.235 75.4956 382.096 75.6742C381.937 75.8666 381.731 76.0128 381.498 76.0975C381.207 76.2069 380.899 76.2593 380.589 76.2519C380.266 76.2572 379.944 76.2014 379.641 76.0876C379.376 75.989 379.145 75.8162 378.974 75.5895C378.799 75.351 378.701 75.0642 378.692 74.7677H376.716C376.704 75.395 376.876 76.012 377.21 76.5408C377.548 77.0242 378.019 77.398 378.564 77.6166C379.216 77.8704 379.91 77.9939 380.609 77.9802C381.301 77.9989 381.99 77.8752 382.634 77.6166C383.149 77.4152 383.596 77.0696 383.923 76.6205C384.227 76.1612 384.384 75.6188 384.373 75.0666C384.368 74.6905 384.282 74.3201 384.121 73.9808L384.145 73.9659Z" fill="#101010"/>
</g>
<defs>
<clipPath id="clip0_1655_1747">
<rect width="402" height="78" fill="white"/>
</clipPath>
</defs>
</svg>
