<svg width="233" height="233" viewBox="0 0 233 233" fill="none" xmlns="http://www.w3.org/2000/svg">
<g clip-path="url(#clip0_3593_2095)">
<path d="M76.025 173.463C76.8007 174.838 77.9197 175.987 79.2728 176.799C80.6258 177.611 82.1664 178.058 83.7439 178.096C105.458 178.859 146.386 174.998 174.29 154.359C212.443 128.608 192.338 76.776 153.589 81.1362C149.544 81.5923 144.608 81.9251 140.826 82.7856C139.113 83.174 137.17 82.121 136.685 80.4341C135.341 75.7027 132.734 69.1006 130.926 65.0789C118.004 36.286 65.2903 31.0907 56.3687 84.0746C50.9414 106.976 64.394 152.551 76.025 173.463Z" fill="url(#paint0_radial_3593_2095)"/>
<path d="M76.025 173.463C76.8007 174.838 77.9197 175.987 79.2728 176.799C80.6258 177.611 82.1664 178.058 83.7439 178.096C105.458 178.859 146.386 174.998 174.29 154.359C212.443 128.608 192.338 76.776 153.589 81.1362C149.544 81.5923 144.608 81.9251 140.826 82.7856C139.113 83.174 137.17 82.121 136.685 80.4341C135.341 75.7027 132.734 69.1006 130.926 65.0789C118.004 36.286 65.2903 31.0907 56.3687 84.0746C50.9414 106.976 64.394 152.551 76.025 173.463Z" fill="url(#paint1_radial_3593_2095)"/>
<path d="M76.025 173.463C76.8007 174.838 77.9197 175.987 79.2728 176.799C80.6258 177.611 82.1664 178.058 83.7439 178.096C105.458 178.859 146.386 174.998 174.29 154.359C212.443 128.608 192.338 76.776 153.589 81.1362C149.544 81.5923 144.608 81.9251 140.826 82.7856C139.113 83.174 137.17 82.121 136.685 80.4341C135.341 75.7027 132.734 69.1006 130.926 65.0789C118.004 36.286 65.2903 31.0907 56.3687 84.0746C50.9414 106.976 64.394 152.551 76.025 173.463Z" fill="url(#paint2_radial_3593_2095)"/>
<path d="M76.025 173.463C76.8007 174.838 77.9197 175.987 79.2728 176.799C80.6258 177.611 82.1664 178.058 83.7439 178.096C105.458 178.859 146.386 174.998 174.29 154.359C212.443 128.608 192.338 76.776 153.589 81.1362C149.544 81.5923 144.608 81.9251 140.826 82.7856C139.113 83.174 137.17 82.121 136.685 80.4341C135.341 75.7027 132.734 69.1006 130.926 65.0789C118.004 36.286 65.2903 31.0907 56.3687 84.0746C50.9414 106.976 64.394 152.551 76.025 173.463Z" fill="url(#paint3_radial_3593_2095)"/>
<path d="M76.025 173.463C76.8007 174.838 77.9197 175.987 79.2728 176.799C80.6258 177.611 82.1664 178.058 83.7439 178.096C105.458 178.859 146.386 174.998 174.29 154.359C212.443 128.608 192.338 76.776 153.589 81.1362C149.544 81.5923 144.608 81.9251 140.826 82.7856C139.113 83.174 137.17 82.121 136.685 80.4341C135.341 75.7027 132.734 69.1006 130.926 65.0789C118.004 36.286 65.2903 31.0907 56.3687 84.0746C50.9414 106.976 64.394 152.551 76.025 173.463Z" fill="url(#paint4_linear_3593_2095)"/>
<path d="M76.025 173.463C76.8007 174.838 77.9197 175.987 79.2728 176.799C80.6258 177.611 82.1664 178.058 83.7439 178.096C105.458 178.859 146.386 174.998 174.29 154.359C212.443 128.608 192.338 76.776 153.589 81.1362C149.544 81.5923 144.608 81.9251 140.826 82.7856C139.113 83.174 137.17 82.121 136.685 80.4341C135.341 75.7027 132.734 69.1006 130.926 65.0789C118.004 36.286 65.2903 31.0907 56.3687 84.0746C50.9414 106.976 64.394 152.551 76.025 173.463Z" fill="url(#paint5_linear_3593_2095)"/>
<path d="M76.025 173.463C76.8007 174.838 77.9197 175.987 79.2728 176.799C80.6258 177.611 82.1664 178.058 83.7439 178.096C105.458 178.859 146.386 174.998 174.29 154.359C212.443 128.608 192.338 76.776 153.589 81.1362C149.544 81.5923 144.608 81.9251 140.826 82.7856C139.113 83.174 137.17 82.121 136.685 80.4341C135.341 75.7027 132.734 69.1006 130.926 65.0789C118.004 36.286 65.2903 31.0907 56.3687 84.0746C50.9414 106.976 64.394 152.551 76.025 173.463Z" fill="url(#paint6_radial_3593_2095)" fill-opacity="0.6"/>
<g filter="url(#filter0_f_3593_2095)">
<path d="M130.803 91.8322L111.906 122.377C109.4 126.429 113.118 131.385 117.601 129.782C131.479 124.81 145.152 116.797 144.14 102.714C143.754 97.3128 140.067 91.7262 135.375 89.8755C133.624 89.1827 131.795 90.2295 130.8 91.8367" fill="#FA1C56"/>
</g>
<g filter="url(#filter1_f_3593_2095)">
<path d="M171.88 138.846C184.548 136.05 192.937 125.268 190.619 114.764C188.3 104.259 176.151 98.0104 163.484 100.806C150.816 103.602 142.426 114.385 144.745 124.889C147.064 135.393 159.212 141.642 171.88 138.846Z" fill="url(#paint7_radial_3593_2095)"/>
</g>
<g filter="url(#filter2_f_3593_2095)">
<path d="M175.823 94.19C179.653 97.2814 183.285 99.1347 183.935 98.3293C184.586 97.5239 182.008 94.3648 178.177 91.2734C174.347 88.1819 170.715 86.3287 170.065 87.1341C169.415 87.9395 171.993 91.0985 175.823 94.19Z" fill="#FF7383"/>
</g>
<g filter="url(#filter3_f_3593_2095)">
<path d="M113.374 54.8133C117.158 57.0909 120.527 58.4345 120.901 57.8142C121.274 57.194 118.51 54.8449 114.726 52.5673C110.942 50.2897 107.572 48.9462 107.199 49.5664C106.826 50.1866 109.59 52.5358 113.374 54.8133Z" fill="#FF93BA" fill-opacity="0.5"/>
</g>
<g filter="url(#filter4_f_3593_2095)">
<path d="M127.644 86.3001L100.657 133.054C88.4018 84.0725 95.4849 59.3855 110.2 61.9647C124.162 64.4119 128.615 77.2257 127.644 86.3001Z" fill="url(#paint8_radial_3593_2095)"/>
</g>
<g filter="url(#filter5_f_3593_2095)">
<path d="M127.07 82.2289C123.642 79.3653 124.408 75.5248 125.219 73.9648C125.983 77.5326 127.971 79.0223 128.87 79.319L127.07 82.2289Z" fill="#FF7383"/>
</g>
</g>
<defs>
<filter id="filter0_f_3593_2095" x="109.654" y="88.2149" width="35.9803" height="43.3192" filterUnits="userSpaceOnUse" color-interpolation-filters="sRGB">
<feFlood flood-opacity="0" result="BackgroundImageFix"/>
<feBlend mode="normal" in="SourceGraphic" in2="BackgroundImageFix" result="shape"/>
<feGaussianBlur stdDeviation="0.72165" result="effect1_foregroundBlur_3593_2095"/>
</filter>
<filter id="filter1_f_3593_2095" x="143.277" y="99.0569" width="48.8095" height="41.5387" filterUnits="userSpaceOnUse" color-interpolation-filters="sRGB">
<feFlood flood-opacity="0" result="BackgroundImageFix"/>
<feBlend mode="normal" in="SourceGraphic" in2="BackgroundImageFix" result="shape"/>
<feGaussianBlur stdDeviation="0.541237" result="effect1_foregroundBlur_3593_2095"/>
</filter>
<filter id="filter2_f_3593_2095" x="168.522" y="85.5025" width="16.9569" height="14.4584" filterUnits="userSpaceOnUse" color-interpolation-filters="sRGB">
<feFlood flood-opacity="0" result="BackgroundImageFix"/>
<feBlend mode="normal" in="SourceGraphic" in2="BackgroundImageFix" result="shape"/>
<feGaussianBlur stdDeviation="0.72165" result="effect1_foregroundBlur_3593_2095"/>
</filter>
<filter id="filter3_f_3593_2095" x="106.082" y="48.3326" width="15.9345" height="10.7155" filterUnits="userSpaceOnUse" color-interpolation-filters="sRGB">
<feFlood flood-opacity="0" result="BackgroundImageFix"/>
<feBlend mode="normal" in="SourceGraphic" in2="BackgroundImageFix" result="shape"/>
<feGaussianBlur stdDeviation="0.541237" result="effect1_foregroundBlur_3593_2095"/>
</filter>
<filter id="filter4_f_3593_2095" x="92.2296" y="59.6165" width="37.7049" height="75.6024" filterUnits="userSpaceOnUse" color-interpolation-filters="sRGB">
<feFlood flood-opacity="0" result="BackgroundImageFix"/>
<feBlend mode="normal" in="SourceGraphic" in2="BackgroundImageFix" result="shape"/>
<feGaussianBlur stdDeviation="1.08247" result="effect1_foregroundBlur_3593_2095"/>
</filter>
<filter id="filter5_f_3593_2095" x="123.806" y="73.2432" width="5.78705" height="9.70746" filterUnits="userSpaceOnUse" color-interpolation-filters="sRGB">
<feFlood flood-opacity="0" result="BackgroundImageFix"/>
<feBlend mode="normal" in="SourceGraphic" in2="BackgroundImageFix" result="shape"/>
<feGaussianBlur stdDeviation="0.360825" result="effect1_foregroundBlur_3593_2095"/>
</filter>
<radialGradient id="paint0_radial_3593_2095" cx="0" cy="0" r="1" gradientUnits="userSpaceOnUse" gradientTransform="translate(144.28 69.7993) rotate(121.743) scale(120.995 128.458)">
<stop stop-color="#FC0000"/>
<stop offset="0.528" stop-color="#FF3B79"/>
<stop offset="1" stop-color="#F724B3"/>
</radialGradient>
<radialGradient id="paint1_radial_3593_2095" cx="0" cy="0" r="1" gradientUnits="userSpaceOnUse" gradientTransform="translate(160.386 115.227) rotate(166.145) scale(111.942 209.678)">
<stop offset="0.798" stop-color="#C82092" stop-opacity="0"/>
<stop offset="0.908" stop-color="#C82092"/>
</radialGradient>
<radialGradient id="paint2_radial_3593_2095" cx="0" cy="0" r="1" gradientUnits="userSpaceOnUse" gradientTransform="translate(129.033 135.609) rotate(-126.92) scale(119.756 169.292)">
<stop offset="0.41" stop-color="#B91D43" stop-opacity="0"/>
<stop offset="0.834" stop-color="#B91D43"/>
</radialGradient>
<radialGradient id="paint3_radial_3593_2095" cx="0" cy="0" r="1" gradientUnits="userSpaceOnUse" gradientTransform="translate(120.173 105.534) rotate(121.743) scale(104.227 104.227)">
<stop offset="0.671" stop-color="#FF7AF2" stop-opacity="0"/>
<stop offset="0.934" stop-color="#FFBCE6"/>
</radialGradient>
<linearGradient id="paint4_linear_3593_2095" x1="123.538" y1="121.958" x2="133" y2="186.841" gradientUnits="userSpaceOnUse">
<stop offset="0.694" stop-color="#FF7AF2" stop-opacity="0"/>
<stop offset="0.934" stop-color="#FFBCE6"/>
</linearGradient>
<linearGradient id="paint5_linear_3593_2095" x1="117.993" y1="120.985" x2="46.5541" y2="142.374" gradientUnits="userSpaceOnUse">
<stop offset="0.694" stop-color="#FF7AF2" stop-opacity="0"/>
<stop offset="0.934" stop-color="#FFBCE6"/>
</linearGradient>
<radialGradient id="paint6_radial_3593_2095" cx="0" cy="0" r="1" gradientUnits="userSpaceOnUse" gradientTransform="translate(135.198 109.134) rotate(-163.639) scale(90.6214 95.7045)">
<stop offset="0.802" stop-color="#FF73A6" stop-opacity="0"/>
<stop offset="1" stop-color="#FF93BA"/>
</radialGradient>
<radialGradient id="paint7_radial_3593_2095" cx="0" cy="0" r="1" gradientUnits="userSpaceOnUse" gradientTransform="translate(190.449 114.129) rotate(160.48) scale(38.3834 51.0399)">
<stop stop-color="#FF7383"/>
<stop offset="1" stop-color="#FF7383" stop-opacity="0"/>
</radialGradient>
<radialGradient id="paint8_radial_3593_2095" cx="0" cy="0" r="1" gradientUnits="userSpaceOnUse" gradientTransform="translate(123.618 107.815) rotate(-103.848) scale(66.7824 118.55)">
<stop stop-color="#FF6274"/>
<stop offset="1" stop-color="#FF6274" stop-opacity="0"/>
</radialGradient>
<clipPath id="clip0_3593_2095">
<rect width="168.455" height="168.455" fill="white" transform="translate(88.7812 0.587891) rotate(31.743)"/>
</clipPath>
</defs>
</svg>
