<svg width="209" height="209" viewBox="0 0 209 209" fill="none" xmlns="http://www.w3.org/2000/svg">
<g clip-path="url(#clip0_3593_2094)">
<path d="M132.594 160.65C134.019 160.621 135.411 160.222 136.636 159.493C137.86 158.764 138.874 157.73 139.579 156.491C149.469 139.545 163.896 105.338 159.408 74.3186C155.237 32.9608 105.412 26.7932 92.3143 59.4799C90.9474 62.893 89.1022 66.9609 88.1696 70.3373C87.746 71.8664 86.078 72.9611 84.5287 72.626C80.1905 71.6724 73.8243 70.9236 69.8523 70.6423C41.425 68.6108 14.7556 108.32 53.0869 138.069C68.983 152.177 110.986 160.961 132.594 160.65Z" fill="url(#paint0_radial_3593_2094)"/>
<path d="M132.594 160.65C134.019 160.621 135.411 160.222 136.636 159.493C137.86 158.764 138.874 157.73 139.579 156.491C149.469 139.545 163.896 105.338 159.408 74.3186C155.237 32.9608 105.412 26.7932 92.3143 59.4799C90.9474 62.893 89.1022 66.9609 88.1696 70.3373C87.746 71.8664 86.078 72.9611 84.5287 72.626C80.1905 71.6724 73.8243 70.9236 69.8523 70.6423C41.425 68.6108 14.7556 108.32 53.0869 138.069C68.983 152.177 110.986 160.961 132.594 160.65Z" fill="url(#paint1_radial_3593_2094)"/>
<path d="M132.594 160.65C134.019 160.621 135.411 160.222 136.636 159.493C137.86 158.764 138.874 157.73 139.579 156.491C149.469 139.545 163.896 105.338 159.408 74.3186C155.237 32.9608 105.412 26.7932 92.3143 59.4799C90.9474 62.893 89.1022 66.9609 88.1696 70.3373C87.746 71.8664 86.078 72.9611 84.5287 72.626C80.1905 71.6724 73.8243 70.9236 69.8523 70.6423C41.425 68.6108 14.7556 108.32 53.0869 138.069C68.983 152.177 110.986 160.961 132.594 160.65Z" fill="url(#paint2_radial_3593_2094)"/>
<path d="M132.594 160.65C134.019 160.621 135.411 160.222 136.636 159.493C137.86 158.764 138.874 157.73 139.579 156.491C149.469 139.545 163.896 105.338 159.408 74.3186C155.237 32.9608 105.412 26.7932 92.3143 59.4799C90.9474 62.893 89.1022 66.9609 88.1696 70.3373C87.746 71.8664 86.078 72.9611 84.5287 72.626C80.1905 71.6724 73.8243 70.9236 69.8523 70.6423C41.425 68.6108 14.7556 108.32 53.0869 138.069C68.983 152.177 110.986 160.961 132.594 160.65Z" fill="url(#paint3_radial_3593_2094)"/>
<path d="M132.594 160.65C134.019 160.621 135.411 160.222 136.636 159.493C137.86 158.764 138.874 157.73 139.579 156.491C149.469 139.545 163.896 105.338 159.408 74.3186C155.237 32.9608 105.412 26.7932 92.3143 59.4799C90.9474 62.893 89.1022 66.9609 88.1696 70.3373C87.746 71.8664 86.078 72.9611 84.5287 72.626C80.1905 71.6724 73.8243 70.9236 69.8523 70.6423C41.425 68.6108 14.7556 108.32 53.0869 138.069C68.983 152.177 110.986 160.961 132.594 160.65Z" fill="url(#paint4_linear_3593_2094)"/>
<path d="M132.594 160.65C134.019 160.621 135.411 160.222 136.636 159.493C137.86 158.764 138.874 157.73 139.579 156.491C149.469 139.545 163.896 105.338 159.408 74.3186C155.237 32.9608 105.412 26.7932 92.3143 59.4799C90.9474 62.893 89.1022 66.9609 88.1696 70.3373C87.746 71.8664 86.078 72.9611 84.5287 72.626C80.1905 71.6724 73.8243 70.9236 69.8523 70.6423C41.425 68.6108 14.7556 108.32 53.0869 138.069C68.983 152.177 110.986 160.961 132.594 160.65Z" fill="url(#paint5_linear_3593_2094)"/>
<path d="M132.594 160.65C134.019 160.621 135.411 160.222 136.636 159.493C137.86 158.764 138.874 157.73 139.579 156.491C149.469 139.545 163.896 105.338 159.408 74.3186C155.237 32.9608 105.412 26.7932 92.3143 59.4799C90.9474 62.893 89.1022 66.9609 88.1696 70.3373C87.746 71.8664 86.078 72.9611 84.5287 72.626C80.1905 71.6724 73.8243 70.9236 69.8523 70.6423C41.425 68.6108 14.7556 108.32 53.0869 138.069C68.983 152.177 110.986 160.961 132.594 160.65Z" fill="url(#paint6_radial_3593_2094)" fill-opacity="0.6"/>
<g filter="url(#filter0_f_3593_2094)">
<path d="M91.0803 82.1775L107.298 110.268C109.449 113.993 114.981 113.155 115.623 108.903C117.601 95.7393 117.073 81.4373 105.438 76.2212C100.977 74.2185 94.9567 74.7631 91.4785 77.7044C90.179 78.8005 90.2294 80.7036 91.0827 82.1816" fill="#FA1C56"/>
</g>
<g filter="url(#filter1_f_3593_2094)">
<path d="M146.037 69.6047C149.229 58.3329 144.239 47.0498 134.892 44.4032C125.545 41.7565 115.381 48.7486 112.189 60.0204C108.998 71.2921 113.987 82.5752 123.334 85.2219C132.681 87.8685 142.845 80.8765 146.037 69.6047Z" fill="url(#paint7_radial_3593_2094)"/>
</g>
<g filter="url(#filter2_f_3593_2094)">
<path d="M112.2 47.3711C116.296 45.6461 119.323 43.5494 118.961 42.688C118.598 41.8266 114.983 42.5266 110.886 44.2516C106.79 45.9766 103.763 48.0733 104.126 48.9347C104.488 49.7962 108.103 49.0961 112.2 47.3711Z" fill="#FF7383"/>
</g>
<g filter="url(#filter3_f_3593_2094)">
<path d="M54.1796 80.2165C57.6089 78.1806 60.1183 76.0744 59.7846 75.5123C59.4509 74.9502 56.4003 76.1449 52.971 78.1808C49.5417 80.2167 47.0323 82.3229 47.366 82.885C47.6997 83.4472 50.7503 82.2524 54.1796 80.2165Z" fill="#FF93BA" fill-opacity="0.5"/>
</g>
<g filter="url(#filter4_f_3593_2094)">
<path d="M85.3321 82.3232L110.984 123.778C66.7832 112.585 50.1743 96.3967 58.5172 85.7942C66.4327 75.7348 78.5292 77.6711 85.3321 82.3232Z" fill="url(#paint8_radial_3593_2094)"/>
</g>
<g filter="url(#filter5_f_3593_2094)">
<path d="M81.8455 81.0429C78.1021 82.5455 75.3749 80.294 74.4805 78.9824C77.6451 79.9 79.6799 78.9557 80.3005 78.3669L81.8455 81.0429Z" fill="#FF7383"/>
</g>
</g>
<defs>
<filter id="filter0_f_3593_2094" x="88.4688" y="73.0308" width="30.0391" height="41.6025" filterUnits="userSpaceOnUse" color-interpolation-filters="sRGB">
<feFlood flood-opacity="0" result="BackgroundImageFix"/>
<feBlend mode="normal" in="SourceGraphic" in2="BackgroundImageFix" result="shape"/>
<feGaussianBlur stdDeviation="1" result="effect1_foregroundBlur_3593_2094"/>
</filter>
<filter id="filter1_f_3593_2094" x="109.727" y="42.3433" width="38.7734" height="44.9385" filterUnits="userSpaceOnUse" color-interpolation-filters="sRGB">
<feFlood flood-opacity="0" result="BackgroundImageFix"/>
<feBlend mode="normal" in="SourceGraphic" in2="BackgroundImageFix" result="shape"/>
<feGaussianBlur stdDeviation="0.75" result="effect1_foregroundBlur_3593_2094"/>
</filter>
<filter id="filter2_f_3593_2094" x="102.098" y="40.3193" width="18.8906" height="10.9839" filterUnits="userSpaceOnUse" color-interpolation-filters="sRGB">
<feFlood flood-opacity="0" result="BackgroundImageFix"/>
<feBlend mode="normal" in="SourceGraphic" in2="BackgroundImageFix" result="shape"/>
<feGaussianBlur stdDeviation="1" result="effect1_foregroundBlur_3593_2094"/>
</filter>
<filter id="filter3_f_3593_2094" x="45.8359" y="73.8735" width="15.4766" height="10.6504" filterUnits="userSpaceOnUse" color-interpolation-filters="sRGB">
<feFlood flood-opacity="0" result="BackgroundImageFix"/>
<feBlend mode="normal" in="SourceGraphic" in2="BackgroundImageFix" result="shape"/>
<feGaussianBlur stdDeviation="0.75" result="effect1_foregroundBlur_3593_2094"/>
</filter>
<filter id="filter4_f_3593_2094" x="53.4375" y="75.5269" width="60.5469" height="51.2515" filterUnits="userSpaceOnUse" color-interpolation-filters="sRGB">
<feFlood flood-opacity="0" result="BackgroundImageFix"/>
<feBlend mode="normal" in="SourceGraphic" in2="BackgroundImageFix" result="shape"/>
<feGaussianBlur stdDeviation="1.5" result="effect1_foregroundBlur_3593_2094"/>
</filter>
<filter id="filter5_f_3593_2094" x="73.4805" y="77.3667" width="9.36328" height="5.17432" filterUnits="userSpaceOnUse" color-interpolation-filters="sRGB">
<feFlood flood-opacity="0" result="BackgroundImageFix"/>
<feBlend mode="normal" in="SourceGraphic" in2="BackgroundImageFix" result="shape"/>
<feGaussianBlur stdDeviation="0.5" result="effect1_foregroundBlur_3593_2094"/>
</filter>
<radialGradient id="paint0_radial_3593_2094" cx="0" cy="0" r="1" gradientUnits="userSpaceOnUse" gradientTransform="translate(79.3162 62.0385) rotate(60) scale(109.265 116.004)">
<stop stop-color="#FC0000"/>
<stop offset="0.528" stop-color="#FF3B79"/>
<stop offset="1" stop-color="#F724B3"/>
</radialGradient>
<radialGradient id="paint1_radial_3593_2094" cx="0" cy="0" r="1" gradientUnits="userSpaceOnUse" gradientTransform="translate(122.337 68.6485) rotate(104.402) scale(101.09 189.35)">
<stop offset="0.798" stop-color="#C82092" stop-opacity="0"/>
<stop offset="0.908" stop-color="#C82092"/>
</radialGradient>
<radialGradient id="paint2_radial_3593_2094" cx="0" cy="0" r="1" gradientUnits="userSpaceOnUse" gradientTransform="translate(125.145 102.302) rotate(171.337) scale(108.146 152.88)">
<stop offset="0.41" stop-color="#B91D43" stop-opacity="0"/>
<stop offset="0.834" stop-color="#B91D43"/>
</radialGradient>
<radialGradient id="paint3_radial_3593_2094" cx="0" cy="0" r="1" gradientUnits="userSpaceOnUse" gradientTransform="translate(97.4345 96.4913) rotate(60) scale(94.1228 94.1228)">
<stop offset="0.671" stop-color="#FF7AF2" stop-opacity="0"/>
<stop offset="0.934" stop-color="#FFBCE6"/>
</radialGradient>
<linearGradient id="paint4_linear_3593_2094" x1="111.937" y1="100.837" x2="167.593" y2="121.05" gradientUnits="userSpaceOnUse">
<stop offset="0.694" stop-color="#FF7AF2" stop-opacity="0"/>
<stop offset="0.934" stop-color="#FFBCE6"/>
</linearGradient>
<linearGradient id="paint5_linear_3593_2094" x1="108.793" y1="104.831" x2="95.2647" y2="170.801" gradientUnits="userSpaceOnUse">
<stop offset="0.694" stop-color="#FF7AF2" stop-opacity="0"/>
<stop offset="0.934" stop-color="#FFBCE6"/>
</linearGradient>
<radialGradient id="paint6_radial_3593_2094" cx="0" cy="0" r="1" gradientUnits="userSpaceOnUse" gradientTransform="translate(106.722 86.0791) rotate(134.618) scale(81.836 86.4263)">
<stop offset="0.802" stop-color="#FF73A6" stop-opacity="0"/>
<stop offset="1" stop-color="#FF93BA"/>
</radialGradient>
<radialGradient id="paint7_radial_3593_2094" cx="0" cy="0" r="1" gradientUnits="userSpaceOnUse" gradientTransform="translate(134.315 44.2673) rotate(98.737) scale(34.6622 46.0917)">
<stop stop-color="#FF7383"/>
<stop offset="1" stop-color="#FF7383" stop-opacity="0"/>
</radialGradient>
<radialGradient id="paint8_radial_3593_2094" cx="0" cy="0" r="1" gradientUnits="userSpaceOnUse" gradientTransform="translate(100.725 94.7234) rotate(-165.591) scale(60.3081 107.057)">
<stop stop-color="#FF6274"/>
<stop offset="1" stop-color="#FF6274" stop-opacity="0"/>
</radialGradient>
<clipPath id="clip0_3593_2094">
<rect width="152.124" height="152.124" fill="white" transform="translate(0.535156 76.5957) rotate(-30)"/>
</clipPath>
</defs>
</svg>
