<svg width="159" height="159" viewBox="0 0 159 159" fill="none" xmlns="http://www.w3.org/2000/svg">
<path d="M79.6769 94.8631C77.1594 94.0492 74.566 93.6448 71.9271 93.6448C69.8797 93.6448 67.802 93.8874 65.704 94.3778C64.8295 94.58 63.9043 94.9036 62.873 95.3586C62.5849 95.4849 62.3978 95.6619 62.3473 95.8489C62.2866 96.0663 62.4029 96.3039 62.5141 96.4657C63.0854 97.2947 63.6617 98.139 64.3593 98.7759C66.7909 101 69.8191 102.203 72.19 103.002C78.494 105.13 84.2368 101.516 87.452 97.5677C86.7696 97.3251 86.0921 97.0824 85.4198 96.8448C83.4482 96.1472 81.5879 95.4799 79.6769 94.8631ZM83.6049 62.6911C80.0662 59.5719 75.7843 58.1564 71.548 58.7125C67.3066 59.2635 63.5252 61.7356 60.9065 65.6636C57.3931 70.9262 56.0939 76.7701 57.0493 83.0337C57.6256 86.81 59.0108 90.5105 61.0582 93.7661C61.7609 93.5791 62.4383 93.3819 63.1056 93.1898C64.784 92.7096 66.3713 92.2546 68.0092 91.9765C70.0819 91.6277 72.19 91.4508 74.3436 91.4508C78.8883 91.4508 83.6403 92.2293 88.726 93.7964C89.7471 94.1099 90.01 93.9026 90.4448 92.9775C92.3456 88.9282 92.9573 84.4846 92.2647 79.7629C91.193 72.468 88.362 66.887 83.6049 62.6911ZM79.5 0C35.5945 0 0 35.5945 0 79.5C0 123.405 35.5945 159 79.5 159C123.405 159 159 123.405 159 79.5C158.995 35.5945 123.405 0 79.5 0ZM49.6786 64.0105C47.1813 60.6487 44.042 59.0462 40.1089 59.1321C38.8805 59.1574 37.6773 59.1523 36.4034 59.1422C35.9838 59.1422 35.5591 59.1372 35.1294 59.1372C35.1092 59.3192 35.089 59.4759 35.089 59.6275V66.4724C35.0839 77.0937 35.0789 88.0738 35.0991 98.872C35.1042 101.172 35.549 102.936 37.7026 104.094L39.477 105.045H25.4434L27.1117 104.099C29.5888 102.694 29.5939 100.444 29.5989 98.0682L29.7152 59.2888C23.2292 58.844 18.8816 58.6923 14.807 64.7081C14.7312 64.8193 14.6503 64.8952 14.5442 64.9862C14.4886 65.0317 14.4228 65.0923 14.3369 65.1732L13.159 66.2955L15.0699 57.2414H49.7343L51.5137 64.7536L50.6189 65.2288L50.164 64.6374C49.9971 64.4301 49.8354 64.2228 49.6786 64.0105ZM123.471 107.067C122.202 107.183 120.923 107.244 119.634 107.244C113.598 107.244 107.34 105.939 100.621 103.3C97.4666 102.057 94.3677 100.712 91.3699 99.4129C90.8037 99.1703 90.556 99.1551 90.0909 99.5292C82.7405 105.52 74.6267 106.89 65.9871 103.589C57.2667 100.262 51.9384 93.5032 50.5734 84.0498C49.6888 77.9076 51.357 71.6845 55.2749 66.5179C59.1877 61.3615 64.971 57.9441 71.1486 57.1403C77.8115 56.2708 84.2722 57.9542 89.3478 61.8771C94.3728 65.7596 97.593 71.5075 98.417 78.0693C99.1551 83.9537 97.8053 89.5651 94.393 94.762L94.1301 95.1563C94.0442 95.2878 93.9582 95.4142 93.8723 95.5456C96.5769 96.5112 99.2511 97.6284 101.839 98.7102C106.773 100.778 111.874 102.911 117.238 103.973C125.807 105.671 132.96 104.003 139.107 98.8771C139.401 99.236 139.936 99.9033 140.204 100.328C135.25 104.226 129.618 106.495 123.471 107.067ZM142.424 58.6114C140.27 59.6579 139.224 61.3463 139.224 63.783V63.965C139.229 69.0709 139.239 74.3486 139.163 79.5404C139.117 82.8365 138.334 85.8849 136.832 88.5895C134.967 91.9563 131.989 94.034 127.981 94.7772C126.429 95.0653 124.882 95.2069 123.34 95.2069C121.358 95.2069 119.397 94.9693 117.465 94.4991C111.359 93.0028 107.699 88.7159 106.885 82.0984C106.475 78.7619 106.379 75.3445 106.293 72.0434C106.278 71.457 106.263 70.8706 106.243 70.2841C106.197 68.8434 106.243 67.3874 106.283 65.977C106.313 64.9204 106.349 63.8285 106.344 62.7568C106.334 60.4667 105.555 59.1018 103.74 58.1868L101.845 57.2313H116.571L114.498 58.1969C112.759 59.0057 112.016 60.2847 112.011 62.4787C112.006 63.5707 112.001 64.6576 111.996 65.7495C111.97 70.5369 111.94 75.4911 112.193 80.3392C112.38 83.9285 113.654 88.7361 118.694 91.2486C123.183 93.4881 127.864 93.2758 132.227 90.6268C135.296 88.7664 136.337 85.3945 136.898 82.6646C137.161 81.3907 137.303 80.0713 137.318 78.7366C137.353 75.3294 137.353 71.8665 137.348 68.5148C137.348 66.8718 137.348 65.2288 137.348 63.5858C137.353 61.407 136.408 59.8449 134.467 58.8237C134.183 58.6721 133.9 58.5154 133.617 58.3586C133.445 58.2626 133.385 58.1109 133.359 58.0351L133.329 57.9694L132.995 57.2515H145.133L142.848 58.3991C142.681 58.485 142.555 58.5457 142.424 58.6114Z" fill="url(#paint0_linear_4323_1728)"/>
<defs>
<linearGradient id="paint0_linear_4323_1728" x1="34.7814" y1="4.59531" x2="161.024" y2="7.4258" gradientUnits="userSpaceOnUse">
<stop stop-color="#C08239"/>
<stop offset="1" stop-color="#FEC17C"/>
</linearGradient>
</defs>
</svg>
