<svg width="331" height="152" viewBox="0 0 331 152" fill="none" xmlns="http://www.w3.org/2000/svg">
    <path d="M25.451 11.342h9.95V48h-9.95V11.342zm-21.942 0h9.95V48h-9.95V11.342zm5.55 13.773h21.105v9.06H9.06v-9.06zm43.998 23.67c-1.711 0-3.282-.191-4.714-.575a13.104 13.104 0 0 1-3.822-1.729 10.891 10.891 0 0 1-2.828-2.828 9.895 9.895 0 0 1-1.362-2.46 19.716 19.716 0 0 1-.838-2.986 20.06 20.06 0 0 1-.262-3.3 20.4 20.4 0 0 1 .262-3.35 15.12 15.12 0 0 1 .89-2.933c.384-.908.838-1.746 1.362-2.514a10.577 10.577 0 0 1 2.828-2.88 12.463 12.463 0 0 1 3.77-1.78 16.719 16.719 0 0 1 4.452-.577c2.758 0 5.097.559 7.017 1.676 1.955 1.117 3.44 2.74 4.451 4.87 1.013 2.13 1.52 4.696 1.52 7.698V37.212h-19.9V31.87h11.101c-.035-1.396-.419-2.443-1.152-3.142-.698-.733-1.71-1.1-3.037-1.1-.803 0-1.501.14-2.095.42-.593.279-1.1.715-1.519 1.309-.279.384-.506.855-.68 1.414a8.438 8.438 0 0 0-.367 1.78c-.07.629-.105 1.38-.105 2.252 0 1.257.105 2.34.314 3.247.21.873.507 1.606.89 2.2.385.558.874.977 1.467 1.256.594.28 1.31.42 2.147.42.559 0 1.065-.07 1.519-.21a3.729 3.729 0 0 0 1.257-.733c.349-.35.61-.786.785-1.31h9.479c-.28 1.85-1.013 3.457-2.2 4.818-1.152 1.362-2.653 2.427-4.503 3.195-1.816.733-3.858 1.1-6.127 1.1zm23.44 0c-1.222 0-2.357-.191-3.404-.575-1.048-.385-1.92-.926-2.619-1.624a6.795 6.795 0 0 1-1.519-2.304c-.349-.873-.523-1.85-.523-2.933 0-.733.07-1.414.21-2.042.139-.663.366-1.275.68-1.833a6.974 6.974 0 0 1 1.152-1.519c.803-.803 1.816-1.449 3.037-1.937 1.222-.524 2.636-.856 4.242-.995l7.594-.734v4.818l-4.137.576c-1.048.14-1.85.49-2.41 1.048a3.34 3.34 0 0 0-.47.785c-.105.28-.158.576-.158.89 0 .35.053.664.157.943.105.28.245.506.42.681.174.175.383.314.628.419.28.07.576.105.89.105.733 0 1.38-.21 1.938-.629.593-.419 1.047-.995 1.361-1.728.314-.733.472-1.571.472-2.514v-6.441c0-1.047-.297-1.833-.89-2.357-.56-.523-1.362-.785-2.41-.785-.663 0-1.239.14-1.728.419a2.691 2.691 0 0 0-1.152 1.1c-.28.454-.419.995-.419 1.623v.052h-9.53v-.052c0-3.212 1.186-5.743 3.56-7.593 2.374-1.85 5.569-2.776 9.584-2.776 2.688 0 4.957.384 6.808 1.152 1.885.768 3.299 1.92 4.241 3.457.978 1.536 1.467 3.456 1.467 5.76V48h-9.165l2.147-6.86H85.4c-.523 1.745-1.17 3.194-1.938 4.346-.768 1.117-1.728 1.955-2.88 2.514-1.152.524-2.513.785-4.085.785zm31.326 0c-1.746 0-3.334-.366-4.765-1.1-1.397-.732-2.566-1.797-3.51-3.194a12.944 12.944 0 0 1-1.413-2.67 18.432 18.432 0 0 1-.89-3.247 25.538 25.538 0 0 1-.262-3.718c0-1.327.087-2.567.262-3.719.21-1.187.506-2.269.89-3.247.384-1.012.855-1.92 1.414-2.723.943-1.396 2.112-2.461 3.509-3.194 1.431-.733 3.019-1.1 4.765-1.1 1.466 0 2.758.297 3.875.89 1.152.594 2.13 1.467 2.933 2.619.838 1.152 1.519 2.548 2.042 4.19h1.152l-2.251-6.861V11.342h9.478V48h-9.478l2.251-6.86h-1.152c-.523 1.64-1.204 3.037-2.042 4.19-.803 1.116-1.781 1.972-2.933 2.565-1.117.594-2.409.89-3.875.89zm3.247-8.169c.768 0 1.431-.14 1.99-.419.593-.28 1.1-.716 1.519-1.31.244-.313.436-.68.576-1.099.174-.419.296-.873.366-1.361a7.973 7.973 0 0 0 .157-1.572c0-.837-.104-1.588-.314-2.251a5.807 5.807 0 0 0-.785-1.833 4.033 4.033 0 0 0-1.519-1.257c-.559-.314-1.222-.471-1.99-.471-.733 0-1.397.157-1.99.47a3.63 3.63 0 0 0-1.466 1.258c-.245.349-.454.733-.629 1.152a5.563 5.563 0 0 0-.366 1.361c-.07.49-.105 1.013-.105 1.572 0 .837.087 1.605.262 2.304.174.663.454 1.24.838 1.728.384.593.872 1.03 1.466 1.31.593.278 1.257.418 1.99.418zm19.368-29.274h9.478V48h-9.478V11.342zm14.857 10.369h9.479V48h-9.479V21.711zm-.209-10.369h9.897v7.07h-9.897v-7.07zm15.067 10.369h9.478l-2.251 6.86h1.204c.489-1.71 1.135-3.124 1.938-4.242.803-1.152 1.763-2.007 2.88-2.566 1.152-.593 2.444-.89 3.875-.89 1.955 0 3.614.384 4.975 1.152 1.362.733 2.374 1.85 3.038 3.352.663 1.466.995 3.282.995 5.446V48h-9.531V33.127c0-1.187-.262-2.094-.786-2.723-.524-.628-1.327-.942-2.409-.942-.803 0-1.501.192-2.095.576-.558.384-1.012.942-1.361 1.675-.314.699-.472 1.536-.472 2.514V48h-9.478V21.711zm42.907 27.075c-1.711 0-3.282-.193-4.713-.577a13.097 13.097 0 0 1-3.823-1.728 10.878 10.878 0 0 1-2.828-2.828 9.88 9.88 0 0 1-1.362-2.46 19.786 19.786 0 0 1-.838-2.986 20.115 20.115 0 0 1-.262-3.3c0-1.186.088-2.303.262-3.35.21-1.048.507-2.026.891-2.933.384-.908.837-1.746 1.361-2.514a10.58 10.58 0 0 1 2.828-2.88 12.46 12.46 0 0 1 3.771-1.78 16.714 16.714 0 0 1 4.451-.577c2.758 0 5.097.559 7.017 1.676 1.955 1.117 3.439 2.74 4.452 4.87 1.012 2.13 1.518 4.696 1.518 7.698V37.212h-19.9V31.87h11.102c-.035-1.396-.419-2.443-1.152-3.142-.698-.733-1.71-1.1-3.037-1.1-.803 0-1.501.14-2.095.42-.593.279-1.1.715-1.519 1.309-.279.384-.506.855-.68 1.414a8.412 8.412 0 0 0-.367 1.78c-.07.629-.105 1.38-.105 2.252 0 1.257.105 2.34.315 3.247.209.873.506 1.606.89 2.2.384.558.873.977 1.466 1.256.594.28 1.309.42 2.147.42.559 0 1.065-.07 1.519-.21a3.727 3.727 0 0 0 1.257-.733 3.28 3.28 0 0 0 .785-1.31h9.479c-.279 1.85-1.012 3.457-2.199 4.818-1.153 1.362-2.654 2.427-4.504 3.195-1.816.733-3.858 1.1-6.127 1.1zM14.05 109.793c-2.49 0-4.637-.42-6.442-1.26-1.805-.871-3.205-2.1-4.2-3.687-.965-1.618-1.448-3.548-1.448-5.788v-.747h6.815v.514c0 1.12.202 2.069.607 2.847.404.747 1.011 1.322 1.82 1.727.81.373 1.774.56 2.894.56 1.152 0 2.116-.171 2.894-.513.81-.374 1.4-.887 1.774-1.541.124-.187.218-.389.28-.607.093-.217.155-.435.187-.653.03-.249.046-.498.046-.747 0-.311-.03-.591-.093-.84a2.52 2.52 0 0 0-.327-.794c-.311-.56-.824-1.026-1.54-1.4-.685-.404-1.572-.716-2.66-.933l-3.968-.747c-1.743-.343-3.236-.887-4.481-1.634-1.214-.778-2.147-1.742-2.8-2.894a11.581 11.581 0 0 1-.887-2.24 11 11 0 0 1-.28-2.567c0-.965.108-1.868.326-2.708.218-.871.545-1.68.98-2.427.965-1.65 2.365-2.925 4.201-3.827 1.867-.903 4.061-1.354 6.582-1.354 2.458 0 4.59.42 6.394 1.26 1.836.84 3.236 2.07 4.201 3.688.965 1.587 1.447 3.485 1.447 5.694v.747h-6.815v-.513c0-1.65-.466-2.894-1.4-3.734-.902-.872-2.21-1.307-3.92-1.307-1.152 0-2.132.186-2.941.56-.778.342-1.354.84-1.727 1.493a4.176 4.176 0 0 0-.42 2.894c.062.25.17.498.326.747.311.53.81.98 1.494 1.354.684.373 1.603.669 2.754.887l3.874.793c1.742.311 3.236.871 4.48 1.68 1.246.778 2.195 1.759 2.848 2.941.405.685.7 1.431.887 2.24.187.779.28 1.619.28 2.521 0 .654-.047 1.291-.14 1.914a10.754 10.754 0 0 1-.42 1.727 9.775 9.775 0 0 1-.7 1.54c-.934 1.618-2.334 2.878-4.201 3.781-1.867.902-4.06 1.353-6.581 1.353zm22.795-.093c-1.711 0-3.158-.342-4.34-1.027-1.183-.715-2.07-1.742-2.661-3.08-.592-1.37-.887-3.05-.887-5.041V86.082h6.535V99.29c0 1.463.295 2.583.886 3.361.623.747 1.54 1.12 2.754 1.12.903 0 1.68-.218 2.334-.653.685-.467 1.214-1.136 1.587-2.007.373-.872.56-1.898.56-3.08v-11.95h6.441V109h-6.44l1.586-6.115h-.887c-.435 1.525-1.011 2.785-1.727 3.781-.684.996-1.509 1.758-2.474 2.287-.933.498-2.022.747-3.267.747zm31.227 0c-1.338 0-2.536-.249-3.594-.747-1.027-.529-1.93-1.307-2.707-2.333-.747-1.027-1.338-2.272-1.774-3.735h-.84L60.744 109h-6.442V76.327h6.442v9.755l-1.587 6.068h.84c.436-1.463 1.027-2.692 1.774-3.688.777-1.026 1.68-1.789 2.707-2.287 1.058-.529 2.256-.793 3.594-.793 1.618 0 3.096.342 4.434 1.027 1.338.684 2.443 1.68 3.314 2.987.467.684.856 1.447 1.167 2.287.342.84.591 1.758.747 2.754.156.965.233 1.992.233 3.08 0 1.12-.078 2.179-.233 3.175a12.379 12.379 0 0 1-.747 2.707c-.311.84-.7 1.602-1.167 2.287-.871 1.307-1.976 2.303-3.314 2.987-1.338.685-2.816 1.027-4.434 1.027zm-2.007-5.648c.902 0 1.696-.171 2.38-.513a4.442 4.442 0 0 0 1.774-1.54c.28-.374.514-.778.7-1.214.187-.467.311-.965.374-1.494.093-.56.14-1.151.14-1.773 0-.903-.11-1.727-.327-2.474-.187-.778-.482-1.432-.887-1.96a4.44 4.44 0 0 0-1.774-1.54c-.684-.343-1.478-.514-2.38-.514-.934 0-1.758.17-2.474.513-.685.342-1.26.856-1.727 1.54-.28.343-.514.747-.7 1.214-.156.467-.28.98-.374 1.54a9.66 9.66 0 0 0-.14 1.68c0 .934.094 1.774.28 2.521.218.747.53 1.4.934 1.961.467.684 1.042 1.198 1.727 1.54.716.342 1.54.513 2.474.513zm14.757-27.725h6.441v9.755l-1.587 6.068h.84c.468-1.494 1.059-2.739 1.774-3.734.716-1.027 1.572-1.79 2.568-2.287.995-.498 2.116-.747 3.36-.747 1.774 0 3.268.342 4.481 1.027 1.214.684 2.132 1.711 2.754 3.08.622 1.37.934 3.05.934 5.041V109h-6.535V95.79c0-1.493-.327-2.613-.98-3.36-.654-.778-1.634-1.167-2.94-1.167-.934 0-1.759.233-2.475.7-.715.467-1.26 1.136-1.633 2.007-.374.84-.56 1.867-.56 3.08V109h-6.442V76.327zm35.369 33.373c-1.462 0-2.8-.171-4.014-.513-1.214-.343-2.303-.84-3.267-1.494a9.615 9.615 0 0 1-2.381-2.38 11.382 11.382 0 0 1-1.167-2.194 16.45 16.45 0 0 1-.747-2.567 17.947 17.947 0 0 1-.233-2.941c0-1.027.093-2.007.28-2.94.187-.934.451-1.805.794-2.615.342-.809.746-1.555 1.213-2.24a9.615 9.615 0 0 1 2.381-2.38 10.115 10.115 0 0 1 3.127-1.54 12.71 12.71 0 0 1 3.641-.514c2.334 0 4.31.482 5.928 1.447 1.649.933 2.894 2.287 3.734 4.06.871 1.774 1.307 3.921 1.307 6.442v1.867h-18.204v-4.2h11.902c-.031-1.526-.451-2.677-1.26-3.455-.778-.809-1.898-1.214-3.361-1.214-.871 0-1.649.172-2.333.514a4.66 4.66 0 0 0-1.727 1.494c-.28.404-.514.87-.701 1.4-.155.529-.28 1.105-.373 1.727a21.359 21.359 0 0 0-.093 2.1c0 1.12.093 2.1.28 2.941.218.84.529 1.571.933 2.194a4.857 4.857 0 0 0 1.727 1.447c.685.342 1.525.513 2.521.513a5.11 5.11 0 0 0 1.867-.327 4.142 4.142 0 0 0 1.447-.933c.435-.405.762-.903.98-1.494h6.441a8.29 8.29 0 0 1-1.867 4.108c-.964 1.151-2.209 2.053-3.734 2.707-1.493.653-3.174.98-5.041.98zm19.04 0c-1.058 0-2.038-.171-2.94-.513a6.497 6.497 0 0 1-2.241-1.447 5.911 5.911 0 0 1-1.307-2.007c-.311-.778-.466-1.634-.466-2.568 0-.653.062-1.26.186-1.82.156-.56.358-1.073.607-1.54.249-.498.576-.95.98-1.354.685-.684 1.556-1.229 2.614-1.633 1.058-.405 2.303-.67 3.734-.794l6.908-.513v3.874l-5.041.606c-1.213.125-2.1.467-2.66 1.027a2.473 2.473 0 0 0-.514.747 2.95 2.95 0 0 0-.14.934c0 .342.047.653.14.933.094.249.234.483.42.7.218.218.483.389.794.514.342.093.731.14 1.167.14.871 0 1.68-.234 2.427-.7a5.29 5.29 0 0 0 1.774-2.007c.467-.841.7-1.759.7-2.754v-5.368c0-1.151-.342-2.023-1.027-2.614-.685-.622-1.68-.934-2.987-.934-.809 0-1.525.14-2.147.42-.592.28-1.043.7-1.354 1.26-.311.53-.467 1.137-.467 1.821v.14h-6.581v-.14c.031-2.676.996-4.792 2.894-6.348 1.929-1.587 4.527-2.38 7.795-2.38 2.24 0 4.123.342 5.648 1.027 1.524.653 2.676 1.633 3.454 2.94.809 1.307 1.213 2.91 1.213 4.808V109h-6.348l1.494-6.115h-.887c-.404 1.556-.965 2.832-1.68 3.828-.685.996-1.541 1.742-2.567 2.24-.996.498-2.194.747-3.595.747zm25.85 0c-1.618 0-3.096-.342-4.434-1.027-1.338-.684-2.443-1.68-3.314-2.987a12.234 12.234 0 0 1-1.214-2.287c-.311-.84-.56-1.743-.747-2.707a20.649 20.649 0 0 1-.233-3.174c0-1.09.078-2.116.233-3.081.187-.996.436-1.914.747-2.754.342-.84.747-1.603 1.214-2.287.871-1.307 1.976-2.303 3.314-2.987 1.338-.685 2.816-1.027 4.434-1.027 1.338 0 2.521.264 3.547.793 1.058.498 1.961 1.26 2.708 2.287.778.996 1.369 2.225 1.773 3.688h.887l-1.587-6.068v-9.755h6.441V109h-6.441l1.587-6.115h-.887c-.404 1.463-.995 2.708-1.773 3.735-.747 1.026-1.65 1.804-2.708 2.333-1.026.498-2.209.747-3.547.747zm2.007-5.648c.902 0 1.712-.171 2.427-.513a4.443 4.443 0 0 0 1.774-1.54 7.48 7.48 0 0 0 .653-1.214 7.5 7.5 0 0 0 .42-1.494c.094-.56.141-1.151.141-1.773 0-.903-.109-1.727-.327-2.474-.187-.778-.483-1.432-.887-1.96a4.441 4.441 0 0 0-1.774-1.54c-.715-.343-1.525-.514-2.427-.514-.902 0-1.711.17-2.427.513-.685.342-1.276.856-1.774 1.54a5.542 5.542 0 0 0-.653 1.214c-.187.467-.327.98-.42 1.54a9.6 9.6 0 0 0-.14 1.68c0 .934.109 1.774.326 2.521.218.747.514 1.4.887 1.961.498.684 1.089 1.198 1.774 1.54.716.342 1.525.513 2.427.513zm16.064-27.725h6.442V109h-6.442V76.327zm10.703 9.755h6.441V109h-6.441V86.082zm-.327-9.755h7.095v5.927h-7.095v-5.927zm11.03 9.755h6.441l-1.587 6.068h.84c.467-1.494 1.058-2.739 1.774-3.734.716-1.027 1.571-1.79 2.567-2.287.996-.498 2.116-.747 3.361-.747 1.774 0 3.267.342 4.481 1.027 1.213.684 2.131 1.711 2.754 3.08.622 1.37.933 3.05.933 5.041V109h-6.534V95.79c0-1.493-.327-2.613-.981-3.36-.653-.778-1.633-1.167-2.94-1.167-.934 0-1.758.233-2.474.7-.716.467-1.26 1.136-1.634 2.007-.373.84-.56 1.867-.56 3.08V109h-6.441V86.082zm35.369 23.618c-1.463 0-2.801-.171-4.014-.513a11.207 11.207 0 0 1-3.268-1.494 9.61 9.61 0 0 1-2.38-2.38 11.382 11.382 0 0 1-1.167-2.194 16.45 16.45 0 0 1-.747-2.567 17.838 17.838 0 0 1-.233-2.941c0-1.027.093-2.007.28-2.94.186-.934.451-1.805.793-2.615.343-.809.747-1.555 1.214-2.24a9.61 9.61 0 0 1 2.38-2.38 10.12 10.12 0 0 1 3.128-1.54 12.707 12.707 0 0 1 3.64-.514c2.334 0 4.31.482 5.928 1.447 1.649.933 2.894 2.287 3.734 4.06.872 1.774 1.307 3.921 1.307 6.442v1.867h-18.203v-4.2h11.902c-.031-1.526-.451-2.677-1.26-3.455-.778-.809-1.898-1.214-3.361-1.214-.871 0-1.649.172-2.334.514-.684.342-1.26.84-1.727 1.494-.28.404-.513.87-.7 1.4-.156.529-.28 1.105-.373 1.727a21.033 21.033 0 0 0-.094 2.1c0 1.12.094 2.1.28 2.941.218.84.529 1.571.934 2.194a4.848 4.848 0 0 0 1.727 1.447c.684.342 1.525.513 2.52.513.685 0 1.307-.109 1.867-.327a4.124 4.124 0 0 0 1.447-.933c.436-.405.763-.903.981-1.494h6.441a8.29 8.29 0 0 1-1.867 4.108c-.965 1.151-2.209 2.053-3.734 2.707-1.494.653-3.174.98-5.041.98zM1.774 146v-13.115h2.195v5.519h6.211v-5.519h2.186V146H10.18v-5.537H3.97V146H1.774zm13.692 0v-13.115h2.195V146h-2.195zm10.697.273c-.85 0-1.648-.149-2.395-.446a5.727 5.727 0 0 1-1.958-1.33c-.559-.583-.996-1.296-1.312-2.14-.316-.85-.474-1.822-.474-2.914 0-1.433.268-2.657.802-3.671.534-1.02 1.266-1.8 2.195-2.34.929-.547 1.976-.82 3.142-.82 1.615 0 2.893.376 3.834 1.129.948.747 1.588 1.797 1.922 3.151l-2.24.356c-.25-.778-.656-1.397-1.22-1.858-.566-.468-1.285-.702-2.16-.702-.88-.012-1.611.18-2.194.574-.583.395-1.023.95-1.32 1.667-.292.716-.438 1.554-.438 2.514 0 .959.146 1.794.437 2.504.292.704.729 1.254 1.312 1.649.588.394 1.323.598 2.204.61.661.006 1.241-.113 1.74-.355a3.042 3.042 0 0 0 1.22-1.121c.315-.504.528-1.132.637-1.885h-2.313v-1.721h4.645c.012.097.02.24.027.428.006.188.01.3.01.337 0 1.238-.247 2.34-.739 3.306a5.457 5.457 0 0 1-2.094 2.259c-.911.546-2.001.819-3.27.819zm8.296-.273v-13.115h2.194v5.519h6.212v-5.519h2.186V146h-2.186v-5.537h-6.212V146H34.46zm13.691 0v-13.115h2.196v11.057h5.792V146H48.15zm10.077 0v-13.115h2.195V146h-2.195zm10.697.273c-.85 0-1.648-.149-2.395-.446a5.725 5.725 0 0 1-1.958-1.33c-.558-.583-.996-1.296-1.311-2.14-.316-.85-.474-1.822-.474-2.914 0-1.433.267-2.657.801-3.671.535-1.02 1.266-1.8 2.195-2.34.93-.547 1.977-.82 3.142-.82 1.615 0 2.894.376 3.835 1.129.947.747 1.588 1.797 1.921 3.151l-2.24.356c-.249-.778-.656-1.397-1.22-1.858-.565-.468-1.285-.702-2.159-.702-.88-.012-1.612.18-2.195.574-.583.395-1.023.95-1.32 1.667-.292.716-.438 1.554-.438 2.514 0 .959.146 1.794.438 2.504.291.704.728 1.254 1.311 1.649.589.394 1.324.598 2.204.61.662.006 1.242-.113 1.74-.355a3.042 3.042 0 0 0 1.22-1.121c.316-.504.528-1.132.638-1.885h-2.314v-1.721h4.645c.012.097.021.24.027.428.007.188.01.3.01.337 0 1.238-.246 2.34-.738 3.306a5.457 5.457 0 0 1-2.095 2.259c-.91.546-2 .819-3.27.819zM77.22 146v-13.115h2.195v5.519h6.211v-5.519h2.186V146h-2.186v-5.537h-6.211V146H77.22zm16.661 0v-11.057h-4.244v-2.058h10.683v2.058h-4.244V146h-2.195zM131.887 146.256c-.911 0-1.733-.159-2.467-.478a4.68 4.68 0 0 1-1.802-1.383c-.467-.604-.763-1.321-.888-2.152l2.425-.358c.171.705.524 1.249 1.059 1.63a3.065 3.065 0 0 0 1.827.572c.381 0 .751-.059 1.11-.179.358-.119.652-.296.879-.529.234-.234.35-.521.35-.863 0-.125-.02-.244-.059-.358a.904.904 0 0 0-.18-.333 1.34 1.34 0 0 0-.367-.291 2.79 2.79 0 0 0-.589-.247l-3.193-.939a9.44 9.44 0 0 1-.837-.291 3.672 3.672 0 0 1-.914-.538 2.806 2.806 0 0 1-.743-.922c-.193-.387-.29-.874-.29-1.46 0-.825.208-1.511.623-2.058.416-.546.971-.953 1.665-1.221.695-.267 1.463-.398 2.306-.392.848.011 1.605.156 2.271.435a4.335 4.335 0 0 1 1.673 1.221c.45.53.775 1.178.974 1.947l-2.51.427a2.23 2.23 0 0 0-.504-1.008 2.408 2.408 0 0 0-.88-.623 2.937 2.937 0 0 0-1.058-.231 2.836 2.836 0 0 0-1.034.154c-.318.108-.58.268-.785.478a1.058 1.058 0 0 0-.299.752c0 .267.083.486.248.657.165.165.373.299.623.401.25.103.507.188.768.257l2.135.58c.319.086.672.199 1.059.342.387.136.757.33 1.11.58.358.245.652.57.879.974.234.404.35.916.35 1.537 0 .66-.139 1.238-.418 1.733a3.623 3.623 0 0 1-1.11 1.221 5.165 5.165 0 0 1-1.588.717 6.925 6.925 0 0 1-1.819.239zm11.098 0c-.945 0-1.779-.202-2.502-.606a4.489 4.489 0 0 1-1.69-1.682c-.404-.717-.606-1.537-.606-2.459 0-1.008.199-1.884.597-2.63a4.323 4.323 0 0 1 1.648-1.733c.7-.416 1.506-.624 2.417-.624.967 0 1.79.228 2.467.684.678.455 1.178 1.095 1.503 1.921.324.825.438 1.796.341 2.911h-2.296v-.854c0-.939-.151-1.613-.453-2.023-.296-.416-.783-.624-1.46-.624-.791 0-1.375.242-1.75.726-.37.478-.555 1.187-.555 2.126 0 .86.185 1.526.555 1.998.375.467.925.7 1.648.7.455 0 .845-.099 1.169-.298.325-.2.572-.487.743-.863l2.323.666a4.084 4.084 0 0 1-1.648 1.964 4.53 4.53 0 0 1-2.451.7zm-3.057-4.218v-1.725h6.114v1.725h-6.114zm13.225 4.218c-.957 0-1.776-.213-2.459-.64a4.228 4.228 0 0 1-1.571-1.742c-.365-.734-.547-1.563-.547-2.485 0-.933.188-1.767.564-2.501a4.318 4.318 0 0 1 1.605-1.734c.689-.421 1.503-.632 2.442-.632 1.087 0 1.998.277 2.732.829.74.546 1.213 1.295 1.417 2.245l-2.322.615c-.137-.478-.376-.851-.717-1.119a1.79 1.79 0 0 0-1.144-.401c-.49 0-.891.12-1.204.359a2.024 2.024 0 0 0-.692.965 3.976 3.976 0 0 0-.222 1.374c0 .803.177 1.455.53 1.956.358.495.888.742 1.588.742.523 0 .922-.119 1.195-.358s.478-.581.615-1.025l2.373.495c-.261.979-.757 1.734-1.485 2.263-.729.529-1.628.794-2.698.794zm11.424-.256a8.813 8.813 0 0 1-1.878.154 4.518 4.518 0 0 1-1.64-.316 2.218 2.218 0 0 1-1.093-.982 2.83 2.83 0 0 1-.358-1.281 55.106 55.106 0 0 1-.017-1.486v-7.872h2.322v7.736c0 .358.003.683.009.973.011.285.071.512.179.683.205.325.532.501.982.53.45.028.948.005 1.494-.069V146zm-6.557-7.428v-1.793h6.557v1.793h-6.557zm8.783-3.074v-2.049h2.322v2.049h-2.322zm0 10.502v-9.221h2.322V146h-2.322zm9.032.256c-.928 0-1.742-.208-2.442-.623a4.375 4.375 0 0 1-1.64-1.716c-.387-.735-.58-1.577-.58-2.528 0-.962.199-1.807.597-2.536a4.356 4.356 0 0 1 1.648-1.716c.7-.41 1.506-.615 2.417-.615.927 0 1.741.208 2.442.624.705.415 1.255.99 1.647 1.724.393.729.59 1.569.59 2.519 0 .957-.2 1.802-.598 2.536a4.34 4.34 0 0 1-1.648 1.716c-.7.41-1.511.615-2.433.615zm0-2.169c.745 0 1.3-.25 1.665-.751.37-.507.555-1.155.555-1.947 0-.819-.188-1.474-.564-1.964-.37-.489-.922-.734-1.656-.734-.507 0-.923.114-1.247.342a2.039 2.039 0 0 0-.726.947c-.153.405-.23.874-.23 1.409 0 .826.185 1.483.555 1.973.375.483.925.725 1.648.725zM188.676 146v-4.355c0-.21-.012-.478-.035-.802a3.636 3.636 0 0 0-.213-.991 1.873 1.873 0 0 0-.589-.828c-.268-.222-.649-.333-1.144-.333-.2 0-.413.031-.641.094a1.569 1.569 0 0 0-.64.367c-.199.177-.364.439-.495.786-.126.347-.188.808-.188 1.383l-1.332-.632c0-.728.148-1.412.444-2.049a3.677 3.677 0 0 1 1.332-1.545c.597-.393 1.349-.59 2.254-.59.723 0 1.312.123 1.767.368.456.244.809.555 1.059.93.256.376.438.769.547 1.178.108.405.173.775.196 1.11.023.336.034.581.034.735V146h-2.356zm-6.302 0v-9.221h2.066v3.056h.291V146h-2.357zm14.292 0v-12.295h2.357l5.345 8.197v-8.197h2.357V146h-2.357l-5.345-8.197V146h-2.357zm15.002.256c-.66 0-1.221-.125-1.682-.376a2.665 2.665 0 0 1-1.041-1.016 2.88 2.88 0 0 1-.35-1.408c0-.427.065-.817.196-1.17s.342-.663.632-.931c.296-.273.691-.501 1.187-.683a8.615 8.615 0 0 1 1.221-.333 26.728 26.728 0 0 1 1.605-.273l1.972-.299-.836.461c0-.546-.131-.948-.393-1.204s-.7-.384-1.315-.384c-.342 0-.697.082-1.067.248-.37.165-.629.458-.777.879l-2.101-.666a3.566 3.566 0 0 1 1.315-1.861c.643-.478 1.52-.718 2.63-.718.814 0 1.537.126 2.169.376a2.71 2.71 0 0 1 1.434 1.298c.182.341.29.683.324 1.025.035.341.052.722.052 1.144V146h-2.032v-1.896l.29.393c-.45.621-.936 1.07-1.46 1.349-.518.274-1.176.41-1.973.41zm.496-1.827c.427 0 .785-.074 1.076-.222.296-.154.529-.327.7-.521.176-.193.296-.356.358-.487.12-.25.188-.54.205-.87.023-.336.034-.615.034-.837l.683.171a78.6 78.6 0 0 0-1.673.29c-.427.074-.771.142-1.033.205a5.89 5.89 0 0 0-.692.205c-.228.091-.413.19-.555.299a1.075 1.075 0 0 0-.307.341.917.917 0 0 0-.094.418.96.96 0 0 0 .154.547c.108.148.259.262.452.341.194.08.424.12.692.12zM230.163 146v-5.447c0-.61-.145-1.082-.436-1.418-.284-.341-.68-.512-1.187-.512-.324 0-.606.077-.845.23a1.521 1.521 0 0 0-.563.632 2.094 2.094 0 0 0-.197.931l-.973-.649c0-.632.148-1.19.444-1.674a3.142 3.142 0 0 1 1.204-1.127 3.486 3.486 0 0 1 1.682-.409c1.053 0 1.847.313 2.382.939.541.62.811 1.434.811 2.442V146h-2.322zm-11.117 0v-9.221h2.049v3.056h.29V146h-2.339zm5.567 0v-5.447c0-.61-.145-1.082-.436-1.418-.284-.341-.68-.512-1.187-.512-.483 0-.873.168-1.169.504-.291.33-.436.76-.436 1.289l-.973-.683c0-.604.151-1.144.452-1.622a3.271 3.271 0 0 1 1.213-1.136 3.527 3.527 0 0 1 1.716-.418c.723 0 1.315.153 1.776.461a2.75 2.75 0 0 1 1.033 1.229c.222.512.333 1.076.333 1.691V146h-2.322zm14.212.256c-.945 0-1.779-.202-2.502-.606a4.491 4.491 0 0 1-1.691-1.682c-.404-.717-.606-1.537-.606-2.459 0-1.008.199-1.884.598-2.63a4.317 4.317 0 0 1 1.648-1.733c.7-.416 1.505-.624 2.416-.624.968 0 1.79.228 2.468.684.677.455 1.178 1.095 1.503 1.921.324.825.438 1.796.341 2.911h-2.297v-.854c0-.939-.151-1.613-.452-2.023-.296-.416-.783-.624-1.46-.624-.792 0-1.375.242-1.751.726-.37.478-.555 1.187-.555 2.126 0 .86.185 1.526.555 1.998.376.467.925.7 1.648.7.456 0 .845-.099 1.17-.298.324-.2.572-.487.743-.863l2.322.666a4.073 4.073 0 0 1-1.648 1.964c-.745.467-1.562.7-2.45.7zm-3.057-4.218v-1.725h6.114v1.725h-6.114zM269.966 144v-9.016h3.563c.088 0 .192.004.313.012.121.004.238.017.351.038.488.075.897.242 1.227.501.334.258.585.586.752.983.167.392.25.828.25 1.308 0 .476-.086.912-.257 1.309-.167.392-.417.72-.751.983-.33.259-.737.426-1.221.501-.113.017-.23.029-.351.037a4.266 4.266 0 0 1-.313.013h-2.448V144h-1.115zm1.115-4.389h2.411a3.022 3.022 0 0 0 .563-.057 1.43 1.43 0 0 0 .701-.363c.184-.179.318-.388.401-.626a2.236 2.236 0 0 0 0-1.471 1.602 1.602 0 0 0-.401-.633 1.383 1.383 0 0 0-.701-.363 1.31 1.31 0 0 0-.294-.044c-.1-.008-.19-.012-.269-.012h-2.411v3.569zm8.268 4.577c-.505 0-.929-.092-1.271-.276a1.963 1.963 0 0 1-.771-.739 2.007 2.007 0 0 1-.256-1.001c0-.355.066-.662.2-.921.138-.263.33-.48.576-.651.246-.175.541-.313.883-.413.321-.088.68-.163 1.077-.226.401-.066.806-.127 1.215-.181.409-.054.791-.107 1.146-.157l-.401.232c.012-.601-.109-1.046-.363-1.334-.251-.288-.685-.432-1.303-.432a2.03 2.03 0 0 0-1.077.282c-.304.184-.519.484-.645.902l-1.058-.32c.163-.592.478-1.058.946-1.396.467-.338 1.083-.507 1.847-.507.613 0 1.139.11 1.578.332.442.217.759.546.951.989.096.209.157.436.182.682.025.243.038.497.038.764V144h-.99v-1.622l.232.151c-.255.546-.612.96-1.071 1.239-.455.28-1.01.42-1.665.42zm.169-.933c.4 0 .747-.071 1.039-.213.296-.146.534-.336.714-.57.179-.238.296-.497.351-.776.062-.209.096-.441.1-.695.008-.259.012-.457.012-.595l.388.169c-.363.05-.72.098-1.07.144-.351.046-.683.096-.996.15-.313.05-.595.111-.845.182a2.713 2.713 0 0 0-.52.225 1.188 1.188 0 0 0-.388.357.93.93 0 0 0-.144.532c0 .184.046.359.138.526.096.167.242.303.438.407.2.105.461.157.783.157zm4.953.745v-6.762h.995v1.634l-.163-.213a2.56 2.56 0 0 1 .307-.576c.13-.175.274-.319.432-.432.175-.142.374-.251.595-.326.221-.075.447-.119.676-.131.23-.017.445-.002.645.044v1.045a2.13 2.13 0 0 0-.77-.05c-.28.029-.538.132-.776.307a1.665 1.665 0 0 0-.508.564 2.469 2.469 0 0 0-.244.72 4.383 4.383 0 0 0-.069.782V144h-1.12zm6.373.188c-.505 0-.928-.092-1.271-.276a1.96 1.96 0 0 1-.77-.739 2.008 2.008 0 0 1-.257-1.001c0-.355.067-.662.201-.921.137-.263.329-.48.576-.651a2.92 2.92 0 0 1 .883-.413c.321-.088.68-.163 1.077-.226.4-.066.805-.127 1.214-.181.409-.054.791-.107 1.146-.157l-.401.232c.013-.601-.108-1.046-.363-1.334-.25-.288-.684-.432-1.302-.432a2.03 2.03 0 0 0-1.077.282c-.305.184-.52.484-.645.902l-1.058-.32c.163-.592.478-1.058.945-1.396.468-.338 1.084-.507 1.847-.507.614 0 1.14.11 1.578.332.443.217.76.546.952.989.096.209.157.436.182.682.025.243.037.497.037.764V144h-.989v-1.622l.232.151c-.255.546-.612.96-1.071 1.239-.455.28-1.01.42-1.666.42zm.169-.933c.401 0 .748-.071 1.04-.213a1.871 1.871 0 0 0 1.064-1.346c.063-.209.096-.441.1-.695.009-.259.013-.457.013-.595l.388.169c-.363.05-.72.098-1.071.144-.35.046-.682.096-.995.15-.313.05-.595.111-.845.182a2.713 2.713 0 0 0-.52.225 1.178 1.178 0 0 0-.388.357.93.93 0 0 0-.144.532c0 .184.046.359.137.526.096.167.242.303.439.407.2.105.461.157.782.157zm7.689 3.938c-.354 0-.701-.054-1.039-.162a3.016 3.016 0 0 1-.933-.495 2.713 2.713 0 0 1-.701-.827l1.02-.538c.167.33.403.57.708.72.309.15.626.225.952.225.43 0 .787-.079 1.07-.238.284-.154.493-.386.627-.695.137-.308.204-.693.2-1.152v-1.847h.131v-4.946h.99v6.806c0 .183-.007.361-.019.532-.008.171-.029.34-.063.507-.087.48-.261.875-.519 1.184a2.308 2.308 0 0 1-1.002.695c-.409.154-.883.231-1.422.231zm-.081-3.005c-.63 0-1.171-.157-1.622-.47a3.112 3.112 0 0 1-1.045-1.283c-.242-.539-.364-1.146-.364-1.822 0-.677.122-1.284.364-1.823a3.026 3.026 0 0 1 1.045-1.271c.451-.313.99-.469 1.616-.469.638 0 1.175.154 1.609.463.434.309.762.733.983 1.271.225.539.338 1.148.338 1.829 0 .672-.113 1.279-.338 1.822a2.925 2.925 0 0 1-.983 1.283c-.434.313-.968.47-1.603.47zm.138-1.021c.455 0 .828-.108 1.121-.325.292-.222.507-.524.644-.908a3.83 3.83 0 0 0 .213-1.321c0-.501-.071-.942-.213-1.322a1.852 1.852 0 0 0-.638-.895c-.288-.217-.653-.326-1.096-.326-.459 0-.839.113-1.14.339-.296.225-.517.53-.663.914a3.698 3.698 0 0 0-.213 1.29c0 .48.073.914.219 1.302.146.384.365.689.657.914.297.226.666.338 1.109.338zm4.716.833v-6.762h.996v1.634l-.163-.213c.079-.209.181-.401.307-.576.129-.175.273-.319.432-.432.175-.142.373-.251.594-.326.222-.075.447-.119.677-.131.229-.017.444-.002.645.044v1.045a2.136 2.136 0 0 0-.771-.05 1.567 1.567 0 0 0-.776.307 1.662 1.662 0 0 0-.507.564 2.44 2.44 0 0 0-.244.72 4.383 4.383 0 0 0-.069.782V144h-1.121zm6.374.188c-.505 0-.929-.092-1.271-.276a1.96 1.96 0 0 1-.77-.739 1.998 1.998 0 0 1-.257-1.001c0-.355.067-.662.2-.921.138-.263.33-.48.576-.651.247-.175.541-.313.883-.413.322-.088.681-.163 1.077-.226.401-.066.806-.127 1.215-.181.409-.054.791-.107 1.146-.157l-.401.232c.012-.601-.109-1.046-.363-1.334-.251-.288-.685-.432-1.303-.432a2.03 2.03 0 0 0-1.077.282c-.304.184-.519.484-.645.902l-1.058-.32c.163-.592.478-1.058.946-1.396.467-.338 1.083-.507 1.847-.507.614 0 1.139.11 1.578.332.442.217.759.546.952.989.096.209.156.436.181.682.025.243.038.497.038.764V144h-.99v-1.622l.232.151c-.255.546-.612.96-1.071 1.239-.455.28-1.01.42-1.665.42zm.169-.933c.401 0 .747-.071 1.039-.213.297-.146.535-.336.714-.57.18-.238.296-.497.351-.776.062-.209.096-.441.1-.695.008-.259.012-.457.012-.595l.389.169c-.364.05-.72.098-1.071.144-.351.046-.683.096-.996.15-.313.05-.595.111-.845.182a2.713 2.713 0 0 0-.52.225 1.188 1.188 0 0 0-.388.357.93.93 0 0 0-.144.532c0 .184.046.359.138.526.096.167.242.303.438.407.201.105.461.157.783.157zm8.058.933c-.634 0-1.168-.157-1.603-.47a2.966 2.966 0 0 1-.989-1.283c-.221-.543-.332-1.15-.332-1.822 0-.681.111-1.29.332-1.829.225-.538.555-.962.989-1.271.439-.309.975-.463 1.61-.463.626 0 1.164.156 1.615.469a2.97 2.97 0 0 1 1.046 1.271c.242.539.363 1.146.363 1.823 0 .676-.121 1.283-.363 1.822a3.054 3.054 0 0 1-1.046 1.283c-.451.313-.991.47-1.622.47zm-3.112 2.817v-9.767h.996v4.977h.125v4.79h-1.121zm2.975-3.838c.446 0 .816-.112 1.108-.338.292-.225.511-.53.657-.914.146-.388.219-.822.219-1.302 0-.476-.073-.906-.219-1.29a1.961 1.961 0 0 0-.663-.914c-.297-.226-.675-.339-1.134-.339-.438 0-.801.109-1.089.326-.288.213-.503.511-.645.895-.142.38-.213.821-.213 1.322 0 .492.069.933.207 1.321.142.384.359.686.651.908.292.217.666.325 1.121.325zm9.356.833v-3.387c0-.322-.03-.631-.088-.927a2.305 2.305 0 0 0-.294-.795 1.526 1.526 0 0 0-.564-.564c-.234-.138-.53-.207-.889-.207-.28 0-.534.048-.764.145a1.487 1.487 0 0 0-.582.425c-.163.192-.29.434-.382.727a3.508 3.508 0 0 0-.132 1.02l-.732-.225c0-.656.117-1.217.35-1.685.238-.471.57-.832.996-1.083.43-.254.935-.382 1.515-.382.438 0 .812.069 1.121.207.309.138.566.321.77.551.205.225.365.48.482.764.117.28.199.565.244.858.051.288.076.561.076.82V144h-1.127zm-4.822 0v-9.016h1.002v4.977h.125V144h-1.127z" fill="#202020"/>
</svg>
