<svg width="577" height="275" viewBox="0 0 577 275" fill="none" xmlns="http://www.w3.org/2000/svg">
    <path d="M240.178 20.6h17.48V85h-17.48V20.6zm-38.548 0h17.48V85h-17.48V20.6zm9.752 24.196h37.076v15.916h-37.076V44.796zm77.293 41.584c-3.005 0-5.765-.337-8.28-1.012-2.453-.675-4.692-1.687-6.716-3.036a19.121 19.121 0 0 1-4.968-4.968 17.386 17.386 0 0 1-2.392-4.324 34.669 34.669 0 0 1-1.472-5.244 35.194 35.194 0 0 1-.46-5.796c0-2.085.153-4.048.46-5.888a26.53 26.53 0 0 1 1.564-5.152 25.357 25.357 0 0 1 2.392-4.416 18.573 18.573 0 0 1 4.968-5.06 21.897 21.897 0 0 1 6.624-3.128c2.453-.675 5.06-1.012 7.82-1.012 4.845 0 8.955.981 12.328 2.944 3.435 1.963 6.041 4.815 7.82 8.556 1.779 3.741 2.668 8.25 2.668 13.524v3.68h-34.96v-9.384h19.504c-.061-2.453-.736-4.293-2.024-5.52-1.227-1.288-3.005-1.932-5.336-1.932-1.411 0-2.637.245-3.68.736-1.043.49-1.932 1.257-2.668 2.3-.491.675-.889 1.503-1.196 2.484-.307.92-.521 1.963-.644 3.128-.123 1.104-.184 2.423-.184 3.956 0 2.208.184 4.11.552 5.704.368 1.533.889 2.821 1.564 3.864a6.384 6.384 0 0 0 2.576 2.208c1.043.49 2.3.736 3.772.736.981 0 1.871-.123 2.668-.368.859-.307 1.595-.736 2.208-1.288.613-.613 1.073-1.38 1.38-2.3h16.652c-.491 3.25-1.779 6.072-3.864 8.464-2.024 2.392-4.661 4.263-7.912 5.612-3.189 1.288-6.777 1.932-10.764 1.932zm41.179 0c-2.147 0-4.14-.337-5.98-1.012-1.84-.675-3.374-1.625-4.6-2.852a11.92 11.92 0 0 1-2.668-4.048c-.614-1.533-.92-3.25-.92-5.152 0-1.288.122-2.484.368-3.588a11.241 11.241 0 0 1 1.196-3.22 12.227 12.227 0 0 1 2.024-2.668c1.41-1.41 3.189-2.545 5.336-3.404 2.146-.92 4.63-1.503 7.452-1.748l13.34-1.288v8.464l-7.268 1.012c-1.84.245-3.251.859-4.232 1.84-.307.368-.583.828-.828 1.38a4.417 4.417 0 0 0-.276 1.564c0 .613.092 1.165.276 1.656.184.49.429.89.736 1.196.306.307.674.552 1.104.736.49.123 1.012.184 1.564.184 1.288 0 2.422-.368 3.404-1.104 1.042-.736 1.84-1.748 2.392-3.036.552-1.288.828-2.76.828-4.416V55.56c0-1.84-.522-3.22-1.564-4.14-.982-.92-2.392-1.38-4.232-1.38-1.166 0-2.178.245-3.036.736a4.722 4.722 0 0 0-2.024 1.932c-.491.797-.736 1.748-.736 2.852v.092h-16.744v-.092c0-5.643 2.085-10.09 6.256-13.34 4.17-3.25 9.782-4.876 16.836-4.876 4.722 0 8.709.675 11.96 2.024 3.312 1.35 5.796 3.373 7.452 6.072 1.717 2.699 2.576 6.072 2.576 10.12V85h-16.1l3.772-12.052h-2.024c-.92 3.067-2.055 5.612-3.404 7.636-1.35 1.963-3.036 3.435-5.06 4.416-2.024.92-4.416 1.38-7.176 1.38zm55.033 0c-3.066 0-5.857-.644-8.372-1.932-2.453-1.288-4.508-3.159-6.164-5.612a22.77 22.77 0 0 1-2.484-4.692 32.448 32.448 0 0 1-1.564-5.704 44.966 44.966 0 0 1-.46-6.532c0-2.33.154-4.508.46-6.532.368-2.085.89-3.987 1.564-5.704.675-1.779 1.503-3.373 2.484-4.784 1.656-2.453 3.711-4.324 6.164-5.612 2.515-1.288 5.306-1.932 8.372-1.932 2.576 0 4.846.521 6.808 1.564 2.024 1.043 3.742 2.576 5.152 4.6 1.472 2.024 2.668 4.477 3.588 7.36h2.024l-3.956-12.052V20.6h16.652V85h-16.652l3.956-12.052h-2.024c-.92 2.883-2.116 5.336-3.588 7.36-1.41 1.963-3.128 3.465-5.152 4.508-1.962 1.043-4.232 1.564-6.808 1.564zm5.704-14.352c1.35 0 2.515-.245 3.496-.736 1.043-.49 1.932-1.257 2.668-2.3a6.404 6.404 0 0 0 1.012-1.932 9.75 9.75 0 0 0 .644-2.392c.184-.92.276-1.84.276-2.76 0-1.472-.184-2.79-.552-3.956-.306-1.227-.766-2.3-1.38-3.22-.736-.981-1.625-1.717-2.668-2.208-.981-.552-2.146-.828-3.496-.828-1.288 0-2.453.276-3.496.828a6.39 6.39 0 0 0-2.576 2.208 10.711 10.711 0 0 0-1.104 2.024 9.84 9.84 0 0 0-.644 2.392 19.642 19.642 0 0 0-.184 2.76c0 1.472.154 2.821.46 4.048.307 1.165.798 2.177 1.472 3.036.675 1.043 1.534 1.81 2.576 2.3 1.043.49 2.208.736 3.496.736zM424.616 20.6h16.652V85h-16.652V20.6zm26.102 18.216h16.652V85h-16.652V38.816zM450.35 20.6h17.388v12.42H450.35V20.6zm26.469 18.216h16.652l-3.956 12.052h2.116c.859-3.005 1.994-5.49 3.404-7.452 1.411-2.024 3.098-3.527 5.06-4.508 2.024-1.043 4.294-1.564 6.808-1.564 3.435 0 6.348.675 8.74 2.024 2.392 1.288 4.171 3.25 5.336 5.888 1.166 2.576 1.748 5.765 1.748 9.568V85h-16.744V58.872c0-2.085-.46-3.68-1.38-4.784-.92-1.104-2.33-1.656-4.232-1.656-1.41 0-2.637.337-3.68 1.012-.981.675-1.778 1.656-2.392 2.944-.552 1.227-.828 2.699-.828 4.416V85h-16.652V38.816zm75.378 47.564c-3.005 0-5.765-.337-8.28-1.012-2.453-.675-4.692-1.687-6.716-3.036a19.152 19.152 0 0 1-4.968-4.968 17.418 17.418 0 0 1-2.392-4.324 34.669 34.669 0 0 1-1.472-5.244 35.303 35.303 0 0 1-.46-5.796c0-2.085.154-4.048.46-5.888a26.6 26.6 0 0 1 1.564-5.152 25.357 25.357 0 0 1 2.392-4.416 18.602 18.602 0 0 1 4.968-5.06 21.897 21.897 0 0 1 6.624-3.128c2.454-.675 5.06-1.012 7.82-1.012 4.846 0 8.955.981 12.328 2.944 3.435 1.963 6.042 4.815 7.82 8.556 1.779 3.741 2.668 8.25 2.668 13.524v3.68h-34.96v-9.384h19.504c-.061-2.453-.736-4.293-2.024-5.52-1.226-1.288-3.005-1.932-5.336-1.932-1.41 0-2.637.245-3.68.736-1.042.49-1.932 1.257-2.668 2.3-.49.675-.889 1.503-1.196 2.484-.306.92-.521 1.963-.644 3.128-.122 1.104-.184 2.423-.184 3.956 0 2.208.184 4.11.552 5.704.368 1.533.89 2.821 1.564 3.864a6.39 6.39 0 0 0 2.576 2.208c1.043.49 2.3.736 3.772.736.982 0 1.871-.123 2.668-.368.859-.307 1.595-.736 2.208-1.288.614-.613 1.074-1.38 1.38-2.3h16.652c-.49 3.25-1.778 6.072-3.864 8.464-2.024 2.392-4.661 4.263-7.912 5.612-3.189 1.288-6.777 1.932-10.764 1.932zM165.897 196.394c-4.373 0-8.145-.738-11.316-2.214-3.171-1.531-5.631-3.69-7.38-6.478-1.695-2.843-2.542-6.232-2.542-10.168v-1.312h11.972v.902c0 1.968.355 3.635 1.066 5.002.711 1.312 1.777 2.323 3.198 3.034 1.421.656 3.116.984 5.084.984 2.023 0 3.717-.301 5.084-.902 1.421-.656 2.46-1.558 3.116-2.706a3.76 3.76 0 0 0 .492-1.066c.164-.383.273-.765.328-1.148.055-.437.082-.875.082-1.312a6.11 6.11 0 0 0-.164-1.476 4.422 4.422 0 0 0-.574-1.394c-.547-.984-1.449-1.804-2.706-2.46-1.203-.711-2.761-1.257-4.674-1.64l-6.97-1.312c-3.061-.601-5.685-1.558-7.872-2.87-2.132-1.367-3.772-3.061-4.92-5.084a20.35 20.35 0 0 1-1.558-3.936c-.328-1.367-.492-2.87-.492-4.51 0-1.695.191-3.28.574-4.756a16.24 16.24 0 0 1 1.722-4.264c1.695-2.897 4.155-5.139 7.38-6.724 3.28-1.585 7.134-2.378 11.562-2.378 4.319 0 8.063.738 11.234 2.214 3.225 1.476 5.685 3.635 7.38 6.478 1.695 2.788 2.542 6.123 2.542 10.004v1.312h-11.972V155.312c0-2.897-.82-5.084-2.46-6.56-1.585-1.531-3.881-2.296-6.888-2.296-2.023 0-3.745.328-5.166.984-1.367.601-2.378 1.476-3.034 2.624a7.362 7.362 0 0 0-.738 5.084c.109.437.301.875.574 1.312.547.929 1.421 1.722 2.624 2.378 1.203.656 2.815 1.175 4.838 1.558l6.806 1.394c3.061.547 5.685 1.531 7.872 2.952 2.187 1.367 3.854 3.089 5.002 5.166a13.77 13.77 0 0 1 1.558 3.936c.328 1.367.492 2.843.492 4.428 0 1.148-.082 2.269-.246 3.362a18.888 18.888 0 0 1-.738 3.034 17.19 17.19 0 0 1-1.23 2.706c-1.64 2.843-4.1 5.057-7.38 6.642-3.28 1.585-7.134 2.378-11.562 2.378zm40.047-.164c-3.007 0-5.549-.601-7.626-1.804-2.078-1.257-3.636-3.061-4.674-5.412-1.039-2.405-1.558-5.357-1.558-8.856v-25.42h11.48V177.944c0 2.569.519 4.537 1.558 5.904 1.093 1.312 2.706 1.968 4.838 1.968 1.585 0 2.952-.383 4.1-1.148 1.202-.82 2.132-1.995 2.788-3.526.656-1.531.984-3.335.984-5.412v-20.992h11.316V195h-11.316l2.788-10.742h-1.558c-.766 2.679-1.777 4.893-3.034 6.642-1.203 1.749-2.652 3.089-4.346 4.018-1.64.875-3.554 1.312-5.74 1.312zm54.858 0c-2.35 0-4.455-.437-6.314-1.312-1.804-.929-3.389-2.296-4.756-4.1-1.312-1.804-2.35-3.991-3.116-6.56h-1.476L247.928 195h-11.316v-57.4h11.316v17.138l-2.788 10.66h1.476c.766-2.569 1.804-4.729 3.116-6.478 1.367-1.804 2.952-3.143 4.756-4.018 1.859-.929 3.964-1.394 6.314-1.394 2.843 0 5.44.601 7.79 1.804 2.351 1.203 4.292 2.952 5.822 5.248a18.485 18.485 0 0 1 2.05 4.018c.602 1.476 1.039 3.089 1.312 4.838.274 1.695.41 3.499.41 5.412 0 1.968-.136 3.827-.41 5.576a21.677 21.677 0 0 1-1.312 4.756 18.485 18.485 0 0 1-2.05 4.018c-1.53 2.296-3.471 4.045-5.822 5.248-2.35 1.203-4.947 1.804-7.79 1.804zm-3.526-9.922c1.586 0 2.98-.301 4.182-.902 1.258-.601 2.296-1.503 3.116-2.706.492-.656.902-1.367 1.23-2.132.328-.82.547-1.695.656-2.624.164-.984.246-2.023.246-3.116 0-1.585-.191-3.034-.574-4.346-.328-1.367-.847-2.515-1.558-3.444-.82-1.203-1.858-2.105-3.116-2.706-1.202-.601-2.596-.902-4.182-.902-1.64 0-3.088.301-4.346.902-1.202.601-2.214 1.503-3.034 2.706a8.068 8.068 0 0 0-1.23 2.132 17.88 17.88 0 0 0-.656 2.706 16.972 16.972 0 0 0-.246 2.952c0 1.64.164 3.116.492 4.428.383 1.312.93 2.46 1.64 3.444.82 1.203 1.832 2.105 3.034 2.706 1.258.601 2.706.902 4.346.902zm25.926-48.708h11.316v17.138l-2.788 10.66h1.476c.82-2.624 1.858-4.811 3.116-6.56 1.257-1.804 2.76-3.143 4.51-4.018 1.749-.875 3.717-1.312 5.904-1.312 3.116 0 5.74.601 7.872 1.804 2.132 1.203 3.744 3.007 4.838 5.412 1.093 2.405 1.64 5.357 1.64 8.856V195h-11.48v-23.206c0-2.624-.574-4.592-1.722-5.904-1.148-1.367-2.87-2.05-5.166-2.05-1.64 0-3.089.41-4.346 1.23-1.258.82-2.214 1.995-2.87 3.526-.656 1.476-.984 3.28-.984 5.412V195h-11.316v-57.4zm62.135 58.63c-2.569 0-4.92-.301-7.052-.902-2.132-.601-4.045-1.476-5.74-2.624a16.887 16.887 0 0 1-4.182-4.182 20.032 20.032 0 0 1-2.05-3.854 28.865 28.865 0 0 1-1.312-4.51 31.437 31.437 0 0 1-.41-5.166c0-1.804.164-3.526.492-5.166.328-1.64.793-3.171 1.394-4.592a22.652 22.652 0 0 1 2.132-3.936 16.887 16.887 0 0 1 4.182-4.182 17.769 17.769 0 0 1 5.494-2.706c2.023-.601 4.155-.902 6.396-.902 4.1 0 7.572.847 10.414 2.542 2.898 1.64 5.084 4.018 6.56 7.134 1.531 3.116 2.296 6.888 2.296 11.316v3.28h-31.98v-7.38h20.91c-.054-2.679-.792-4.701-2.214-6.068-1.366-1.421-3.334-2.132-5.904-2.132-1.53 0-2.897.301-4.1.902-1.202.601-2.214 1.476-3.034 2.624a10.361 10.361 0 0 0-1.23 2.46 22.749 22.749 0 0 0-.656 3.034 37.477 37.477 0 0 0-.164 3.69c0 1.968.164 3.69.492 5.166.383 1.476.93 2.761 1.64 3.854a8.506 8.506 0 0 0 3.034 2.542c1.203.601 2.679.902 4.428.902 1.203 0 2.296-.191 3.28-.574a7.27 7.27 0 0 0 2.542-1.64c.766-.711 1.34-1.585 1.722-2.624h11.316c-.437 2.733-1.53 5.139-3.28 7.216-1.694 2.023-3.881 3.608-6.56 4.756-2.624 1.148-5.576 1.722-8.856 1.722zm33.45 0c-1.859 0-3.581-.301-5.166-.902-1.531-.601-2.843-1.449-3.936-2.542-.984-.984-1.75-2.159-2.296-3.526-.547-1.367-.82-2.87-.82-4.51 0-1.148.109-2.214.328-3.198.273-.984.628-1.886 1.066-2.706a9.092 9.092 0 0 1 1.722-2.378c1.202-1.203 2.733-2.159 4.592-2.87 1.858-.711 4.045-1.175 6.56-1.394l12.136-.902v6.806l-8.856 1.066c-2.132.219-3.69.82-4.674 1.804a4.31 4.31 0 0 0-.902 1.312 5.166 5.166 0 0 0-.246 1.64c0 .601.082 1.148.246 1.64.164.437.41.847.738 1.23.382.383.847.683 1.394.902.601.164 1.284.246 2.05.246 1.53 0 2.952-.41 4.264-1.23 1.312-.875 2.35-2.05 3.116-3.526.82-1.476 1.23-3.089 1.23-4.838v-9.43c0-2.023-.602-3.553-1.804-4.592-1.203-1.093-2.952-1.64-5.248-1.64-1.422 0-2.679.246-3.772.738a5.186 5.186 0 0 0-2.378 2.214c-.547.929-.82 1.995-.82 3.198v.246h-11.562v-.246c.054-4.701 1.749-8.419 5.084-11.152 3.389-2.788 7.954-4.182 13.694-4.182 3.936 0 7.243.601 9.922 1.804 2.678 1.148 4.701 2.87 6.068 5.166 1.421 2.296 2.132 5.111 2.132 8.446V195h-11.152l2.624-10.742h-1.558c-.711 2.733-1.695 4.975-2.952 6.724-1.203 1.749-2.706 3.061-4.51 3.936-1.75.875-3.854 1.312-6.314 1.312zm45.412 0c-2.843 0-5.44-.601-7.79-1.804-2.351-1.203-4.292-2.952-5.822-5.248a21.506 21.506 0 0 1-2.132-4.018 30.157 30.157 0 0 1-1.312-4.756 36.044 36.044 0 0 1-.41-5.576c0-1.913.136-3.717.41-5.412.328-1.749.765-3.362 1.312-4.838a21.506 21.506 0 0 1 2.132-4.018c1.53-2.296 3.471-4.045 5.822-5.248 2.35-1.203 4.947-1.804 7.79-1.804 2.35 0 4.428.465 6.232 1.394 1.858.875 3.444 2.214 4.756 4.018 1.366 1.749 2.405 3.909 3.116 6.478h1.558l-2.788-10.66V137.6h11.316V195h-11.316l2.788-10.742h-1.558c-.711 2.569-1.75 4.756-3.116 6.56-1.312 1.804-2.898 3.171-4.756 4.1-1.804.875-3.882 1.312-6.232 1.312zm3.526-9.922c1.585 0 3.006-.301 4.264-.902 1.257-.601 2.296-1.503 3.116-2.706.437-.656.82-1.367 1.148-2.132.328-.82.574-1.695.738-2.624.164-.984.246-2.023.246-3.116 0-1.585-.192-3.034-.574-4.346-.328-1.367-.848-2.515-1.558-3.444-.82-1.203-1.859-2.105-3.116-2.706-1.258-.601-2.679-.902-4.264-.902-1.586 0-3.007.301-4.264.902-1.203.601-2.242 1.503-3.116 2.706-.438.601-.82 1.312-1.148 2.132-.328.82-.574 1.722-.738 2.706a16.972 16.972 0 0 0-.246 2.952c0 1.64.191 3.116.574 4.428.382 1.312.902 2.46 1.558 3.444.874 1.203 1.913 2.105 3.116 2.706 1.257.601 2.678.902 4.264.902zm28.221-48.708h11.316V195h-11.316v-57.4zm18.803 17.138h11.316V195h-11.316v-40.262zm-.574-17.138h12.464v10.414h-12.464V137.6zm19.376 17.138h11.316l-2.788 10.66h1.476c.82-2.624 1.859-4.811 3.116-6.56 1.257-1.804 2.761-3.143 4.51-4.018 1.749-.875 3.717-1.312 5.904-1.312 3.116 0 5.74.601 7.872 1.804 2.132 1.203 3.745 3.007 4.838 5.412s1.64 5.357 1.64 8.856V195h-11.48v-23.206c0-2.624-.574-4.592-1.722-5.904-1.148-1.367-2.87-2.05-5.166-2.05-1.64 0-3.089.41-4.346 1.23-1.257.82-2.214 1.995-2.87 3.526-.656 1.476-.984 3.28-.984 5.412V195h-11.316v-40.262zm62.135 41.492c-2.569 0-4.92-.301-7.052-.902-2.132-.601-4.045-1.476-5.74-2.624a16.887 16.887 0 0 1-4.182-4.182 20.032 20.032 0 0 1-2.05-3.854 28.865 28.865 0 0 1-1.312-4.51 31.437 31.437 0 0 1-.41-5.166c0-1.804.164-3.526.492-5.166.328-1.64.793-3.171 1.394-4.592a22.652 22.652 0 0 1 2.132-3.936 16.887 16.887 0 0 1 4.182-4.182 17.769 17.769 0 0 1 5.494-2.706c2.023-.601 4.155-.902 6.396-.902 4.1 0 7.572.847 10.414 2.542 2.898 1.64 5.084 4.018 6.56 7.134 1.531 3.116 2.296 6.888 2.296 11.316v3.28h-31.98v-7.38h20.91c-.054-2.679-.792-4.701-2.214-6.068-1.366-1.421-3.334-2.132-5.904-2.132-1.53 0-2.897.301-4.1.902-1.202.601-2.214 1.476-3.034 2.624a10.361 10.361 0 0 0-1.23 2.46 22.749 22.749 0 0 0-.656 3.034 37.477 37.477 0 0 0-.164 3.69c0 1.968.164 3.69.492 5.166.383 1.476.93 2.761 1.64 3.854a8.506 8.506 0 0 0 3.034 2.542c1.203.601 2.679.902 4.428.902 1.203 0 2.296-.191 3.28-.574a7.27 7.27 0 0 0 2.542-1.64c.766-.711 1.34-1.585 1.722-2.624h11.316c-.437 2.733-1.53 5.139-3.28 7.216-1.694 2.023-3.881 3.608-6.56 4.756-2.624 1.148-5.576 1.722-8.856 1.722zM1.54 261v-15.84h6.259c.154 0 .337.007.55.022.213.007.418.029.616.066.858.132 1.577.425 2.156.88a4.215 4.215 0 0 1 1.32 1.727c.293.689.44 1.456.44 2.299 0 .836-.15 1.602-.451 2.299a4.315 4.315 0 0 1-1.32 1.727c-.58.455-1.294.748-2.145.88a8.264 8.264 0 0 1-1.166.088H3.498V261H1.54zm1.958-7.711h4.235c.14 0 .297-.007.473-.022.183-.015.356-.04.517-.077.506-.117.917-.33 1.232-.638.323-.315.557-.682.704-1.1.147-.425.22-.858.22-1.298 0-.44-.073-.869-.22-1.287a2.817 2.817 0 0 0-.704-1.111c-.315-.315-.726-.528-1.232-.638a2.292 2.292 0 0 0-.517-.077 5.61 5.61 0 0 0-.473-.022H3.498v6.27zm14.524 8.041c-.887 0-1.631-.161-2.232-.484-.595-.33-1.045-.763-1.353-1.298a3.532 3.532 0 0 1-.451-1.76c0-.623.117-1.162.351-1.617.242-.462.58-.843 1.013-1.144.432-.308.95-.55 1.55-.726a17.735 17.735 0 0 1 1.893-.396 64.851 64.851 0 0 1 2.134-.319c.718-.095 1.39-.187 2.012-.275l-.704.407c.023-1.056-.19-1.837-.637-2.343-.44-.506-1.203-.759-2.288-.759-.72 0-1.35.165-1.892.495-.536.323-.913.851-1.133 1.584l-1.86-.561c.286-1.041.84-1.859 1.662-2.453.82-.594 1.902-.891 3.244-.891 1.079 0 2.003.194 2.773.583a3.388 3.388 0 0 1 1.672 1.738c.168.367.274.766.319 1.199.044.425.066.873.066 1.342V261h-1.739v-2.849l.407.264c-.447.961-1.074 1.687-1.88 2.178-.8.491-1.775.737-2.927.737zm.298-1.639c.703 0 1.312-.125 1.825-.374.521-.257.94-.59 1.255-1.001.315-.418.52-.873.616-1.364.11-.367.168-.774.176-1.221.014-.455.021-.803.021-1.045l.682.297c-.637.088-1.264.172-1.88.253-.617.081-1.2.169-1.75.264-.55.088-1.044.194-1.485.319a4.88 4.88 0 0 0-.913.396c-.278.161-.506.37-.681.627-.17.249-.254.561-.254.935 0 .323.081.631.242.924.17.293.426.532.77.715.353.183.81.275 1.376.275zm8.7 1.309v-11.88h1.75v2.871l-.287-.374c.14-.367.32-.704.54-1.012.227-.308.48-.561.759-.759.308-.249.656-.44 1.044-.572a4.427 4.427 0 0 1 1.188-.231 3.815 3.815 0 0 1 1.133.077v1.837a3.72 3.72 0 0 0-1.352-.088 2.745 2.745 0 0 0-1.365.539 2.93 2.93 0 0 0-.89.99c-.206.389-.349.81-.43 1.265a7.73 7.73 0 0 0-.12 1.375V261h-1.97zm11.198.33c-.888 0-1.632-.161-2.233-.484-.594-.33-1.045-.763-1.353-1.298a3.532 3.532 0 0 1-.451-1.76c0-.623.117-1.162.352-1.617.242-.462.58-.843 1.012-1.144.432-.308.95-.55 1.55-.726a17.735 17.735 0 0 1 1.893-.396 64.851 64.851 0 0 1 2.134-.319c.718-.095 1.39-.187 2.013-.275l-.704.407c.022-1.056-.19-1.837-.638-2.343-.44-.506-1.203-.759-2.288-.759-.719 0-1.35.165-1.892.495-.536.323-.913.851-1.133 1.584l-1.86-.561c.287-1.041.84-1.859 1.662-2.453.821-.594 1.903-.891 3.245-.891 1.078 0 2.002.194 2.772.583a3.388 3.388 0 0 1 1.672 1.738c.168.367.275.766.319 1.199.044.425.066.873.066 1.342V261h-1.738v-2.849l.407.264c-.448.961-1.075 1.687-1.881 2.178-.8.491-1.775.737-2.926.737zm.297-1.639c.704 0 1.312-.125 1.826-.374.52-.257.938-.59 1.254-1.001.315-.418.52-.873.616-1.364.11-.367.168-.774.176-1.221.014-.455.022-.803.022-1.045l.682.297c-.638.088-1.265.172-1.881.253-.616.081-1.2.169-1.75.264-.55.088-1.044.194-1.484.319a4.88 4.88 0 0 0-.913.396c-.279.161-.506.37-.682.627-.169.249-.253.561-.253.935 0 .323.08.631.242.924.168.293.425.532.77.715.352.183.81.275 1.375.275zm13.508 6.919a5.929 5.929 0 0 1-1.826-.286 5.264 5.264 0 0 1-1.64-.869 4.761 4.761 0 0 1-1.231-1.452l1.793-.946c.293.579.707 1.001 1.243 1.265.542.264 1.1.396 1.672.396.755 0 1.382-.139 1.88-.418a2.451 2.451 0 0 0 1.1-1.221c.243-.543.36-1.217.353-2.024v-3.245h.23v-8.69h1.739v11.957c0 .323-.011.634-.033.935a6.039 6.039 0 0 1-.11.891c-.154.843-.459 1.536-.913 2.079-.455.55-1.042.957-1.76 1.221-.719.271-1.551.407-2.497.407zm-.143-5.28c-1.108 0-2.057-.275-2.85-.825-.791-.557-1.404-1.309-1.836-2.255-.426-.946-.638-2.013-.638-3.201 0-1.188.212-2.255.638-3.201.432-.946 1.045-1.69 1.837-2.233.792-.55 1.738-.825 2.838-.825 1.122 0 2.064.271 2.827.814.762.543 1.338 1.287 1.727 2.233.396.946.594 2.017.594 3.212 0 1.181-.198 2.248-.594 3.201-.389.946-.965 1.698-1.727 2.255-.763.55-1.702.825-2.816.825zm.242-1.793c.8 0 1.455-.191 1.969-.572.513-.389.89-.92 1.133-1.595.25-.682.374-1.456.374-2.321 0-.88-.125-1.654-.374-2.321-.242-.675-.616-1.199-1.122-1.573-.506-.381-1.148-.572-1.925-.572-.807 0-1.474.198-2.002.594-.52.396-.91.931-1.166 1.606-.25.675-.374 1.43-.374 2.266 0 .843.128 1.606.385 2.288.256.675.641 1.21 1.155 1.606.52.396 1.17.594 1.947.594zM60.407 261v-11.88h1.75v2.871l-.287-.374c.14-.367.32-.704.54-1.012.227-.308.48-.561.758-.759.308-.249.657-.44 1.045-.572a4.429 4.429 0 0 1 1.188-.231 3.815 3.815 0 0 1 1.133.077v1.837a3.72 3.72 0 0 0-1.353-.088 2.745 2.745 0 0 0-1.364.539 2.933 2.933 0 0 0-.89.99c-.206.389-.35.81-.43 1.265a7.73 7.73 0 0 0-.12 1.375V261h-1.97zm11.198.33c-.888 0-1.632-.161-2.234-.484-.593-.33-1.044-.763-1.352-1.298a3.532 3.532 0 0 1-.452-1.76c0-.623.118-1.162.353-1.617.242-.462.579-.843 1.011-1.144.433-.308.95-.55 1.552-.726a17.74 17.74 0 0 1 1.891-.396 64.851 64.851 0 0 1 2.135-.319c.718-.095 1.39-.187 2.013-.275l-.705.407c.023-1.056-.19-1.837-.637-2.343-.44-.506-1.203-.759-2.289-.759-.718 0-1.349.165-1.892.495-.535.323-.912.851-1.132 1.584l-1.86-.561c.286-1.041.84-1.859 1.661-2.453.822-.594 1.903-.891 3.245-.891 1.079 0 2.002.194 2.773.583a3.388 3.388 0 0 1 1.671 1.738c.17.367.275.766.32 1.199.043.425.066.873.066 1.342V261h-1.739v-2.849l.407.264c-.447.961-1.074 1.687-1.88 2.178-.8.491-1.775.737-2.927.737zm.296-1.639c.705 0 1.313-.125 1.827-.374.52-.257.938-.59 1.254-1.001.315-.418.52-.873.615-1.364.11-.367.17-.774.177-1.221.014-.455.022-.803.022-1.045l.681.297c-.638.088-1.264.172-1.88.253-.616.081-1.2.169-1.75.264-.55.088-1.044.194-1.484.319a4.88 4.88 0 0 0-.913.396c-.28.161-.507.37-.683.627-.168.249-.252.561-.252.935 0 .323.08.631.242.924.168.293.425.532.77.715.352.183.81.275 1.374.275zm14.157 1.639c-1.114 0-2.053-.275-2.816-.825-.762-.557-1.342-1.309-1.738-2.255-.388-.953-.583-2.02-.583-3.201 0-1.195.195-2.266.583-3.212.396-.946.976-1.69 1.739-2.233.77-.543 1.712-.814 2.827-.814 1.1 0 2.046.275 2.838.825.799.543 1.411 1.287 1.837 2.233.425.946.637 2.013.637 3.201 0 1.188-.212 2.255-.638 3.201-.425.946-1.037 1.698-1.837 2.255-.791.55-1.741.825-2.849.825zm-5.467 4.95v-17.16h1.75v8.745h.22v8.415h-1.97zm5.226-6.743c.784 0 1.433-.198 1.947-.594.513-.396.898-.931 1.154-1.606.257-.682.385-1.445.385-2.288 0-.836-.128-1.591-.385-2.266-.249-.675-.638-1.21-1.166-1.606-.52-.396-1.184-.594-1.99-.594-.77 0-1.409.191-1.915.572-.505.374-.883.898-1.132 1.573-.25.667-.374 1.441-.374 2.321 0 .865.12 1.639.363 2.321.249.675.63 1.206 1.144 1.595.513.381 1.17.572 1.969.572zM102.252 261v-5.951c0-.565-.051-1.107-.154-1.628a4.082 4.082 0 0 0-.517-1.397 2.672 2.672 0 0 0-.99-.99c-.411-.242-.931-.363-1.562-.363a3.44 3.44 0 0 0-1.342.253 2.625 2.625 0 0 0-1.023.748c-.286.337-.51.763-.671 1.276-.154.506-.231 1.104-.231 1.793l-1.287-.396c0-1.151.205-2.138.616-2.959.418-.829 1-1.463 1.749-1.903.755-.447 1.643-.671 2.662-.671.77 0 1.426.121 1.969.363.543.242.994.565 1.353.968.359.396.642.843.847 1.342.205.491.348.994.429 1.507.088.506.132.986.132 1.441V261h-1.98zm-8.47 0v-15.84h1.76v8.745h.22V261h-1.98zM160.26 263.95c-1.6 0-3.045-.28-4.335-.84-1.28-.57-2.335-1.38-3.165-2.43-.82-1.06-1.34-2.32-1.56-3.78l4.26-.63c.3 1.24.92 2.195 1.86 2.865.94.67 2.01 1.005 3.21 1.005.67 0 1.32-.105 1.95-.315.63-.21 1.145-.52 1.545-.93.41-.41.615-.915.615-1.515 0-.22-.035-.43-.105-.63a1.591 1.591 0 0 0-.315-.585c-.15-.18-.365-.35-.645-.51a4.88 4.88 0 0 0-1.035-.435l-5.61-1.65c-.42-.12-.91-.29-1.47-.51a6.49 6.49 0 0 1-1.605-.945c-.52-.41-.955-.95-1.305-1.62-.34-.68-.51-1.535-.51-2.565 0-1.45.365-2.655 1.095-3.615.73-.96 1.705-1.675 2.925-2.145 1.22-.47 2.57-.7 4.05-.69 1.49.02 2.82.275 3.99.765a7.624 7.624 0 0 1 2.94 2.145c.79.93 1.36 2.07 1.71 3.42l-4.41.75c-.16-.7-.455-1.29-.885-1.77a4.234 4.234 0 0 0-1.545-1.095 5.13 5.13 0 0 0-1.86-.405c-.64-.02-1.245.07-1.815.27-.56.19-1.02.47-1.38.84-.35.37-.525.81-.525 1.32 0 .47.145.855.435 1.155.29.29.655.525 1.095.705.44.18.89.33 1.35.45l3.75 1.02c.56.15 1.18.35 1.86.6.68.24 1.33.58 1.95 1.02.63.43 1.145 1 1.545 1.71.41.71.615 1.61.615 2.7 0 1.16-.245 2.175-.735 3.045a6.355 6.355 0 0 1-1.95 2.145c-.82.56-1.75.98-2.79 1.26-1.03.28-2.095.42-3.195.42zm19.497 0c-1.66 0-3.125-.355-4.395-1.065a7.875 7.875 0 0 1-2.97-2.955c-.71-1.26-1.065-2.7-1.065-4.32 0-1.77.35-3.31 1.05-4.62.7-1.31 1.665-2.325 2.895-3.045 1.23-.73 2.645-1.095 4.245-1.095 1.7 0 3.145.4 4.335 1.2 1.19.8 2.07 1.925 2.64 3.375.57 1.45.77 3.155.6 5.115h-4.035v-1.5c0-1.65-.265-2.835-.795-3.555-.52-.73-1.375-1.095-2.565-1.095-1.39 0-2.415.425-3.075 1.275-.65.84-.975 2.085-.975 3.735 0 1.51.325 2.68.975 3.51.66.82 1.625 1.23 2.895 1.23.8 0 1.485-.175 2.055-.525.57-.35 1.005-.855 1.305-1.515l4.08 1.17c-.61 1.48-1.575 2.63-2.895 3.45a7.956 7.956 0 0 1-4.305 1.23zm-5.37-7.41v-3.03h10.74v3.03h-10.74zm23.232 7.41c-1.68 0-3.12-.375-4.32-1.125a7.426 7.426 0 0 1-2.76-3.06c-.64-1.29-.96-2.745-.96-4.365 0-1.64.33-3.105.99-4.395a7.601 7.601 0 0 1 2.82-3.045c1.21-.74 2.64-1.11 4.29-1.11 1.91 0 3.51.485 4.8 1.455 1.3.96 2.13 2.275 2.49 3.945l-4.08 1.08c-.24-.84-.66-1.495-1.26-1.965a3.14 3.14 0 0 0-2.01-.705c-.86 0-1.565.21-2.115.63-.55.41-.955.975-1.215 1.695-.26.71-.39 1.515-.39 2.415 0 1.41.31 2.555.93 3.435.63.87 1.56 1.305 2.79 1.305.92 0 1.62-.21 2.1-.63.48-.42.84-1.02 1.08-1.8l4.17.87c-.46 1.72-1.33 3.045-2.61 3.975-1.28.93-2.86 1.395-4.74 1.395zm20.07-.45c-1.12.21-2.22.3-3.3.27-1.07-.02-2.03-.205-2.88-.555a3.892 3.892 0 0 1-1.92-1.725c-.4-.74-.61-1.49-.63-2.25-.02-.77-.03-1.64-.03-2.61V242.8h4.08v13.59c0 .63.005 1.2.015 1.71.02.5.125.9.315 1.2.36.57.935.88 1.725.93.79.05 1.665.01 2.625-.12v3.39zm-11.52-13.05v-3.15h11.52v3.15h-11.52zm15.43-5.4v-3.6h4.08v3.6h-4.08zm0 18.45v-16.2h4.08v16.2h-4.08zm15.867.45c-1.63 0-3.06-.365-4.29-1.095a7.666 7.666 0 0 1-2.88-3.015c-.68-1.29-1.02-2.77-1.02-4.44 0-1.69.35-3.175 1.05-4.455.7-1.29 1.665-2.295 2.895-3.015 1.23-.72 2.645-1.08 4.245-1.08 1.63 0 3.06.365 4.29 1.095a7.609 7.609 0 0 1 2.895 3.03c.69 1.28 1.035 2.755 1.035 4.425 0 1.68-.35 3.165-1.05 4.455a7.635 7.635 0 0 1-2.895 3.015c-1.23.72-2.655 1.08-4.275 1.08zm0-3.81c1.31 0 2.285-.44 2.925-1.32.65-.89.975-2.03.975-3.42 0-1.44-.33-2.59-.99-3.45-.65-.86-1.62-1.29-2.91-1.29-.89 0-1.62.2-2.19.6-.57.4-.995.955-1.275 1.665-.27.71-.405 1.535-.405 2.475 0 1.45.325 2.605.975 3.465.66.85 1.625 1.275 2.895 1.275zm22.559 3.36v-7.65c0-.37-.02-.84-.06-1.41a6.385 6.385 0 0 0-.375-1.74 3.28 3.28 0 0 0-1.035-1.455c-.47-.39-1.14-.585-2.01-.585-.35 0-.725.055-1.125.165-.4.11-.775.325-1.125.645-.35.31-.64.77-.87 1.38-.22.61-.33 1.42-.33 2.43l-2.34-1.11c0-1.28.26-2.48.78-3.6a6.474 6.474 0 0 1 2.34-2.715c1.05-.69 2.37-1.035 3.96-1.035 1.27 0 2.305.215 3.105.645.8.43 1.42.975 1.86 1.635.45.66.77 1.35.96 2.07.19.71.305 1.36.345 1.95.04.59.06 1.02.06 1.29v9.09h-4.14zm-11.07 0v-16.2h3.63v5.37h.51v10.83h-4.14zm25.108 0v-21.6h4.14l9.39 14.4v-14.4h4.14v21.6h-4.14l-9.39-14.4v14.4h-4.14zm26.355.45c-1.16 0-2.145-.22-2.955-.66-.8-.45-1.41-1.045-1.83-1.785a5.075 5.075 0 0 1-.615-2.475c0-.75.115-1.435.345-2.055.23-.62.6-1.165 1.11-1.635.52-.48 1.215-.88 2.085-1.2.6-.22 1.315-.415 2.145-.585.83-.17 1.77-.33 2.82-.48l3.465-.525-1.47.81c0-.96-.23-1.665-.69-2.115-.46-.45-1.23-.675-2.31-.675-.6 0-1.225.145-1.875.435-.65.29-1.105.805-1.365 1.545l-3.69-1.17a6.26 6.26 0 0 1 2.31-3.27c1.13-.84 2.67-1.26 4.62-1.26 1.43 0 2.7.22 3.81.66 1.11.44 1.95 1.2 2.52 2.28.32.6.51 1.2.57 1.8.06.6.09 1.27.09 2.01v9.9h-3.57v-3.33l.51.69c-.79 1.09-1.645 1.88-2.565 2.37-.91.48-2.065.72-3.465.72zm.87-3.21c.75 0 1.38-.13 1.89-.39.52-.27.93-.575 1.23-.915.31-.34.52-.625.63-.855.21-.44.33-.95.36-1.53.04-.59.06-1.08.06-1.47l1.2.3c-1.21.2-2.19.37-2.94.51-.75.13-1.355.25-1.815.36-.46.11-.865.23-1.215.36-.4.16-.725.335-.975.525-.24.18-.42.38-.54.6a1.62 1.62 0 0 0-.165.735c0 .37.09.69.27.96.19.26.455.46.795.6.34.14.745.21 1.215.21zm31.621 2.76v-9.57c0-1.07-.255-1.9-.765-2.49-.5-.6-1.195-.9-2.085-.9-.57 0-1.065.135-1.485.405-.42.26-.75.63-.99 1.11-.23.47-.345 1.015-.345 1.635l-1.71-1.14c0-1.11.26-2.09.78-2.94a5.513 5.513 0 0 1 2.115-1.98c.89-.48 1.875-.72 2.955-.72 1.85 0 3.245.55 4.185 1.65.95 1.09 1.425 2.52 1.425 4.29v10.65h-4.08zm-19.53 0v-16.2h3.6v5.37h.51v10.83h-4.11zm9.78 0v-9.57c0-1.07-.255-1.9-.765-2.49-.5-.6-1.195-.9-2.085-.9-.85 0-1.535.295-2.055.885-.51.58-.765 1.335-.765 2.265l-1.71-1.2c0-1.06.265-2.01.795-2.85a5.754 5.754 0 0 1 2.13-1.995c.9-.49 1.905-.735 3.015-.735 1.27 0 2.31.27 3.12.81.82.54 1.425 1.26 1.815 2.16.39.9.585 1.89.585 2.97v10.65h-4.08zm24.967.45c-1.66 0-3.125-.355-4.395-1.065a7.875 7.875 0 0 1-2.97-2.955c-.71-1.26-1.065-2.7-1.065-4.32 0-1.77.35-3.31 1.05-4.62.7-1.31 1.665-2.325 2.895-3.045 1.23-.73 2.645-1.095 4.245-1.095 1.7 0 3.145.4 4.335 1.2 1.19.8 2.07 1.925 2.64 3.375.57 1.45.77 3.155.6 5.115h-4.035v-1.5c0-1.65-.265-2.835-.795-3.555-.52-.73-1.375-1.095-2.565-1.095-1.39 0-2.415.425-3.075 1.275-.65.84-.975 2.085-.975 3.735 0 1.51.325 2.68.975 3.51.66.82 1.625 1.23 2.895 1.23.8 0 1.485-.175 2.055-.525.57-.35 1.005-.855 1.305-1.515l4.08 1.17c-.61 1.48-1.575 2.63-2.895 3.45a7.956 7.956 0 0 1-4.305 1.23zm-5.37-7.41v-3.03h10.74v3.03h-10.74zM403.399 265v-23.04h3.856v9.696h10.912v-9.696h3.84V265h-3.84v-9.728h-10.912V265h-3.856zm24.054 0v-23.04h3.856V265h-3.856zm18.792.48c-1.493 0-2.896-.261-4.208-.784a10.05 10.05 0 0 1-3.44-2.336c-.981-1.024-1.749-2.277-2.304-3.76-.554-1.493-.832-3.2-.832-5.12 0-2.517.47-4.667 1.408-6.448.939-1.792 2.224-3.163 3.856-4.112 1.632-.96 3.472-1.44 5.52-1.44 2.838 0 5.083.661 6.736 1.984 1.664 1.312 2.79 3.157 3.376 5.536l-3.936.624c-.437-1.365-1.152-2.453-2.144-3.264-.992-.821-2.256-1.232-3.792-1.232-1.546-.021-2.832.315-3.856 1.008-1.024.693-1.797 1.669-2.32 2.928-.512 1.259-.768 2.731-.768 4.416 0 1.685.256 3.152.768 4.4.512 1.237 1.28 2.203 2.304 2.896 1.035.693 2.326 1.051 3.872 1.072 1.163.011 2.182-.197 3.056-.624.875-.437 1.59-1.093 2.144-1.968.555-.885.928-1.989 1.12-3.312h-4.064v-3.024h8.16c.022.171.038.421.048.752.011.331.016.528.016.592 0 2.176-.432 4.112-1.296 5.808a9.576 9.576 0 0 1-3.68 3.968c-1.6.96-3.514 1.44-5.744 1.44zm14.574-.48v-23.04h3.856v9.696h10.912v-9.696h3.84V265h-3.84v-9.728h-10.912V265h-3.856zm24.054 0v-23.04h3.856v19.424h10.176V265h-14.032zm17.702 0v-23.04h3.856V265h-3.856zm18.793.48c-1.494 0-2.896-.261-4.208-.784a10.04 10.04 0 0 1-3.44-2.336c-.982-1.024-1.75-2.277-2.304-3.76-.555-1.493-.832-3.2-.832-5.12 0-2.517.469-4.667 1.408-6.448.938-1.792 2.224-3.163 3.856-4.112 1.632-.96 3.472-1.44 5.52-1.44 2.837 0 5.082.661 6.736 1.984 1.664 1.312 2.789 3.157 3.376 5.536l-3.936.624c-.438-1.365-1.152-2.453-2.144-3.264-.992-.821-2.256-1.232-3.792-1.232-1.547-.021-2.832.315-3.856 1.008-1.024.693-1.798 1.669-2.32 2.928-.512 1.259-.768 2.731-.768 4.416 0 1.685.256 3.152.768 4.4.512 1.237 1.28 2.203 2.304 2.896 1.034.693 2.325 1.051 3.872 1.072 1.162.011 2.181-.197 3.056-.624.874-.437 1.589-1.093 2.144-1.968.554-.885.928-1.989 1.12-3.312h-4.064v-3.024h8.16c.021.171.037.421.048.752.01.331.016.528.016.592 0 2.176-.432 4.112-1.296 5.808-.854 1.685-2.08 3.008-3.68 3.968s-3.515 1.44-5.744 1.44zm14.573-.48v-23.04h3.856v9.696h10.912v-9.696h3.84V265h-3.84v-9.728h-10.912V265h-3.856zm29.27 0v-19.424h-7.456v-3.616h18.768v3.616h-7.456V265h-3.856z" fill="#202020"/>
</svg>
