<svg width="1102" height="1102" viewBox="0 0 1102 1102" fill="none" xmlns="http://www.w3.org/2000/svg">
<path d="M552.226 657.479C534.778 651.838 516.803 649.035 498.514 649.035C484.324 649.035 469.923 650.717 455.383 654.115C449.321 655.517 442.909 657.759 435.762 660.913C433.764 661.789 432.468 663.015 432.118 664.311C431.697 665.818 432.503 667.465 433.274 668.586C437.233 674.332 441.227 680.183 446.063 684.598C462.916 700.015 483.903 708.354 500.336 713.889C544.028 728.64 583.83 703.588 606.114 676.224C601.384 674.542 596.689 672.861 592.029 671.214C578.364 666.379 565.471 661.754 552.226 657.479ZM579.451 434.5C554.924 412.882 525.247 403.072 495.886 406.926C466.49 410.745 440.281 427.878 422.132 455.102C397.781 491.576 388.776 532.08 395.398 575.491C399.393 601.664 408.993 627.312 423.183 649.876C428.053 648.58 432.748 647.213 437.373 645.882C449.006 642.553 460.008 639.4 471.36 637.473C485.725 635.055 500.336 633.829 515.262 633.829C546.76 633.829 579.696 639.224 614.943 650.086C622.021 652.258 623.843 650.822 626.856 644.41C640.03 616.345 644.27 585.547 639.47 552.822C632.042 502.263 612.421 463.581 579.451 434.5ZM551 0C246.699 0 0 246.699 0 551C0 855.301 246.699 1102 551 1102C855.301 1102 1102 855.301 1102 551C1101.96 246.699 855.301 0 551 0ZM344.314 443.645C327.005 420.345 305.247 409.238 277.988 409.834C269.474 410.009 261.135 409.974 252.305 409.904C249.397 409.904 246.454 409.869 243.476 409.869C243.336 411.13 243.195 412.216 243.195 413.268V460.708C243.16 534.322 243.125 610.424 243.265 685.264C243.301 701.206 246.384 713.434 261.31 721.458L273.608 728.045H176.344L187.906 721.493C205.075 711.752 205.11 696.16 205.145 679.693L205.951 410.92C160.997 407.837 130.865 406.786 102.625 448.48C102.099 449.251 101.539 449.777 100.803 450.407C100.418 450.723 99.962 451.143 99.3664 451.704L91.2027 459.482L104.447 396.73H344.699L357.032 448.796L350.831 452.089L347.677 447.99C346.521 446.553 345.4 445.117 344.314 443.645ZM855.756 742.06C846.962 742.865 838.097 743.286 829.163 743.286C787.328 743.286 743.952 734.246 697.387 715.957C675.523 707.337 654.045 698.017 633.268 689.013C629.344 687.331 627.627 687.226 624.404 689.819C573.459 731.338 517.224 740.833 457.345 717.954C396.905 694.899 359.975 648.054 350.515 582.534C344.384 539.963 355.946 496.832 383.1 461.024C410.219 425.285 450.302 401.6 493.118 396.029C539.298 390.003 584.075 401.67 619.253 428.859C654.08 455.768 676.399 495.606 682.11 541.084C687.226 581.868 677.871 620.76 654.221 656.778L652.399 659.511C651.803 660.422 651.207 661.298 650.612 662.209C669.357 668.901 687.892 676.645 705.831 684.143C740.027 698.473 775.38 713.259 812.555 720.617C871.944 732.389 921.522 720.827 964.127 685.299C966.16 687.786 969.874 692.411 971.731 695.355C937.394 722.369 898.362 738.1 855.756 742.06ZM987.112 406.225C972.186 413.478 964.933 425.18 964.933 442.068V443.33C964.968 478.718 965.038 515.297 964.513 551.28C964.197 574.125 958.767 595.252 948.361 613.998C935.432 637.333 914.795 651.733 887.01 656.883C876.253 658.881 865.532 659.862 854.845 659.862C841.111 659.862 827.516 658.215 814.132 654.956C771.806 644.585 746.439 614.873 740.798 569.009C737.96 545.885 737.294 522.199 736.699 499.32C736.594 495.255 736.489 491.191 736.349 487.127C736.033 477.141 736.349 467.05 736.629 457.275C736.839 449.952 737.084 442.384 737.049 434.956C736.979 419.084 731.583 409.624 719.005 403.282L705.866 396.66H807.93L793.565 403.352C781.512 408.958 776.361 417.822 776.326 433.029C776.291 440.597 776.256 448.13 776.221 455.698C776.046 488.878 775.836 523.215 777.588 556.816C778.884 581.693 787.713 615.014 822.646 632.427C853.759 647.949 886.204 646.477 916.441 628.118C937.709 615.224 944.927 591.854 948.816 572.934C950.638 564.104 951.619 554.959 951.724 545.709C951.969 522.094 951.969 498.093 951.934 474.863C951.934 463.476 951.934 452.089 951.934 440.702C951.969 425.601 945.417 414.774 931.963 407.697C930.001 406.645 928.039 405.559 926.077 404.473C924.885 403.807 924.465 402.756 924.29 402.231L924.079 401.775L921.767 396.8H1005.89L990.055 404.753C988.899 405.349 988.023 405.77 987.112 406.225Z" fill="#E0E0E0"/>
</svg>
