<svg width="869" height="830" viewBox="0 0 869 830" fill="none" xmlns="http://www.w3.org/2000/svg">
<path fill-rule="evenodd" clip-rule="evenodd" d="M80.1867 507.129C60.4464 404.874 153.034 333.231 207.774 253.652C253.716 186.864 294.237 111.854 367.535 89.3996C445.157 65.6199 528.293 88.4883 602.011 132.878C683.867 182.168 769.926 245.903 793.572 345.941C817.366 446.602 773.925 547.201 718.368 625.136C669.249 694.039 593.021 724.032 514.085 738.001C439.168 751.258 364.721 737.872 293.986 700.236C208.643 654.825 100.033 609.933 80.1867 507.129Z" stroke="#8F6F50" stroke-width="1.15253"/>
<path fill-rule="evenodd" clip-rule="evenodd" d="M105.09 537.051C76.4001 441.332 157.893 364.023 202.49 282.782C239.92 214.599 271.382 139.088 339.195 110.595C411.009 80.4202 492.578 94.248 567.227 129.528C650.117 168.703 738.411 221.263 770.616 314.49C803.022 408.297 771.236 508.517 725.7 588.268C685.442 658.776 615.557 694.748 541.545 715.683C471.301 735.552 398.94 729.94 327.789 700.82C241.942 665.685 133.934 633.284 105.09 537.051Z" fill="#8F6F50"/>
</svg>
