<svg width="680" height="360" viewBox="0 0 680 360" fill="none" xmlns="http://www.w3.org/2000/svg">
<rect width="680" height="360" fill="#C4BFB8"/>
<g clip-path="url(#clip0_1820_2064)">
<path d="M340.636 82.8928C340.707 82.8894 340.777 82.9062 340.838 82.9414C340.899 82.9765 340.95 83.0285 340.982 83.0912C341.019 83.1509 341.038 83.2195 341.038 83.2895C341.038 83.3595 341.019 83.4282 340.982 83.4879L264.67 236.509C264.579 236.691 264.505 236.74 264.34 236.74C264.175 236.74 263.886 236.674 263.886 236.327V83.3061C263.886 83.1965 263.93 83.0913 264.007 83.0138C264.084 82.9363 264.189 82.8928 264.299 82.8928H340.636ZM340.636 80H264.299C263.424 80 262.585 80.3483 261.966 80.9683C261.348 81.5883 261 82.4292 261 83.3061V236.327C261 236.765 261.087 237.198 261.255 237.602C261.423 238.006 261.67 238.372 261.981 238.679C262.291 238.987 262.66 239.23 263.065 239.393C263.47 239.557 263.903 239.638 264.34 239.633C264.948 239.637 265.545 239.468 266.061 239.144C266.576 238.821 266.989 238.357 267.251 237.806L343.588 84.7855C343.84 84.2813 343.959 83.7209 343.934 83.1577C343.908 82.5944 343.74 82.047 343.444 81.5674C343.148 81.0878 342.735 80.6921 342.243 80.4177C341.752 80.1434 341.199 79.9996 340.636 80Z" fill="#101010"/>
<path d="M322.32 155.626C322.361 155.617 322.403 155.617 322.444 155.626L417.006 211.903C417.034 211.92 417.059 211.942 417.078 211.969C417.096 211.997 417.108 212.028 417.113 212.06C417.124 212.081 417.129 212.103 417.129 212.127C417.129 212.15 417.124 212.172 417.113 212.193C409.23 223.941 397.16 232.221 383.38 235.333C369.599 238.446 355.153 236.155 343.004 228.93C330.856 221.705 321.926 210.095 318.048 196.481C314.169 182.867 315.636 168.282 322.147 155.717C322.165 155.688 322.191 155.665 322.221 155.649C322.252 155.633 322.286 155.625 322.32 155.626ZM322.32 152.742C321.757 152.74 321.205 152.893 320.724 153.185C320.243 153.476 319.85 153.895 319.59 154.395C312.712 167.614 311.146 182.972 315.216 197.312C319.285 211.652 328.681 223.885 341.471 231.497C354.262 239.109 369.476 241.521 383.986 238.238C398.496 234.955 411.2 226.226 419.488 213.846C419.718 213.494 419.875 213.098 419.949 212.684C420.022 212.269 420.012 211.844 419.917 211.434C419.822 211.024 419.645 210.637 419.397 210.297C419.149 209.958 418.835 209.672 418.474 209.457L323.92 153.18C323.436 152.89 322.883 152.736 322.32 152.733V152.742Z" fill="#101010"/>
<path d="M379.165 88.4718C386.667 88.4718 394.001 90.7016 400.239 94.8792C406.478 99.0569 411.34 104.995 414.211 111.942C417.082 118.889 417.833 126.534 416.369 133.909C414.906 141.284 411.293 148.058 405.988 153.375C400.683 158.693 393.924 162.314 386.565 163.781C379.207 165.248 371.579 164.495 364.648 161.617C357.717 158.739 351.792 153.866 347.624 147.614C343.456 141.362 341.231 134.011 341.231 126.491C341.246 116.413 345.248 106.751 352.358 99.6244C359.469 92.4976 369.109 88.4871 379.165 88.4718ZM379.165 85.579C371.088 85.579 363.193 87.9794 356.477 92.4768C349.762 96.9741 344.527 103.366 341.437 110.845C338.346 118.324 337.537 126.553 339.113 134.493C340.688 142.432 344.578 149.725 350.289 155.449C356 161.173 363.276 165.071 371.198 166.651C379.119 168.23 387.33 167.419 394.792 164.321C402.254 161.224 408.632 155.978 413.119 149.247C417.606 142.516 420.001 134.603 420.001 126.508C420.001 115.653 415.699 105.242 408.04 97.5668C400.382 89.8911 389.995 85.579 379.165 85.579Z" fill="#101010"/>
<path d="M261.289 280.537C261.033 280.537 261 280.537 261 280.256V260.808C261 260.552 261 260.519 261.289 260.519H263.515C263.771 260.519 263.796 260.519 263.796 260.808V268.784C263.796 269.016 264.084 269.04 264.224 268.842L270.5 260.808C270.706 260.577 270.813 260.519 271.019 260.519H273.93C274.153 260.519 274.186 260.602 274.038 260.808L267.078 269.644C267.053 269.739 267.053 269.838 267.078 269.933L274.351 280.256C274.499 280.479 274.499 280.537 274.244 280.537H271.3C271.069 280.537 271.019 280.479 270.813 280.256L264.299 270.759C264.15 270.561 263.837 270.619 263.837 270.842V280.256C263.837 280.512 263.837 280.537 263.556 280.537H261.289Z" fill="#101010"/>
<path d="M278.765 280.537C278.509 280.537 278.484 280.537 278.484 280.256V260.808C278.484 260.552 278.484 260.519 278.765 260.519H280.991C281.247 260.519 281.28 260.519 281.28 260.808V277.62C281.28 277.876 281.28 277.909 281.56 277.909H288.157C288.413 277.909 288.446 277.909 288.446 278.198V280.256C288.446 280.512 288.446 280.537 288.157 280.537H278.765Z" fill="#101010"/>
<path d="M292.945 280.537C292.689 280.537 292.656 280.537 292.656 280.256V260.808C292.656 260.552 292.656 260.519 292.945 260.519H303.583C303.847 260.519 303.871 260.519 303.871 260.808V262.866C303.871 263.122 303.871 263.147 303.583 263.147H295.74C295.485 263.147 295.452 263.147 295.452 263.437V270.503C295.452 270.759 295.452 270.784 295.74 270.784H303.302C303.558 270.784 303.583 270.784 303.583 271.074V273.107C303.583 273.363 303.583 273.388 303.302 273.388H295.74C295.485 273.388 295.452 273.388 295.452 273.677V277.62C295.452 277.876 295.452 277.909 295.74 277.909H303.731C303.987 277.909 304.012 277.909 304.012 278.198V280.256C304.012 280.512 304.012 280.537 303.731 280.537H292.945Z" fill="#101010"/>
<path d="M309.909 280.537C309.654 280.537 309.629 280.537 309.629 280.256V260.808C309.629 260.552 309.629 260.519 309.909 260.519H312.128C312.383 260.519 312.416 260.519 312.416 260.808V280.256C312.416 280.512 312.416 280.537 312.128 280.537H309.909Z" fill="#101010"/>
<path d="M330.995 280.843C330.995 281.041 330.797 281.041 330.715 280.843L324.06 260.8C323.977 260.569 323.977 260.511 324.175 260.511H326.864C327.004 260.511 327.119 260.593 327.202 260.8L330.797 272.694C330.811 272.719 330.832 272.741 330.858 272.756C330.883 272.771 330.912 272.779 330.941 272.779C330.971 272.779 331 272.771 331.025 272.756C331.051 272.741 331.072 272.719 331.086 272.694L335.209 260.37C335.349 259.94 335.745 259.94 335.893 260.37L340.017 272.694C340.017 272.809 340.272 272.809 340.297 272.694L343.95 260.8C344.041 260.593 344.156 260.511 344.297 260.511H346.861C347.01 260.511 347.067 260.593 346.977 260.8L340.165 280.843C340.165 281.041 339.959 281.041 339.877 280.843L335.597 268.148C335.597 268.007 335.399 268.007 335.308 268.148L330.995 280.843Z" fill="#101010"/>
<path d="M366.553 263.205C368.401 265.194 369.428 267.81 369.428 270.528C369.428 273.246 368.401 275.862 366.553 277.851C365.624 278.793 364.518 279.542 363.298 280.052C362.079 280.563 360.77 280.826 359.448 280.826C358.127 280.826 356.818 280.563 355.599 280.052C354.379 279.542 353.273 278.793 352.344 277.851C350.496 275.862 349.469 273.246 349.469 270.528C349.469 267.81 350.496 265.194 352.344 263.205C353.273 262.263 354.379 261.515 355.599 261.004C356.818 260.493 358.127 260.23 359.448 260.23C360.77 260.23 362.079 260.493 363.298 261.004C364.518 261.515 365.624 262.263 366.553 263.205ZM354.488 265.139C353.17 266.61 352.473 268.536 352.542 270.512C352.478 272.496 353.175 274.43 354.488 275.917C355.115 276.603 355.88 277.146 356.734 277.511C357.587 277.876 358.509 278.054 359.436 278.033C360.365 278.061 361.288 277.887 362.143 277.521C362.997 277.156 363.762 276.608 364.384 275.917C365.715 274.439 366.421 272.501 366.355 270.512C366.427 268.531 365.719 266.601 364.384 265.139C363.767 264.439 363.004 263.883 362.149 263.511C361.294 263.14 360.368 262.962 359.436 262.99C358.505 262.969 357.581 263.151 356.727 263.521C355.873 263.892 355.109 264.444 354.488 265.139Z" fill="#101010"/>
<path d="M374.663 280.537C374.399 280.537 374.316 280.479 374.316 280.256V260.808C374.316 260.552 374.316 260.519 374.605 260.519H379.141C383.594 260.519 385.903 262.552 385.903 266.412C385.903 269.297 384.13 271.371 381.079 271.991C380.963 271.991 380.938 272.098 381.021 272.214L387.214 280.256C387.412 280.454 387.354 280.537 387.098 280.537H384.303C384.047 280.537 383.989 280.537 383.792 280.256L377.425 271.9C377.285 271.677 377.087 271.735 377.087 271.991V280.256C377.087 280.512 377.087 280.537 376.799 280.537H374.663ZM377.087 269.561C377.087 269.817 377.087 269.842 377.368 269.842H379.396C381.799 269.842 382.997 268.699 382.992 266.412C382.992 264.238 381.68 263.04 379.281 263.04H377.368C377.112 263.04 377.087 263.04 377.087 263.321V269.561Z" fill="#101010"/>
<path d="M392.359 280.537C392.103 280.537 392.078 280.537 392.078 280.256V260.808C392.078 260.552 392.078 260.519 392.359 260.519H394.593C394.849 260.519 394.882 260.519 394.882 260.808V268.784C394.882 269.016 395.162 269.04 395.311 268.842L401.586 260.808C401.784 260.577 401.9 260.519 402.098 260.519H405.009C405.239 260.519 405.264 260.602 405.124 260.808L398.164 269.644C398.131 269.737 398.131 269.839 398.164 269.933L405.437 280.256C405.578 280.479 405.578 280.537 405.322 280.537H402.386C402.155 280.537 402.098 280.479 401.9 280.256L395.302 270.759C395.162 270.561 394.849 270.619 394.849 270.842V280.256C394.849 280.512 394.849 280.537 394.56 280.537H392.359Z" fill="#101010"/>
<path d="M420.002 275.19C420.037 275.957 419.909 276.722 419.624 277.435C419.34 278.148 418.906 278.791 418.352 279.322C417.137 280.396 415.55 280.95 413.932 280.868C412.718 280.906 411.516 280.612 410.456 280.018C409.395 279.424 408.516 278.552 407.912 277.496C407.885 277.462 407.864 277.423 407.852 277.381C407.84 277.339 407.837 277.295 407.842 277.252C407.848 277.209 407.862 277.167 407.884 277.129C407.906 277.091 407.935 277.059 407.97 277.033L409.562 275.52C409.768 275.322 409.875 275.347 409.99 275.52C411.046 277.355 412.217 278.157 414.015 278.157C414.403 278.193 414.795 278.146 415.165 278.021C415.535 277.896 415.875 277.694 416.162 277.43C416.449 277.165 416.678 276.843 416.834 276.484C416.99 276.125 417.069 275.738 417.066 275.347C417.075 274.661 416.821 273.998 416.357 273.495C415.486 272.609 414.475 271.874 413.363 271.322C412.15 270.738 411.037 269.965 410.065 269.032C409.58 268.555 409.196 267.985 408.935 267.356C408.675 266.727 408.543 266.052 408.549 265.371C408.554 264.69 408.696 264.017 408.967 263.392C409.237 262.767 409.63 262.203 410.122 261.734C411.204 260.729 412.639 260.194 414.114 260.246C415.126 260.185 416.137 260.384 417.051 260.825C417.965 261.266 418.751 261.935 419.334 262.767C419.482 262.965 419.424 263.081 419.276 263.222L417.742 264.685C417.536 264.883 417.478 264.858 417.338 264.685C416.996 264.146 416.525 263.702 415.967 263.393C415.41 263.084 414.784 262.92 414.147 262.916C413.805 262.882 413.46 262.921 413.134 263.031C412.809 263.141 412.511 263.319 412.259 263.554C412.008 263.788 411.81 264.074 411.677 264.392C411.545 264.709 411.481 265.051 411.491 265.395C411.492 265.99 411.715 266.562 412.118 266.999C412.964 267.774 413.913 268.428 414.938 268.941C416.222 269.564 417.405 270.375 418.451 271.346C418.95 271.852 419.344 272.453 419.611 273.112C419.877 273.772 420.01 274.478 420.002 275.19Z" fill="#101010"/>
</g>
<defs>
<clipPath id="clip0_1820_2064">
<rect width="159" height="201" fill="white" transform="translate(261 80)"/>
</clipPath>
</defs>
</svg>
