<svg width="680" height="360" viewBox="0 0 680 360" fill="none" xmlns="http://www.w3.org/2000/svg">
<rect width="680" height="360" fill="#9B968E"/>
<g clip-path="url(#clip0_1820_2063)">
<path d="M343.762 123.14C343.815 123.138 343.867 123.15 343.913 123.176C343.959 123.202 343.997 123.24 344.023 123.286C344.05 123.329 344.065 123.38 344.065 123.431C344.065 123.483 344.05 123.534 344.023 123.577L287.956 235.972C287.889 236.105 287.835 236.142 287.714 236.142C287.592 236.142 287.386 236.093 287.386 235.838V123.444C287.386 123.363 287.418 123.286 287.475 123.229C287.532 123.172 287.609 123.14 287.689 123.14H343.762ZM343.762 121.015H287.689C287.047 121.015 286.43 121.271 285.976 121.727C285.521 122.182 285.266 122.8 285.266 123.444V235.838C285.266 236.482 285.521 237.1 285.976 237.555C286.43 238.011 287.047 238.267 287.689 238.267C288.137 238.272 288.578 238.148 288.958 237.91C289.338 237.673 289.642 237.331 289.834 236.925L345.944 124.53C346.129 124.159 346.217 123.746 346.197 123.332C346.178 122.917 346.053 122.514 345.835 122.161C345.616 121.809 345.31 121.518 344.948 121.318C344.585 121.117 344.177 121.013 343.762 121.015Z" fill="#45261F"/>
<path d="M330.325 176.563C330.355 176.558 330.386 176.558 330.416 176.563L399.892 217.923C399.914 217.935 399.933 217.951 399.948 217.971C399.963 217.991 399.973 218.014 399.977 218.039C399.985 218.054 399.989 218.07 399.989 218.087C399.989 218.104 399.985 218.121 399.977 218.136C394.202 226.81 385.325 232.934 375.176 235.244C365.027 237.554 354.38 235.875 345.431 230.552C336.482 225.229 329.912 216.669 327.077 206.636C324.241 196.603 325.356 185.863 330.192 176.63C330.207 176.609 330.227 176.591 330.25 176.58C330.273 176.568 330.299 176.562 330.325 176.563ZM330.325 174.444C329.912 174.442 329.506 174.555 329.152 174.769C328.798 174.983 328.51 175.291 328.319 175.659C323.274 185.367 322.131 196.643 325.124 207.17C328.117 217.697 335.019 226.677 344.414 232.265C353.808 237.853 364.981 239.625 375.639 237.218C386.297 234.81 395.63 228.406 401.722 219.32C401.892 219.061 402.007 218.771 402.061 218.467C402.116 218.162 402.107 217.85 402.037 217.549C401.967 217.248 401.836 216.964 401.653 216.716C401.469 216.467 401.237 216.258 400.971 216.102L331.495 174.766C331.141 174.555 330.737 174.444 330.325 174.444Z" fill="#45261F"/>
<path d="M372.092 127.238C377.605 127.238 382.993 128.876 387.577 131.944C392.161 135.013 395.733 139.374 397.843 144.477C399.953 149.58 400.505 155.194 399.429 160.612C398.354 166.029 395.699 171.004 391.801 174.91C387.903 178.815 382.936 181.475 377.53 182.553C372.123 183.63 366.518 183.077 361.425 180.963C356.332 178.85 351.979 175.271 348.916 170.678C345.854 166.086 344.219 160.687 344.219 155.164C344.23 147.761 347.17 140.664 352.395 135.429C357.62 130.195 364.703 127.249 372.092 127.238ZM372.092 125.113C366.157 125.113 360.356 126.876 355.421 130.18C350.487 133.483 346.641 138.178 344.37 143.671C342.099 149.164 341.505 155.209 342.663 161.041C343.82 166.872 346.678 172.229 350.874 176.433C355.071 180.637 360.417 183.501 366.238 184.661C372.058 185.821 378.092 185.225 383.574 182.95C389.057 180.675 393.744 176.821 397.041 171.878C400.338 166.934 402.098 161.121 402.098 155.176C402.099 151.227 401.324 147.316 399.817 143.667C398.31 140.019 396.1 136.703 393.313 133.91C390.527 131.117 387.219 128.902 383.577 127.39C379.936 125.879 376.033 125.101 372.092 125.101V125.113Z" fill="#45261F"/>
<path d="M240.265 219.872C240.491 219.274 240.837 218.729 241.282 218.27C241.727 217.812 242.262 217.45 242.852 217.207C243.437 216.935 244.071 216.786 244.715 216.77C245.36 216.755 246 216.872 246.597 217.116C247.191 217.335 247.733 217.676 248.188 218.117C248.643 218.559 249.001 219.09 249.239 219.678C249.505 220.26 249.649 220.89 249.662 221.53C249.676 222.17 249.559 222.806 249.318 223.399C249.084 224 248.731 224.547 248.28 225.007C247.829 225.468 247.289 225.831 246.694 226.077C246.112 226.335 245.484 226.475 244.847 226.489C244.211 226.502 243.577 226.389 242.985 226.155C242.392 225.921 241.852 225.571 241.396 225.127C240.939 224.682 240.575 224.15 240.326 223.563C240.06 222.986 239.917 222.36 239.907 221.724C239.896 221.089 240.018 220.458 240.265 219.872Z" fill="#45261F"/>
<path d="M249.371 196.925C249.407 197.222 249.371 197.258 249.086 197.289L226.969 199.772C226.678 199.802 226.642 199.772 226.612 199.48L226.327 196.943C226.327 196.645 226.327 196.609 226.618 196.579L235.707 195.565C235.967 195.534 235.961 195.207 235.707 195.067L225.763 188.911C225.479 188.711 225.4 188.589 225.376 188.359L225 185.038C225 184.777 225.061 184.734 225.309 184.868L236.216 191.698C236.326 191.716 236.439 191.703 236.543 191.661L247.42 182.039C247.662 181.851 247.723 181.845 247.759 182.136L248.128 185.493C248.159 185.754 248.128 185.827 247.868 186.1L237.876 194.782C237.664 194.97 237.767 195.322 238.028 195.292L248.728 194.077C249.019 194.047 249.056 194.077 249.092 194.369L249.371 196.925Z" fill="#45261F"/>
<path d="M248.097 175.598C248.097 175.895 248.03 175.92 247.74 175.895L225.605 173.667C225.314 173.667 225.284 173.607 225.314 173.309L225.562 170.765C225.562 170.474 225.629 170.444 225.92 170.474L245.067 172.374C245.364 172.405 245.401 172.374 245.425 172.083L246.164 164.561C246.164 164.264 246.231 164.239 246.522 164.264L248.867 164.5C249.158 164.5 249.188 164.561 249.158 164.859L248.097 175.598Z" fill="#45261F"/>
<path d="M250.605 158.005C250.52 158.29 250.478 158.308 250.193 158.223L228.985 151.545C228.7 151.454 228.682 151.412 228.767 151.133L232.433 139.47C232.524 139.191 232.566 139.167 232.845 139.258L235.093 139.962C235.372 140.053 235.396 140.096 235.305 140.375L232.603 148.971C232.512 149.257 232.536 149.293 232.815 149.384L240.522 151.812C240.807 151.897 240.843 151.879 240.934 151.594L243.534 143.313C243.619 143.028 243.661 143.01 243.946 143.095L246.157 143.799C246.442 143.884 246.46 143.926 246.376 144.206L243.782 152.48C243.691 152.759 243.715 152.802 243.994 152.893L248.29 154.241C248.569 154.326 248.611 154.308 248.696 154.022L251.447 145.268C251.538 144.989 251.581 144.971 251.859 145.056L254.083 145.778C254.362 145.863 254.386 145.906 254.295 146.191L250.605 158.005Z" fill="#45261F"/>
<path d="M257.759 139.064C257.625 139.325 257.583 139.337 257.316 139.203L237.563 128.95C237.302 128.81 237.29 128.768 237.423 128.507L238.599 126.236C238.732 125.975 238.781 125.957 239.041 126.097L258.795 136.35C259.055 136.484 259.067 136.532 258.934 136.793L257.759 139.064Z" fill="#45261F"/>
<path d="M273.706 116.772C273.839 116.966 273.706 117.1 273.464 116.996L252.219 105.462C251.971 105.34 251.923 105.292 252.092 105.134L254.34 103.027C254.412 102.97 254.499 102.937 254.59 102.931C254.681 102.926 254.772 102.949 254.849 102.997L267.162 110.112C267.277 110.185 267.465 110.003 267.404 109.888L261.181 96.3618C260.963 95.8943 261.296 95.5786 261.751 95.8275L274.833 102.918C274.948 102.991 275.136 102.809 275.069 102.694L268.822 89.8903C268.778 89.8091 268.761 89.7161 268.773 89.6245C268.785 89.5328 268.825 89.4474 268.889 89.3803L271.052 87.3406C271.167 87.2313 271.282 87.2556 271.367 87.4923L281.353 109.602C281.486 109.796 281.353 109.93 281.116 109.827L267.604 102.542C267.465 102.445 267.325 102.578 267.362 102.766L273.706 116.772Z" fill="#45261F"/>
<path d="M299.565 75.5146C301.016 76.0511 302.344 76.8726 303.473 77.9307C304.602 78.9889 305.509 80.2624 306.14 81.6765C306.834 83.061 307.246 84.5707 307.35 86.1167C307.454 87.6628 307.248 89.214 306.746 90.6795C306.273 92.1285 305.504 93.4626 304.487 94.596C303.469 95.7293 302.226 96.6368 300.838 97.2602C299.478 97.9407 297.991 98.3289 296.473 98.4C294.955 98.4711 293.439 98.2235 292.021 97.673C290.57 97.1387 289.24 96.318 288.111 95.2596C286.982 94.2012 286.076 92.9266 285.447 91.5112C284.753 90.1266 284.341 88.617 284.237 87.0709C284.133 85.5249 284.339 83.9736 284.841 82.5082C285.313 81.0591 286.083 79.725 287.1 78.5917C288.118 77.4584 289.361 76.5508 290.749 75.9274C292.109 75.247 293.595 74.8587 295.114 74.7876C296.632 74.7166 298.148 74.9642 299.565 75.5146ZM288.016 83.4674C287.372 85.6397 287.589 87.9775 288.622 89.9935C289.525 92.0818 291.193 93.7439 293.282 94.6376C294.271 95.0394 295.334 95.2245 296.4 95.1805C297.466 95.1365 298.51 94.8645 299.462 94.3827C300.434 93.952 301.301 93.3163 302.005 92.519C302.709 91.7217 303.232 90.7815 303.54 89.7628C304.197 87.5775 303.98 85.2219 302.934 83.1942C302.041 81.1046 300.363 79.4514 298.263 78.5925C297.281 78.1753 296.22 77.9782 295.155 78.0149C294.089 78.0516 293.045 78.3213 292.094 78.805C291.119 79.2418 290.25 79.8846 289.546 80.6894C288.842 81.4941 288.321 82.4417 288.016 83.4674Z" fill="#45261F"/>
<path d="M318.125 90.552C317.834 90.6066 317.725 90.552 317.677 90.297L313.847 68.3389C313.793 68.0475 313.847 68.0111 314.108 67.9625L319.234 67.0641C324.263 66.2141 327.275 68.0354 328.038 72.376C328.608 75.636 327.02 78.3436 323.688 79.6245C323.566 79.6853 323.548 79.7824 323.688 79.8977L332.249 87.7473C332.516 87.9294 332.468 88.0387 332.177 88.0872L329.014 88.6458C328.729 88.6943 328.656 88.6458 328.408 88.4211L319.525 80.2559C319.319 80.0252 319.107 80.1284 319.155 80.4198L320.785 89.7506C320.84 90.042 320.785 90.0785 320.525 90.1331L318.125 90.552ZM318.695 77.6758C318.749 77.9672 318.786 77.9915 319.076 77.9429L321.361 77.5362C324.071 77.0627 325.2 75.5349 324.748 72.9527C324.318 70.5244 322.597 69.4013 319.901 69.8748L317.707 70.2573C317.416 70.3059 317.392 70.3423 317.44 70.6337L318.695 77.6758Z" fill="#45261F"/>
<path d="M338.626 87.9173C338.329 87.9173 338.299 87.8687 338.317 87.5712L339.522 65.3157C339.522 65.0182 339.571 64.9878 339.868 65.0061L342.413 65.1396C342.71 65.1396 342.74 65.1882 342.722 65.4856L342.237 74.5918C342.237 74.8529 342.552 74.9075 342.728 74.6829L350.381 65.8924C350.623 65.6435 350.757 65.5828 350.987 65.5949L354.319 65.777C354.58 65.777 354.604 65.8863 354.428 66.1109L345.945 75.8242C345.915 75.9314 345.915 76.0448 345.945 76.152L353.653 88.4151C353.798 88.6822 353.798 88.749 353.501 88.7368L350.138 88.5547C349.878 88.5547 349.811 88.4697 349.599 88.1965L342.619 76.9048C342.467 76.6681 342.104 76.7106 342.092 76.9716L341.486 87.7473C341.486 88.0387 341.437 88.069 341.146 88.0569L338.626 87.9173Z" fill="#45261F"/>
<path d="M373.013 87.462C372.806 88.3117 372.421 89.1075 371.883 89.7963C371.345 90.4851 370.666 91.0511 369.893 91.4566C368.219 92.2617 366.297 92.3815 364.536 91.7904C361.664 90.9891 359.459 88.8036 358.925 86.2053C358.906 86.1604 358.895 86.112 358.895 86.0629C358.894 86.0138 358.903 85.9652 358.922 85.9198C358.941 85.8744 358.968 85.8333 359.003 85.7989C359.038 85.7645 359.08 85.7376 359.125 85.7196L361.337 84.5176C361.616 84.3598 361.731 84.4266 361.797 84.6815C362.403 87.0249 363.446 88.2694 365.433 88.8279C367.42 89.3864 369.166 88.4758 369.675 86.6788C369.895 85.9205 369.819 85.1066 369.462 84.4023C369.135 83.6313 368.251 82.5325 366.821 81.0816C365.003 79.2603 364.36 78.4529 363.9 77.5423C363.507 76.8787 363.255 76.1411 363.159 75.3755C363.063 74.6099 363.125 73.8327 363.343 73.0924C363.539 72.3255 363.896 71.6094 364.39 70.9917C364.884 70.3741 365.504 69.8691 366.209 69.5106C367.707 68.7396 369.449 68.5913 371.056 69.0978C373.607 69.8142 375.382 71.3683 376.049 73.4931C376.14 73.7602 376.049 73.8694 375.843 73.9787L373.692 75.114C373.413 75.2718 373.359 75.2232 373.262 74.9561C373.049 74.2541 372.665 73.6167 372.143 73.1023C371.621 72.5879 370.978 72.2129 370.274 72.0118C368.457 71.514 367.039 72.2971 366.572 73.9727C366.399 74.6287 366.477 75.3258 366.79 75.9274C367.486 77.0511 368.335 78.0726 369.311 78.9628C371.226 80.8569 371.904 81.7251 372.45 82.6964C372.855 83.4135 373.113 84.2042 373.21 85.0224C373.307 85.8406 373.24 86.6699 373.013 87.462Z" fill="#45261F"/>
<path d="M401.975 91.0559C402.238 92.3217 401.996 93.6404 401.3 94.7296C400.605 95.8188 399.512 96.5921 398.254 96.8838C397.636 97.0353 396.993 97.0552 396.367 96.9422C395.741 96.8293 395.145 96.5861 394.619 96.2282C394.076 95.8944 393.606 95.453 393.24 94.9311C392.873 94.4091 392.616 93.8176 392.486 93.1928C392.345 92.5641 392.334 91.9134 392.451 91.28C392.569 90.6467 392.814 90.0438 393.171 89.5078C393.509 88.9696 393.951 88.5041 394.47 88.1381C394.989 87.7721 395.576 87.5131 396.196 87.3758C396.816 87.2386 397.457 87.226 398.081 87.3388C398.706 87.4515 399.303 87.6873 399.836 88.0326C400.383 88.3599 400.855 88.7978 401.223 89.3183C401.592 89.8389 401.848 90.4307 401.975 91.0559Z" fill="#45261F"/>
<path d="M245.321 246.65C245.218 246.523 245.249 246.414 245.491 246.347L268.298 238.048C268.486 238.048 268.607 238.176 268.504 238.303L255.828 259.132C255.683 259.375 255.634 259.417 255.489 259.235L254.38 257.863C254.235 257.681 254.271 257.572 254.38 257.347L256.761 253.523C256.822 253.341 256.828 253.298 256.683 253.116L251.478 246.675C251.434 246.606 251.369 246.553 251.292 246.525C251.215 246.496 251.132 246.493 251.054 246.517L246.891 248.083C246.648 248.15 246.533 248.162 246.388 247.986L245.321 246.65ZM253.356 245.661C253.211 245.734 253.18 245.801 253.283 245.928L257.749 251.459C257.766 251.484 257.788 251.504 257.815 251.518C257.841 251.533 257.871 251.54 257.901 251.54C257.931 251.54 257.96 251.533 257.987 251.518C258.013 251.504 258.035 251.484 258.052 251.459L264.051 241.952C264.154 241.824 263.99 241.618 263.802 241.648L253.356 245.661Z" fill="#45261F"/>
<path d="M263.89 267.158C263.66 266.969 263.623 266.86 263.793 266.654L277.73 249.291C277.917 249.061 277.96 249.061 278.19 249.243L281.862 252.205C285.195 254.901 285.819 258.306 283.522 261.166C280.996 264.304 277.245 264.687 273.924 262.18C273.821 262.095 273.718 262.18 273.712 262.337L273.379 274.443C273.337 274.704 273.27 274.734 273.088 274.588L271.585 273.374C271.385 273.204 271.379 273.162 271.361 272.767L271.852 260.48C271.852 260.103 271.713 260.031 271.489 260.31L265.369 267.916C265.187 268.147 265.138 268.153 264.908 267.965L263.89 267.158ZM272.737 258.762C272.555 258.992 272.561 259.041 272.791 259.223L274.688 260.747C277.009 262.617 279.766 262.319 281.656 259.97C283.377 257.827 283.068 255.599 280.802 253.765L278.596 251.981C278.366 251.799 278.323 251.798 278.136 252.029L272.737 258.762Z" fill="#45261F"/>
<path d="M285.593 282.128C285.332 281.989 285.32 281.946 285.459 281.685L294.967 263.661C295.106 263.4 295.094 263.357 294.833 263.218L290.67 261.014C290.41 260.874 290.398 260.832 290.531 260.571L291.137 259.472C291.276 259.211 291.319 259.193 291.579 259.332L302.28 265.002C302.541 265.142 302.553 265.185 302.42 265.446L301.814 266.544C301.674 266.806 301.632 266.818 301.371 266.684L297.202 264.474C296.942 264.341 296.899 264.353 296.76 264.614L287.253 282.632C287.114 282.893 287.071 282.911 286.811 282.772L285.593 282.128Z" fill="#45261F"/>
<path d="M302.074 289.383C301.795 289.286 301.771 289.243 301.868 288.964L309.067 267.868C309.163 267.589 309.206 267.57 309.485 267.662L310.781 268.111C311.06 268.208 311.084 268.244 310.987 268.524L303.771 289.62C303.674 289.899 303.631 289.923 303.353 289.826L302.074 289.383Z" fill="#45261F"/>
<path d="M327.492 289.328C327.38 290.162 327.093 290.962 326.649 291.676C326.205 292.389 325.614 293 324.917 293.468C323.421 294.419 321.612 294.739 319.882 294.361C318.636 294.16 317.463 293.639 316.476 292.85C315.49 292.061 314.724 291.029 314.253 289.856C314.162 289.607 314.204 289.547 314.404 289.352L315.543 288.351C315.81 288.132 315.937 288.187 316.022 288.466C316.266 289.504 316.82 290.442 317.611 291.156C318.401 291.87 319.39 292.325 320.445 292.461C323.02 292.91 324.85 291.763 325.293 289.213C325.461 288.288 325.312 287.334 324.869 286.505C324.42 285.631 323.323 284.478 321.615 283.051C320.869 282.458 320.157 281.823 319.482 281.151C319.095 280.747 318.737 280.317 318.409 279.864C317.968 279.245 317.657 278.543 317.495 277.8C317.332 277.057 317.322 276.289 317.464 275.541C317.574 274.811 317.844 274.115 318.255 273.502C318.665 272.889 319.207 272.374 319.839 271.996C321.184 271.149 322.805 270.858 324.36 271.183C326.553 271.565 328.534 272.973 329.207 274.522C329.292 274.77 329.268 274.934 329.08 275.068L328.025 275.979C327.753 276.197 327.662 276.148 327.547 275.863C327.245 275.115 326.748 274.462 326.109 273.971C325.47 273.479 324.711 273.169 323.911 273.071C321.687 272.682 319.948 273.914 319.603 275.881C319.457 276.742 319.609 277.626 320.033 278.389C320.897 279.62 321.955 280.703 323.166 281.594C325.238 283.251 325.911 283.968 326.517 284.866C326.974 285.504 327.296 286.229 327.464 286.996C327.631 287.764 327.641 288.557 327.492 289.328Z" fill="#45261F"/>
<path d="M336.249 296C336.085 296 336.019 295.909 336.103 295.678L343.193 272.421C343.284 272.257 343.478 272.251 343.52 272.421L352.524 295.083C352.633 295.344 352.633 295.405 352.403 295.417L350.64 295.478C350.409 295.478 350.343 295.393 350.234 295.168L348.61 290.961C348.507 290.797 348.47 290.767 348.24 290.779L339.969 291.077C339.887 291.07 339.805 291.09 339.735 291.133C339.665 291.177 339.611 291.242 339.581 291.319L338.309 295.599C338.224 295.83 338.157 295.933 337.933 295.939L336.249 296ZM340.284 288.964C340.284 289.128 340.284 289.195 340.454 289.189L347.549 288.934C347.579 288.936 347.609 288.93 347.637 288.918C347.664 288.907 347.688 288.888 347.707 288.865C347.726 288.842 347.739 288.815 347.746 288.785C347.752 288.756 347.751 288.726 347.743 288.697L343.762 278.176C343.726 278.012 343.465 278.024 343.375 278.176L340.284 288.964Z" fill="#45261F"/>
<path d="M376.763 290.293C376.835 290.548 376.684 290.621 376.466 290.439L361.699 277.017C361.661 276.976 361.611 276.948 361.556 276.938C361.501 276.927 361.444 276.935 361.394 276.959C361.344 276.984 361.303 277.024 361.277 277.074C361.251 277.123 361.242 277.18 361.251 277.235L365.426 292.746C365.504 293.031 365.48 293.074 365.195 293.147L363.935 293.493C363.65 293.566 363.608 293.541 363.535 293.262L357.585 271.164C357.512 270.915 357.664 270.837 357.882 271.019L372.648 284.447C372.688 284.485 372.738 284.51 372.793 284.518C372.847 284.526 372.902 284.517 372.951 284.492C373 284.468 373.04 284.429 373.066 284.381C373.092 284.332 373.103 284.277 373.097 284.223L368.922 268.712C368.843 268.426 368.867 268.39 369.152 268.311L370.412 267.971C370.697 267.892 370.74 267.916 370.818 268.202L376.763 290.293Z" fill="#45261F"/>
<path d="M402.97 277.089C402.727 277.247 402.679 277.241 402.521 276.992L391.299 259.994C391.136 259.745 391.093 259.739 390.845 259.897L386.918 262.501C386.67 262.665 386.621 262.653 386.464 262.41L385.779 261.372C385.616 261.123 385.622 261.081 385.87 260.917L395.965 254.239C396.213 254.081 396.262 254.087 396.419 254.336L397.104 255.374C397.268 255.617 397.262 255.666 397.013 255.829L393.087 258.428C392.838 258.592 392.826 258.64 392.99 258.883L404.212 275.881C404.375 276.124 404.363 276.173 404.121 276.337L402.97 277.089Z" fill="#45261F"/>
<path d="M415.209 268.244C415.088 268.36 414.973 268.335 414.882 268.105L404.436 246.159C404.387 245.977 404.527 245.837 404.666 245.928L426.589 256.558C426.843 256.673 426.892 256.722 426.728 256.88L425.468 258.124C425.304 258.288 425.189 258.264 424.959 258.167L420.923 256.163C420.741 256.115 420.693 256.115 420.529 256.279L414.658 262.095C414.593 262.145 414.546 262.216 414.525 262.297C414.504 262.377 414.51 262.461 414.543 262.538L416.476 266.551C416.566 266.781 416.591 266.903 416.427 267.06L415.209 268.244ZM413.44 260.352C413.531 260.492 413.603 260.516 413.719 260.401L418.778 255.411C418.802 255.393 418.821 255.37 418.835 255.344C418.848 255.318 418.855 255.288 418.855 255.259C418.855 255.229 418.848 255.2 418.835 255.174C418.821 255.147 418.802 255.125 418.778 255.107L408.75 250.044C408.61 249.947 408.423 250.135 408.471 250.317L413.44 260.352Z" fill="#45261F"/>
<path d="M437.731 238.303C437.902 239.197 437.888 240.116 437.691 241.005C437.494 241.893 437.118 242.732 436.586 243.469L433.75 247.798C433.593 248.047 433.544 248.059 433.302 247.895L414.657 235.687C414.415 235.529 414.403 235.48 414.566 235.231L417.038 231.449C419.171 228.183 422.165 227.37 425.043 229.252C425.81 229.743 426.443 230.417 426.885 231.214C427.327 232.011 427.564 232.905 427.576 233.817C427.569 233.855 427.573 233.894 427.588 233.93C427.604 233.965 427.629 233.996 427.662 234.016C427.694 234.037 427.732 234.048 427.771 234.047C427.81 234.046 427.847 234.034 427.879 234.011C428.876 233.324 430.061 232.961 431.271 232.971C432.482 232.981 433.66 233.363 434.647 234.066C435.422 234.524 436.095 235.137 436.625 235.866C437.156 236.594 437.532 237.424 437.731 238.303ZM423.298 238.91C423.54 239.074 423.589 239.062 423.746 238.819L425.503 236.13C426.564 234.509 425.909 232.396 424.019 231.158C422.019 229.847 420.062 230.326 418.614 232.548L417.287 234.582C417.123 234.825 417.166 234.891 417.384 235.037L423.298 238.91ZM432.835 245.151C433.084 245.315 433.126 245.303 433.29 245.06L435.313 241.958C436.659 239.9 435.919 237.453 433.58 235.929C431.09 234.296 428.66 234.776 427.085 237.192L425.334 239.839C425.176 240.088 425.182 240.13 425.431 240.294L432.835 245.151Z" fill="#45261F"/>
<path d="M445.475 227.297C445.36 227.57 445.318 227.588 445.045 227.479L424.443 219.089C424.171 218.974 424.153 218.931 424.262 218.658L424.783 217.383C424.892 217.11 424.934 217.092 425.207 217.201L444.064 224.881C444.336 224.99 444.379 224.972 444.488 224.698L447.445 217.413C447.56 217.14 447.602 217.122 447.875 217.231L449.026 217.705C449.299 217.814 449.317 217.857 449.202 218.13L445.475 227.297Z" fill="#45261F"/>
<path d="M452.278 207.415C452.218 207.7 452.181 207.731 451.89 207.67L430.077 203.42C429.786 203.366 429.762 203.323 429.816 203.038L431.949 191.995C432.01 191.71 432.046 191.679 432.337 191.74L433.549 191.977C433.84 192.031 433.864 192.068 433.809 192.359L432.058 201.405C432.004 201.69 432.028 201.733 432.319 201.787L441.953 203.657C442.244 203.712 442.28 203.687 442.335 203.396L444.025 194.678C444.08 194.387 444.116 194.363 444.407 194.417L445.619 194.654C445.91 194.709 445.934 194.745 445.88 195.037L444.195 203.76C444.141 204.052 444.165 204.088 444.456 204.143L450.43 205.302C450.715 205.357 450.757 205.333 450.812 205.041L452.593 195.838C452.648 195.553 452.684 195.522 452.975 195.577L454.187 195.82C454.478 195.874 454.502 195.911 454.447 196.202L452.278 207.415Z" fill="#45261F"/>
<path d="M455.817 178.366C456.047 178.366 456.06 178.579 455.817 178.694L433.325 186.871C433.101 186.981 433.004 186.92 432.992 186.762L432.895 185.153C432.895 184.989 432.974 184.856 433.198 184.74L449.382 179.01C449.509 178.973 449.491 178.712 449.382 178.688L432.149 174.985C431.653 174.888 431.622 174.378 432.101 174.202L448.776 168.507C448.904 168.465 448.891 168.204 448.776 168.179L432.034 164.452C431.798 164.367 431.689 164.245 431.683 164.082L431.586 162.473C431.586 162.248 431.64 162.242 431.907 162.327L455.217 167.894C455.448 167.894 455.46 168.106 455.217 168.222L438.288 174.129C438.252 174.139 438.22 174.16 438.198 174.19C438.175 174.219 438.163 174.255 438.163 174.293C438.163 174.33 438.175 174.366 438.198 174.396C438.22 174.425 438.252 174.447 438.288 174.457L455.817 178.366Z" fill="#45261F"/>
<path d="M452.403 152.899C452.457 153.057 452.403 153.148 452.136 153.124L427.899 152.517C427.711 152.474 427.65 152.286 427.796 152.207L447.186 137.431C447.41 137.261 447.47 137.243 447.537 137.461L448.076 139.149C448.143 139.367 448.076 139.458 447.882 139.622L444.247 142.318C444.126 142.463 444.101 142.5 444.174 142.718L446.677 150.61C446.691 150.692 446.732 150.767 446.794 150.823C446.855 150.879 446.933 150.913 447.016 150.92L451.463 150.981C451.712 150.981 451.827 151.035 451.894 151.254L452.403 152.899ZM444.526 150.89C444.695 150.89 444.744 150.823 444.695 150.665L442.544 143.884C442.538 143.855 442.525 143.827 442.506 143.804C442.487 143.781 442.463 143.763 442.435 143.752C442.408 143.741 442.378 143.736 442.348 143.739C442.319 143.742 442.29 143.752 442.265 143.769L433.225 150.446C433.079 150.525 433.158 150.774 433.34 150.817L444.526 150.89Z" fill="#45261F"/>
<path d="M442.53 127.019C442.682 127.274 442.67 127.396 442.445 127.523L423.165 138.645C422.904 138.791 422.862 138.778 422.716 138.523L420.365 134.432C418.226 130.71 418.881 127.311 422.056 125.477C425.564 123.468 429.2 124.494 431.375 128.015C431.442 128.13 431.569 128.094 431.636 127.942L436.332 116.796C436.465 116.571 436.538 116.565 436.653 116.796L437.616 118.423C437.749 118.648 437.731 118.696 437.616 119.067L432.72 130.328C432.581 130.674 432.69 130.795 432.999 130.619L441.452 125.763C441.706 125.617 441.749 125.629 441.9 125.884L442.53 127.019ZM431.254 131.633C431.508 131.487 431.52 131.439 431.375 131.184L430.163 129.083C428.679 126.497 426 125.775 423.389 127.262C421.008 128.634 420.492 130.82 421.947 133.333L423.346 135.761C423.492 136.022 423.54 136.034 423.795 135.883L431.254 131.633Z" fill="#45261F"/>
<path d="M429.722 107.423C429.922 107.647 429.916 107.69 429.722 107.89L413.059 122.673C412.841 122.867 412.793 122.867 412.599 122.673L405.146 114.252C404.952 114.034 404.952 113.985 405.176 113.791L406.103 112.959C406.321 112.765 406.37 112.765 406.564 112.959L412.671 119.88C412.865 120.099 412.914 120.105 413.132 119.88L420.47 113.354C420.694 113.154 420.694 113.111 420.5 112.893L414.61 106.215C414.417 105.996 414.417 105.948 414.641 105.753L415.568 104.928C415.786 104.733 415.834 104.733 416.028 104.928L421.93 111.654C422.124 111.873 422.172 111.873 422.391 111.654L426.941 107.605C427.165 107.411 427.165 107.362 426.971 107.143L420.718 100.156C420.524 99.9375 420.524 99.8889 420.718 99.6946L421.645 98.869C421.87 98.6687 421.912 98.6747 422.106 98.869L429.722 107.423Z" fill="#45261F"/>
</g>
<defs>
<clipPath id="clip0_1820_2063">
<rect width="231" height="231" fill="white" transform="translate(225 65)"/>
</clipPath>
</defs>
</svg>
