<svg width="680" height="360" viewBox="0 0 680 360" fill="none" xmlns="http://www.w3.org/2000/svg">
<rect width="680" height="360" fill="black"/>
<g clip-path="url(#clip0_1820_2065)">
<path d="M326.341 192.307C326.042 192.307 326.004 192.307 326.004 191.97V169.043C326.004 168.744 326.042 168.706 326.341 168.706H328.972C329.278 168.706 329.309 168.744 329.309 169.043V178.443C329.309 178.717 329.647 178.749 329.819 178.513L337.239 169.03C337.475 168.763 337.615 168.693 337.876 168.693H341.315C341.583 168.693 341.621 168.795 341.449 169.03L333.195 179.456C333.156 179.565 333.156 179.684 333.195 179.793L341.793 191.97C341.965 192.243 341.965 192.307 341.659 192.307H338.188C337.914 192.307 337.85 192.243 337.615 191.97L329.851 180.774C329.685 180.538 329.309 180.602 329.309 180.876V191.97C329.309 192.275 329.278 192.307 328.972 192.307H326.341Z" fill="#C3BFB8"/>
<path d="M347.009 192.307C346.704 192.307 346.672 192.307 346.672 191.97V169.043C346.672 168.744 346.672 168.706 347.009 168.706H349.64C349.946 168.706 349.977 168.744 349.977 169.043V188.881C349.977 189.187 349.977 189.218 350.315 189.218H358.143C358.448 189.218 358.48 189.25 358.48 189.556V191.982C358.48 192.288 358.448 192.32 358.143 192.32L347.009 192.307Z" fill="#C3BFB8"/>
<path d="M363.806 192.307C363.501 192.307 363.469 192.307 363.469 191.97V169.043C363.469 168.744 363.501 168.706 363.806 168.706H376.385C376.691 168.706 376.723 168.744 376.723 169.043V171.476C376.723 171.775 376.691 171.813 376.385 171.813H367.086C366.781 171.813 366.749 171.813 366.749 172.151V180.468C366.749 180.774 366.781 180.806 367.086 180.806H376.003C376.309 180.806 376.341 180.806 376.341 181.143V183.538C376.341 183.843 376.341 183.875 376.003 183.875H367.086C366.781 183.875 366.749 183.875 366.749 184.213V188.868C366.749 189.174 366.781 189.206 367.086 189.206H376.544C376.85 189.206 376.882 189.238 376.882 189.543V191.97C376.882 192.275 376.85 192.307 376.544 192.307H363.806Z" fill="#C3BFB8"/>
<path d="M383.834 192.307C383.534 192.307 383.496 192.307 383.496 191.97V169.043C383.496 168.744 383.534 168.706 383.834 168.706H386.47C386.77 168.706 386.808 168.744 386.808 169.043V191.97C386.808 192.275 386.77 192.307 386.47 192.307H383.834Z" fill="#C3BFB8"/>
<path d="M408.771 192.676C408.733 192.912 408.535 192.912 408.433 192.676L400.568 169.03C400.472 168.763 400.472 168.693 400.708 168.693H403.892C404.058 168.693 404.192 168.795 404.294 169.03L408.548 183.041C408.548 183.175 408.847 183.175 408.886 183.041L413.707 168.502C413.879 167.992 414.344 167.992 414.516 168.502L419.376 183.041C419.376 183.175 419.681 183.175 419.713 183.041L424.031 169.03C424.133 168.795 424.267 168.693 424.439 168.693H427.471C427.643 168.693 427.706 168.795 427.604 169.03L419.579 192.676C419.541 192.912 419.344 192.912 419.242 192.676L414.178 177.704C414.147 177.532 413.943 177.532 413.841 177.704L408.771 192.676Z" fill="#C3BFB8"/>
<path d="M450.804 171.858C452.994 174.201 454.211 177.287 454.211 180.494C454.211 183.7 452.994 186.787 450.804 189.129C449.706 190.241 448.399 191.123 446.957 191.726C445.516 192.328 443.969 192.638 442.407 192.638C440.844 192.638 439.297 192.328 437.856 191.726C436.414 191.123 435.107 190.241 434.009 189.129C431.819 186.787 430.602 183.7 430.602 180.494C430.602 177.287 431.819 174.201 434.009 171.858C435.107 170.746 436.414 169.864 437.856 169.261C439.297 168.659 440.844 168.349 442.407 168.349C443.969 168.349 445.516 168.659 446.957 169.261C448.399 169.864 449.706 170.746 450.804 171.858ZM436.537 174.151C434.979 175.898 434.158 178.18 434.245 180.519C434.169 182.856 434.99 185.134 436.537 186.888C437.282 187.698 438.191 188.34 439.203 188.771C440.216 189.201 441.309 189.41 442.41 189.384C443.505 189.413 444.593 189.205 445.6 188.774C446.607 188.344 447.509 187.7 448.244 186.888C449.817 185.148 450.651 182.863 450.568 180.519C450.662 178.173 449.827 175.885 448.244 174.151C447.517 173.325 446.618 172.668 445.61 172.228C444.602 171.788 443.509 171.575 442.41 171.603C441.304 171.579 440.207 171.795 439.193 172.236C438.179 172.676 437.273 173.332 436.537 174.157V174.151Z" fill="#C3BFB8"/>
<path d="M460.386 192.307C460.086 192.307 459.984 192.243 459.984 191.97V169.043C459.984 168.744 460.016 168.706 460.322 168.706H465.71C470.971 168.706 473.71 171.1 473.71 175.654C473.71 179.061 471.614 181.525 467.978 182.232C467.844 182.27 467.812 182.372 467.914 182.506L475.264 191.97C475.499 192.205 475.436 192.307 475.13 192.307H471.824C471.519 192.307 471.455 192.307 471.219 191.97L463.659 182.118C463.494 181.85 463.258 181.92 463.258 182.22V191.97C463.258 192.275 463.22 192.307 462.921 192.307H460.386ZM463.258 179.354C463.258 179.659 463.29 179.691 463.596 179.691H465.99C468.827 179.691 470.243 178.341 470.239 175.641C470.239 173.094 468.691 171.661 465.857 171.661H463.596C463.29 171.661 463.258 171.699 463.258 171.998V179.354Z" fill="#C3BFB8"/>
<path d="M481.322 192.307C481.016 192.307 480.984 192.307 480.984 191.97V169.043C480.984 168.744 480.984 168.706 481.322 168.706H483.952C484.252 168.706 484.29 168.744 484.29 169.043V178.443C484.29 178.717 484.627 178.749 484.793 178.513L492.219 169.03C492.455 168.763 492.589 168.693 492.824 168.693H496.283C496.557 168.693 496.589 168.795 496.417 169.03L488.169 179.456C488.138 179.566 488.138 179.683 488.169 179.793L496.773 191.97C496.939 192.243 496.939 192.307 496.633 192.307H493.162C492.888 192.307 492.824 192.243 492.589 191.97L484.819 180.774C484.647 180.538 484.277 180.602 484.277 180.876V191.97C484.277 192.275 484.239 192.307 483.94 192.307H481.322Z" fill="#C3BFB8"/>
<path d="M514 186.002C514.027 186.901 513.864 187.795 513.522 188.625C513.179 189.456 512.665 190.205 512.012 190.823C510.573 192.088 508.697 192.741 506.783 192.645C503.713 192.645 500.911 191.091 499.663 188.664C499.63 188.625 499.607 188.579 499.593 188.53C499.579 188.481 499.575 188.429 499.581 188.379C499.588 188.328 499.605 188.279 499.631 188.235C499.657 188.191 499.691 188.153 499.733 188.123L501.643 186.34C501.879 186.104 502.019 186.136 502.153 186.372C503.427 188.531 504.783 189.473 506.911 189.473C509.038 189.473 510.516 188.091 510.516 186.168C510.524 185.348 510.216 184.557 509.656 183.958C509.114 183.283 507.936 182.436 506.115 181.411C503.822 180.099 502.93 179.5 502.236 178.717C501.664 178.154 501.211 177.482 500.903 176.741C500.596 175.999 500.441 175.204 500.447 174.401C500.453 173.599 500.62 172.806 500.938 172.069C501.256 171.333 501.719 170.667 502.3 170.113C503.58 168.925 505.279 168.293 507.025 168.355C509.758 168.355 511.949 169.4 513.197 171.323C513.369 171.559 513.299 171.699 513.133 171.864L511.312 173.584C511.076 173.82 511.006 173.788 510.834 173.584C510.433 172.944 509.876 172.417 509.215 172.052C508.555 171.687 507.812 171.495 507.057 171.495C505.146 171.495 503.924 172.673 503.924 174.463C503.919 175.17 504.183 175.853 504.662 176.373C505.666 177.289 506.791 178.063 508.006 178.672C510.433 180.016 511.344 180.691 512.152 181.506C512.741 182.097 513.208 182.798 513.525 183.57C513.842 184.342 514.003 185.168 514 186.002Z" fill="#C3BFB8"/>
<path d="M228.506 121.229C228.561 121.226 228.615 121.239 228.662 121.266C228.71 121.293 228.748 121.333 228.774 121.382C228.802 121.428 228.817 121.481 228.817 121.535C228.817 121.589 228.802 121.641 228.774 121.687L169.834 239.593C169.764 239.733 169.707 239.771 169.579 239.771C169.452 239.771 169.229 239.72 169.229 239.453V121.547C169.229 121.463 169.263 121.382 169.322 121.322C169.382 121.263 169.463 121.229 169.548 121.229H228.506ZM228.506 119H169.548C168.872 119 168.224 119.268 167.746 119.746C167.268 120.224 167 120.872 167 121.547V239.453C167 239.79 167.067 240.124 167.197 240.435C167.327 240.746 167.517 241.028 167.757 241.265C167.997 241.502 168.282 241.689 168.595 241.815C168.908 241.941 169.242 242.004 169.579 242C170.049 242.003 170.51 241.873 170.908 241.623C171.307 241.374 171.626 241.017 171.828 240.593L230.786 122.687C230.981 122.299 231.073 121.867 231.053 121.433C231.034 120.999 230.903 120.577 230.675 120.208C230.446 119.838 230.127 119.533 229.748 119.322C229.368 119.11 228.941 119 228.506 119Z" fill="#C3BFB8"/>
<path d="M214.361 177.271C214.393 177.264 214.425 177.264 214.457 177.271L287.491 220.634C287.513 220.646 287.532 220.664 287.547 220.685C287.561 220.706 287.57 220.73 287.574 220.755C287.582 220.771 287.587 220.788 287.587 220.806C287.587 220.824 287.582 220.841 287.574 220.857C281.486 229.909 272.164 236.289 261.52 238.687C250.877 241.085 239.719 239.32 230.337 233.753C220.954 228.186 214.057 219.24 211.062 208.751C208.066 198.261 209.199 187.022 214.228 177.341C214.242 177.319 214.262 177.301 214.285 177.289C214.309 177.276 214.335 177.27 214.361 177.271ZM214.361 175.049C213.927 175.047 213.5 175.165 213.129 175.39C212.757 175.615 212.454 175.937 212.253 176.322C206.94 186.508 205.731 198.341 208.875 209.391C212.018 220.44 219.274 229.866 229.153 235.731C239.031 241.596 250.782 243.455 261.988 240.925C273.195 238.396 283.007 231.67 289.408 222.13C289.586 221.859 289.707 221.555 289.764 221.235C289.821 220.916 289.813 220.588 289.739 220.272C289.666 219.956 289.53 219.658 289.338 219.396C289.146 219.135 288.904 218.914 288.625 218.749L215.597 175.386C215.223 175.163 214.797 175.044 214.361 175.042V175.049Z" fill="#C3BFB8"/>
<path d="M258.262 125.528C264.057 125.528 269.721 127.246 274.539 130.465C279.357 133.684 283.112 138.259 285.33 143.612C287.547 148.965 288.128 154.855 286.997 160.538C285.867 166.22 283.076 171.44 278.979 175.537C274.882 179.634 269.661 182.424 263.978 183.554C258.295 184.685 252.404 184.105 247.051 181.887C241.697 179.67 237.121 175.915 233.902 171.098C230.683 166.28 228.965 160.616 228.965 154.822C228.976 147.057 232.067 139.612 237.559 134.121C243.051 128.63 250.496 125.539 258.262 125.528ZM258.262 123.299C252.024 123.299 245.927 125.148 240.74 128.614C235.553 132.079 231.511 137.004 229.123 142.767C226.736 148.529 226.112 154.87 227.329 160.988C228.546 167.105 231.55 172.724 235.96 177.135C240.371 181.545 245.991 184.549 252.109 185.766C258.227 186.983 264.569 186.358 270.332 183.971C276.095 181.584 281.021 177.542 284.487 172.356C287.952 167.17 289.802 161.073 289.802 154.835C289.802 146.471 286.479 138.45 280.564 132.536C274.649 126.621 266.627 123.299 258.262 123.299Z" fill="#C3BFB8"/>
</g>
<defs>
<clipPath id="clip0_1820_2065">
<rect width="347" height="123" fill="white" transform="translate(167 119)"/>
</clipPath>
</defs>
</svg>
