<svg width="479" height="132" viewBox="0 0 479 132" fill="none" xmlns="http://www.w3.org/2000/svg">
<path d="M6.6922 50.166H0.920201L23.3422 0.586014H30.6682L53.1642 50.166H47.2442L40.5842 35.588H13.3522L6.6922 50.166ZM24.0082 12.056L15.4982 30.852H38.4382L29.8542 12.056L27.1162 5.61801H26.6722L24.0082 12.056ZM79.7608 50.166H74.5068V13.61H79.2428V24.636H79.5388C80.5748 18.494 84.7928 12.87 93.8948 12.87C102.035 12.87 106.623 17.902 107.807 25.006H108.177C109.213 18.716 113.579 12.87 122.755 12.87C132.301 12.87 137.259 19.604 137.259 28.854V50.166H132.005V29.594C132.005 21.454 128.527 17.68 120.831 17.68C112.025 17.68 108.473 22.786 108.473 32.48V50.166H103.219V29.594C103.219 21.454 99.8148 17.68 92.1188 17.68C83.2388 17.68 79.7608 22.786 79.7608 32.48V50.166ZM165.221 50.906C153.307 50.906 145.389 42.988 145.389 31.888C145.389 20.788 153.307 12.87 165.221 12.87C177.209 12.87 185.127 20.788 185.127 31.888C185.127 42.988 177.209 50.906 165.221 50.906ZM165.221 46.17C175.285 46.17 179.947 40.768 179.947 31.888C179.947 23.082 175.285 17.606 165.221 17.606C155.157 17.606 150.569 23.082 150.569 31.888C150.569 40.768 155.157 46.17 165.221 46.17ZM213.8 50.166H207.362L189.898 13.61H195.596L210.396 44.986H210.84L225.566 13.61H231.264L213.8 50.166ZM255.321 50.906C243.555 50.906 236.081 43.506 236.081 31.888C236.081 20.788 243.481 12.87 255.247 12.87C265.977 12.87 273.599 19.086 273.599 29.964C273.599 31.296 273.451 32.406 273.229 33.368H241.039C241.335 41.582 245.553 46.54 255.247 46.54C263.831 46.54 267.827 43.358 267.827 38.03V37.512H273.081V38.03C273.081 45.652 265.533 50.906 255.321 50.906ZM255.173 17.236C245.701 17.236 241.409 22.12 241.039 30.112H268.641C268.641 29.742 268.641 29.372 268.641 29.002C268.641 21.306 263.757 17.236 255.173 17.236ZM287.302 50.166H282.048V13.61H286.784V24.636H287.08C288.116 18.494 292.334 12.87 301.436 12.87C309.576 12.87 314.164 17.902 315.348 25.006H315.718C316.754 18.716 321.12 12.87 330.296 12.87C339.842 12.87 344.8 19.604 344.8 28.854V50.166H339.546V29.594C339.546 21.454 336.068 17.68 328.372 17.68C319.566 17.68 316.014 22.786 316.014 32.48V50.166H310.76V29.594C310.76 21.454 307.356 17.68 299.66 17.68C290.78 17.68 287.302 22.786 287.302 32.48V50.166ZM372.244 50.906C360.478 50.906 353.004 43.506 353.004 31.888C353.004 20.788 360.404 12.87 372.17 12.87C382.9 12.87 390.522 19.086 390.522 29.964C390.522 31.296 390.374 32.406 390.152 33.368H357.962C358.258 41.582 362.476 46.54 372.17 46.54C380.754 46.54 384.75 43.358 384.75 38.03V37.512H390.004V38.03C390.004 45.652 382.456 50.906 372.244 50.906ZM372.096 17.236C362.624 17.236 358.332 22.12 357.962 30.112H385.564C385.564 29.742 385.564 29.372 385.564 29.002C385.564 21.306 380.68 17.236 372.096 17.236ZM404.225 50.166H398.971V13.61H403.707V25.08H404.077C405.335 18.864 410.515 12.87 419.617 12.87C429.903 12.87 435.009 20.196 435.009 28.854V50.166H429.755V29.594C429.755 22.046 426.129 17.68 417.767 17.68C408.887 17.68 404.225 23.082 404.225 32.48V50.166ZM467.461 50.166H459.543C452.291 50.166 447.629 47.132 447.629 38.548V18.124H441.117V13.61H447.629V4.87801H452.957V13.61H467.461V18.124H452.957V38.844C452.957 43.95 455.473 45.356 460.801 45.356H467.461V50.166ZM473.962 56.678H472.408V53.496H473.888C474.85 53.496 475.368 53.274 475.368 51.942V50.166H472.482V39.88H478.994V51.868C478.994 55.124 477.07 56.678 473.962 56.678ZM37.7601 131.166H32.5061V94.61H37.2421V106.08H37.6121C38.8701 99.864 44.0501 93.87 53.1521 93.87C63.4381 93.87 68.5441 101.196 68.5441 109.854V131.166H63.2901V110.594C63.2901 103.046 59.6641 98.68 51.3021 98.68C42.4221 98.68 37.7601 104.082 37.7601 113.48V131.166ZM96.4819 131.906C84.5679 131.906 76.6499 123.988 76.6499 112.888C76.6499 101.788 84.5679 93.87 96.4819 93.87C108.47 93.87 116.388 101.788 116.388 112.888C116.388 123.988 108.47 131.906 96.4819 131.906ZM96.4819 127.17C106.546 127.17 111.208 121.768 111.208 112.888C111.208 104.082 106.546 98.606 96.4819 98.606C86.4179 98.606 81.8299 104.082 81.8299 112.888C81.8299 121.768 86.4179 127.17 96.4819 127.17ZM147.281 131.166H139.363C132.111 131.166 127.449 128.132 127.449 119.548V99.124H120.937V94.61H127.449V85.878H132.777V94.61H147.281V99.124H132.777V119.844C132.777 124.95 135.293 126.356 140.621 126.356H147.281V131.166ZM179.726 131.906C172.548 131.906 167.664 128.502 167.664 122.582C167.664 116.588 172.622 113.998 179.43 113.258L196.82 111.334V108.522C196.82 101.418 193.712 98.606 185.72 98.606C177.876 98.606 173.732 101.418 173.732 107.856V108.152H168.478V107.856C168.478 100.16 174.842 93.87 186.09 93.87C197.19 93.87 201.926 100.234 201.926 108.3V131.166H197.19V121.324H196.82C194.674 128.058 188.236 131.906 179.726 131.906ZM172.918 122.212C172.918 125.912 175.36 127.836 180.91 127.836C189.79 127.836 196.82 123.914 196.82 115.108V114.812L181.058 116.588C175.582 117.106 172.918 118.438 172.918 122.212ZM231.845 131.166H227.109V81.586H232.363V104.822H232.733C234.287 98.532 239.541 93.87 248.347 93.87C259.817 93.87 266.107 101.788 266.107 112.888C266.107 123.988 259.817 131.906 247.903 131.906C239.763 131.906 233.917 127.688 232.215 120.362H231.845V131.166ZM232.363 113.48C232.363 122.138 237.839 127.096 246.645 127.096C255.377 127.096 260.779 123.47 260.779 112.888C260.779 102.306 255.229 98.754 246.793 98.754C237.543 98.754 232.363 103.786 232.363 112.814V113.48ZM279.298 131.166H274.044V94.61H278.78V104.6H279.15C280.26 98.754 284.404 93.87 292.026 93.87C300.462 93.87 304.162 100.086 304.162 106.894V110.52H298.908V107.708C298.908 101.492 296.318 98.458 289.954 98.458C282.554 98.458 279.298 103.12 279.298 111.334V131.166ZM321.867 131.906C314.689 131.906 309.805 128.502 309.805 122.582C309.805 116.588 314.763 113.998 321.571 113.258L338.961 111.334V108.522C338.961 101.418 335.853 98.606 327.861 98.606C320.017 98.606 315.873 101.418 315.873 107.856V108.152H310.619V107.856C310.619 100.16 316.983 93.87 328.231 93.87C339.331 93.87 344.067 100.234 344.067 108.3V131.166H339.331V121.324H338.961C336.815 128.058 330.377 131.906 321.867 131.906ZM315.059 122.212C315.059 125.912 317.501 127.836 323.051 127.836C331.931 127.836 338.961 123.914 338.961 115.108V114.812L323.199 116.588C317.723 117.106 315.059 118.438 315.059 122.212ZM359.437 131.166H354.183V94.61H358.919V106.08H359.289C360.547 99.864 365.727 93.87 374.829 93.87C385.115 93.87 390.221 101.196 390.221 109.854V131.166H384.967V110.594C384.967 103.046 381.341 98.68 372.979 98.68C364.099 98.68 359.437 104.082 359.437 113.48V131.166ZM416.013 131.906C404.321 131.906 397.809 123.988 397.809 112.888C397.809 101.788 404.321 93.87 415.569 93.87C424.227 93.87 429.629 98.532 431.257 104.822H431.627V81.586H436.881V131.166H432.071V120.362H431.775C429.999 127.688 424.079 131.906 416.013 131.906ZM403.137 112.888C403.137 123.47 408.761 127.096 417.345 127.096C425.929 127.096 431.627 122.138 431.627 113.48V112.814C431.627 103.786 426.225 98.754 417.197 98.754C408.835 98.754 403.137 102.306 403.137 112.888ZM451.478 131.166H444.966V120.88H451.478V131.166Z" fill="white"/>
</svg>
