<svg width="616" height="123" viewBox="0 0 616 123" fill="none" xmlns="http://www.w3.org/2000/svg">
<g clip-path="url(#clip0_3462_1130)">
<path d="M386.57 25.5136C374.859 25.5136 368.002 30.9727 364.534 35.7515V27.0849H347.352V123.016H366.047V90.7475C371.469 96.8708 378.941 99.1225 386.034 99.1225C404.777 99.1225 419.799 84.4137 419.799 62.1723C419.799 44.0292 408.371 25.4974 386.555 25.4974L386.57 25.5136ZM383.244 81.6436C371.533 81.6436 365.795 72.5559 365.795 62.4315C365.795 46.0055 377.522 42.8467 383.244 42.8467C394.546 42.8467 400.82 52.469 400.82 61.9455C400.82 73.6413 393.821 81.6436 383.244 81.6436ZM125.063 25.5136C103.862 25.5136 88.3513 42.5227 88.3513 62.1885C88.3513 83.3445 104.871 98.9929 125.063 98.9929C145.256 98.9929 161.775 83.3283 161.775 62.1885C161.775 42.5389 146.264 25.5136 125.063 25.5136ZM125.063 81.3682C114.376 81.3682 107.33 73.5765 107.33 62.3181C107.33 51.0597 114.66 42.9925 125.063 42.9925C135.467 42.9925 142.796 50.6871 142.796 62.3181C142.796 73.949 135.75 81.3682 125.063 81.3682ZM327.176 33.3216C324.953 30.8593 322.273 28.9479 319.137 27.5709C316 26.194 312.485 25.5136 308.607 25.5136C304.729 25.5136 301.072 26.1778 297.935 27.5061C294.799 28.8345 292.072 30.6812 289.754 33.0462V0L271.06 2.78625V97.4216H289.754V56.4864C289.754 52.4204 290.952 49.1158 293.364 46.6049C295.76 44.094 298.897 42.8467 302.79 42.8467C306.684 42.8467 309.758 44.0778 312.075 46.5401C314.376 49.0024 315.543 52.3232 315.543 56.4864V97.4216H334.111V53.7973C334.111 49.5369 333.512 45.6816 332.314 42.2149C331.116 38.7645 329.398 35.8001 327.191 33.3378L327.176 33.3216ZM188.635 35.9297V27.0688H171.454V97.4216H190.148V62.3181C190.148 47.2043 200.032 43.9806 208.433 43.9806H211.523V27.0688H207.456C200.284 27.0688 193.727 29.2232 188.619 35.9297H188.635ZM486.602 0C478.594 0 474.543 6.64164 474.543 11.9388C474.543 18.3212 479.919 23.7317 486.602 23.7317C493.806 23.7317 498.519 17.6571 498.519 11.9388C498.519 4.79494 492.671 0 486.602 0ZM477.176 97.4216H495.871V34.3908L477.176 37.177V97.4216ZM590.086 25.5136C578.468 25.5136 570.934 31.2481 567.088 35.6057C562.942 29.3204 556.353 25.5136 546.864 25.5136C535.987 25.5136 529.871 30.7622 527.475 33.3378V27.0849H510.294V97.4378H528.989V56.5026C528.989 45.6654 536.176 42.8629 541.457 42.8629C548.33 42.8629 553.784 47.1719 553.784 56.5026V97.4378H572.494V56.0814C572.494 48.0142 577.507 42.8629 585.105 42.8629C594.137 42.8629 597.289 49.7313 597.289 56.5026V97.4378H616V53.8135C616 37.501 606.794 25.5298 590.086 25.5298V25.5136ZM59.1583 52.064C36.3178 10.4484 6.71501 1.05294 0 0.161991V97.4216H18.7106V31.7179C36.7119 45.4224 52.4591 69.0407 58.2598 97.4216H77.8689V2.15448H59.1583V52.0478V52.064ZM252.775 81.9352C248.44 81.9352 245.224 81.1253 243.143 79.5215C241.063 77.9178 240.022 75.0668 240.022 71.0008V43.2841H259.553V27.0849H240.022V7.3868L221.327 10.2055V72.6855C221.327 81.7732 223.771 88.4635 228.673 92.7238C233.56 96.9842 240.259 99.1225 248.755 99.1225C251.151 99.1225 253.421 98.9605 255.549 98.6203C256.952 98.3935 258.244 98.102 259.568 97.8266V81.5464C258.544 81.6436 257.551 81.7246 256.652 81.7732C255.171 81.8704 253.878 81.919 252.775 81.919V81.9352ZM445.429 35.9297V27.0688H428.248V97.4216H446.942V62.3181C446.942 47.2043 456.826 43.9806 465.227 43.9806H468.317V27.0688H464.25C457.078 27.0688 450.521 29.2232 445.413 35.9297H445.429Z" fill="#27006D"/>
</g>
<defs>
<clipPath id="clip0_3462_1130">
<rect width="616" height="123" fill="white"/>
</clipPath>
</defs>
</svg>
