<svg width="882" height="564" viewBox="0 0 882 564" fill="none" xmlns="http://www.w3.org/2000/svg">
<g filter="url(#filter0_f_3498_1243)">
<path d="M861.024 522.208L829.848 508.933C803.053 466.489 773.602 421.888 734.322 383.993L734.307 383.98C712.081 363.066 688.266 345.286 661.502 329.621C637.68 315.679 612.071 303.756 583.207 293.171C529.674 273.541 473.037 261.716 418.264 250.279C387.301 243.815 355.285 237.129 324.416 229.137C289.862 220.192 260.318 210.489 234.095 199.471C202.678 186.272 175.2 170.952 150.092 152.629C136.494 142.709 123.448 131.748 111.313 120.051C98.584 107.782 86.4149 94.276 75.1409 79.907L75.1051 79.8634C65.1407 68.0877 55.3061 55.7078 45.9082 43.6136C52.0304 38.6029 53.6935 30.7646 49.4827 25.3183C44.9078 19.3999 35.1283 18.5492 27.6465 23.416C20.1648 28.2827 17.8095 37.0306 22.3844 42.949C26.5782 48.3715 35.1382 49.5381 42.2972 45.9504C51.7149 58.0709 61.5719 70.4795 71.5669 82.2912C82.9214 96.7639 95.1834 110.368 108.008 122.731C111.036 125.65 114.12 128.524 117.255 131.347C126.793 139.936 136.801 148.063 147.126 155.596C172.458 174.08 200.172 189.533 231.852 202.843C258.251 213.933 287.971 223.696 322.715 232.691C353.679 240.706 385.744 247.402 416.757 253.877C471.385 265.282 527.872 277.077 581.13 296.607C609.783 307.113 635.197 318.944 658.828 332.777C685.363 348.308 708.977 365.939 731.02 386.676C769.995 424.279 799.302 468.634 825.965 510.867L823.46 543.264L861.022 522.208L861.024 522.208Z" fill="white"/>
</g>
<defs>
<filter id="filter0_f_3498_1243" x="0.0507812" y="0.256836" width="880.973" height="563.008" filterUnits="userSpaceOnUse" color-interpolation-filters="sRGB">
<feFlood flood-opacity="0" result="BackgroundImageFix"/>
<feBlend mode="normal" in="SourceGraphic" in2="BackgroundImageFix" result="shape"/>
<feGaussianBlur stdDeviation="10" result="effect1_foregroundBlur_3498_1243"/>
</filter>
</defs>
</svg>
