<svg width="764" height="712" viewBox="0 0 764 712" fill="none" xmlns="http://www.w3.org/2000/svg">
<g filter="url(#filter0_f_3739_1362)">
<path d="M733.48 20.5783L711.993 46.7795C663.736 60.5924 612.665 76.3496 565.273 103.423L565.256 103.433C538.947 118.901 515.2 136.772 492.657 158.067C472.592 177.021 453.964 198.257 435.708 222.994C401.849 268.871 374.611 319.916 348.269 369.282C333.378 397.189 317.98 426.044 301.65 453.432C283.371 484.089 265.77 509.725 247.839 531.805C226.357 558.257 203.944 580.334 179.314 599.295C165.978 609.564 151.797 619.012 137.166 627.378C121.819 636.155 105.441 644.047 88.4864 650.837L88.4345 650.859C74.3365 657.12 59.6949 663.087 45.45 668.715C42.3579 661.433 35.3008 657.638 28.892 660.152C21.9279 662.883 18.3681 672.032 20.9407 680.578C23.5133 689.125 31.2493 693.839 38.2134 691.108C44.5946 688.604 48.1156 680.715 46.6801 672.837C60.9557 667.197 75.6311 661.217 89.7724 654.937C106.849 648.098 123.347 640.144 138.81 631.303C142.462 629.215 146.085 627.061 149.675 624.843C160.594 618.098 171.202 610.771 181.329 602.974C206.177 583.844 228.784 561.578 250.446 534.903C268.496 512.675 286.204 486.887 304.584 456.061C320.963 428.589 336.385 399.689 351.299 371.738C377.57 322.503 404.738 271.592 438.423 225.951C456.545 201.396 475.03 180.32 494.936 161.519C517.287 140.406 540.834 122.685 566.922 107.345C613.948 80.4827 664.743 64.7949 712.76 51.0486L743.154 62.5416L733.479 20.5812L733.48 20.5783Z" fill="white"/>
</g>
<defs>
<filter id="filter0_f_3739_1362" x="0.105469" y="0.578125" width="763.047" height="711.305" filterUnits="userSpaceOnUse" color-interpolation-filters="sRGB">
<feFlood flood-opacity="0" result="BackgroundImageFix"/>
<feBlend mode="normal" in="SourceGraphic" in2="BackgroundImageFix" result="shape"/>
<feGaussianBlur stdDeviation="10" result="effect1_foregroundBlur_3739_1362"/>
</filter>
</defs>
</svg>
